<?xml version="1.0" encoding="UTF-8" standalone="no"?>
<!DOCTYPE svg PUBLIC "-//W3C//DTD SVG 1.1//EN"
 "http://www.w3.org/Graphics/SVG/1.1/DTD/svg11.dtd">
<!-- Generated by graphviz version 2.43.0 (0)
 -->
<!-- Title: /home/allan/Licence2_Informatique/ProjetLIFAP4/src/core/Castle.h Pages: 1 -->
<svg width="156pt" height="218pt"
 viewBox="0.00 0.00 156.00 218.00" xmlns="http://www.w3.org/2000/svg" xmlns:xlink="http://www.w3.org/1999/xlink">
<g id="graph0" class="graph" transform="scale(1 1) rotate(0) translate(4 214)">
<title>/home/allan/Licence2_Informatique/ProjetLIFAP4/src/core/Castle.h</title>
<!-- Node1 -->
<g id="node1" class="node">
<title>Node1</title>
<g id="a_node1"><a xlink:title=" ">
<polygon fill="#bfbfbf" stroke="black" points="0,-168.5 0,-209.5 148,-209.5 148,-168.5 0,-168.5"/>
<text text-anchor="start" x="8" y="-197.5" font-family="Helvetica,sans-Serif" font-size="10.00">/home/allan/Licence2</text>
<text text-anchor="start" x="8" y="-186.5" font-family="Helvetica,sans-Serif" font-size="10.00">_Informatique/ProjetLIFAP4</text>
<text text-anchor="middle" x="74" y="-175.5" font-family="Helvetica,sans-Serif" font-size="10.00">/src/core/Castle.h</text>
</a>
</g>
</g>
<!-- Node2 -->
<g id="node2" class="node">
<title>Node2</title>
<g id="a_node2"><a xlink:href="_entity_8h.html" target="_top" xlink:title=" ">
<polygon fill="none" stroke="black" points="20.5,-112.5 20.5,-131.5 73.5,-131.5 73.5,-112.5 20.5,-112.5"/>
<text text-anchor="middle" x="47" y="-119.5" font-family="Helvetica,sans-Serif" font-size="10.00">Entity.h</text>
</a>
</g>
</g>
<!-- Node1&#45;&gt;Node2 -->
<g id="edge1" class="edge">
<title>Node1&#45;&gt;Node2</title>
<path fill="none" stroke="midnightblue" d="M65.9,-168.5C62.28,-159.78 58.03,-149.56 54.49,-141.02"/>
<polygon fill="midnightblue" stroke="midnightblue" points="57.66,-139.54 50.59,-131.65 51.2,-142.23 57.66,-139.54"/>
</g>
<!-- Node4 -->
<g id="node4" class="node">
<title>Node4</title>
<g id="a_node4"><a xlink:title=" ">
<polygon fill="none" stroke="#bfbfbf" points="44,-0.5 44,-19.5 104,-19.5 104,-0.5 44,-0.5"/>
<text text-anchor="middle" x="74" y="-7.5" font-family="Helvetica,sans-Serif" font-size="10.00">iostream</text>
</a>
</g>
</g>
<!-- Node1&#45;&gt;Node4 -->
<g id="edge4" class="edge">
<title>Node1&#45;&gt;Node4</title>
<path fill="none" stroke="midnightblue" d="M77.94,-168.4C79.89,-157.69 82.03,-144.17 83,-132 84.19,-117.06 83.85,-75.01 82,-56 81.14,-47.2 79.52,-37.54 77.96,-29.44"/>
<polygon fill="midnightblue" stroke="midnightblue" points="81.37,-28.67 75.94,-19.57 74.51,-30.07 81.37,-28.67"/>
</g>
<!-- Node3 -->
<g id="node3" class="node">
<title>Node3</title>
<g id="a_node3"><a xlink:href="_vec2_8h.html" target="_top" xlink:title=" ">
<polygon fill="none" stroke="black" points="23.5,-56.5 23.5,-75.5 72.5,-75.5 72.5,-56.5 23.5,-56.5"/>
<text text-anchor="middle" x="48" y="-63.5" font-family="Helvetica,sans-Serif" font-size="10.00">Vec2.h</text>
</a>
</g>
</g>
<!-- Node2&#45;&gt;Node3 -->
<g id="edge2" class="edge">
<title>Node2&#45;&gt;Node3</title>
<path fill="none" stroke="midnightblue" d="M47.17,-112.08C47.3,-105.01 47.48,-94.86 47.65,-85.99"/>
<polygon fill="midnightblue" stroke="midnightblue" points="51.15,-85.81 47.84,-75.75 44.15,-85.68 51.15,-85.81"/>
</g>
<!-- Node3&#45;&gt;Node4 -->
<g id="edge3" class="edge">
<title>Node3&#45;&gt;Node4</title>
<path fill="none" stroke="midnightblue" d="M52.29,-56.08C55.85,-48.69 61.02,-37.95 65.42,-28.81"/>
<polygon fill="midnightblue" stroke="midnightblue" points="68.6,-30.28 69.79,-19.75 62.29,-27.24 68.6,-30.28"/>
</g>
</g>
</svg>
