<?xml version="1.0" encoding="UTF-8" standalone="no"?>
<!DOCTYPE svg PUBLIC "-//W3C//DTD SVG 1.1//EN"
 "http://www.w3.org/Graphics/SVG/1.1/DTD/svg11.dtd">
<!-- Generated by graphviz version 2.43.0 (0)
 -->
<!-- Title: /home/allan/Licence2_Informatique/ProjetLIFAP4/src/core/Enemy.cpp Pages: 1 -->
<svg width="301pt" height="274pt"
 viewBox="0.00 0.00 301.23 274.00" xmlns="http://www.w3.org/2000/svg" xmlns:xlink="http://www.w3.org/1999/xlink">
<g id="graph0" class="graph" transform="scale(1 1) rotate(0) translate(4 270)">
<title>/home/allan/Licence2_Informatique/ProjetLIFAP4/src/core/Enemy.cpp</title>
<!-- Node1 -->
<g id="node1" class="node">
<title>Node1</title>
<g id="a_node1"><a xlink:title=" ">
<polygon fill="#bfbfbf" stroke="black" points="115.23,-224.5 115.23,-265.5 263.23,-265.5 263.23,-224.5 115.23,-224.5"/>
<text text-anchor="start" x="123.23" y="-253.5" font-family="Helvetica,sans-Serif" font-size="10.00">/home/allan/Licence2</text>
<text text-anchor="start" x="123.23" y="-242.5" font-family="Helvetica,sans-Serif" font-size="10.00">_Informatique/ProjetLIFAP4</text>
<text text-anchor="middle" x="189.23" y="-231.5" font-family="Helvetica,sans-Serif" font-size="10.00">/src/core/Enemy.cpp</text>
</a>
</g>
</g>
<!-- Node2 -->
<g id="node2" class="node">
<title>Node2</title>
<g id="a_node2"><a xlink:href="_enemy_8h.html" target="_top" xlink:title=" ">
<polygon fill="none" stroke="black" points="57.23,-168.5 57.23,-187.5 115.23,-187.5 115.23,-168.5 57.23,-168.5"/>
<text text-anchor="middle" x="86.23" y="-175.5" font-family="Helvetica,sans-Serif" font-size="10.00">Enemy.h</text>
</a>
</g>
</g>
<!-- Node1&#45;&gt;Node2 -->
<g id="edge1" class="edge">
<title>Node1&#45;&gt;Node2</title>
<path fill="none" stroke="midnightblue" d="M158.32,-224.5C142.38,-214.44 123.28,-202.38 108.75,-193.21"/>
<polygon fill="midnightblue" stroke="midnightblue" points="110.26,-190.03 99.94,-187.65 106.53,-195.95 110.26,-190.03"/>
</g>
<!-- Node3 -->
<g id="node3" class="node">
<title>Node3</title>
<g id="a_node3"><a xlink:title=" ">
<polygon fill="none" stroke="#bfbfbf" points="124.23,-0.5 124.23,-19.5 184.23,-19.5 184.23,-0.5 124.23,-0.5"/>
<text text-anchor="middle" x="154.23" y="-7.5" font-family="Helvetica,sans-Serif" font-size="10.00">iostream</text>
</a>
</g>
</g>
<!-- Node1&#45;&gt;Node3 -->
<g id="edge10" class="edge">
<title>Node1&#45;&gt;Node3</title>
<path fill="none" stroke="midnightblue" d="M193.25,-224.33C199.53,-189.29 208.93,-114.28 188.23,-56 184.43,-45.32 177.12,-35.09 170.24,-27.1"/>
<polygon fill="midnightblue" stroke="midnightblue" points="172.74,-24.65 163.4,-19.65 167.58,-29.38 172.74,-24.65"/>
</g>
<!-- Node5 -->
<g id="node5" class="node">
<title>Node5</title>
<g id="a_node5"><a xlink:href="_entity_8h.html" target="_top" xlink:title=" ">
<polygon fill="none" stroke="black" points="127.73,-112.5 127.73,-131.5 180.73,-131.5 180.73,-112.5 127.73,-112.5"/>
<text text-anchor="middle" x="154.23" y="-119.5" font-family="Helvetica,sans-Serif" font-size="10.00">Entity.h</text>
</a>
</g>
</g>
<!-- Node1&#45;&gt;Node5 -->
<g id="edge8" class="edge">
<title>Node1&#45;&gt;Node5</title>
<path fill="none" stroke="midnightblue" d="M183.53,-224.29C176.9,-201.37 166.04,-163.85 159.57,-141.47"/>
<polygon fill="midnightblue" stroke="midnightblue" points="162.85,-140.21 156.71,-131.57 156.13,-142.15 162.85,-140.21"/>
</g>
<!-- Node8 -->
<g id="node8" class="node">
<title>Node8</title>
<g id="a_node8"><a xlink:title=" ">
<polygon fill="none" stroke="#bfbfbf" points="237.23,-168.5 237.23,-187.5 293.23,-187.5 293.23,-168.5 237.23,-168.5"/>
<text text-anchor="middle" x="265.23" y="-175.5" font-family="Helvetica,sans-Serif" font-size="10.00">unistd.h</text>
</a>
</g>
</g>
<!-- Node1&#45;&gt;Node8 -->
<g id="edge9" class="edge">
<title>Node1&#45;&gt;Node8</title>
<path fill="none" stroke="midnightblue" d="M212.03,-224.5C223.35,-214.82 236.82,-203.3 247.37,-194.27"/>
<polygon fill="midnightblue" stroke="midnightblue" points="249.79,-196.81 255.11,-187.65 245.24,-191.49 249.79,-196.81"/>
</g>
<!-- Node2&#45;&gt;Node3 -->
<g id="edge2" class="edge">
<title>Node2&#45;&gt;Node3</title>
<path fill="none" stroke="midnightblue" d="M57.36,-168.48C28.06,-158.17 -11.09,-138.8 3.23,-112 27.47,-66.61 82.15,-38.05 118.62,-23.31"/>
<polygon fill="midnightblue" stroke="midnightblue" points="120.33,-26.4 128.38,-19.51 117.8,-19.87 120.33,-26.4"/>
</g>
<!-- Node4 -->
<g id="node4" class="node">
<title>Node4</title>
<g id="a_node4"><a xlink:title=" ">
<polygon fill="none" stroke="#bfbfbf" points="12.23,-112.5 12.23,-131.5 44.23,-131.5 44.23,-112.5 12.23,-112.5"/>
<text text-anchor="middle" x="28.23" y="-119.5" font-family="Helvetica,sans-Serif" font-size="10.00">list</text>
</a>
</g>
</g>
<!-- Node2&#45;&gt;Node4 -->
<g id="edge3" class="edge">
<title>Node2&#45;&gt;Node4</title>
<path fill="none" stroke="midnightblue" d="M76.91,-168.32C68.34,-160.34 55.42,-148.31 45.04,-138.65"/>
<polygon fill="midnightblue" stroke="midnightblue" points="47.42,-136.09 37.72,-131.83 42.65,-141.21 47.42,-136.09"/>
</g>
<!-- Node2&#45;&gt;Node5 -->
<g id="edge4" class="edge">
<title>Node2&#45;&gt;Node5</title>
<path fill="none" stroke="midnightblue" d="M97.15,-168.32C107.4,-160.18 122.95,-147.84 135.23,-138.09"/>
<polygon fill="midnightblue" stroke="midnightblue" points="137.45,-140.79 143.1,-131.83 133.1,-135.31 137.45,-140.79"/>
</g>
<!-- Node7 -->
<g id="node7" class="node">
<title>Node7</title>
<g id="a_node7"><a xlink:href="_map_8h.html" target="_top" xlink:title=" ">
<polygon fill="none" stroke="black" points="62.73,-112.5 62.73,-131.5 109.73,-131.5 109.73,-112.5 62.73,-112.5"/>
<text text-anchor="middle" x="86.23" y="-119.5" font-family="Helvetica,sans-Serif" font-size="10.00">Map.h</text>
</a>
</g>
</g>
<!-- Node2&#45;&gt;Node7 -->
<g id="edge7" class="edge">
<title>Node2&#45;&gt;Node7</title>
<path fill="none" stroke="midnightblue" d="M86.23,-168.08C86.23,-161.01 86.23,-150.86 86.23,-141.99"/>
<polygon fill="midnightblue" stroke="midnightblue" points="89.73,-141.75 86.23,-131.75 82.73,-141.75 89.73,-141.75"/>
</g>
<!-- Node6 -->
<g id="node6" class="node">
<title>Node6</title>
<g id="a_node6"><a xlink:href="_vec2_8h.html" target="_top" xlink:title=" ">
<polygon fill="none" stroke="black" points="129.73,-56.5 129.73,-75.5 178.73,-75.5 178.73,-56.5 129.73,-56.5"/>
<text text-anchor="middle" x="154.23" y="-63.5" font-family="Helvetica,sans-Serif" font-size="10.00">Vec2.h</text>
</a>
</g>
</g>
<!-- Node5&#45;&gt;Node6 -->
<g id="edge5" class="edge">
<title>Node5&#45;&gt;Node6</title>
<path fill="none" stroke="midnightblue" d="M154.23,-112.08C154.23,-105.01 154.23,-94.86 154.23,-85.99"/>
<polygon fill="midnightblue" stroke="midnightblue" points="157.73,-85.75 154.23,-75.75 150.73,-85.75 157.73,-85.75"/>
</g>
<!-- Node6&#45;&gt;Node3 -->
<g id="edge6" class="edge">
<title>Node6&#45;&gt;Node3</title>
<path fill="none" stroke="midnightblue" d="M154.23,-56.08C154.23,-49.01 154.23,-38.86 154.23,-29.99"/>
<polygon fill="midnightblue" stroke="midnightblue" points="157.73,-29.75 154.23,-19.75 150.73,-29.75 157.73,-29.75"/>
</g>
</g>
</svg>
