<?xml version="1.0" encoding="UTF-8" standalone="no"?>
<!DOCTYPE svg PUBLIC "-//W3C//DTD SVG 1.1//EN"
 "http://www.w3.org/Graphics/SVG/1.1/DTD/svg11.dtd">
<!-- Generated by graphviz version 2.43.0 (0)
 -->
<!-- Title: /home/allan/Licence2_Informatique/ProjetLIFAP4/src/core/Enemy.h Pages: 1 -->
<svg width="209pt" height="218pt"
 viewBox="0.00 0.00 208.50 218.00" xmlns="http://www.w3.org/2000/svg" xmlns:xlink="http://www.w3.org/1999/xlink">
<g id="graph0" class="graph" transform="scale(1 1) rotate(0) translate(4 214)">
<title>/home/allan/Licence2_Informatique/ProjetLIFAP4/src/core/Enemy.h</title>
<!-- Node1 -->
<g id="node1" class="node">
<title>Node1</title>
<g id="a_node1"><a xlink:title=" ">
<polygon fill="#bfbfbf" stroke="black" points="4,-168.5 4,-209.5 152,-209.5 152,-168.5 4,-168.5"/>
<text text-anchor="start" x="12" y="-197.5" font-family="Helvetica,sans-Serif" font-size="10.00">/home/allan/Licence2</text>
<text text-anchor="start" x="12" y="-186.5" font-family="Helvetica,sans-Serif" font-size="10.00">_Informatique/ProjetLIFAP4</text>
<text text-anchor="middle" x="78" y="-175.5" font-family="Helvetica,sans-Serif" font-size="10.00">/src/core/Enemy.h</text>
</a>
</g>
</g>
<!-- Node2 -->
<g id="node2" class="node">
<title>Node2</title>
<g id="a_node2"><a xlink:title=" ">
<polygon fill="none" stroke="#bfbfbf" points="0,-0.5 0,-19.5 60,-19.5 60,-0.5 0,-0.5"/>
<text text-anchor="middle" x="30" y="-7.5" font-family="Helvetica,sans-Serif" font-size="10.00">iostream</text>
</a>
</g>
</g>
<!-- Node1&#45;&gt;Node2 -->
<g id="edge1" class="edge">
<title>Node1&#45;&gt;Node2</title>
<path fill="none" stroke="midnightblue" d="M51.14,-168.44C40.23,-158.83 28.83,-146.25 23,-132 9.05,-97.88 17.47,-53.8 24.17,-29.37"/>
<polygon fill="midnightblue" stroke="midnightblue" points="27.57,-30.21 27.05,-19.63 20.86,-28.23 27.57,-30.21"/>
</g>
<!-- Node3 -->
<g id="node3" class="node">
<title>Node3</title>
<g id="a_node3"><a xlink:title=" ">
<polygon fill="none" stroke="#bfbfbf" points="32,-112.5 32,-131.5 64,-131.5 64,-112.5 32,-112.5"/>
<text text-anchor="middle" x="48" y="-119.5" font-family="Helvetica,sans-Serif" font-size="10.00">list</text>
</a>
</g>
</g>
<!-- Node1&#45;&gt;Node3 -->
<g id="edge2" class="edge">
<title>Node1&#45;&gt;Node3</title>
<path fill="none" stroke="midnightblue" d="M69,-168.5C64.93,-159.68 60.16,-149.34 56.19,-140.74"/>
<polygon fill="midnightblue" stroke="midnightblue" points="59.36,-139.27 51.99,-131.65 53.01,-142.2 59.36,-139.27"/>
</g>
<!-- Node4 -->
<g id="node4" class="node">
<title>Node4</title>
<g id="a_node4"><a xlink:href="_entity_8h.html" target="_top" xlink:title=" ">
<polygon fill="none" stroke="black" points="82.5,-112.5 82.5,-131.5 135.5,-131.5 135.5,-112.5 82.5,-112.5"/>
<text text-anchor="middle" x="109" y="-119.5" font-family="Helvetica,sans-Serif" font-size="10.00">Entity.h</text>
</a>
</g>
</g>
<!-- Node1&#45;&gt;Node4 -->
<g id="edge3" class="edge">
<title>Node1&#45;&gt;Node4</title>
<path fill="none" stroke="midnightblue" d="M87.3,-168.5C91.51,-159.68 96.44,-149.34 100.54,-140.74"/>
<polygon fill="midnightblue" stroke="midnightblue" points="103.73,-142.19 104.87,-131.65 97.41,-139.17 103.73,-142.19"/>
</g>
<!-- Node6 -->
<g id="node6" class="node">
<title>Node6</title>
<g id="a_node6"><a xlink:href="_map_8h.html" target="_top" xlink:title=" ">
<polygon fill="none" stroke="black" points="153.5,-112.5 153.5,-131.5 200.5,-131.5 200.5,-112.5 153.5,-112.5"/>
<text text-anchor="middle" x="177" y="-119.5" font-family="Helvetica,sans-Serif" font-size="10.00">Map.h</text>
</a>
</g>
</g>
<!-- Node1&#45;&gt;Node6 -->
<g id="edge6" class="edge">
<title>Node1&#45;&gt;Node6</title>
<path fill="none" stroke="midnightblue" d="M107.7,-168.5C123.03,-158.44 141.38,-146.38 155.35,-137.21"/>
<polygon fill="midnightblue" stroke="midnightblue" points="157.38,-140.07 163.82,-131.65 153.54,-134.22 157.38,-140.07"/>
</g>
<!-- Node5 -->
<g id="node5" class="node">
<title>Node5</title>
<g id="a_node5"><a xlink:href="_vec2_8h.html" target="_top" xlink:title=" ">
<polygon fill="none" stroke="black" points="58.5,-56.5 58.5,-75.5 107.5,-75.5 107.5,-56.5 58.5,-56.5"/>
<text text-anchor="middle" x="83" y="-63.5" font-family="Helvetica,sans-Serif" font-size="10.00">Vec2.h</text>
</a>
</g>
</g>
<!-- Node4&#45;&gt;Node5 -->
<g id="edge4" class="edge">
<title>Node4&#45;&gt;Node5</title>
<path fill="none" stroke="midnightblue" d="M104.71,-112.08C101.15,-104.69 95.98,-93.95 91.58,-84.81"/>
<polygon fill="midnightblue" stroke="midnightblue" points="94.71,-83.24 87.21,-75.75 88.4,-86.28 94.71,-83.24"/>
</g>
<!-- Node5&#45;&gt;Node2 -->
<g id="edge5" class="edge">
<title>Node5&#45;&gt;Node2</title>
<path fill="none" stroke="midnightblue" d="M74.25,-56.08C66.53,-48.22 55.1,-36.57 45.78,-27.08"/>
<polygon fill="midnightblue" stroke="midnightblue" points="48.09,-24.44 38.59,-19.75 43.1,-29.34 48.09,-24.44"/>
</g>
</g>
</svg>
