<?xml version="1.0" encoding="UTF-8" standalone="no"?>
<!DOCTYPE svg PUBLIC "-//W3C//DTD SVG 1.1//EN"
 "http://www.w3.org/Graphics/SVG/1.1/DTD/svg11.dtd">
<!-- Generated by graphviz version 2.43.0 (0)
 -->
<!-- Title: src/core/Enemy.h Pages: 1 -->
<svg width="270pt" height="140pt"
 viewBox="0.00 0.00 270.00 140.00" xmlns="http://www.w3.org/2000/svg" xmlns:xlink="http://www.w3.org/1999/xlink">
<g id="graph0" class="graph" transform="scale(1 1) rotate(0) translate(4 136)">
<title>src/core/Enemy.h</title>
<!-- Node1 -->
<g id="node1" class="node">
<title>Node1</title>
<g id="a_node1"><a xlink:title="Définition des donées membres et des fonctions membres de la classe Enemy.">
<polygon fill="#bfbfbf" stroke="black" points="37.5,-112.5 37.5,-131.5 136.5,-131.5 136.5,-112.5 37.5,-112.5"/>
<text text-anchor="middle" x="87" y="-119.5" font-family="Helvetica,sans-Serif" font-size="10.00">src/core/Enemy.h</text>
</a>
</g>
</g>
<!-- Node2 -->
<g id="node2" class="node">
<title>Node2</title>
<g id="a_node2"><a xlink:title=" ">
<polygon fill="none" stroke="#bfbfbf" points="0,-0.5 0,-19.5 60,-19.5 60,-0.5 0,-0.5"/>
<text text-anchor="middle" x="30" y="-7.5" font-family="Helvetica,sans-Serif" font-size="10.00">iostream</text>
</a>
</g>
</g>
<!-- Node1&#45;&gt;Node2 -->
<g id="edge1" class="edge">
<title>Node1&#45;&gt;Node2</title>
<path fill="none" stroke="midnightblue" d="M70.57,-112.37C57.83,-104.69 41.04,-92.18 33,-76 25.85,-61.61 25.72,-43.16 27.01,-29.59"/>
<polygon fill="midnightblue" stroke="midnightblue" points="30.5,-29.9 28.31,-19.54 23.56,-29.01 30.5,-29.9"/>
</g>
<!-- Node3 -->
<g id="node3" class="node">
<title>Node3</title>
<g id="a_node3"><a xlink:title=" ">
<polygon fill="none" stroke="#bfbfbf" points="42,-56.5 42,-75.5 74,-75.5 74,-56.5 42,-56.5"/>
<text text-anchor="middle" x="58" y="-63.5" font-family="Helvetica,sans-Serif" font-size="10.00">list</text>
</a>
</g>
</g>
<!-- Node1&#45;&gt;Node3 -->
<g id="edge2" class="edge">
<title>Node1&#45;&gt;Node3</title>
<path fill="none" stroke="midnightblue" d="M82.21,-112.08C78.24,-104.69 72.47,-93.95 67.57,-84.81"/>
<polygon fill="midnightblue" stroke="midnightblue" points="70.51,-82.91 62.7,-75.75 64.35,-86.22 70.51,-82.91"/>
</g>
<!-- Node4 -->
<g id="node4" class="node">
<title>Node4</title>
<g id="a_node4"><a xlink:href="_entity_8h.html" target="_top" xlink:title="Définition des donées membres et des fonctions membres de la classe Entity.">
<polygon fill="none" stroke="black" points="173.5,-56.5 173.5,-75.5 226.5,-75.5 226.5,-56.5 173.5,-56.5"/>
<text text-anchor="middle" x="200" y="-63.5" font-family="Helvetica,sans-Serif" font-size="10.00">Entity.h</text>
</a>
</g>
</g>
<!-- Node1&#45;&gt;Node4 -->
<g id="edge3" class="edge">
<title>Node1&#45;&gt;Node4</title>
<path fill="none" stroke="midnightblue" d="M104.91,-112.44C123.25,-103.68 152.01,-89.94 173.09,-79.86"/>
<polygon fill="midnightblue" stroke="midnightblue" points="174.67,-82.99 182.18,-75.52 171.65,-76.67 174.67,-82.99"/>
</g>
<!-- Node6 -->
<g id="node6" class="node">
<title>Node6</title>
<g id="a_node6"><a xlink:href="_road_8h.html" target="_top" xlink:title=" ">
<polygon fill="none" stroke="black" points="92,-56.5 92,-75.5 142,-75.5 142,-56.5 92,-56.5"/>
<text text-anchor="middle" x="117" y="-63.5" font-family="Helvetica,sans-Serif" font-size="10.00">Road.h</text>
</a>
</g>
</g>
<!-- Node1&#45;&gt;Node6 -->
<g id="edge5" class="edge">
<title>Node1&#45;&gt;Node6</title>
<path fill="none" stroke="midnightblue" d="M91.95,-112.08C96.1,-104.61 102.15,-93.72 107.27,-84.52"/>
<polygon fill="midnightblue" stroke="midnightblue" points="110.34,-86.19 112.14,-75.75 104.22,-82.79 110.34,-86.19"/>
</g>
<!-- Node5 -->
<g id="node5" class="node">
<title>Node5</title>
<g id="a_node5"><a xlink:title=" ">
<polygon fill="none" stroke="#bfbfbf" points="152,-0.5 152,-19.5 262,-19.5 262,-0.5 152,-0.5"/>
<text text-anchor="middle" x="207" y="-7.5" font-family="Helvetica,sans-Serif" font-size="10.00">../SDL2/EntitySDL.h</text>
</a>
</g>
</g>
<!-- Node4&#45;&gt;Node5 -->
<g id="edge4" class="edge">
<title>Node4&#45;&gt;Node5</title>
<path fill="none" stroke="midnightblue" d="M201.16,-56.08C202.08,-48.93 203.42,-38.64 204.58,-29.69"/>
<polygon fill="midnightblue" stroke="midnightblue" points="208.05,-30.12 205.87,-19.75 201.11,-29.22 208.05,-30.12"/>
</g>
<!-- Node6&#45;&gt;Node2 -->
<g id="edge6" class="edge">
<title>Node6&#45;&gt;Node2</title>
<path fill="none" stroke="midnightblue" d="M103.02,-56.32C89.45,-47.9 68.62,-34.97 52.68,-25.07"/>
<polygon fill="midnightblue" stroke="midnightblue" points="54.29,-21.95 43.94,-19.65 50.59,-27.9 54.29,-21.95"/>
</g>
<!-- Node7 -->
<g id="node7" class="node">
<title>Node7</title>
<g id="a_node7"><a xlink:title=" ">
<polygon fill="none" stroke="#bfbfbf" points="86.5,-0.5 86.5,-19.5 133.5,-19.5 133.5,-0.5 86.5,-0.5"/>
<text text-anchor="middle" x="110" y="-7.5" font-family="Helvetica,sans-Serif" font-size="10.00">vector</text>
</a>
</g>
</g>
<!-- Node6&#45;&gt;Node7 -->
<g id="edge7" class="edge">
<title>Node6&#45;&gt;Node7</title>
<path fill="none" stroke="midnightblue" d="M115.84,-56.08C114.92,-48.93 113.58,-38.64 112.42,-29.69"/>
<polygon fill="midnightblue" stroke="midnightblue" points="115.89,-29.22 111.13,-19.75 108.95,-30.12 115.89,-29.22"/>
</g>
</g>
</svg>
