<?xml version="1.0" encoding="UTF-8" standalone="no"?>
<!DOCTYPE svg PUBLIC "-//W3C//DTD SVG 1.1//EN"
 "http://www.w3.org/Graphics/SVG/1.1/DTD/svg11.dtd">
<!-- Generated by graphviz version 2.43.0 (0)
 -->
<!-- Title: src/core/Enemy.h Pages: 1 -->
<svg width="443pt" height="252pt"
 viewBox="0.00 0.00 442.50 252.00" xmlns="http://www.w3.org/2000/svg" xmlns:xlink="http://www.w3.org/1999/xlink">
<g id="graph0" class="graph" transform="scale(1 1) rotate(0) translate(4 248)">
<title>src/core/Enemy.h</title>
<!-- Node1 -->
<g id="node1" class="node">
<title>Node1</title>
<g id="a_node1"><a xlink:title="Définition des donées membres et des fonctions membres de la classe Enemy.">
<polygon fill="#bfbfbf" stroke="black" points="130.5,-224.5 130.5,-243.5 229.5,-243.5 229.5,-224.5 130.5,-224.5"/>
<text text-anchor="middle" x="180" y="-231.5" font-family="Helvetica,sans-Serif" font-size="10.00">src/core/Enemy.h</text>
</a>
</g>
</g>
<!-- Node2 -->
<g id="node2" class="node">
<title>Node2</title>
<g id="a_node2"><a xlink:href="_enemy_8cpp.html" target="_top" xlink:title=" ">
<polygon fill="none" stroke="black" points="0,-168.5 0,-187.5 110,-187.5 110,-168.5 0,-168.5"/>
<text text-anchor="middle" x="55" y="-175.5" font-family="Helvetica,sans-Serif" font-size="10.00">src/core/Enemy.cpp</text>
</a>
</g>
</g>
<!-- Node1&#45;&gt;Node2 -->
<g id="edge1" class="edge">
<title>Node1&#45;&gt;Node2</title>
<path fill="none" stroke="midnightblue" d="M150.76,-220.37C127.35,-210.26 95.16,-196.35 74.71,-187.52"/>
<polygon fill="midnightblue" stroke="midnightblue" points="149.63,-223.69 160.19,-224.44 152.4,-217.26 149.63,-223.69"/>
</g>
<!-- Node3 -->
<g id="node3" class="node">
<title>Node3</title>
<g id="a_node3"><a xlink:href="_game_8h.html" target="_top" xlink:title="Définition des donées membres et des fonctions membres de la classe Game.">
<polygon fill="none" stroke="black" points="90,-112.5 90,-131.5 186,-131.5 186,-112.5 90,-112.5"/>
<text text-anchor="middle" x="138" y="-119.5" font-family="Helvetica,sans-Serif" font-size="10.00">src/core/Game.h</text>
</a>
</g>
</g>
<!-- Node1&#45;&gt;Node3 -->
<g id="edge2" class="edge">
<title>Node1&#45;&gt;Node3</title>
<path fill="none" stroke="midnightblue" d="M170.54,-215.28C166.39,-207.11 161.64,-197.2 158,-188 150.18,-168.24 143.47,-144.13 140.17,-131.56"/>
<polygon fill="midnightblue" stroke="midnightblue" points="167.47,-216.97 175.2,-224.22 173.68,-213.73 167.47,-216.97"/>
</g>
<!-- Node8 -->
<g id="node8" class="node">
<title>Node8</title>
<g id="a_node8"><a xlink:href="_projectile_8h.html" target="_top" xlink:title="Définition des donées membres et des fonctions membres de la classe Projectile.">
<polygon fill="none" stroke="black" points="166.5,-168.5 166.5,-187.5 279.5,-187.5 279.5,-168.5 166.5,-168.5"/>
<text text-anchor="middle" x="223" y="-175.5" font-family="Helvetica,sans-Serif" font-size="10.00">src/core/Projectile.h</text>
</a>
</g>
</g>
<!-- Node1&#45;&gt;Node8 -->
<g id="edge7" class="edge">
<title>Node1&#45;&gt;Node8</title>
<path fill="none" stroke="midnightblue" d="M193.42,-216.14C200.91,-206.74 209.94,-195.4 216.03,-187.75"/>
<polygon fill="midnightblue" stroke="midnightblue" points="190.59,-214.08 187.1,-224.08 196.07,-218.44 190.59,-214.08"/>
</g>
<!-- Node10 -->
<g id="node10" class="node">
<title>Node10</title>
<g id="a_node10"><a xlink:href="_tower_archer_8cpp.html" target="_top" xlink:title=" ">
<polygon fill="none" stroke="black" points="297.5,-168.5 297.5,-187.5 434.5,-187.5 434.5,-168.5 297.5,-168.5"/>
<text text-anchor="middle" x="366" y="-175.5" font-family="Helvetica,sans-Serif" font-size="10.00">src/core/TowerArcher.cpp</text>
</a>
</g>
</g>
<!-- Node1&#45;&gt;Node10 -->
<g id="edge10" class="edge">
<title>Node1&#45;&gt;Node10</title>
<path fill="none" stroke="midnightblue" d="M219.38,-221.57C254.47,-211.38 305.02,-196.7 336.67,-187.52"/>
<polygon fill="midnightblue" stroke="midnightblue" points="218.1,-218.29 209.47,-224.44 220.05,-225.02 218.1,-218.29"/>
</g>
<!-- Node4 -->
<g id="node4" class="node">
<title>Node4</title>
<g id="a_node4"><a xlink:href="_game_8cpp.html" target="_top" xlink:title=" ">
<polygon fill="none" stroke="black" points="22.5,-56.5 22.5,-75.5 129.5,-75.5 129.5,-56.5 22.5,-56.5"/>
<text text-anchor="middle" x="76" y="-63.5" font-family="Helvetica,sans-Serif" font-size="10.00">src/core/Game.cpp</text>
</a>
</g>
</g>
<!-- Node3&#45;&gt;Node4 -->
<g id="edge3" class="edge">
<title>Node3&#45;&gt;Node4</title>
<path fill="none" stroke="midnightblue" d="M120.25,-105.54C109.19,-95.91 95.37,-83.87 86.14,-75.83"/>
<polygon fill="midnightblue" stroke="midnightblue" points="118.2,-108.4 128.04,-112.32 122.8,-103.12 118.2,-108.4"/>
</g>
<!-- Node5 -->
<g id="node5" class="node">
<title>Node5</title>
<g id="a_node5"><a xlink:href="_game_t_x_t_8h.html" target="_top" xlink:title="Fichier s&#39;occupant de l&#39;affichage du jeu en mode texte.">
<polygon fill="none" stroke="black" points="147.5,-56.5 147.5,-75.5 254.5,-75.5 254.5,-56.5 147.5,-56.5"/>
<text text-anchor="middle" x="201" y="-63.5" font-family="Helvetica,sans-Serif" font-size="10.00">src/txt/GameTXT.h</text>
</a>
</g>
</g>
<!-- Node3&#45;&gt;Node5 -->
<g id="edge4" class="edge">
<title>Node3&#45;&gt;Node5</title>
<path fill="none" stroke="midnightblue" d="M156.04,-105.54C167.27,-95.91 181.32,-83.87 190.69,-75.83"/>
<polygon fill="midnightblue" stroke="midnightblue" points="153.44,-103.16 148.12,-112.32 157.99,-108.47 153.44,-103.16"/>
</g>
<!-- Node6 -->
<g id="node6" class="node">
<title>Node6</title>
<g id="a_node6"><a xlink:href="_game_t_x_t_8cpp.html" target="_top" xlink:title=" ">
<polygon fill="none" stroke="black" points="75,-0.5 75,-19.5 193,-19.5 193,-0.5 75,-0.5"/>
<text text-anchor="middle" x="134" y="-7.5" font-family="Helvetica,sans-Serif" font-size="10.00">src/txt/GameTXT.cpp</text>
</a>
</g>
</g>
<!-- Node5&#45;&gt;Node6 -->
<g id="edge5" class="edge">
<title>Node5&#45;&gt;Node6</title>
<path fill="none" stroke="midnightblue" d="M182.17,-49.82C170.16,-40.15 155.03,-27.95 144.96,-19.83"/>
<polygon fill="midnightblue" stroke="midnightblue" points="180.25,-52.77 190.24,-56.32 184.65,-47.32 180.25,-52.77"/>
</g>
<!-- Node7 -->
<g id="node7" class="node">
<title>Node7</title>
<g id="a_node7"><a xlink:href="main_t_x_t_8cpp.html" target="_top" xlink:title=" ">
<polygon fill="none" stroke="black" points="211.5,-0.5 211.5,-19.5 324.5,-19.5 324.5,-0.5 211.5,-0.5"/>
<text text-anchor="middle" x="268" y="-7.5" font-family="Helvetica,sans-Serif" font-size="10.00">src/txt/mainTXT.cpp</text>
</a>
</g>
</g>
<!-- Node5&#45;&gt;Node7 -->
<g id="edge6" class="edge">
<title>Node5&#45;&gt;Node7</title>
<path fill="none" stroke="midnightblue" d="M219.83,-49.82C231.84,-40.15 246.97,-27.95 257.04,-19.83"/>
<polygon fill="midnightblue" stroke="midnightblue" points="217.35,-47.32 211.76,-56.32 221.75,-52.77 217.35,-47.32"/>
</g>
<!-- Node8&#45;&gt;Node3 -->
<g id="edge8" class="edge">
<title>Node8&#45;&gt;Node3</title>
<path fill="none" stroke="midnightblue" d="M200.81,-162.9C185.22,-153 164.87,-140.07 151.62,-131.65"/>
<polygon fill="midnightblue" stroke="midnightblue" points="199.03,-165.92 209.34,-168.32 202.78,-160.01 199.03,-165.92"/>
</g>
<!-- Node9 -->
<g id="node9" class="node">
<title>Node9</title>
<g id="a_node9"><a xlink:href="_projectile_8cpp.html" target="_top" xlink:title=" ">
<polygon fill="none" stroke="black" points="204,-112.5 204,-131.5 328,-131.5 328,-112.5 204,-112.5"/>
<text text-anchor="middle" x="266" y="-119.5" font-family="Helvetica,sans-Serif" font-size="10.00">src/core/Projectile.cpp</text>
</a>
</g>
</g>
<!-- Node8&#45;&gt;Node9 -->
<g id="edge9" class="edge">
<title>Node8&#45;&gt;Node9</title>
<path fill="none" stroke="midnightblue" d="M236.42,-160.14C243.91,-150.74 252.94,-139.4 259.03,-131.75"/>
<polygon fill="midnightblue" stroke="midnightblue" points="233.59,-158.08 230.1,-168.08 239.07,-162.44 233.59,-158.08"/>
</g>
</g>
</svg>
