<?xml version="1.0" encoding="UTF-8" standalone="no"?>
<!DOCTYPE svg PUBLIC "-//W3C//DTD SVG 1.1//EN"
 "http://www.w3.org/Graphics/SVG/1.1/DTD/svg11.dtd">
<!-- Generated by graphviz version 2.43.0 (0)
 -->
<!-- Title: src/core/Enemy.h Pages: 1 -->
<svg width="342pt" height="140pt"
 viewBox="0.00 0.00 342.00 140.00" xmlns="http://www.w3.org/2000/svg" xmlns:xlink="http://www.w3.org/1999/xlink">
<g id="graph0" class="graph" transform="scale(1 1) rotate(0) translate(4 136)">
<title>src/core/Enemy.h</title>
<!-- Node1 -->
<g id="node1" class="node">
<title>Node1</title>
<g id="a_node1"><a xlink:title="Définition des donées membres et des fonctions membres de la classe Enemy.">
<polygon fill="#bfbfbf" stroke="black" points="88.5,-112.5 88.5,-131.5 187.5,-131.5 187.5,-112.5 88.5,-112.5"/>
<text text-anchor="middle" x="138" y="-119.5" font-family="Helvetica,sans-Serif" font-size="10.00">src/core/Enemy.h</text>
</a>
</g>
</g>
<!-- Node2 -->
<g id="node2" class="node">
<title>Node2</title>
<g id="a_node2"><a xlink:href="_enemy_8cpp.html" target="_top" xlink:title=" ">
<polygon fill="none" stroke="black" points="0,-56.5 0,-75.5 110,-75.5 110,-56.5 0,-56.5"/>
<text text-anchor="middle" x="55" y="-63.5" font-family="Helvetica,sans-Serif" font-size="10.00">src/core/Enemy.cpp</text>
</a>
</g>
</g>
<!-- Node1&#45;&gt;Node2 -->
<g id="edge1" class="edge">
<title>Node1&#45;&gt;Node2</title>
<path fill="none" stroke="midnightblue" d="M115.9,-106.62C100.74,-96.76 81.12,-83.99 68.3,-75.65"/>
<polygon fill="midnightblue" stroke="midnightblue" points="114.37,-109.8 124.66,-112.32 118.19,-103.94 114.37,-109.8"/>
</g>
<!-- Node3 -->
<g id="node3" class="node">
<title>Node3</title>
<g id="a_node3"><a xlink:href="_game_8cpp.html" target="_top" xlink:title=" ">
<polygon fill="none" stroke="black" points="84.5,-0.5 84.5,-19.5 191.5,-19.5 191.5,-0.5 84.5,-0.5"/>
<text text-anchor="middle" x="138" y="-7.5" font-family="Helvetica,sans-Serif" font-size="10.00">src/core/Game.cpp</text>
</a>
</g>
</g>
<!-- Node1&#45;&gt;Node3 -->
<g id="edge2" class="edge">
<title>Node1&#45;&gt;Node3</title>
<path fill="none" stroke="midnightblue" d="M138,-102.35C138,-78.25 138,-37.31 138,-19.59"/>
<polygon fill="midnightblue" stroke="midnightblue" points="134.5,-102.37 138,-112.37 141.5,-102.37 134.5,-102.37"/>
</g>
<!-- Node4 -->
<g id="node4" class="node">
<title>Node4</title>
<g id="a_node4"><a xlink:href="_projectile_8h.html" target="_top" xlink:title="Définition des donées membres et des fonctions membres de la classe Projectile.">
<polygon fill="none" stroke="black" points="166.5,-56.5 166.5,-75.5 279.5,-75.5 279.5,-56.5 166.5,-56.5"/>
<text text-anchor="middle" x="223" y="-63.5" font-family="Helvetica,sans-Serif" font-size="10.00">src/core/Projectile.h</text>
</a>
</g>
</g>
<!-- Node1&#45;&gt;Node4 -->
<g id="edge3" class="edge">
<title>Node1&#45;&gt;Node4</title>
<path fill="none" stroke="midnightblue" d="M160.19,-106.9C175.78,-97 196.13,-84.07 209.38,-75.65"/>
<polygon fill="midnightblue" stroke="midnightblue" points="158.22,-104.01 151.66,-112.32 161.97,-109.92 158.22,-104.01"/>
</g>
<!-- Node4&#45;&gt;Node3 -->
<g id="edge4" class="edge">
<title>Node4&#45;&gt;Node3</title>
<path fill="none" stroke="midnightblue" d="M200.81,-50.9C185.22,-41 164.87,-28.07 151.62,-19.65"/>
<polygon fill="midnightblue" stroke="midnightblue" points="199.03,-53.92 209.34,-56.32 202.78,-48.01 199.03,-53.92"/>
</g>
<!-- Node5 -->
<g id="node5" class="node">
<title>Node5</title>
<g id="a_node5"><a xlink:href="_projectile_8cpp.html" target="_top" xlink:title=" ">
<polygon fill="none" stroke="black" points="210,-0.5 210,-19.5 334,-19.5 334,-0.5 210,-0.5"/>
<text text-anchor="middle" x="272" y="-7.5" font-family="Helvetica,sans-Serif" font-size="10.00">src/core/Projectile.cpp</text>
</a>
</g>
</g>
<!-- Node4&#45;&gt;Node5 -->
<g id="edge5" class="edge">
<title>Node4&#45;&gt;Node5</title>
<path fill="none" stroke="midnightblue" d="M238.03,-48.43C246.62,-38.97 257.04,-27.48 264.06,-19.75"/>
<polygon fill="midnightblue" stroke="midnightblue" points="235.22,-46.33 231.09,-56.08 240.4,-51.03 235.22,-46.33"/>
</g>
</g>
</svg>
