<?xml version="1.0" encoding="UTF-8" standalone="no"?>
<!DOCTYPE svg PUBLIC "-//W3C//DTD SVG 1.1//EN"
 "http://www.w3.org/Graphics/SVG/1.1/DTD/svg11.dtd">
<!-- Generated by graphviz version 2.43.0 (0)
 -->
<!-- Title: /home/allan/Licence2_Informatique/ProjetLIFAP4/src/core/Enemy.h Pages: 1 -->
<svg width="526pt" height="362pt"
 viewBox="0.00 0.00 526.00 362.00" xmlns="http://www.w3.org/2000/svg" xmlns:xlink="http://www.w3.org/1999/xlink">
<g id="graph0" class="graph" transform="scale(1 1) rotate(0) translate(4 358)">
<title>/home/allan/Licence2_Informatique/ProjetLIFAP4/src/core/Enemy.h</title>
<!-- Node1 -->
<g id="node1" class="node">
<title>Node1</title>
<g id="a_node1"><a xlink:title=" ">
<polygon fill="#bfbfbf" stroke="black" points="153,-312.5 153,-353.5 301,-353.5 301,-312.5 153,-312.5"/>
<text text-anchor="start" x="161" y="-341.5" font-family="Helvetica,sans-Serif" font-size="10.00">/home/allan/Licence2</text>
<text text-anchor="start" x="161" y="-330.5" font-family="Helvetica,sans-Serif" font-size="10.00">_Informatique/ProjetLIFAP4</text>
<text text-anchor="middle" x="227" y="-319.5" font-family="Helvetica,sans-Serif" font-size="10.00">/src/core/Enemy.h</text>
</a>
</g>
</g>
<!-- Node2 -->
<g id="node2" class="node">
<title>Node2</title>
<g id="a_node2"><a xlink:href="_enemy_8cpp.html" target="_top" xlink:title=" ">
<polygon fill="none" stroke="black" points="0,-234.5 0,-275.5 148,-275.5 148,-234.5 0,-234.5"/>
<text text-anchor="start" x="8" y="-263.5" font-family="Helvetica,sans-Serif" font-size="10.00">/home/allan/Licence2</text>
<text text-anchor="start" x="8" y="-252.5" font-family="Helvetica,sans-Serif" font-size="10.00">_Informatique/ProjetLIFAP4</text>
<text text-anchor="middle" x="74" y="-241.5" font-family="Helvetica,sans-Serif" font-size="10.00">/src/core/Enemy.cpp</text>
</a>
</g>
</g>
<!-- Node1&#45;&gt;Node2 -->
<g id="edge1" class="edge">
<title>Node1&#45;&gt;Node2</title>
<path fill="none" stroke="midnightblue" d="M178.5,-307.91C157.46,-297.46 133.15,-285.38 113.27,-275.51"/>
<polygon fill="midnightblue" stroke="midnightblue" points="177.09,-311.11 187.6,-312.43 180.2,-304.84 177.09,-311.11"/>
</g>
<!-- Node3 -->
<g id="node3" class="node">
<title>Node3</title>
<g id="a_node3"><a xlink:href="_game_8h.html" target="_top" xlink:title=" ">
<polygon fill="none" stroke="black" points="102,-156.5 102,-197.5 250,-197.5 250,-156.5 102,-156.5"/>
<text text-anchor="start" x="110" y="-185.5" font-family="Helvetica,sans-Serif" font-size="10.00">/home/allan/Licence2</text>
<text text-anchor="start" x="110" y="-174.5" font-family="Helvetica,sans-Serif" font-size="10.00">_Informatique/ProjetLIFAP4</text>
<text text-anchor="middle" x="176" y="-163.5" font-family="Helvetica,sans-Serif" font-size="10.00">/src/core/Game.h</text>
</a>
</g>
</g>
<!-- Node1&#45;&gt;Node3 -->
<g id="edge2" class="edge">
<title>Node1&#45;&gt;Node3</title>
<path fill="none" stroke="midnightblue" d="M208.32,-303.49C203.38,-294.93 198.46,-285.33 195,-276 185.29,-249.84 180.28,-217.82 177.9,-197.66"/>
<polygon fill="midnightblue" stroke="midnightblue" points="205.47,-305.54 213.62,-312.3 211.46,-301.93 205.47,-305.54"/>
</g>
<!-- Node8 -->
<g id="node8" class="node">
<title>Node8</title>
<g id="a_node8"><a xlink:href="_projectile_8h.html" target="_top" xlink:title=" ">
<polygon fill="none" stroke="black" points="204,-234.5 204,-275.5 352,-275.5 352,-234.5 204,-234.5"/>
<text text-anchor="start" x="212" y="-263.5" font-family="Helvetica,sans-Serif" font-size="10.00">/home/allan/Licence2</text>
<text text-anchor="start" x="212" y="-252.5" font-family="Helvetica,sans-Serif" font-size="10.00">_Informatique/ProjetLIFAP4</text>
<text text-anchor="middle" x="278" y="-241.5" font-family="Helvetica,sans-Serif" font-size="10.00">/src/core/Projectile.h</text>
</a>
</g>
</g>
<!-- Node1&#45;&gt;Node8 -->
<g id="edge7" class="edge">
<title>Node1&#45;&gt;Node8</title>
<path fill="none" stroke="midnightblue" d="M245.76,-304.05C252.12,-294.57 259.09,-284.18 264.91,-275.51"/>
<polygon fill="midnightblue" stroke="midnightblue" points="242.8,-302.17 240.13,-312.43 248.61,-306.07 242.8,-302.17"/>
</g>
<!-- Node10 -->
<g id="node10" class="node">
<title>Node10</title>
<g id="a_node10"><a xlink:href="_tower_archer_8cpp.html" target="_top" xlink:title=" ">
<polygon fill="none" stroke="black" points="370,-234.5 370,-275.5 518,-275.5 518,-234.5 370,-234.5"/>
<text text-anchor="start" x="378" y="-263.5" font-family="Helvetica,sans-Serif" font-size="10.00">/home/allan/Licence2</text>
<text text-anchor="start" x="378" y="-252.5" font-family="Helvetica,sans-Serif" font-size="10.00">_Informatique/ProjetLIFAP4</text>
<text text-anchor="middle" x="444" y="-241.5" font-family="Helvetica,sans-Serif" font-size="10.00">/src/core/TowerArcher.cpp</text>
</a>
</g>
</g>
<!-- Node1&#45;&gt;Node10 -->
<g id="edge10" class="edge">
<title>Node1&#45;&gt;Node10</title>
<path fill="none" stroke="midnightblue" d="M292.6,-309.03C323.14,-298.33 359.1,-285.73 388.31,-275.51"/>
<polygon fill="midnightblue" stroke="midnightblue" points="291.16,-305.82 282.88,-312.43 293.48,-312.43 291.16,-305.82"/>
</g>
<!-- Node4 -->
<g id="node4" class="node">
<title>Node4</title>
<g id="a_node4"><a xlink:href="_game_8cpp.html" target="_top" xlink:title=" ">
<polygon fill="none" stroke="black" points="19,-78.5 19,-119.5 167,-119.5 167,-78.5 19,-78.5"/>
<text text-anchor="start" x="27" y="-107.5" font-family="Helvetica,sans-Serif" font-size="10.00">/home/allan/Licence2</text>
<text text-anchor="start" x="27" y="-96.5" font-family="Helvetica,sans-Serif" font-size="10.00">_Informatique/ProjetLIFAP4</text>
<text text-anchor="middle" x="93" y="-85.5" font-family="Helvetica,sans-Serif" font-size="10.00">/src/core/Game.cpp</text>
</a>
</g>
</g>
<!-- Node3&#45;&gt;Node4 -->
<g id="edge3" class="edge">
<title>Node3&#45;&gt;Node4</title>
<path fill="none" stroke="midnightblue" d="M147.05,-149.49C136.28,-139.63 124.26,-128.63 114.3,-119.51"/>
<polygon fill="midnightblue" stroke="midnightblue" points="144.89,-152.26 154.63,-156.43 149.61,-147.09 144.89,-152.26"/>
</g>
<!-- Node5 -->
<g id="node5" class="node">
<title>Node5</title>
<g id="a_node5"><a xlink:href="_game_t_x_t_8h.html" target="_top" xlink:title=" ">
<polygon fill="none" stroke="black" points="185,-78.5 185,-119.5 333,-119.5 333,-78.5 185,-78.5"/>
<text text-anchor="start" x="193" y="-107.5" font-family="Helvetica,sans-Serif" font-size="10.00">/home/allan/Licence2</text>
<text text-anchor="start" x="193" y="-96.5" font-family="Helvetica,sans-Serif" font-size="10.00">_Informatique/ProjetLIFAP4</text>
<text text-anchor="middle" x="259" y="-85.5" font-family="Helvetica,sans-Serif" font-size="10.00">/src/txt/GameTXT.h</text>
</a>
</g>
</g>
<!-- Node3&#45;&gt;Node5 -->
<g id="edge4" class="edge">
<title>Node3&#45;&gt;Node5</title>
<path fill="none" stroke="midnightblue" d="M204.95,-149.49C215.72,-139.63 227.74,-128.63 237.7,-119.51"/>
<polygon fill="midnightblue" stroke="midnightblue" points="202.39,-147.09 197.37,-156.43 207.11,-152.26 202.39,-147.09"/>
</g>
<!-- Node6 -->
<g id="node6" class="node">
<title>Node6</title>
<g id="a_node6"><a xlink:href="_game_t_x_t_8cpp.html" target="_top" xlink:title=" ">
<polygon fill="none" stroke="black" points="102,-0.5 102,-41.5 250,-41.5 250,-0.5 102,-0.5"/>
<text text-anchor="start" x="110" y="-29.5" font-family="Helvetica,sans-Serif" font-size="10.00">/home/allan/Licence2</text>
<text text-anchor="start" x="110" y="-18.5" font-family="Helvetica,sans-Serif" font-size="10.00">_Informatique/ProjetLIFAP4</text>
<text text-anchor="middle" x="176" y="-7.5" font-family="Helvetica,sans-Serif" font-size="10.00">/src/txt/GameTXT.cpp</text>
</a>
</g>
</g>
<!-- Node5&#45;&gt;Node6 -->
<g id="edge5" class="edge">
<title>Node5&#45;&gt;Node6</title>
<path fill="none" stroke="midnightblue" d="M230.05,-71.49C219.28,-61.63 207.26,-50.63 197.3,-41.51"/>
<polygon fill="midnightblue" stroke="midnightblue" points="227.89,-74.26 237.63,-78.43 232.61,-69.09 227.89,-74.26"/>
</g>
<!-- Node7 -->
<g id="node7" class="node">
<title>Node7</title>
<g id="a_node7"><a xlink:href="main_t_x_t_8cpp.html" target="_top" xlink:title=" ">
<polygon fill="none" stroke="black" points="268,-0.5 268,-41.5 416,-41.5 416,-0.5 268,-0.5"/>
<text text-anchor="start" x="276" y="-29.5" font-family="Helvetica,sans-Serif" font-size="10.00">/home/allan/Licence2</text>
<text text-anchor="start" x="276" y="-18.5" font-family="Helvetica,sans-Serif" font-size="10.00">_Informatique/ProjetLIFAP4</text>
<text text-anchor="middle" x="342" y="-7.5" font-family="Helvetica,sans-Serif" font-size="10.00">/src/txt/mainTXT.cpp</text>
</a>
</g>
</g>
<!-- Node5&#45;&gt;Node7 -->
<g id="edge6" class="edge">
<title>Node5&#45;&gt;Node7</title>
<path fill="none" stroke="midnightblue" d="M287.95,-71.49C298.72,-61.63 310.74,-50.63 320.7,-41.51"/>
<polygon fill="midnightblue" stroke="midnightblue" points="285.39,-69.09 280.37,-78.43 290.11,-74.26 285.39,-69.09"/>
</g>
<!-- Node8&#45;&gt;Node3 -->
<g id="edge8" class="edge">
<title>Node8&#45;&gt;Node3</title>
<path fill="none" stroke="midnightblue" d="M243.58,-228.35C230.05,-218.27 214.78,-206.89 202.18,-197.51"/>
<polygon fill="midnightblue" stroke="midnightblue" points="241.62,-231.26 251.73,-234.43 245.8,-225.65 241.62,-231.26"/>
</g>
<!-- Node9 -->
<g id="node9" class="node">
<title>Node9</title>
<g id="a_node9"><a xlink:href="_projectile_8cpp.html" target="_top" xlink:title=" ">
<polygon fill="none" stroke="black" points="268,-156.5 268,-197.5 416,-197.5 416,-156.5 268,-156.5"/>
<text text-anchor="start" x="276" y="-185.5" font-family="Helvetica,sans-Serif" font-size="10.00">/home/allan/Licence2</text>
<text text-anchor="start" x="276" y="-174.5" font-family="Helvetica,sans-Serif" font-size="10.00">_Informatique/ProjetLIFAP4</text>
<text text-anchor="middle" x="342" y="-163.5" font-family="Helvetica,sans-Serif" font-size="10.00">/src/core/Projectile.cpp</text>
</a>
</g>
</g>
<!-- Node8&#45;&gt;Node9 -->
<g id="edge9" class="edge">
<title>Node8&#45;&gt;Node9</title>
<path fill="none" stroke="midnightblue" d="M301.05,-226.63C309.17,-216.99 318.12,-206.36 325.57,-197.51"/>
<polygon fill="midnightblue" stroke="midnightblue" points="298.25,-224.52 294.48,-234.43 303.6,-229.03 298.25,-224.52"/>
</g>
</g>
</svg>
