<?xml version="1.0" encoding="UTF-8" standalone="no"?>
<!DOCTYPE svg PUBLIC "-//W3C//DTD SVG 1.1//EN"
 "http://www.w3.org/Graphics/SVG/1.1/DTD/svg11.dtd">
<!-- Generated by graphviz version 2.43.0 (0)
 -->
<!-- Title: /home/allan/Licence2_Informatique/ProjetLIFAP4/src/core/Entity.h Pages: 1 -->
<svg width="1546pt" height="440pt"
 viewBox="0.00 0.00 1546.00 440.00" xmlns="http://www.w3.org/2000/svg" xmlns:xlink="http://www.w3.org/1999/xlink">
<g id="graph0" class="graph" transform="scale(1 1) rotate(0) translate(4 436)">
<title>/home/allan/Licence2_Informatique/ProjetLIFAP4/src/core/Entity.h</title>
<!-- Node1 -->
<g id="node1" class="node">
<title>Node1</title>
<g id="a_node1"><a xlink:title=" ">
<polygon fill="#bfbfbf" stroke="black" points="663,-390.5 663,-431.5 811,-431.5 811,-390.5 663,-390.5"/>
<text text-anchor="start" x="671" y="-419.5" font-family="Helvetica,sans-Serif" font-size="10.00">/home/allan/Licence2</text>
<text text-anchor="start" x="671" y="-408.5" font-family="Helvetica,sans-Serif" font-size="10.00">_Informatique/ProjetLIFAP4</text>
<text text-anchor="middle" x="737" y="-397.5" font-family="Helvetica,sans-Serif" font-size="10.00">/src/core/Entity.h</text>
</a>
</g>
</g>
<!-- Node2 -->
<g id="node2" class="node">
<title>Node2</title>
<g id="a_node2"><a xlink:href="_castle_8h.html" target="_top" xlink:title=" ">
<polygon fill="none" stroke="black" points="0,-312.5 0,-353.5 148,-353.5 148,-312.5 0,-312.5"/>
<text text-anchor="start" x="8" y="-341.5" font-family="Helvetica,sans-Serif" font-size="10.00">/home/allan/Licence2</text>
<text text-anchor="start" x="8" y="-330.5" font-family="Helvetica,sans-Serif" font-size="10.00">_Informatique/ProjetLIFAP4</text>
<text text-anchor="middle" x="74" y="-319.5" font-family="Helvetica,sans-Serif" font-size="10.00">/src/core/Castle.h</text>
</a>
</g>
</g>
<!-- Node1&#45;&gt;Node2 -->
<g id="edge1" class="edge">
<title>Node1&#45;&gt;Node2</title>
<path fill="none" stroke="midnightblue" d="M652.37,-405.12C539.86,-397.86 335.07,-381.98 162,-354 157.51,-353.27 152.92,-352.46 148.29,-351.58"/>
<polygon fill="midnightblue" stroke="midnightblue" points="652.44,-408.63 662.64,-405.77 652.88,-401.64 652.44,-408.63"/>
</g>
<!-- Node3 -->
<g id="node3" class="node">
<title>Node3</title>
<g id="a_node3"><a xlink:href="_enemy_8cpp.html" target="_top" xlink:title=" ">
<polygon fill="none" stroke="black" points="102,-234.5 102,-275.5 250,-275.5 250,-234.5 102,-234.5"/>
<text text-anchor="start" x="110" y="-263.5" font-family="Helvetica,sans-Serif" font-size="10.00">/home/allan/Licence2</text>
<text text-anchor="start" x="110" y="-252.5" font-family="Helvetica,sans-Serif" font-size="10.00">_Informatique/ProjetLIFAP4</text>
<text text-anchor="middle" x="176" y="-241.5" font-family="Helvetica,sans-Serif" font-size="10.00">/src/core/Enemy.cpp</text>
</a>
</g>
</g>
<!-- Node1&#45;&gt;Node3 -->
<g id="edge2" class="edge">
<title>Node1&#45;&gt;Node3</title>
<path fill="none" stroke="midnightblue" d="M652.87,-406.75C509.02,-400.4 228.05,-384.25 195,-354 173.52,-334.34 172.05,-298.28 173.58,-275.81"/>
<polygon fill="midnightblue" stroke="midnightblue" points="652.84,-410.25 662.98,-407.19 653.14,-403.26 652.84,-410.25"/>
</g>
<!-- Node4 -->
<g id="node4" class="node">
<title>Node4</title>
<g id="a_node4"><a xlink:href="_enemy_8h.html" target="_top" xlink:title=" ">
<polygon fill="none" stroke="black" points="204,-312.5 204,-353.5 352,-353.5 352,-312.5 204,-312.5"/>
<text text-anchor="start" x="212" y="-341.5" font-family="Helvetica,sans-Serif" font-size="10.00">/home/allan/Licence2</text>
<text text-anchor="start" x="212" y="-330.5" font-family="Helvetica,sans-Serif" font-size="10.00">_Informatique/ProjetLIFAP4</text>
<text text-anchor="middle" x="278" y="-319.5" font-family="Helvetica,sans-Serif" font-size="10.00">/src/core/Enemy.h</text>
</a>
</g>
</g>
<!-- Node1&#45;&gt;Node4 -->
<g id="edge3" class="edge">
<title>Node1&#45;&gt;Node4</title>
<path fill="none" stroke="midnightblue" d="M652.9,-399.11C577.51,-388.91 464.01,-372.51 366,-354 361.54,-353.16 356.95,-352.25 352.34,-351.3"/>
<polygon fill="midnightblue" stroke="midnightblue" points="652.44,-402.57 662.82,-400.44 653.37,-395.64 652.44,-402.57"/>
</g>
<!-- Node10 -->
<g id="node10" class="node">
<title>Node10</title>
<g id="a_node10"><a xlink:href="_projectile_8h.html" target="_top" xlink:title=" ">
<polygon fill="none" stroke="black" points="510,-234.5 510,-275.5 658,-275.5 658,-234.5 510,-234.5"/>
<text text-anchor="start" x="518" y="-263.5" font-family="Helvetica,sans-Serif" font-size="10.00">/home/allan/Licence2</text>
<text text-anchor="start" x="518" y="-252.5" font-family="Helvetica,sans-Serif" font-size="10.00">_Informatique/ProjetLIFAP4</text>
<text text-anchor="middle" x="584" y="-241.5" font-family="Helvetica,sans-Serif" font-size="10.00">/src/core/Projectile.h</text>
</a>
</g>
</g>
<!-- Node1&#45;&gt;Node10 -->
<g id="edge15" class="edge">
<title>Node1&#45;&gt;Node10</title>
<path fill="none" stroke="midnightblue" d="M653.58,-389.8C634.52,-381.56 616.06,-370.05 603,-354 584.84,-331.69 582.24,-297.11 582.66,-275.55"/>
<polygon fill="midnightblue" stroke="midnightblue" points="652.37,-393.09 662.96,-393.59 654.99,-386.6 652.37,-393.09"/>
</g>
<!-- Node12 -->
<g id="node12" class="node">
<title>Node12</title>
<g id="a_node12"><a xlink:href="_tower_archer_8cpp.html" target="_top" xlink:title=" ">
<polygon fill="none" stroke="black" points="306,-234.5 306,-275.5 454,-275.5 454,-234.5 306,-234.5"/>
<text text-anchor="start" x="314" y="-263.5" font-family="Helvetica,sans-Serif" font-size="10.00">/home/allan/Licence2</text>
<text text-anchor="start" x="314" y="-252.5" font-family="Helvetica,sans-Serif" font-size="10.00">_Informatique/ProjetLIFAP4</text>
<text text-anchor="middle" x="380" y="-241.5" font-family="Helvetica,sans-Serif" font-size="10.00">/src/core/TowerArcher.cpp</text>
</a>
</g>
</g>
<!-- Node1&#45;&gt;Node12 -->
<g id="edge20" class="edge">
<title>Node1&#45;&gt;Node12</title>
<path fill="none" stroke="midnightblue" d="M652.79,-406.79C564.63,-401.61 434.2,-388.25 399,-354 378.13,-333.7 376.47,-297.84 377.79,-275.58"/>
<polygon fill="midnightblue" stroke="midnightblue" points="652.6,-410.28 662.78,-407.35 652.99,-403.29 652.6,-410.28"/>
</g>
<!-- Node13 -->
<g id="node13" class="node">
<title>Node13</title>
<g id="a_node13"><a xlink:href="_entity_8cpp.html" target="_top" xlink:title=" ">
<polygon fill="none" stroke="black" points="612,-312.5 612,-353.5 760,-353.5 760,-312.5 612,-312.5"/>
<text text-anchor="start" x="620" y="-341.5" font-family="Helvetica,sans-Serif" font-size="10.00">/home/allan/Licence2</text>
<text text-anchor="start" x="620" y="-330.5" font-family="Helvetica,sans-Serif" font-size="10.00">_Informatique/ProjetLIFAP4</text>
<text text-anchor="middle" x="686" y="-319.5" font-family="Helvetica,sans-Serif" font-size="10.00">/src/core/Entity.cpp</text>
</a>
</g>
</g>
<!-- Node1&#45;&gt;Node13 -->
<g id="edge14" class="edge">
<title>Node1&#45;&gt;Node13</title>
<path fill="none" stroke="midnightblue" d="M718.24,-382.05C711.88,-372.57 704.91,-362.18 699.09,-353.51"/>
<polygon fill="midnightblue" stroke="midnightblue" points="715.39,-384.07 723.87,-390.43 721.2,-380.17 715.39,-384.07"/>
</g>
<!-- Node14 -->
<g id="node14" class="node">
<title>Node14</title>
<g id="a_node14"><a xlink:href="_ressources_8cpp.html" target="_top" xlink:title=" ">
<polygon fill="none" stroke="black" points="765,-234.5 765,-275.5 913,-275.5 913,-234.5 765,-234.5"/>
<text text-anchor="start" x="773" y="-263.5" font-family="Helvetica,sans-Serif" font-size="10.00">/home/allan/Licence2</text>
<text text-anchor="start" x="773" y="-252.5" font-family="Helvetica,sans-Serif" font-size="10.00">_Informatique/ProjetLIFAP4</text>
<text text-anchor="middle" x="839" y="-241.5" font-family="Helvetica,sans-Serif" font-size="10.00">/src/core/Ressources.cpp</text>
</a>
</g>
</g>
<!-- Node1&#45;&gt;Node14 -->
<g id="edge16" class="edge">
<title>Node1&#45;&gt;Node14</title>
<path fill="none" stroke="midnightblue" d="M755.57,-381.96C775.9,-351.26 807.99,-302.82 825.86,-275.83"/>
<polygon fill="midnightblue" stroke="midnightblue" points="752.52,-380.23 749.92,-390.5 758.36,-384.09 752.52,-380.23"/>
</g>
<!-- Node15 -->
<g id="node15" class="node">
<title>Node15</title>
<g id="a_node15"><a xlink:href="_ressources_8h.html" target="_top" xlink:title=" ">
<polygon fill="none" stroke="black" points="816,-312.5 816,-353.5 964,-353.5 964,-312.5 816,-312.5"/>
<text text-anchor="start" x="824" y="-341.5" font-family="Helvetica,sans-Serif" font-size="10.00">/home/allan/Licence2</text>
<text text-anchor="start" x="824" y="-330.5" font-family="Helvetica,sans-Serif" font-size="10.00">_Informatique/ProjetLIFAP4</text>
<text text-anchor="middle" x="890" y="-319.5" font-family="Helvetica,sans-Serif" font-size="10.00">/src/core/Ressources.h</text>
</a>
</g>
</g>
<!-- Node1&#45;&gt;Node15 -->
<g id="edge17" class="edge">
<title>Node1&#45;&gt;Node15</title>
<path fill="none" stroke="midnightblue" d="M785.5,-385.91C806.54,-375.46 830.85,-363.38 850.73,-353.51"/>
<polygon fill="midnightblue" stroke="midnightblue" points="783.8,-382.84 776.4,-390.43 786.91,-389.11 783.8,-382.84"/>
</g>
<!-- Node16 -->
<g id="node16" class="node">
<title>Node16</title>
<g id="a_node16"><a xlink:href="_tower_8h.html" target="_top" xlink:title=" ">
<polygon fill="none" stroke="black" points="982,-312.5 982,-353.5 1130,-353.5 1130,-312.5 982,-312.5"/>
<text text-anchor="start" x="990" y="-341.5" font-family="Helvetica,sans-Serif" font-size="10.00">/home/allan/Licence2</text>
<text text-anchor="start" x="990" y="-330.5" font-family="Helvetica,sans-Serif" font-size="10.00">_Informatique/ProjetLIFAP4</text>
<text text-anchor="middle" x="1056" y="-319.5" font-family="Helvetica,sans-Serif" font-size="10.00">/src/core/Tower.h</text>
</a>
</g>
</g>
<!-- Node1&#45;&gt;Node16 -->
<g id="edge19" class="edge">
<title>Node1&#45;&gt;Node16</title>
<path fill="none" stroke="midnightblue" d="M820.89,-390.17C865.98,-379.49 922.54,-366.07 973,-354 975.88,-353.31 978.82,-352.61 981.79,-351.9"/>
<polygon fill="midnightblue" stroke="midnightblue" points="820.08,-386.76 811.16,-392.47 821.69,-393.58 820.08,-386.76"/>
</g>
<!-- Node17 -->
<g id="node17" class="node">
<title>Node17</title>
<g id="a_node17"><a xlink:href="_tower_archer_8h.html" target="_top" xlink:title=" ">
<polygon fill="none" stroke="black" points="408,-312.5 408,-353.5 556,-353.5 556,-312.5 408,-312.5"/>
<text text-anchor="start" x="416" y="-341.5" font-family="Helvetica,sans-Serif" font-size="10.00">/home/allan/Licence2</text>
<text text-anchor="start" x="416" y="-330.5" font-family="Helvetica,sans-Serif" font-size="10.00">_Informatique/ProjetLIFAP4</text>
<text text-anchor="middle" x="482" y="-319.5" font-family="Helvetica,sans-Serif" font-size="10.00">/src/core/TowerArcher.h</text>
</a>
</g>
</g>
<!-- Node1&#45;&gt;Node17 -->
<g id="edge21" class="edge">
<title>Node1&#45;&gt;Node17</title>
<path fill="none" stroke="midnightblue" d="M661.31,-387.44C625.12,-376.66 582.21,-363.87 547.45,-353.51"/>
<polygon fill="midnightblue" stroke="midnightblue" points="660.75,-390.93 671.33,-390.43 662.75,-384.22 660.75,-390.93"/>
</g>
<!-- Node18 -->
<g id="node18" class="node">
<title>Node18</title>
<g id="a_node18"><a xlink:href="_tower_bomb_8cpp.html" target="_top" xlink:title=" ">
<polygon fill="none" stroke="black" points="1103,-234.5 1103,-275.5 1251,-275.5 1251,-234.5 1103,-234.5"/>
<text text-anchor="start" x="1111" y="-263.5" font-family="Helvetica,sans-Serif" font-size="10.00">/home/allan/Licence2</text>
<text text-anchor="start" x="1111" y="-252.5" font-family="Helvetica,sans-Serif" font-size="10.00">_Informatique/ProjetLIFAP4</text>
<text text-anchor="middle" x="1177" y="-241.5" font-family="Helvetica,sans-Serif" font-size="10.00">/src/core/TowerBomb.cpp</text>
</a>
</g>
</g>
<!-- Node1&#45;&gt;Node18 -->
<g id="edge26" class="edge">
<title>Node1&#45;&gt;Node18</title>
<path fill="none" stroke="midnightblue" d="M821.32,-408.09C924.45,-404.11 1091.21,-391.83 1139,-354 1163.18,-334.86 1171.99,-298.28 1175.19,-275.63"/>
<polygon fill="midnightblue" stroke="midnightblue" points="821.1,-404.59 811.24,-408.46 821.36,-411.59 821.1,-404.59"/>
</g>
<!-- Node19 -->
<g id="node19" class="node">
<title>Node19</title>
<g id="a_node19"><a xlink:href="_tower_bomb_8h.html" target="_top" xlink:title=" ">
<polygon fill="none" stroke="black" points="1186,-312.5 1186,-353.5 1334,-353.5 1334,-312.5 1186,-312.5"/>
<text text-anchor="start" x="1194" y="-341.5" font-family="Helvetica,sans-Serif" font-size="10.00">/home/allan/Licence2</text>
<text text-anchor="start" x="1194" y="-330.5" font-family="Helvetica,sans-Serif" font-size="10.00">_Informatique/ProjetLIFAP4</text>
<text text-anchor="middle" x="1260" y="-319.5" font-family="Helvetica,sans-Serif" font-size="10.00">/src/core/TowerBomb.h</text>
</a>
</g>
</g>
<!-- Node1&#45;&gt;Node19 -->
<g id="edge27" class="edge">
<title>Node1&#45;&gt;Node19</title>
<path fill="none" stroke="midnightblue" d="M821.4,-401.55C909.31,-392.18 1050.85,-375.52 1172,-354 1176.47,-353.21 1181.06,-352.33 1185.68,-351.41"/>
<polygon fill="midnightblue" stroke="midnightblue" points="820.79,-398.09 811.22,-402.63 821.53,-405.05 820.79,-398.09"/>
</g>
<!-- Node20 -->
<g id="node20" class="node">
<title>Node20</title>
<g id="a_node20"><a xlink:href="_tower_magic_8cpp.html" target="_top" xlink:title=" ">
<polygon fill="none" stroke="black" points="1339,-234.5 1339,-275.5 1487,-275.5 1487,-234.5 1339,-234.5"/>
<text text-anchor="start" x="1347" y="-263.5" font-family="Helvetica,sans-Serif" font-size="10.00">/home/allan/Licence2</text>
<text text-anchor="start" x="1347" y="-252.5" font-family="Helvetica,sans-Serif" font-size="10.00">_Informatique/ProjetLIFAP4</text>
<text text-anchor="middle" x="1413" y="-241.5" font-family="Helvetica,sans-Serif" font-size="10.00">/src/core/TowerMagic.cpp</text>
</a>
</g>
</g>
<!-- Node1&#45;&gt;Node20 -->
<g id="edge29" class="edge">
<title>Node1&#45;&gt;Node20</title>
<path fill="none" stroke="midnightblue" d="M821.25,-410.72C966.36,-410.58 1256.27,-403.82 1343,-354 1359.05,-344.78 1386.37,-301.46 1401.7,-275.6"/>
<polygon fill="midnightblue" stroke="midnightblue" points="821.05,-407.22 811.05,-410.72 821.05,-414.22 821.05,-407.22"/>
</g>
<!-- Node21 -->
<g id="node21" class="node">
<title>Node21</title>
<g id="a_node21"><a xlink:href="_tower_magic_8h.html" target="_top" xlink:title=" ">
<polygon fill="none" stroke="black" points="1390,-312.5 1390,-353.5 1538,-353.5 1538,-312.5 1390,-312.5"/>
<text text-anchor="start" x="1398" y="-341.5" font-family="Helvetica,sans-Serif" font-size="10.00">/home/allan/Licence2</text>
<text text-anchor="start" x="1398" y="-330.5" font-family="Helvetica,sans-Serif" font-size="10.00">_Informatique/ProjetLIFAP4</text>
<text text-anchor="middle" x="1464" y="-319.5" font-family="Helvetica,sans-Serif" font-size="10.00">/src/core/TowerMagic.h</text>
</a>
</g>
</g>
<!-- Node1&#45;&gt;Node21 -->
<g id="edge30" class="edge">
<title>Node1&#45;&gt;Node21</title>
<path fill="none" stroke="midnightblue" d="M821.27,-406.27C943.93,-400.02 1178.56,-384.94 1376,-354 1380.49,-353.3 1385.09,-352.5 1389.72,-351.63"/>
<polygon fill="midnightblue" stroke="midnightblue" points="821,-402.78 811.19,-406.78 821.36,-409.77 821,-402.78"/>
</g>
<!-- Node4&#45;&gt;Node3 -->
<g id="edge4" class="edge">
<title>Node4&#45;&gt;Node3</title>
<path fill="none" stroke="midnightblue" d="M243.58,-306.35C230.05,-296.27 214.78,-284.89 202.18,-275.51"/>
<polygon fill="midnightblue" stroke="midnightblue" points="241.62,-309.26 251.73,-312.43 245.8,-303.65 241.62,-309.26"/>
</g>
<!-- Node5 -->
<g id="node5" class="node">
<title>Node5</title>
<g id="a_node5"><a xlink:href="_game_8h.html" target="_top" xlink:title=" ">
<polygon fill="none" stroke="black" points="408,-156.5 408,-197.5 556,-197.5 556,-156.5 408,-156.5"/>
<text text-anchor="start" x="416" y="-185.5" font-family="Helvetica,sans-Serif" font-size="10.00">/home/allan/Licence2</text>
<text text-anchor="start" x="416" y="-174.5" font-family="Helvetica,sans-Serif" font-size="10.00">_Informatique/ProjetLIFAP4</text>
<text text-anchor="middle" x="482" y="-163.5" font-family="Helvetica,sans-Serif" font-size="10.00">/src/core/Game.h</text>
</a>
</g>
</g>
<!-- Node4&#45;&gt;Node5 -->
<g id="edge5" class="edge">
<title>Node4&#45;&gt;Node5</title>
<path fill="none" stroke="midnightblue" d="M276.13,-302.27C276.42,-280.77 280.41,-252.38 297,-234 324.99,-202.98 369.51,-188.89 407.86,-182.6"/>
<polygon fill="midnightblue" stroke="midnightblue" points="272.64,-302.54 276.26,-312.49 279.64,-302.45 272.64,-302.54"/>
</g>
<!-- Node4&#45;&gt;Node10 -->
<g id="edge10" class="edge">
<title>Node4&#45;&gt;Node10</title>
<path fill="none" stroke="midnightblue" d="M361.79,-311.19C408.09,-299.69 465.12,-285.52 509.81,-274.43"/>
<polygon fill="midnightblue" stroke="midnightblue" points="360.94,-307.8 352.07,-313.6 362.62,-314.59 360.94,-307.8"/>
</g>
<!-- Node4&#45;&gt;Node12 -->
<g id="edge13" class="edge">
<title>Node4&#45;&gt;Node12</title>
<path fill="none" stroke="midnightblue" d="M312.42,-306.35C325.95,-296.27 341.22,-284.89 353.82,-275.51"/>
<polygon fill="midnightblue" stroke="midnightblue" points="310.2,-303.65 304.27,-312.43 314.38,-309.26 310.2,-303.65"/>
</g>
<!-- Node6 -->
<g id="node6" class="node">
<title>Node6</title>
<g id="a_node6"><a xlink:href="_game_8cpp.html" target="_top" xlink:title=" ">
<polygon fill="none" stroke="black" points="325,-78.5 325,-119.5 473,-119.5 473,-78.5 325,-78.5"/>
<text text-anchor="start" x="333" y="-107.5" font-family="Helvetica,sans-Serif" font-size="10.00">/home/allan/Licence2</text>
<text text-anchor="start" x="333" y="-96.5" font-family="Helvetica,sans-Serif" font-size="10.00">_Informatique/ProjetLIFAP4</text>
<text text-anchor="middle" x="399" y="-85.5" font-family="Helvetica,sans-Serif" font-size="10.00">/src/core/Game.cpp</text>
</a>
</g>
</g>
<!-- Node5&#45;&gt;Node6 -->
<g id="edge6" class="edge">
<title>Node5&#45;&gt;Node6</title>
<path fill="none" stroke="midnightblue" d="M453.05,-149.49C442.28,-139.63 430.26,-128.63 420.3,-119.51"/>
<polygon fill="midnightblue" stroke="midnightblue" points="450.89,-152.26 460.63,-156.43 455.61,-147.09 450.89,-152.26"/>
</g>
<!-- Node7 -->
<g id="node7" class="node">
<title>Node7</title>
<g id="a_node7"><a xlink:href="_game_t_x_t_8h.html" target="_top" xlink:title=" ">
<polygon fill="none" stroke="black" points="491,-78.5 491,-119.5 639,-119.5 639,-78.5 491,-78.5"/>
<text text-anchor="start" x="499" y="-107.5" font-family="Helvetica,sans-Serif" font-size="10.00">/home/allan/Licence2</text>
<text text-anchor="start" x="499" y="-96.5" font-family="Helvetica,sans-Serif" font-size="10.00">_Informatique/ProjetLIFAP4</text>
<text text-anchor="middle" x="565" y="-85.5" font-family="Helvetica,sans-Serif" font-size="10.00">/src/txt/GameTXT.h</text>
</a>
</g>
</g>
<!-- Node5&#45;&gt;Node7 -->
<g id="edge7" class="edge">
<title>Node5&#45;&gt;Node7</title>
<path fill="none" stroke="midnightblue" d="M510.95,-149.49C521.72,-139.63 533.74,-128.63 543.7,-119.51"/>
<polygon fill="midnightblue" stroke="midnightblue" points="508.39,-147.09 503.37,-156.43 513.11,-152.26 508.39,-147.09"/>
</g>
<!-- Node8 -->
<g id="node8" class="node">
<title>Node8</title>
<g id="a_node8"><a xlink:href="_game_t_x_t_8cpp.html" target="_top" xlink:title=" ">
<polygon fill="none" stroke="black" points="408,-0.5 408,-41.5 556,-41.5 556,-0.5 408,-0.5"/>
<text text-anchor="start" x="416" y="-29.5" font-family="Helvetica,sans-Serif" font-size="10.00">/home/allan/Licence2</text>
<text text-anchor="start" x="416" y="-18.5" font-family="Helvetica,sans-Serif" font-size="10.00">_Informatique/ProjetLIFAP4</text>
<text text-anchor="middle" x="482" y="-7.5" font-family="Helvetica,sans-Serif" font-size="10.00">/src/txt/GameTXT.cpp</text>
</a>
</g>
</g>
<!-- Node7&#45;&gt;Node8 -->
<g id="edge8" class="edge">
<title>Node7&#45;&gt;Node8</title>
<path fill="none" stroke="midnightblue" d="M536.05,-71.49C525.28,-61.63 513.26,-50.63 503.3,-41.51"/>
<polygon fill="midnightblue" stroke="midnightblue" points="533.89,-74.26 543.63,-78.43 538.61,-69.09 533.89,-74.26"/>
</g>
<!-- Node9 -->
<g id="node9" class="node">
<title>Node9</title>
<g id="a_node9"><a xlink:href="main_t_x_t_8cpp.html" target="_top" xlink:title=" ">
<polygon fill="none" stroke="black" points="574,-0.5 574,-41.5 722,-41.5 722,-0.5 574,-0.5"/>
<text text-anchor="start" x="582" y="-29.5" font-family="Helvetica,sans-Serif" font-size="10.00">/home/allan/Licence2</text>
<text text-anchor="start" x="582" y="-18.5" font-family="Helvetica,sans-Serif" font-size="10.00">_Informatique/ProjetLIFAP4</text>
<text text-anchor="middle" x="648" y="-7.5" font-family="Helvetica,sans-Serif" font-size="10.00">/src/txt/mainTXT.cpp</text>
</a>
</g>
</g>
<!-- Node7&#45;&gt;Node9 -->
<g id="edge9" class="edge">
<title>Node7&#45;&gt;Node9</title>
<path fill="none" stroke="midnightblue" d="M593.95,-71.49C604.72,-61.63 616.74,-50.63 626.7,-41.51"/>
<polygon fill="midnightblue" stroke="midnightblue" points="591.39,-69.09 586.37,-78.43 596.11,-74.26 591.39,-69.09"/>
</g>
<!-- Node10&#45;&gt;Node5 -->
<g id="edge11" class="edge">
<title>Node10&#45;&gt;Node5</title>
<path fill="none" stroke="midnightblue" d="M549.58,-228.35C536.05,-218.27 520.78,-206.89 508.18,-197.51"/>
<polygon fill="midnightblue" stroke="midnightblue" points="547.62,-231.26 557.73,-234.43 551.8,-225.65 547.62,-231.26"/>
</g>
<!-- Node11 -->
<g id="node11" class="node">
<title>Node11</title>
<g id="a_node11"><a xlink:href="_projectile_8cpp.html" target="_top" xlink:title=" ">
<polygon fill="none" stroke="black" points="593,-156.5 593,-197.5 741,-197.5 741,-156.5 593,-156.5"/>
<text text-anchor="start" x="601" y="-185.5" font-family="Helvetica,sans-Serif" font-size="10.00">/home/allan/Licence2</text>
<text text-anchor="start" x="601" y="-174.5" font-family="Helvetica,sans-Serif" font-size="10.00">_Informatique/ProjetLIFAP4</text>
<text text-anchor="middle" x="667" y="-163.5" font-family="Helvetica,sans-Serif" font-size="10.00">/src/core/Projectile.cpp</text>
</a>
</g>
</g>
<!-- Node10&#45;&gt;Node11 -->
<g id="edge12" class="edge">
<title>Node10&#45;&gt;Node11</title>
<path fill="none" stroke="midnightblue" d="M612.95,-227.49C623.72,-217.63 635.74,-206.63 645.7,-197.51"/>
<polygon fill="midnightblue" stroke="midnightblue" points="610.39,-225.09 605.37,-234.43 615.11,-230.26 610.39,-225.09"/>
</g>
<!-- Node15&#45;&gt;Node14 -->
<g id="edge18" class="edge">
<title>Node15&#45;&gt;Node14</title>
<path fill="none" stroke="midnightblue" d="M871.24,-304.05C864.88,-294.57 857.91,-284.18 852.09,-275.51"/>
<polygon fill="midnightblue" stroke="midnightblue" points="868.39,-306.07 876.87,-312.43 874.2,-302.17 868.39,-306.07"/>
</g>
<!-- Node17&#45;&gt;Node5 -->
<g id="edge22" class="edge">
<title>Node17&#45;&gt;Node5</title>
<path fill="none" stroke="midnightblue" d="M482,-302.36C482,-271.61 482,-224.36 482,-197.83"/>
<polygon fill="midnightblue" stroke="midnightblue" points="478.5,-302.5 482,-312.5 485.5,-302.5 478.5,-302.5"/>
</g>
<!-- Node17&#45;&gt;Node10 -->
<g id="edge24" class="edge">
<title>Node17&#45;&gt;Node10</title>
<path fill="none" stroke="midnightblue" d="M516.42,-306.35C529.95,-296.27 545.22,-284.89 557.82,-275.51"/>
<polygon fill="midnightblue" stroke="midnightblue" points="514.2,-303.65 508.27,-312.43 518.38,-309.26 514.2,-303.65"/>
</g>
<!-- Node17&#45;&gt;Node11 -->
<g id="edge23" class="edge">
<title>Node17&#45;&gt;Node11</title>
<path fill="none" stroke="midnightblue" d="M566.28,-316.62C608.93,-306.95 654.34,-293.06 667,-276 683.73,-253.46 678.89,-219.26 673.34,-197.8"/>
<polygon fill="midnightblue" stroke="midnightblue" points="565.39,-313.24 556.38,-318.81 566.9,-320.07 565.39,-313.24"/>
</g>
<!-- Node17&#45;&gt;Node12 -->
<g id="edge25" class="edge">
<title>Node17&#45;&gt;Node12</title>
<path fill="none" stroke="midnightblue" d="M447.58,-306.35C434.05,-296.27 418.78,-284.89 406.18,-275.51"/>
<polygon fill="midnightblue" stroke="midnightblue" points="445.62,-309.26 455.73,-312.43 449.8,-303.65 445.62,-309.26"/>
</g>
<!-- Node19&#45;&gt;Node18 -->
<g id="edge28" class="edge">
<title>Node19&#45;&gt;Node18</title>
<path fill="none" stroke="midnightblue" d="M1231.05,-305.49C1220.28,-295.63 1208.26,-284.63 1198.3,-275.51"/>
<polygon fill="midnightblue" stroke="midnightblue" points="1228.89,-308.26 1238.63,-312.43 1233.61,-303.09 1228.89,-308.26"/>
</g>
<!-- Node21&#45;&gt;Node20 -->
<g id="edge31" class="edge">
<title>Node21&#45;&gt;Node20</title>
<path fill="none" stroke="midnightblue" d="M1445.24,-304.05C1438.88,-294.57 1431.91,-284.18 1426.09,-275.51"/>
<polygon fill="midnightblue" stroke="midnightblue" points="1442.39,-306.07 1450.87,-312.43 1448.2,-302.17 1442.39,-306.07"/>
</g>
</g>
</svg>
