<?xml version="1.0" encoding="UTF-8" standalone="no"?>
<!DOCTYPE svg PUBLIC "-//W3C//DTD SVG 1.1//EN"
 "http://www.w3.org/Graphics/SVG/1.1/DTD/svg11.dtd">
<!-- Generated by graphviz version 2.43.0 (0)
 -->
<!-- Title: src/core/Entity.h Pages: 1 -->
<svg width="1259pt" height="308pt"
 viewBox="0.00 0.00 1258.50 308.00" xmlns="http://www.w3.org/2000/svg" xmlns:xlink="http://www.w3.org/1999/xlink">
<g id="graph0" class="graph" transform="scale(1 1) rotate(0) translate(4 304)">
<title>src/core/Entity.h</title>
<!-- Node1 -->
<g id="node1" class="node">
<title>Node1</title>
<g id="a_node1"><a xlink:title="Définition des donées membres et des fonctions membres de la classe Entity.">
<polygon fill="#bfbfbf" stroke="black" points="550,-280.5 550,-299.5 644,-299.5 644,-280.5 550,-280.5"/>
<text text-anchor="middle" x="597" y="-287.5" font-family="Helvetica,sans-Serif" font-size="10.00">src/core/Entity.h</text>
</a>
</g>
</g>
<!-- Node2 -->
<g id="node2" class="node">
<title>Node2</title>
<g id="a_node2"><a xlink:href="_castle_8h.html" target="_top" xlink:title=" ">
<polygon fill="none" stroke="black" points="0,-224.5 0,-243.5 98,-243.5 98,-224.5 0,-224.5"/>
<text text-anchor="middle" x="49" y="-231.5" font-family="Helvetica,sans-Serif" font-size="10.00">src/core/Castle.h</text>
</a>
</g>
</g>
<!-- Node1&#45;&gt;Node2 -->
<g id="edge1" class="edge">
<title>Node1&#45;&gt;Node2</title>
<path fill="none" stroke="midnightblue" d="M539.67,-284.6C448.82,-277.43 266.25,-262.16 112,-244 107.5,-243.47 102.83,-242.88 98.15,-242.26"/>
<polygon fill="midnightblue" stroke="midnightblue" points="539.52,-288.1 549.76,-285.4 540.06,-281.12 539.52,-288.1"/>
</g>
<!-- Node3 -->
<g id="node3" class="node">
<title>Node3</title>
<g id="a_node3"><a xlink:href="_enemy_8h.html" target="_top" xlink:title="Définition des donées membres et des fonctions membres de la classe Enemy.">
<polygon fill="none" stroke="black" points="154.5,-224.5 154.5,-243.5 253.5,-243.5 253.5,-224.5 154.5,-224.5"/>
<text text-anchor="middle" x="204" y="-231.5" font-family="Helvetica,sans-Serif" font-size="10.00">src/core/Enemy.h</text>
</a>
</g>
</g>
<!-- Node1&#45;&gt;Node3 -->
<g id="edge2" class="edge">
<title>Node1&#45;&gt;Node3</title>
<path fill="none" stroke="midnightblue" d="M539.73,-281.23C474.08,-272.32 363.26,-257.21 268,-244 263.33,-243.35 258.47,-242.68 253.61,-242"/>
<polygon fill="midnightblue" stroke="midnightblue" points="539.49,-284.73 549.87,-282.61 540.43,-277.8 539.49,-284.73"/>
</g>
<!-- Node4 -->
<g id="node4" class="node">
<title>Node4</title>
<g id="a_node4"><a xlink:href="_enemy_8cpp.html" target="_top" xlink:title=" ">
<polygon fill="none" stroke="black" points="44,-168.5 44,-187.5 154,-187.5 154,-168.5 44,-168.5"/>
<text text-anchor="middle" x="99" y="-175.5" font-family="Helvetica,sans-Serif" font-size="10.00">src/core/Enemy.cpp</text>
</a>
</g>
</g>
<!-- Node1&#45;&gt;Node4 -->
<g id="edge13" class="edge">
<title>Node1&#45;&gt;Node4</title>
<path fill="none" stroke="midnightblue" d="M539.62,-289.12C433.32,-288.39 210.63,-282.2 145,-244 122.54,-230.93 108.26,-202 102.26,-187.55"/>
<polygon fill="midnightblue" stroke="midnightblue" points="539.82,-292.62 549.84,-289.17 539.86,-285.62 539.82,-292.62"/>
</g>
<!-- Node10 -->
<g id="node10" class="node">
<title>Node10</title>
<g id="a_node10"><a xlink:href="_projectile_8h.html" target="_top" xlink:title="Définition des donées membres et des fonctions membres de la classe Projectile.">
<polygon fill="none" stroke="black" points="404.5,-168.5 404.5,-187.5 517.5,-187.5 517.5,-168.5 404.5,-168.5"/>
<text text-anchor="middle" x="461" y="-175.5" font-family="Helvetica,sans-Serif" font-size="10.00">src/core/Projectile.h</text>
</a>
</g>
</g>
<!-- Node1&#45;&gt;Node10 -->
<g id="edge20" class="edge">
<title>Node1&#45;&gt;Node10</title>
<path fill="none" stroke="midnightblue" d="M541.32,-277.54C520.66,-270.81 498.51,-260.3 483,-244 467.89,-228.12 463.13,-201.49 461.66,-187.76"/>
<polygon fill="midnightblue" stroke="midnightblue" points="540.4,-280.92 550.99,-280.46 542.43,-274.22 540.4,-280.92"/>
</g>
<!-- Node12 -->
<g id="node12" class="node">
<title>Node12</title>
<g id="a_node12"><a xlink:href="_tower_archer_8cpp.html" target="_top" xlink:title=" ">
<polygon fill="none" stroke="black" points="210.5,-168.5 210.5,-187.5 347.5,-187.5 347.5,-168.5 210.5,-168.5"/>
<text text-anchor="middle" x="279" y="-175.5" font-family="Helvetica,sans-Serif" font-size="10.00">src/core/TowerArcher.cpp</text>
</a>
</g>
</g>
<!-- Node1&#45;&gt;Node12 -->
<g id="edge26" class="edge">
<title>Node1&#45;&gt;Node12</title>
<path fill="none" stroke="midnightblue" d="M539.51,-287.21C463.81,-283.72 336.19,-273.5 301,-244 284.02,-229.76 280.1,-201.9 279.23,-187.73"/>
<polygon fill="midnightblue" stroke="midnightblue" points="539.68,-290.72 549.83,-287.66 539.99,-283.73 539.68,-290.72"/>
</g>
<!-- Node13 -->
<g id="node13" class="node">
<title>Node13</title>
<g id="a_node13"><a xlink:href="_entity_8cpp.html" target="_top" xlink:title=" ">
<polygon fill="none" stroke="black" points="670.5,-224.5 670.5,-243.5 775.5,-243.5 775.5,-224.5 670.5,-224.5"/>
<text text-anchor="middle" x="723" y="-231.5" font-family="Helvetica,sans-Serif" font-size="10.00">src/core/Entity.cpp</text>
</a>
</g>
</g>
<!-- Node1&#45;&gt;Node13 -->
<g id="edge14" class="edge">
<title>Node1&#45;&gt;Node13</title>
<path fill="none" stroke="midnightblue" d="M626.16,-276.5C649.78,-266.38 682.43,-252.39 703.13,-243.52"/>
<polygon fill="midnightblue" stroke="midnightblue" points="624.78,-273.29 616.97,-280.44 627.54,-279.72 624.78,-273.29"/>
</g>
<!-- Node14 -->
<g id="node14" class="node">
<title>Node14</title>
<g id="a_node14"><a xlink:href="_tower_archer_8h.html" target="_top" xlink:title="Définition des donées membres et des fonctions membres de la classe TowerArcher.">
<polygon fill="none" stroke="black" points="310,-224.5 310,-243.5 436,-243.5 436,-224.5 310,-224.5"/>
<text text-anchor="middle" x="373" y="-231.5" font-family="Helvetica,sans-Serif" font-size="10.00">src/core/TowerArcher.h</text>
</a>
</g>
</g>
<!-- Node1&#45;&gt;Node14 -->
<g id="edge15" class="edge">
<title>Node1&#45;&gt;Node14</title>
<path fill="none" stroke="midnightblue" d="M551.74,-278.09C509.42,-267.89 447.09,-252.86 408.33,-243.52"/>
<polygon fill="midnightblue" stroke="midnightblue" points="550.96,-281.5 561.51,-280.44 552.61,-274.7 550.96,-281.5"/>
</g>
<!-- Node15 -->
<g id="node15" class="node">
<title>Node15</title>
<g id="a_node15"><a xlink:href="_ressources_8h.html" target="_top" xlink:title=" ">
<polygon fill="none" stroke="black" points="492,-224.5 492,-243.5 614,-243.5 614,-224.5 492,-224.5"/>
<text text-anchor="middle" x="553" y="-231.5" font-family="Helvetica,sans-Serif" font-size="10.00">src/core/Ressources.h</text>
</a>
</g>
</g>
<!-- Node1&#45;&gt;Node15 -->
<g id="edge21" class="edge">
<title>Node1&#45;&gt;Node15</title>
<path fill="none" stroke="midnightblue" d="M583.27,-272.14C575.6,-262.74 566.37,-251.4 560.13,-243.75"/>
<polygon fill="midnightblue" stroke="midnightblue" points="580.7,-274.54 589.73,-280.08 586.13,-270.12 580.7,-274.54"/>
</g>
<!-- Node16 -->
<g id="node16" class="node">
<title>Node16</title>
<g id="a_node16"><a xlink:href="_ressources_8cpp.html" target="_top" xlink:title=" ">
<polygon fill="none" stroke="black" points="612,-168.5 612,-187.5 746,-187.5 746,-168.5 612,-168.5"/>
<text text-anchor="middle" x="679" y="-175.5" font-family="Helvetica,sans-Serif" font-size="10.00">src/core/Ressources.cpp</text>
</a>
</g>
</g>
<!-- Node1&#45;&gt;Node16 -->
<g id="edge24" class="edge">
<title>Node1&#45;&gt;Node16</title>
<path fill="none" stroke="midnightblue" d="M609.47,-272.27C627.2,-248.49 659.03,-205.79 672.6,-187.59"/>
<polygon fill="midnightblue" stroke="midnightblue" points="606.6,-270.26 603.43,-280.37 612.22,-274.44 606.6,-270.26"/>
</g>
<!-- Node17 -->
<g id="node17" class="node">
<title>Node17</title>
<g id="a_node17"><a xlink:href="_tower_8h.html" target="_top" xlink:title=" ">
<polygon fill="none" stroke="black" points="793.5,-224.5 793.5,-243.5 888.5,-243.5 888.5,-224.5 793.5,-224.5"/>
<text text-anchor="middle" x="841" y="-231.5" font-family="Helvetica,sans-Serif" font-size="10.00">src/core/Tower.h</text>
</a>
</g>
</g>
<!-- Node1&#45;&gt;Node17 -->
<g id="edge25" class="edge">
<title>Node1&#45;&gt;Node17</title>
<path fill="none" stroke="midnightblue" d="M645.43,-278.28C691.54,-268.08 760.03,-252.92 802.52,-243.52"/>
<polygon fill="midnightblue" stroke="midnightblue" points="644.67,-274.87 635.66,-280.44 646.18,-281.7 644.67,-274.87"/>
</g>
<!-- Node18 -->
<g id="node18" class="node">
<title>Node18</title>
<g id="a_node18"><a xlink:href="_tower_bomb_8h.html" target="_top" xlink:title=" ">
<polygon fill="none" stroke="black" points="945,-224.5 945,-243.5 1069,-243.5 1069,-224.5 945,-224.5"/>
<text text-anchor="middle" x="1007" y="-231.5" font-family="Helvetica,sans-Serif" font-size="10.00">src/core/TowerBomb.h</text>
</a>
</g>
</g>
<!-- Node1&#45;&gt;Node18 -->
<g id="edge27" class="edge">
<title>Node1&#45;&gt;Node18</title>
<path fill="none" stroke="midnightblue" d="M653.97,-281.5C730.45,-271.42 865.82,-253.59 944.86,-243.18"/>
<polygon fill="midnightblue" stroke="midnightblue" points="653.49,-278.03 644.03,-282.81 654.4,-284.97 653.49,-278.03"/>
</g>
<!-- Node19 -->
<g id="node19" class="node">
<title>Node19</title>
<g id="a_node19"><a xlink:href="_tower_bomb_8cpp.html" target="_top" xlink:title=" ">
<polygon fill="none" stroke="black" points="884.5,-168.5 884.5,-187.5 1019.5,-187.5 1019.5,-168.5 884.5,-168.5"/>
<text text-anchor="middle" x="952" y="-175.5" font-family="Helvetica,sans-Serif" font-size="10.00">src/core/TowerBomb.cpp</text>
</a>
</g>
</g>
<!-- Node1&#45;&gt;Node19 -->
<g id="edge29" class="edge">
<title>Node1&#45;&gt;Node19</title>
<path fill="none" stroke="midnightblue" d="M654.45,-285.2C729.6,-279.41 856.47,-266.6 897,-244 921.01,-230.61 939.17,-202.36 947.3,-187.92"/>
<polygon fill="midnightblue" stroke="midnightblue" points="653.91,-281.73 644.2,-285.97 654.44,-288.71 653.91,-281.73"/>
</g>
<!-- Node20 -->
<g id="node20" class="node">
<title>Node20</title>
<g id="a_node20"><a xlink:href="_tower_magic_8h.html" target="_top" xlink:title=" ">
<polygon fill="none" stroke="black" points="1125.5,-224.5 1125.5,-243.5 1250.5,-243.5 1250.5,-224.5 1125.5,-224.5"/>
<text text-anchor="middle" x="1188" y="-231.5" font-family="Helvetica,sans-Serif" font-size="10.00">src/core/TowerMagic.h</text>
</a>
</g>
</g>
<!-- Node1&#45;&gt;Node20 -->
<g id="edge30" class="edge">
<title>Node1&#45;&gt;Node20</title>
<path fill="none" stroke="midnightblue" d="M654.43,-284.52C749.47,-276.98 945.44,-260.92 1111,-244 1115.69,-243.52 1120.53,-243 1125.4,-242.47"/>
<polygon fill="midnightblue" stroke="midnightblue" points="653.86,-281.05 644.17,-285.33 654.41,-288.03 653.86,-281.05"/>
</g>
<!-- Node21 -->
<g id="node21" class="node">
<title>Node21</title>
<g id="a_node21"><a xlink:href="_tower_magic_8cpp.html" target="_top" xlink:title=" ">
<polygon fill="none" stroke="black" points="1074,-168.5 1074,-187.5 1210,-187.5 1210,-168.5 1074,-168.5"/>
<text text-anchor="middle" x="1142" y="-175.5" font-family="Helvetica,sans-Serif" font-size="10.00">src/core/TowerMagic.cpp</text>
</a>
</g>
</g>
<!-- Node1&#45;&gt;Node21 -->
<g id="edge32" class="edge">
<title>Node1&#45;&gt;Node21</title>
<path fill="none" stroke="midnightblue" d="M654.64,-288.51C765.6,-286.76 1004.42,-278.93 1078,-244 1104.9,-231.23 1126.8,-202.16 1136.55,-187.62"/>
<polygon fill="midnightblue" stroke="midnightblue" points="654.26,-285.01 644.31,-288.66 654.36,-292.01 654.26,-285.01"/>
</g>
<!-- Node3&#45;&gt;Node4 -->
<g id="edge3" class="edge">
<title>Node3&#45;&gt;Node4</title>
<path fill="none" stroke="midnightblue" d="M178.19,-219.73C158.75,-209.73 132.65,-196.31 115.83,-187.65"/>
<polygon fill="midnightblue" stroke="midnightblue" points="176.64,-222.86 187.13,-224.32 179.84,-216.64 176.64,-222.86"/>
</g>
<!-- Node5 -->
<g id="node5" class="node">
<title>Node5</title>
<g id="a_node5"><a xlink:href="_game_8h.html" target="_top" xlink:title="Définition des donées membres et des fonctions membres de la classe Game.">
<polygon fill="none" stroke="black" points="368,-112.5 368,-131.5 464,-131.5 464,-112.5 368,-112.5"/>
<text text-anchor="middle" x="416" y="-119.5" font-family="Helvetica,sans-Serif" font-size="10.00">src/core/Game.h</text>
</a>
</g>
</g>
<!-- Node3&#45;&gt;Node5 -->
<g id="edge4" class="edge">
<title>Node3&#45;&gt;Node5</title>
<path fill="none" stroke="midnightblue" d="M197.11,-214.58C193.06,-200.31 190.56,-180.86 201,-168 221.62,-142.62 311.1,-131.05 367.93,-126.18"/>
<polygon fill="midnightblue" stroke="midnightblue" points="193.85,-215.9 200.31,-224.3 200.5,-213.7 193.85,-215.9"/>
</g>
<!-- Node3&#45;&gt;Node10 -->
<g id="edge9" class="edge">
<title>Node3&#45;&gt;Node10</title>
<path fill="none" stroke="midnightblue" d="M254.71,-222.35C303.28,-212.14 375.62,-196.94 420.47,-187.52"/>
<polygon fill="midnightblue" stroke="midnightblue" points="253.79,-218.96 244.72,-224.44 255.23,-225.81 253.79,-218.96"/>
</g>
<!-- Node3&#45;&gt;Node12 -->
<g id="edge12" class="edge">
<title>Node3&#45;&gt;Node12</title>
<path fill="none" stroke="midnightblue" d="M224.31,-218.38C237.86,-208.62 255.24,-196.11 266.73,-187.83"/>
<polygon fill="midnightblue" stroke="midnightblue" points="222.12,-215.64 216.05,-224.32 226.21,-221.32 222.12,-215.64"/>
</g>
<!-- Node6 -->
<g id="node6" class="node">
<title>Node6</title>
<g id="a_node6"><a xlink:href="_game_8cpp.html" target="_top" xlink:title=" ">
<polygon fill="none" stroke="black" points="300.5,-56.5 300.5,-75.5 407.5,-75.5 407.5,-56.5 300.5,-56.5"/>
<text text-anchor="middle" x="354" y="-63.5" font-family="Helvetica,sans-Serif" font-size="10.00">src/core/Game.cpp</text>
</a>
</g>
</g>
<!-- Node5&#45;&gt;Node6 -->
<g id="edge5" class="edge">
<title>Node5&#45;&gt;Node6</title>
<path fill="none" stroke="midnightblue" d="M398.25,-105.54C387.19,-95.91 373.37,-83.87 364.14,-75.83"/>
<polygon fill="midnightblue" stroke="midnightblue" points="396.2,-108.4 406.04,-112.32 400.8,-103.12 396.2,-108.4"/>
</g>
<!-- Node7 -->
<g id="node7" class="node">
<title>Node7</title>
<g id="a_node7"><a xlink:href="_game_t_x_t_8h.html" target="_top" xlink:title="Fichier s&#39;occupant de l&#39;affichage du jeu en mode texte.">
<polygon fill="none" stroke="black" points="425.5,-56.5 425.5,-75.5 532.5,-75.5 532.5,-56.5 425.5,-56.5"/>
<text text-anchor="middle" x="479" y="-63.5" font-family="Helvetica,sans-Serif" font-size="10.00">src/txt/GameTXT.h</text>
</a>
</g>
</g>
<!-- Node5&#45;&gt;Node7 -->
<g id="edge6" class="edge">
<title>Node5&#45;&gt;Node7</title>
<path fill="none" stroke="midnightblue" d="M434.04,-105.54C445.27,-95.91 459.32,-83.87 468.69,-75.83"/>
<polygon fill="midnightblue" stroke="midnightblue" points="431.44,-103.16 426.12,-112.32 435.99,-108.47 431.44,-103.16"/>
</g>
<!-- Node8 -->
<g id="node8" class="node">
<title>Node8</title>
<g id="a_node8"><a xlink:href="_game_t_x_t_8cpp.html" target="_top" xlink:title=" ">
<polygon fill="none" stroke="black" points="353,-0.5 353,-19.5 471,-19.5 471,-0.5 353,-0.5"/>
<text text-anchor="middle" x="412" y="-7.5" font-family="Helvetica,sans-Serif" font-size="10.00">src/txt/GameTXT.cpp</text>
</a>
</g>
</g>
<!-- Node7&#45;&gt;Node8 -->
<g id="edge7" class="edge">
<title>Node7&#45;&gt;Node8</title>
<path fill="none" stroke="midnightblue" d="M460.17,-49.82C448.16,-40.15 433.03,-27.95 422.96,-19.83"/>
<polygon fill="midnightblue" stroke="midnightblue" points="458.25,-52.77 468.24,-56.32 462.65,-47.32 458.25,-52.77"/>
</g>
<!-- Node9 -->
<g id="node9" class="node">
<title>Node9</title>
<g id="a_node9"><a xlink:href="main_t_x_t_8cpp.html" target="_top" xlink:title=" ">
<polygon fill="none" stroke="black" points="489.5,-0.5 489.5,-19.5 602.5,-19.5 602.5,-0.5 489.5,-0.5"/>
<text text-anchor="middle" x="546" y="-7.5" font-family="Helvetica,sans-Serif" font-size="10.00">src/txt/mainTXT.cpp</text>
</a>
</g>
</g>
<!-- Node7&#45;&gt;Node9 -->
<g id="edge8" class="edge">
<title>Node7&#45;&gt;Node9</title>
<path fill="none" stroke="midnightblue" d="M497.83,-49.82C509.84,-40.15 524.97,-27.95 535.04,-19.83"/>
<polygon fill="midnightblue" stroke="midnightblue" points="495.35,-47.32 489.76,-56.32 499.75,-52.77 495.35,-47.32"/>
</g>
<!-- Node10&#45;&gt;Node5 -->
<g id="edge10" class="edge">
<title>Node10&#45;&gt;Node5</title>
<path fill="none" stroke="midnightblue" d="M446.95,-160.14C439.11,-150.74 429.67,-139.4 423.29,-131.75"/>
<polygon fill="midnightblue" stroke="midnightblue" points="444.48,-162.64 453.57,-168.08 449.86,-158.16 444.48,-162.64"/>
</g>
<!-- Node11 -->
<g id="node11" class="node">
<title>Node11</title>
<g id="a_node11"><a xlink:href="_projectile_8cpp.html" target="_top" xlink:title=" ">
<polygon fill="none" stroke="black" points="502,-112.5 502,-131.5 626,-131.5 626,-112.5 502,-112.5"/>
<text text-anchor="middle" x="564" y="-119.5" font-family="Helvetica,sans-Serif" font-size="10.00">src/core/Projectile.cpp</text>
</a>
</g>
</g>
<!-- Node10&#45;&gt;Node11 -->
<g id="edge11" class="edge">
<title>Node10&#45;&gt;Node11</title>
<path fill="none" stroke="midnightblue" d="M486.58,-163.59C505.62,-153.61 531.06,-140.27 547.49,-131.65"/>
<polygon fill="midnightblue" stroke="midnightblue" points="484.78,-160.58 477.55,-168.32 488.03,-166.78 484.78,-160.58"/>
</g>
<!-- Node14&#45;&gt;Node5 -->
<g id="edge16" class="edge">
<title>Node14&#45;&gt;Node5</title>
<path fill="none" stroke="midnightblue" d="M378.58,-214.77C382.74,-201.63 388.76,-183.55 395,-168 400.2,-155.04 407.23,-140.46 411.69,-131.5"/>
<polygon fill="midnightblue" stroke="midnightblue" points="375.18,-213.89 375.55,-224.48 381.87,-215.97 375.18,-213.89"/>
</g>
<!-- Node14&#45;&gt;Node10 -->
<g id="edge17" class="edge">
<title>Node14&#45;&gt;Node10</title>
<path fill="none" stroke="midnightblue" d="M395.98,-218.9C412.11,-209 433.18,-196.07 446.9,-187.65"/>
<polygon fill="midnightblue" stroke="midnightblue" points="393.83,-216.11 387.14,-224.32 397.49,-222.08 393.83,-216.11"/>
</g>
<!-- Node14&#45;&gt;Node11 -->
<g id="edge18" class="edge">
<title>Node14&#45;&gt;Node11</title>
<path fill="none" stroke="midnightblue" d="M445.93,-223.22C473.2,-216.72 503.08,-205.93 526,-188 545.15,-173.02 556.53,-145.49 561.33,-131.56"/>
<polygon fill="midnightblue" stroke="midnightblue" points="445.02,-219.83 436.01,-225.42 446.54,-226.67 445.02,-219.83"/>
</g>
<!-- Node14&#45;&gt;Node12 -->
<g id="edge19" class="edge">
<title>Node14&#45;&gt;Node12</title>
<path fill="none" stroke="midnightblue" d="M348.94,-219.18C331.64,-209.24 308.85,-196.15 294.07,-187.65"/>
<polygon fill="midnightblue" stroke="midnightblue" points="347.48,-222.38 357.9,-224.32 350.97,-216.31 347.48,-222.38"/>
</g>
<!-- Node15&#45;&gt;Node5 -->
<g id="edge22" class="edge">
<title>Node15&#45;&gt;Node5</title>
<path fill="none" stroke="midnightblue" d="M549.38,-214.46C545.71,-200.12 538.7,-180.64 526,-168 507.27,-149.38 479.77,-138.13 456.96,-131.53"/>
<polygon fill="midnightblue" stroke="midnightblue" points="545.97,-215.24 551.58,-224.23 552.8,-213.71 545.97,-215.24"/>
</g>
<!-- Node15&#45;&gt;Node16 -->
<g id="edge23" class="edge">
<title>Node15&#45;&gt;Node16</title>
<path fill="none" stroke="midnightblue" d="M582.16,-220.5C605.78,-210.38 638.43,-196.39 659.13,-187.52"/>
<polygon fill="midnightblue" stroke="midnightblue" points="580.78,-217.29 572.97,-224.44 583.54,-223.72 580.78,-217.29"/>
</g>
<!-- Node18&#45;&gt;Node19 -->
<g id="edge28" class="edge">
<title>Node18&#45;&gt;Node19</title>
<path fill="none" stroke="midnightblue" d="M990.71,-217C980.96,-207.43 968.95,-195.64 960.91,-187.75"/>
<polygon fill="midnightblue" stroke="midnightblue" points="988.33,-219.57 997.92,-224.08 993.23,-214.58 988.33,-219.57"/>
</g>
<!-- Node20&#45;&gt;Node21 -->
<g id="edge31" class="edge">
<title>Node20&#45;&gt;Node21</title>
<path fill="none" stroke="midnightblue" d="M1173.89,-216.43C1165.82,-206.97 1156.04,-195.48 1149.45,-187.75"/>
<polygon fill="midnightblue" stroke="midnightblue" points="1171.25,-218.74 1180.4,-224.08 1176.58,-214.2 1171.25,-218.74"/>
</g>
</g>
</svg>
