<?xml version="1.0" encoding="UTF-8" standalone="no"?>
<!DOCTYPE svg PUBLIC "-//W3C//DTD SVG 1.1//EN"
 "http://www.w3.org/Graphics/SVG/1.1/DTD/svg11.dtd">
<!-- Generated by graphviz version 2.43.0 (0)
 -->
<!-- Title: /home/allan/Licence2_Informatique/ProjetLIFAP4/src/core/Entity.cpp Pages: 1 -->
<svg width="156pt" height="218pt"
 viewBox="0.00 0.00 156.00 218.00" xmlns="http://www.w3.org/2000/svg" xmlns:xlink="http://www.w3.org/1999/xlink">
<g id="graph0" class="graph" transform="scale(1 1) rotate(0) translate(4 214)">
<title>/home/allan/Licence2_Informatique/ProjetLIFAP4/src/core/Entity.cpp</title>
<!-- Node1 -->
<g id="node1" class="node">
<title>Node1</title>
<g id="a_node1"><a xlink:title=" ">
<polygon fill="#bfbfbf" stroke="black" points="0,-168.5 0,-209.5 148,-209.5 148,-168.5 0,-168.5"/>
<text text-anchor="start" x="8" y="-197.5" font-family="Helvetica,sans-Serif" font-size="10.00">/home/allan/Licence2</text>
<text text-anchor="start" x="8" y="-186.5" font-family="Helvetica,sans-Serif" font-size="10.00">_Informatique/ProjetLIFAP4</text>
<text text-anchor="middle" x="74" y="-175.5" font-family="Helvetica,sans-Serif" font-size="10.00">/src/core/Entity.cpp</text>
</a>
</g>
</g>
<!-- Node2 -->
<g id="node2" class="node">
<title>Node2</title>
<g id="a_node2"><a xlink:href="_entity_8h.html" target="_top" xlink:title=" ">
<polygon fill="none" stroke="black" points="13.5,-112.5 13.5,-131.5 66.5,-131.5 66.5,-112.5 13.5,-112.5"/>
<text text-anchor="middle" x="40" y="-119.5" font-family="Helvetica,sans-Serif" font-size="10.00">Entity.h</text>
</a>
</g>
</g>
<!-- Node1&#45;&gt;Node2 -->
<g id="edge1" class="edge">
<title>Node1&#45;&gt;Node2</title>
<path fill="none" stroke="midnightblue" d="M63.8,-168.5C59.19,-159.68 53.78,-149.34 49.28,-140.74"/>
<polygon fill="midnightblue" stroke="midnightblue" points="52.26,-138.89 44.53,-131.65 46.06,-142.14 52.26,-138.89"/>
</g>
<!-- Node5 -->
<g id="node5" class="node">
<title>Node5</title>
<g id="a_node5"><a xlink:title=" ">
<polygon fill="none" stroke="#bfbfbf" points="84.5,-112.5 84.5,-131.5 131.5,-131.5 131.5,-112.5 84.5,-112.5"/>
<text text-anchor="middle" x="108" y="-119.5" font-family="Helvetica,sans-Serif" font-size="10.00">vector</text>
</a>
</g>
</g>
<!-- Node1&#45;&gt;Node5 -->
<g id="edge4" class="edge">
<title>Node1&#45;&gt;Node5</title>
<path fill="none" stroke="midnightblue" d="M84.2,-168.5C88.81,-159.68 94.22,-149.34 98.72,-140.74"/>
<polygon fill="midnightblue" stroke="midnightblue" points="101.94,-142.14 103.47,-131.65 95.74,-138.89 101.94,-142.14"/>
</g>
<!-- Node3 -->
<g id="node3" class="node">
<title>Node3</title>
<g id="a_node3"><a xlink:href="_vec2_8h.html" target="_top" xlink:title=" ">
<polygon fill="none" stroke="black" points="15.5,-56.5 15.5,-75.5 64.5,-75.5 64.5,-56.5 15.5,-56.5"/>
<text text-anchor="middle" x="40" y="-63.5" font-family="Helvetica,sans-Serif" font-size="10.00">Vec2.h</text>
</a>
</g>
</g>
<!-- Node2&#45;&gt;Node3 -->
<g id="edge2" class="edge">
<title>Node2&#45;&gt;Node3</title>
<path fill="none" stroke="midnightblue" d="M40,-112.08C40,-105.01 40,-94.86 40,-85.99"/>
<polygon fill="midnightblue" stroke="midnightblue" points="43.5,-85.75 40,-75.75 36.5,-85.75 43.5,-85.75"/>
</g>
<!-- Node4 -->
<g id="node4" class="node">
<title>Node4</title>
<g id="a_node4"><a xlink:title=" ">
<polygon fill="none" stroke="#bfbfbf" points="10,-0.5 10,-19.5 70,-19.5 70,-0.5 10,-0.5"/>
<text text-anchor="middle" x="40" y="-7.5" font-family="Helvetica,sans-Serif" font-size="10.00">iostream</text>
</a>
</g>
</g>
<!-- Node3&#45;&gt;Node4 -->
<g id="edge3" class="edge">
<title>Node3&#45;&gt;Node4</title>
<path fill="none" stroke="midnightblue" d="M40,-56.08C40,-49.01 40,-38.86 40,-29.99"/>
<polygon fill="midnightblue" stroke="midnightblue" points="43.5,-29.75 40,-19.75 36.5,-29.75 43.5,-29.75"/>
</g>
</g>
</svg>
