<?xml version="1.0" encoding="UTF-8" standalone="no"?>
<!DOCTYPE svg PUBLIC "-//W3C//DTD SVG 1.1//EN"
 "http://www.w3.org/Graphics/SVG/1.1/DTD/svg11.dtd">
<!-- Generated by graphviz version 2.43.0 (0)
 -->
<!-- Title: src/core/Entity.h Pages: 1 -->
<svg width="918pt" height="196pt"
 viewBox="0.00 0.00 918.00 196.00" xmlns="http://www.w3.org/2000/svg" xmlns:xlink="http://www.w3.org/1999/xlink">
<g id="graph0" class="graph" transform="scale(1 1) rotate(0) translate(4 192)">
<title>src/core/Entity.h</title>
<!-- Node1 -->
<g id="node1" class="node">
<title>Node1</title>
<g id="a_node1"><a xlink:title="Définition des donées membres et des fonctions membres de la classe Entity.">
<polygon fill="#bfbfbf" stroke="black" points="260,-168.5 260,-187.5 354,-187.5 354,-168.5 260,-168.5"/>
<text text-anchor="middle" x="307" y="-175.5" font-family="Helvetica,sans-Serif" font-size="10.00">src/core/Entity.h</text>
</a>
</g>
</g>
<!-- Node2 -->
<g id="node2" class="node">
<title>Node2</title>
<g id="a_node2"><a xlink:href="_enemy_8h.html" target="_top" xlink:title="Définition des donées membres et des fonctions membres de la classe Enemy.">
<polygon fill="none" stroke="black" points="115.5,-112.5 115.5,-131.5 214.5,-131.5 214.5,-112.5 115.5,-112.5"/>
<text text-anchor="middle" x="165" y="-119.5" font-family="Helvetica,sans-Serif" font-size="10.00">src/core/Enemy.h</text>
</a>
</g>
</g>
<!-- Node1&#45;&gt;Node2 -->
<g id="edge1" class="edge">
<title>Node1&#45;&gt;Node2</title>
<path fill="none" stroke="midnightblue" d="M274.84,-164.77C248.17,-154.63 210.93,-140.47 187.4,-131.52"/>
<polygon fill="midnightblue" stroke="midnightblue" points="273.91,-168.16 284.5,-168.44 276.4,-161.62 273.91,-168.16"/>
</g>
<!-- Node5 -->
<g id="node5" class="node">
<title>Node5</title>
<g id="a_node5"><a xlink:href="_projectile_8h.html" target="_top" xlink:title="Définition des donées membres et des fonctions membres de la classe Projectile.">
<polygon fill="none" stroke="black" points="166.5,-56.5 166.5,-75.5 279.5,-75.5 279.5,-56.5 166.5,-56.5"/>
<text text-anchor="middle" x="223" y="-63.5" font-family="Helvetica,sans-Serif" font-size="10.00">src/core/Projectile.h</text>
</a>
</g>
</g>
<!-- Node1&#45;&gt;Node5 -->
<g id="edge8" class="edge">
<title>Node1&#45;&gt;Node5</title>
<path fill="none" stroke="midnightblue" d="M294.23,-160.27C276.07,-136.49 243.46,-93.79 229.56,-75.59"/>
<polygon fill="midnightblue" stroke="midnightblue" points="291.56,-162.54 300.41,-168.37 297.12,-158.3 291.56,-162.54"/>
</g>
<!-- Node7 -->
<g id="node7" class="node">
<title>Node7</title>
<g id="a_node7"><a xlink:href="_entity_8cpp.html" target="_top" xlink:title=" ">
<polygon fill="none" stroke="black" points="411.5,-112.5 411.5,-131.5 516.5,-131.5 516.5,-112.5 411.5,-112.5"/>
<text text-anchor="middle" x="464" y="-119.5" font-family="Helvetica,sans-Serif" font-size="10.00">src/core/Entity.cpp</text>
</a>
</g>
</g>
<!-- Node1&#45;&gt;Node7 -->
<g id="edge7" class="edge">
<title>Node1&#45;&gt;Node7</title>
<path fill="none" stroke="midnightblue" d="M341.39,-165.17C370.95,-155 412.87,-140.59 439.24,-131.52"/>
<polygon fill="midnightblue" stroke="midnightblue" points="340.2,-161.88 331.88,-168.44 342.47,-168.5 340.2,-161.88"/>
</g>
<!-- Node8 -->
<g id="node8" class="node">
<title>Node8</title>
<g id="a_node8"><a xlink:href="_tower_8h.html" target="_top" xlink:title=" ">
<polygon fill="none" stroke="black" points="298.5,-112.5 298.5,-131.5 393.5,-131.5 393.5,-112.5 298.5,-112.5"/>
<text text-anchor="middle" x="346" y="-119.5" font-family="Helvetica,sans-Serif" font-size="10.00">src/core/Tower.h</text>
</a>
</g>
</g>
<!-- Node1&#45;&gt;Node8 -->
<g id="edge9" class="edge">
<title>Node1&#45;&gt;Node8</title>
<path fill="none" stroke="midnightblue" d="M319.38,-159.86C326.14,-150.5 334.21,-139.33 339.68,-131.75"/>
<polygon fill="midnightblue" stroke="midnightblue" points="316.46,-157.93 313.44,-168.08 322.13,-162.03 316.46,-157.93"/>
</g>
<!-- Node3 -->
<g id="node3" class="node">
<title>Node3</title>
<g id="a_node3"><a xlink:href="_enemy_8cpp.html" target="_top" xlink:title=" ">
<polygon fill="none" stroke="black" points="0,-56.5 0,-75.5 110,-75.5 110,-56.5 0,-56.5"/>
<text text-anchor="middle" x="55" y="-63.5" font-family="Helvetica,sans-Serif" font-size="10.00">src/core/Enemy.cpp</text>
</a>
</g>
</g>
<!-- Node2&#45;&gt;Node3 -->
<g id="edge2" class="edge">
<title>Node2&#45;&gt;Node3</title>
<path fill="none" stroke="midnightblue" d="M138.24,-107.86C117.84,-97.85 90.33,-84.35 72.63,-75.65"/>
<polygon fill="midnightblue" stroke="midnightblue" points="136.81,-111.06 147.33,-112.32 139.89,-104.78 136.81,-111.06"/>
</g>
<!-- Node4 -->
<g id="node4" class="node">
<title>Node4</title>
<g id="a_node4"><a xlink:href="_game_8cpp.html" target="_top" xlink:title=" ">
<polygon fill="none" stroke="black" points="292.5,-0.5 292.5,-19.5 399.5,-19.5 399.5,-0.5 292.5,-0.5"/>
<text text-anchor="middle" x="346" y="-7.5" font-family="Helvetica,sans-Serif" font-size="10.00">src/core/Game.cpp</text>
</a>
</g>
</g>
<!-- Node2&#45;&gt;Node4 -->
<g id="edge3" class="edge">
<title>Node2&#45;&gt;Node4</title>
<path fill="none" stroke="midnightblue" d="M156.37,-103.12C150.88,-88.88 146.57,-69.21 157,-56 165.73,-44.95 243.5,-29.17 296.52,-19.53"/>
<polygon fill="midnightblue" stroke="midnightblue" points="153.19,-104.59 160.38,-112.36 159.61,-101.8 153.19,-104.59"/>
</g>
<!-- Node2&#45;&gt;Node5 -->
<g id="edge4" class="edge">
<title>Node2&#45;&gt;Node5</title>
<path fill="none" stroke="midnightblue" d="M181.91,-105.25C192.2,-95.67 204.97,-83.79 213.51,-75.83"/>
<polygon fill="midnightblue" stroke="midnightblue" points="179.25,-102.95 174.32,-112.32 184.02,-108.07 179.25,-102.95"/>
</g>
<!-- Node5&#45;&gt;Node4 -->
<g id="edge5" class="edge">
<title>Node5&#45;&gt;Node4</title>
<path fill="none" stroke="midnightblue" d="M251.77,-52.37C274.81,-42.26 306.48,-28.35 326.6,-19.52"/>
<polygon fill="midnightblue" stroke="midnightblue" points="250.24,-49.22 242.49,-56.44 253.05,-55.63 250.24,-49.22"/>
</g>
<!-- Node6 -->
<g id="node6" class="node">
<title>Node6</title>
<g id="a_node6"><a xlink:href="_projectile_8cpp.html" target="_top" xlink:title=" ">
<polygon fill="none" stroke="black" points="150,-0.5 150,-19.5 274,-19.5 274,-0.5 150,-0.5"/>
<text text-anchor="middle" x="212" y="-7.5" font-family="Helvetica,sans-Serif" font-size="10.00">src/core/Projectile.cpp</text>
</a>
</g>
</g>
<!-- Node5&#45;&gt;Node6 -->
<g id="edge6" class="edge">
<title>Node5&#45;&gt;Node6</title>
<path fill="none" stroke="midnightblue" d="M219.15,-46.1C217.32,-37.14 215.23,-26.86 213.78,-19.75"/>
<polygon fill="midnightblue" stroke="midnightblue" points="215.76,-46.98 221.18,-56.08 222.62,-45.59 215.76,-46.98"/>
</g>
<!-- Node8&#45;&gt;Node4 -->
<g id="edge10" class="edge">
<title>Node8&#45;&gt;Node4</title>
<path fill="none" stroke="midnightblue" d="M346,-102.35C346,-78.25 346,-37.31 346,-19.59"/>
<polygon fill="midnightblue" stroke="midnightblue" points="342.5,-102.37 346,-112.37 349.5,-102.37 342.5,-102.37"/>
</g>
<!-- Node8&#45;&gt;Node5 -->
<g id="edge12" class="edge">
<title>Node8&#45;&gt;Node5</title>
<path fill="none" stroke="midnightblue" d="M317.23,-108.37C294.19,-98.26 262.52,-84.35 242.4,-75.52"/>
<polygon fill="midnightblue" stroke="midnightblue" points="315.95,-111.63 326.51,-112.44 318.76,-105.22 315.95,-111.63"/>
</g>
<!-- Node8&#45;&gt;Node6 -->
<g id="edge11" class="edge">
<title>Node8&#45;&gt;Node6</title>
<path fill="none" stroke="midnightblue" d="M333.26,-104.01C322.26,-90.07 305.44,-70.35 288,-56 269.76,-41 245.97,-27.76 229.9,-19.59"/>
<polygon fill="midnightblue" stroke="midnightblue" points="330.71,-106.45 339.59,-112.23 336.26,-102.17 330.71,-106.45"/>
</g>
<!-- Node9 -->
<g id="node9" class="node">
<title>Node9</title>
<g id="a_node9"><a xlink:href="_tower_8cpp.html" target="_top" xlink:title=" ">
<polygon fill="none" stroke="black" points="804,-56.5 804,-75.5 910,-75.5 910,-56.5 804,-56.5"/>
<text text-anchor="middle" x="857" y="-63.5" font-family="Helvetica,sans-Serif" font-size="10.00">src/core/Tower.cpp</text>
</a>
</g>
</g>
<!-- Node8&#45;&gt;Node9 -->
<g id="edge13" class="edge">
<title>Node8&#45;&gt;Node9</title>
<path fill="none" stroke="midnightblue" d="M403.64,-111.87C577.73,-90.3 624.05,-96.22 795,-76 797.92,-75.65 800.91,-75.28 803.92,-74.89"/>
<polygon fill="midnightblue" stroke="midnightblue" points="403.12,-108.41 393.63,-113.12 403.98,-115.35 403.12,-108.41"/>
</g>
<!-- Node10 -->
<g id="node10" class="node">
<title>Node10</title>
<g id="a_node10"><a xlink:href="_tower_archer_8h.html" target="_top" xlink:title="Définition des donées membres et des fonctions membres de la classe TowerArcher.">
<polygon fill="none" stroke="black" points="660,-56.5 660,-75.5 786,-75.5 786,-56.5 660,-56.5"/>
<text text-anchor="middle" x="723" y="-63.5" font-family="Helvetica,sans-Serif" font-size="10.00">src/core/TowerArcher.h</text>
</a>
</g>
</g>
<!-- Node8&#45;&gt;Node10 -->
<g id="edge14" class="edge">
<title>Node8&#45;&gt;Node10</title>
<path fill="none" stroke="midnightblue" d="M403.7,-111.77C498.5,-97.57 597.35,-83.94 659.91,-75.46"/>
<polygon fill="midnightblue" stroke="midnightblue" points="403.02,-108.33 393.65,-113.28 404.06,-115.25 403.02,-108.33"/>
</g>
<!-- Node12 -->
<g id="node12" class="node">
<title>Node12</title>
<g id="a_node12"><a xlink:href="_tower_bomb_8h.html" target="_top" xlink:title="Définition des donées membres et des fonctions membres de la class TowerBomb.">
<polygon fill="none" stroke="black" points="374,-56.5 374,-75.5 498,-75.5 498,-56.5 374,-56.5"/>
<text text-anchor="middle" x="436" y="-63.5" font-family="Helvetica,sans-Serif" font-size="10.00">src/core/TowerBomb.h</text>
</a>
</g>
</g>
<!-- Node8&#45;&gt;Node12 -->
<g id="edge17" class="edge">
<title>Node8&#45;&gt;Node12</title>
<path fill="none" stroke="midnightblue" d="M369.04,-107.18C385.6,-97.24 407.42,-84.15 421.58,-75.65"/>
<polygon fill="midnightblue" stroke="midnightblue" points="367.23,-104.18 360.46,-112.32 370.84,-110.18 367.23,-104.18"/>
</g>
<!-- Node14 -->
<g id="node14" class="node">
<title>Node14</title>
<g id="a_node14"><a xlink:href="_tower_magic_8h.html" target="_top" xlink:title="Définition des donées membres et des fonctions membres de la classe TowerMagic.">
<polygon fill="none" stroke="black" points="516.5,-56.5 516.5,-75.5 641.5,-75.5 641.5,-56.5 516.5,-56.5"/>
<text text-anchor="middle" x="579" y="-63.5" font-family="Helvetica,sans-Serif" font-size="10.00">src/core/TowerMagic.h</text>
</a>
</g>
</g>
<!-- Node8&#45;&gt;Node14 -->
<g id="edge20" class="edge">
<title>Node8&#45;&gt;Node14</title>
<path fill="none" stroke="midnightblue" d="M392.8,-110.15C436.83,-99.95 501.85,-84.88 542.25,-75.52"/>
<polygon fill="midnightblue" stroke="midnightblue" points="391.87,-106.78 382.92,-112.44 393.45,-113.6 391.87,-106.78"/>
</g>
<!-- Node10&#45;&gt;Node4 -->
<g id="edge15" class="edge">
<title>Node10&#45;&gt;Node4</title>
<path fill="none" stroke="midnightblue" d="M653.24,-55.08C589.4,-45.99 492.34,-32.15 408,-20 405.31,-19.61 402.55,-19.21 399.77,-18.81"/>
<polygon fill="midnightblue" stroke="midnightblue" points="652.8,-58.55 663.19,-56.5 653.79,-51.62 652.8,-58.55"/>
</g>
<!-- Node11 -->
<g id="node11" class="node">
<title>Node11</title>
<g id="a_node11"><a xlink:href="_tower_archer_8cpp.html" target="_top" xlink:title=" ">
<polygon fill="none" stroke="black" points="725.5,-0.5 725.5,-19.5 862.5,-19.5 862.5,-0.5 725.5,-0.5"/>
<text text-anchor="middle" x="794" y="-7.5" font-family="Helvetica,sans-Serif" font-size="10.00">src/core/TowerArcher.cpp</text>
</a>
</g>
</g>
<!-- Node10&#45;&gt;Node11 -->
<g id="edge16" class="edge">
<title>Node10&#45;&gt;Node11</title>
<path fill="none" stroke="midnightblue" d="M742.59,-50.1C755.37,-40.38 771.61,-28.03 782.39,-19.83"/>
<polygon fill="midnightblue" stroke="midnightblue" points="740.25,-47.48 734.41,-56.32 744.49,-53.06 740.25,-47.48"/>
</g>
<!-- Node12&#45;&gt;Node4 -->
<g id="edge18" class="edge">
<title>Node12&#45;&gt;Node4</title>
<path fill="none" stroke="midnightblue" d="M412.96,-51.18C396.4,-41.24 374.58,-28.15 360.42,-19.65"/>
<polygon fill="midnightblue" stroke="midnightblue" points="411.16,-54.18 421.54,-56.32 414.77,-48.18 411.16,-54.18"/>
</g>
<!-- Node13 -->
<g id="node13" class="node">
<title>Node13</title>
<g id="a_node13"><a xlink:href="_tower_bomb_8cpp.html" target="_top" xlink:title=" ">
<polygon fill="none" stroke="black" points="417.5,-0.5 417.5,-19.5 552.5,-19.5 552.5,-0.5 417.5,-0.5"/>
<text text-anchor="middle" x="485" y="-7.5" font-family="Helvetica,sans-Serif" font-size="10.00">src/core/TowerBomb.cpp</text>
</a>
</g>
</g>
<!-- Node12&#45;&gt;Node13 -->
<g id="edge19" class="edge">
<title>Node12&#45;&gt;Node13</title>
<path fill="none" stroke="midnightblue" d="M451.03,-48.43C459.62,-38.97 470.04,-27.48 477.06,-19.75"/>
<polygon fill="midnightblue" stroke="midnightblue" points="448.22,-46.33 444.09,-56.08 453.4,-51.03 448.22,-46.33"/>
</g>
<!-- Node14&#45;&gt;Node4 -->
<g id="edge21" class="edge">
<title>Node14&#45;&gt;Node4</title>
<path fill="none" stroke="midnightblue" d="M532.2,-54.15C488.17,-43.95 423.15,-28.88 382.75,-19.52"/>
<polygon fill="midnightblue" stroke="midnightblue" points="531.55,-57.6 542.08,-56.44 533.13,-50.78 531.55,-57.6"/>
</g>
<!-- Node15 -->
<g id="node15" class="node">
<title>Node15</title>
<g id="a_node15"><a xlink:href="_tower_magic_8cpp.html" target="_top" xlink:title=" ">
<polygon fill="none" stroke="black" points="571,-0.5 571,-19.5 707,-19.5 707,-0.5 571,-0.5"/>
<text text-anchor="middle" x="639" y="-7.5" font-family="Helvetica,sans-Serif" font-size="10.00">src/core/TowerMagic.cpp</text>
</a>
</g>
</g>
<!-- Node14&#45;&gt;Node15 -->
<g id="edge22" class="edge">
<title>Node14&#45;&gt;Node15</title>
<path fill="none" stroke="midnightblue" d="M596.18,-49.54C606.88,-39.91 620.26,-27.87 629.18,-19.83"/>
<polygon fill="midnightblue" stroke="midnightblue" points="593.73,-47.03 588.64,-56.32 598.41,-52.24 593.73,-47.03"/>
</g>
</g>
</svg>
