<?xml version="1.0" encoding="UTF-8" standalone="no"?>
<!DOCTYPE svg PUBLIC "-//W3C//DTD SVG 1.1//EN"
 "http://www.w3.org/Graphics/SVG/1.1/DTD/svg11.dtd">
<!-- Generated by graphviz version 2.43.0 (0)
 -->
<!-- Title: /home/allan/Licence2_Informatique/ProjetLIFAP4/src/core/Game.cpp Pages: 1 -->
<svg width="368pt" height="386pt"
 viewBox="0.00 0.00 367.50 386.00" xmlns="http://www.w3.org/2000/svg" xmlns:xlink="http://www.w3.org/1999/xlink">
<g id="graph0" class="graph" transform="scale(1 1) rotate(0) translate(4 382)">
<title>/home/allan/Licence2_Informatique/ProjetLIFAP4/src/core/Game.cpp</title>
<!-- Node1 -->
<g id="node1" class="node">
<title>Node1</title>
<g id="a_node1"><a xlink:title=" ">
<polygon fill="#bfbfbf" stroke="black" points="0,-336.5 0,-377.5 148,-377.5 148,-336.5 0,-336.5"/>
<text text-anchor="start" x="8" y="-365.5" font-family="Helvetica,sans-Serif" font-size="10.00">/home/allan/Licence2</text>
<text text-anchor="start" x="8" y="-354.5" font-family="Helvetica,sans-Serif" font-size="10.00">_Informatique/ProjetLIFAP4</text>
<text text-anchor="middle" x="74" y="-343.5" font-family="Helvetica,sans-Serif" font-size="10.00">/src/core/Game.cpp</text>
</a>
</g>
</g>
<!-- Node2 -->
<g id="node2" class="node">
<title>Node2</title>
<g id="a_node2"><a xlink:title=" ">
<polygon fill="none" stroke="#bfbfbf" points="94,-0.5 94,-19.5 154,-19.5 154,-0.5 94,-0.5"/>
<text text-anchor="middle" x="124" y="-7.5" font-family="Helvetica,sans-Serif" font-size="10.00">iostream</text>
</a>
</g>
</g>
<!-- Node1&#45;&gt;Node2 -->
<g id="edge1" class="edge">
<title>Node1&#45;&gt;Node2</title>
<path fill="none" stroke="midnightblue" d="M53.46,-336.24C32.49,-313.84 3,-275.19 3,-235 3,-235 3,-235 3,-121 3,-72.99 55.8,-40.41 91.64,-23.82"/>
<polygon fill="midnightblue" stroke="midnightblue" points="93.52,-26.82 101.24,-19.57 90.68,-20.42 93.52,-26.82"/>
</g>
<!-- Node3 -->
<g id="node3" class="node">
<title>Node3</title>
<g id="a_node3"><a xlink:href="_game_8h.html" target="_top" xlink:title=" ">
<polygon fill="none" stroke="black" points="125.5,-280.5 125.5,-299.5 180.5,-299.5 180.5,-280.5 125.5,-280.5"/>
<text text-anchor="middle" x="153" y="-287.5" font-family="Helvetica,sans-Serif" font-size="10.00">Game.h</text>
</a>
</g>
</g>
<!-- Node1&#45;&gt;Node3 -->
<g id="edge2" class="edge">
<title>Node1&#45;&gt;Node3</title>
<path fill="none" stroke="midnightblue" d="M97.7,-336.5C109.58,-326.72 123.74,-315.07 134.76,-306.01"/>
<polygon fill="midnightblue" stroke="midnightblue" points="136.99,-308.71 142.48,-299.65 132.54,-303.3 136.99,-308.71"/>
</g>
<!-- Node4 -->
<g id="node4" class="node">
<title>Node4</title>
<g id="a_node4"><a xlink:href="_enemy_8h.html" target="_top" xlink:title=" ">
<polygon fill="none" stroke="black" points="211,-168.5 211,-187.5 269,-187.5 269,-168.5 211,-168.5"/>
<text text-anchor="middle" x="240" y="-175.5" font-family="Helvetica,sans-Serif" font-size="10.00">Enemy.h</text>
</a>
</g>
</g>
<!-- Node3&#45;&gt;Node4 -->
<g id="edge3" class="edge">
<title>Node3&#45;&gt;Node4</title>
<path fill="none" stroke="midnightblue" d="M162.91,-280.24C172.46,-271.54 187.03,-257.58 198,-244 210.23,-228.86 222.07,-210.05 230.04,-196.56"/>
<polygon fill="midnightblue" stroke="midnightblue" points="233.12,-198.22 235.11,-187.81 227.07,-194.71 233.12,-198.22"/>
</g>
<!-- Node8 -->
<g id="node8" class="node">
<title>Node8</title>
<g id="a_node8"><a xlink:href="_map_8h.html" target="_top" xlink:title=" ">
<polygon fill="none" stroke="black" points="312.5,-112.5 312.5,-131.5 359.5,-131.5 359.5,-112.5 312.5,-112.5"/>
<text text-anchor="middle" x="336" y="-119.5" font-family="Helvetica,sans-Serif" font-size="10.00">Map.h</text>
</a>
</g>
</g>
<!-- Node3&#45;&gt;Node8 -->
<g id="edge10" class="edge">
<title>Node3&#45;&gt;Node8</title>
<path fill="none" stroke="midnightblue" d="M166.61,-280.41C180.05,-271.74 201.01,-257.69 218,-244 259.49,-210.57 301.49,-163.68 322.4,-139.25"/>
<polygon fill="midnightblue" stroke="midnightblue" points="325.09,-141.5 328.89,-131.61 319.75,-136.97 325.09,-141.5"/>
</g>
<!-- Node9 -->
<g id="node9" class="node">
<title>Node9</title>
<g id="a_node9"><a xlink:href="_tower_archer_8h.html" target="_top" xlink:title=" ">
<polygon fill="none" stroke="black" points="31.5,-168.5 31.5,-187.5 116.5,-187.5 116.5,-168.5 31.5,-168.5"/>
<text text-anchor="middle" x="74" y="-175.5" font-family="Helvetica,sans-Serif" font-size="10.00">TowerArcher.h</text>
</a>
</g>
</g>
<!-- Node3&#45;&gt;Node9 -->
<g id="edge11" class="edge">
<title>Node3&#45;&gt;Node9</title>
<path fill="none" stroke="midnightblue" d="M143.09,-280.38C133.59,-271.79 119.23,-257.91 109,-244 98.11,-229.19 88.43,-210.57 82.03,-197.06"/>
<polygon fill="midnightblue" stroke="midnightblue" points="85.17,-195.49 77.81,-187.87 78.81,-198.42 85.17,-195.49"/>
</g>
<!-- Node10 -->
<g id="node10" class="node">
<title>Node10</title>
<g id="a_node10"><a xlink:href="_projectile_8h.html" target="_top" xlink:title=" ">
<polygon fill="none" stroke="black" points="117.5,-224.5 117.5,-243.5 188.5,-243.5 188.5,-224.5 117.5,-224.5"/>
<text text-anchor="middle" x="153" y="-231.5" font-family="Helvetica,sans-Serif" font-size="10.00">Projectile.h</text>
</a>
</g>
</g>
<!-- Node3&#45;&gt;Node10 -->
<g id="edge14" class="edge">
<title>Node3&#45;&gt;Node10</title>
<path fill="none" stroke="midnightblue" d="M153,-280.08C153,-273.01 153,-262.86 153,-253.99"/>
<polygon fill="midnightblue" stroke="midnightblue" points="156.5,-253.75 153,-243.75 149.5,-253.75 156.5,-253.75"/>
</g>
<!-- Node4&#45;&gt;Node2 -->
<g id="edge4" class="edge">
<title>Node4&#45;&gt;Node2</title>
<path fill="none" stroke="midnightblue" d="M247.77,-168.14C257.77,-155.61 272.96,-131.99 265,-112 246.88,-66.48 194.83,-38.03 159.31,-23.33"/>
<polygon fill="midnightblue" stroke="midnightblue" points="160.36,-19.98 149.77,-19.55 157.78,-26.49 160.36,-19.98"/>
</g>
<!-- Node5 -->
<g id="node5" class="node">
<title>Node5</title>
<g id="a_node5"><a xlink:title=" ">
<polygon fill="none" stroke="#bfbfbf" points="224,-112.5 224,-131.5 256,-131.5 256,-112.5 224,-112.5"/>
<text text-anchor="middle" x="240" y="-119.5" font-family="Helvetica,sans-Serif" font-size="10.00">list</text>
</a>
</g>
</g>
<!-- Node4&#45;&gt;Node5 -->
<g id="edge5" class="edge">
<title>Node4&#45;&gt;Node5</title>
<path fill="none" stroke="midnightblue" d="M240,-168.08C240,-161.01 240,-150.86 240,-141.99"/>
<polygon fill="midnightblue" stroke="midnightblue" points="243.5,-141.75 240,-131.75 236.5,-141.75 243.5,-141.75"/>
</g>
<!-- Node6 -->
<g id="node6" class="node">
<title>Node6</title>
<g id="a_node6"><a xlink:href="_entity_8h.html" target="_top" xlink:title=" ">
<polygon fill="none" stroke="black" points="152.5,-112.5 152.5,-131.5 205.5,-131.5 205.5,-112.5 152.5,-112.5"/>
<text text-anchor="middle" x="179" y="-119.5" font-family="Helvetica,sans-Serif" font-size="10.00">Entity.h</text>
</a>
</g>
</g>
<!-- Node4&#45;&gt;Node6 -->
<g id="edge6" class="edge">
<title>Node4&#45;&gt;Node6</title>
<path fill="none" stroke="midnightblue" d="M230.2,-168.32C221.18,-160.34 207.59,-148.31 196.68,-138.65"/>
<polygon fill="midnightblue" stroke="midnightblue" points="198.79,-135.84 188.98,-131.83 194.15,-141.08 198.79,-135.84"/>
</g>
<!-- Node4&#45;&gt;Node8 -->
<g id="edge9" class="edge">
<title>Node4&#45;&gt;Node8</title>
<path fill="none" stroke="midnightblue" d="M255.42,-168.32C270.54,-159.82 293.82,-146.73 311.47,-136.8"/>
<polygon fill="midnightblue" stroke="midnightblue" points="313.61,-139.61 320.61,-131.65 310.18,-133.51 313.61,-139.61"/>
</g>
<!-- Node7 -->
<g id="node7" class="node">
<title>Node7</title>
<g id="a_node7"><a xlink:href="_vec2_8h.html" target="_top" xlink:title=" ">
<polygon fill="none" stroke="black" points="153.5,-56.5 153.5,-75.5 202.5,-75.5 202.5,-56.5 153.5,-56.5"/>
<text text-anchor="middle" x="178" y="-63.5" font-family="Helvetica,sans-Serif" font-size="10.00">Vec2.h</text>
</a>
</g>
</g>
<!-- Node6&#45;&gt;Node7 -->
<g id="edge7" class="edge">
<title>Node6&#45;&gt;Node7</title>
<path fill="none" stroke="midnightblue" d="M178.83,-112.08C178.7,-105.01 178.52,-94.86 178.35,-85.99"/>
<polygon fill="midnightblue" stroke="midnightblue" points="181.85,-85.68 178.16,-75.75 174.85,-85.81 181.85,-85.68"/>
</g>
<!-- Node7&#45;&gt;Node2 -->
<g id="edge8" class="edge">
<title>Node7&#45;&gt;Node2</title>
<path fill="none" stroke="midnightblue" d="M169.08,-56.08C161.22,-48.22 149.57,-36.57 140.08,-27.08"/>
<polygon fill="midnightblue" stroke="midnightblue" points="142.3,-24.35 132.75,-19.75 137.35,-29.3 142.3,-24.35"/>
</g>
<!-- Node9&#45;&gt;Node2 -->
<g id="edge12" class="edge">
<title>Node9&#45;&gt;Node2</title>
<path fill="none" stroke="midnightblue" d="M76.5,-168.48C82.3,-148.7 97.18,-98.15 110,-56 112.68,-47.18 115.72,-37.41 118.27,-29.24"/>
<polygon fill="midnightblue" stroke="midnightblue" points="121.63,-30.21 121.28,-19.62 114.95,-28.11 121.63,-30.21"/>
</g>
<!-- Node9&#45;&gt;Node6 -->
<g id="edge13" class="edge">
<title>Node9&#45;&gt;Node6</title>
<path fill="none" stroke="midnightblue" d="M90.87,-168.32C107.71,-159.66 133.81,-146.24 153.24,-136.25"/>
<polygon fill="midnightblue" stroke="midnightblue" points="154.88,-139.34 162.17,-131.65 151.68,-133.12 154.88,-139.34"/>
</g>
<!-- Node10&#45;&gt;Node2 -->
<g id="edge18" class="edge">
<title>Node10&#45;&gt;Node2</title>
<path fill="none" stroke="midnightblue" d="M151.86,-224.3C147.6,-191.63 132.47,-75.87 126.48,-29.96"/>
<polygon fill="midnightblue" stroke="midnightblue" points="129.93,-29.35 125.16,-19.88 122.99,-30.25 129.93,-29.35"/>
</g>
<!-- Node10&#45;&gt;Node4 -->
<g id="edge16" class="edge">
<title>Node10&#45;&gt;Node4</title>
<path fill="none" stroke="midnightblue" d="M166.98,-224.32C180.55,-215.9 201.38,-202.97 217.32,-193.07"/>
<polygon fill="midnightblue" stroke="midnightblue" points="219.41,-195.9 226.06,-187.65 215.71,-189.95 219.41,-195.9"/>
</g>
<!-- Node10&#45;&gt;Node6 -->
<g id="edge15" class="edge">
<title>Node10&#45;&gt;Node6</title>
<path fill="none" stroke="midnightblue" d="M155.04,-224.37C159.24,-206.62 168.92,-165.67 174.6,-141.6"/>
<polygon fill="midnightblue" stroke="midnightblue" points="178.08,-142.13 176.97,-131.59 171.26,-140.52 178.08,-142.13"/>
</g>
<!-- Node10&#45;&gt;Node9 -->
<g id="edge17" class="edge">
<title>Node10&#45;&gt;Node9</title>
<path fill="none" stroke="midnightblue" d="M140.31,-224.32C128.1,-215.98 109.42,-203.21 95,-193.35"/>
<polygon fill="midnightblue" stroke="midnightblue" points="96.89,-190.41 86.66,-187.65 92.94,-196.19 96.89,-190.41"/>
</g>
</g>
</svg>
