<?xml version="1.0" encoding="UTF-8" standalone="no"?>
<!DOCTYPE svg PUBLIC "-//W3C//DTD SVG 1.1//EN"
 "http://www.w3.org/Graphics/SVG/1.1/DTD/svg11.dtd">
<!-- Generated by graphviz version 2.43.0 (0)
 -->
<!-- Title: /home/allan/Licence2_Informatique/ProjetLIFAP4/src/core/Game.h Pages: 1 -->
<svg width="340pt" height="330pt"
 viewBox="0.00 0.00 340.00 330.00" xmlns="http://www.w3.org/2000/svg" xmlns:xlink="http://www.w3.org/1999/xlink">
<g id="graph0" class="graph" transform="scale(1 1) rotate(0) translate(4 326)">
<title>/home/allan/Licence2_Informatique/ProjetLIFAP4/src/core/Game.h</title>
<!-- Node1 -->
<g id="node1" class="node">
<title>Node1</title>
<g id="a_node1"><a xlink:title=" ">
<polygon fill="#bfbfbf" stroke="black" points="77.5,-280.5 77.5,-321.5 225.5,-321.5 225.5,-280.5 77.5,-280.5"/>
<text text-anchor="start" x="85.5" y="-309.5" font-family="Helvetica,sans-Serif" font-size="10.00">/home/allan/Licence2</text>
<text text-anchor="start" x="85.5" y="-298.5" font-family="Helvetica,sans-Serif" font-size="10.00">_Informatique/ProjetLIFAP4</text>
<text text-anchor="middle" x="151.5" y="-287.5" font-family="Helvetica,sans-Serif" font-size="10.00">/src/core/Game.h</text>
</a>
</g>
</g>
<!-- Node2 -->
<g id="node2" class="node">
<title>Node2</title>
<g id="a_node2"><a xlink:href="_enemy_8h.html" target="_top" xlink:title=" ">
<polygon fill="none" stroke="black" points="90.5,-168.5 90.5,-187.5 148.5,-187.5 148.5,-168.5 90.5,-168.5"/>
<text text-anchor="middle" x="119.5" y="-175.5" font-family="Helvetica,sans-Serif" font-size="10.00">Enemy.h</text>
</a>
</g>
</g>
<!-- Node1&#45;&gt;Node2 -->
<g id="edge1" class="edge">
<title>Node1&#45;&gt;Node2</title>
<path fill="none" stroke="midnightblue" d="M146.29,-280.29C140.23,-257.37 130.3,-219.85 124.39,-197.47"/>
<polygon fill="midnightblue" stroke="midnightblue" points="127.71,-196.35 121.77,-187.57 120.94,-198.14 127.71,-196.35"/>
</g>
<!-- Node7 -->
<g id="node7" class="node">
<title>Node7</title>
<g id="a_node7"><a xlink:href="_map_8h.html" target="_top" xlink:title=" ">
<polygon fill="none" stroke="black" points="0,-112.5 0,-131.5 47,-131.5 47,-112.5 0,-112.5"/>
<text text-anchor="middle" x="23.5" y="-119.5" font-family="Helvetica,sans-Serif" font-size="10.00">Map.h</text>
</a>
</g>
</g>
<!-- Node1&#45;&gt;Node7 -->
<g id="edge8" class="edge">
<title>Node1&#45;&gt;Node7</title>
<path fill="none" stroke="midnightblue" d="M137.31,-280.38C111.97,-245.33 59.34,-172.57 35.59,-139.72"/>
<polygon fill="midnightblue" stroke="midnightblue" points="38.4,-137.64 29.71,-131.58 32.73,-141.74 38.4,-137.64"/>
</g>
<!-- Node8 -->
<g id="node8" class="node">
<title>Node8</title>
<g id="a_node8"><a xlink:href="_tower_archer_8h.html" target="_top" xlink:title=" ">
<polygon fill="none" stroke="black" points="247,-168.5 247,-187.5 332,-187.5 332,-168.5 247,-168.5"/>
<text text-anchor="middle" x="289.5" y="-175.5" font-family="Helvetica,sans-Serif" font-size="10.00">TowerArcher.h</text>
</a>
</g>
</g>
<!-- Node1&#45;&gt;Node8 -->
<g id="edge9" class="edge">
<title>Node1&#45;&gt;Node8</title>
<path fill="none" stroke="midnightblue" d="M181.01,-280.49C195.78,-270.25 213.63,-257.12 228.5,-244 245.8,-228.74 263.63,-209.21 275.52,-195.56"/>
<polygon fill="midnightblue" stroke="midnightblue" points="278.22,-197.78 282.09,-187.91 272.92,-193.22 278.22,-197.78"/>
</g>
<!-- Node9 -->
<g id="node9" class="node">
<title>Node9</title>
<g id="a_node9"><a xlink:href="_projectile_8h.html" target="_top" xlink:title=" ">
<polygon fill="none" stroke="black" points="148,-224.5 148,-243.5 219,-243.5 219,-224.5 148,-224.5"/>
<text text-anchor="middle" x="183.5" y="-231.5" font-family="Helvetica,sans-Serif" font-size="10.00">Projectile.h</text>
</a>
</g>
</g>
<!-- Node1&#45;&gt;Node9 -->
<g id="edge12" class="edge">
<title>Node1&#45;&gt;Node9</title>
<path fill="none" stroke="midnightblue" d="M161.1,-280.5C165.44,-271.68 170.53,-261.34 174.76,-252.74"/>
<polygon fill="midnightblue" stroke="midnightblue" points="177.96,-254.17 179.24,-243.65 171.68,-251.08 177.96,-254.17"/>
</g>
<!-- Node3 -->
<g id="node3" class="node">
<title>Node3</title>
<g id="a_node3"><a xlink:title=" ">
<polygon fill="none" stroke="#bfbfbf" points="178.5,-0.5 178.5,-19.5 238.5,-19.5 238.5,-0.5 178.5,-0.5"/>
<text text-anchor="middle" x="208.5" y="-7.5" font-family="Helvetica,sans-Serif" font-size="10.00">iostream</text>
</a>
</g>
</g>
<!-- Node2&#45;&gt;Node3 -->
<g id="edge2" class="edge">
<title>Node2&#45;&gt;Node3</title>
<path fill="none" stroke="midnightblue" d="M111.71,-168.13C101.68,-155.59 86.45,-131.96 94.5,-112 110.95,-71.24 154.09,-40.84 182.34,-24.52"/>
<polygon fill="midnightblue" stroke="midnightblue" points="184.25,-27.46 191.28,-19.53 180.84,-21.34 184.25,-27.46"/>
</g>
<!-- Node4 -->
<g id="node4" class="node">
<title>Node4</title>
<g id="a_node4"><a xlink:title=" ">
<polygon fill="none" stroke="#bfbfbf" points="103.5,-112.5 103.5,-131.5 135.5,-131.5 135.5,-112.5 103.5,-112.5"/>
<text text-anchor="middle" x="119.5" y="-119.5" font-family="Helvetica,sans-Serif" font-size="10.00">list</text>
</a>
</g>
</g>
<!-- Node2&#45;&gt;Node4 -->
<g id="edge3" class="edge">
<title>Node2&#45;&gt;Node4</title>
<path fill="none" stroke="midnightblue" d="M119.5,-168.08C119.5,-161.01 119.5,-150.86 119.5,-141.99"/>
<polygon fill="midnightblue" stroke="midnightblue" points="123,-141.75 119.5,-131.75 116,-141.75 123,-141.75"/>
</g>
<!-- Node5 -->
<g id="node5" class="node">
<title>Node5</title>
<g id="a_node5"><a xlink:href="_entity_8h.html" target="_top" xlink:title=" ">
<polygon fill="none" stroke="black" points="154,-112.5 154,-131.5 207,-131.5 207,-112.5 154,-112.5"/>
<text text-anchor="middle" x="180.5" y="-119.5" font-family="Helvetica,sans-Serif" font-size="10.00">Entity.h</text>
</a>
</g>
</g>
<!-- Node2&#45;&gt;Node5 -->
<g id="edge4" class="edge">
<title>Node2&#45;&gt;Node5</title>
<path fill="none" stroke="midnightblue" d="M129.3,-168.32C138.32,-160.34 151.91,-148.31 162.82,-138.65"/>
<polygon fill="midnightblue" stroke="midnightblue" points="165.35,-141.08 170.52,-131.83 160.71,-135.84 165.35,-141.08"/>
</g>
<!-- Node2&#45;&gt;Node7 -->
<g id="edge7" class="edge">
<title>Node2&#45;&gt;Node7</title>
<path fill="none" stroke="midnightblue" d="M104.08,-168.32C88.96,-159.82 65.68,-146.73 48.03,-136.8"/>
<polygon fill="midnightblue" stroke="midnightblue" points="49.32,-133.51 38.89,-131.65 45.89,-139.61 49.32,-133.51"/>
</g>
<!-- Node6 -->
<g id="node6" class="node">
<title>Node6</title>
<g id="a_node6"><a xlink:href="_vec2_8h.html" target="_top" xlink:title=" ">
<polygon fill="none" stroke="black" points="157,-56.5 157,-75.5 206,-75.5 206,-56.5 157,-56.5"/>
<text text-anchor="middle" x="181.5" y="-63.5" font-family="Helvetica,sans-Serif" font-size="10.00">Vec2.h</text>
</a>
</g>
</g>
<!-- Node5&#45;&gt;Node6 -->
<g id="edge5" class="edge">
<title>Node5&#45;&gt;Node6</title>
<path fill="none" stroke="midnightblue" d="M180.67,-112.08C180.8,-105.01 180.98,-94.86 181.15,-85.99"/>
<polygon fill="midnightblue" stroke="midnightblue" points="184.65,-85.81 181.34,-75.75 177.65,-85.68 184.65,-85.81"/>
</g>
<!-- Node6&#45;&gt;Node3 -->
<g id="edge6" class="edge">
<title>Node6&#45;&gt;Node3</title>
<path fill="none" stroke="midnightblue" d="M185.96,-56.08C189.65,-48.69 195.02,-37.95 199.59,-28.81"/>
<polygon fill="midnightblue" stroke="midnightblue" points="202.78,-30.26 204.12,-19.75 196.52,-27.13 202.78,-30.26"/>
</g>
<!-- Node8&#45;&gt;Node3 -->
<g id="edge10" class="edge">
<title>Node8&#45;&gt;Node3</title>
<path fill="none" stroke="midnightblue" d="M287.92,-168.27C283.92,-147.61 272.06,-94.58 249.5,-56 243.26,-45.33 234.16,-35.01 226.12,-26.95"/>
<polygon fill="midnightblue" stroke="midnightblue" points="228.21,-24.11 218.57,-19.72 223.37,-29.17 228.21,-24.11"/>
</g>
<!-- Node8&#45;&gt;Node5 -->
<g id="edge11" class="edge">
<title>Node8&#45;&gt;Node5</title>
<path fill="none" stroke="midnightblue" d="M271.99,-168.32C254.43,-159.62 227.17,-146.12 206.97,-136.11"/>
<polygon fill="midnightblue" stroke="midnightblue" points="208.48,-132.96 197.97,-131.65 205.38,-139.23 208.48,-132.96"/>
</g>
<!-- Node9&#45;&gt;Node2 -->
<g id="edge14" class="edge">
<title>Node9&#45;&gt;Node2</title>
<path fill="none" stroke="midnightblue" d="M173.22,-224.32C163.66,-216.26 149.22,-204.08 137.72,-194.37"/>
<polygon fill="midnightblue" stroke="midnightblue" points="139.87,-191.61 129.97,-187.83 135.36,-196.96 139.87,-191.61"/>
</g>
<!-- Node9&#45;&gt;Node3 -->
<g id="edge16" class="edge">
<title>Node9&#45;&gt;Node3</title>
<path fill="none" stroke="midnightblue" d="M187.38,-224.32C194.82,-207.12 210.87,-167.34 216.5,-132 218.06,-122.19 218.38,-89.38 215.5,-56 214.74,-47.23 213.32,-37.57 211.95,-29.46"/>
<polygon fill="midnightblue" stroke="midnightblue" points="215.39,-28.81 210.19,-19.58 208.5,-30.04 215.39,-28.81"/>
</g>
<!-- Node9&#45;&gt;Node5 -->
<g id="edge13" class="edge">
<title>Node9&#45;&gt;Node5</title>
<path fill="none" stroke="midnightblue" d="M183.26,-224.37C182.78,-206.62 181.66,-165.67 181.01,-141.6"/>
<polygon fill="midnightblue" stroke="midnightblue" points="184.51,-141.49 180.73,-131.59 177.51,-141.68 184.51,-141.49"/>
</g>
<!-- Node9&#45;&gt;Node8 -->
<g id="edge15" class="edge">
<title>Node9&#45;&gt;Node8</title>
<path fill="none" stroke="midnightblue" d="M200.53,-224.32C217.53,-215.66 243.88,-202.24 263.49,-192.25"/>
<polygon fill="midnightblue" stroke="midnightblue" points="265.19,-195.31 272.51,-187.65 262.01,-189.08 265.19,-195.31"/>
</g>
</g>
</svg>
