<?xml version="1.0" encoding="UTF-8" standalone="no"?>
<!DOCTYPE svg PUBLIC "-//W3C//DTD SVG 1.1//EN"
 "http://www.w3.org/Graphics/SVG/1.1/DTD/svg11.dtd">
<!-- Generated by graphviz version 2.43.0 (0)
 -->
<!-- Title: txtShow Pages: 1 -->
<svg width="417pt" height="674pt"
 viewBox="0.00 0.00 417.00 674.00" xmlns="http://www.w3.org/2000/svg" xmlns:xlink="http://www.w3.org/1999/xlink">
<g id="graph0" class="graph" transform="scale(1 1) rotate(0) translate(4 670)">
<title>txtShow</title>
<!-- Node1 -->
<g id="node1" class="node">
<title>Node1</title>
<g id="a_node1"><a xlink:title="Fonction dans lequel l&#39;affichage se fait.">
<polygon fill="#bfbfbf" stroke="black" points="0,-342.5 0,-361.5 56,-361.5 56,-342.5 0,-342.5"/>
<text text-anchor="middle" x="28" y="-349.5" font-family="Helvetica,sans-Serif" font-size="10.00">txtShow</text>
</a>
</g>
</g>
<!-- Node2 -->
<g id="node2" class="node">
<title>Node2</title>
<g id="a_node2"><a xlink:href="class_window_t_x_t.html#a79659c7c121f98d9021e422a69d61333" target="_top" xlink:title="Fonction permettant de remplir le terminal d&#39;un même caractère.">
<polygon fill="none" stroke="black" points="115.5,-646.5 115.5,-665.5 219.5,-665.5 219.5,-646.5 115.5,-646.5"/>
<text text-anchor="middle" x="167.5" y="-653.5" font-family="Helvetica,sans-Serif" font-size="10.00">WindowTXT::clear</text>
</a>
</g>
</g>
<!-- Node1&#45;&gt;Node2 -->
<g id="edge1" class="edge">
<title>Node1&#45;&gt;Node2</title>
<path fill="none" stroke="midnightblue" d="M29.88,-361.5C34.18,-405.68 54.19,-590.61 92,-632 96.05,-636.43 100.92,-640.05 106.22,-643.01"/>
<polygon fill="midnightblue" stroke="midnightblue" points="104.91,-646.26 115.44,-647.37 107.9,-639.93 104.91,-646.26"/>
</g>
<!-- Node3 -->
<g id="node3" class="node">
<title>Node3</title>
<g id="a_node3"><a xlink:href="class_window_t_x_t.html#a0243ba21b4e67a20c74b94c0192e3e02" target="_top" xlink:title="Fonction permettant de remplir le tableau de caractère de la fenêtre.">
<polygon fill="none" stroke="black" points="293,-627.5 293,-646.5 395,-646.5 395,-627.5 293,-627.5"/>
<text text-anchor="middle" x="344" y="-634.5" font-family="Helvetica,sans-Serif" font-size="10.00">WindowTXT::print</text>
</a>
</g>
</g>
<!-- Node1&#45;&gt;Node3 -->
<g id="edge22" class="edge">
<title>Node1&#45;&gt;Node3</title>
<path fill="none" stroke="midnightblue" d="M30.05,-361.6C34.76,-403.04 55.42,-565.89 92,-599 119.26,-623.67 217.58,-632.32 282.77,-635.36"/>
<polygon fill="midnightblue" stroke="midnightblue" points="282.79,-638.86 292.93,-635.8 283.09,-631.87 282.79,-638.86"/>
</g>
<!-- Node4 -->
<g id="node4" class="node">
<title>Node4</title>
<g id="a_node4"><a xlink:href="class_window_t_x_t.html#a25d39d051d4874b61fe20311ab1b0f19" target="_top" xlink:title="Fonction permettant d&#39;afficher un caractère depuis un tableau de caractère sur le terminal.">
<polygon fill="none" stroke="black" points="115.5,-570.5 115.5,-589.5 219.5,-589.5 219.5,-570.5 115.5,-570.5"/>
<text text-anchor="middle" x="167.5" y="-577.5" font-family="Helvetica,sans-Serif" font-size="10.00">WindowTXT::draw</text>
</a>
</g>
</g>
<!-- Node1&#45;&gt;Node4 -->
<g id="edge3" class="edge">
<title>Node1&#45;&gt;Node4</title>
<path fill="none" stroke="midnightblue" d="M28.8,-361.57C28.68,-394.52 32.88,-504.38 92,-561 96.04,-564.87 100.75,-567.98 105.8,-570.47"/>
<polygon fill="midnightblue" stroke="midnightblue" points="104.62,-573.77 115.2,-574.34 107.28,-567.3 104.62,-573.77"/>
</g>
<!-- Node6 -->
<g id="node6" class="node">
<title>Node6</title>
<g id="a_node6"><a xlink:href="class_game.html#a74dda151003b81807c663d07eda2c657" target="_top" xlink:title=" ">
<polygon fill="none" stroke="black" points="109.5,-532.5 109.5,-551.5 225.5,-551.5 225.5,-532.5 109.5,-532.5"/>
<text text-anchor="middle" x="167.5" y="-539.5" font-family="Helvetica,sans-Serif" font-size="10.00">Game::getConstMap</text>
</a>
</g>
</g>
<!-- Node1&#45;&gt;Node6 -->
<g id="edge5" class="edge">
<title>Node1&#45;&gt;Node6</title>
<path fill="none" stroke="midnightblue" d="M29.56,-361.85C31.77,-391.12 42.42,-478.3 92,-523 94.53,-525.28 97.29,-527.29 100.22,-529.07"/>
<polygon fill="midnightblue" stroke="midnightblue" points="98.92,-532.34 109.42,-533.73 102.08,-526.09 98.92,-532.34"/>
</g>
<!-- Node7 -->
<g id="node7" class="node">
<title>Node7</title>
<g id="a_node7"><a xlink:href="class_entity.html#a632a853b65d0468f138bc35efc0d317b" target="_top" xlink:title="Accesseur renvoyant la position en x d&#39;un ennemi de type const.">
<polygon fill="none" stroke="black" points="108.5,-494.5 108.5,-513.5 226.5,-513.5 226.5,-494.5 108.5,-494.5"/>
<text text-anchor="middle" x="167.5" y="-501.5" font-family="Helvetica,sans-Serif" font-size="10.00">Entity::getConstPosX</text>
</a>
</g>
</g>
<!-- Node1&#45;&gt;Node7 -->
<g id="edge6" class="edge">
<title>Node1&#45;&gt;Node7</title>
<path fill="none" stroke="midnightblue" d="M30.69,-361.77C35.49,-386.44 51.57,-451.7 92,-485 94.27,-486.87 96.7,-488.56 99.25,-490.08"/>
<polygon fill="midnightblue" stroke="midnightblue" points="97.79,-493.27 108.29,-494.66 100.95,-487.02 97.79,-493.27"/>
</g>
<!-- Node8 -->
<g id="node8" class="node">
<title>Node8</title>
<g id="a_node8"><a xlink:href="class_entity.html#a280a384eddb9c7bfb96547adfbb8f515" target="_top" xlink:title="Accesseur renvoyant la position en y d&#39;un ennemi de type const.">
<polygon fill="none" stroke="black" points="109,-456.5 109,-475.5 226,-475.5 226,-456.5 109,-456.5"/>
<text text-anchor="middle" x="167.5" y="-463.5" font-family="Helvetica,sans-Serif" font-size="10.00">Entity::getConstPosY</text>
</a>
</g>
</g>
<!-- Node1&#45;&gt;Node8 -->
<g id="edge7" class="edge">
<title>Node1&#45;&gt;Node8</title>
<path fill="none" stroke="midnightblue" d="M32.55,-361.51C40.25,-380.79 60.37,-424.54 92,-447 94.72,-448.93 97.62,-450.67 100.64,-452.23"/>
<polygon fill="midnightblue" stroke="midnightblue" points="99.43,-455.52 109.99,-456.4 102.28,-449.13 99.43,-455.52"/>
</g>
<!-- Node9 -->
<g id="node9" class="node">
<title>Node9</title>
<g id="a_node9"><a xlink:href="class_game.html#a74d75c5a787ceb100cad9f5c75894ff7" target="_top" xlink:title="Accesseur renvoyant ressources de type const.">
<polygon fill="none" stroke="black" points="92,-418.5 92,-437.5 243,-437.5 243,-418.5 92,-418.5"/>
<text text-anchor="middle" x="167.5" y="-425.5" font-family="Helvetica,sans-Serif" font-size="10.00">Game::getConstRessources</text>
</a>
</g>
</g>
<!-- Node1&#45;&gt;Node9 -->
<g id="edge8" class="edge">
<title>Node1&#45;&gt;Node9</title>
<path fill="none" stroke="midnightblue" d="M36.91,-361.62C47.93,-374.39 69.13,-396.72 92,-409 96.26,-411.29 100.81,-413.31 105.47,-415.09"/>
<polygon fill="midnightblue" stroke="midnightblue" points="104.57,-418.48 115.16,-418.42 106.85,-411.86 104.57,-418.48"/>
</g>
<!-- Node10 -->
<g id="node10" class="node">
<title>Node10</title>
<g id="a_node10"><a xlink:href="class_game.html#a15f72ecbe312a7d7d2e4939a7174d16e" target="_top" xlink:title=" ">
<polygon fill="none" stroke="black" points="105,-380.5 105,-399.5 230,-399.5 230,-380.5 105,-380.5"/>
<text text-anchor="middle" x="167.5" y="-387.5" font-family="Helvetica,sans-Serif" font-size="10.00">Game::getCountTower</text>
</a>
</g>
</g>
<!-- Node1&#45;&gt;Node10 -->
<g id="edge9" class="edge">
<title>Node1&#45;&gt;Node10</title>
<path fill="none" stroke="midnightblue" d="M56.21,-360.49C67.29,-363.87 80.22,-367.72 92,-371 100.32,-373.31 109.19,-375.67 117.8,-377.9"/>
<polygon fill="midnightblue" stroke="midnightblue" points="117.19,-381.36 127.75,-380.45 118.93,-374.58 117.19,-381.36"/>
</g>
<!-- Node11 -->
<g id="node11" class="node">
<title>Node11</title>
<g id="a_node11"><a xlink:href="class_map.html#a421954a09241f064e551c84f6f044744" target="_top" xlink:title="Renvoie la largeur du terrain.">
<polygon fill="none" stroke="black" points="124.5,-342.5 124.5,-361.5 210.5,-361.5 210.5,-342.5 124.5,-342.5"/>
<text text-anchor="middle" x="167.5" y="-349.5" font-family="Helvetica,sans-Serif" font-size="10.00">Map::getDimX</text>
</a>
</g>
</g>
<!-- Node1&#45;&gt;Node11 -->
<g id="edge10" class="edge">
<title>Node1&#45;&gt;Node11</title>
<path fill="none" stroke="midnightblue" d="M56.17,-352C72.76,-352 94.53,-352 114.35,-352"/>
<polygon fill="midnightblue" stroke="midnightblue" points="114.5,-355.5 124.5,-352 114.5,-348.5 114.5,-355.5"/>
</g>
<!-- Node12 -->
<g id="node12" class="node">
<title>Node12</title>
<g id="a_node12"><a xlink:href="class_map.html#a1de1775f4a648f64d2310763dc10affe" target="_top" xlink:title="Renvoie la hauteur du terrain.">
<polygon fill="none" stroke="black" points="124.5,-304.5 124.5,-323.5 210.5,-323.5 210.5,-304.5 124.5,-304.5"/>
<text text-anchor="middle" x="167.5" y="-311.5" font-family="Helvetica,sans-Serif" font-size="10.00">Map::getDimY</text>
</a>
</g>
</g>
<!-- Node1&#45;&gt;Node12 -->
<g id="edge11" class="edge">
<title>Node1&#45;&gt;Node12</title>
<path fill="none" stroke="midnightblue" d="M56.21,-343.51C67.29,-340.13 80.22,-336.28 92,-333 100.32,-330.69 109.19,-328.33 117.8,-326.1"/>
<polygon fill="midnightblue" stroke="midnightblue" points="118.93,-329.42 127.75,-323.55 117.19,-322.64 118.93,-329.42"/>
</g>
<!-- Node13 -->
<g id="node13" class="node">
<title>Node13</title>
<g id="a_node13"><a xlink:href="class_ressources.html#a49874b04539b14db66b1d70a0dc226c8" target="_top" xlink:title="Accesseur de la donnée membre gold.">
<polygon fill="none" stroke="black" points="109.5,-266.5 109.5,-285.5 225.5,-285.5 225.5,-266.5 109.5,-266.5"/>
<text text-anchor="middle" x="167.5" y="-273.5" font-family="Helvetica,sans-Serif" font-size="10.00">Ressources::getGold</text>
</a>
</g>
</g>
<!-- Node1&#45;&gt;Node13 -->
<g id="edge12" class="edge">
<title>Node1&#45;&gt;Node13</title>
<path fill="none" stroke="midnightblue" d="M36.91,-342.38C47.93,-329.61 69.13,-307.28 92,-295 96.26,-292.71 100.81,-290.69 105.47,-288.91"/>
<polygon fill="midnightblue" stroke="midnightblue" points="106.85,-292.14 115.16,-285.58 104.57,-285.52 106.85,-292.14"/>
</g>
<!-- Node14 -->
<g id="node14" class="node">
<title>Node14</title>
<g id="a_node14"><a xlink:href="class_game.html#a12bc238997269a5a7056ae8e61a0ed32" target="_top" xlink:title="Fonction modifiant le nombre de tours actives.">
<polygon fill="none" stroke="black" points="113.5,-228.5 113.5,-247.5 221.5,-247.5 221.5,-228.5 113.5,-228.5"/>
<text text-anchor="middle" x="167.5" y="-235.5" font-family="Helvetica,sans-Serif" font-size="10.00">Game::getItEnemy</text>
</a>
</g>
</g>
<!-- Node1&#45;&gt;Node14 -->
<g id="edge13" class="edge">
<title>Node1&#45;&gt;Node14</title>
<path fill="none" stroke="midnightblue" d="M32.55,-342.49C40.25,-323.21 60.37,-279.46 92,-257 95.71,-254.36 99.76,-252.09 103.98,-250.14"/>
<polygon fill="midnightblue" stroke="midnightblue" points="105.48,-253.31 113.45,-246.34 102.87,-246.81 105.48,-253.31"/>
</g>
<!-- Node15 -->
<g id="node15" class="node">
<title>Node15</title>
<g id="a_node15"><a xlink:href="class_game.html#a01ba88b54739851f18d26a91c448b063" target="_top" xlink:title="Fonction modifiant le nombre de tours actives.">
<polygon fill="none" stroke="black" points="107.5,-190.5 107.5,-209.5 227.5,-209.5 227.5,-190.5 107.5,-190.5"/>
<text text-anchor="middle" x="167.5" y="-197.5" font-family="Helvetica,sans-Serif" font-size="10.00">Game::getItProjectile</text>
</a>
</g>
</g>
<!-- Node1&#45;&gt;Node15 -->
<g id="edge14" class="edge">
<title>Node1&#45;&gt;Node15</title>
<path fill="none" stroke="midnightblue" d="M30.69,-342.23C35.49,-317.56 51.57,-252.3 92,-219 94.03,-217.33 96.19,-215.8 98.44,-214.41"/>
<polygon fill="midnightblue" stroke="midnightblue" points="100.3,-217.39 107.55,-209.66 97.06,-211.18 100.3,-217.39"/>
</g>
<!-- Node16 -->
<g id="node16" class="node">
<title>Node16</title>
<g id="a_node16"><a xlink:href="class_game.html#a696cd9a1e18e88e31672cc1cd894cbc4" target="_top" xlink:title="Fonction modifiant le nombre de tours actives.">
<polygon fill="none" stroke="black" points="116,-152.5 116,-171.5 219,-171.5 219,-152.5 116,-152.5"/>
<text text-anchor="middle" x="167.5" y="-159.5" font-family="Helvetica,sans-Serif" font-size="10.00">Game::getItTower</text>
</a>
</g>
</g>
<!-- Node1&#45;&gt;Node16 -->
<g id="edge15" class="edge">
<title>Node1&#45;&gt;Node16</title>
<path fill="none" stroke="midnightblue" d="M29.56,-342.15C31.77,-312.88 42.42,-225.7 92,-181 96.21,-177.2 101.08,-174.14 106.27,-171.68"/>
<polygon fill="midnightblue" stroke="midnightblue" points="107.88,-174.8 115.88,-167.86 105.3,-168.3 107.88,-174.8"/>
</g>
<!-- Node17 -->
<g id="node17" class="node">
<title>Node17</title>
<g id="a_node17"><a xlink:href="class_castle.html#a1a0ffead4bbaaf276f73a37875e12aba" target="_top" xlink:title="Accesseur de la donnée membre PVCastle.">
<polygon fill="none" stroke="black" points="126.5,-114.5 126.5,-133.5 208.5,-133.5 208.5,-114.5 126.5,-114.5"/>
<text text-anchor="middle" x="167.5" y="-121.5" font-family="Helvetica,sans-Serif" font-size="10.00">Castle::getPV</text>
</a>
</g>
</g>
<!-- Node1&#45;&gt;Node17 -->
<g id="edge16" class="edge">
<title>Node1&#45;&gt;Node17</title>
<path fill="none" stroke="midnightblue" d="M28.8,-342.43C28.68,-309.48 32.88,-199.62 92,-143 98.8,-136.49 107.5,-132.13 116.54,-129.22"/>
<polygon fill="midnightblue" stroke="midnightblue" points="117.65,-132.55 126.42,-126.6 115.85,-125.78 117.65,-132.55"/>
</g>
<!-- Node18 -->
<g id="node18" class="node">
<title>Node18</title>
<g id="a_node18"><a xlink:href="class_map.html#a988891fac3660f96ca3b205244a30406" target="_top" xlink:title="Fonction renvoyant le caractère aux coordonnées (x,y) de la map.">
<polygon fill="none" stroke="black" points="131.5,-76.5 131.5,-95.5 203.5,-95.5 203.5,-76.5 131.5,-76.5"/>
<text text-anchor="middle" x="167.5" y="-83.5" font-family="Helvetica,sans-Serif" font-size="10.00">Map::getXY</text>
</a>
</g>
</g>
<!-- Node1&#45;&gt;Node18 -->
<g id="edge17" class="edge">
<title>Node1&#45;&gt;Node18</title>
<path fill="none" stroke="midnightblue" d="M30.13,-342.48C35.2,-301.42 57.11,-139.89 92,-105 99.88,-97.12 110.54,-92.36 121.32,-89.52"/>
<polygon fill="midnightblue" stroke="midnightblue" points="122.14,-92.93 131.19,-87.42 120.68,-86.08 122.14,-92.93"/>
</g>
<!-- Node19 -->
<g id="node19" class="node">
<title>Node19</title>
<g id="a_node19"><a xlink:href="class_enemy.html#a038e636d16b708f92627348a36750702" target="_top" xlink:title=" ">
<polygon fill="none" stroke="black" points="123,-38.5 123,-57.5 212,-57.5 212,-38.5 123,-38.5"/>
<text text-anchor="middle" x="167.5" y="-45.5" font-family="Helvetica,sans-Serif" font-size="10.00">Enemy::isDead</text>
</a>
</g>
</g>
<!-- Node1&#45;&gt;Node19 -->
<g id="edge18" class="edge">
<title>Node1&#45;&gt;Node19</title>
<path fill="none" stroke="midnightblue" d="M29.8,-342.28C33.73,-297.07 52.34,-107.95 92,-67 97.81,-61 105.23,-56.8 113.12,-53.87"/>
<polygon fill="midnightblue" stroke="midnightblue" points="114.36,-57.16 122.91,-50.91 112.33,-50.46 114.36,-57.16"/>
</g>
<!-- Node2&#45;&gt;Node3 -->
<g id="edge2" class="edge">
<title>Node2&#45;&gt;Node3</title>
<path fill="none" stroke="midnightblue" d="M219.91,-650.4C239.61,-648.26 262.25,-645.79 282.7,-643.57"/>
<polygon fill="midnightblue" stroke="midnightblue" points="283.29,-647.02 292.86,-642.46 282.54,-640.06 283.29,-647.02"/>
</g>
<!-- Node5 -->
<g id="node5" class="node">
<title>Node5</title>
<g id="a_node5"><a xlink:href="class_window_t_x_t.html#a73e94d4d47e2948899bc75c6b32e177a" target="_top" xlink:title="Fonction permettant de bouger le curseur du terminal.">
<polygon fill="none" stroke="black" points="279,-570.5 279,-589.5 409,-589.5 409,-570.5 279,-570.5"/>
<text text-anchor="middle" x="344" y="-577.5" font-family="Helvetica,sans-Serif" font-size="10.00">WindowTXT::termMove</text>
</a>
</g>
</g>
<!-- Node4&#45;&gt;Node5 -->
<g id="edge4" class="edge">
<title>Node4&#45;&gt;Node5</title>
<path fill="none" stroke="midnightblue" d="M219.91,-580C235.23,-580 252.33,-580 268.8,-580"/>
<polygon fill="midnightblue" stroke="midnightblue" points="268.95,-583.5 278.95,-580 268.95,-576.5 268.95,-583.5"/>
</g>
<!-- Node20 -->
<g id="node20" class="node">
<title>Node20</title>
<g id="a_node20"><a xlink:href="class_entity.html#a4c3de4661a585b0bd42bd16ce9cc5002" target="_top" xlink:title="Accesseur renvoyant la valeur de la donnée membre &#39;isDead&#39; d&#39;un ennemi.">
<polygon fill="none" stroke="black" points="294,-76.5 294,-95.5 394,-95.5 394,-76.5 294,-76.5"/>
<text text-anchor="middle" x="344" y="-83.5" font-family="Helvetica,sans-Serif" font-size="10.00">Entity::getIsDead</text>
</a>
</g>
</g>
<!-- Node19&#45;&gt;Node20 -->
<g id="edge19" class="edge">
<title>Node19&#45;&gt;Node20</title>
<path fill="none" stroke="midnightblue" d="M212.08,-57.49C235.51,-62.59 264.59,-68.92 289.39,-74.32"/>
<polygon fill="midnightblue" stroke="midnightblue" points="288.85,-77.79 299.37,-76.5 290.34,-70.95 288.85,-77.79"/>
</g>
<!-- Node21 -->
<g id="node21" class="node">
<title>Node21</title>
<g id="a_node21"><a xlink:href="class_entity.html#a334b52f5de8bbd7fb81f8bbeec08992b" target="_top" xlink:title="Accesseur renvoyant les points de vie d&#39;un ennemi.">
<polygon fill="none" stroke="black" points="304.5,-38.5 304.5,-57.5 383.5,-57.5 383.5,-38.5 304.5,-38.5"/>
<text text-anchor="middle" x="344" y="-45.5" font-family="Helvetica,sans-Serif" font-size="10.00">Entity::getPV</text>
</a>
</g>
</g>
<!-- Node19&#45;&gt;Node21 -->
<g id="edge20" class="edge">
<title>Node19&#45;&gt;Node21</title>
<path fill="none" stroke="midnightblue" d="M212.08,-48C237.02,-48 268.36,-48 294.12,-48"/>
<polygon fill="midnightblue" stroke="midnightblue" points="294.42,-51.5 304.42,-48 294.42,-44.5 294.42,-51.5"/>
</g>
<!-- Node22 -->
<g id="node22" class="node">
<title>Node22</title>
<g id="a_node22"><a xlink:href="class_entity.html#a048e30a0b851dc9073d5ec40396e38a4" target="_top" xlink:title="Accesseur modifiant la données membre &#39;isDead&#39; d&#39;un ennemi.">
<polygon fill="none" stroke="black" points="294.5,-0.5 294.5,-19.5 393.5,-19.5 393.5,-0.5 294.5,-0.5"/>
<text text-anchor="middle" x="344" y="-7.5" font-family="Helvetica,sans-Serif" font-size="10.00">Entity::setIsDead</text>
</a>
</g>
</g>
<!-- Node19&#45;&gt;Node22 -->
<g id="edge21" class="edge">
<title>Node19&#45;&gt;Node22</title>
<path fill="none" stroke="midnightblue" d="M212.08,-38.51C235.51,-33.41 264.59,-27.08 289.39,-21.68"/>
<polygon fill="midnightblue" stroke="midnightblue" points="290.34,-25.05 299.37,-19.5 288.85,-18.21 290.34,-25.05"/>
</g>
</g>
</svg>
