<?xml version="1.0" encoding="UTF-8" standalone="no"?>
<!DOCTYPE svg PUBLIC "-//W3C//DTD SVG 1.1//EN"
 "http://www.w3.org/Graphics/SVG/1.1/DTD/svg11.dtd">
<!-- Generated by graphviz version 2.43.0 (0)
 -->
<!-- Title: txtLoop Pages: 1 -->
<svg width="578pt" height="826pt"
 viewBox="0.00 0.00 578.00 826.00" xmlns="http://www.w3.org/2000/svg" xmlns:xlink="http://www.w3.org/1999/xlink">
<g id="graph0" class="graph" transform="scale(1 1) rotate(0) translate(4 822)">
<title>txtLoop</title>
<!-- Node1 -->
<g id="node1" class="node">
<title>Node1</title>
<g id="a_node1"><a xlink:title="Boucle pour l&#39;affichage et la gestion des évènements.">
<polygon fill="#bfbfbf" stroke="black" points="0,-646.5 0,-665.5 53,-665.5 53,-646.5 0,-646.5"/>
<text text-anchor="middle" x="26.5" y="-653.5" font-family="Helvetica,sans-Serif" font-size="10.00">txtLoop</text>
</a>
</g>
</g>
<!-- Node2 -->
<g id="node2" class="node">
<title>Node2</title>
<g id="a_node2"><a xlink:href="class_game.html#ab2b46f22140705ec36019c777fd7eaa6" target="_top" xlink:title="Procédure ajoutant une tour archer active (max 5)">
<polygon fill="none" stroke="black" points="93,-798.5 93,-817.5 213,-817.5 213,-798.5 93,-798.5"/>
<text text-anchor="middle" x="153" y="-805.5" font-family="Helvetica,sans-Serif" font-size="10.00">Game::addTowerArch</text>
</a>
</g>
</g>
<!-- Node1&#45;&gt;Node2 -->
<g id="edge1" class="edge">
<title>Node1&#45;&gt;Node2</title>
<path fill="none" stroke="midnightblue" d="M29.16,-665.66C33.88,-690.09 49.63,-754.8 89,-789 90.96,-790.7 93.07,-792.26 95.29,-793.67"/>
<polygon fill="midnightblue" stroke="midnightblue" points="93.81,-796.85 104.29,-798.46 97.1,-790.67 93.81,-796.85"/>
</g>
<!-- Node3 -->
<g id="node3" class="node">
<title>Node3</title>
<g id="a_node3"><a xlink:href="class_game.html#a4e6bf45020c047f7ad8c0d7a5444d5ee" target="_top" xlink:title="Procédure ajoutant une tour magique active (max 5)">
<polygon fill="none" stroke="black" points="89.5,-760.5 89.5,-779.5 216.5,-779.5 216.5,-760.5 89.5,-760.5"/>
<text text-anchor="middle" x="153" y="-767.5" font-family="Helvetica,sans-Serif" font-size="10.00">Game::addTowerBomb</text>
</a>
</g>
</g>
<!-- Node1&#45;&gt;Node3 -->
<g id="edge2" class="edge">
<title>Node1&#45;&gt;Node3</title>
<path fill="none" stroke="midnightblue" d="M31.1,-665.69C38.72,-684.91 58.38,-727.98 89,-751 91.6,-752.96 94.41,-754.71 97.33,-756.29"/>
<polygon fill="midnightblue" stroke="midnightblue" points="95.87,-759.47 106.41,-760.5 98.81,-753.12 95.87,-759.47"/>
</g>
<!-- Node4 -->
<g id="node4" class="node">
<title>Node4</title>
<g id="a_node4"><a xlink:href="class_game.html#ac2fa476218f3ad100f7029e7d78183e9" target="_top" xlink:title="Procédure ajoutant une tour magique active (max 5)">
<polygon fill="none" stroke="black" points="89,-722.5 89,-741.5 217,-741.5 217,-722.5 89,-722.5"/>
<text text-anchor="middle" x="153" y="-729.5" font-family="Helvetica,sans-Serif" font-size="10.00">Game::addTowerMagic</text>
</a>
</g>
</g>
<!-- Node1&#45;&gt;Node4 -->
<g id="edge3" class="edge">
<title>Node1&#45;&gt;Node4</title>
<path fill="none" stroke="midnightblue" d="M35.62,-665.92C46.51,-678.6 67.02,-700.41 89,-713 92.74,-715.14 96.74,-717.06 100.84,-718.78"/>
<polygon fill="midnightblue" stroke="midnightblue" points="99.96,-722.19 110.55,-722.44 102.43,-715.64 99.96,-722.19"/>
</g>
<!-- Node5 -->
<g id="node5" class="node">
<title>Node5</title>
<g id="a_node5"><a xlink:href="class_game.html#acd26cbdfb8fa7cec1832711e618fec45" target="_top" xlink:title="Fonction gérant tous les évènements automatiques du jeu.">
<polygon fill="none" stroke="black" points="99.5,-684.5 99.5,-703.5 206.5,-703.5 206.5,-684.5 99.5,-684.5"/>
<text text-anchor="middle" x="153" y="-691.5" font-family="Helvetica,sans-Serif" font-size="10.00">Game::autoEvents</text>
</a>
</g>
</g>
<!-- Node1&#45;&gt;Node5 -->
<g id="edge4" class="edge">
<title>Node1&#45;&gt;Node5</title>
<path fill="none" stroke="midnightblue" d="M53.22,-663.99C64.23,-667.4 77.24,-671.41 89,-675 95.99,-677.13 103.41,-679.39 110.62,-681.56"/>
<polygon fill="midnightblue" stroke="midnightblue" points="109.68,-684.93 120.26,-684.47 111.7,-678.23 109.68,-684.93"/>
</g>
<!-- Node6 -->
<g id="node6" class="node">
<title>Node6</title>
<g id="a_node6"><a xlink:href="class_window_t_x_t.html#a05997a70b080e106a15520a52d82fd2c" target="_top" xlink:title="Fonction permettant de recevoir un caractère tapé au clavier.">
<polygon fill="none" stroke="black" points="99,-646.5 99,-665.5 207,-665.5 207,-646.5 99,-646.5"/>
<text text-anchor="middle" x="153" y="-653.5" font-family="Helvetica,sans-Serif" font-size="10.00">WindowTXT::getCh</text>
</a>
</g>
</g>
<!-- Node1&#45;&gt;Node6 -->
<g id="edge5" class="edge">
<title>Node1&#45;&gt;Node6</title>
<path fill="none" stroke="midnightblue" d="M53.3,-656C63.69,-656 76.19,-656 88.73,-656"/>
<polygon fill="midnightblue" stroke="midnightblue" points="88.77,-659.5 98.77,-656 88.77,-652.5 88.77,-659.5"/>
</g>
<!-- Node8 -->
<g id="node8" class="node">
<title>Node8</title>
<g id="a_node8"><a xlink:href="class_game.html#a74dda151003b81807c663d07eda2c657" target="_top" xlink:title=" ">
<polygon fill="none" stroke="black" points="270.5,-608.5 270.5,-627.5 386.5,-627.5 386.5,-608.5 270.5,-608.5"/>
<text text-anchor="middle" x="328.5" y="-615.5" font-family="Helvetica,sans-Serif" font-size="10.00">Game::getConstMap</text>
</a>
</g>
</g>
<!-- Node1&#45;&gt;Node8 -->
<g id="edge7" class="edge">
<title>Node1&#45;&gt;Node8</title>
<path fill="none" stroke="midnightblue" d="M53.21,-646.67C64.11,-643.08 77.04,-639.3 89,-637 146.01,-626.06 211.85,-621.4 259.89,-619.43"/>
<polygon fill="midnightblue" stroke="midnightblue" points="260.31,-622.92 270.16,-619.04 260.04,-615.92 260.31,-622.92"/>
</g>
<!-- Node9 -->
<g id="node9" class="node">
<title>Node9</title>
<g id="a_node9"><a xlink:href="class_map.html#a421954a09241f064e551c84f6f044744" target="_top" xlink:title="Renvoie la largeur du terrain.">
<polygon fill="none" stroke="black" points="285.5,-570.5 285.5,-589.5 371.5,-589.5 371.5,-570.5 285.5,-570.5"/>
<text text-anchor="middle" x="328.5" y="-577.5" font-family="Helvetica,sans-Serif" font-size="10.00">Map::getDimX</text>
</a>
</g>
</g>
<!-- Node1&#45;&gt;Node9 -->
<g id="edge8" class="edge">
<title>Node1&#45;&gt;Node9</title>
<path fill="none" stroke="midnightblue" d="M39.92,-646.26C51.82,-637.44 70.65,-624.82 89,-618 150.46,-595.16 225.83,-586.05 275.18,-582.41"/>
<polygon fill="midnightblue" stroke="midnightblue" points="275.56,-585.89 285.3,-581.71 275.08,-578.91 275.56,-585.89"/>
</g>
<!-- Node10 -->
<g id="node10" class="node">
<title>Node10</title>
<g id="a_node10"><a xlink:href="class_map.html#a1de1775f4a648f64d2310763dc10affe" target="_top" xlink:title="Renvoie la hauteur du terrain.">
<polygon fill="none" stroke="black" points="285.5,-532.5 285.5,-551.5 371.5,-551.5 371.5,-532.5 285.5,-532.5"/>
<text text-anchor="middle" x="328.5" y="-539.5" font-family="Helvetica,sans-Serif" font-size="10.00">Map::getDimY</text>
</a>
</g>
</g>
<!-- Node1&#45;&gt;Node10 -->
<g id="edge9" class="edge">
<title>Node1&#45;&gt;Node10</title>
<path fill="none" stroke="midnightblue" d="M32.68,-646.45C41.8,-630.64 62.31,-599.25 89,-584 146.89,-550.92 224.57,-542.71 275.32,-541.25"/>
<polygon fill="midnightblue" stroke="midnightblue" points="275.48,-544.75 285.41,-541.04 275.33,-537.75 275.48,-544.75"/>
</g>
<!-- Node11 -->
<g id="node11" class="node">
<title>Node11</title>
<g id="a_node11"><a xlink:href="_game_t_x_t_8cpp.html#a79f96f754efd066587bec9a3d0d0add7" target="_top" xlink:title="Fonction dans lequel l&#39;affichage se fait.">
<polygon fill="none" stroke="black" points="125,-323.5 125,-342.5 181,-342.5 181,-323.5 125,-323.5"/>
<text text-anchor="middle" x="153" y="-330.5" font-family="Helvetica,sans-Serif" font-size="10.00">txtShow</text>
</a>
</g>
</g>
<!-- Node1&#45;&gt;Node11 -->
<g id="edge10" class="edge">
<title>Node1&#45;&gt;Node11</title>
<path fill="none" stroke="midnightblue" d="M31.23,-646.33C48.52,-601.48 121.08,-413.22 144.6,-352.19"/>
<polygon fill="midnightblue" stroke="midnightblue" points="147.96,-353.22 148.29,-342.63 141.43,-350.7 147.96,-353.22"/>
</g>
<!-- Node7 -->
<g id="node7" class="node">
<title>Node7</title>
<g id="a_node7"><a xlink:href="window_t_x_t_8cpp.html#a22f527b59d86c3eb3e750e7e2057ca4f" target="_top" xlink:title=" ">
<polygon fill="none" stroke="black" points="308,-646.5 308,-665.5 349,-665.5 349,-646.5 308,-646.5"/>
<text text-anchor="middle" x="328.5" y="-653.5" font-family="Helvetica,sans-Serif" font-size="10.00">khbit</text>
</a>
</g>
</g>
<!-- Node6&#45;&gt;Node7 -->
<g id="edge6" class="edge">
<title>Node6&#45;&gt;Node7</title>
<path fill="none" stroke="midnightblue" d="M207.47,-656C237.13,-656 272.91,-656 297.65,-656"/>
<polygon fill="midnightblue" stroke="midnightblue" points="297.85,-659.5 307.85,-656 297.85,-652.5 297.85,-659.5"/>
</g>
<!-- Node11&#45;&gt;Node8 -->
<g id="edge15" class="edge">
<title>Node11&#45;&gt;Node8</title>
<path fill="none" stroke="midnightblue" d="M154.52,-342.74C157.14,-381.52 172.19,-526.37 253,-599 255.53,-601.28 258.3,-603.29 261.23,-605.06"/>
<polygon fill="midnightblue" stroke="midnightblue" points="259.93,-608.33 270.43,-609.72 263.09,-602.08 259.93,-608.33"/>
</g>
<!-- Node11&#45;&gt;Node9 -->
<g id="edge20" class="edge">
<title>Node11&#45;&gt;Node9</title>
<path fill="none" stroke="midnightblue" d="M155.16,-342.55C159.95,-377.56 181.38,-500.01 253,-561 259.5,-566.54 267.4,-570.49 275.6,-573.31"/>
<polygon fill="midnightblue" stroke="midnightblue" points="274.72,-576.7 285.3,-576.13 276.67,-569.98 274.72,-576.7"/>
</g>
<!-- Node11&#45;&gt;Node10 -->
<g id="edge21" class="edge">
<title>Node11&#45;&gt;Node10</title>
<path fill="none" stroke="midnightblue" d="M156.08,-342.67C163.35,-374.01 190.61,-473.57 253,-523 259.62,-528.24 267.51,-532.06 275.65,-534.82"/>
<polygon fill="midnightblue" stroke="midnightblue" points="274.67,-538.18 285.25,-537.62 276.63,-531.46 274.67,-538.18"/>
</g>
<!-- Node12 -->
<g id="node12" class="node">
<title>Node12</title>
<g id="a_node12"><a xlink:href="class_window_t_x_t.html#a79659c7c121f98d9021e422a69d61333" target="_top" xlink:title="Fonction permettant de remplir le terminal d&#39;un même caractère.">
<polygon fill="none" stroke="black" points="276.5,-0.5 276.5,-19.5 380.5,-19.5 380.5,-0.5 276.5,-0.5"/>
<text text-anchor="middle" x="328.5" y="-7.5" font-family="Helvetica,sans-Serif" font-size="10.00">WindowTXT::clear</text>
</a>
</g>
</g>
<!-- Node11&#45;&gt;Node12 -->
<g id="edge11" class="edge">
<title>Node11&#45;&gt;Node12</title>
<path fill="none" stroke="midnightblue" d="M154.2,-323.38C155.61,-282.29 166.62,-119.68 253,-34 257.04,-29.99 261.75,-26.65 266.81,-23.87"/>
<polygon fill="midnightblue" stroke="midnightblue" points="268.65,-26.87 276.21,-19.44 265.67,-20.54 268.65,-26.87"/>
</g>
<!-- Node13 -->
<g id="node13" class="node">
<title>Node13</title>
<g id="a_node13"><a xlink:href="class_window_t_x_t.html#a0243ba21b4e67a20c74b94c0192e3e02" target="_top" xlink:title="Fonction permettant de remplir le tableau de caractère de la fenêtre.">
<polygon fill="none" stroke="black" points="454,-0.5 454,-19.5 556,-19.5 556,-0.5 454,-0.5"/>
<text text-anchor="middle" x="505" y="-7.5" font-family="Helvetica,sans-Serif" font-size="10.00">WindowTXT::print</text>
</a>
</g>
</g>
<!-- Node11&#45;&gt;Node13 -->
<g id="edge32" class="edge">
<title>Node11&#45;&gt;Node13</title>
<path fill="none" stroke="midnightblue" d="M154.45,-323.46C156.81,-284.85 171.05,-138.72 253,-67 260.37,-60.55 375.28,-36.22 447.04,-21.51"/>
<polygon fill="midnightblue" stroke="midnightblue" points="447.77,-24.93 456.86,-19.5 446.37,-18.08 447.77,-24.93"/>
</g>
<!-- Node14 -->
<g id="node14" class="node">
<title>Node14</title>
<g id="a_node14"><a xlink:href="class_window_t_x_t.html#a25d39d051d4874b61fe20311ab1b0f19" target="_top" xlink:title="Fonction permettant d&#39;afficher un caractère depuis un tableau de caractère sur le terminal.">
<polygon fill="none" stroke="black" points="276.5,-494.5 276.5,-513.5 380.5,-513.5 380.5,-494.5 276.5,-494.5"/>
<text text-anchor="middle" x="328.5" y="-501.5" font-family="Helvetica,sans-Serif" font-size="10.00">WindowTXT::draw</text>
</a>
</g>
</g>
<!-- Node11&#45;&gt;Node14 -->
<g id="edge13" class="edge">
<title>Node11&#45;&gt;Node14</title>
<path fill="none" stroke="midnightblue" d="M157.37,-342.61C167.37,-369.62 199.49,-446.67 253,-485 257.23,-488.03 261.9,-490.58 266.78,-492.72"/>
<polygon fill="midnightblue" stroke="midnightblue" points="265.77,-496.08 276.36,-496.36 268.26,-489.54 265.77,-496.08"/>
</g>
<!-- Node16 -->
<g id="node16" class="node">
<title>Node16</title>
<g id="a_node16"><a xlink:href="class_entity.html#a632a853b65d0468f138bc35efc0d317b" target="_top" xlink:title="Accesseur renvoyant la position en x d&#39;un ennemi de type const.">
<polygon fill="none" stroke="black" points="269.5,-456.5 269.5,-475.5 387.5,-475.5 387.5,-456.5 269.5,-456.5"/>
<text text-anchor="middle" x="328.5" y="-463.5" font-family="Helvetica,sans-Serif" font-size="10.00">Entity::getConstPosX</text>
</a>
</g>
</g>
<!-- Node11&#45;&gt;Node16 -->
<g id="edge16" class="edge">
<title>Node11&#45;&gt;Node16</title>
<path fill="none" stroke="midnightblue" d="M159.54,-342.69C172.7,-364.84 208.16,-419.34 253,-447 256.42,-449.11 260.06,-450.98 263.83,-452.65"/>
<polygon fill="midnightblue" stroke="midnightblue" points="262.81,-456.01 273.39,-456.38 265.35,-449.49 262.81,-456.01"/>
</g>
<!-- Node17 -->
<g id="node17" class="node">
<title>Node17</title>
<g id="a_node17"><a xlink:href="class_entity.html#a280a384eddb9c7bfb96547adfbb8f515" target="_top" xlink:title="Accesseur renvoyant la position en y d&#39;un ennemi de type const.">
<polygon fill="none" stroke="black" points="270,-418.5 270,-437.5 387,-437.5 387,-418.5 270,-418.5"/>
<text text-anchor="middle" x="328.5" y="-425.5" font-family="Helvetica,sans-Serif" font-size="10.00">Entity::getConstPosY</text>
</a>
</g>
</g>
<!-- Node11&#45;&gt;Node17 -->
<g id="edge17" class="edge">
<title>Node11&#45;&gt;Node17</title>
<path fill="none" stroke="midnightblue" d="M163.76,-342.73C180.53,-358.9 216.55,-391.29 253,-409 257.95,-411.41 263.24,-413.53 268.63,-415.4"/>
<polygon fill="midnightblue" stroke="midnightblue" points="267.81,-418.81 278.4,-418.5 269.92,-412.14 267.81,-418.81"/>
</g>
<!-- Node18 -->
<g id="node18" class="node">
<title>Node18</title>
<g id="a_node18"><a xlink:href="class_game.html#a74d75c5a787ceb100cad9f5c75894ff7" target="_top" xlink:title="Accesseur renvoyant ressources de type const.">
<polygon fill="none" stroke="black" points="253,-380.5 253,-399.5 404,-399.5 404,-380.5 253,-380.5"/>
<text text-anchor="middle" x="328.5" y="-387.5" font-family="Helvetica,sans-Serif" font-size="10.00">Game::getConstRessources</text>
</a>
</g>
</g>
<!-- Node11&#45;&gt;Node18 -->
<g id="edge18" class="edge">
<title>Node11&#45;&gt;Node18</title>
<path fill="none" stroke="midnightblue" d="M176.54,-342.52C196.43,-350.71 226.33,-362.51 253,-371 260.69,-373.45 268.9,-375.8 276.95,-377.96"/>
<polygon fill="midnightblue" stroke="midnightblue" points="276.1,-381.35 286.66,-380.5 277.87,-374.58 276.1,-381.35"/>
</g>
<!-- Node19 -->
<g id="node19" class="node">
<title>Node19</title>
<g id="a_node19"><a xlink:href="class_game.html#a15f72ecbe312a7d7d2e4939a7174d16e" target="_top" xlink:title=" ">
<polygon fill="none" stroke="black" points="266,-342.5 266,-361.5 391,-361.5 391,-342.5 266,-342.5"/>
<text text-anchor="middle" x="328.5" y="-349.5" font-family="Helvetica,sans-Serif" font-size="10.00">Game::getCountTower</text>
</a>
</g>
</g>
<!-- Node11&#45;&gt;Node19 -->
<g id="edge19" class="edge">
<title>Node11&#45;&gt;Node19</title>
<path fill="none" stroke="midnightblue" d="M181.11,-335.97C201.14,-338.16 229.39,-341.26 255.74,-344.14"/>
<polygon fill="midnightblue" stroke="midnightblue" points="255.4,-347.62 265.72,-345.23 256.16,-340.67 255.4,-347.62"/>
</g>
<!-- Node20 -->
<g id="node20" class="node">
<title>Node20</title>
<g id="a_node20"><a xlink:href="class_ressources.html#a49874b04539b14db66b1d70a0dc226c8" target="_top" xlink:title="Accesseur de la donnée membre gold.">
<polygon fill="none" stroke="black" points="270.5,-304.5 270.5,-323.5 386.5,-323.5 386.5,-304.5 270.5,-304.5"/>
<text text-anchor="middle" x="328.5" y="-311.5" font-family="Helvetica,sans-Serif" font-size="10.00">Ressources::getGold</text>
</a>
</g>
</g>
<!-- Node11&#45;&gt;Node20 -->
<g id="edge22" class="edge">
<title>Node11&#45;&gt;Node20</title>
<path fill="none" stroke="midnightblue" d="M181.11,-330.03C202.33,-327.71 232.78,-324.37 260.42,-321.35"/>
<polygon fill="midnightblue" stroke="midnightblue" points="260.89,-324.82 270.45,-320.25 260.13,-317.86 260.89,-324.82"/>
</g>
<!-- Node21 -->
<g id="node21" class="node">
<title>Node21</title>
<g id="a_node21"><a xlink:href="class_game.html#a12bc238997269a5a7056ae8e61a0ed32" target="_top" xlink:title="Fonction modifiant le nombre de tours actives.">
<polygon fill="none" stroke="black" points="274.5,-266.5 274.5,-285.5 382.5,-285.5 382.5,-266.5 274.5,-266.5"/>
<text text-anchor="middle" x="328.5" y="-273.5" font-family="Helvetica,sans-Serif" font-size="10.00">Game::getItEnemy</text>
</a>
</g>
</g>
<!-- Node11&#45;&gt;Node21 -->
<g id="edge23" class="edge">
<title>Node11&#45;&gt;Node21</title>
<path fill="none" stroke="midnightblue" d="M176.54,-323.48C196.43,-315.29 226.33,-303.49 253,-295 260.69,-292.55 268.9,-290.2 276.95,-288.04"/>
<polygon fill="midnightblue" stroke="midnightblue" points="277.87,-291.42 286.66,-285.5 276.1,-284.65 277.87,-291.42"/>
</g>
<!-- Node22 -->
<g id="node22" class="node">
<title>Node22</title>
<g id="a_node22"><a xlink:href="class_game.html#a01ba88b54739851f18d26a91c448b063" target="_top" xlink:title="Fonction modifiant le nombre de tours actives.">
<polygon fill="none" stroke="black" points="268.5,-228.5 268.5,-247.5 388.5,-247.5 388.5,-228.5 268.5,-228.5"/>
<text text-anchor="middle" x="328.5" y="-235.5" font-family="Helvetica,sans-Serif" font-size="10.00">Game::getItProjectile</text>
</a>
</g>
</g>
<!-- Node11&#45;&gt;Node22 -->
<g id="edge24" class="edge">
<title>Node11&#45;&gt;Node22</title>
<path fill="none" stroke="midnightblue" d="M163.76,-323.27C180.53,-307.1 216.55,-274.71 253,-257 257.95,-254.59 263.24,-252.47 268.63,-250.6"/>
<polygon fill="midnightblue" stroke="midnightblue" points="269.92,-253.86 278.4,-247.5 267.81,-247.19 269.92,-253.86"/>
</g>
<!-- Node23 -->
<g id="node23" class="node">
<title>Node23</title>
<g id="a_node23"><a xlink:href="class_game.html#a696cd9a1e18e88e31672cc1cd894cbc4" target="_top" xlink:title="Fonction modifiant le nombre de tours actives.">
<polygon fill="none" stroke="black" points="277,-190.5 277,-209.5 380,-209.5 380,-190.5 277,-190.5"/>
<text text-anchor="middle" x="328.5" y="-197.5" font-family="Helvetica,sans-Serif" font-size="10.00">Game::getItTower</text>
</a>
</g>
</g>
<!-- Node11&#45;&gt;Node23 -->
<g id="edge25" class="edge">
<title>Node11&#45;&gt;Node23</title>
<path fill="none" stroke="midnightblue" d="M159.54,-323.31C172.7,-301.16 208.16,-246.66 253,-219 257.43,-216.27 262.24,-213.93 267.21,-211.92"/>
<polygon fill="midnightblue" stroke="midnightblue" points="268.67,-215.12 276.91,-208.46 266.32,-208.52 268.67,-215.12"/>
</g>
<!-- Node24 -->
<g id="node24" class="node">
<title>Node24</title>
<g id="a_node24"><a xlink:href="class_castle.html#a1a0ffead4bbaaf276f73a37875e12aba" target="_top" xlink:title="Accesseur de la donnée membre PVCastle.">
<polygon fill="none" stroke="black" points="287.5,-152.5 287.5,-171.5 369.5,-171.5 369.5,-152.5 287.5,-152.5"/>
<text text-anchor="middle" x="328.5" y="-159.5" font-family="Helvetica,sans-Serif" font-size="10.00">Castle::getPV</text>
</a>
</g>
</g>
<!-- Node11&#45;&gt;Node24 -->
<g id="edge26" class="edge">
<title>Node11&#45;&gt;Node24</title>
<path fill="none" stroke="midnightblue" d="M157.37,-323.39C167.37,-296.38 199.49,-219.33 253,-181 260.25,-175.8 268.8,-172.03 277.47,-169.28"/>
<polygon fill="midnightblue" stroke="midnightblue" points="278.52,-172.62 287.24,-166.6 276.67,-165.87 278.52,-172.62"/>
</g>
<!-- Node25 -->
<g id="node25" class="node">
<title>Node25</title>
<g id="a_node25"><a xlink:href="class_map.html#a988891fac3660f96ca3b205244a30406" target="_top" xlink:title="Fonction renvoyant le caractère aux coordonnées (x,y) de la map.">
<polygon fill="none" stroke="black" points="292.5,-114.5 292.5,-133.5 364.5,-133.5 364.5,-114.5 292.5,-114.5"/>
<text text-anchor="middle" x="328.5" y="-121.5" font-family="Helvetica,sans-Serif" font-size="10.00">Map::getXY</text>
</a>
</g>
</g>
<!-- Node11&#45;&gt;Node25 -->
<g id="edge27" class="edge">
<title>Node11&#45;&gt;Node25</title>
<path fill="none" stroke="midnightblue" d="M156.08,-323.33C163.35,-291.99 190.61,-192.43 253,-143 261.4,-136.34 271.87,-131.99 282.27,-129.15"/>
<polygon fill="midnightblue" stroke="midnightblue" points="283.21,-132.53 292.16,-126.87 281.63,-125.71 283.21,-132.53"/>
</g>
<!-- Node26 -->
<g id="node26" class="node">
<title>Node26</title>
<g id="a_node26"><a xlink:href="class_enemy.html#a038e636d16b708f92627348a36750702" target="_top" xlink:title=" ">
<polygon fill="none" stroke="black" points="284,-76.5 284,-95.5 373,-95.5 373,-76.5 284,-76.5"/>
<text text-anchor="middle" x="328.5" y="-83.5" font-family="Helvetica,sans-Serif" font-size="10.00">Enemy::isDead</text>
</a>
</g>
</g>
<!-- Node11&#45;&gt;Node26 -->
<g id="edge28" class="edge">
<title>Node11&#45;&gt;Node26</title>
<path fill="none" stroke="midnightblue" d="M155.16,-323.45C159.95,-288.44 181.38,-165.99 253,-105 259.07,-99.83 266.37,-96.03 273.99,-93.26"/>
<polygon fill="midnightblue" stroke="midnightblue" points="275.22,-96.54 283.75,-90.26 273.16,-89.85 275.22,-96.54"/>
</g>
<!-- Node12&#45;&gt;Node13 -->
<g id="edge12" class="edge">
<title>Node12&#45;&gt;Node13</title>
<path fill="none" stroke="midnightblue" d="M380.91,-10C400.61,-10 423.25,-10 443.7,-10"/>
<polygon fill="midnightblue" stroke="midnightblue" points="443.86,-13.5 453.86,-10 443.86,-6.5 443.86,-13.5"/>
</g>
<!-- Node15 -->
<g id="node15" class="node">
<title>Node15</title>
<g id="a_node15"><a xlink:href="class_window_t_x_t.html#a73e94d4d47e2948899bc75c6b32e177a" target="_top" xlink:title="Fonction permettant de bouger le curseur du terminal.">
<polygon fill="none" stroke="black" points="440,-494.5 440,-513.5 570,-513.5 570,-494.5 440,-494.5"/>
<text text-anchor="middle" x="505" y="-501.5" font-family="Helvetica,sans-Serif" font-size="10.00">WindowTXT::termMove</text>
</a>
</g>
</g>
<!-- Node14&#45;&gt;Node15 -->
<g id="edge14" class="edge">
<title>Node14&#45;&gt;Node15</title>
<path fill="none" stroke="midnightblue" d="M380.91,-504C396.23,-504 413.33,-504 429.8,-504"/>
<polygon fill="midnightblue" stroke="midnightblue" points="429.95,-507.5 439.95,-504 429.95,-500.5 429.95,-507.5"/>
</g>
<!-- Node27 -->
<g id="node27" class="node">
<title>Node27</title>
<g id="a_node27"><a xlink:href="class_entity.html#a4c3de4661a585b0bd42bd16ce9cc5002" target="_top" xlink:title="Accesseur renvoyant la valeur de la donnée membre &#39;isDead&#39; d&#39;un ennemi.">
<polygon fill="none" stroke="black" points="455,-38.5 455,-57.5 555,-57.5 555,-38.5 455,-38.5"/>
<text text-anchor="middle" x="505" y="-45.5" font-family="Helvetica,sans-Serif" font-size="10.00">Entity::getIsDead</text>
</a>
</g>
</g>
<!-- Node26&#45;&gt;Node27 -->
<g id="edge29" class="edge">
<title>Node26&#45;&gt;Node27</title>
<path fill="none" stroke="midnightblue" d="M373.08,-76.51C396.51,-71.41 425.59,-65.08 450.39,-59.68"/>
<polygon fill="midnightblue" stroke="midnightblue" points="451.34,-63.05 460.37,-57.5 449.85,-56.21 451.34,-63.05"/>
</g>
<!-- Node28 -->
<g id="node28" class="node">
<title>Node28</title>
<g id="a_node28"><a xlink:href="class_entity.html#a334b52f5de8bbd7fb81f8bbeec08992b" target="_top" xlink:title="Accesseur renvoyant les points de vie d&#39;un ennemi.">
<polygon fill="none" stroke="black" points="465.5,-114.5 465.5,-133.5 544.5,-133.5 544.5,-114.5 465.5,-114.5"/>
<text text-anchor="middle" x="505" y="-121.5" font-family="Helvetica,sans-Serif" font-size="10.00">Entity::getPV</text>
</a>
</g>
</g>
<!-- Node26&#45;&gt;Node28 -->
<g id="edge30" class="edge">
<title>Node26&#45;&gt;Node28</title>
<path fill="none" stroke="midnightblue" d="M373.08,-95.49C398.13,-100.94 429.63,-107.81 455.46,-113.43"/>
<polygon fill="midnightblue" stroke="midnightblue" points="454.91,-116.89 465.42,-115.6 456.4,-110.05 454.91,-116.89"/>
</g>
<!-- Node29 -->
<g id="node29" class="node">
<title>Node29</title>
<g id="a_node29"><a xlink:href="class_entity.html#a048e30a0b851dc9073d5ec40396e38a4" target="_top" xlink:title="Accesseur modifiant la données membre &#39;isDead&#39; d&#39;un ennemi.">
<polygon fill="none" stroke="black" points="455.5,-76.5 455.5,-95.5 554.5,-95.5 554.5,-76.5 455.5,-76.5"/>
<text text-anchor="middle" x="505" y="-83.5" font-family="Helvetica,sans-Serif" font-size="10.00">Entity::setIsDead</text>
</a>
</g>
</g>
<!-- Node26&#45;&gt;Node29 -->
<g id="edge31" class="edge">
<title>Node26&#45;&gt;Node29</title>
<path fill="none" stroke="midnightblue" d="M373.08,-86C394.89,-86 421.6,-86 445.2,-86"/>
<polygon fill="midnightblue" stroke="midnightblue" points="445.44,-89.5 455.44,-86 445.44,-82.5 445.44,-89.5"/>
</g>
</g>
</svg>
