<?xml version="1.0" encoding="UTF-8" standalone="no"?>
<!DOCTYPE svg PUBLIC "-//W3C//DTD SVG 1.1//EN"
 "http://www.w3.org/Graphics/SVG/1.1/DTD/svg11.dtd">
<!-- Generated by graphviz version 2.43.0 (0)
 -->
<!-- Title: src/core/Game.h Pages: 1 -->
<svg width="310pt" height="140pt"
 viewBox="0.00 0.00 310.00 140.00" xmlns="http://www.w3.org/2000/svg" xmlns:xlink="http://www.w3.org/1999/xlink">
<g id="graph0" class="graph" transform="scale(1 1) rotate(0) translate(4 136)">
<title>src/core/Game.h</title>
<!-- Node1 -->
<g id="node1" class="node">
<title>Node1</title>
<g id="a_node1"><a xlink:title="Définition des donées membres et des fonctions membres de la classe Game.">
<polygon fill="#bfbfbf" stroke="black" points="67.5,-112.5 67.5,-131.5 163.5,-131.5 163.5,-112.5 67.5,-112.5"/>
<text text-anchor="middle" x="115.5" y="-119.5" font-family="Helvetica,sans-Serif" font-size="10.00">src/core/Game.h</text>
</a>
</g>
</g>
<!-- Node2 -->
<g id="node2" class="node">
<title>Node2</title>
<g id="a_node2"><a xlink:href="_game_8cpp.html" target="_top" xlink:title=" ">
<polygon fill="none" stroke="black" points="0,-56.5 0,-75.5 107,-75.5 107,-56.5 0,-56.5"/>
<text text-anchor="middle" x="53.5" y="-63.5" font-family="Helvetica,sans-Serif" font-size="10.00">src/core/Game.cpp</text>
</a>
</g>
</g>
<!-- Node1&#45;&gt;Node2 -->
<g id="edge1" class="edge">
<title>Node1&#45;&gt;Node2</title>
<path fill="none" stroke="midnightblue" d="M97.75,-105.54C86.69,-95.91 72.87,-83.87 63.64,-75.83"/>
<polygon fill="midnightblue" stroke="midnightblue" points="95.7,-108.4 105.54,-112.32 100.3,-103.12 95.7,-108.4"/>
</g>
<!-- Node3 -->
<g id="node3" class="node">
<title>Node3</title>
<g id="a_node3"><a xlink:href="_game_t_x_t_8h.html" target="_top" xlink:title="Fichier s&#39;occupant de l&#39;affichage du jeu en mode texte.">
<polygon fill="none" stroke="black" points="125,-56.5 125,-75.5 232,-75.5 232,-56.5 125,-56.5"/>
<text text-anchor="middle" x="178.5" y="-63.5" font-family="Helvetica,sans-Serif" font-size="10.00">src/txt/GameTXT.h</text>
</a>
</g>
</g>
<!-- Node1&#45;&gt;Node3 -->
<g id="edge2" class="edge">
<title>Node1&#45;&gt;Node3</title>
<path fill="none" stroke="midnightblue" d="M133.54,-105.54C144.77,-95.91 158.82,-83.87 168.19,-75.83"/>
<polygon fill="midnightblue" stroke="midnightblue" points="130.94,-103.16 125.62,-112.32 135.49,-108.47 130.94,-103.16"/>
</g>
<!-- Node4 -->
<g id="node4" class="node">
<title>Node4</title>
<g id="a_node4"><a xlink:href="_game_t_x_t_8cpp.html" target="_top" xlink:title=" ">
<polygon fill="none" stroke="black" points="52.5,-0.5 52.5,-19.5 170.5,-19.5 170.5,-0.5 52.5,-0.5"/>
<text text-anchor="middle" x="111.5" y="-7.5" font-family="Helvetica,sans-Serif" font-size="10.00">src/txt/GameTXT.cpp</text>
</a>
</g>
</g>
<!-- Node3&#45;&gt;Node4 -->
<g id="edge3" class="edge">
<title>Node3&#45;&gt;Node4</title>
<path fill="none" stroke="midnightblue" d="M159.67,-49.82C147.66,-40.15 132.53,-27.95 122.46,-19.83"/>
<polygon fill="midnightblue" stroke="midnightblue" points="157.75,-52.77 167.74,-56.32 162.15,-47.32 157.75,-52.77"/>
</g>
<!-- Node5 -->
<g id="node5" class="node">
<title>Node5</title>
<g id="a_node5"><a xlink:href="main_t_x_t_8cpp.html" target="_top" xlink:title=" ">
<polygon fill="none" stroke="black" points="189,-0.5 189,-19.5 302,-19.5 302,-0.5 189,-0.5"/>
<text text-anchor="middle" x="245.5" y="-7.5" font-family="Helvetica,sans-Serif" font-size="10.00">src/txt/mainTXT.cpp</text>
</a>
</g>
</g>
<!-- Node3&#45;&gt;Node5 -->
<g id="edge4" class="edge">
<title>Node3&#45;&gt;Node5</title>
<path fill="none" stroke="midnightblue" d="M197.33,-49.82C209.34,-40.15 224.47,-27.95 234.54,-19.83"/>
<polygon fill="midnightblue" stroke="midnightblue" points="194.85,-47.32 189.26,-56.32 199.25,-52.77 194.85,-47.32"/>
</g>
</g>
</svg>
