<?xml version="1.0" encoding="UTF-8" standalone="no"?>
<!DOCTYPE svg PUBLIC "-//W3C//DTD SVG 1.1//EN"
 "http://www.w3.org/Graphics/SVG/1.1/DTD/svg11.dtd">
<!-- Generated by graphviz version 2.43.0 (0)
 -->
<!-- Title: txtShow Pages: 1 -->
<svg width="421pt" height="484pt"
 viewBox="0.00 0.00 421.00 484.00" xmlns="http://www.w3.org/2000/svg" xmlns:xlink="http://www.w3.org/1999/xlink">
<g id="graph0" class="graph" transform="scale(1 1) rotate(0) translate(4 480)">
<title>txtShow</title>
<!-- Node1 -->
<g id="node1" class="node">
<title>Node1</title>
<g id="a_node1"><a xlink:title="Fonction dans lequel l&#39;affichage se fait.">
<polygon fill="#bfbfbf" stroke="black" points="0,-228.5 0,-247.5 56,-247.5 56,-228.5 0,-228.5"/>
<text text-anchor="middle" x="28" y="-235.5" font-family="Helvetica,sans-Serif" font-size="10.00">txtShow</text>
</a>
</g>
</g>
<!-- Node2 -->
<g id="node2" class="node">
<title>Node2</title>
<g id="a_node2"><a xlink:href="class_window_t_x_t.html#a79659c7c121f98d9021e422a69d61333" target="_top" xlink:title="Fonction permettant de remplir le terminal d&#39;un même caractère.">
<polygon fill="none" stroke="black" points="117.5,-456.5 117.5,-475.5 221.5,-475.5 221.5,-456.5 117.5,-456.5"/>
<text text-anchor="middle" x="169.5" y="-463.5" font-family="Helvetica,sans-Serif" font-size="10.00">WindowTXT::clear</text>
</a>
</g>
</g>
<!-- Node1&#45;&gt;Node2 -->
<g id="edge1" class="edge">
<title>Node1&#45;&gt;Node2</title>
<path fill="none" stroke="midnightblue" d="M29,-247.68C29.55,-280.02 35.77,-385.52 92,-442 96.58,-446.6 102.02,-450.31 107.87,-453.32"/>
<polygon fill="midnightblue" stroke="midnightblue" points="106.75,-456.66 117.31,-457.49 109.57,-450.25 106.75,-456.66"/>
</g>
<!-- Node3 -->
<g id="node3" class="node">
<title>Node3</title>
<g id="a_node3"><a xlink:href="class_window_t_x_t.html#a0243ba21b4e67a20c74b94c0192e3e02" target="_top" xlink:title="Fonction permettant de remplir le tableau de caractère de la fenêtre.">
<polygon fill="none" stroke="black" points="297,-437.5 297,-456.5 399,-456.5 399,-437.5 297,-437.5"/>
<text text-anchor="middle" x="348" y="-444.5" font-family="Helvetica,sans-Serif" font-size="10.00">WindowTXT::print</text>
</a>
</g>
</g>
<!-- Node1&#45;&gt;Node3 -->
<g id="edge15" class="edge">
<title>Node1&#45;&gt;Node3</title>
<path fill="none" stroke="midnightblue" d="M29.33,-247.67C30.91,-277.18 39.97,-366.68 92,-409 121,-432.59 220.75,-441.58 286.56,-444.97"/>
<polygon fill="midnightblue" stroke="midnightblue" points="286.65,-448.48 296.81,-445.47 286.99,-441.49 286.65,-448.48"/>
</g>
<!-- Node4 -->
<g id="node4" class="node">
<title>Node4</title>
<g id="a_node4"><a xlink:href="class_window_t_x_t.html#a25d39d051d4874b61fe20311ab1b0f19" target="_top" xlink:title="Fonction permettant d&#39;afficher un caractère depuis un tableau de caractère sur le terminal.">
<polygon fill="none" stroke="black" points="117.5,-380.5 117.5,-399.5 221.5,-399.5 221.5,-380.5 117.5,-380.5"/>
<text text-anchor="middle" x="169.5" y="-387.5" font-family="Helvetica,sans-Serif" font-size="10.00">WindowTXT::draw</text>
</a>
</g>
</g>
<!-- Node1&#45;&gt;Node4 -->
<g id="edge3" class="edge">
<title>Node1&#45;&gt;Node4</title>
<path fill="none" stroke="midnightblue" d="M30.68,-247.78C35.45,-272.5 51.47,-337.82 92,-371 96.68,-374.83 102.03,-377.91 107.67,-380.37"/>
<polygon fill="midnightblue" stroke="midnightblue" points="106.78,-383.78 117.37,-383.97 109.21,-377.21 106.78,-383.78"/>
</g>
<!-- Node6 -->
<g id="node6" class="node">
<title>Node6</title>
<g id="a_node6"><a xlink:href="class_game.html#a74dda151003b81807c663d07eda2c657" target="_top" xlink:title="Accesseur renvoyant la map de type const.">
<polygon fill="none" stroke="black" points="111.5,-342.5 111.5,-361.5 227.5,-361.5 227.5,-342.5 111.5,-342.5"/>
<text text-anchor="middle" x="169.5" y="-349.5" font-family="Helvetica,sans-Serif" font-size="10.00">Game::getConstMap</text>
</a>
</g>
</g>
<!-- Node1&#45;&gt;Node6 -->
<g id="edge5" class="edge">
<title>Node1&#45;&gt;Node6</title>
<path fill="none" stroke="midnightblue" d="M32.54,-247.52C40.21,-266.83 60.3,-310.64 92,-333 95.09,-335.18 98.4,-337.11 101.86,-338.82"/>
<polygon fill="midnightblue" stroke="midnightblue" points="100.69,-342.13 111.26,-342.85 103.45,-335.69 100.69,-342.13"/>
</g>
<!-- Node7 -->
<g id="node7" class="node">
<title>Node7</title>
<g id="a_node7"><a xlink:href="class_entity.html#a632a853b65d0468f138bc35efc0d317b" target="_top" xlink:title="Accesseur renvoyant la position en x d&#39;un ennemi de type const.">
<polygon fill="none" stroke="black" points="110.5,-304.5 110.5,-323.5 228.5,-323.5 228.5,-304.5 110.5,-304.5"/>
<text text-anchor="middle" x="169.5" y="-311.5" font-family="Helvetica,sans-Serif" font-size="10.00">Entity::getConstPosX</text>
</a>
</g>
</g>
<!-- Node1&#45;&gt;Node7 -->
<g id="edge6" class="edge">
<title>Node1&#45;&gt;Node7</title>
<path fill="none" stroke="midnightblue" d="M36.9,-247.64C47.9,-260.43 69.09,-282.8 92,-295 96.3,-297.29 100.89,-299.31 105.6,-301.1"/>
<polygon fill="midnightblue" stroke="midnightblue" points="104.79,-304.52 115.38,-304.43 107.04,-297.89 104.79,-304.52"/>
</g>
<!-- Node8 -->
<g id="node8" class="node">
<title>Node8</title>
<g id="a_node8"><a xlink:href="class_entity.html#a280a384eddb9c7bfb96547adfbb8f515" target="_top" xlink:title="Accesseur renvoyant la position en y d&#39;un ennemi de type const.">
<polygon fill="none" stroke="black" points="111,-266.5 111,-285.5 228,-285.5 228,-266.5 111,-266.5"/>
<text text-anchor="middle" x="169.5" y="-273.5" font-family="Helvetica,sans-Serif" font-size="10.00">Entity::getConstPosY</text>
</a>
</g>
</g>
<!-- Node1&#45;&gt;Node8 -->
<g id="edge7" class="edge">
<title>Node1&#45;&gt;Node8</title>
<path fill="none" stroke="midnightblue" d="M56.2,-246.53C67.27,-249.91 80.21,-253.76 92,-257 100.53,-259.34 109.64,-261.72 118.48,-263.95"/>
<polygon fill="midnightblue" stroke="midnightblue" points="117.75,-267.38 128.3,-266.41 119.45,-260.59 117.75,-267.38"/>
</g>
<!-- Node9 -->
<g id="node9" class="node">
<title>Node9</title>
<g id="a_node9"><a xlink:href="class_game.html#a590078d6a58c9b1fa63d560df0b30ee6" target="_top" xlink:title="Accesseur renvoyant un projectile de type const.">
<polygon fill="none" stroke="black" points="99,-228.5 99,-247.5 240,-247.5 240,-228.5 99,-228.5"/>
<text text-anchor="middle" x="169.5" y="-235.5" font-family="Helvetica,sans-Serif" font-size="10.00">Game::getConstProjectile</text>
</a>
</g>
</g>
<!-- Node1&#45;&gt;Node9 -->
<g id="edge8" class="edge">
<title>Node1&#45;&gt;Node9</title>
<path fill="none" stroke="midnightblue" d="M56.23,-238C65.73,-238 76.94,-238 88.54,-238"/>
<polygon fill="midnightblue" stroke="midnightblue" points="88.79,-241.5 98.79,-238 88.79,-234.5 88.79,-241.5"/>
</g>
<!-- Node10 -->
<g id="node10" class="node">
<title>Node10</title>
<g id="a_node10"><a xlink:href="class_game.html#a8e1bd589715b549b76b06fc3e4f61f1c" target="_top" xlink:title="Accesseur renvoyant une tour de type const.">
<polygon fill="none" stroke="black" points="92,-190.5 92,-209.5 247,-209.5 247,-190.5 92,-190.5"/>
<text text-anchor="middle" x="169.5" y="-197.5" font-family="Helvetica,sans-Serif" font-size="10.00">Game::getConstTowerArcher</text>
</a>
</g>
</g>
<!-- Node1&#45;&gt;Node10 -->
<g id="edge9" class="edge">
<title>Node1&#45;&gt;Node10</title>
<path fill="none" stroke="midnightblue" d="M56.2,-229.47C67.27,-226.09 80.21,-222.24 92,-219 100.53,-216.66 109.64,-214.28 118.48,-212.05"/>
<polygon fill="midnightblue" stroke="midnightblue" points="119.45,-215.41 128.3,-209.59 117.75,-208.62 119.45,-215.41"/>
</g>
<!-- Node11 -->
<g id="node11" class="node">
<title>Node11</title>
<g id="a_node11"><a xlink:href="class_map.html#a421954a09241f064e551c84f6f044744" target="_top" xlink:title="Renvoie la largeur du terrain.">
<polygon fill="none" stroke="black" points="126.5,-152.5 126.5,-171.5 212.5,-171.5 212.5,-152.5 126.5,-152.5"/>
<text text-anchor="middle" x="169.5" y="-159.5" font-family="Helvetica,sans-Serif" font-size="10.00">Map::getDimX</text>
</a>
</g>
</g>
<!-- Node1&#45;&gt;Node11 -->
<g id="edge10" class="edge">
<title>Node1&#45;&gt;Node11</title>
<path fill="none" stroke="midnightblue" d="M36.9,-228.36C47.9,-215.57 69.09,-193.2 92,-181 99.55,-176.98 107.98,-173.79 116.4,-171.26"/>
<polygon fill="midnightblue" stroke="midnightblue" points="117.5,-174.59 126.24,-168.59 115.67,-167.83 117.5,-174.59"/>
</g>
<!-- Node12 -->
<g id="node12" class="node">
<title>Node12</title>
<g id="a_node12"><a xlink:href="class_map.html#a1de1775f4a648f64d2310763dc10affe" target="_top" xlink:title="Renvoie la hauteur du terrain.">
<polygon fill="none" stroke="black" points="126.5,-114.5 126.5,-133.5 212.5,-133.5 212.5,-114.5 126.5,-114.5"/>
<text text-anchor="middle" x="169.5" y="-121.5" font-family="Helvetica,sans-Serif" font-size="10.00">Map::getDimY</text>
</a>
</g>
</g>
<!-- Node1&#45;&gt;Node12 -->
<g id="edge11" class="edge">
<title>Node1&#45;&gt;Node12</title>
<path fill="none" stroke="midnightblue" d="M32.54,-228.48C40.21,-209.17 60.3,-165.36 92,-143 99.31,-137.84 107.88,-134.08 116.59,-131.34"/>
<polygon fill="midnightblue" stroke="midnightblue" points="117.69,-134.66 126.41,-128.65 115.84,-127.91 117.69,-134.66"/>
</g>
<!-- Node13 -->
<g id="node13" class="node">
<title>Node13</title>
<g id="a_node13"><a xlink:href="class_game.html#a61492cc55812183eeddc681a5f5a4f1b" target="_top" xlink:title="Accesseur renvoyant un ennemi.">
<polygon fill="none" stroke="black" points="119,-76.5 119,-95.5 220,-95.5 220,-76.5 119,-76.5"/>
<text text-anchor="middle" x="169.5" y="-83.5" font-family="Helvetica,sans-Serif" font-size="10.00">Game::getEnemy</text>
</a>
</g>
</g>
<!-- Node1&#45;&gt;Node13 -->
<g id="edge12" class="edge">
<title>Node1&#45;&gt;Node13</title>
<path fill="none" stroke="midnightblue" d="M30.68,-228.22C35.45,-203.5 51.47,-138.18 92,-105 97.07,-100.85 102.93,-97.58 109.09,-95.02"/>
<polygon fill="midnightblue" stroke="midnightblue" points="110.69,-98.17 118.96,-91.55 108.37,-91.56 110.69,-98.17"/>
</g>
<!-- Node14 -->
<g id="node14" class="node">
<title>Node14</title>
<g id="a_node14"><a xlink:href="class_map.html#a988891fac3660f96ca3b205244a30406" target="_top" xlink:title="Fonction renvoyant le caractère aux coordonnées (x,y) de la map.">
<polygon fill="none" stroke="black" points="133.5,-38.5 133.5,-57.5 205.5,-57.5 205.5,-38.5 133.5,-38.5"/>
<text text-anchor="middle" x="169.5" y="-45.5" font-family="Helvetica,sans-Serif" font-size="10.00">Map::getXY</text>
</a>
</g>
</g>
<!-- Node1&#45;&gt;Node14 -->
<g id="edge13" class="edge">
<title>Node1&#45;&gt;Node14</title>
<path fill="none" stroke="midnightblue" d="M29.55,-228.14C31.72,-198.83 42.28,-111.55 92,-67 100.67,-59.23 112.03,-54.53 123.33,-51.71"/>
<polygon fill="midnightblue" stroke="midnightblue" points="124.08,-55.13 133.17,-49.69 122.67,-48.27 124.08,-55.13"/>
</g>
<!-- Node15 -->
<g id="node15" class="node">
<title>Node15</title>
<g id="a_node15"><a xlink:href="class_projectile.html#aa165871b916e32d9b69150e0dcd7a889" target="_top" xlink:title="Fonction renvoyant la valeur de la donnée membre _inRange.">
<polygon fill="none" stroke="black" points="111.5,-0.5 111.5,-19.5 227.5,-19.5 227.5,-0.5 111.5,-0.5"/>
<text text-anchor="middle" x="169.5" y="-7.5" font-family="Helvetica,sans-Serif" font-size="10.00">Projectile::isInRange</text>
</a>
</g>
</g>
<!-- Node1&#45;&gt;Node15 -->
<g id="edge14" class="edge">
<title>Node1&#45;&gt;Node15</title>
<path fill="none" stroke="midnightblue" d="M28.79,-228.42C28.62,-195.43 32.71,-85.44 92,-29 94.98,-26.16 98.32,-23.73 101.89,-21.64"/>
<polygon fill="midnightblue" stroke="midnightblue" points="103.69,-24.66 111.16,-17.15 100.63,-18.36 103.69,-24.66"/>
</g>
<!-- Node2&#45;&gt;Node3 -->
<g id="edge2" class="edge">
<title>Node2&#45;&gt;Node3</title>
<path fill="none" stroke="midnightblue" d="M221.55,-460.5C241.94,-458.31 265.56,-455.77 286.78,-453.48"/>
<polygon fill="midnightblue" stroke="midnightblue" points="287.41,-456.94 296.98,-452.38 286.66,-449.98 287.41,-456.94"/>
</g>
<!-- Node5 -->
<g id="node5" class="node">
<title>Node5</title>
<g id="a_node5"><a xlink:href="class_window_t_x_t.html#a73e94d4d47e2948899bc75c6b32e177a" target="_top" xlink:title="Fonction permettant de bouger le curseur du terminal.">
<polygon fill="none" stroke="black" points="283,-380.5 283,-399.5 413,-399.5 413,-380.5 283,-380.5"/>
<text text-anchor="middle" x="348" y="-387.5" font-family="Helvetica,sans-Serif" font-size="10.00">WindowTXT::termMove</text>
</a>
</g>
</g>
<!-- Node4&#45;&gt;Node5 -->
<g id="edge4" class="edge">
<title>Node4&#45;&gt;Node5</title>
<path fill="none" stroke="midnightblue" d="M221.55,-390C237.55,-390 255.55,-390 272.81,-390"/>
<polygon fill="midnightblue" stroke="midnightblue" points="272.87,-393.5 282.87,-390 272.87,-386.5 272.87,-393.5"/>
</g>
</g>
</svg>
