<?xml version="1.0" encoding="UTF-8" standalone="no"?>
<!DOCTYPE svg PUBLIC "-//W3C//DTD SVG 1.1//EN"
 "http://www.w3.org/Graphics/SVG/1.1/DTD/svg11.dtd">
<!-- Generated by graphviz version 2.43.0 (0)
 -->
<!-- Title: src/core/Game.cpp Pages: 1 -->
<svg width="876pt" height="252pt"
 viewBox="0.00 0.00 875.50 252.00" xmlns="http://www.w3.org/2000/svg" xmlns:xlink="http://www.w3.org/1999/xlink">
<g id="graph0" class="graph" transform="scale(1 1) rotate(0) translate(4 248)">
<title>src/core/Game.cpp</title>
<!-- Node1 -->
<g id="node1" class="node">
<title>Node1</title>
<g id="a_node1"><a xlink:title=" ">
<polygon fill="#bfbfbf" stroke="black" points="434.5,-224.5 434.5,-243.5 541.5,-243.5 541.5,-224.5 434.5,-224.5"/>
<text text-anchor="middle" x="488" y="-231.5" font-family="Helvetica,sans-Serif" font-size="10.00">src/core/Game.cpp</text>
</a>
</g>
</g>
<!-- Node2 -->
<g id="node2" class="node">
<title>Node2</title>
<g id="a_node2"><a xlink:title=" ">
<polygon fill="none" stroke="#bfbfbf" points="375,-0.5 375,-19.5 435,-19.5 435,-0.5 375,-0.5"/>
<text text-anchor="middle" x="405" y="-7.5" font-family="Helvetica,sans-Serif" font-size="10.00">iostream</text>
</a>
</g>
</g>
<!-- Node1&#45;&gt;Node2 -->
<g id="edge1" class="edge">
<title>Node1&#45;&gt;Node2</title>
<path fill="none" stroke="midnightblue" d="M476.42,-224.31C466.3,-216.08 452,-202.8 444,-188 436.45,-174.02 416.54,-71.95 408.47,-29.47"/>
<polygon fill="midnightblue" stroke="midnightblue" points="411.9,-28.79 406.61,-19.61 405.03,-30.09 411.9,-28.79"/>
</g>
<!-- Node3 -->
<g id="node3" class="node">
<title>Node3</title>
<g id="a_node3"><a xlink:href="_game_8h.html" target="_top" xlink:title="Définition des donées membres et des fonctions membres de la classe Game.">
<polygon fill="none" stroke="black" points="190.5,-112.5 190.5,-131.5 245.5,-131.5 245.5,-112.5 190.5,-112.5"/>
<text text-anchor="middle" x="218" y="-119.5" font-family="Helvetica,sans-Serif" font-size="10.00">Game.h</text>
</a>
</g>
</g>
<!-- Node1&#45;&gt;Node3 -->
<g id="edge2" class="edge">
<title>Node1&#45;&gt;Node3</title>
<path fill="none" stroke="midnightblue" d="M437.28,-224.48C401.97,-217.43 354.35,-205.69 315,-188 285.47,-174.73 255.03,-152.72 236.31,-138.04"/>
<polygon fill="midnightblue" stroke="midnightblue" points="238.35,-135.18 228.35,-131.68 233.98,-140.65 238.35,-135.18"/>
</g>
<!-- Node9 -->
<g id="node9" class="node">
<title>Node9</title>
<g id="a_node9"><a xlink:title=" ">
<polygon fill="none" stroke="#bfbfbf" points="345,-56.5 345,-75.5 377,-75.5 377,-56.5 345,-56.5"/>
<text text-anchor="middle" x="361" y="-63.5" font-family="Helvetica,sans-Serif" font-size="10.00">list</text>
</a>
</g>
</g>
<!-- Node1&#45;&gt;Node9 -->
<g id="edge31" class="edge">
<title>Node1&#45;&gt;Node9</title>
<path fill="none" stroke="midnightblue" d="M461.64,-224.46C426.3,-211.27 365.93,-182.08 348,-132 342.49,-116.61 347.1,-98.29 352.29,-85.03"/>
<polygon fill="midnightblue" stroke="midnightblue" points="355.6,-86.19 356.4,-75.63 349.18,-83.39 355.6,-86.19"/>
</g>
<!-- Node10 -->
<g id="node10" class="node">
<title>Node10</title>
<g id="a_node10"><a xlink:href="_enemy_8h.html" target="_top" xlink:title="Définition des donées membres et des fonctions membres de la classe Enemy.">
<polygon fill="none" stroke="black" points="357,-112.5 357,-131.5 415,-131.5 415,-112.5 357,-112.5"/>
<text text-anchor="middle" x="386" y="-119.5" font-family="Helvetica,sans-Serif" font-size="10.00">Enemy.h</text>
</a>
</g>
</g>
<!-- Node1&#45;&gt;Node10 -->
<g id="edge12" class="edge">
<title>Node1&#45;&gt;Node10</title>
<path fill="none" stroke="midnightblue" d="M464.25,-224.43C447.06,-217.13 424.41,-205.09 410,-188 398.74,-174.65 392.53,-155.53 389.27,-141.49"/>
<polygon fill="midnightblue" stroke="midnightblue" points="392.66,-140.62 387.24,-131.52 385.8,-142.01 392.66,-140.62"/>
</g>
<!-- Node13 -->
<g id="node13" class="node">
<title>Node13</title>
<g id="a_node13"><a xlink:href="_tower_8h.html" target="_top" xlink:title=" ">
<polygon fill="none" stroke="black" points="560.5,-112.5 560.5,-131.5 613.5,-131.5 613.5,-112.5 560.5,-112.5"/>
<text text-anchor="middle" x="587" y="-119.5" font-family="Helvetica,sans-Serif" font-size="10.00">Tower.h</text>
</a>
</g>
</g>
<!-- Node1&#45;&gt;Node13 -->
<g id="edge18" class="edge">
<title>Node1&#45;&gt;Node13</title>
<path fill="none" stroke="midnightblue" d="M541.85,-231.52C574.17,-227.5 612.97,-216.49 634,-188 646.72,-170.77 627.19,-150.77 609.56,-137.56"/>
<polygon fill="midnightblue" stroke="midnightblue" points="611.4,-134.57 601.22,-131.66 607.36,-140.29 611.4,-134.57"/>
</g>
<!-- Node14 -->
<g id="node14" class="node">
<title>Node14</title>
<g id="a_node14"><a xlink:href="_tower_archer_8h.html" target="_top" xlink:title="Définition des donées membres et des fonctions membres de la classe TowerArcher.">
<polygon fill="none" stroke="black" points="681.5,-168.5 681.5,-187.5 766.5,-187.5 766.5,-168.5 681.5,-168.5"/>
<text text-anchor="middle" x="724" y="-175.5" font-family="Helvetica,sans-Serif" font-size="10.00">TowerArcher.h</text>
</a>
</g>
</g>
<!-- Node1&#45;&gt;Node14 -->
<g id="edge20" class="edge">
<title>Node1&#45;&gt;Node14</title>
<path fill="none" stroke="midnightblue" d="M525.39,-224.44C566.39,-215.06 632.25,-199.99 676.78,-189.8"/>
<polygon fill="midnightblue" stroke="midnightblue" points="677.81,-193.16 686.78,-187.52 676.25,-186.34 677.81,-193.16"/>
</g>
<!-- Node15 -->
<g id="node15" class="node">
<title>Node15</title>
<g id="a_node15"><a xlink:href="_tower_magic_8h.html" target="_top" xlink:title="Définition des donées membres et des fonctions membres de la classe TowerMagic.">
<polygon fill="none" stroke="black" points="784.5,-168.5 784.5,-187.5 867.5,-187.5 867.5,-168.5 784.5,-168.5"/>
<text text-anchor="middle" x="826" y="-175.5" font-family="Helvetica,sans-Serif" font-size="10.00">TowerMagic.h</text>
</a>
</g>
</g>
<!-- Node1&#45;&gt;Node15 -->
<g id="edge22" class="edge">
<title>Node1&#45;&gt;Node15</title>
<path fill="none" stroke="midnightblue" d="M541.67,-224.99C597.41,-216.59 687.41,-202.79 774.25,-188.27"/>
<polygon fill="midnightblue" stroke="midnightblue" points="774.99,-191.69 784.27,-186.59 773.83,-184.79 774.99,-191.69"/>
</g>
<!-- Node16 -->
<g id="node16" class="node">
<title>Node16</title>
<g id="a_node16"><a xlink:href="_tower_bomb_8h.html" target="_top" xlink:title="Définition des donées membres et des fonctions membres de la class TowerBomb.">
<polygon fill="none" stroke="black" points="541.5,-168.5 541.5,-187.5 624.5,-187.5 624.5,-168.5 541.5,-168.5"/>
<text text-anchor="middle" x="583" y="-175.5" font-family="Helvetica,sans-Serif" font-size="10.00">TowerBomb.h</text>
</a>
</g>
</g>
<!-- Node1&#45;&gt;Node16 -->
<g id="edge24" class="edge">
<title>Node1&#45;&gt;Node16</title>
<path fill="none" stroke="midnightblue" d="M503.26,-224.32C518.22,-215.82 541.25,-202.73 558.73,-192.8"/>
<polygon fill="midnightblue" stroke="midnightblue" points="560.81,-195.64 567.77,-187.65 557.35,-189.55 560.81,-195.64"/>
</g>
<!-- Node17 -->
<g id="node17" class="node">
<title>Node17</title>
<g id="a_node17"><a xlink:href="_projectile_8h.html" target="_top" xlink:title="Définition des donées membres et des fonctions membres de la classe Projectile.">
<polygon fill="none" stroke="black" points="452.5,-168.5 452.5,-187.5 523.5,-187.5 523.5,-168.5 452.5,-168.5"/>
<text text-anchor="middle" x="488" y="-175.5" font-family="Helvetica,sans-Serif" font-size="10.00">Projectile.h</text>
</a>
</g>
</g>
<!-- Node1&#45;&gt;Node17 -->
<g id="edge26" class="edge">
<title>Node1&#45;&gt;Node17</title>
<path fill="none" stroke="midnightblue" d="M488,-224.08C488,-217.01 488,-206.86 488,-197.99"/>
<polygon fill="midnightblue" stroke="midnightblue" points="491.5,-197.75 488,-187.75 484.5,-197.75 491.5,-197.75"/>
</g>
<!-- Node4 -->
<g id="node4" class="node">
<title>Node4</title>
<g id="a_node4"><a xlink:href="_ressources_8h.html" target="_top" xlink:title=" ">
<polygon fill="none" stroke="black" points="177.5,-56.5 177.5,-75.5 258.5,-75.5 258.5,-56.5 177.5,-56.5"/>
<text text-anchor="middle" x="218" y="-63.5" font-family="Helvetica,sans-Serif" font-size="10.00">Ressources.h</text>
</a>
</g>
</g>
<!-- Node3&#45;&gt;Node4 -->
<g id="edge3" class="edge">
<title>Node3&#45;&gt;Node4</title>
<path fill="none" stroke="midnightblue" d="M218,-112.08C218,-105.01 218,-94.86 218,-85.99"/>
<polygon fill="midnightblue" stroke="midnightblue" points="221.5,-85.75 218,-75.75 214.5,-85.75 221.5,-85.75"/>
</g>
<!-- Node5 -->
<g id="node5" class="node">
<title>Node5</title>
<g id="a_node5"><a xlink:href="_road_8h.html" target="_top" xlink:title=" ">
<polygon fill="none" stroke="black" points="277,-56.5 277,-75.5 327,-75.5 327,-56.5 277,-56.5"/>
<text text-anchor="middle" x="302" y="-63.5" font-family="Helvetica,sans-Serif" font-size="10.00">Road.h</text>
</a>
</g>
</g>
<!-- Node3&#45;&gt;Node5 -->
<g id="edge5" class="edge">
<title>Node3&#45;&gt;Node5</title>
<path fill="none" stroke="midnightblue" d="M231.5,-112.32C244.6,-103.9 264.71,-90.97 280.11,-81.07"/>
<polygon fill="midnightblue" stroke="midnightblue" points="282.02,-84.01 288.54,-75.65 278.23,-78.12 282.02,-84.01"/>
</g>
<!-- Node6 -->
<g id="node6" class="node">
<title>Node6</title>
<g id="a_node6"><a xlink:title=" ">
<polygon fill="none" stroke="#bfbfbf" points="169.5,-0.5 169.5,-19.5 216.5,-19.5 216.5,-0.5 169.5,-0.5"/>
<text text-anchor="middle" x="193" y="-7.5" font-family="Helvetica,sans-Serif" font-size="10.00">vector</text>
</a>
</g>
</g>
<!-- Node3&#45;&gt;Node6 -->
<g id="edge10" class="edge">
<title>Node3&#45;&gt;Node6</title>
<path fill="none" stroke="midnightblue" d="M190.28,-118.79C162.93,-114.96 122.46,-104.51 103,-76 85.18,-49.89 127.14,-30.55 159.6,-20.03"/>
<polygon fill="midnightblue" stroke="midnightblue" points="160.76,-23.33 169.29,-17.05 158.7,-16.64 160.76,-23.33"/>
</g>
<!-- Node7 -->
<g id="node7" class="node">
<title>Node7</title>
<g id="a_node7"><a xlink:href="_map_8h.html" target="_top" xlink:title="Définition des donées membres et des fonctions membres de la classe Map.">
<polygon fill="none" stroke="black" points="112.5,-56.5 112.5,-75.5 159.5,-75.5 159.5,-56.5 112.5,-56.5"/>
<text text-anchor="middle" x="136" y="-63.5" font-family="Helvetica,sans-Serif" font-size="10.00">Map.h</text>
</a>
</g>
</g>
<!-- Node3&#45;&gt;Node7 -->
<g id="edge8" class="edge">
<title>Node3&#45;&gt;Node7</title>
<path fill="none" stroke="midnightblue" d="M204.83,-112.32C192.15,-103.98 172.77,-91.21 157.79,-81.35"/>
<polygon fill="midnightblue" stroke="midnightblue" points="159.42,-78.23 149.14,-75.65 155.57,-84.08 159.42,-78.23"/>
</g>
<!-- Node8 -->
<g id="node8" class="node">
<title>Node8</title>
<g id="a_node8"><a xlink:href="_castle_8h.html" target="_top" xlink:title="Définition des donées membres et des fonctions membres de la classe Castle.">
<polygon fill="none" stroke="black" points="0,-56.5 0,-75.5 56,-75.5 56,-56.5 0,-56.5"/>
<text text-anchor="middle" x="28" y="-63.5" font-family="Helvetica,sans-Serif" font-size="10.00">Castle.h</text>
</a>
</g>
</g>
<!-- Node3&#45;&gt;Node8 -->
<g id="edge9" class="edge">
<title>Node3&#45;&gt;Node8</title>
<path fill="none" stroke="midnightblue" d="M190.37,-113.15C157.63,-103.84 102.9,-88.29 66.14,-77.84"/>
<polygon fill="midnightblue" stroke="midnightblue" points="66.86,-74.41 56.28,-75.04 64.94,-81.14 66.86,-74.41"/>
</g>
<!-- Node3&#45;&gt;Node9 -->
<g id="edge11" class="edge">
<title>Node3&#45;&gt;Node9</title>
<path fill="none" stroke="midnightblue" d="M240.66,-112.44C266.36,-102.74 308.18,-86.95 335.14,-76.77"/>
<polygon fill="midnightblue" stroke="midnightblue" points="336.56,-79.97 344.67,-73.16 334.08,-73.42 336.56,-79.97"/>
</g>
<!-- Node4&#45;&gt;Node2 -->
<g id="edge4" class="edge">
<title>Node4&#45;&gt;Node2</title>
<path fill="none" stroke="midnightblue" d="M247.63,-56.44C279.5,-47.24 330.33,-32.56 365.56,-22.39"/>
<polygon fill="midnightblue" stroke="midnightblue" points="366.87,-25.65 375.51,-19.52 364.93,-18.93 366.87,-25.65"/>
</g>
<!-- Node5&#45;&gt;Node2 -->
<g id="edge6" class="edge">
<title>Node5&#45;&gt;Node2</title>
<path fill="none" stroke="midnightblue" d="M318.55,-56.32C334.99,-47.7 360.43,-34.36 379.47,-24.39"/>
<polygon fill="midnightblue" stroke="midnightblue" points="381.26,-27.4 388.49,-19.65 378.01,-21.2 381.26,-27.4"/>
</g>
<!-- Node5&#45;&gt;Node6 -->
<g id="edge7" class="edge">
<title>Node5&#45;&gt;Node6</title>
<path fill="none" stroke="midnightblue" d="M284.49,-56.32C266.93,-47.62 239.67,-34.12 219.47,-24.11"/>
<polygon fill="midnightblue" stroke="midnightblue" points="220.98,-20.96 210.47,-19.65 217.88,-27.23 220.98,-20.96"/>
</g>
<!-- Node10&#45;&gt;Node2 -->
<g id="edge13" class="edge">
<title>Node10&#45;&gt;Node2</title>
<path fill="none" stroke="midnightblue" d="M387.49,-112.37C390.56,-94.62 397.63,-53.67 401.79,-29.6"/>
<polygon fill="midnightblue" stroke="midnightblue" points="405.26,-30.04 403.52,-19.59 398.36,-28.85 405.26,-30.04"/>
</g>
<!-- Node10&#45;&gt;Node5 -->
<g id="edge17" class="edge">
<title>Node10&#45;&gt;Node5</title>
<path fill="none" stroke="midnightblue" d="M372.5,-112.32C359.4,-103.9 339.29,-90.97 323.89,-81.07"/>
<polygon fill="midnightblue" stroke="midnightblue" points="325.77,-78.12 315.46,-75.65 321.98,-84.01 325.77,-78.12"/>
</g>
<!-- Node10&#45;&gt;Node9 -->
<g id="edge14" class="edge">
<title>Node10&#45;&gt;Node9</title>
<path fill="none" stroke="midnightblue" d="M381.87,-112.08C378.49,-104.77 373.58,-94.18 369.38,-85.1"/>
<polygon fill="midnightblue" stroke="midnightblue" points="372.43,-83.36 365.05,-75.75 366.08,-86.3 372.43,-83.36"/>
</g>
<!-- Node11 -->
<g id="node11" class="node">
<title>Node11</title>
<g id="a_node11"><a xlink:href="_entity_8h.html" target="_top" xlink:title="Définition des donées membres et des fonctions membres de la classe Entity.">
<polygon fill="none" stroke="black" points="509.5,-56.5 509.5,-75.5 562.5,-75.5 562.5,-56.5 509.5,-56.5"/>
<text text-anchor="middle" x="536" y="-63.5" font-family="Helvetica,sans-Serif" font-size="10.00">Entity.h</text>
</a>
</g>
</g>
<!-- Node10&#45;&gt;Node11 -->
<g id="edge15" class="edge">
<title>Node10&#45;&gt;Node11</title>
<path fill="none" stroke="midnightblue" d="M409.77,-112.44C434.89,-103.4 474.71,-89.06 502.9,-78.92"/>
<polygon fill="midnightblue" stroke="midnightblue" points="504.12,-82.2 512.34,-75.52 501.75,-75.61 504.12,-82.2"/>
</g>
<!-- Node12 -->
<g id="node12" class="node">
<title>Node12</title>
<g id="a_node12"><a xlink:title=" ">
<polygon fill="none" stroke="#bfbfbf" points="481,-0.5 481,-19.5 591,-19.5 591,-0.5 481,-0.5"/>
<text text-anchor="middle" x="536" y="-7.5" font-family="Helvetica,sans-Serif" font-size="10.00">../SDL2/EntitySDL.h</text>
</a>
</g>
</g>
<!-- Node11&#45;&gt;Node12 -->
<g id="edge16" class="edge">
<title>Node11&#45;&gt;Node12</title>
<path fill="none" stroke="midnightblue" d="M536,-56.08C536,-49.01 536,-38.86 536,-29.99"/>
<polygon fill="midnightblue" stroke="midnightblue" points="539.5,-29.75 536,-19.75 532.5,-29.75 539.5,-29.75"/>
</g>
<!-- Node13&#45;&gt;Node11 -->
<g id="edge19" class="edge">
<title>Node13&#45;&gt;Node11</title>
<path fill="none" stroke="midnightblue" d="M578.58,-112.08C571.15,-104.22 560.15,-92.57 551.19,-83.08"/>
<polygon fill="midnightblue" stroke="midnightblue" points="553.68,-80.62 544.26,-75.75 548.59,-85.42 553.68,-80.62"/>
</g>
<!-- Node14&#45;&gt;Node13 -->
<g id="edge21" class="edge">
<title>Node14&#45;&gt;Node13</title>
<path fill="none" stroke="midnightblue" d="M702.29,-168.44C679.65,-159.52 643.93,-145.44 618.25,-135.32"/>
<polygon fill="midnightblue" stroke="midnightblue" points="619.19,-131.93 608.61,-131.52 616.63,-138.44 619.19,-131.93"/>
</g>
<!-- Node15&#45;&gt;Node13 -->
<g id="edge23" class="edge">
<title>Node15&#45;&gt;Node13</title>
<path fill="none" stroke="midnightblue" d="M788.13,-168.44C742.95,-158.24 667.95,-141.29 623.42,-131.23"/>
<polygon fill="midnightblue" stroke="midnightblue" points="624.12,-127.8 613.59,-129.01 622.58,-134.63 624.12,-127.8"/>
</g>
<!-- Node16&#45;&gt;Node13 -->
<g id="edge25" class="edge">
<title>Node16&#45;&gt;Node13</title>
<path fill="none" stroke="midnightblue" d="M583.66,-168.08C584.18,-161.01 584.94,-150.86 585.59,-141.99"/>
<polygon fill="midnightblue" stroke="midnightblue" points="589.1,-141.98 586.35,-131.75 582.12,-141.47 589.1,-141.98"/>
</g>
<!-- Node17&#45;&gt;Node2 -->
<g id="edge30" class="edge">
<title>Node17&#45;&gt;Node2</title>
<path fill="none" stroke="midnightblue" d="M487.54,-168.4C486.08,-147.58 480.16,-93.43 457,-56 449.54,-43.94 437.81,-33.39 427.38,-25.54"/>
<polygon fill="midnightblue" stroke="midnightblue" points="429.22,-22.55 419.05,-19.61 425.16,-28.26 429.22,-22.55"/>
</g>
<!-- Node17&#45;&gt;Node10 -->
<g id="edge28" class="edge">
<title>Node17&#45;&gt;Node10</title>
<path fill="none" stroke="midnightblue" d="M471.61,-168.32C455.33,-159.7 430.13,-146.36 411.28,-136.39"/>
<polygon fill="midnightblue" stroke="midnightblue" points="412.82,-133.24 402.35,-131.65 409.55,-139.43 412.82,-133.24"/>
</g>
<!-- Node17&#45;&gt;Node11 -->
<g id="edge27" class="edge">
<title>Node17&#45;&gt;Node11</title>
<path fill="none" stroke="midnightblue" d="M491.77,-168.37C499.58,-150.46 517.71,-108.92 528.17,-84.95"/>
<polygon fill="midnightblue" stroke="midnightblue" points="531.46,-86.16 532.25,-75.59 525.04,-83.36 531.46,-86.16"/>
</g>
<!-- Node17&#45;&gt;Node13 -->
<g id="edge29" class="edge">
<title>Node17&#45;&gt;Node13</title>
<path fill="none" stroke="midnightblue" d="M503.91,-168.32C519.64,-159.74 543.94,-146.49 562.21,-136.52"/>
<polygon fill="midnightblue" stroke="midnightblue" points="564.03,-139.52 571.13,-131.65 560.68,-133.37 564.03,-139.52"/>
</g>
</g>
</svg>
