<?xml version="1.0" encoding="UTF-8" standalone="no"?>
<!DOCTYPE svg PUBLIC "-//W3C//DTD SVG 1.1//EN"
 "http://www.w3.org/Graphics/SVG/1.1/DTD/svg11.dtd">
<!-- Generated by graphviz version 2.43.0 (0)
 -->
<!-- Title: src/core/Game.h Pages: 1 -->
<svg width="396pt" height="196pt"
 viewBox="0.00 0.00 396.00 196.00" xmlns="http://www.w3.org/2000/svg" xmlns:xlink="http://www.w3.org/1999/xlink">
<g id="graph0" class="graph" transform="scale(1 1) rotate(0) translate(4 192)">
<title>src/core/Game.h</title>
<!-- Node1 -->
<g id="node1" class="node">
<title>Node1</title>
<g id="a_node1"><a xlink:title="Définition des donées membres et des fonctions membres de la classe Game.">
<polygon fill="#bfbfbf" stroke="black" points="172.5,-168.5 172.5,-187.5 268.5,-187.5 268.5,-168.5 172.5,-168.5"/>
<text text-anchor="middle" x="220.5" y="-175.5" font-family="Helvetica,sans-Serif" font-size="10.00">src/core/Game.h</text>
</a>
</g>
</g>
<!-- Node2 -->
<g id="node2" class="node">
<title>Node2</title>
<g id="a_node2"><a xlink:href="_enemy_8h.html" target="_top" xlink:title="Définition des donées membres et des fonctions membres de la classe Enemy.">
<polygon fill="none" stroke="black" points="278.5,-56.5 278.5,-75.5 336.5,-75.5 336.5,-56.5 278.5,-56.5"/>
<text text-anchor="middle" x="307.5" y="-63.5" font-family="Helvetica,sans-Serif" font-size="10.00">Enemy.h</text>
</a>
</g>
</g>
<!-- Node1&#45;&gt;Node2 -->
<g id="edge1" class="edge">
<title>Node1&#45;&gt;Node2</title>
<path fill="none" stroke="midnightblue" d="M229.79,-168.5C239.08,-159.78 253.52,-145.6 264.5,-132 276.81,-116.75 288.96,-97.95 297.18,-84.5"/>
<polygon fill="midnightblue" stroke="midnightblue" points="300.27,-86.15 302.43,-75.77 294.27,-82.54 300.27,-86.15"/>
</g>
<!-- Node6 -->
<g id="node6" class="node">
<title>Node6</title>
<g id="a_node6"><a xlink:href="_map_8h.html" target="_top" xlink:title="Définition des donées membres et des fonctions membres de la classe Map.">
<polygon fill="none" stroke="black" points="341,-0.5 341,-19.5 388,-19.5 388,-0.5 341,-0.5"/>
<text text-anchor="middle" x="364.5" y="-7.5" font-family="Helvetica,sans-Serif" font-size="10.00">Map.h</text>
</a>
</g>
</g>
<!-- Node1&#45;&gt;Node6 -->
<g id="edge6" class="edge">
<title>Node1&#45;&gt;Node6</title>
<path fill="none" stroke="midnightblue" d="M237.36,-168.41C264.73,-153.54 318.47,-120.3 345.5,-76 354.21,-61.73 359.1,-43.26 361.74,-29.66"/>
<polygon fill="midnightblue" stroke="midnightblue" points="365.23,-30.02 363.45,-19.58 358.32,-28.85 365.23,-30.02"/>
</g>
<!-- Node7 -->
<g id="node7" class="node">
<title>Node7</title>
<g id="a_node7"><a xlink:href="_tower_archer_8h.html" target="_top" xlink:title="Définition des donées membres et des fonctions membres de la classe TowerArcher.">
<polygon fill="none" stroke="black" points="99,-56.5 99,-75.5 184,-75.5 184,-56.5 99,-56.5"/>
<text text-anchor="middle" x="141.5" y="-63.5" font-family="Helvetica,sans-Serif" font-size="10.00">TowerArcher.h</text>
</a>
</g>
</g>
<!-- Node1&#45;&gt;Node7 -->
<g id="edge7" class="edge">
<title>Node1&#45;&gt;Node7</title>
<path fill="none" stroke="midnightblue" d="M210.31,-168.45C200.56,-159.91 185.84,-146.07 175.5,-132 164.68,-117.28 155.31,-98.65 149.17,-85.11"/>
<polygon fill="midnightblue" stroke="midnightblue" points="152.35,-83.65 145.12,-75.9 145.94,-86.46 152.35,-83.65"/>
</g>
<!-- Node8 -->
<g id="node8" class="node">
<title>Node8</title>
<g id="a_node8"><a xlink:href="_projectile_8h.html" target="_top" xlink:title="Définition des donées membres et des fonctions membres de la classe Projectile.">
<polygon fill="none" stroke="black" points="185,-112.5 185,-131.5 256,-131.5 256,-112.5 185,-112.5"/>
<text text-anchor="middle" x="220.5" y="-119.5" font-family="Helvetica,sans-Serif" font-size="10.00">Projectile.h</text>
</a>
</g>
</g>
<!-- Node1&#45;&gt;Node8 -->
<g id="edge10" class="edge">
<title>Node1&#45;&gt;Node8</title>
<path fill="none" stroke="midnightblue" d="M220.5,-168.08C220.5,-161.01 220.5,-150.86 220.5,-141.99"/>
<polygon fill="midnightblue" stroke="midnightblue" points="224,-141.75 220.5,-131.75 217,-141.75 224,-141.75"/>
</g>
<!-- Node9 -->
<g id="node9" class="node">
<title>Node9</title>
<g id="a_node9"><a xlink:href="_ressources_8h.html" target="_top" xlink:title=" ">
<polygon fill="none" stroke="black" points="0,-56.5 0,-75.5 81,-75.5 81,-56.5 0,-56.5"/>
<text text-anchor="middle" x="40.5" y="-63.5" font-family="Helvetica,sans-Serif" font-size="10.00">Ressources.h</text>
</a>
</g>
</g>
<!-- Node1&#45;&gt;Node9 -->
<g id="edge15" class="edge">
<title>Node1&#45;&gt;Node9</title>
<path fill="none" stroke="midnightblue" d="M206.38,-168.37C175.36,-149.41 101.05,-104 63.31,-80.94"/>
<polygon fill="midnightblue" stroke="midnightblue" points="64.92,-77.82 54.56,-75.59 61.27,-83.79 64.92,-77.82"/>
</g>
<!-- Node3 -->
<g id="node3" class="node">
<title>Node3</title>
<g id="a_node3"><a xlink:title=" ">
<polygon fill="none" stroke="#bfbfbf" points="206.5,-0.5 206.5,-19.5 266.5,-19.5 266.5,-0.5 206.5,-0.5"/>
<text text-anchor="middle" x="236.5" y="-7.5" font-family="Helvetica,sans-Serif" font-size="10.00">iostream</text>
</a>
</g>
</g>
<!-- Node2&#45;&gt;Node3 -->
<g id="edge2" class="edge">
<title>Node2&#45;&gt;Node3</title>
<path fill="none" stroke="midnightblue" d="M296.09,-56.32C285.39,-48.18 269.16,-35.84 256.34,-26.09"/>
<polygon fill="midnightblue" stroke="midnightblue" points="258.19,-23.1 248.11,-19.83 253.96,-28.67 258.19,-23.1"/>
</g>
<!-- Node4 -->
<g id="node4" class="node">
<title>Node4</title>
<g id="a_node4"><a xlink:title=" ">
<polygon fill="none" stroke="#bfbfbf" points="290.5,-0.5 290.5,-19.5 322.5,-19.5 322.5,-0.5 290.5,-0.5"/>
<text text-anchor="middle" x="306.5" y="-7.5" font-family="Helvetica,sans-Serif" font-size="10.00">list</text>
</a>
</g>
</g>
<!-- Node2&#45;&gt;Node4 -->
<g id="edge3" class="edge">
<title>Node2&#45;&gt;Node4</title>
<path fill="none" stroke="midnightblue" d="M307.33,-56.08C307.2,-49.01 307.02,-38.86 306.85,-29.99"/>
<polygon fill="midnightblue" stroke="midnightblue" points="310.35,-29.68 306.66,-19.75 303.35,-29.81 310.35,-29.68"/>
</g>
<!-- Node5 -->
<g id="node5" class="node">
<title>Node5</title>
<g id="a_node5"><a xlink:href="_entity_8h.html" target="_top" xlink:title="Définition des donées membres et des fonctions membres de la classe Entity.">
<polygon fill="none" stroke="black" points="122,-0.5 122,-19.5 175,-19.5 175,-0.5 122,-0.5"/>
<text text-anchor="middle" x="148.5" y="-7.5" font-family="Helvetica,sans-Serif" font-size="10.00">Entity.h</text>
</a>
</g>
</g>
<!-- Node2&#45;&gt;Node5 -->
<g id="edge4" class="edge">
<title>Node2&#45;&gt;Node5</title>
<path fill="none" stroke="midnightblue" d="M282.31,-56.44C255.56,-47.36 213.1,-32.94 183.19,-22.78"/>
<polygon fill="midnightblue" stroke="midnightblue" points="184.17,-19.42 173.58,-19.52 181.92,-26.05 184.17,-19.42"/>
</g>
<!-- Node2&#45;&gt;Node6 -->
<g id="edge5" class="edge">
<title>Node2&#45;&gt;Node6</title>
<path fill="none" stroke="midnightblue" d="M316.66,-56.32C325,-48.42 337.53,-36.55 347.68,-26.94"/>
<polygon fill="midnightblue" stroke="midnightblue" points="350.32,-29.25 355.18,-19.83 345.51,-24.17 350.32,-29.25"/>
</g>
<!-- Node7&#45;&gt;Node3 -->
<g id="edge8" class="edge">
<title>Node7&#45;&gt;Node3</title>
<path fill="none" stroke="midnightblue" d="M156.76,-56.32C171.72,-47.82 194.75,-34.73 212.23,-24.8"/>
<polygon fill="midnightblue" stroke="midnightblue" points="214.31,-27.64 221.27,-19.65 210.85,-21.55 214.31,-27.64"/>
</g>
<!-- Node7&#45;&gt;Node5 -->
<g id="edge9" class="edge">
<title>Node7&#45;&gt;Node5</title>
<path fill="none" stroke="midnightblue" d="M142.66,-56.08C143.58,-48.93 144.92,-38.64 146.08,-29.69"/>
<polygon fill="midnightblue" stroke="midnightblue" points="149.55,-30.12 147.37,-19.75 142.61,-29.22 149.55,-30.12"/>
</g>
<!-- Node8&#45;&gt;Node2 -->
<g id="edge12" class="edge">
<title>Node8&#45;&gt;Node2</title>
<path fill="none" stroke="midnightblue" d="M234.48,-112.32C248.05,-103.9 268.88,-90.97 284.82,-81.07"/>
<polygon fill="midnightblue" stroke="midnightblue" points="286.91,-83.9 293.56,-75.65 283.21,-77.95 286.91,-83.9"/>
</g>
<!-- Node8&#45;&gt;Node3 -->
<g id="edge14" class="edge">
<title>Node8&#45;&gt;Node3</title>
<path fill="none" stroke="midnightblue" d="M221.76,-112.37C224.34,-94.62 230.29,-53.67 233.79,-29.6"/>
<polygon fill="midnightblue" stroke="midnightblue" points="237.27,-29.99 235.25,-19.59 230.35,-28.98 237.27,-29.99"/>
</g>
<!-- Node8&#45;&gt;Node5 -->
<g id="edge11" class="edge">
<title>Node8&#45;&gt;Node5</title>
<path fill="none" stroke="midnightblue" d="M217.82,-112.07C213.65,-99.04 204.81,-74.37 192.5,-56 185.23,-45.16 175.17,-34.64 166.5,-26.5"/>
<polygon fill="midnightblue" stroke="midnightblue" points="168.81,-23.87 159.05,-19.75 164.12,-29.06 168.81,-23.87"/>
</g>
<!-- Node8&#45;&gt;Node7 -->
<g id="edge13" class="edge">
<title>Node8&#45;&gt;Node7</title>
<path fill="none" stroke="midnightblue" d="M207.81,-112.32C195.6,-103.98 176.92,-91.21 162.5,-81.35"/>
<polygon fill="midnightblue" stroke="midnightblue" points="164.39,-78.41 154.16,-75.65 160.44,-84.19 164.39,-78.41"/>
</g>
<!-- Node9&#45;&gt;Node3 -->
<g id="edge17" class="edge">
<title>Node9&#45;&gt;Node3</title>
<path fill="none" stroke="midnightblue" d="M71.56,-56.44C105.3,-47.15 159.33,-32.26 196.29,-22.08"/>
<polygon fill="midnightblue" stroke="midnightblue" points="197.52,-25.37 206.23,-19.34 195.66,-18.62 197.52,-25.37"/>
</g>
<!-- Node9&#45;&gt;Node5 -->
<g id="edge16" class="edge">
<title>Node9&#45;&gt;Node5</title>
<path fill="none" stroke="midnightblue" d="M57.85,-56.32C75.17,-47.66 102.02,-34.24 122,-24.25"/>
<polygon fill="midnightblue" stroke="midnightblue" points="123.81,-27.26 131.19,-19.65 120.68,-21 123.81,-27.26"/>
</g>
</g>
</svg>
