<?xml version="1.0" encoding="UTF-8" standalone="no"?>
<!DOCTYPE svg PUBLIC "-//W3C//DTD SVG 1.1//EN"
 "http://www.w3.org/Graphics/SVG/1.1/DTD/svg11.dtd">
<!-- Generated by graphviz version 2.43.0 (0)
 -->
<!-- Title: src/txt/GameTXT.cpp Pages: 1 -->
<svg width="417pt" height="252pt"
 viewBox="0.00 0.00 417.00 252.00" xmlns="http://www.w3.org/2000/svg" xmlns:xlink="http://www.w3.org/1999/xlink">
<g id="graph0" class="graph" transform="scale(1 1) rotate(0) translate(4 248)">
<title>src/txt/GameTXT.cpp</title>
<!-- Node1 -->
<g id="node1" class="node">
<title>Node1</title>
<g id="a_node1"><a xlink:title=" ">
<polygon fill="#bfbfbf" stroke="black" points="0,-224.5 0,-243.5 118,-243.5 118,-224.5 0,-224.5"/>
<text text-anchor="middle" x="59" y="-231.5" font-family="Helvetica,sans-Serif" font-size="10.00">src/txt/GameTXT.cpp</text>
</a>
</g>
</g>
<!-- Node2 -->
<g id="node2" class="node">
<title>Node2</title>
<g id="a_node2"><a xlink:title=" ">
<polygon fill="none" stroke="#bfbfbf" points="42,-0.5 42,-19.5 102,-19.5 102,-0.5 42,-0.5"/>
<text text-anchor="middle" x="72" y="-7.5" font-family="Helvetica,sans-Serif" font-size="10.00">iostream</text>
</a>
</g>
</g>
<!-- Node1&#45;&gt;Node2 -->
<g id="edge1" class="edge">
<title>Node1&#45;&gt;Node2</title>
<path fill="none" stroke="midnightblue" d="M48.56,-224.24C39.58,-215.97 27.25,-202.66 22,-188 2.21,-132.77 -1.87,-109.59 22,-56 27.57,-43.5 38.52,-33.01 48.75,-25.32"/>
<polygon fill="midnightblue" stroke="midnightblue" points="50.85,-28.12 57.05,-19.53 46.84,-22.38 50.85,-28.12"/>
</g>
<!-- Node3 -->
<g id="node3" class="node">
<title>Node3</title>
<g id="a_node3"><a xlink:title=" ">
<polygon fill="none" stroke="#bfbfbf" points="31,-168.5 31,-187.5 87,-187.5 87,-168.5 31,-168.5"/>
<text text-anchor="middle" x="59" y="-175.5" font-family="Helvetica,sans-Serif" font-size="10.00">unistd.h</text>
</a>
</g>
</g>
<!-- Node1&#45;&gt;Node3 -->
<g id="edge2" class="edge">
<title>Node1&#45;&gt;Node3</title>
<path fill="none" stroke="midnightblue" d="M59,-224.08C59,-217.01 59,-206.86 59,-197.99"/>
<polygon fill="midnightblue" stroke="midnightblue" points="62.5,-197.75 59,-187.75 55.5,-197.75 62.5,-197.75"/>
</g>
<!-- Node4 -->
<g id="node4" class="node">
<title>Node4</title>
<g id="a_node4"><a xlink:href="_game_t_x_t_8h.html" target="_top" xlink:title="Fichier s&#39;occupant de l&#39;affichage du jeu en mode texte.">
<polygon fill="none" stroke="black" points="105.5,-168.5 105.5,-187.5 178.5,-187.5 178.5,-168.5 105.5,-168.5"/>
<text text-anchor="middle" x="142" y="-175.5" font-family="Helvetica,sans-Serif" font-size="10.00">GameTXT.h</text>
</a>
</g>
</g>
<!-- Node1&#45;&gt;Node4 -->
<g id="edge3" class="edge">
<title>Node1&#45;&gt;Node4</title>
<path fill="none" stroke="midnightblue" d="M72.34,-224.32C85.16,-215.98 104.78,-203.21 119.94,-193.35"/>
<polygon fill="midnightblue" stroke="midnightblue" points="122.22,-196.04 128.7,-187.65 118.41,-190.17 122.22,-196.04"/>
</g>
<!-- Node5 -->
<g id="node5" class="node">
<title>Node5</title>
<g id="a_node5"><a xlink:href="window_t_x_t_8h.html" target="_top" xlink:title="Définitions de la classe WindowTXT.">
<polygon fill="none" stroke="black" points="83.5,-112.5 83.5,-131.5 164.5,-131.5 164.5,-112.5 83.5,-112.5"/>
<text text-anchor="middle" x="124" y="-119.5" font-family="Helvetica,sans-Serif" font-size="10.00">windowTXT.h</text>
</a>
</g>
</g>
<!-- Node4&#45;&gt;Node5 -->
<g id="edge4" class="edge">
<title>Node4&#45;&gt;Node5</title>
<path fill="none" stroke="midnightblue" d="M139.03,-168.08C136.62,-160.85 133.14,-150.41 130.13,-141.4"/>
<polygon fill="midnightblue" stroke="midnightblue" points="133.4,-140.13 126.92,-131.75 126.76,-142.34 133.4,-140.13"/>
</g>
<!-- Node6 -->
<g id="node6" class="node">
<title>Node6</title>
<g id="a_node6"><a xlink:href="_game_8h.html" target="_top" xlink:title="Définition des donées membres et des fonctions membres de la classe Game.">
<polygon fill="none" stroke="black" points="183,-112.5 183,-131.5 271,-131.5 271,-112.5 183,-112.5"/>
<text text-anchor="middle" x="227" y="-119.5" font-family="Helvetica,sans-Serif" font-size="10.00">../core/Game.h</text>
</a>
</g>
</g>
<!-- Node4&#45;&gt;Node6 -->
<g id="edge5" class="edge">
<title>Node4&#45;&gt;Node6</title>
<path fill="none" stroke="midnightblue" d="M155.66,-168.32C168.92,-159.9 189.27,-146.97 204.85,-137.07"/>
<polygon fill="midnightblue" stroke="midnightblue" points="206.81,-139.97 213.38,-131.65 203.06,-134.06 206.81,-139.97"/>
</g>
<!-- Node7 -->
<g id="node7" class="node">
<title>Node7</title>
<g id="a_node7"><a xlink:href="_ressources_8h.html" target="_top" xlink:title=" ">
<polygon fill="none" stroke="black" points="31.5,-56.5 31.5,-75.5 112.5,-75.5 112.5,-56.5 31.5,-56.5"/>
<text text-anchor="middle" x="72" y="-63.5" font-family="Helvetica,sans-Serif" font-size="10.00">Ressources.h</text>
</a>
</g>
</g>
<!-- Node6&#45;&gt;Node7 -->
<g id="edge6" class="edge">
<title>Node6&#45;&gt;Node7</title>
<path fill="none" stroke="midnightblue" d="M202.44,-112.44C176.48,-103.4 135.33,-89.06 106.2,-78.92"/>
<polygon fill="midnightblue" stroke="midnightblue" points="107.04,-75.5 96.45,-75.52 104.74,-82.11 107.04,-75.5"/>
</g>
<!-- Node8 -->
<g id="node8" class="node">
<title>Node8</title>
<g id="a_node8"><a xlink:href="_road_8h.html" target="_top" xlink:title=" ">
<polygon fill="none" stroke="black" points="131,-56.5 131,-75.5 181,-75.5 181,-56.5 131,-56.5"/>
<text text-anchor="middle" x="156" y="-63.5" font-family="Helvetica,sans-Serif" font-size="10.00">Road.h</text>
</a>
</g>
</g>
<!-- Node6&#45;&gt;Node8 -->
<g id="edge8" class="edge">
<title>Node6&#45;&gt;Node8</title>
<path fill="none" stroke="midnightblue" d="M215.59,-112.32C204.89,-104.18 188.66,-91.84 175.84,-82.09"/>
<polygon fill="midnightblue" stroke="midnightblue" points="177.69,-79.1 167.61,-75.83 173.46,-84.67 177.69,-79.1"/>
</g>
<!-- Node9 -->
<g id="node9" class="node">
<title>Node9</title>
<g id="a_node9"><a xlink:title=" ">
<polygon fill="none" stroke="#bfbfbf" points="158.5,-0.5 158.5,-19.5 205.5,-19.5 205.5,-0.5 158.5,-0.5"/>
<text text-anchor="middle" x="182" y="-7.5" font-family="Helvetica,sans-Serif" font-size="10.00">vector</text>
</a>
</g>
</g>
<!-- Node6&#45;&gt;Node9 -->
<g id="edge13" class="edge">
<title>Node6&#45;&gt;Node9</title>
<path fill="none" stroke="midnightblue" d="M223.47,-112.37C216.14,-94.46 199.15,-52.92 189.34,-28.95"/>
<polygon fill="midnightblue" stroke="midnightblue" points="192.54,-27.52 185.51,-19.59 186.06,-30.17 192.54,-27.52"/>
</g>
<!-- Node10 -->
<g id="node10" class="node">
<title>Node10</title>
<g id="a_node10"><a xlink:href="_map_8h.html" target="_top" xlink:title="Définition des donées membres et des fonctions membres de la classe Map.">
<polygon fill="none" stroke="black" points="237.5,-56.5 237.5,-75.5 284.5,-75.5 284.5,-56.5 237.5,-56.5"/>
<text text-anchor="middle" x="261" y="-63.5" font-family="Helvetica,sans-Serif" font-size="10.00">Map.h</text>
</a>
</g>
</g>
<!-- Node6&#45;&gt;Node10 -->
<g id="edge11" class="edge">
<title>Node6&#45;&gt;Node10</title>
<path fill="none" stroke="midnightblue" d="M232.61,-112.08C237.37,-104.53 244.32,-93.49 250.15,-84.23"/>
<polygon fill="midnightblue" stroke="midnightblue" points="253.12,-86.08 255.49,-75.75 247.2,-82.35 253.12,-86.08"/>
</g>
<!-- Node11 -->
<g id="node11" class="node">
<title>Node11</title>
<g id="a_node11"><a xlink:href="_castle_8h.html" target="_top" xlink:title="Définition des donées membres et des fonctions membres de la classe Castle.">
<polygon fill="none" stroke="black" points="303,-56.5 303,-75.5 359,-75.5 359,-56.5 303,-56.5"/>
<text text-anchor="middle" x="331" y="-63.5" font-family="Helvetica,sans-Serif" font-size="10.00">Castle.h</text>
</a>
</g>
</g>
<!-- Node6&#45;&gt;Node11 -->
<g id="edge12" class="edge">
<title>Node6&#45;&gt;Node11</title>
<path fill="none" stroke="midnightblue" d="M243.71,-112.32C260.31,-103.7 286,-90.36 305.22,-80.39"/>
<polygon fill="midnightblue" stroke="midnightblue" points="307.07,-83.37 314.33,-75.65 303.84,-77.16 307.07,-83.37"/>
</g>
<!-- Node12 -->
<g id="node12" class="node">
<title>Node12</title>
<g id="a_node12"><a xlink:title=" ">
<polygon fill="none" stroke="#bfbfbf" points="377,-56.5 377,-75.5 409,-75.5 409,-56.5 377,-56.5"/>
<text text-anchor="middle" x="393" y="-63.5" font-family="Helvetica,sans-Serif" font-size="10.00">list</text>
</a>
</g>
</g>
<!-- Node6&#45;&gt;Node12 -->
<g id="edge14" class="edge">
<title>Node6&#45;&gt;Node12</title>
<path fill="none" stroke="midnightblue" d="M254.92,-112.42C281.55,-104.17 322.98,-91.13 367.38,-76.13"/>
<polygon fill="midnightblue" stroke="midnightblue" points="368.55,-79.43 376.89,-72.9 366.3,-72.8 368.55,-79.43"/>
</g>
<!-- Node7&#45;&gt;Node2 -->
<g id="edge7" class="edge">
<title>Node7&#45;&gt;Node2</title>
<path fill="none" stroke="midnightblue" d="M72,-56.08C72,-49.01 72,-38.86 72,-29.99"/>
<polygon fill="midnightblue" stroke="midnightblue" points="75.5,-29.75 72,-19.75 68.5,-29.75 75.5,-29.75"/>
</g>
<!-- Node8&#45;&gt;Node2 -->
<g id="edge9" class="edge">
<title>Node8&#45;&gt;Node2</title>
<path fill="none" stroke="midnightblue" d="M142.5,-56.32C129.4,-47.9 109.29,-34.97 93.89,-25.07"/>
<polygon fill="midnightblue" stroke="midnightblue" points="95.77,-22.12 85.46,-19.65 91.98,-28.01 95.77,-22.12"/>
</g>
<!-- Node8&#45;&gt;Node9 -->
<g id="edge10" class="edge">
<title>Node8&#45;&gt;Node9</title>
<path fill="none" stroke="midnightblue" d="M160.29,-56.08C163.85,-48.69 169.02,-37.95 173.42,-28.81"/>
<polygon fill="midnightblue" stroke="midnightblue" points="176.6,-30.28 177.79,-19.75 170.29,-27.24 176.6,-30.28"/>
</g>
</g>
</svg>
