<?xml version="1.0" encoding="UTF-8" standalone="no"?>
<!DOCTYPE svg PUBLIC "-//W3C//DTD SVG 1.1//EN"
 "http://www.w3.org/Graphics/SVG/1.1/DTD/svg11.dtd">
<!-- Generated by graphviz version 2.43.0 (0)
 -->
<!-- Title: /home/allan/Licence2_Informatique/ProjetLIFAP4/src/txt/GameTXT.cpp Pages: 1 -->
<svg width="370pt" height="442pt"
 viewBox="0.00 0.00 369.50 442.00" xmlns="http://www.w3.org/2000/svg" xmlns:xlink="http://www.w3.org/1999/xlink">
<g id="graph0" class="graph" transform="scale(1 1) rotate(0) translate(4 438)">
<title>/home/allan/Licence2_Informatique/ProjetLIFAP4/src/txt/GameTXT.cpp</title>
<!-- Node1 -->
<g id="node1" class="node">
<title>Node1</title>
<g id="a_node1"><a xlink:title=" ">
<polygon fill="#bfbfbf" stroke="black" points="0,-392.5 0,-433.5 148,-433.5 148,-392.5 0,-392.5"/>
<text text-anchor="start" x="8" y="-421.5" font-family="Helvetica,sans-Serif" font-size="10.00">/home/allan/Licence2</text>
<text text-anchor="start" x="8" y="-410.5" font-family="Helvetica,sans-Serif" font-size="10.00">_Informatique/ProjetLIFAP4</text>
<text text-anchor="middle" x="74" y="-399.5" font-family="Helvetica,sans-Serif" font-size="10.00">/src/txt/GameTXT.cpp</text>
</a>
</g>
</g>
<!-- Node2 -->
<g id="node2" class="node">
<title>Node2</title>
<g id="a_node2"><a xlink:title=" ">
<polygon fill="none" stroke="#bfbfbf" points="96,-0.5 96,-19.5 156,-19.5 156,-0.5 96,-0.5"/>
<text text-anchor="middle" x="126" y="-7.5" font-family="Helvetica,sans-Serif" font-size="10.00">iostream</text>
</a>
</g>
</g>
<!-- Node1&#45;&gt;Node2 -->
<g id="edge1" class="edge">
<title>Node1&#45;&gt;Node2</title>
<path fill="none" stroke="midnightblue" d="M54.04,-392.13C33.66,-369.63 5,-330.9 5,-291 5,-291 5,-291 5,-121 5,-72.99 57.8,-40.41 93.64,-23.82"/>
<polygon fill="midnightblue" stroke="midnightblue" points="95.52,-26.82 103.24,-19.57 92.68,-20.42 95.52,-26.82"/>
</g>
<!-- Node3 -->
<g id="node3" class="node">
<title>Node3</title>
<g id="a_node3"><a xlink:title=" ">
<polygon fill="none" stroke="#bfbfbf" points="129,-336.5 129,-355.5 185,-355.5 185,-336.5 129,-336.5"/>
<text text-anchor="middle" x="157" y="-343.5" font-family="Helvetica,sans-Serif" font-size="10.00">unistd.h</text>
</a>
</g>
</g>
<!-- Node1&#45;&gt;Node3 -->
<g id="edge2" class="edge">
<title>Node1&#45;&gt;Node3</title>
<path fill="none" stroke="midnightblue" d="M98.9,-392.5C111.38,-382.72 126.26,-371.07 137.84,-362.01"/>
<polygon fill="midnightblue" stroke="midnightblue" points="140.24,-364.57 145.95,-355.65 135.92,-359.06 140.24,-364.57"/>
</g>
<!-- Node4 -->
<g id="node4" class="node">
<title>Node4</title>
<g id="a_node4"><a xlink:href="_game_t_x_t_8h.html" target="_top" xlink:title=" ">
<polygon fill="none" stroke="black" points="37.5,-336.5 37.5,-355.5 110.5,-355.5 110.5,-336.5 37.5,-336.5"/>
<text text-anchor="middle" x="74" y="-343.5" font-family="Helvetica,sans-Serif" font-size="10.00">GameTXT.h</text>
</a>
</g>
</g>
<!-- Node1&#45;&gt;Node4 -->
<g id="edge3" class="edge">
<title>Node1&#45;&gt;Node4</title>
<path fill="none" stroke="midnightblue" d="M74,-392.5C74,-384.07 74,-374.24 74,-365.87"/>
<polygon fill="midnightblue" stroke="midnightblue" points="77.5,-365.65 74,-355.65 70.5,-365.65 77.5,-365.65"/>
</g>
<!-- Node5 -->
<g id="node5" class="node">
<title>Node5</title>
<g id="a_node5"><a xlink:href="window_t_x_t_8h.html" target="_top" xlink:title=" ">
<polygon fill="none" stroke="black" points="33.5,-280.5 33.5,-299.5 114.5,-299.5 114.5,-280.5 33.5,-280.5"/>
<text text-anchor="middle" x="74" y="-287.5" font-family="Helvetica,sans-Serif" font-size="10.00">windowTXT.h</text>
</a>
</g>
</g>
<!-- Node4&#45;&gt;Node5 -->
<g id="edge4" class="edge">
<title>Node4&#45;&gt;Node5</title>
<path fill="none" stroke="midnightblue" d="M74,-336.08C74,-329.01 74,-318.86 74,-309.99"/>
<polygon fill="midnightblue" stroke="midnightblue" points="77.5,-309.75 74,-299.75 70.5,-309.75 77.5,-309.75"/>
</g>
<!-- Node6 -->
<g id="node6" class="node">
<title>Node6</title>
<g id="a_node6"><a xlink:href="_game_8h.html" target="_top" xlink:title=" ">
<polygon fill="none" stroke="black" points="134,-280.5 134,-299.5 222,-299.5 222,-280.5 134,-280.5"/>
<text text-anchor="middle" x="178" y="-287.5" font-family="Helvetica,sans-Serif" font-size="10.00">../core/Game.h</text>
</a>
</g>
</g>
<!-- Node4&#45;&gt;Node6 -->
<g id="edge5" class="edge">
<title>Node4&#45;&gt;Node6</title>
<path fill="none" stroke="midnightblue" d="M90.71,-336.32C107.31,-327.7 133,-314.36 152.22,-304.39"/>
<polygon fill="midnightblue" stroke="midnightblue" points="154.07,-307.37 161.33,-299.65 150.84,-301.16 154.07,-307.37"/>
</g>
<!-- Node7 -->
<g id="node7" class="node">
<title>Node7</title>
<g id="a_node7"><a xlink:href="_enemy_8h.html" target="_top" xlink:title=" ">
<polygon fill="none" stroke="black" points="213,-168.5 213,-187.5 271,-187.5 271,-168.5 213,-168.5"/>
<text text-anchor="middle" x="242" y="-175.5" font-family="Helvetica,sans-Serif" font-size="10.00">Enemy.h</text>
</a>
</g>
</g>
<!-- Node6&#45;&gt;Node7 -->
<g id="edge6" class="edge">
<title>Node6&#45;&gt;Node7</title>
<path fill="none" stroke="midnightblue" d="M189.61,-280.23C199.8,-271.95 214.33,-258.64 223,-244 231.52,-229.62 236.44,-211.16 239.13,-197.59"/>
<polygon fill="midnightblue" stroke="midnightblue" points="242.61,-197.99 240.89,-187.54 235.71,-196.78 242.61,-197.99"/>
</g>
<!-- Node11 -->
<g id="node11" class="node">
<title>Node11</title>
<g id="a_node11"><a xlink:href="_map_8h.html" target="_top" xlink:title=" ">
<polygon fill="none" stroke="black" points="314.5,-112.5 314.5,-131.5 361.5,-131.5 361.5,-112.5 314.5,-112.5"/>
<text text-anchor="middle" x="338" y="-119.5" font-family="Helvetica,sans-Serif" font-size="10.00">Map.h</text>
</a>
</g>
</g>
<!-- Node6&#45;&gt;Node11 -->
<g id="edge13" class="edge">
<title>Node6&#45;&gt;Node11</title>
<path fill="none" stroke="midnightblue" d="M192.36,-280.36C205.71,-271.97 225.77,-258.41 241,-244 276.05,-210.84 309.56,-164.81 326.51,-140.18"/>
<polygon fill="midnightblue" stroke="midnightblue" points="329.63,-141.82 332.35,-131.58 323.84,-137.89 329.63,-141.82"/>
</g>
<!-- Node12 -->
<g id="node12" class="node">
<title>Node12</title>
<g id="a_node12"><a xlink:href="_tower_archer_8h.html" target="_top" xlink:title=" ">
<polygon fill="none" stroke="black" points="33.5,-168.5 33.5,-187.5 118.5,-187.5 118.5,-168.5 33.5,-168.5"/>
<text text-anchor="middle" x="76" y="-175.5" font-family="Helvetica,sans-Serif" font-size="10.00">TowerArcher.h</text>
</a>
</g>
</g>
<!-- Node6&#45;&gt;Node12 -->
<g id="edge14" class="edge">
<title>Node6&#45;&gt;Node12</title>
<path fill="none" stroke="midnightblue" d="M169.45,-280.49C160.49,-271.52 146.08,-256.94 134,-244 118.76,-227.68 101.8,-208.56 90.18,-195.3"/>
<polygon fill="midnightblue" stroke="midnightblue" points="92.6,-192.75 83.39,-187.52 87.33,-197.36 92.6,-192.75"/>
</g>
<!-- Node13 -->
<g id="node13" class="node">
<title>Node13</title>
<g id="a_node13"><a xlink:href="_projectile_8h.html" target="_top" xlink:title=" ">
<polygon fill="none" stroke="black" points="142.5,-224.5 142.5,-243.5 213.5,-243.5 213.5,-224.5 142.5,-224.5"/>
<text text-anchor="middle" x="178" y="-231.5" font-family="Helvetica,sans-Serif" font-size="10.00">Projectile.h</text>
</a>
</g>
</g>
<!-- Node6&#45;&gt;Node13 -->
<g id="edge17" class="edge">
<title>Node6&#45;&gt;Node13</title>
<path fill="none" stroke="midnightblue" d="M178,-280.08C178,-273.01 178,-262.86 178,-253.99"/>
<polygon fill="midnightblue" stroke="midnightblue" points="181.5,-253.75 178,-243.75 174.5,-253.75 181.5,-253.75"/>
</g>
<!-- Node7&#45;&gt;Node2 -->
<g id="edge7" class="edge">
<title>Node7&#45;&gt;Node2</title>
<path fill="none" stroke="midnightblue" d="M249.77,-168.14C259.77,-155.61 274.96,-131.99 267,-112 248.88,-66.48 196.83,-38.03 161.31,-23.33"/>
<polygon fill="midnightblue" stroke="midnightblue" points="162.36,-19.98 151.77,-19.55 159.78,-26.49 162.36,-19.98"/>
</g>
<!-- Node8 -->
<g id="node8" class="node">
<title>Node8</title>
<g id="a_node8"><a xlink:title=" ">
<polygon fill="none" stroke="#bfbfbf" points="226,-112.5 226,-131.5 258,-131.5 258,-112.5 226,-112.5"/>
<text text-anchor="middle" x="242" y="-119.5" font-family="Helvetica,sans-Serif" font-size="10.00">list</text>
</a>
</g>
</g>
<!-- Node7&#45;&gt;Node8 -->
<g id="edge8" class="edge">
<title>Node7&#45;&gt;Node8</title>
<path fill="none" stroke="midnightblue" d="M242,-168.08C242,-161.01 242,-150.86 242,-141.99"/>
<polygon fill="midnightblue" stroke="midnightblue" points="245.5,-141.75 242,-131.75 238.5,-141.75 245.5,-141.75"/>
</g>
<!-- Node9 -->
<g id="node9" class="node">
<title>Node9</title>
<g id="a_node9"><a xlink:href="_entity_8h.html" target="_top" xlink:title=" ">
<polygon fill="none" stroke="black" points="154.5,-112.5 154.5,-131.5 207.5,-131.5 207.5,-112.5 154.5,-112.5"/>
<text text-anchor="middle" x="181" y="-119.5" font-family="Helvetica,sans-Serif" font-size="10.00">Entity.h</text>
</a>
</g>
</g>
<!-- Node7&#45;&gt;Node9 -->
<g id="edge9" class="edge">
<title>Node7&#45;&gt;Node9</title>
<path fill="none" stroke="midnightblue" d="M232.2,-168.32C223.18,-160.34 209.59,-148.31 198.68,-138.65"/>
<polygon fill="midnightblue" stroke="midnightblue" points="200.79,-135.84 190.98,-131.83 196.15,-141.08 200.79,-135.84"/>
</g>
<!-- Node7&#45;&gt;Node11 -->
<g id="edge12" class="edge">
<title>Node7&#45;&gt;Node11</title>
<path fill="none" stroke="midnightblue" d="M257.42,-168.32C272.54,-159.82 295.82,-146.73 313.47,-136.8"/>
<polygon fill="midnightblue" stroke="midnightblue" points="315.61,-139.61 322.61,-131.65 312.18,-133.51 315.61,-139.61"/>
</g>
<!-- Node10 -->
<g id="node10" class="node">
<title>Node10</title>
<g id="a_node10"><a xlink:href="_vec2_8h.html" target="_top" xlink:title=" ">
<polygon fill="none" stroke="black" points="155.5,-56.5 155.5,-75.5 204.5,-75.5 204.5,-56.5 155.5,-56.5"/>
<text text-anchor="middle" x="180" y="-63.5" font-family="Helvetica,sans-Serif" font-size="10.00">Vec2.h</text>
</a>
</g>
</g>
<!-- Node9&#45;&gt;Node10 -->
<g id="edge10" class="edge">
<title>Node9&#45;&gt;Node10</title>
<path fill="none" stroke="midnightblue" d="M180.83,-112.08C180.7,-105.01 180.52,-94.86 180.35,-85.99"/>
<polygon fill="midnightblue" stroke="midnightblue" points="183.85,-85.68 180.16,-75.75 176.85,-85.81 183.85,-85.68"/>
</g>
<!-- Node10&#45;&gt;Node2 -->
<g id="edge11" class="edge">
<title>Node10&#45;&gt;Node2</title>
<path fill="none" stroke="midnightblue" d="M171.08,-56.08C163.22,-48.22 151.57,-36.57 142.08,-27.08"/>
<polygon fill="midnightblue" stroke="midnightblue" points="144.3,-24.35 134.75,-19.75 139.35,-29.3 144.3,-24.35"/>
</g>
<!-- Node12&#45;&gt;Node2 -->
<g id="edge15" class="edge">
<title>Node12&#45;&gt;Node2</title>
<path fill="none" stroke="midnightblue" d="M78.5,-168.48C84.3,-148.7 99.18,-98.15 112,-56 114.68,-47.18 117.72,-37.41 120.27,-29.24"/>
<polygon fill="midnightblue" stroke="midnightblue" points="123.63,-30.21 123.28,-19.62 116.95,-28.11 123.63,-30.21"/>
</g>
<!-- Node12&#45;&gt;Node9 -->
<g id="edge16" class="edge">
<title>Node12&#45;&gt;Node9</title>
<path fill="none" stroke="midnightblue" d="M92.87,-168.32C109.71,-159.66 135.81,-146.24 155.24,-136.25"/>
<polygon fill="midnightblue" stroke="midnightblue" points="156.88,-139.34 164.17,-131.65 153.68,-133.12 156.88,-139.34"/>
</g>
<!-- Node13&#45;&gt;Node2 -->
<g id="edge21" class="edge">
<title>Node13&#45;&gt;Node2</title>
<path fill="none" stroke="midnightblue" d="M174.84,-224.47C168.55,-207.22 154.36,-166.88 146,-132 137.43,-96.24 131.32,-53.65 128.25,-29.72"/>
<polygon fill="midnightblue" stroke="midnightblue" points="131.7,-29.08 126.99,-19.59 124.75,-29.95 131.7,-29.08"/>
</g>
<!-- Node13&#45;&gt;Node7 -->
<g id="edge19" class="edge">
<title>Node13&#45;&gt;Node7</title>
<path fill="none" stroke="midnightblue" d="M188.28,-224.32C197.84,-216.26 212.28,-204.08 223.78,-194.37"/>
<polygon fill="midnightblue" stroke="midnightblue" points="226.14,-196.96 231.53,-187.83 221.63,-191.61 226.14,-196.96"/>
</g>
<!-- Node13&#45;&gt;Node9 -->
<g id="edge18" class="edge">
<title>Node13&#45;&gt;Node9</title>
<path fill="none" stroke="midnightblue" d="M178.24,-224.37C178.72,-206.62 179.84,-165.67 180.49,-141.6"/>
<polygon fill="midnightblue" stroke="midnightblue" points="183.99,-141.68 180.77,-131.59 176.99,-141.49 183.99,-141.68"/>
</g>
<!-- Node13&#45;&gt;Node12 -->
<g id="edge20" class="edge">
<title>Node13&#45;&gt;Node12</title>
<path fill="none" stroke="midnightblue" d="M161.61,-224.32C145.33,-215.7 120.13,-202.36 101.28,-192.39"/>
<polygon fill="midnightblue" stroke="midnightblue" points="102.82,-189.24 92.35,-187.65 99.55,-195.43 102.82,-189.24"/>
</g>
</g>
</svg>
