<?xml version="1.0" encoding="UTF-8" standalone="no"?>
<!DOCTYPE svg PUBLIC "-//W3C//DTD SVG 1.1//EN"
 "http://www.w3.org/Graphics/SVG/1.1/DTD/svg11.dtd">
<!-- Generated by graphviz version 2.43.0 (0)
 -->
<!-- Title: txtShow Pages: 1 -->
<svg width="421pt" height="636pt"
 viewBox="0.00 0.00 421.00 636.00" xmlns="http://www.w3.org/2000/svg" xmlns:xlink="http://www.w3.org/1999/xlink">
<g id="graph0" class="graph" transform="scale(1 1) rotate(0) translate(4 632)">
<title>txtShow</title>
<!-- Node1 -->
<g id="node1" class="node">
<title>Node1</title>
<g id="a_node1"><a xlink:title=" ">
<polygon fill="#bfbfbf" stroke="black" points="0,-304.5 0,-323.5 56,-323.5 56,-304.5 0,-304.5"/>
<text text-anchor="middle" x="28" y="-311.5" font-family="Helvetica,sans-Serif" font-size="10.00">txtShow</text>
</a>
</g>
</g>
<!-- Node2 -->
<g id="node2" class="node">
<title>Node2</title>
<g id="a_node2"><a xlink:href="class_game.html#a76bb34327b14c40d3d6d40331c6c075e" target="_top" xlink:title=" ">
<polygon fill="none" stroke="black" points="126.5,-608.5 126.5,-627.5 212.5,-627.5 212.5,-608.5 126.5,-608.5"/>
<text text-anchor="middle" x="169.5" y="-615.5" font-family="Helvetica,sans-Serif" font-size="10.00">Game::appear</text>
</a>
</g>
</g>
<!-- Node1&#45;&gt;Node2 -->
<g id="edge1" class="edge">
<title>Node1&#45;&gt;Node2</title>
<path fill="none" stroke="midnightblue" d="M29.8,-323.73C33.7,-368.96 52.21,-558.17 92,-599 98.59,-605.77 107.19,-610.26 116.24,-613.23"/>
<polygon fill="midnightblue" stroke="midnightblue" points="115.59,-616.68 126.15,-615.87 117.39,-609.91 115.59,-616.68"/>
</g>
<!-- Node3 -->
<g id="node3" class="node">
<title>Node3</title>
<g id="a_node3"><a xlink:href="class_window_t_x_t.html#a79659c7c121f98d9021e422a69d61333" target="_top" xlink:title=" ">
<polygon fill="none" stroke="black" points="117.5,-570.5 117.5,-589.5 221.5,-589.5 221.5,-570.5 117.5,-570.5"/>
<text text-anchor="middle" x="169.5" y="-577.5" font-family="Helvetica,sans-Serif" font-size="10.00">WindowTXT::clear</text>
</a>
</g>
</g>
<!-- Node1&#45;&gt;Node3 -->
<g id="edge2" class="edge">
<title>Node1&#45;&gt;Node3</title>
<path fill="none" stroke="midnightblue" d="M28.44,-323.88C26.94,-360.16 26.75,-487.45 92,-556 96.53,-560.76 102,-564.59 107.9,-567.65"/>
<polygon fill="midnightblue" stroke="midnightblue" points="106.9,-571.04 117.46,-571.88 109.73,-564.63 106.9,-571.04"/>
</g>
<!-- Node4 -->
<g id="node4" class="node">
<title>Node4</title>
<g id="a_node4"><a xlink:href="class_window_t_x_t.html#a0243ba21b4e67a20c74b94c0192e3e02" target="_top" xlink:title=" ">
<polygon fill="none" stroke="black" points="297,-551.5 297,-570.5 399,-570.5 399,-551.5 297,-551.5"/>
<text text-anchor="middle" x="348" y="-558.5" font-family="Helvetica,sans-Serif" font-size="10.00">WindowTXT::print</text>
</a>
</g>
</g>
<!-- Node1&#45;&gt;Node4 -->
<g id="edge19" class="edge">
<title>Node1&#45;&gt;Node4</title>
<path fill="none" stroke="midnightblue" d="M28.6,-323.79C27.8,-357.48 30.08,-469.46 92,-523 120.32,-547.49 220.53,-556.2 286.57,-559.3"/>
<polygon fill="midnightblue" stroke="midnightblue" points="286.72,-562.81 296.86,-559.75 287.03,-555.81 286.72,-562.81"/>
</g>
<!-- Node5 -->
<g id="node5" class="node">
<title>Node5</title>
<g id="a_node5"><a xlink:href="class_window_t_x_t.html#a25d39d051d4874b61fe20311ab1b0f19" target="_top" xlink:title=" ">
<polygon fill="none" stroke="black" points="117.5,-494.5 117.5,-513.5 221.5,-513.5 221.5,-494.5 117.5,-494.5"/>
<text text-anchor="middle" x="169.5" y="-501.5" font-family="Helvetica,sans-Serif" font-size="10.00">WindowTXT::draw</text>
</a>
</g>
</g>
<!-- Node1&#45;&gt;Node5 -->
<g id="edge4" class="edge">
<title>Node1&#45;&gt;Node5</title>
<path fill="none" stroke="midnightblue" d="M29.55,-323.86C31.72,-353.17 42.28,-440.45 92,-485 96.68,-489.2 102.15,-492.5 107.96,-495.09"/>
<polygon fill="midnightblue" stroke="midnightblue" points="106.74,-498.37 117.33,-498.61 109.2,-491.82 106.74,-498.37"/>
</g>
<!-- Node7 -->
<g id="node7" class="node">
<title>Node7</title>
<g id="a_node7"><a xlink:href="class_window_t_x_t.html#acef149b4871fdb3afff9a60648592174" target="_top" xlink:title=" ">
<polygon fill="none" stroke="black" points="116,-456.5 116,-475.5 223,-475.5 223,-456.5 116,-456.5"/>
<text text-anchor="middle" x="169.5" y="-463.5" font-family="Helvetica,sans-Serif" font-size="10.00">WindowTXT::erase</text>
</a>
</g>
</g>
<!-- Node1&#45;&gt;Node7 -->
<g id="edge6" class="edge">
<title>Node1&#45;&gt;Node7</title>
<path fill="none" stroke="midnightblue" d="M30.68,-323.78C35.45,-348.5 51.47,-413.82 92,-447 96.3,-450.52 101.17,-453.4 106.3,-455.76"/>
<polygon fill="midnightblue" stroke="midnightblue" points="105.2,-459.09 115.79,-459.46 107.74,-452.57 105.2,-459.09"/>
</g>
<!-- Node8 -->
<g id="node8" class="node">
<title>Node8</title>
<g id="a_node8"><a xlink:href="class_window_t_x_t.html#acee576c02401371c0cb2f013cbcb7415" target="_top" xlink:title=" ">
<polygon fill="none" stroke="black" points="94.5,-418.5 94.5,-437.5 244.5,-437.5 244.5,-418.5 94.5,-418.5"/>
<text text-anchor="middle" x="169.5" y="-425.5" font-family="Helvetica,sans-Serif" font-size="10.00">WindowTXT::getConstDimX</text>
</a>
</g>
</g>
<!-- Node1&#45;&gt;Node8 -->
<g id="edge7" class="edge">
<title>Node1&#45;&gt;Node8</title>
<path fill="none" stroke="midnightblue" d="M32.54,-323.52C40.21,-342.83 60.3,-386.64 92,-409 94.74,-410.93 97.66,-412.67 100.69,-414.23"/>
<polygon fill="midnightblue" stroke="midnightblue" points="99.52,-417.54 110.08,-418.4 102.37,-411.14 99.52,-417.54"/>
</g>
<!-- Node9 -->
<g id="node9" class="node">
<title>Node9</title>
<g id="a_node9"><a xlink:href="class_game.html#a74dda151003b81807c663d07eda2c657" target="_top" xlink:title=" ">
<polygon fill="none" stroke="black" points="111.5,-380.5 111.5,-399.5 227.5,-399.5 227.5,-380.5 111.5,-380.5"/>
<text text-anchor="middle" x="169.5" y="-387.5" font-family="Helvetica,sans-Serif" font-size="10.00">Game::getConstMap</text>
</a>
</g>
</g>
<!-- Node1&#45;&gt;Node9 -->
<g id="edge8" class="edge">
<title>Node1&#45;&gt;Node9</title>
<path fill="none" stroke="midnightblue" d="M36.9,-323.64C47.9,-336.43 69.09,-358.8 92,-371 96.3,-373.29 100.89,-375.31 105.6,-377.1"/>
<polygon fill="midnightblue" stroke="midnightblue" points="104.79,-380.52 115.38,-380.43 107.04,-373.89 104.79,-380.52"/>
</g>
<!-- Node10 -->
<g id="node10" class="node">
<title>Node10</title>
<g id="a_node10"><a xlink:href="class_entity.html#a632a853b65d0468f138bc35efc0d317b" target="_top" xlink:title=" ">
<polygon fill="none" stroke="black" points="110.5,-342.5 110.5,-361.5 228.5,-361.5 228.5,-342.5 110.5,-342.5"/>
<text text-anchor="middle" x="169.5" y="-349.5" font-family="Helvetica,sans-Serif" font-size="10.00">Entity::getConstPosX</text>
</a>
</g>
</g>
<!-- Node1&#45;&gt;Node10 -->
<g id="edge9" class="edge">
<title>Node1&#45;&gt;Node10</title>
<path fill="none" stroke="midnightblue" d="M56.2,-322.53C67.27,-325.91 80.21,-329.76 92,-333 100.53,-335.34 109.64,-337.72 118.48,-339.95"/>
<polygon fill="midnightblue" stroke="midnightblue" points="117.75,-343.38 128.3,-342.41 119.45,-336.59 117.75,-343.38"/>
</g>
<!-- Node11 -->
<g id="node11" class="node">
<title>Node11</title>
<g id="a_node11"><a xlink:href="class_entity.html#a280a384eddb9c7bfb96547adfbb8f515" target="_top" xlink:title=" ">
<polygon fill="none" stroke="black" points="111,-304.5 111,-323.5 228,-323.5 228,-304.5 111,-304.5"/>
<text text-anchor="middle" x="169.5" y="-311.5" font-family="Helvetica,sans-Serif" font-size="10.00">Entity::getConstPosY</text>
</a>
</g>
</g>
<!-- Node1&#45;&gt;Node11 -->
<g id="edge10" class="edge">
<title>Node1&#45;&gt;Node11</title>
<path fill="none" stroke="midnightblue" d="M56.23,-314C68.98,-314 84.79,-314 100.49,-314"/>
<polygon fill="midnightblue" stroke="midnightblue" points="100.75,-317.5 110.75,-314 100.75,-310.5 100.75,-317.5"/>
</g>
<!-- Node12 -->
<g id="node12" class="node">
<title>Node12</title>
<g id="a_node12"><a xlink:href="class_game.html#a590078d6a58c9b1fa63d560df0b30ee6" target="_top" xlink:title=" ">
<polygon fill="none" stroke="black" points="99,-266.5 99,-285.5 240,-285.5 240,-266.5 99,-266.5"/>
<text text-anchor="middle" x="169.5" y="-273.5" font-family="Helvetica,sans-Serif" font-size="10.00">Game::getConstProjectile</text>
</a>
</g>
</g>
<!-- Node1&#45;&gt;Node12 -->
<g id="edge11" class="edge">
<title>Node1&#45;&gt;Node12</title>
<path fill="none" stroke="midnightblue" d="M56.2,-305.47C67.27,-302.09 80.21,-298.24 92,-295 100.53,-292.66 109.64,-290.28 118.48,-288.05"/>
<polygon fill="midnightblue" stroke="midnightblue" points="119.45,-291.41 128.3,-285.59 117.75,-284.62 119.45,-291.41"/>
</g>
<!-- Node13 -->
<g id="node13" class="node">
<title>Node13</title>
<g id="a_node13"><a xlink:href="class_game.html#a8e1bd589715b549b76b06fc3e4f61f1c" target="_top" xlink:title=" ">
<polygon fill="none" stroke="black" points="92,-228.5 92,-247.5 247,-247.5 247,-228.5 92,-228.5"/>
<text text-anchor="middle" x="169.5" y="-235.5" font-family="Helvetica,sans-Serif" font-size="10.00">Game::getConstTowerArcher</text>
</a>
</g>
</g>
<!-- Node1&#45;&gt;Node13 -->
<g id="edge12" class="edge">
<title>Node1&#45;&gt;Node13</title>
<path fill="none" stroke="midnightblue" d="M36.9,-304.36C47.9,-291.57 69.09,-269.2 92,-257 96.3,-254.71 100.89,-252.69 105.6,-250.9"/>
<polygon fill="midnightblue" stroke="midnightblue" points="107.04,-254.11 115.38,-247.57 104.79,-247.48 107.04,-254.11"/>
</g>
<!-- Node14 -->
<g id="node14" class="node">
<title>Node14</title>
<g id="a_node14"><a xlink:href="class_map.html#a421954a09241f064e551c84f6f044744" target="_top" xlink:title="Renvoie la largeur du terrain.">
<polygon fill="none" stroke="black" points="126.5,-190.5 126.5,-209.5 212.5,-209.5 212.5,-190.5 126.5,-190.5"/>
<text text-anchor="middle" x="169.5" y="-197.5" font-family="Helvetica,sans-Serif" font-size="10.00">Map::getDimX</text>
</a>
</g>
</g>
<!-- Node1&#45;&gt;Node14 -->
<g id="edge13" class="edge">
<title>Node1&#45;&gt;Node14</title>
<path fill="none" stroke="midnightblue" d="M32.54,-304.48C40.21,-285.17 60.3,-241.36 92,-219 99.31,-213.84 107.88,-210.08 116.59,-207.34"/>
<polygon fill="midnightblue" stroke="midnightblue" points="117.69,-210.66 126.41,-204.65 115.84,-203.91 117.69,-210.66"/>
</g>
<!-- Node15 -->
<g id="node15" class="node">
<title>Node15</title>
<g id="a_node15"><a xlink:href="class_map.html#a1de1775f4a648f64d2310763dc10affe" target="_top" xlink:title="Renvoie la hauteur du terrain.">
<polygon fill="none" stroke="black" points="126.5,-152.5 126.5,-171.5 212.5,-171.5 212.5,-152.5 126.5,-152.5"/>
<text text-anchor="middle" x="169.5" y="-159.5" font-family="Helvetica,sans-Serif" font-size="10.00">Map::getDimY</text>
</a>
</g>
</g>
<!-- Node1&#45;&gt;Node15 -->
<g id="edge14" class="edge">
<title>Node1&#45;&gt;Node15</title>
<path fill="none" stroke="midnightblue" d="M30.68,-304.22C35.45,-279.5 51.47,-214.18 92,-181 99,-175.27 107.49,-171.23 116.23,-168.39"/>
<polygon fill="midnightblue" stroke="midnightblue" points="117.42,-171.7 126.14,-165.67 115.57,-164.95 117.42,-171.7"/>
</g>
<!-- Node16 -->
<g id="node16" class="node">
<title>Node16</title>
<g id="a_node16"><a xlink:href="class_game.html#a61492cc55812183eeddc681a5f5a4f1b" target="_top" xlink:title=" ">
<polygon fill="none" stroke="black" points="119,-114.5 119,-133.5 220,-133.5 220,-114.5 119,-114.5"/>
<text text-anchor="middle" x="169.5" y="-121.5" font-family="Helvetica,sans-Serif" font-size="10.00">Game::getEnemy</text>
</a>
</g>
</g>
<!-- Node1&#45;&gt;Node16 -->
<g id="edge15" class="edge">
<title>Node1&#45;&gt;Node16</title>
<path fill="none" stroke="midnightblue" d="M29.55,-304.14C31.72,-274.83 42.28,-187.55 92,-143 97.07,-138.46 103.05,-134.97 109.41,-132.28"/>
<polygon fill="midnightblue" stroke="midnightblue" points="110.66,-135.55 118.92,-128.91 108.32,-128.96 110.66,-135.55"/>
</g>
<!-- Node17 -->
<g id="node17" class="node">
<title>Node17</title>
<g id="a_node17"><a xlink:href="class_map.html#a988891fac3660f96ca3b205244a30406" target="_top" xlink:title="Renvoie le type d&#39;objet se trouvant en (x,y)">
<polygon fill="none" stroke="black" points="133.5,-76.5 133.5,-95.5 205.5,-95.5 205.5,-76.5 133.5,-76.5"/>
<text text-anchor="middle" x="169.5" y="-83.5" font-family="Helvetica,sans-Serif" font-size="10.00">Map::getXY</text>
</a>
</g>
</g>
<!-- Node1&#45;&gt;Node17 -->
<g id="edge16" class="edge">
<title>Node1&#45;&gt;Node17</title>
<path fill="none" stroke="midnightblue" d="M28.79,-304.42C28.62,-271.43 32.71,-161.44 92,-105 100.51,-96.9 111.92,-92.1 123.32,-89.29"/>
<polygon fill="midnightblue" stroke="midnightblue" points="124.14,-92.69 133.26,-87.3 122.77,-85.83 124.14,-92.69"/>
</g>
<!-- Node18 -->
<g id="node18" class="node">
<title>Node18</title>
<g id="a_node18"><a xlink:href="class_enemy.html#a038e636d16b708f92627348a36750702" target="_top" xlink:title=" ">
<polygon fill="none" stroke="black" points="125,-38.5 125,-57.5 214,-57.5 214,-38.5 125,-38.5"/>
<text text-anchor="middle" x="169.5" y="-45.5" font-family="Helvetica,sans-Serif" font-size="10.00">Enemy::isDead</text>
</a>
</g>
</g>
<!-- Node1&#45;&gt;Node18 -->
<g id="edge17" class="edge">
<title>Node1&#45;&gt;Node18</title>
<path fill="none" stroke="midnightblue" d="M30.13,-304.48C35.17,-263.39 57,-101.78 92,-67 98.35,-60.69 106.44,-56.37 114.98,-53.42"/>
<polygon fill="midnightblue" stroke="midnightblue" points="116.07,-56.75 124.74,-50.66 114.16,-50.02 116.07,-56.75"/>
</g>
<!-- Node19 -->
<g id="node19" class="node">
<title>Node19</title>
<g id="a_node19"><a xlink:href="class_projectile.html#a58142be6b80e4faff2b037b170ff005c" target="_top" xlink:title=" ">
<polygon fill="none" stroke="black" points="111.5,-0.5 111.5,-19.5 227.5,-19.5 227.5,-0.5 111.5,-0.5"/>
<text text-anchor="middle" x="169.5" y="-7.5" font-family="Helvetica,sans-Serif" font-size="10.00">Projectile::isInRange</text>
</a>
</g>
</g>
<!-- Node1&#45;&gt;Node19 -->
<g id="edge18" class="edge">
<title>Node1&#45;&gt;Node19</title>
<path fill="none" stroke="midnightblue" d="M29.8,-304.27C33.7,-259.04 52.21,-69.83 92,-29 95.01,-25.91 98.43,-23.3 102.13,-21.08"/>
<polygon fill="midnightblue" stroke="midnightblue" points="103.76,-24.19 111.17,-16.62 100.66,-17.91 103.76,-24.19"/>
</g>
<!-- Node3&#45;&gt;Node4 -->
<g id="edge3" class="edge">
<title>Node3&#45;&gt;Node4</title>
<path fill="none" stroke="midnightblue" d="M221.55,-574.5C241.94,-572.31 265.56,-569.77 286.78,-567.48"/>
<polygon fill="midnightblue" stroke="midnightblue" points="287.41,-570.94 296.98,-566.38 286.66,-563.98 287.41,-570.94"/>
</g>
<!-- Node6 -->
<g id="node6" class="node">
<title>Node6</title>
<g id="a_node6"><a xlink:href="class_window_t_x_t.html#a73e94d4d47e2948899bc75c6b32e177a" target="_top" xlink:title=" ">
<polygon fill="none" stroke="black" points="283,-494.5 283,-513.5 413,-513.5 413,-494.5 283,-494.5"/>
<text text-anchor="middle" x="348" y="-501.5" font-family="Helvetica,sans-Serif" font-size="10.00">WindowTXT::termMove</text>
</a>
</g>
</g>
<!-- Node5&#45;&gt;Node6 -->
<g id="edge5" class="edge">
<title>Node5&#45;&gt;Node6</title>
<path fill="none" stroke="midnightblue" d="M221.55,-504C237.55,-504 255.55,-504 272.81,-504"/>
<polygon fill="midnightblue" stroke="midnightblue" points="272.87,-507.5 282.87,-504 272.87,-500.5 272.87,-507.5"/>
</g>
</g>
</svg>
