<?xml version="1.0" encoding="UTF-8" standalone="no"?>
<!DOCTYPE svg PUBLIC "-//W3C//DTD SVG 1.1//EN"
 "http://www.w3.org/Graphics/SVG/1.1/DTD/svg11.dtd">
<!-- Generated by graphviz version 2.43.0 (0)
 -->
<!-- Title: txtLoop Pages: 1 -->
<svg width="722pt" height="1244pt"
 viewBox="0.00 0.00 722.00 1244.00" xmlns="http://www.w3.org/2000/svg" xmlns:xlink="http://www.w3.org/1999/xlink">
<g id="graph0" class="graph" transform="scale(1 1) rotate(0) translate(4 1240)">
<title>txtLoop</title>
<!-- Node1 -->
<g id="node1" class="node">
<title>Node1</title>
<g id="a_node1"><a xlink:title=" ">
<polygon fill="#bfbfbf" stroke="black" points="0,-475.5 0,-494.5 53,-494.5 53,-475.5 0,-475.5"/>
<text text-anchor="middle" x="26.5" y="-482.5" font-family="Helvetica,sans-Serif" font-size="10.00">txtLoop</text>
</a>
</g>
</g>
<!-- Node2 -->
<g id="node2" class="node">
<title>Node2</title>
<g id="a_node2"><a xlink:href="class_game.html#acd26cbdfb8fa7cec1832711e618fec45" target="_top" xlink:title=" ">
<polygon fill="none" stroke="black" points="89.5,-722.5 89.5,-741.5 196.5,-741.5 196.5,-722.5 89.5,-722.5"/>
<text text-anchor="middle" x="143" y="-729.5" font-family="Helvetica,sans-Serif" font-size="10.00">Game::autoEvents</text>
</a>
</g>
</g>
<!-- Node1&#45;&gt;Node2 -->
<g id="edge1" class="edge">
<title>Node1&#45;&gt;Node2</title>
<path fill="none" stroke="midnightblue" d="M27.41,-494.8C27.6,-528.64 32.63,-642.06 89,-708 92.16,-711.69 96,-714.84 100.16,-717.53"/>
<polygon fill="midnightblue" stroke="midnightblue" points="98.57,-720.65 109.01,-722.41 101.94,-714.52 98.57,-720.65"/>
</g>
<!-- Node22 -->
<g id="node22" class="node">
<title>Node22</title>
<g id="a_node22"><a xlink:href="class_map.html#a421954a09241f064e551c84f6f044744" target="_top" xlink:title="Renvoie la largeur du terrain.">
<polygon fill="none" stroke="black" points="446,-646.5 446,-665.5 532,-665.5 532,-646.5 446,-646.5"/>
<text text-anchor="middle" x="489" y="-653.5" font-family="Helvetica,sans-Serif" font-size="10.00">Map::getDimX</text>
</a>
</g>
</g>
<!-- Node1&#45;&gt;Node22 -->
<g id="edge32" class="edge">
<title>Node1&#45;&gt;Node22</title>
<path fill="none" stroke="midnightblue" d="M33.83,-494.66C56.16,-527.78 135.27,-636.74 233,-675 297.15,-700.11 319.41,-681.46 388,-675 404.16,-673.48 421.61,-670.6 437.33,-667.54"/>
<polygon fill="midnightblue" stroke="midnightblue" points="438.27,-670.92 447.38,-665.51 436.88,-664.06 438.27,-670.92"/>
</g>
<!-- Node24 -->
<g id="node24" class="node">
<title>Node24</title>
<g id="a_node24"><a xlink:href="class_window_t_x_t.html#a05997a70b080e106a15520a52d82fd2c" target="_top" xlink:title=" ">
<polygon fill="none" stroke="black" points="89,-86.5 89,-105.5 197,-105.5 197,-86.5 89,-86.5"/>
<text text-anchor="middle" x="143" y="-93.5" font-family="Helvetica,sans-Serif" font-size="10.00">WindowTXT::getCh</text>
</a>
</g>
</g>
<!-- Node1&#45;&gt;Node24 -->
<g id="edge29" class="edge">
<title>Node1&#45;&gt;Node24</title>
<path fill="none" stroke="midnightblue" d="M28.32,-475.38C31.8,-437.42 47.11,-294.81 89,-186 99.17,-159.59 116.64,-131.92 128.73,-114.35"/>
<polygon fill="midnightblue" stroke="midnightblue" points="131.92,-115.9 134.81,-105.7 126.2,-111.87 131.92,-115.9"/>
</g>
<!-- Node26 -->
<g id="node26" class="node">
<title>Node26</title>
<g id="a_node26"><a xlink:href="class_game.html#a74dda151003b81807c663d07eda2c657" target="_top" xlink:title=" ">
<polygon fill="none" stroke="black" points="252.5,-570.5 252.5,-589.5 368.5,-589.5 368.5,-570.5 252.5,-570.5"/>
<text text-anchor="middle" x="310.5" y="-577.5" font-family="Helvetica,sans-Serif" font-size="10.00">Game::getConstMap</text>
</a>
</g>
</g>
<!-- Node1&#45;&gt;Node26 -->
<g id="edge31" class="edge">
<title>Node1&#45;&gt;Node26</title>
<path fill="none" stroke="midnightblue" d="M53.05,-494.09C91.83,-507.83 167.93,-534.56 233,-556 244.45,-559.77 256.91,-563.74 268.39,-567.34"/>
<polygon fill="midnightblue" stroke="midnightblue" points="267.58,-570.75 278.17,-570.39 269.67,-564.07 267.58,-570.75"/>
</g>
<!-- Node27 -->
<g id="node27" class="node">
<title>Node27</title>
<g id="a_node27"><a xlink:href="class_map.html#a1de1775f4a648f64d2310763dc10affe" target="_top" xlink:title="Renvoie la hauteur du terrain.">
<polygon fill="none" stroke="black" points="267.5,-38.5 267.5,-57.5 353.5,-57.5 353.5,-38.5 267.5,-38.5"/>
<text text-anchor="middle" x="310.5" y="-45.5" font-family="Helvetica,sans-Serif" font-size="10.00">Map::getDimY</text>
</a>
</g>
</g>
<!-- Node1&#45;&gt;Node27 -->
<g id="edge33" class="edge">
<title>Node1&#45;&gt;Node27</title>
<path fill="none" stroke="midnightblue" d="M31.61,-475.44C57.35,-415.78 196.33,-96.24 233,-67 240.07,-61.36 248.6,-57.36 257.35,-54.54"/>
<polygon fill="midnightblue" stroke="midnightblue" points="258.54,-57.84 267.26,-51.83 256.69,-51.09 258.54,-57.84"/>
</g>
<!-- Node28 -->
<g id="node28" class="node">
<title>Node28</title>
<g id="a_node28"><a xlink:href="_game_t_x_t_8cpp.html#a79f96f754efd066587bec9a3d0d0add7" target="_top" xlink:title=" ">
<polygon fill="none" stroke="black" points="115,-361.5 115,-380.5 171,-380.5 171,-361.5 115,-361.5"/>
<text text-anchor="middle" x="143" y="-368.5" font-family="Helvetica,sans-Serif" font-size="10.00">txtShow</text>
</a>
</g>
</g>
<!-- Node1&#45;&gt;Node28 -->
<g id="edge34" class="edge">
<title>Node1&#45;&gt;Node28</title>
<path fill="none" stroke="midnightblue" d="M37.26,-475.28C56.78,-455.85 100.83,-411.99 125.13,-387.8"/>
<polygon fill="midnightblue" stroke="midnightblue" points="127.65,-390.23 132.26,-380.69 122.71,-385.27 127.65,-390.23"/>
</g>
<!-- Node3 -->
<g id="node3" class="node">
<title>Node3</title>
<g id="a_node3"><a xlink:href="class_projectile.html#a62f3ecf85f4a26de65c5e0e333181ed1" target="_top" xlink:title=" ">
<polygon fill="none" stroke="black" points="256.5,-722.5 256.5,-741.5 364.5,-741.5 364.5,-722.5 256.5,-722.5"/>
<text text-anchor="middle" x="310.5" y="-729.5" font-family="Helvetica,sans-Serif" font-size="10.00">Projectile::inRange</text>
</a>
</g>
</g>
<!-- Node2&#45;&gt;Node3 -->
<g id="edge2" class="edge">
<title>Node2&#45;&gt;Node3</title>
<path fill="none" stroke="midnightblue" d="M196.82,-732C212.57,-732 229.98,-732 246.32,-732"/>
<polygon fill="midnightblue" stroke="midnightblue" points="246.33,-735.5 256.33,-732 246.33,-728.5 246.33,-735.5"/>
</g>
<!-- Node8 -->
<g id="node8" class="node">
<title>Node8</title>
<g id="a_node8"><a xlink:href="class_enemy.html#a038e636d16b708f92627348a36750702" target="_top" xlink:title=" ">
<polygon fill="none" stroke="black" points="266,-608.5 266,-627.5 355,-627.5 355,-608.5 266,-608.5"/>
<text text-anchor="middle" x="310.5" y="-615.5" font-family="Helvetica,sans-Serif" font-size="10.00">Enemy::isDead</text>
</a>
</g>
</g>
<!-- Node2&#45;&gt;Node8 -->
<g id="edge7" class="edge">
<title>Node2&#45;&gt;Node8</title>
<path fill="none" stroke="midnightblue" d="M150.08,-722.49C162.92,-703.2 194.8,-659.42 233,-637 240.05,-632.86 247.97,-629.62 255.98,-627.09"/>
<polygon fill="midnightblue" stroke="midnightblue" points="257.06,-630.42 265.73,-624.33 255.15,-623.68 257.06,-630.42"/>
</g>
<!-- Node9 -->
<g id="node9" class="node">
<title>Node9</title>
<g id="a_node9"><a xlink:href="class_projectile.html#a58142be6b80e4faff2b037b170ff005c" target="_top" xlink:title=" ">
<polygon fill="none" stroke="black" points="252.5,-646.5 252.5,-665.5 368.5,-665.5 368.5,-646.5 252.5,-646.5"/>
<text text-anchor="middle" x="310.5" y="-653.5" font-family="Helvetica,sans-Serif" font-size="10.00">Projectile::isInRange</text>
</a>
</g>
</g>
<!-- Node2&#45;&gt;Node9 -->
<g id="edge8" class="edge">
<title>Node2&#45;&gt;Node9</title>
<path fill="none" stroke="midnightblue" d="M164.96,-722.37C193.94,-709.07 246.39,-684.98 279.51,-669.77"/>
<polygon fill="midnightblue" stroke="midnightblue" points="281.08,-672.9 288.71,-665.55 278.16,-666.54 281.08,-672.9"/>
</g>
<!-- Node10 -->
<g id="node10" class="node">
<title>Node10</title>
<g id="a_node10"><a xlink:href="class_projectile.html#adfc163f4a625fc293f8f67fd0eb49761" target="_top" xlink:title=" ">
<polygon fill="none" stroke="black" points="264,-988.5 264,-1007.5 357,-1007.5 357,-988.5 264,-988.5"/>
<text text-anchor="middle" x="310.5" y="-995.5" font-family="Helvetica,sans-Serif" font-size="10.00">Projectile::track</text>
</a>
</g>
</g>
<!-- Node2&#45;&gt;Node10 -->
<g id="edge9" class="edge">
<title>Node2&#45;&gt;Node10</title>
<path fill="none" stroke="midnightblue" d="M150.09,-741.78C174.52,-781.06 265.72,-927.64 298.05,-979.6"/>
<polygon fill="midnightblue" stroke="midnightblue" points="295.28,-981.77 303.53,-988.41 301.22,-978.07 295.28,-981.77"/>
</g>
<!-- Node21 -->
<g id="node21" class="node">
<title>Node21</title>
<g id="a_node21"><a xlink:href="class_enemy.html#a056522bafce43c9a33c623f659a20270" target="_top" xlink:title=" ">
<polygon fill="none" stroke="black" points="271,-760.5 271,-779.5 350,-779.5 350,-760.5 271,-760.5"/>
<text text-anchor="middle" x="310.5" y="-767.5" font-family="Helvetica,sans-Serif" font-size="10.00">Enemy::walk</text>
</a>
</g>
</g>
<!-- Node2&#45;&gt;Node21 -->
<g id="edge26" class="edge">
<title>Node2&#45;&gt;Node21</title>
<path fill="none" stroke="midnightblue" d="M185.76,-741.59C208.64,-746.84 237.1,-753.38 260.96,-758.85"/>
<polygon fill="midnightblue" stroke="midnightblue" points="260.34,-762.3 270.87,-761.13 261.91,-755.48 260.34,-762.3"/>
</g>
<!-- Node4 -->
<g id="node4" class="node">
<title>Node4</title>
<g id="a_node4"><a xlink:href="class_projectile.html#aa878bcc1843c911447425d7618b8f9de" target="_top" xlink:title=" ">
<polygon fill="none" stroke="black" points="434,-684.5 434,-703.5 544,-703.5 544,-684.5 434,-684.5"/>
<text text-anchor="middle" x="489" y="-691.5" font-family="Helvetica,sans-Serif" font-size="10.00">Projectile::distance</text>
</a>
</g>
</g>
<!-- Node3&#45;&gt;Node4 -->
<g id="edge3" class="edge">
<title>Node3&#45;&gt;Node4</title>
<path fill="none" stroke="midnightblue" d="M356.04,-722.41C379.64,-717.33 408.83,-711.04 433.75,-705.68"/>
<polygon fill="midnightblue" stroke="midnightblue" points="434.74,-709.05 443.78,-703.52 433.27,-702.2 434.74,-709.05"/>
</g>
<!-- Node7 -->
<g id="node7" class="node">
<title>Node7</title>
<g id="a_node7"><a xlink:href="class_tower_archer.html#a11681126df7f8db3dc7767f86c6fc668" target="_top" xlink:title=" ">
<polygon fill="none" stroke="black" points="424.5,-722.5 424.5,-741.5 553.5,-741.5 553.5,-722.5 424.5,-722.5"/>
<text text-anchor="middle" x="489" y="-729.5" font-family="Helvetica,sans-Serif" font-size="10.00">TowerArcher::getRange</text>
</a>
</g>
</g>
<!-- Node3&#45;&gt;Node7 -->
<g id="edge6" class="edge">
<title>Node3&#45;&gt;Node7</title>
<path fill="none" stroke="midnightblue" d="M364.93,-732C380.48,-732 397.74,-732 414.3,-732"/>
<polygon fill="midnightblue" stroke="midnightblue" points="414.49,-735.5 424.49,-732 414.49,-728.5 414.49,-735.5"/>
</g>
<!-- Node5 -->
<g id="node5" class="node">
<title>Node5</title>
<g id="a_node5"><a xlink:href="class_entity.html#a758caa46a2a259ffc63d09616def9423" target="_top" xlink:title="Fonction retournant la position en x de l&#39;entité en const.">
<polygon fill="none" stroke="black" points="593,-817.5 593,-836.5 711,-836.5 711,-817.5 593,-817.5"/>
<text text-anchor="middle" x="652" y="-824.5" font-family="Helvetica,sans-Serif" font-size="10.00">Entity::getConstPosX</text>
</a>
</g>
</g>
<!-- Node4&#45;&gt;Node5 -->
<g id="edge4" class="edge">
<title>Node4&#45;&gt;Node5</title>
<path fill="none" stroke="midnightblue" d="M535.36,-703.55C541.93,-706.02 548.37,-709.12 554,-713 575.67,-727.92 573.13,-739.81 590,-760 604.53,-777.39 622.03,-796.43 634.55,-809.76"/>
<polygon fill="midnightblue" stroke="midnightblue" points="632.22,-812.38 641.64,-817.25 637.31,-807.58 632.22,-812.38"/>
</g>
<!-- Node6 -->
<g id="node6" class="node">
<title>Node6</title>
<g id="a_node6"><a xlink:href="class_entity.html#a44db7a4bd777f13d5316ca9151dffad7" target="_top" xlink:title="Fonction retournant la position en y de l&#39;entité en const.">
<polygon fill="none" stroke="black" points="593.5,-731.5 593.5,-750.5 710.5,-750.5 710.5,-731.5 593.5,-731.5"/>
<text text-anchor="middle" x="652" y="-738.5" font-family="Helvetica,sans-Serif" font-size="10.00">Entity::getConstPosY</text>
</a>
</g>
</g>
<!-- Node4&#45;&gt;Node6 -->
<g id="edge5" class="edge">
<title>Node4&#45;&gt;Node6</title>
<path fill="none" stroke="midnightblue" d="M522.58,-703.51C547.27,-710.72 581.41,-720.68 608.28,-728.53"/>
<polygon fill="midnightblue" stroke="midnightblue" points="607.61,-731.98 618.19,-731.42 609.57,-725.26 607.61,-731.98"/>
</g>
<!-- Node10&#45;&gt;Node5 -->
<g id="edge16" class="edge">
<title>Node10&#45;&gt;Node5</title>
<path fill="none" stroke="midnightblue" d="M328.2,-988.3C349.78,-976.07 388.78,-954.93 424,-941 479.98,-918.86 500.45,-930.5 554,-903 584.86,-887.15 615.55,-860.88 633.9,-843.76"/>
<polygon fill="midnightblue" stroke="midnightblue" points="636.58,-846.03 641.41,-836.6 631.76,-840.96 636.58,-846.03"/>
</g>
<!-- Node10&#45;&gt;Node6 -->
<g id="edge17" class="edge">
<title>Node10&#45;&gt;Node6</title>
<path fill="none" stroke="midnightblue" d="M315.12,-988.14C326.38,-958.84 363.71,-871.58 424,-827 472.4,-791.21 497.92,-810.88 554,-789 578.71,-779.36 605.66,-765.76 624.87,-755.49"/>
<polygon fill="midnightblue" stroke="midnightblue" points="626.76,-758.45 633.89,-750.61 623.43,-752.29 626.76,-758.45"/>
</g>
<!-- Node11 -->
<g id="node11" class="node">
<title>Node11</title>
<g id="a_node11"><a xlink:href="class_projectile.html#ae5645549de0ef4e2defdb3edd9fc57f0" target="_top" xlink:title=" ">
<polygon fill="none" stroke="black" points="430,-1140.5 430,-1159.5 548,-1159.5 548,-1140.5 430,-1140.5"/>
<text text-anchor="middle" x="489" y="-1147.5" font-family="Helvetica,sans-Serif" font-size="10.00">Projectile::directionX</text>
</a>
</g>
</g>
<!-- Node10&#45;&gt;Node11 -->
<g id="edge10" class="edge">
<title>Node10&#45;&gt;Node11</title>
<path fill="none" stroke="midnightblue" d="M316.94,-1007.7C331.18,-1032.2 372.1,-1097.09 424,-1131 427.14,-1133.05 430.52,-1134.89 434.01,-1136.54"/>
<polygon fill="midnightblue" stroke="midnightblue" points="432.89,-1139.86 443.47,-1140.45 435.57,-1133.39 432.89,-1139.86"/>
</g>
<!-- Node12 -->
<g id="node12" class="node">
<title>Node12</title>
<g id="a_node12"><a xlink:href="class_entity.html#a8e30cf9734be5d2037517b59d11ff412" target="_top" xlink:title="Fonction retournant la vitesse de l&#39;entité en const.">
<polygon fill="none" stroke="black" points="590,-1140.5 590,-1159.5 714,-1159.5 714,-1140.5 590,-1140.5"/>
<text text-anchor="middle" x="652" y="-1147.5" font-family="Helvetica,sans-Serif" font-size="10.00">Entity::getConstSpeed</text>
</a>
</g>
</g>
<!-- Node10&#45;&gt;Node12 -->
<g id="edge18" class="edge">
<title>Node10&#45;&gt;Node12</title>
<path fill="none" stroke="midnightblue" d="M314.32,-1007.81C323.74,-1038.55 357.37,-1133.08 424,-1169 486.43,-1202.66 572.79,-1179.83 618.92,-1163.14"/>
<polygon fill="midnightblue" stroke="midnightblue" points="620.26,-1166.38 628.4,-1159.6 617.81,-1159.82 620.26,-1166.38"/>
</g>
<!-- Node13 -->
<g id="node13" class="node">
<title>Node13</title>
<g id="a_node13"><a xlink:href="class_projectile.html#a4fed5dda0d58cd0721bf8a20a005c594" target="_top" xlink:title=" ">
<polygon fill="none" stroke="black" points="430.5,-988.5 430.5,-1007.5 547.5,-1007.5 547.5,-988.5 430.5,-988.5"/>
<text text-anchor="middle" x="489" y="-995.5" font-family="Helvetica,sans-Serif" font-size="10.00">Projectile::directionY</text>
</a>
</g>
</g>
<!-- Node10&#45;&gt;Node13 -->
<g id="edge13" class="edge">
<title>Node10&#45;&gt;Node13</title>
<path fill="none" stroke="midnightblue" d="M357.41,-998C376.55,-998 399.16,-998 420.15,-998"/>
<polygon fill="midnightblue" stroke="midnightblue" points="420.3,-1001.5 430.3,-998 420.3,-994.5 420.3,-1001.5"/>
</g>
<!-- Node14 -->
<g id="node14" class="node">
<title>Node14</title>
<g id="a_node14"><a xlink:href="class_entity.html#aa888515055b65c5ffa3c66f667c3a5c3" target="_top" xlink:title="Fonction retournant la position en x de l&#39;entité">
<polygon fill="none" stroke="black" points="444,-1102.5 444,-1121.5 534,-1121.5 534,-1102.5 444,-1102.5"/>
<text text-anchor="middle" x="489" y="-1109.5" font-family="Helvetica,sans-Serif" font-size="10.00">Entity::getPosX</text>
</a>
</g>
</g>
<!-- Node10&#45;&gt;Node14 -->
<g id="edge19" class="edge">
<title>Node10&#45;&gt;Node14</title>
<path fill="none" stroke="midnightblue" d="M320.15,-1007.58C337.82,-1026.6 380.13,-1069.32 424,-1093 428.18,-1095.26 432.66,-1097.28 437.24,-1099.08"/>
<polygon fill="midnightblue" stroke="midnightblue" points="436.11,-1102.39 446.71,-1102.48 438.48,-1095.8 436.11,-1102.39"/>
</g>
<!-- Node15 -->
<g id="node15" class="node">
<title>Node15</title>
<g id="a_node15"><a xlink:href="class_entity.html#afb4d00e5b5b27d6c69b00f8a5f6ed436" target="_top" xlink:title="Fonction retournant la position en y de l&#39;entité">
<polygon fill="none" stroke="black" points="444.5,-1064.5 444.5,-1083.5 533.5,-1083.5 533.5,-1064.5 444.5,-1064.5"/>
<text text-anchor="middle" x="489" y="-1071.5" font-family="Helvetica,sans-Serif" font-size="10.00">Entity::getPosY</text>
</a>
</g>
</g>
<!-- Node10&#45;&gt;Node15 -->
<g id="edge20" class="edge">
<title>Node10&#45;&gt;Node15</title>
<path fill="none" stroke="midnightblue" d="M328.21,-1007.67C349.8,-1019.89 388.81,-1040.99 424,-1055 429.79,-1057.31 435.98,-1059.48 442.14,-1061.48"/>
<polygon fill="midnightblue" stroke="midnightblue" points="441.14,-1064.84 451.73,-1064.47 443.22,-1058.15 441.14,-1064.84"/>
</g>
<!-- Node16 -->
<g id="node16" class="node">
<title>Node16</title>
<g id="a_node16"><a xlink:href="class_entity.html#adbd6cd7e606bffb2fc7b061ddd13ea14" target="_top" xlink:title="Fonction retournant les PV de l&#39;entité en const.">
<polygon fill="none" stroke="black" points="449.5,-1026.5 449.5,-1045.5 528.5,-1045.5 528.5,-1026.5 449.5,-1026.5"/>
<text text-anchor="middle" x="489" y="-1033.5" font-family="Helvetica,sans-Serif" font-size="10.00">Entity::getPV</text>
</a>
</g>
</g>
<!-- Node10&#45;&gt;Node16 -->
<g id="edge21" class="edge">
<title>Node10&#45;&gt;Node16</title>
<path fill="none" stroke="midnightblue" d="M356.04,-1007.59C381.46,-1013.06 413.36,-1019.93 439.43,-1025.54"/>
<polygon fill="midnightblue" stroke="midnightblue" points="438.96,-1029.02 449.47,-1027.7 440.43,-1022.18 438.96,-1029.02"/>
</g>
<!-- Node17 -->
<g id="node17" class="node">
<title>Node17</title>
<g id="a_node17"><a xlink:href="class_entity.html#abdd4f6821f64524d42bdf29baa7375b5" target="_top" xlink:title="Procédure définissant la position en x et en y.">
<polygon fill="none" stroke="black" points="447.5,-950.5 447.5,-969.5 530.5,-969.5 530.5,-950.5 447.5,-950.5"/>
<text text-anchor="middle" x="489" y="-957.5" font-family="Helvetica,sans-Serif" font-size="10.00">Entity::setPos</text>
</a>
</g>
</g>
<!-- Node10&#45;&gt;Node17 -->
<g id="edge22" class="edge">
<title>Node10&#45;&gt;Node17</title>
<path fill="none" stroke="midnightblue" d="M356.04,-988.41C380.83,-983.07 411.78,-976.41 437.48,-970.88"/>
<polygon fill="midnightblue" stroke="midnightblue" points="438.36,-974.27 447.4,-968.74 436.89,-967.42 438.36,-974.27"/>
</g>
<!-- Node18 -->
<g id="node18" class="node">
<title>Node18</title>
<g id="a_node18"><a xlink:href="class_entity.html#a4333a5eb508029a6ab2a34c072b3c50f" target="_top" xlink:title="Procédure définissant la position en x.">
<polygon fill="none" stroke="black" points="444.5,-874.5 444.5,-893.5 533.5,-893.5 533.5,-874.5 444.5,-874.5"/>
<text text-anchor="middle" x="489" y="-881.5" font-family="Helvetica,sans-Serif" font-size="10.00">Entity::setPosX</text>
</a>
</g>
</g>
<!-- Node10&#45;&gt;Node18 -->
<g id="edge23" class="edge">
<title>Node10&#45;&gt;Node18</title>
<path fill="none" stroke="midnightblue" d="M321.25,-988.39C339.84,-970.49 382.25,-931.73 424,-908 431.19,-903.92 439.2,-900.28 447.06,-897.14"/>
<polygon fill="midnightblue" stroke="midnightblue" points="448.39,-900.38 456.51,-893.58 445.92,-893.83 448.39,-900.38"/>
</g>
<!-- Node19 -->
<g id="node19" class="node">
<title>Node19</title>
<g id="a_node19"><a xlink:href="class_entity.html#a818d626382f59946d0e0ca8111df6657" target="_top" xlink:title="Procédure définissant la position en y.">
<polygon fill="none" stroke="black" points="444.5,-836.5 444.5,-855.5 533.5,-855.5 533.5,-836.5 444.5,-836.5"/>
<text text-anchor="middle" x="489" y="-843.5" font-family="Helvetica,sans-Serif" font-size="10.00">Entity::setPosY</text>
</a>
</g>
</g>
<!-- Node10&#45;&gt;Node19 -->
<g id="edge24" class="edge">
<title>Node10&#45;&gt;Node19</title>
<path fill="none" stroke="midnightblue" d="M316.94,-988.3C331.18,-963.8 372.1,-898.91 424,-865 427.49,-862.72 431.27,-860.7 435.18,-858.92"/>
<polygon fill="midnightblue" stroke="midnightblue" points="436.51,-862.16 444.48,-855.19 433.9,-855.67 436.51,-862.16"/>
</g>
<!-- Node20 -->
<g id="node20" class="node">
<title>Node20</title>
<g id="a_node20"><a xlink:href="class_entity.html#af43254cad39f33e56cf48d74e95e4cef" target="_top" xlink:title="Procedure définissant les PV de l&#39;entité">
<polygon fill="none" stroke="black" points="450,-1216.5 450,-1235.5 528,-1235.5 528,-1216.5 450,-1216.5"/>
<text text-anchor="middle" x="489" y="-1223.5" font-family="Helvetica,sans-Serif" font-size="10.00">Entity::setPV</text>
</a>
</g>
</g>
<!-- Node10&#45;&gt;Node20 -->
<g id="edge25" class="edge">
<title>Node10&#45;&gt;Node20</title>
<path fill="none" stroke="midnightblue" d="M314.17,-1007.65C323.58,-1039.9 358.21,-1145.13 424,-1202 428.83,-1206.18 434.46,-1209.66 440.34,-1212.55"/>
<polygon fill="midnightblue" stroke="midnightblue" points="439.13,-1215.84 449.7,-1216.63 441.93,-1209.43 439.13,-1215.84"/>
</g>
<!-- Node11&#45;&gt;Node5 -->
<g id="edge11" class="edge">
<title>Node11&#45;&gt;Node5</title>
<path fill="none" stroke="midnightblue" d="M540.22,-1140.47C545.29,-1138 550.03,-1134.89 554,-1131 636.21,-1050.44 648.87,-900.42 650.72,-846.74"/>
<polygon fill="midnightblue" stroke="midnightblue" points="654.23,-846.63 650.98,-836.54 647.23,-846.45 654.23,-846.63"/>
</g>
<!-- Node11&#45;&gt;Node12 -->
<g id="edge12" class="edge">
<title>Node11&#45;&gt;Node12</title>
<path fill="none" stroke="midnightblue" d="M548.12,-1150C558.43,-1150 569.27,-1150 579.89,-1150"/>
<polygon fill="midnightblue" stroke="midnightblue" points="579.98,-1153.5 589.97,-1150 579.97,-1146.5 579.98,-1153.5"/>
</g>
<!-- Node13&#45;&gt;Node6 -->
<g id="edge14" class="edge">
<title>Node13&#45;&gt;Node6</title>
<path fill="none" stroke="midnightblue" d="M541.56,-988.37C546.19,-985.91 550.46,-982.83 554,-979 606.65,-921.9 554.62,-877.14 590,-808 600.18,-788.1 617.86,-769.65 631.57,-757.17"/>
<polygon fill="midnightblue" stroke="midnightblue" points="633.9,-759.78 639.1,-750.54 629.28,-754.52 633.9,-759.78"/>
</g>
<!-- Node13&#45;&gt;Node12 -->
<g id="edge15" class="edge">
<title>Node13&#45;&gt;Node12</title>
<path fill="none" stroke="midnightblue" d="M535.78,-1007.56C542.22,-1010.03 548.51,-1013.12 554,-1017 596.82,-1047.22 628.06,-1102.39 642.35,-1131.26"/>
<polygon fill="midnightblue" stroke="midnightblue" points="639.2,-1132.79 646.68,-1140.29 645.51,-1129.76 639.2,-1132.79"/>
</g>
<!-- Node21&#45;&gt;Node22 -->
<g id="edge27" class="edge">
<title>Node21&#45;&gt;Node22</title>
<path fill="none" stroke="midnightblue" d="M350.3,-767.09C363.42,-764.46 377.41,-759.67 388,-751 416.92,-727.33 395.62,-699.32 424,-675 427.71,-671.82 431.93,-669.17 436.4,-666.97"/>
<polygon fill="midnightblue" stroke="midnightblue" points="437.95,-670.12 445.83,-663.04 435.25,-663.66 437.95,-670.12"/>
</g>
<!-- Node23 -->
<g id="node23" class="node">
<title>Node23</title>
<g id="a_node23"><a xlink:href="class_map.html#ac39389f542d1804f9f9891ee6867a103" target="_top" xlink:title=" ">
<polygon fill="none" stroke="black" points="431.5,-760.5 431.5,-779.5 546.5,-779.5 546.5,-760.5 431.5,-760.5"/>
<text text-anchor="middle" x="489" y="-767.5" font-family="Helvetica,sans-Serif" font-size="10.00">Map::IsValidPosition</text>
</a>
</g>
</g>
<!-- Node21&#45;&gt;Node23 -->
<g id="edge28" class="edge">
<title>Node21&#45;&gt;Node23</title>
<path fill="none" stroke="midnightblue" d="M350.23,-770C371.01,-770 397.2,-770 421.15,-770"/>
<polygon fill="midnightblue" stroke="midnightblue" points="421.26,-773.5 431.26,-770 421.26,-766.5 421.26,-773.5"/>
</g>
<!-- Node25 -->
<g id="node25" class="node">
<title>Node25</title>
<g id="a_node25"><a xlink:href="window_t_x_t_8cpp.html#a22f527b59d86c3eb3e750e7e2057ca4f" target="_top" xlink:title=" ">
<polygon fill="none" stroke="black" points="290,-0.5 290,-19.5 331,-19.5 331,-0.5 290,-0.5"/>
<text text-anchor="middle" x="310.5" y="-7.5" font-family="Helvetica,sans-Serif" font-size="10.00">khbit</text>
</a>
</g>
</g>
<!-- Node24&#45;&gt;Node25 -->
<g id="edge30" class="edge">
<title>Node24&#45;&gt;Node25</title>
<path fill="none" stroke="midnightblue" d="M153.79,-86.47C169.3,-71.91 201.04,-44.21 233,-29 247.71,-21.99 265.29,-17.39 279.89,-14.48"/>
<polygon fill="midnightblue" stroke="midnightblue" points="280.7,-17.89 289.91,-12.64 279.44,-11 280.7,-17.89"/>
</g>
<!-- Node28&#45;&gt;Node5 -->
<g id="edge43" class="edge">
<title>Node28&#45;&gt;Node5</title>
<path fill="none" stroke="midnightblue" d="M148.63,-380.82C159.75,-403.22 190.21,-458.24 233,-485 292.72,-522.34 323.57,-489.55 388,-518 471.04,-554.67 501.49,-562.95 554,-637 586.95,-683.46 562.11,-710.33 590,-760 600.84,-779.31 618.21,-797.64 631.64,-810.24"/>
<polygon fill="midnightblue" stroke="midnightblue" points="629.65,-813.16 639.41,-817.29 634.36,-807.98 629.65,-813.16"/>
</g>
<!-- Node28&#45;&gt;Node6 -->
<g id="edge44" class="edge">
<title>Node28&#45;&gt;Node6</title>
<path fill="none" stroke="midnightblue" d="M147.78,-361.42C162.52,-324.34 216.09,-191.75 233,-181 291.13,-144.04 324.55,-154.17 388,-181 609.54,-274.7 644.74,-633 650.08,-721.27"/>
<polygon fill="midnightblue" stroke="midnightblue" points="646.6,-721.68 650.64,-731.47 653.59,-721.3 646.6,-721.68"/>
</g>
<!-- Node28&#45;&gt;Node8 -->
<g id="edge51" class="edge">
<title>Node28&#45;&gt;Node8</title>
<path fill="none" stroke="midnightblue" d="M144.7,-380.54C147.8,-415.51 163.42,-537.85 233,-599 239.65,-604.84 247.82,-608.94 256.32,-611.81"/>
<polygon fill="midnightblue" stroke="midnightblue" points="255.41,-615.2 265.99,-614.56 257.32,-608.46 255.41,-615.2"/>
</g>
<!-- Node28&#45;&gt;Node9 -->
<g id="edge52" class="edge">
<title>Node28&#45;&gt;Node9</title>
<path fill="none" stroke="midnightblue" d="M144.11,-380.72C145.09,-419.45 154.12,-564.15 233,-637 236.02,-639.79 239.39,-642.19 242.98,-644.25"/>
<polygon fill="midnightblue" stroke="midnightblue" points="241.77,-647.55 252.3,-648.7 244.79,-641.23 241.77,-647.55"/>
</g>
<!-- Node28&#45;&gt;Node22 -->
<g id="edge47" class="edge">
<title>Node28&#45;&gt;Node22</title>
<path fill="none" stroke="midnightblue" d="M147,-380.61C155.7,-406.9 183.54,-480.52 233,-518 289.98,-561.18 325.79,-525.78 388,-561 423.71,-581.22 456.43,-616.95 474.15,-638.35"/>
<polygon fill="midnightblue" stroke="midnightblue" points="471.58,-640.74 480.59,-646.31 477.02,-636.33 471.58,-640.74"/>
</g>
<!-- Node28&#45;&gt;Node26 -->
<g id="edge42" class="edge">
<title>Node28&#45;&gt;Node26</title>
<path fill="none" stroke="midnightblue" d="M145.83,-380.7C152.1,-411.24 175.59,-506.33 233,-556 237.84,-560.18 243.4,-563.64 249.27,-566.49"/>
<polygon fill="midnightblue" stroke="midnightblue" points="248.13,-569.81 258.7,-570.5 250.87,-563.37 248.13,-569.81"/>
</g>
<!-- Node28&#45;&gt;Node27 -->
<g id="edge48" class="edge">
<title>Node28&#45;&gt;Node27</title>
<path fill="none" stroke="midnightblue" d="M147.64,-361.17C156.69,-336.59 180.62,-270.35 197,-214 215.77,-149.41 185.51,-114.64 233,-67 239.67,-60.31 248.3,-55.85 257.36,-52.89"/>
<polygon fill="midnightblue" stroke="midnightblue" points="258.52,-56.21 267.28,-50.25 256.71,-49.44 258.52,-56.21"/>
</g>
<!-- Node29 -->
<g id="node29" class="node">
<title>Node29</title>
<g id="a_node29"><a xlink:href="class_game.html#a76bb34327b14c40d3d6d40331c6c075e" target="_top" xlink:title=" ">
<polygon fill="none" stroke="black" points="267.5,-114.5 267.5,-133.5 353.5,-133.5 353.5,-114.5 267.5,-114.5"/>
<text text-anchor="middle" x="310.5" y="-121.5" font-family="Helvetica,sans-Serif" font-size="10.00">Game::appear</text>
</a>
</g>
</g>
<!-- Node28&#45;&gt;Node29 -->
<g id="edge35" class="edge">
<title>Node28&#45;&gt;Node29</title>
<path fill="none" stroke="midnightblue" d="M147.3,-361.35C161.32,-320.58 216,-163.76 233,-148 240.05,-141.47 248.85,-136.71 257.96,-133.25"/>
<polygon fill="midnightblue" stroke="midnightblue" points="259.11,-136.56 267.5,-130.1 256.91,-129.92 259.11,-136.56"/>
</g>
<!-- Node30 -->
<g id="node30" class="node">
<title>Node30</title>
<g id="a_node30"><a xlink:href="class_window_t_x_t.html#a79659c7c121f98d9021e422a69d61333" target="_top" xlink:title=" ">
<polygon fill="none" stroke="black" points="258.5,-304.5 258.5,-323.5 362.5,-323.5 362.5,-304.5 258.5,-304.5"/>
<text text-anchor="middle" x="310.5" y="-311.5" font-family="Helvetica,sans-Serif" font-size="10.00">WindowTXT::clear</text>
</a>
</g>
</g>
<!-- Node28&#45;&gt;Node30 -->
<g id="edge36" class="edge">
<title>Node28&#45;&gt;Node30</title>
<path fill="none" stroke="midnightblue" d="M163.79,-361.46C181.6,-353.15 208.63,-341.17 233,-333 240.39,-330.52 248.28,-328.21 256.08,-326.1"/>
<polygon fill="midnightblue" stroke="midnightblue" points="257.07,-329.46 265.86,-323.56 255.3,-322.69 257.07,-329.46"/>
</g>
<!-- Node31 -->
<g id="node31" class="node">
<title>Node31</title>
<g id="a_node31"><a xlink:href="class_window_t_x_t.html#a0243ba21b4e67a20c74b94c0192e3e02" target="_top" xlink:title=" ">
<polygon fill="none" stroke="black" points="438,-361.5 438,-380.5 540,-380.5 540,-361.5 438,-361.5"/>
<text text-anchor="middle" x="489" y="-368.5" font-family="Helvetica,sans-Serif" font-size="10.00">WindowTXT::print</text>
</a>
</g>
</g>
<!-- Node28&#45;&gt;Node31 -->
<g id="edge53" class="edge">
<title>Node28&#45;&gt;Node31</title>
<path fill="none" stroke="midnightblue" d="M160.72,-380.58C178.13,-389.95 206.5,-403.58 233,-409 300.49,-422.81 320.24,-421.44 388,-409 413.16,-404.38 440.19,-393.73 459.8,-384.88"/>
<polygon fill="midnightblue" stroke="midnightblue" points="461.46,-387.97 469.06,-380.58 458.51,-381.62 461.46,-387.97"/>
</g>
<!-- Node32 -->
<g id="node32" class="node">
<title>Node32</title>
<g id="a_node32"><a xlink:href="class_window_t_x_t.html#a25d39d051d4874b61fe20311ab1b0f19" target="_top" xlink:title=" ">
<polygon fill="none" stroke="black" points="258.5,-76.5 258.5,-95.5 362.5,-95.5 362.5,-76.5 258.5,-76.5"/>
<text text-anchor="middle" x="310.5" y="-83.5" font-family="Helvetica,sans-Serif" font-size="10.00">WindowTXT::draw</text>
</a>
</g>
</g>
<!-- Node28&#45;&gt;Node32 -->
<g id="edge38" class="edge">
<title>Node28&#45;&gt;Node32</title>
<path fill="none" stroke="midnightblue" d="M147.25,-361.45C155.57,-336.96 178.32,-269.94 197,-214 213.16,-165.61 195.59,-139.69 233,-105 237.5,-100.83 242.77,-97.53 248.4,-94.94"/>
<polygon fill="midnightblue" stroke="midnightblue" points="250.07,-98.05 258.16,-91.2 247.57,-91.51 250.07,-98.05"/>
</g>
<!-- Node34 -->
<g id="node34" class="node">
<title>Node34</title>
<g id="a_node34"><a xlink:href="class_window_t_x_t.html#acef149b4871fdb3afff9a60648592174" target="_top" xlink:title=" ">
<polygon fill="none" stroke="black" points="257,-456.5 257,-475.5 364,-475.5 364,-456.5 257,-456.5"/>
<text text-anchor="middle" x="310.5" y="-463.5" font-family="Helvetica,sans-Serif" font-size="10.00">WindowTXT::erase</text>
</a>
</g>
</g>
<!-- Node28&#45;&gt;Node34 -->
<g id="edge40" class="edge">
<title>Node28&#45;&gt;Node34</title>
<path fill="none" stroke="midnightblue" d="M153.54,-380.64C168.96,-395.72 200.89,-424.93 233,-442 241.3,-446.42 250.55,-450.17 259.67,-453.31"/>
<polygon fill="midnightblue" stroke="midnightblue" points="258.87,-456.73 269.46,-456.47 261.02,-450.07 258.87,-456.73"/>
</g>
<!-- Node35 -->
<g id="node35" class="node">
<title>Node35</title>
<g id="a_node35"><a xlink:href="class_window_t_x_t.html#acee576c02401371c0cb2f013cbcb7415" target="_top" xlink:title=" ">
<polygon fill="none" stroke="black" points="235.5,-380.5 235.5,-399.5 385.5,-399.5 385.5,-380.5 235.5,-380.5"/>
<text text-anchor="middle" x="310.5" y="-387.5" font-family="Helvetica,sans-Serif" font-size="10.00">WindowTXT::getConstDimX</text>
</a>
</g>
</g>
<!-- Node28&#45;&gt;Node35 -->
<g id="edge41" class="edge">
<title>Node28&#45;&gt;Node35</title>
<path fill="none" stroke="midnightblue" d="M171.33,-374.14C186.26,-375.85 205.65,-378.08 225.16,-380.32"/>
<polygon fill="midnightblue" stroke="midnightblue" points="225.01,-383.82 235.35,-381.49 225.81,-376.87 225.01,-383.82"/>
</g>
<!-- Node36 -->
<g id="node36" class="node">
<title>Node36</title>
<g id="a_node36"><a xlink:href="class_game.html#a590078d6a58c9b1fa63d560df0b30ee6" target="_top" xlink:title=" ">
<polygon fill="none" stroke="black" points="240,-342.5 240,-361.5 381,-361.5 381,-342.5 240,-342.5"/>
<text text-anchor="middle" x="310.5" y="-349.5" font-family="Helvetica,sans-Serif" font-size="10.00">Game::getConstProjectile</text>
</a>
</g>
</g>
<!-- Node28&#45;&gt;Node36 -->
<g id="edge45" class="edge">
<title>Node28&#45;&gt;Node36</title>
<path fill="none" stroke="midnightblue" d="M171.33,-367.86C187.5,-366.01 208.89,-363.55 230,-361.13"/>
<polygon fill="midnightblue" stroke="midnightblue" points="230.45,-364.6 239.99,-359.98 229.65,-357.64 230.45,-364.6"/>
</g>
<!-- Node37 -->
<g id="node37" class="node">
<title>Node37</title>
<g id="a_node37"><a xlink:href="class_game.html#a8e1bd589715b549b76b06fc3e4f61f1c" target="_top" xlink:title=" ">
<polygon fill="none" stroke="black" points="233,-266.5 233,-285.5 388,-285.5 388,-266.5 233,-266.5"/>
<text text-anchor="middle" x="310.5" y="-273.5" font-family="Helvetica,sans-Serif" font-size="10.00">Game::getConstTowerArcher</text>
</a>
</g>
</g>
<!-- Node28&#45;&gt;Node37 -->
<g id="edge46" class="edge">
<title>Node28&#45;&gt;Node37</title>
<path fill="none" stroke="midnightblue" d="M152.31,-361.46C166.96,-345.27 199.03,-312.47 233,-295 237.6,-292.63 242.5,-290.55 247.53,-288.73"/>
<polygon fill="midnightblue" stroke="midnightblue" points="248.88,-291.96 257.29,-285.51 246.69,-285.32 248.88,-291.96"/>
</g>
<!-- Node38 -->
<g id="node38" class="node">
<title>Node38</title>
<g id="a_node38"><a xlink:href="class_game.html#a61492cc55812183eeddc681a5f5a4f1b" target="_top" xlink:title=" ">
<polygon fill="none" stroke="black" points="260,-228.5 260,-247.5 361,-247.5 361,-228.5 260,-228.5"/>
<text text-anchor="middle" x="310.5" y="-235.5" font-family="Helvetica,sans-Serif" font-size="10.00">Game::getEnemy</text>
</a>
</g>
</g>
<!-- Node28&#45;&gt;Node38 -->
<g id="edge49" class="edge">
<title>Node28&#45;&gt;Node38</title>
<path fill="none" stroke="midnightblue" d="M148.7,-361.28C159.94,-339.08 190.67,-284.48 233,-257 238.27,-253.58 244.12,-250.77 250.16,-248.47"/>
<polygon fill="midnightblue" stroke="midnightblue" points="251.39,-251.75 259.76,-245.26 249.16,-245.11 251.39,-251.75"/>
</g>
<!-- Node39 -->
<g id="node39" class="node">
<title>Node39</title>
<g id="a_node39"><a xlink:href="class_map.html#a988891fac3660f96ca3b205244a30406" target="_top" xlink:title="Renvoie le type d&#39;objet se trouvant en (x,y)">
<polygon fill="none" stroke="black" points="274.5,-190.5 274.5,-209.5 346.5,-209.5 346.5,-190.5 274.5,-190.5"/>
<text text-anchor="middle" x="310.5" y="-197.5" font-family="Helvetica,sans-Serif" font-size="10.00">Map::getXY</text>
</a>
</g>
</g>
<!-- Node28&#45;&gt;Node39 -->
<g id="edge50" class="edge">
<title>Node28&#45;&gt;Node39</title>
<path fill="none" stroke="midnightblue" d="M146.72,-361.38C154.89,-334.37 181.82,-257.28 233,-219 242.06,-212.22 253.25,-207.84 264.25,-205.01"/>
<polygon fill="midnightblue" stroke="midnightblue" points="265.2,-208.39 274.22,-202.83 263.71,-201.55 265.2,-208.39"/>
</g>
<!-- Node30&#45;&gt;Node31 -->
<g id="edge37" class="edge">
<title>Node30&#45;&gt;Node31</title>
<path fill="none" stroke="midnightblue" d="M353.84,-323.56C365.02,-326.34 377.03,-329.57 388,-333 411.05,-340.21 436.48,-349.9 455.93,-357.69"/>
<polygon fill="midnightblue" stroke="midnightblue" points="454.65,-360.95 465.24,-361.46 457.28,-354.46 454.65,-360.95"/>
</g>
<!-- Node33 -->
<g id="node33" class="node">
<title>Node33</title>
<g id="a_node33"><a xlink:href="class_window_t_x_t.html#a73e94d4d47e2948899bc75c6b32e177a" target="_top" xlink:title=" ">
<polygon fill="none" stroke="black" points="424,-76.5 424,-95.5 554,-95.5 554,-76.5 424,-76.5"/>
<text text-anchor="middle" x="489" y="-83.5" font-family="Helvetica,sans-Serif" font-size="10.00">WindowTXT::termMove</text>
</a>
</g>
</g>
<!-- Node32&#45;&gt;Node33 -->
<g id="edge39" class="edge">
<title>Node32&#45;&gt;Node33</title>
<path fill="none" stroke="midnightblue" d="M362.55,-86C378.55,-86 396.55,-86 413.81,-86"/>
<polygon fill="midnightblue" stroke="midnightblue" points="413.87,-89.5 423.87,-86 413.87,-82.5 413.87,-89.5"/>
</g>
</g>
</svg>
