<?xml version="1.0" encoding="UTF-8" standalone="no"?>
<!DOCTYPE svg PUBLIC "-//W3C//DTD SVG 1.1//EN"
 "http://www.w3.org/Graphics/SVG/1.1/DTD/svg11.dtd">
<!-- Generated by graphviz version 2.43.0 (0)
 -->
<!-- Title: src/txt/GameTXT.cpp Pages: 1 -->
<svg width="425pt" height="308pt"
 viewBox="0.00 0.00 425.06 308.00" xmlns="http://www.w3.org/2000/svg" xmlns:xlink="http://www.w3.org/1999/xlink">
<g id="graph0" class="graph" transform="scale(1 1) rotate(0) translate(4 304)">
<title>src/txt/GameTXT.cpp</title>
<!-- Node1 -->
<g id="node1" class="node">
<title>Node1</title>
<g id="a_node1"><a xlink:title=" ">
<polygon fill="#bfbfbf" stroke="black" points="44.56,-280.5 44.56,-299.5 162.56,-299.5 162.56,-280.5 44.56,-280.5"/>
<text text-anchor="middle" x="103.56" y="-287.5" font-family="Helvetica,sans-Serif" font-size="10.00">src/txt/GameTXT.cpp</text>
</a>
</g>
</g>
<!-- Node2 -->
<g id="node2" class="node">
<title>Node2</title>
<g id="a_node2"><a xlink:title=" ">
<polygon fill="none" stroke="#bfbfbf" points="140.56,-0.5 140.56,-19.5 200.56,-19.5 200.56,-0.5 140.56,-0.5"/>
<text text-anchor="middle" x="170.56" y="-7.5" font-family="Helvetica,sans-Serif" font-size="10.00">iostream</text>
</a>
</g>
</g>
<!-- Node1&#45;&gt;Node2 -->
<g id="edge1" class="edge">
<title>Node1&#45;&gt;Node2</title>
<path fill="none" stroke="midnightblue" d="M85.62,-280.25C56.11,-264.45 0.56,-228.19 0.56,-179 0.56,-179 0.56,-179 0.56,-121 0.56,-90.9 -1.67,-77.34 19.56,-56 48.84,-26.56 96.49,-16.21 130.42,-12.67"/>
<polygon fill="midnightblue" stroke="midnightblue" points="130.83,-16.14 140.48,-11.77 130.21,-9.17 130.83,-16.14"/>
</g>
<!-- Node3 -->
<g id="node3" class="node">
<title>Node3</title>
<g id="a_node3"><a xlink:title=" ">
<polygon fill="none" stroke="#bfbfbf" points="158.56,-224.5 158.56,-243.5 214.56,-243.5 214.56,-224.5 158.56,-224.5"/>
<text text-anchor="middle" x="186.56" y="-231.5" font-family="Helvetica,sans-Serif" font-size="10.00">unistd.h</text>
</a>
</g>
</g>
<!-- Node1&#45;&gt;Node3 -->
<g id="edge2" class="edge">
<title>Node1&#45;&gt;Node3</title>
<path fill="none" stroke="midnightblue" d="M116.89,-280.32C129.72,-271.98 149.34,-259.21 164.5,-249.35"/>
<polygon fill="midnightblue" stroke="midnightblue" points="166.78,-252.04 173.25,-243.65 162.96,-246.17 166.78,-252.04"/>
</g>
<!-- Node4 -->
<g id="node4" class="node">
<title>Node4</title>
<g id="a_node4"><a xlink:href="_game_t_x_t_8h.html" target="_top" xlink:title="Fichier s&#39;occupant de l&#39;affichage du jeu en mode texte.">
<polygon fill="none" stroke="black" points="67.06,-224.5 67.06,-243.5 140.06,-243.5 140.06,-224.5 67.06,-224.5"/>
<text text-anchor="middle" x="103.56" y="-231.5" font-family="Helvetica,sans-Serif" font-size="10.00">GameTXT.h</text>
</a>
</g>
</g>
<!-- Node1&#45;&gt;Node4 -->
<g id="edge3" class="edge">
<title>Node1&#45;&gt;Node4</title>
<path fill="none" stroke="midnightblue" d="M103.56,-280.08C103.56,-273.01 103.56,-262.86 103.56,-253.99"/>
<polygon fill="midnightblue" stroke="midnightblue" points="107.06,-253.75 103.56,-243.75 100.06,-253.75 107.06,-253.75"/>
</g>
<!-- Node5 -->
<g id="node5" class="node">
<title>Node5</title>
<g id="a_node5"><a xlink:href="window_t_x_t_8h.html" target="_top" xlink:title="Définitions de la classe WindowTXT.">
<polygon fill="none" stroke="black" points="63.06,-168.5 63.06,-187.5 144.06,-187.5 144.06,-168.5 63.06,-168.5"/>
<text text-anchor="middle" x="103.56" y="-175.5" font-family="Helvetica,sans-Serif" font-size="10.00">windowTXT.h</text>
</a>
</g>
</g>
<!-- Node4&#45;&gt;Node5 -->
<g id="edge4" class="edge">
<title>Node4&#45;&gt;Node5</title>
<path fill="none" stroke="midnightblue" d="M103.56,-224.08C103.56,-217.01 103.56,-206.86 103.56,-197.99"/>
<polygon fill="midnightblue" stroke="midnightblue" points="107.06,-197.75 103.56,-187.75 100.06,-197.75 107.06,-197.75"/>
</g>
<!-- Node6 -->
<g id="node6" class="node">
<title>Node6</title>
<g id="a_node6"><a xlink:href="_game_8h.html" target="_top" xlink:title="Définition des donées membres et des fonctions membres de la classe Game.">
<polygon fill="none" stroke="black" points="180.56,-168.5 180.56,-187.5 268.56,-187.5 268.56,-168.5 180.56,-168.5"/>
<text text-anchor="middle" x="224.56" y="-175.5" font-family="Helvetica,sans-Serif" font-size="10.00">../core/Game.h</text>
</a>
</g>
</g>
<!-- Node4&#45;&gt;Node6 -->
<g id="edge5" class="edge">
<title>Node4&#45;&gt;Node6</title>
<path fill="none" stroke="midnightblue" d="M122.73,-224.44C142.47,-215.64 173.44,-201.81 196.05,-191.72"/>
<polygon fill="midnightblue" stroke="midnightblue" points="197.77,-194.79 205.47,-187.52 194.92,-188.4 197.77,-194.79"/>
</g>
<!-- Node7 -->
<g id="node7" class="node">
<title>Node7</title>
<g id="a_node7"><a xlink:href="_enemy_8h.html" target="_top" xlink:title="Définition des donées membres et des fonctions membres de la classe Enemy.">
<polygon fill="none" stroke="black" points="307.56,-56.5 307.56,-75.5 365.56,-75.5 365.56,-56.5 307.56,-56.5"/>
<text text-anchor="middle" x="336.56" y="-63.5" font-family="Helvetica,sans-Serif" font-size="10.00">Enemy.h</text>
</a>
</g>
</g>
<!-- Node6&#45;&gt;Node7 -->
<g id="edge6" class="edge">
<title>Node6&#45;&gt;Node7</title>
<path fill="none" stroke="midnightblue" d="M238.74,-168.39C251.91,-160.01 271.68,-146.47 286.56,-132 301.65,-117.32 315.99,-97.91 325.41,-84.14"/>
<polygon fill="midnightblue" stroke="midnightblue" points="328.45,-85.88 331.09,-75.63 322.63,-82 328.45,-85.88"/>
</g>
<!-- Node10 -->
<g id="node10" class="node">
<title>Node10</title>
<g id="a_node10"><a xlink:href="_map_8h.html" target="_top" xlink:title="Définition des donées membres et des fonctions membres de la classe Map.">
<polygon fill="none" stroke="black" points="370.06,-0.5 370.06,-19.5 417.06,-19.5 417.06,-0.5 370.06,-0.5"/>
<text text-anchor="middle" x="393.56" y="-7.5" font-family="Helvetica,sans-Serif" font-size="10.00">Map.h</text>
</a>
</g>
</g>
<!-- Node6&#45;&gt;Node10 -->
<g id="edge11" class="edge">
<title>Node6&#45;&gt;Node10</title>
<path fill="none" stroke="midnightblue" d="M247.39,-168.46C281.1,-154.59 343.53,-123.79 374.56,-76 383.66,-61.98 388.51,-43.48 391.03,-29.8"/>
<polygon fill="midnightblue" stroke="midnightblue" points="394.53,-30.08 392.63,-19.65 387.61,-28.99 394.53,-30.08"/>
</g>
<!-- Node11 -->
<g id="node11" class="node">
<title>Node11</title>
<g id="a_node11"><a xlink:href="_tower_archer_8h.html" target="_top" xlink:title="Définition des donées membres et des fonctions membres de la classe TowerArcher.">
<polygon fill="none" stroke="black" points="128.06,-56.5 128.06,-75.5 213.06,-75.5 213.06,-56.5 128.06,-56.5"/>
<text text-anchor="middle" x="170.56" y="-63.5" font-family="Helvetica,sans-Serif" font-size="10.00">TowerArcher.h</text>
</a>
</g>
</g>
<!-- Node6&#45;&gt;Node11 -->
<g id="edge12" class="edge">
<title>Node6&#45;&gt;Node11</title>
<path fill="none" stroke="midnightblue" d="M218.78,-168.25C213.03,-159.34 204.12,-145.02 197.56,-132 189.74,-116.5 182.29,-98.19 177.2,-84.96"/>
<polygon fill="midnightblue" stroke="midnightblue" points="180.47,-83.71 173.66,-75.59 173.92,-86.18 180.47,-83.71"/>
</g>
<!-- Node12 -->
<g id="node12" class="node">
<title>Node12</title>
<g id="a_node12"><a xlink:href="_projectile_8h.html" target="_top" xlink:title="Définition des donées membres et des fonctions membres de la classe Projectile.">
<polygon fill="none" stroke="black" points="206.06,-112.5 206.06,-131.5 277.06,-131.5 277.06,-112.5 206.06,-112.5"/>
<text text-anchor="middle" x="241.56" y="-119.5" font-family="Helvetica,sans-Serif" font-size="10.00">Projectile.h</text>
</a>
</g>
</g>
<!-- Node6&#45;&gt;Node12 -->
<g id="edge15" class="edge">
<title>Node6&#45;&gt;Node12</title>
<path fill="none" stroke="midnightblue" d="M227.36,-168.08C229.64,-160.85 232.93,-150.41 235.77,-141.4"/>
<polygon fill="midnightblue" stroke="midnightblue" points="239.14,-142.34 238.8,-131.75 232.46,-140.24 239.14,-142.34"/>
</g>
<!-- Node13 -->
<g id="node13" class="node">
<title>Node13</title>
<g id="a_node13"><a xlink:href="_ressources_8h.html" target="_top" xlink:title=" ">
<polygon fill="none" stroke="black" points="29.06,-56.5 29.06,-75.5 110.06,-75.5 110.06,-56.5 29.06,-56.5"/>
<text text-anchor="middle" x="69.56" y="-63.5" font-family="Helvetica,sans-Serif" font-size="10.00">Ressources.h</text>
</a>
</g>
</g>
<!-- Node6&#45;&gt;Node13 -->
<g id="edge20" class="edge">
<title>Node6&#45;&gt;Node13</title>
<path fill="none" stroke="midnightblue" d="M212.39,-168.37C185.91,-149.57 122.78,-104.77 90.04,-81.53"/>
<polygon fill="midnightblue" stroke="midnightblue" points="91.84,-78.52 81.66,-75.59 87.79,-84.23 91.84,-78.52"/>
</g>
<!-- Node7&#45;&gt;Node2 -->
<g id="edge7" class="edge">
<title>Node7&#45;&gt;Node2</title>
<path fill="none" stroke="midnightblue" d="M310.25,-56.44C282.21,-47.32 237.61,-32.81 206.37,-22.65"/>
<polygon fill="midnightblue" stroke="midnightblue" points="207.33,-19.28 196.74,-19.52 205.16,-25.94 207.33,-19.28"/>
</g>
<!-- Node8 -->
<g id="node8" class="node">
<title>Node8</title>
<g id="a_node8"><a xlink:title=" ">
<polygon fill="none" stroke="#bfbfbf" points="319.56,-0.5 319.56,-19.5 351.56,-19.5 351.56,-0.5 319.56,-0.5"/>
<text text-anchor="middle" x="335.56" y="-7.5" font-family="Helvetica,sans-Serif" font-size="10.00">list</text>
</a>
</g>
</g>
<!-- Node7&#45;&gt;Node8 -->
<g id="edge8" class="edge">
<title>Node7&#45;&gt;Node8</title>
<path fill="none" stroke="midnightblue" d="M336.39,-56.08C336.26,-49.01 336.07,-38.86 335.91,-29.99"/>
<polygon fill="midnightblue" stroke="midnightblue" points="339.4,-29.68 335.72,-19.75 332.4,-29.81 339.4,-29.68"/>
</g>
<!-- Node9 -->
<g id="node9" class="node">
<title>Node9</title>
<g id="a_node9"><a xlink:href="_entity_8h.html" target="_top" xlink:title="Définition des donées membres et des fonctions membres de la classe Entity.">
<polygon fill="none" stroke="black" points="234.06,-0.5 234.06,-19.5 287.06,-19.5 287.06,-0.5 234.06,-0.5"/>
<text text-anchor="middle" x="260.56" y="-7.5" font-family="Helvetica,sans-Serif" font-size="10.00">Entity.h</text>
</a>
</g>
</g>
<!-- Node7&#45;&gt;Node9 -->
<g id="edge9" class="edge">
<title>Node7&#45;&gt;Node9</title>
<path fill="none" stroke="midnightblue" d="M324.35,-56.32C312.78,-48.11 295.18,-35.6 281.4,-25.81"/>
<polygon fill="midnightblue" stroke="midnightblue" points="283.17,-22.77 272.99,-19.83 279.11,-28.48 283.17,-22.77"/>
</g>
<!-- Node7&#45;&gt;Node10 -->
<g id="edge10" class="edge">
<title>Node7&#45;&gt;Node10</title>
<path fill="none" stroke="midnightblue" d="M345.71,-56.32C354.06,-48.42 366.59,-36.55 376.73,-26.94"/>
<polygon fill="midnightblue" stroke="midnightblue" points="379.38,-29.25 384.23,-19.83 374.57,-24.17 379.38,-29.25"/>
</g>
<!-- Node11&#45;&gt;Node2 -->
<g id="edge13" class="edge">
<title>Node11&#45;&gt;Node2</title>
<path fill="none" stroke="midnightblue" d="M170.56,-56.08C170.56,-49.01 170.56,-38.86 170.56,-29.99"/>
<polygon fill="midnightblue" stroke="midnightblue" points="174.06,-29.75 170.56,-19.75 167.06,-29.75 174.06,-29.75"/>
</g>
<!-- Node11&#45;&gt;Node9 -->
<g id="edge14" class="edge">
<title>Node11&#45;&gt;Node9</title>
<path fill="none" stroke="midnightblue" d="M185.02,-56.32C199.06,-47.9 220.61,-34.97 237.1,-25.07"/>
<polygon fill="midnightblue" stroke="midnightblue" points="239.36,-27.8 246.13,-19.65 235.76,-21.8 239.36,-27.8"/>
</g>
<!-- Node12&#45;&gt;Node2 -->
<g id="edge19" class="edge">
<title>Node12&#45;&gt;Node2</title>
<path fill="none" stroke="midnightblue" d="M240.61,-112.36C238.84,-99.26 234.12,-74 222.56,-56 214.9,-44.07 203.15,-33.53 192.76,-25.65"/>
<polygon fill="midnightblue" stroke="midnightblue" points="194.64,-22.68 184.47,-19.69 190.55,-28.37 194.64,-22.68"/>
</g>
<!-- Node12&#45;&gt;Node7 -->
<g id="edge17" class="edge">
<title>Node12&#45;&gt;Node7</title>
<path fill="none" stroke="midnightblue" d="M256.82,-112.32C271.78,-103.82 294.81,-90.73 312.28,-80.8"/>
<polygon fill="midnightblue" stroke="midnightblue" points="314.37,-83.64 321.33,-75.65 310.91,-77.55 314.37,-83.64"/>
</g>
<!-- Node12&#45;&gt;Node9 -->
<g id="edge16" class="edge">
<title>Node12&#45;&gt;Node9</title>
<path fill="none" stroke="midnightblue" d="M244.95,-112.19C248.24,-103.22 253.09,-88.86 255.56,-76 258.49,-60.7 259.71,-43.05 260.22,-30.01"/>
<polygon fill="midnightblue" stroke="midnightblue" points="263.72,-30.01 260.5,-19.91 256.72,-29.81 263.72,-30.01"/>
</g>
<!-- Node12&#45;&gt;Node11 -->
<g id="edge18" class="edge">
<title>Node12&#45;&gt;Node11</title>
<path fill="none" stroke="midnightblue" d="M230.15,-112.32C219.45,-104.18 203.22,-91.84 190.39,-82.09"/>
<polygon fill="midnightblue" stroke="midnightblue" points="192.25,-79.1 182.17,-75.83 188.01,-84.67 192.25,-79.1"/>
</g>
<!-- Node13&#45;&gt;Node2 -->
<g id="edge22" class="edge">
<title>Node13&#45;&gt;Node2</title>
<path fill="none" stroke="midnightblue" d="M85.78,-56.32C101.91,-47.7 126.86,-34.36 145.52,-24.39"/>
<polygon fill="midnightblue" stroke="midnightblue" points="147.2,-27.46 154.37,-19.65 143.9,-21.28 147.2,-27.46"/>
</g>
<!-- Node13&#45;&gt;Node9 -->
<g id="edge21" class="edge">
<title>Node13&#45;&gt;Node9</title>
<path fill="none" stroke="midnightblue" d="M99.82,-56.44C133.57,-46.9 188.14,-31.47 224.18,-21.28"/>
<polygon fill="midnightblue" stroke="midnightblue" points="225.15,-24.65 233.82,-18.56 223.25,-17.91 225.15,-24.65"/>
</g>
</g>
</svg>
