<?xml version="1.0" encoding="UTF-8" standalone="no"?>
<!DOCTYPE svg PUBLIC "-//W3C//DTD SVG 1.1//EN"
 "http://www.w3.org/Graphics/SVG/1.1/DTD/svg11.dtd">
<!-- Generated by graphviz version 2.43.0 (0)
 -->
<!-- Title: src/core/Game.cpp Pages: 1 -->
<svg width="429pt" height="252pt"
 viewBox="0.00 0.00 429.23 252.00" xmlns="http://www.w3.org/2000/svg" xmlns:xlink="http://www.w3.org/1999/xlink">
<g id="graph0" class="graph" transform="scale(1 1) rotate(0) translate(4 248)">
<title>src/core/Game.cpp</title>
<!-- Node1 -->
<g id="node1" class="node">
<title>Node1</title>
<g id="a_node1"><a xlink:title=" ">
<polygon fill="#bfbfbf" stroke="black" points="179.73,-224.5 179.73,-243.5 286.73,-243.5 286.73,-224.5 179.73,-224.5"/>
<text text-anchor="middle" x="233.23" y="-231.5" font-family="Helvetica,sans-Serif" font-size="10.00">src/core/Game.cpp</text>
</a>
</g>
</g>
<!-- Node2 -->
<g id="node2" class="node">
<title>Node2</title>
<g id="a_node2"><a xlink:title=" ">
<polygon fill="none" stroke="#bfbfbf" points="124.23,-0.5 124.23,-19.5 184.23,-19.5 184.23,-0.5 124.23,-0.5"/>
<text text-anchor="middle" x="154.23" y="-7.5" font-family="Helvetica,sans-Serif" font-size="10.00">iostream</text>
</a>
</g>
</g>
<!-- Node1&#45;&gt;Node2 -->
<g id="edge1" class="edge">
<title>Node1&#45;&gt;Node2</title>
<path fill="none" stroke="midnightblue" d="M207.11,-224.39C156.86,-206.24 47.82,-158.73 4.23,-76 -19.22,-31.48 61.75,-17.45 113.76,-13.03"/>
<polygon fill="midnightblue" stroke="midnightblue" points="114.34,-16.5 124.05,-12.25 113.81,-9.52 114.34,-16.5"/>
</g>
<!-- Node3 -->
<g id="node3" class="node">
<title>Node3</title>
<g id="a_node3"><a xlink:href="_game_8h.html" target="_top" xlink:title="Définition des donées membres et des fonctions membres de la classe Game.">
<polygon fill="none" stroke="black" points="205.73,-168.5 205.73,-187.5 260.73,-187.5 260.73,-168.5 205.73,-168.5"/>
<text text-anchor="middle" x="233.23" y="-175.5" font-family="Helvetica,sans-Serif" font-size="10.00">Game.h</text>
</a>
</g>
</g>
<!-- Node1&#45;&gt;Node3 -->
<g id="edge2" class="edge">
<title>Node1&#45;&gt;Node3</title>
<path fill="none" stroke="midnightblue" d="M233.23,-224.08C233.23,-217.01 233.23,-206.86 233.23,-197.99"/>
<polygon fill="midnightblue" stroke="midnightblue" points="236.73,-197.75 233.23,-187.75 229.73,-197.75 236.73,-197.75"/>
</g>
<!-- Node5 -->
<g id="node5" class="node">
<title>Node5</title>
<g id="a_node5"><a xlink:title=" ">
<polygon fill="none" stroke="#bfbfbf" points="389.23,-0.5 389.23,-19.5 421.23,-19.5 421.23,-0.5 389.23,-0.5"/>
<text text-anchor="middle" x="405.23" y="-7.5" font-family="Helvetica,sans-Serif" font-size="10.00">list</text>
</a>
</g>
</g>
<!-- Node1&#45;&gt;Node5 -->
<g id="edge20" class="edge">
<title>Node1&#45;&gt;Node5</title>
<path fill="none" stroke="midnightblue" d="M243.29,-224.44C262.55,-207.76 305.48,-169.29 336.23,-132 355.21,-108.98 358.39,-101.88 373.23,-76 382.12,-60.5 390.99,-42.19 397.14,-28.96"/>
<polygon fill="midnightblue" stroke="midnightblue" points="400.45,-30.14 401.42,-19.59 394.08,-27.23 400.45,-30.14"/>
</g>
<!-- Node4 -->
<g id="node4" class="node">
<title>Node4</title>
<g id="a_node4"><a xlink:href="_enemy_8h.html" target="_top" xlink:title="Définition des donées membres et des fonctions membres de la classe Enemy.">
<polygon fill="none" stroke="black" points="291.23,-56.5 291.23,-75.5 349.23,-75.5 349.23,-56.5 291.23,-56.5"/>
<text text-anchor="middle" x="320.23" y="-63.5" font-family="Helvetica,sans-Serif" font-size="10.00">Enemy.h</text>
</a>
</g>
</g>
<!-- Node3&#45;&gt;Node4 -->
<g id="edge3" class="edge">
<title>Node3&#45;&gt;Node4</title>
<path fill="none" stroke="midnightblue" d="M243.14,-168.24C252.69,-159.54 267.26,-145.58 278.23,-132 290.46,-116.86 302.3,-98.05 310.27,-84.56"/>
<polygon fill="midnightblue" stroke="midnightblue" points="313.35,-86.22 315.34,-75.81 307.3,-82.71 313.35,-86.22"/>
</g>
<!-- Node7 -->
<g id="node7" class="node">
<title>Node7</title>
<g id="a_node7"><a xlink:href="_map_8h.html" target="_top" xlink:title="Définition des donées membres et des fonctions membres de la classe Map.">
<polygon fill="none" stroke="black" points="305.73,-0.5 305.73,-19.5 352.73,-19.5 352.73,-0.5 305.73,-0.5"/>
<text text-anchor="middle" x="329.23" y="-7.5" font-family="Helvetica,sans-Serif" font-size="10.00">Map.h</text>
</a>
</g>
</g>
<!-- Node3&#45;&gt;Node7 -->
<g id="edge8" class="edge">
<title>Node3&#45;&gt;Node7</title>
<path fill="none" stroke="midnightblue" d="M252.96,-168.47C282.75,-154.32 337.88,-122.83 358.23,-76 365.42,-59.45 354.98,-40.63 344.67,-27.52"/>
<polygon fill="midnightblue" stroke="midnightblue" points="347.26,-25.16 338.11,-19.81 341.92,-29.69 347.26,-25.16"/>
</g>
<!-- Node8 -->
<g id="node8" class="node">
<title>Node8</title>
<g id="a_node8"><a xlink:href="_tower_archer_8h.html" target="_top" xlink:title="Définition des donées membres et des fonctions membres de la classe TowerArcher.">
<polygon fill="none" stroke="black" points="111.73,-56.5 111.73,-75.5 196.73,-75.5 196.73,-56.5 111.73,-56.5"/>
<text text-anchor="middle" x="154.23" y="-63.5" font-family="Helvetica,sans-Serif" font-size="10.00">TowerArcher.h</text>
</a>
</g>
</g>
<!-- Node3&#45;&gt;Node8 -->
<g id="edge9" class="edge">
<title>Node3&#45;&gt;Node8</title>
<path fill="none" stroke="midnightblue" d="M223.32,-168.38C213.82,-159.79 199.46,-145.91 189.23,-132 178.34,-117.19 168.67,-98.57 162.26,-85.06"/>
<polygon fill="midnightblue" stroke="midnightblue" points="165.4,-83.49 158.04,-75.87 159.04,-86.42 165.4,-83.49"/>
</g>
<!-- Node9 -->
<g id="node9" class="node">
<title>Node9</title>
<g id="a_node9"><a xlink:href="_projectile_8h.html" target="_top" xlink:title="Définition des donées membres et des fonctions membres de la classe Projectile.">
<polygon fill="none" stroke="black" points="197.73,-112.5 197.73,-131.5 268.73,-131.5 268.73,-112.5 197.73,-112.5"/>
<text text-anchor="middle" x="233.23" y="-119.5" font-family="Helvetica,sans-Serif" font-size="10.00">Projectile.h</text>
</a>
</g>
</g>
<!-- Node3&#45;&gt;Node9 -->
<g id="edge12" class="edge">
<title>Node3&#45;&gt;Node9</title>
<path fill="none" stroke="midnightblue" d="M233.23,-168.08C233.23,-161.01 233.23,-150.86 233.23,-141.99"/>
<polygon fill="midnightblue" stroke="midnightblue" points="236.73,-141.75 233.23,-131.75 229.73,-141.75 236.73,-141.75"/>
</g>
<!-- Node10 -->
<g id="node10" class="node">
<title>Node10</title>
<g id="a_node10"><a xlink:href="_ressources_8h.html" target="_top" xlink:title=" ">
<polygon fill="none" stroke="black" points="12.73,-56.5 12.73,-75.5 93.73,-75.5 93.73,-56.5 12.73,-56.5"/>
<text text-anchor="middle" x="53.23" y="-63.5" font-family="Helvetica,sans-Serif" font-size="10.00">Ressources.h</text>
</a>
</g>
</g>
<!-- Node3&#45;&gt;Node10 -->
<g id="edge17" class="edge">
<title>Node3&#45;&gt;Node10</title>
<path fill="none" stroke="midnightblue" d="M219.11,-168.37C188.09,-149.41 113.78,-104 76.05,-80.94"/>
<polygon fill="midnightblue" stroke="midnightblue" points="77.65,-77.82 67.29,-75.59 74,-83.79 77.65,-77.82"/>
</g>
<!-- Node4&#45;&gt;Node2 -->
<g id="edge4" class="edge">
<title>Node4&#45;&gt;Node2</title>
<path fill="none" stroke="midnightblue" d="M293.93,-56.44C265.88,-47.32 221.29,-32.81 190.05,-22.65"/>
<polygon fill="midnightblue" stroke="midnightblue" points="191,-19.28 180.41,-19.52 188.84,-25.94 191,-19.28"/>
</g>
<!-- Node4&#45;&gt;Node5 -->
<g id="edge5" class="edge">
<title>Node4&#45;&gt;Node5</title>
<path fill="none" stroke="midnightblue" d="M333.89,-56.32C347.15,-47.9 367.5,-34.97 383.08,-25.07"/>
<polygon fill="midnightblue" stroke="midnightblue" points="385.05,-27.97 391.61,-19.65 381.29,-22.06 385.05,-27.97"/>
</g>
<!-- Node6 -->
<g id="node6" class="node">
<title>Node6</title>
<g id="a_node6"><a xlink:href="_entity_8h.html" target="_top" xlink:title="Définition des donées membres et des fonctions membres de la classe Entity.">
<polygon fill="none" stroke="black" points="223.73,-0.5 223.73,-19.5 276.73,-19.5 276.73,-0.5 223.73,-0.5"/>
<text text-anchor="middle" x="250.23" y="-7.5" font-family="Helvetica,sans-Serif" font-size="10.00">Entity.h</text>
</a>
</g>
</g>
<!-- Node4&#45;&gt;Node6 -->
<g id="edge6" class="edge">
<title>Node4&#45;&gt;Node6</title>
<path fill="none" stroke="midnightblue" d="M308.99,-56.32C298.43,-48.18 282.43,-35.84 269.79,-26.09"/>
<polygon fill="midnightblue" stroke="midnightblue" points="271.74,-23.17 261.68,-19.83 267.46,-28.71 271.74,-23.17"/>
</g>
<!-- Node4&#45;&gt;Node7 -->
<g id="edge7" class="edge">
<title>Node4&#45;&gt;Node7</title>
<path fill="none" stroke="midnightblue" d="M321.72,-56.08C322.91,-48.93 324.63,-38.64 326.12,-29.69"/>
<polygon fill="midnightblue" stroke="midnightblue" points="329.58,-30.19 327.77,-19.75 322.68,-29.04 329.58,-30.19"/>
</g>
<!-- Node8&#45;&gt;Node2 -->
<g id="edge10" class="edge">
<title>Node8&#45;&gt;Node2</title>
<path fill="none" stroke="midnightblue" d="M154.23,-56.08C154.23,-49.01 154.23,-38.86 154.23,-29.99"/>
<polygon fill="midnightblue" stroke="midnightblue" points="157.73,-29.75 154.23,-19.75 150.73,-29.75 157.73,-29.75"/>
</g>
<!-- Node8&#45;&gt;Node6 -->
<g id="edge11" class="edge">
<title>Node8&#45;&gt;Node6</title>
<path fill="none" stroke="midnightblue" d="M169.66,-56.32C184.77,-47.82 208.05,-34.73 225.7,-24.8"/>
<polygon fill="midnightblue" stroke="midnightblue" points="227.85,-27.61 234.85,-19.65 224.41,-21.51 227.85,-27.61"/>
</g>
<!-- Node9&#45;&gt;Node2 -->
<g id="edge16" class="edge">
<title>Node9&#45;&gt;Node2</title>
<path fill="none" stroke="midnightblue" d="M231.03,-112.37C227.41,-99.28 219.25,-74.03 206.23,-56 197.82,-44.36 185.83,-33.72 175.48,-25.71"/>
<polygon fill="midnightblue" stroke="midnightblue" points="177.41,-22.78 167.29,-19.64 173.24,-28.41 177.41,-22.78"/>
</g>
<!-- Node9&#45;&gt;Node4 -->
<g id="edge14" class="edge">
<title>Node9&#45;&gt;Node4</title>
<path fill="none" stroke="midnightblue" d="M247.21,-112.32C260.78,-103.9 281.61,-90.97 297.56,-81.07"/>
<polygon fill="midnightblue" stroke="midnightblue" points="299.64,-83.9 306.29,-75.65 295.95,-77.95 299.64,-83.9"/>
</g>
<!-- Node9&#45;&gt;Node6 -->
<g id="edge13" class="edge">
<title>Node9&#45;&gt;Node6</title>
<path fill="none" stroke="midnightblue" d="M234.57,-112.37C237.31,-94.62 243.64,-53.67 247.36,-29.6"/>
<polygon fill="midnightblue" stroke="midnightblue" points="250.84,-30.01 248.9,-19.59 243.92,-28.94 250.84,-30.01"/>
</g>
<!-- Node9&#45;&gt;Node8 -->
<g id="edge15" class="edge">
<title>Node9&#45;&gt;Node8</title>
<path fill="none" stroke="midnightblue" d="M220.54,-112.32C208.33,-103.98 189.65,-91.21 175.23,-81.35"/>
<polygon fill="midnightblue" stroke="midnightblue" points="177.12,-78.41 166.89,-75.65 173.17,-84.19 177.12,-78.41"/>
</g>
<!-- Node10&#45;&gt;Node2 -->
<g id="edge19" class="edge">
<title>Node10&#45;&gt;Node2</title>
<path fill="none" stroke="midnightblue" d="M69.46,-56.32C85.58,-47.7 110.53,-34.36 129.2,-24.39"/>
<polygon fill="midnightblue" stroke="midnightblue" points="130.88,-27.46 138.04,-19.65 127.58,-21.28 130.88,-27.46"/>
</g>
<!-- Node10&#45;&gt;Node6 -->
<g id="edge18" class="edge">
<title>Node10&#45;&gt;Node6</title>
<path fill="none" stroke="midnightblue" d="M84.45,-56.44C119.55,-46.82 176.5,-31.21 213.66,-21.02"/>
<polygon fill="midnightblue" stroke="midnightblue" points="214.87,-24.32 223.59,-18.3 213.02,-17.57 214.87,-24.32"/>
</g>
</g>
</svg>
