<?xml version="1.0" encoding="UTF-8" standalone="no"?>
<!DOCTYPE svg PUBLIC "-//W3C//DTD SVG 1.1//EN"
 "http://www.w3.org/Graphics/SVG/1.1/DTD/svg11.dtd">
<!-- Generated by graphviz version 2.43.0 (0)
 -->
<!-- Title: txtLoop Pages: 1 -->
<svg width="562pt" height="560pt"
 viewBox="0.00 0.00 562.00 560.00" xmlns="http://www.w3.org/2000/svg" xmlns:xlink="http://www.w3.org/1999/xlink">
<g id="graph0" class="graph" transform="scale(1 1) rotate(0) translate(4 556)">
<title>txtLoop</title>
<!-- Node1 -->
<g id="node1" class="node">
<title>Node1</title>
<g id="a_node1"><a xlink:title="Boucle pour l&#39;affichage et la gestion des évènements.">
<polygon fill="#bfbfbf" stroke="black" points="0,-437.5 0,-456.5 53,-456.5 53,-437.5 0,-437.5"/>
<text text-anchor="middle" x="26.5" y="-444.5" font-family="Helvetica,sans-Serif" font-size="10.00">txtLoop</text>
</a>
</g>
</g>
<!-- Node2 -->
<g id="node2" class="node">
<title>Node2</title>
<g id="a_node2"><a xlink:href="class_game.html#acd26cbdfb8fa7cec1832711e618fec45" target="_top" xlink:title="Fonction gérant tous les évènements automatiques du jeu.">
<polygon fill="none" stroke="black" points="89.5,-532.5 89.5,-551.5 196.5,-551.5 196.5,-532.5 89.5,-532.5"/>
<text text-anchor="middle" x="143" y="-539.5" font-family="Helvetica,sans-Serif" font-size="10.00">Game::autoEvents</text>
</a>
</g>
</g>
<!-- Node1&#45;&gt;Node2 -->
<g id="edge1" class="edge">
<title>Node1&#45;&gt;Node2</title>
<path fill="none" stroke="midnightblue" d="M32.85,-456.58C42.23,-472.54 63.12,-504.63 89,-523 91.67,-524.9 94.55,-526.62 97.54,-528.19"/>
<polygon fill="midnightblue" stroke="midnightblue" points="96.18,-531.41 106.72,-532.42 99.11,-525.06 96.18,-531.41"/>
</g>
<!-- Node3 -->
<g id="node3" class="node">
<title>Node3</title>
<g id="a_node3"><a xlink:href="class_window_t_x_t.html#a05997a70b080e106a15520a52d82fd2c" target="_top" xlink:title="Fonction permettant de recevoir un caractère tapé au clavier.">
<polygon fill="none" stroke="black" points="89,-494.5 89,-513.5 197,-513.5 197,-494.5 89,-494.5"/>
<text text-anchor="middle" x="143" y="-501.5" font-family="Helvetica,sans-Serif" font-size="10.00">WindowTXT::getCh</text>
</a>
</g>
</g>
<!-- Node1&#45;&gt;Node3 -->
<g id="edge2" class="edge">
<title>Node1&#45;&gt;Node3</title>
<path fill="none" stroke="midnightblue" d="M44.57,-456.56C56.82,-463.32 73.79,-472.49 89,-480 95.91,-483.41 103.41,-486.93 110.54,-490.17"/>
<polygon fill="midnightblue" stroke="midnightblue" points="109.37,-493.49 119.93,-494.4 112.25,-487.1 109.37,-493.49"/>
</g>
<!-- Node5 -->
<g id="node5" class="node">
<title>Node5</title>
<g id="a_node5"><a xlink:href="class_game.html#a74dda151003b81807c663d07eda2c657" target="_top" xlink:title="Accesseur renvoyant la map de type const.">
<polygon fill="none" stroke="black" points="252.5,-456.5 252.5,-475.5 368.5,-475.5 368.5,-456.5 252.5,-456.5"/>
<text text-anchor="middle" x="310.5" y="-463.5" font-family="Helvetica,sans-Serif" font-size="10.00">Game::getConstMap</text>
</a>
</g>
</g>
<!-- Node1&#45;&gt;Node5 -->
<g id="edge4" class="edge">
<title>Node1&#45;&gt;Node5</title>
<path fill="none" stroke="midnightblue" d="M53.02,-448.72C95.32,-451.57 181.28,-457.36 242.01,-461.45"/>
<polygon fill="midnightblue" stroke="midnightblue" points="242.06,-464.96 252.28,-462.14 242.53,-457.98 242.06,-464.96"/>
</g>
<!-- Node6 -->
<g id="node6" class="node">
<title>Node6</title>
<g id="a_node6"><a xlink:href="class_map.html#a421954a09241f064e551c84f6f044744" target="_top" xlink:title="Renvoie la largeur du terrain.">
<polygon fill="none" stroke="black" points="267.5,-418.5 267.5,-437.5 353.5,-437.5 353.5,-418.5 267.5,-418.5"/>
<text text-anchor="middle" x="310.5" y="-425.5" font-family="Helvetica,sans-Serif" font-size="10.00">Map::getDimX</text>
</a>
</g>
</g>
<!-- Node1&#45;&gt;Node6 -->
<g id="edge5" class="edge">
<title>Node1&#45;&gt;Node6</title>
<path fill="none" stroke="midnightblue" d="M53.02,-445.28C98.91,-442.19 196.19,-435.63 256.87,-431.55"/>
<polygon fill="midnightblue" stroke="midnightblue" points="257.28,-435.03 267.02,-430.86 256.81,-428.04 257.28,-435.03"/>
</g>
<!-- Node7 -->
<g id="node7" class="node">
<title>Node7</title>
<g id="a_node7"><a xlink:href="class_map.html#a1de1775f4a648f64d2310763dc10affe" target="_top" xlink:title="Renvoie la hauteur du terrain.">
<polygon fill="none" stroke="black" points="267.5,-380.5 267.5,-399.5 353.5,-399.5 353.5,-380.5 267.5,-380.5"/>
<text text-anchor="middle" x="310.5" y="-387.5" font-family="Helvetica,sans-Serif" font-size="10.00">Map::getDimY</text>
</a>
</g>
</g>
<!-- Node1&#45;&gt;Node7 -->
<g id="edge6" class="edge">
<title>Node1&#45;&gt;Node7</title>
<path fill="none" stroke="midnightblue" d="M53.14,-439.9C64.13,-436.96 77.15,-433.64 89,-431 146.3,-418.24 212.58,-406.29 257.39,-398.62"/>
<polygon fill="midnightblue" stroke="midnightblue" points="258.19,-402.03 267.46,-396.91 257.01,-395.13 258.19,-402.03"/>
</g>
<!-- Node8 -->
<g id="node8" class="node">
<title>Node8</title>
<g id="a_node8"><a xlink:href="_game_t_x_t_8cpp.html#a79f96f754efd066587bec9a3d0d0add7" target="_top" xlink:title="Fonction dans lequel l&#39;affichage se fait.">
<polygon fill="none" stroke="black" points="115,-247.5 115,-266.5 171,-266.5 171,-247.5 115,-247.5"/>
<text text-anchor="middle" x="143" y="-254.5" font-family="Helvetica,sans-Serif" font-size="10.00">txtShow</text>
</a>
</g>
</g>
<!-- Node1&#45;&gt;Node8 -->
<g id="edge7" class="edge">
<title>Node1&#45;&gt;Node8</title>
<path fill="none" stroke="midnightblue" d="M33.34,-437.32C51.4,-407.34 106.63,-315.69 130.65,-275.84"/>
<polygon fill="midnightblue" stroke="midnightblue" points="133.88,-277.26 136.04,-266.89 127.88,-273.65 133.88,-277.26"/>
</g>
<!-- Node4 -->
<g id="node4" class="node">
<title>Node4</title>
<g id="a_node4"><a xlink:href="window_t_x_t_8cpp.html#a22f527b59d86c3eb3e750e7e2057ca4f" target="_top" xlink:title=" ">
<polygon fill="none" stroke="black" points="290,-494.5 290,-513.5 331,-513.5 331,-494.5 290,-494.5"/>
<text text-anchor="middle" x="310.5" y="-501.5" font-family="Helvetica,sans-Serif" font-size="10.00">khbit</text>
</a>
</g>
</g>
<!-- Node3&#45;&gt;Node4 -->
<g id="edge3" class="edge">
<title>Node3&#45;&gt;Node4</title>
<path fill="none" stroke="midnightblue" d="M197.28,-504C224.52,-504 256.67,-504 279.56,-504"/>
<polygon fill="midnightblue" stroke="midnightblue" points="279.68,-507.5 289.68,-504 279.68,-500.5 279.68,-507.5"/>
</g>
<!-- Node8&#45;&gt;Node5 -->
<g id="edge12" class="edge">
<title>Node8&#45;&gt;Node5</title>
<path fill="none" stroke="midnightblue" d="M145.54,-266.67C151.05,-297.99 172.79,-397.5 233,-447 236.12,-449.57 239.54,-451.79 243.15,-453.73"/>
<polygon fill="midnightblue" stroke="midnightblue" points="241.89,-457 252.44,-457.95 244.78,-450.62 241.89,-457"/>
</g>
<!-- Node8&#45;&gt;Node6 -->
<g id="edge17" class="edge">
<title>Node8&#45;&gt;Node6</title>
<path fill="none" stroke="midnightblue" d="M146.72,-266.62C154.89,-293.63 181.82,-370.72 233,-409 240.17,-414.36 248.66,-418.22 257.34,-421"/>
<polygon fill="midnightblue" stroke="midnightblue" points="256.59,-424.42 267.16,-423.7 258.44,-417.67 256.59,-424.42"/>
</g>
<!-- Node8&#45;&gt;Node7 -->
<g id="edge18" class="edge">
<title>Node8&#45;&gt;Node7</title>
<path fill="none" stroke="midnightblue" d="M148.7,-266.72C159.94,-288.92 190.67,-343.52 233,-371 240.42,-375.82 248.98,-379.41 257.62,-382.1"/>
<polygon fill="midnightblue" stroke="midnightblue" points="256.78,-385.5 267.35,-384.76 258.63,-378.75 256.78,-385.5"/>
</g>
<!-- Node9 -->
<g id="node9" class="node">
<title>Node9</title>
<g id="a_node9"><a xlink:href="class_window_t_x_t.html#a79659c7c121f98d9021e422a69d61333" target="_top" xlink:title="Fonction permettant de remplir le terminal d&#39;un même caractère.">
<polygon fill="none" stroke="black" points="258.5,-228.5 258.5,-247.5 362.5,-247.5 362.5,-228.5 258.5,-228.5"/>
<text text-anchor="middle" x="310.5" y="-235.5" font-family="Helvetica,sans-Serif" font-size="10.00">WindowTXT::clear</text>
</a>
</g>
</g>
<!-- Node8&#45;&gt;Node9 -->
<g id="edge8" class="edge">
<title>Node8&#45;&gt;Node9</title>
<path fill="none" stroke="midnightblue" d="M171.33,-253.86C192.25,-251.46 221.92,-248.05 248.41,-245.01"/>
<polygon fill="midnightblue" stroke="midnightblue" points="248.84,-248.49 258.38,-243.87 248.04,-241.53 248.84,-248.49"/>
</g>
<!-- Node10 -->
<g id="node10" class="node">
<title>Node10</title>
<g id="a_node10"><a xlink:href="class_window_t_x_t.html#a0243ba21b4e67a20c74b94c0192e3e02" target="_top" xlink:title="Fonction permettant de remplir le tableau de caractère de la fenêtre.">
<polygon fill="none" stroke="black" points="438,-247.5 438,-266.5 540,-266.5 540,-247.5 438,-247.5"/>
<text text-anchor="middle" x="489" y="-254.5" font-family="Helvetica,sans-Serif" font-size="10.00">WindowTXT::print</text>
</a>
</g>
</g>
<!-- Node8&#45;&gt;Node10 -->
<g id="edge22" class="edge">
<title>Node8&#45;&gt;Node10</title>
<path fill="none" stroke="midnightblue" d="M171.28,-257C226.37,-257 352.08,-257 427.5,-257"/>
<polygon fill="midnightblue" stroke="midnightblue" points="427.8,-260.5 437.8,-257 427.8,-253.5 427.8,-260.5"/>
</g>
<!-- Node11 -->
<g id="node11" class="node">
<title>Node11</title>
<g id="a_node11"><a xlink:href="class_window_t_x_t.html#a25d39d051d4874b61fe20311ab1b0f19" target="_top" xlink:title="Fonction permettant d&#39;afficher un caractère depuis un tableau de caractère sur le terminal.">
<polygon fill="none" stroke="black" points="258.5,-190.5 258.5,-209.5 362.5,-209.5 362.5,-190.5 258.5,-190.5"/>
<text text-anchor="middle" x="310.5" y="-197.5" font-family="Helvetica,sans-Serif" font-size="10.00">WindowTXT::draw</text>
</a>
</g>
</g>
<!-- Node8&#45;&gt;Node11 -->
<g id="edge10" class="edge">
<title>Node8&#45;&gt;Node11</title>
<path fill="none" stroke="midnightblue" d="M163.79,-247.46C181.6,-239.15 208.63,-227.17 233,-219 240.39,-216.52 248.28,-214.21 256.08,-212.1"/>
<polygon fill="midnightblue" stroke="midnightblue" points="257.07,-215.46 265.86,-209.56 255.3,-208.69 257.07,-215.46"/>
</g>
<!-- Node13 -->
<g id="node13" class="node">
<title>Node13</title>
<g id="a_node13"><a xlink:href="class_entity.html#a632a853b65d0468f138bc35efc0d317b" target="_top" xlink:title="Accesseur renvoyant la position en x d&#39;un ennemi de type const.">
<polygon fill="none" stroke="black" points="251.5,-152.5 251.5,-171.5 369.5,-171.5 369.5,-152.5 251.5,-152.5"/>
<text text-anchor="middle" x="310.5" y="-159.5" font-family="Helvetica,sans-Serif" font-size="10.00">Entity::getConstPosX</text>
</a>
</g>
</g>
<!-- Node8&#45;&gt;Node13 -->
<g id="edge13" class="edge">
<title>Node8&#45;&gt;Node13</title>
<path fill="none" stroke="midnightblue" d="M152.31,-247.46C166.96,-231.27 199.03,-198.47 233,-181 237.6,-178.63 242.5,-176.55 247.53,-174.73"/>
<polygon fill="midnightblue" stroke="midnightblue" points="248.88,-177.96 257.29,-171.51 246.69,-171.32 248.88,-177.96"/>
</g>
<!-- Node14 -->
<g id="node14" class="node">
<title>Node14</title>
<g id="a_node14"><a xlink:href="class_entity.html#a280a384eddb9c7bfb96547adfbb8f515" target="_top" xlink:title="Accesseur renvoyant la position en y d&#39;un ennemi de type const.">
<polygon fill="none" stroke="black" points="252,-114.5 252,-133.5 369,-133.5 369,-114.5 252,-114.5"/>
<text text-anchor="middle" x="310.5" y="-121.5" font-family="Helvetica,sans-Serif" font-size="10.00">Entity::getConstPosY</text>
</a>
</g>
</g>
<!-- Node8&#45;&gt;Node14 -->
<g id="edge14" class="edge">
<title>Node8&#45;&gt;Node14</title>
<path fill="none" stroke="midnightblue" d="M148.7,-247.28C159.94,-225.08 190.67,-170.48 233,-143 236.17,-140.94 239.55,-139.11 243.05,-137.47"/>
<polygon fill="midnightblue" stroke="midnightblue" points="244.62,-140.61 252.56,-133.59 241.98,-134.13 244.62,-140.61"/>
</g>
<!-- Node15 -->
<g id="node15" class="node">
<title>Node15</title>
<g id="a_node15"><a xlink:href="class_game.html#a590078d6a58c9b1fa63d560df0b30ee6" target="_top" xlink:title="Accesseur renvoyant un projectile de type const.">
<polygon fill="none" stroke="black" points="240,-76.5 240,-95.5 381,-95.5 381,-76.5 240,-76.5"/>
<text text-anchor="middle" x="310.5" y="-83.5" font-family="Helvetica,sans-Serif" font-size="10.00">Game::getConstProjectile</text>
</a>
</g>
</g>
<!-- Node8&#45;&gt;Node15 -->
<g id="edge15" class="edge">
<title>Node8&#45;&gt;Node15</title>
<path fill="none" stroke="midnightblue" d="M146.72,-247.38C154.89,-220.37 181.82,-143.28 233,-105 235.49,-103.13 238.15,-101.45 240.92,-99.93"/>
<polygon fill="midnightblue" stroke="midnightblue" points="242.53,-103.04 250.09,-95.61 239.55,-96.71 242.53,-103.04"/>
</g>
<!-- Node16 -->
<g id="node16" class="node">
<title>Node16</title>
<g id="a_node16"><a xlink:href="class_game.html#a8e1bd589715b549b76b06fc3e4f61f1c" target="_top" xlink:title="Accesseur renvoyant une tour de type const.">
<polygon fill="none" stroke="black" points="233,-38.5 233,-57.5 388,-57.5 388,-38.5 233,-38.5"/>
<text text-anchor="middle" x="310.5" y="-45.5" font-family="Helvetica,sans-Serif" font-size="10.00">Game::getConstTowerArcher</text>
</a>
</g>
</g>
<!-- Node8&#45;&gt;Node16 -->
<g id="edge16" class="edge">
<title>Node8&#45;&gt;Node16</title>
<path fill="none" stroke="midnightblue" d="M145.54,-247.33C151.05,-216.01 172.79,-116.5 233,-67 235.03,-65.33 237.2,-63.8 239.45,-62.4"/>
<polygon fill="midnightblue" stroke="midnightblue" points="241.33,-65.37 248.57,-57.64 238.09,-59.17 241.33,-65.37"/>
</g>
<!-- Node17 -->
<g id="node17" class="node">
<title>Node17</title>
<g id="a_node17"><a xlink:href="class_game.html#a61492cc55812183eeddc681a5f5a4f1b" target="_top" xlink:title="Accesseur renvoyant un ennemi.">
<polygon fill="none" stroke="black" points="260,-0.5 260,-19.5 361,-19.5 361,-0.5 260,-0.5"/>
<text text-anchor="middle" x="310.5" y="-7.5" font-family="Helvetica,sans-Serif" font-size="10.00">Game::getEnemy</text>
</a>
</g>
</g>
<!-- Node8&#45;&gt;Node17 -->
<g id="edge19" class="edge">
<title>Node8&#45;&gt;Node17</title>
<path fill="none" stroke="midnightblue" d="M144.7,-247.46C147.8,-212.49 163.42,-90.15 233,-29 237.92,-24.67 243.68,-21.3 249.8,-18.67"/>
<polygon fill="midnightblue" stroke="midnightblue" points="251.39,-21.82 259.62,-15.14 249.02,-15.23 251.39,-21.82"/>
</g>
<!-- Node18 -->
<g id="node18" class="node">
<title>Node18</title>
<g id="a_node18"><a xlink:href="class_map.html#a988891fac3660f96ca3b205244a30406" target="_top" xlink:title="Fonction renvoyant le caractère aux coordonnées (x,y) de la map.">
<polygon fill="none" stroke="black" points="274.5,-342.5 274.5,-361.5 346.5,-361.5 346.5,-342.5 274.5,-342.5"/>
<text text-anchor="middle" x="310.5" y="-349.5" font-family="Helvetica,sans-Serif" font-size="10.00">Map::getXY</text>
</a>
</g>
</g>
<!-- Node8&#45;&gt;Node18 -->
<g id="edge20" class="edge">
<title>Node8&#45;&gt;Node18</title>
<path fill="none" stroke="midnightblue" d="M152.31,-266.54C166.96,-282.73 199.03,-315.53 233,-333 242.68,-337.98 253.74,-341.7 264.37,-344.46"/>
<polygon fill="midnightblue" stroke="midnightblue" points="263.85,-347.94 274.39,-346.83 265.46,-341.12 263.85,-347.94"/>
</g>
<!-- Node19 -->
<g id="node19" class="node">
<title>Node19</title>
<g id="a_node19"><a xlink:href="class_projectile.html#aa165871b916e32d9b69150e0dcd7a889" target="_top" xlink:title="Fonction renvoyant la valeur de la donnée membre _inRange.">
<polygon fill="none" stroke="black" points="252.5,-304.5 252.5,-323.5 368.5,-323.5 368.5,-304.5 252.5,-304.5"/>
<text text-anchor="middle" x="310.5" y="-311.5" font-family="Helvetica,sans-Serif" font-size="10.00">Projectile::isInRange</text>
</a>
</g>
</g>
<!-- Node8&#45;&gt;Node19 -->
<g id="edge21" class="edge">
<title>Node8&#45;&gt;Node19</title>
<path fill="none" stroke="midnightblue" d="M168.81,-266.59C186.6,-273.36 211.17,-282.53 233,-290 244.31,-293.87 256.63,-297.84 268.02,-301.41"/>
<polygon fill="midnightblue" stroke="midnightblue" points="267.16,-304.81 277.74,-304.44 269.24,-298.12 267.16,-304.81"/>
</g>
<!-- Node9&#45;&gt;Node10 -->
<g id="edge9" class="edge">
<title>Node9&#45;&gt;Node10</title>
<path fill="none" stroke="midnightblue" d="M362.55,-243.5C382.94,-245.69 406.56,-248.23 427.78,-250.52"/>
<polygon fill="midnightblue" stroke="midnightblue" points="427.66,-254.02 437.98,-251.62 428.41,-247.06 427.66,-254.02"/>
</g>
<!-- Node12 -->
<g id="node12" class="node">
<title>Node12</title>
<g id="a_node12"><a xlink:href="class_window_t_x_t.html#a73e94d4d47e2948899bc75c6b32e177a" target="_top" xlink:title="Fonction permettant de bouger le curseur du terminal.">
<polygon fill="none" stroke="black" points="424,-190.5 424,-209.5 554,-209.5 554,-190.5 424,-190.5"/>
<text text-anchor="middle" x="489" y="-197.5" font-family="Helvetica,sans-Serif" font-size="10.00">WindowTXT::termMove</text>
</a>
</g>
</g>
<!-- Node11&#45;&gt;Node12 -->
<g id="edge11" class="edge">
<title>Node11&#45;&gt;Node12</title>
<path fill="none" stroke="midnightblue" d="M362.55,-200C378.55,-200 396.55,-200 413.81,-200"/>
<polygon fill="midnightblue" stroke="midnightblue" points="413.87,-203.5 423.87,-200 413.87,-196.5 413.87,-203.5"/>
</g>
</g>
</svg>
