<?xml version="1.0" encoding="UTF-8" standalone="no"?>
<!DOCTYPE svg PUBLIC "-//W3C//DTD SVG 1.1//EN"
 "http://www.w3.org/Graphics/SVG/1.1/DTD/svg11.dtd">
<!-- Generated by graphviz version 2.43.0 (0)
 -->
<!-- Title: src/core/Map.h Pages: 1 -->
<svg width="555pt" height="308pt"
 viewBox="0.00 0.00 554.50 308.00" xmlns="http://www.w3.org/2000/svg" xmlns:xlink="http://www.w3.org/1999/xlink">
<g id="graph0" class="graph" transform="scale(1 1) rotate(0) translate(4 304)">
<title>src/core/Map.h</title>
<!-- Node1 -->
<g id="node1" class="node">
<title>Node1</title>
<g id="a_node1"><a xlink:title="Définition des donées membres et des fonctions membres de la classe Map.">
<polygon fill="#bfbfbf" stroke="black" points="168.5,-280.5 168.5,-299.5 256.5,-299.5 256.5,-280.5 168.5,-280.5"/>
<text text-anchor="middle" x="212.5" y="-287.5" font-family="Helvetica,sans-Serif" font-size="10.00">src/core/Map.h</text>
</a>
</g>
</g>
<!-- Node2 -->
<g id="node2" class="node">
<title>Node2</title>
<g id="a_node2"><a xlink:href="_enemy_8h.html" target="_top" xlink:title="Définition des donées membres et des fonctions membres de la classe Enemy.">
<polygon fill="none" stroke="black" points="163,-224.5 163,-243.5 262,-243.5 262,-224.5 163,-224.5"/>
<text text-anchor="middle" x="212.5" y="-231.5" font-family="Helvetica,sans-Serif" font-size="10.00">src/core/Enemy.h</text>
</a>
</g>
</g>
<!-- Node1&#45;&gt;Node2 -->
<g id="edge1" class="edge">
<title>Node1&#45;&gt;Node2</title>
<path fill="none" stroke="midnightblue" d="M212.5,-269.8C212.5,-260.91 212.5,-250.78 212.5,-243.75"/>
<polygon fill="midnightblue" stroke="midnightblue" points="209,-270.08 212.5,-280.08 216,-270.08 209,-270.08"/>
</g>
<!-- Node4 -->
<g id="node4" class="node">
<title>Node4</title>
<g id="a_node4"><a xlink:href="_game_8h.html" target="_top" xlink:title="Définition des donées membres et des fonctions membres de la classe Game.">
<polygon fill="none" stroke="black" points="67.5,-112.5 67.5,-131.5 163.5,-131.5 163.5,-112.5 67.5,-112.5"/>
<text text-anchor="middle" x="115.5" y="-119.5" font-family="Helvetica,sans-Serif" font-size="10.00">src/core/Game.h</text>
</a>
</g>
</g>
<!-- Node1&#45;&gt;Node4 -->
<g id="edge12" class="edge">
<title>Node1&#45;&gt;Node4</title>
<path fill="none" stroke="midnightblue" d="M189.71,-274.72C177.98,-266.65 163.99,-255.82 153.5,-244 134.32,-222.39 129.17,-215.56 120.5,-188 114.39,-168.57 114.4,-144.33 114.94,-131.65"/>
<polygon fill="midnightblue" stroke="midnightblue" points="187.87,-277.7 198.14,-280.33 191.75,-271.88 187.87,-277.7"/>
</g>
<!-- Node12 -->
<g id="node12" class="node">
<title>Node12</title>
<g id="a_node12"><a xlink:href="_map_8cpp.html" target="_top" xlink:title=" ">
<polygon fill="none" stroke="black" points="280,-224.5 280,-243.5 379,-243.5 379,-224.5 280,-224.5"/>
<text text-anchor="middle" x="329.5" y="-231.5" font-family="Helvetica,sans-Serif" font-size="10.00">src/core/Map.cpp</text>
</a>
</g>
</g>
<!-- Node1&#45;&gt;Node12 -->
<g id="edge13" class="edge">
<title>Node1&#45;&gt;Node12</title>
<path fill="none" stroke="midnightblue" d="M240.16,-276.23C262.05,-266.13 292,-252.31 311.05,-243.52"/>
<polygon fill="midnightblue" stroke="midnightblue" points="238.65,-273.08 231.04,-280.44 241.59,-279.43 238.65,-273.08"/>
</g>
<!-- Node3 -->
<g id="node3" class="node">
<title>Node3</title>
<g id="a_node3"><a xlink:href="_enemy_8cpp.html" target="_top" xlink:title=" ">
<polygon fill="none" stroke="black" points="299.5,-168.5 299.5,-187.5 409.5,-187.5 409.5,-168.5 299.5,-168.5"/>
<text text-anchor="middle" x="354.5" y="-175.5" font-family="Helvetica,sans-Serif" font-size="10.00">src/core/Enemy.cpp</text>
</a>
</g>
</g>
<!-- Node2&#45;&gt;Node3 -->
<g id="edge2" class="edge">
<title>Node2&#45;&gt;Node3</title>
<path fill="none" stroke="midnightblue" d="M244.66,-220.77C271.33,-210.63 308.57,-196.47 332.1,-187.52"/>
<polygon fill="midnightblue" stroke="midnightblue" points="243.1,-217.62 235,-224.44 245.59,-224.16 243.1,-217.62"/>
</g>
<!-- Node2&#45;&gt;Node4 -->
<g id="edge3" class="edge">
<title>Node2&#45;&gt;Node4</title>
<path fill="none" stroke="midnightblue" d="M178.39,-220.28C163,-212.98 145.78,-202.35 134.5,-188 121.28,-171.17 117.25,-145.42 116.03,-131.94"/>
<polygon fill="midnightblue" stroke="midnightblue" points="177.11,-223.54 187.67,-224.41 179.95,-217.15 177.11,-223.54"/>
</g>
<!-- Node9 -->
<g id="node9" class="node">
<title>Node9</title>
<g id="a_node9"><a xlink:href="_projectile_8h.html" target="_top" xlink:title="Définition des donées membres et des fonctions membres de la classe Projectile.">
<polygon fill="none" stroke="black" points="428,-168.5 428,-187.5 541,-187.5 541,-168.5 428,-168.5"/>
<text text-anchor="middle" x="484.5" y="-175.5" font-family="Helvetica,sans-Serif" font-size="10.00">src/core/Projectile.h</text>
</a>
</g>
</g>
<!-- Node2&#45;&gt;Node9 -->
<g id="edge8" class="edge">
<title>Node2&#45;&gt;Node9</title>
<path fill="none" stroke="midnightblue" d="M265.52,-222.47C316.93,-212.27 393.94,-196.98 441.6,-187.52"/>
<polygon fill="midnightblue" stroke="midnightblue" points="264.73,-219.06 255.6,-224.44 266.09,-225.93 264.73,-219.06"/>
</g>
<!-- Node11 -->
<g id="node11" class="node">
<title>Node11</title>
<g id="a_node11"><a xlink:href="_tower_archer_8cpp.html" target="_top" xlink:title=" ">
<polygon fill="none" stroke="black" points="144,-168.5 144,-187.5 281,-187.5 281,-168.5 144,-168.5"/>
<text text-anchor="middle" x="212.5" y="-175.5" font-family="Helvetica,sans-Serif" font-size="10.00">src/core/TowerArcher.cpp</text>
</a>
</g>
</g>
<!-- Node2&#45;&gt;Node11 -->
<g id="edge11" class="edge">
<title>Node2&#45;&gt;Node11</title>
<path fill="none" stroke="midnightblue" d="M212.5,-213.8C212.5,-204.91 212.5,-194.78 212.5,-187.75"/>
<polygon fill="midnightblue" stroke="midnightblue" points="209,-214.08 212.5,-224.08 216,-214.08 209,-214.08"/>
</g>
<!-- Node5 -->
<g id="node5" class="node">
<title>Node5</title>
<g id="a_node5"><a xlink:href="_game_8cpp.html" target="_top" xlink:title=" ">
<polygon fill="none" stroke="black" points="0,-56.5 0,-75.5 107,-75.5 107,-56.5 0,-56.5"/>
<text text-anchor="middle" x="53.5" y="-63.5" font-family="Helvetica,sans-Serif" font-size="10.00">src/core/Game.cpp</text>
</a>
</g>
</g>
<!-- Node4&#45;&gt;Node5 -->
<g id="edge4" class="edge">
<title>Node4&#45;&gt;Node5</title>
<path fill="none" stroke="midnightblue" d="M97.75,-105.54C86.69,-95.91 72.87,-83.87 63.64,-75.83"/>
<polygon fill="midnightblue" stroke="midnightblue" points="95.7,-108.4 105.54,-112.32 100.3,-103.12 95.7,-108.4"/>
</g>
<!-- Node6 -->
<g id="node6" class="node">
<title>Node6</title>
<g id="a_node6"><a xlink:href="_game_t_x_t_8h.html" target="_top" xlink:title="Fichier s&#39;occupant de l&#39;affichage du jeu en mode texte.">
<polygon fill="none" stroke="black" points="125,-56.5 125,-75.5 232,-75.5 232,-56.5 125,-56.5"/>
<text text-anchor="middle" x="178.5" y="-63.5" font-family="Helvetica,sans-Serif" font-size="10.00">src/txt/GameTXT.h</text>
</a>
</g>
</g>
<!-- Node4&#45;&gt;Node6 -->
<g id="edge5" class="edge">
<title>Node4&#45;&gt;Node6</title>
<path fill="none" stroke="midnightblue" d="M133.54,-105.54C144.77,-95.91 158.82,-83.87 168.19,-75.83"/>
<polygon fill="midnightblue" stroke="midnightblue" points="130.94,-103.16 125.62,-112.32 135.49,-108.47 130.94,-103.16"/>
</g>
<!-- Node7 -->
<g id="node7" class="node">
<title>Node7</title>
<g id="a_node7"><a xlink:href="_game_t_x_t_8cpp.html" target="_top" xlink:title=" ">
<polygon fill="none" stroke="black" points="52.5,-0.5 52.5,-19.5 170.5,-19.5 170.5,-0.5 52.5,-0.5"/>
<text text-anchor="middle" x="111.5" y="-7.5" font-family="Helvetica,sans-Serif" font-size="10.00">src/txt/GameTXT.cpp</text>
</a>
</g>
</g>
<!-- Node6&#45;&gt;Node7 -->
<g id="edge6" class="edge">
<title>Node6&#45;&gt;Node7</title>
<path fill="none" stroke="midnightblue" d="M159.67,-49.82C147.66,-40.15 132.53,-27.95 122.46,-19.83"/>
<polygon fill="midnightblue" stroke="midnightblue" points="157.75,-52.77 167.74,-56.32 162.15,-47.32 157.75,-52.77"/>
</g>
<!-- Node8 -->
<g id="node8" class="node">
<title>Node8</title>
<g id="a_node8"><a xlink:href="main_t_x_t_8cpp.html" target="_top" xlink:title=" ">
<polygon fill="none" stroke="black" points="189,-0.5 189,-19.5 302,-19.5 302,-0.5 189,-0.5"/>
<text text-anchor="middle" x="245.5" y="-7.5" font-family="Helvetica,sans-Serif" font-size="10.00">src/txt/mainTXT.cpp</text>
</a>
</g>
</g>
<!-- Node6&#45;&gt;Node8 -->
<g id="edge7" class="edge">
<title>Node6&#45;&gt;Node8</title>
<path fill="none" stroke="midnightblue" d="M197.33,-49.82C209.34,-40.15 224.47,-27.95 234.54,-19.83"/>
<polygon fill="midnightblue" stroke="midnightblue" points="194.85,-47.32 189.26,-56.32 199.25,-52.77 194.85,-47.32"/>
</g>
<!-- Node9&#45;&gt;Node4 -->
<g id="edge9" class="edge">
<title>Node9&#45;&gt;Node4</title>
<path fill="none" stroke="midnightblue" d="M417.6,-167.21C344.27,-156.48 228.45,-139.53 163.59,-130.04"/>
<polygon fill="midnightblue" stroke="midnightblue" points="417.25,-170.7 427.65,-168.68 418.26,-163.77 417.25,-170.7"/>
</g>
<!-- Node10 -->
<g id="node10" class="node">
<title>Node10</title>
<g id="a_node10"><a xlink:href="_projectile_8cpp.html" target="_top" xlink:title=" ">
<polygon fill="none" stroke="black" points="422.5,-112.5 422.5,-131.5 546.5,-131.5 546.5,-112.5 422.5,-112.5"/>
<text text-anchor="middle" x="484.5" y="-119.5" font-family="Helvetica,sans-Serif" font-size="10.00">src/core/Projectile.cpp</text>
</a>
</g>
</g>
<!-- Node9&#45;&gt;Node10 -->
<g id="edge10" class="edge">
<title>Node9&#45;&gt;Node10</title>
<path fill="none" stroke="midnightblue" d="M484.5,-157.8C484.5,-148.91 484.5,-138.78 484.5,-131.75"/>
<polygon fill="midnightblue" stroke="midnightblue" points="481,-158.08 484.5,-168.08 488,-158.08 481,-158.08"/>
</g>
</g>
</svg>
