<?xml version="1.0" encoding="UTF-8" standalone="no"?>
<!DOCTYPE svg PUBLIC "-//W3C//DTD SVG 1.1//EN"
 "http://www.w3.org/Graphics/SVG/1.1/DTD/svg11.dtd">
<!-- Generated by graphviz version 2.43.0 (0)
 -->
<!-- Title: /home/allan/Licence2_Informatique/ProjetLIFAP4/src/core/Map.h Pages: 1 -->
<svg width="673pt" height="440pt"
 viewBox="0.00 0.00 673.00 440.00" xmlns="http://www.w3.org/2000/svg" xmlns:xlink="http://www.w3.org/1999/xlink">
<g id="graph0" class="graph" transform="scale(1 1) rotate(0) translate(4 436)">
<title>/home/allan/Licence2_Informatique/ProjetLIFAP4/src/core/Map.h</title>
<!-- Node1 -->
<g id="node1" class="node">
<title>Node1</title>
<g id="a_node1"><a xlink:title=" ">
<polygon fill="#bfbfbf" stroke="black" points="185,-390.5 185,-431.5 333,-431.5 333,-390.5 185,-390.5"/>
<text text-anchor="start" x="193" y="-419.5" font-family="Helvetica,sans-Serif" font-size="10.00">/home/allan/Licence2</text>
<text text-anchor="start" x="193" y="-408.5" font-family="Helvetica,sans-Serif" font-size="10.00">_Informatique/ProjetLIFAP4</text>
<text text-anchor="middle" x="259" y="-397.5" font-family="Helvetica,sans-Serif" font-size="10.00">/src/core/Map.h</text>
</a>
</g>
</g>
<!-- Node2 -->
<g id="node2" class="node">
<title>Node2</title>
<g id="a_node2"><a xlink:href="_enemy_8h.html" target="_top" xlink:title=" ">
<polygon fill="none" stroke="black" points="185,-312.5 185,-353.5 333,-353.5 333,-312.5 185,-312.5"/>
<text text-anchor="start" x="193" y="-341.5" font-family="Helvetica,sans-Serif" font-size="10.00">/home/allan/Licence2</text>
<text text-anchor="start" x="193" y="-330.5" font-family="Helvetica,sans-Serif" font-size="10.00">_Informatique/ProjetLIFAP4</text>
<text text-anchor="middle" x="259" y="-319.5" font-family="Helvetica,sans-Serif" font-size="10.00">/src/core/Enemy.h</text>
</a>
</g>
</g>
<!-- Node1&#45;&gt;Node2 -->
<g id="edge1" class="edge">
<title>Node1&#45;&gt;Node2</title>
<path fill="none" stroke="midnightblue" d="M259,-380.3C259,-371.3 259,-361.65 259,-353.51"/>
<polygon fill="midnightblue" stroke="midnightblue" points="255.5,-380.43 259,-390.43 262.5,-380.43 255.5,-380.43"/>
</g>
<!-- Node4 -->
<g id="node4" class="node">
<title>Node4</title>
<g id="a_node4"><a xlink:href="_game_8h.html" target="_top" xlink:title=" ">
<polygon fill="none" stroke="black" points="83,-156.5 83,-197.5 231,-197.5 231,-156.5 83,-156.5"/>
<text text-anchor="start" x="91" y="-185.5" font-family="Helvetica,sans-Serif" font-size="10.00">/home/allan/Licence2</text>
<text text-anchor="start" x="91" y="-174.5" font-family="Helvetica,sans-Serif" font-size="10.00">_Informatique/ProjetLIFAP4</text>
<text text-anchor="middle" x="157" y="-163.5" font-family="Helvetica,sans-Serif" font-size="10.00">/src/core/Game.h</text>
</a>
</g>
</g>
<!-- Node1&#45;&gt;Node4 -->
<g id="edge12" class="edge">
<title>Node1&#45;&gt;Node4</title>
<path fill="none" stroke="midnightblue" d="M209.16,-384.98C196.75,-376.65 184.55,-366.29 176,-354 142.64,-306.07 148.33,-232.34 153.49,-197.51"/>
<polygon fill="midnightblue" stroke="midnightblue" points="207.43,-388.03 217.75,-390.43 211.18,-382.12 207.43,-388.03"/>
</g>
<!-- Node12 -->
<g id="node12" class="node">
<title>Node12</title>
<g id="a_node12"><a xlink:href="_map_8cpp.html" target="_top" xlink:title=" ">
<polygon fill="none" stroke="black" points="351,-312.5 351,-353.5 499,-353.5 499,-312.5 351,-312.5"/>
<text text-anchor="start" x="359" y="-341.5" font-family="Helvetica,sans-Serif" font-size="10.00">/home/allan/Licence2</text>
<text text-anchor="start" x="359" y="-330.5" font-family="Helvetica,sans-Serif" font-size="10.00">_Informatique/ProjetLIFAP4</text>
<text text-anchor="middle" x="425" y="-319.5" font-family="Helvetica,sans-Serif" font-size="10.00">/src/core/Map.cpp</text>
</a>
</g>
</g>
<!-- Node1&#45;&gt;Node12 -->
<g id="edge13" class="edge">
<title>Node1&#45;&gt;Node12</title>
<path fill="none" stroke="midnightblue" d="M311.01,-386.19C333.97,-375.67 360.63,-363.47 382.4,-353.51"/>
<polygon fill="midnightblue" stroke="midnightblue" points="309.38,-383.08 301.75,-390.43 312.3,-389.45 309.38,-383.08"/>
</g>
<!-- Node3 -->
<g id="node3" class="node">
<title>Node3</title>
<g id="a_node3"><a xlink:href="_enemy_8cpp.html" target="_top" xlink:title=" ">
<polygon fill="none" stroke="black" points="351,-234.5 351,-275.5 499,-275.5 499,-234.5 351,-234.5"/>
<text text-anchor="start" x="359" y="-263.5" font-family="Helvetica,sans-Serif" font-size="10.00">/home/allan/Licence2</text>
<text text-anchor="start" x="359" y="-252.5" font-family="Helvetica,sans-Serif" font-size="10.00">_Informatique/ProjetLIFAP4</text>
<text text-anchor="middle" x="425" y="-241.5" font-family="Helvetica,sans-Serif" font-size="10.00">/src/core/Enemy.cpp</text>
</a>
</g>
</g>
<!-- Node2&#45;&gt;Node3 -->
<g id="edge2" class="edge">
<title>Node2&#45;&gt;Node3</title>
<path fill="none" stroke="midnightblue" d="M311.01,-308.19C333.97,-297.67 360.63,-285.47 382.4,-275.51"/>
<polygon fill="midnightblue" stroke="midnightblue" points="309.38,-305.08 301.75,-312.43 312.3,-311.45 309.38,-305.08"/>
</g>
<!-- Node2&#45;&gt;Node4 -->
<g id="edge3" class="edge">
<title>Node2&#45;&gt;Node4</title>
<path fill="none" stroke="midnightblue" d="M208.42,-307.01C196.13,-298.71 184.18,-288.37 176,-276 160.32,-252.29 156.93,-218.74 156.52,-197.69"/>
<polygon fill="midnightblue" stroke="midnightblue" points="206.63,-310.02 216.94,-312.42 210.38,-304.11 206.63,-310.02"/>
</g>
<!-- Node9 -->
<g id="node9" class="node">
<title>Node9</title>
<g id="a_node9"><a xlink:href="_projectile_8h.html" target="_top" xlink:title=" ">
<polygon fill="none" stroke="black" points="517,-234.5 517,-275.5 665,-275.5 665,-234.5 517,-234.5"/>
<text text-anchor="start" x="525" y="-263.5" font-family="Helvetica,sans-Serif" font-size="10.00">/home/allan/Licence2</text>
<text text-anchor="start" x="525" y="-252.5" font-family="Helvetica,sans-Serif" font-size="10.00">_Informatique/ProjetLIFAP4</text>
<text text-anchor="middle" x="591" y="-241.5" font-family="Helvetica,sans-Serif" font-size="10.00">/src/core/Projectile.h</text>
</a>
</g>
</g>
<!-- Node2&#45;&gt;Node9 -->
<g id="edge8" class="edge">
<title>Node2&#45;&gt;Node9</title>
<path fill="none" stroke="midnightblue" d="M343.02,-311.79C417.23,-294.94 437.43,-292.15 508,-276 510.89,-275.34 513.83,-274.66 516.81,-273.97"/>
<polygon fill="midnightblue" stroke="midnightblue" points="342.16,-308.4 333.19,-314.03 343.72,-315.22 342.16,-308.4"/>
</g>
<!-- Node11 -->
<g id="node11" class="node">
<title>Node11</title>
<g id="a_node11"><a xlink:href="_tower_archer_8cpp.html" target="_top" xlink:title=" ">
<polygon fill="none" stroke="black" points="185,-234.5 185,-275.5 333,-275.5 333,-234.5 185,-234.5"/>
<text text-anchor="start" x="193" y="-263.5" font-family="Helvetica,sans-Serif" font-size="10.00">/home/allan/Licence2</text>
<text text-anchor="start" x="193" y="-252.5" font-family="Helvetica,sans-Serif" font-size="10.00">_Informatique/ProjetLIFAP4</text>
<text text-anchor="middle" x="259" y="-241.5" font-family="Helvetica,sans-Serif" font-size="10.00">/src/core/TowerArcher.cpp</text>
</a>
</g>
</g>
<!-- Node2&#45;&gt;Node11 -->
<g id="edge11" class="edge">
<title>Node2&#45;&gt;Node11</title>
<path fill="none" stroke="midnightblue" d="M259,-302.3C259,-293.3 259,-283.65 259,-275.51"/>
<polygon fill="midnightblue" stroke="midnightblue" points="255.5,-302.43 259,-312.43 262.5,-302.43 255.5,-302.43"/>
</g>
<!-- Node5 -->
<g id="node5" class="node">
<title>Node5</title>
<g id="a_node5"><a xlink:href="_game_8cpp.html" target="_top" xlink:title=" ">
<polygon fill="none" stroke="black" points="0,-78.5 0,-119.5 148,-119.5 148,-78.5 0,-78.5"/>
<text text-anchor="start" x="8" y="-107.5" font-family="Helvetica,sans-Serif" font-size="10.00">/home/allan/Licence2</text>
<text text-anchor="start" x="8" y="-96.5" font-family="Helvetica,sans-Serif" font-size="10.00">_Informatique/ProjetLIFAP4</text>
<text text-anchor="middle" x="74" y="-85.5" font-family="Helvetica,sans-Serif" font-size="10.00">/src/core/Game.cpp</text>
</a>
</g>
</g>
<!-- Node4&#45;&gt;Node5 -->
<g id="edge4" class="edge">
<title>Node4&#45;&gt;Node5</title>
<path fill="none" stroke="midnightblue" d="M128.05,-149.49C117.28,-139.63 105.26,-128.63 95.3,-119.51"/>
<polygon fill="midnightblue" stroke="midnightblue" points="125.89,-152.26 135.63,-156.43 130.61,-147.09 125.89,-152.26"/>
</g>
<!-- Node6 -->
<g id="node6" class="node">
<title>Node6</title>
<g id="a_node6"><a xlink:href="_game_t_x_t_8h.html" target="_top" xlink:title=" ">
<polygon fill="none" stroke="black" points="166,-78.5 166,-119.5 314,-119.5 314,-78.5 166,-78.5"/>
<text text-anchor="start" x="174" y="-107.5" font-family="Helvetica,sans-Serif" font-size="10.00">/home/allan/Licence2</text>
<text text-anchor="start" x="174" y="-96.5" font-family="Helvetica,sans-Serif" font-size="10.00">_Informatique/ProjetLIFAP4</text>
<text text-anchor="middle" x="240" y="-85.5" font-family="Helvetica,sans-Serif" font-size="10.00">/src/txt/GameTXT.h</text>
</a>
</g>
</g>
<!-- Node4&#45;&gt;Node6 -->
<g id="edge5" class="edge">
<title>Node4&#45;&gt;Node6</title>
<path fill="none" stroke="midnightblue" d="M185.95,-149.49C196.72,-139.63 208.74,-128.63 218.7,-119.51"/>
<polygon fill="midnightblue" stroke="midnightblue" points="183.39,-147.09 178.37,-156.43 188.11,-152.26 183.39,-147.09"/>
</g>
<!-- Node7 -->
<g id="node7" class="node">
<title>Node7</title>
<g id="a_node7"><a xlink:href="_game_t_x_t_8cpp.html" target="_top" xlink:title=" ">
<polygon fill="none" stroke="black" points="83,-0.5 83,-41.5 231,-41.5 231,-0.5 83,-0.5"/>
<text text-anchor="start" x="91" y="-29.5" font-family="Helvetica,sans-Serif" font-size="10.00">/home/allan/Licence2</text>
<text text-anchor="start" x="91" y="-18.5" font-family="Helvetica,sans-Serif" font-size="10.00">_Informatique/ProjetLIFAP4</text>
<text text-anchor="middle" x="157" y="-7.5" font-family="Helvetica,sans-Serif" font-size="10.00">/src/txt/GameTXT.cpp</text>
</a>
</g>
</g>
<!-- Node6&#45;&gt;Node7 -->
<g id="edge6" class="edge">
<title>Node6&#45;&gt;Node7</title>
<path fill="none" stroke="midnightblue" d="M211.05,-71.49C200.28,-61.63 188.26,-50.63 178.3,-41.51"/>
<polygon fill="midnightblue" stroke="midnightblue" points="208.89,-74.26 218.63,-78.43 213.61,-69.09 208.89,-74.26"/>
</g>
<!-- Node8 -->
<g id="node8" class="node">
<title>Node8</title>
<g id="a_node8"><a xlink:href="main_t_x_t_8cpp.html" target="_top" xlink:title=" ">
<polygon fill="none" stroke="black" points="249,-0.5 249,-41.5 397,-41.5 397,-0.5 249,-0.5"/>
<text text-anchor="start" x="257" y="-29.5" font-family="Helvetica,sans-Serif" font-size="10.00">/home/allan/Licence2</text>
<text text-anchor="start" x="257" y="-18.5" font-family="Helvetica,sans-Serif" font-size="10.00">_Informatique/ProjetLIFAP4</text>
<text text-anchor="middle" x="323" y="-7.5" font-family="Helvetica,sans-Serif" font-size="10.00">/src/txt/mainTXT.cpp</text>
</a>
</g>
</g>
<!-- Node6&#45;&gt;Node8 -->
<g id="edge7" class="edge">
<title>Node6&#45;&gt;Node8</title>
<path fill="none" stroke="midnightblue" d="M268.95,-71.49C279.72,-61.63 291.74,-50.63 301.7,-41.51"/>
<polygon fill="midnightblue" stroke="midnightblue" points="266.39,-69.09 261.37,-78.43 271.11,-74.26 266.39,-69.09"/>
</g>
<!-- Node9&#45;&gt;Node4 -->
<g id="edge9" class="edge">
<title>Node9&#45;&gt;Node4</title>
<path fill="none" stroke="midnightblue" d="M506.79,-233.83C405.92,-213.93 300.21,-197.92 231.26,-188.13"/>
<polygon fill="midnightblue" stroke="midnightblue" points="506.36,-237.31 516.85,-235.83 507.73,-230.45 506.36,-237.31"/>
</g>
<!-- Node10 -->
<g id="node10" class="node">
<title>Node10</title>
<g id="a_node10"><a xlink:href="_projectile_8cpp.html" target="_top" xlink:title=" ">
<polygon fill="none" stroke="black" points="517,-156.5 517,-197.5 665,-197.5 665,-156.5 517,-156.5"/>
<text text-anchor="start" x="525" y="-185.5" font-family="Helvetica,sans-Serif" font-size="10.00">/home/allan/Licence2</text>
<text text-anchor="start" x="525" y="-174.5" font-family="Helvetica,sans-Serif" font-size="10.00">_Informatique/ProjetLIFAP4</text>
<text text-anchor="middle" x="591" y="-163.5" font-family="Helvetica,sans-Serif" font-size="10.00">/src/core/Projectile.cpp</text>
</a>
</g>
</g>
<!-- Node9&#45;&gt;Node10 -->
<g id="edge10" class="edge">
<title>Node9&#45;&gt;Node10</title>
<path fill="none" stroke="midnightblue" d="M591,-224.3C591,-215.3 591,-205.65 591,-197.51"/>
<polygon fill="midnightblue" stroke="midnightblue" points="587.5,-224.43 591,-234.43 594.5,-224.43 587.5,-224.43"/>
</g>
</g>
</svg>
