<?xml version="1.0" encoding="UTF-8" standalone="no"?>
<!DOCTYPE svg PUBLIC "-//W3C//DTD SVG 1.1//EN"
 "http://www.w3.org/Graphics/SVG/1.1/DTD/svg11.dtd">
<!-- Generated by graphviz version 2.43.0 (0)
 -->
<!-- Title: src/core/Projectile.cpp Pages: 1 -->
<svg width="473pt" height="196pt"
 viewBox="0.00 0.00 472.50 196.00" xmlns="http://www.w3.org/2000/svg" xmlns:xlink="http://www.w3.org/1999/xlink">
<g id="graph0" class="graph" transform="scale(1 1) rotate(0) translate(4 192)">
<title>src/core/Projectile.cpp</title>
<!-- Node1 -->
<g id="node1" class="node">
<title>Node1</title>
<g id="a_node1"><a xlink:title=" ">
<polygon fill="#bfbfbf" stroke="black" points="249,-168.5 249,-187.5 373,-187.5 373,-168.5 249,-168.5"/>
<text text-anchor="middle" x="311" y="-175.5" font-family="Helvetica,sans-Serif" font-size="10.00">src/core/Projectile.cpp</text>
</a>
</g>
</g>
<!-- Node2 -->
<g id="node2" class="node">
<title>Node2</title>
<g id="a_node2"><a xlink:href="_projectile_8h.html" target="_top" xlink:title="Définition des donées membres et des fonctions membres de la classe Projectile.">
<polygon fill="none" stroke="black" points="133.5,-112.5 133.5,-131.5 204.5,-131.5 204.5,-112.5 133.5,-112.5"/>
<text text-anchor="middle" x="169" y="-119.5" font-family="Helvetica,sans-Serif" font-size="10.00">Projectile.h</text>
</a>
</g>
</g>
<!-- Node1&#45;&gt;Node2 -->
<g id="edge1" class="edge">
<title>Node1&#45;&gt;Node2</title>
<path fill="none" stroke="midnightblue" d="M288.5,-168.44C264.92,-159.48 227.68,-145.31 201.04,-135.18"/>
<polygon fill="midnightblue" stroke="midnightblue" points="201.99,-131.8 191.4,-131.52 199.5,-138.34 201.99,-131.8"/>
</g>
<!-- Node5 -->
<g id="node5" class="node">
<title>Node5</title>
<g id="a_node5"><a xlink:title=" ">
<polygon fill="none" stroke="#bfbfbf" points="199,-0.5 199,-19.5 259,-19.5 259,-0.5 199,-0.5"/>
<text text-anchor="middle" x="229" y="-7.5" font-family="Helvetica,sans-Serif" font-size="10.00">iostream</text>
</a>
</g>
</g>
<!-- Node1&#45;&gt;Node5 -->
<g id="edge15" class="edge">
<title>Node1&#45;&gt;Node5</title>
<path fill="none" stroke="midnightblue" d="M311.7,-168.32C312.98,-147.31 313.72,-92.77 291,-56 282.79,-42.71 269.06,-32.14 256.6,-24.59"/>
<polygon fill="midnightblue" stroke="midnightblue" points="258.28,-21.52 247.85,-19.63 254.83,-27.61 258.28,-21.52"/>
</g>
<!-- Node8 -->
<g id="node8" class="node">
<title>Node8</title>
<g id="a_node8"><a xlink:href="_tower_archer_8h.html" target="_top" xlink:title="Définition des donées membres et des fonctions membres de la classe TowerArcher.">
<polygon fill="none" stroke="black" points="197.5,-56.5 197.5,-75.5 282.5,-75.5 282.5,-56.5 197.5,-56.5"/>
<text text-anchor="middle" x="240" y="-63.5" font-family="Helvetica,sans-Serif" font-size="10.00">TowerArcher.h</text>
</a>
</g>
</g>
<!-- Node1&#45;&gt;Node8 -->
<g id="edge12" class="edge">
<title>Node1&#45;&gt;Node8</title>
<path fill="none" stroke="midnightblue" d="M305.43,-168.37C293.76,-150.3 266.58,-108.18 251.17,-84.31"/>
<polygon fill="midnightblue" stroke="midnightblue" points="253.91,-82.1 245.55,-75.59 248.03,-85.89 253.91,-82.1"/>
</g>
<!-- Node9 -->
<g id="node9" class="node">
<title>Node9</title>
<g id="a_node9"><a xlink:title=" ">
<polygon fill="none" stroke="#bfbfbf" points="339,-112.5 339,-131.5 395,-131.5 395,-112.5 339,-112.5"/>
<text text-anchor="middle" x="367" y="-119.5" font-family="Helvetica,sans-Serif" font-size="10.00">unistd.h</text>
</a>
</g>
</g>
<!-- Node1&#45;&gt;Node9 -->
<g id="edge13" class="edge">
<title>Node1&#45;&gt;Node9</title>
<path fill="none" stroke="midnightblue" d="M320,-168.32C328.19,-160.42 340.51,-148.55 350.47,-138.94"/>
<polygon fill="midnightblue" stroke="midnightblue" points="353.07,-141.29 357.84,-131.83 348.21,-136.26 353.07,-141.29"/>
</g>
<!-- Node10 -->
<g id="node10" class="node">
<title>Node10</title>
<g id="a_node10"><a xlink:title=" ">
<polygon fill="none" stroke="#bfbfbf" points="413.5,-112.5 413.5,-131.5 464.5,-131.5 464.5,-112.5 413.5,-112.5"/>
<text text-anchor="middle" x="439" y="-119.5" font-family="Helvetica,sans-Serif" font-size="10.00">math.h</text>
</a>
</g>
</g>
<!-- Node1&#45;&gt;Node10 -->
<g id="edge14" class="edge">
<title>Node1&#45;&gt;Node10</title>
<path fill="none" stroke="midnightblue" d="M331.28,-168.44C352.35,-159.56 385.52,-145.56 409.49,-135.45"/>
<polygon fill="midnightblue" stroke="midnightblue" points="410.96,-138.63 418.81,-131.52 408.24,-132.18 410.96,-138.63"/>
</g>
<!-- Node3 -->
<g id="node3" class="node">
<title>Node3</title>
<g id="a_node3"><a xlink:href="_entity_8h.html" target="_top" xlink:title="Définition des donées membres et des fonctions membres de la classe Entity.">
<polygon fill="none" stroke="black" points="115.5,-0.5 115.5,-19.5 168.5,-19.5 168.5,-0.5 115.5,-0.5"/>
<text text-anchor="middle" x="142" y="-7.5" font-family="Helvetica,sans-Serif" font-size="10.00">Entity.h</text>
</a>
</g>
</g>
<!-- Node2&#45;&gt;Node3 -->
<g id="edge2" class="edge">
<title>Node2&#45;&gt;Node3</title>
<path fill="none" stroke="midnightblue" d="M166.05,-112.45C163.01,-103.45 158.27,-88.84 155,-76 151.09,-60.65 147.62,-43.01 145.26,-29.98"/>
<polygon fill="midnightblue" stroke="midnightblue" points="148.66,-29.14 143.48,-19.9 141.77,-30.35 148.66,-29.14"/>
</g>
<!-- Node4 -->
<g id="node4" class="node">
<title>Node4</title>
<g id="a_node4"><a xlink:href="_enemy_8h.html" target="_top" xlink:title="Définition des donées membres et des fonctions membres de la classe Enemy.">
<polygon fill="none" stroke="black" points="45,-56.5 45,-75.5 103,-75.5 103,-56.5 45,-56.5"/>
<text text-anchor="middle" x="74" y="-63.5" font-family="Helvetica,sans-Serif" font-size="10.00">Enemy.h</text>
</a>
</g>
</g>
<!-- Node2&#45;&gt;Node4 -->
<g id="edge3" class="edge">
<title>Node2&#45;&gt;Node4</title>
<path fill="none" stroke="midnightblue" d="M153.74,-112.32C138.78,-103.82 115.75,-90.73 98.27,-80.8"/>
<polygon fill="midnightblue" stroke="midnightblue" points="99.65,-77.55 89.23,-75.65 96.19,-83.64 99.65,-77.55"/>
</g>
<!-- Node2&#45;&gt;Node5 -->
<g id="edge11" class="edge">
<title>Node2&#45;&gt;Node5</title>
<path fill="none" stroke="midnightblue" d="M170.29,-112.09C172.45,-99.09 177.64,-74.45 188,-56 194.12,-45.11 203.33,-34.68 211.47,-26.61"/>
<polygon fill="midnightblue" stroke="midnightblue" points="213.96,-29.07 218.81,-19.65 209.15,-23.99 213.96,-29.07"/>
</g>
<!-- Node2&#45;&gt;Node8 -->
<g id="edge8" class="edge">
<title>Node2&#45;&gt;Node8</title>
<path fill="none" stroke="midnightblue" d="M180.41,-112.32C191.11,-104.18 207.34,-91.84 220.16,-82.09"/>
<polygon fill="midnightblue" stroke="midnightblue" points="222.54,-84.67 228.39,-75.83 218.31,-79.1 222.54,-84.67"/>
</g>
<!-- Node4&#45;&gt;Node3 -->
<g id="edge6" class="edge">
<title>Node4&#45;&gt;Node3</title>
<path fill="none" stroke="midnightblue" d="M84.93,-56.32C95.17,-48.18 110.72,-35.84 123,-26.09"/>
<polygon fill="midnightblue" stroke="midnightblue" points="125.22,-28.79 130.88,-19.83 120.87,-23.31 125.22,-28.79"/>
</g>
<!-- Node4&#45;&gt;Node5 -->
<g id="edge4" class="edge">
<title>Node4&#45;&gt;Node5</title>
<path fill="none" stroke="midnightblue" d="M98.56,-56.44C124.52,-47.4 165.67,-33.06 194.8,-22.92"/>
<polygon fill="midnightblue" stroke="midnightblue" points="196.26,-26.11 204.55,-19.52 193.96,-19.5 196.26,-26.11"/>
</g>
<!-- Node6 -->
<g id="node6" class="node">
<title>Node6</title>
<g id="a_node6"><a xlink:title=" ">
<polygon fill="none" stroke="#bfbfbf" points="0,-0.5 0,-19.5 32,-19.5 32,-0.5 0,-0.5"/>
<text text-anchor="middle" x="16" y="-7.5" font-family="Helvetica,sans-Serif" font-size="10.00">list</text>
</a>
</g>
</g>
<!-- Node4&#45;&gt;Node6 -->
<g id="edge5" class="edge">
<title>Node4&#45;&gt;Node6</title>
<path fill="none" stroke="midnightblue" d="M64.68,-56.32C56.11,-48.34 43.19,-36.31 32.81,-26.65"/>
<polygon fill="midnightblue" stroke="midnightblue" points="35.19,-24.09 25.49,-19.83 30.42,-29.21 35.19,-24.09"/>
</g>
<!-- Node7 -->
<g id="node7" class="node">
<title>Node7</title>
<g id="a_node7"><a xlink:href="_map_8h.html" target="_top" xlink:title="Définition des donées membres et des fonctions membres de la classe Map.">
<polygon fill="none" stroke="black" points="50.5,-0.5 50.5,-19.5 97.5,-19.5 97.5,-0.5 50.5,-0.5"/>
<text text-anchor="middle" x="74" y="-7.5" font-family="Helvetica,sans-Serif" font-size="10.00">Map.h</text>
</a>
</g>
</g>
<!-- Node4&#45;&gt;Node7 -->
<g id="edge7" class="edge">
<title>Node4&#45;&gt;Node7</title>
<path fill="none" stroke="midnightblue" d="M74,-56.08C74,-49.01 74,-38.86 74,-29.99"/>
<polygon fill="midnightblue" stroke="midnightblue" points="77.5,-29.75 74,-19.75 70.5,-29.75 77.5,-29.75"/>
</g>
<!-- Node8&#45;&gt;Node3 -->
<g id="edge10" class="edge">
<title>Node8&#45;&gt;Node3</title>
<path fill="none" stroke="midnightblue" d="M224.25,-56.32C208.68,-47.74 184.62,-34.49 166.54,-24.52"/>
<polygon fill="midnightblue" stroke="midnightblue" points="168.15,-21.42 157.71,-19.65 164.78,-27.55 168.15,-21.42"/>
</g>
<!-- Node8&#45;&gt;Node5 -->
<g id="edge9" class="edge">
<title>Node8&#45;&gt;Node5</title>
<path fill="none" stroke="midnightblue" d="M238.18,-56.08C236.73,-48.93 234.63,-38.64 232.81,-29.69"/>
<polygon fill="midnightblue" stroke="midnightblue" points="236.21,-28.85 230.78,-19.75 229.35,-30.25 236.21,-28.85"/>
</g>
</g>
</svg>
