<?xml version="1.0" encoding="UTF-8" standalone="no"?>
<!DOCTYPE svg PUBLIC "-//W3C//DTD SVG 1.1//EN"
 "http://www.w3.org/Graphics/SVG/1.1/DTD/svg11.dtd">
<!-- Generated by graphviz version 2.43.0 (0)
 -->
<!-- Title: src/core/Projectile.h Pages: 1 -->
<svg width="284pt" height="196pt"
 viewBox="0.00 0.00 284.36 196.00" xmlns="http://www.w3.org/2000/svg" xmlns:xlink="http://www.w3.org/1999/xlink">
<g id="graph0" class="graph" transform="scale(1 1) rotate(0) translate(4 192)">
<title>src/core/Projectile.h</title>
<!-- Node1 -->
<g id="node1" class="node">
<title>Node1</title>
<g id="a_node1"><a xlink:title="Définition des donées membres et des fonctions membres de la classe Projectile.">
<polygon fill="#bfbfbf" stroke="black" points="111.5,-168.5 111.5,-187.5 224.5,-187.5 224.5,-168.5 111.5,-168.5"/>
<text text-anchor="middle" x="168" y="-175.5" font-family="Helvetica,sans-Serif" font-size="10.00">src/core/Projectile.h</text>
</a>
</g>
</g>
<!-- Node2 -->
<g id="node2" class="node">
<title>Node2</title>
<g id="a_node2"><a xlink:href="_entity_8h.html" target="_top" xlink:title="Définition des donées membres et des fonctions membres de la classe Entity.">
<polygon fill="none" stroke="black" points="52.5,-56.5 52.5,-75.5 105.5,-75.5 105.5,-56.5 52.5,-56.5"/>
<text text-anchor="middle" x="79" y="-63.5" font-family="Helvetica,sans-Serif" font-size="10.00">Entity.h</text>
</a>
</g>
</g>
<!-- Node1&#45;&gt;Node2 -->
<g id="edge1" class="edge">
<title>Node1&#45;&gt;Node2</title>
<path fill="none" stroke="midnightblue" d="M145.22,-168.49C128.85,-161.23 107.54,-149.2 95,-132 85.27,-118.65 81.41,-100.07 79.9,-86.2"/>
<polygon fill="midnightblue" stroke="midnightblue" points="83.37,-85.57 79.11,-75.87 76.39,-86.11 83.37,-85.57"/>
</g>
<!-- Node4 -->
<g id="node4" class="node">
<title>Node4</title>
<g id="a_node4"><a xlink:href="_enemy_8h.html" target="_top" xlink:title="Définition des donées membres et des fonctions membres de la classe Enemy.">
<polygon fill="none" stroke="black" points="176,-112.5 176,-131.5 234,-131.5 234,-112.5 176,-112.5"/>
<text text-anchor="middle" x="205" y="-119.5" font-family="Helvetica,sans-Serif" font-size="10.00">Enemy.h</text>
</a>
</g>
</g>
<!-- Node1&#45;&gt;Node4 -->
<g id="edge3" class="edge">
<title>Node1&#45;&gt;Node4</title>
<path fill="none" stroke="midnightblue" d="M174.11,-168.08C179.28,-160.53 186.85,-149.49 193.19,-140.23"/>
<polygon fill="midnightblue" stroke="midnightblue" points="196.24,-141.98 199,-131.75 190.46,-138.02 196.24,-141.98"/>
</g>
<!-- Node5 -->
<g id="node5" class="node">
<title>Node5</title>
<g id="a_node5"><a xlink:title=" ">
<polygon fill="none" stroke="#bfbfbf" points="194,-0.5 194,-19.5 254,-19.5 254,-0.5 194,-0.5"/>
<text text-anchor="middle" x="224" y="-7.5" font-family="Helvetica,sans-Serif" font-size="10.00">iostream</text>
</a>
</g>
</g>
<!-- Node1&#45;&gt;Node5 -->
<g id="edge12" class="edge">
<title>Node1&#45;&gt;Node5</title>
<path fill="none" stroke="midnightblue" d="M188.45,-168.36C204.76,-160.68 227.39,-148.17 243,-132 262.76,-111.54 266.88,-103.54 274,-76 276.22,-67.39 277.62,-64.12 274,-56 268.43,-43.5 257.48,-33.01 247.25,-25.32"/>
<polygon fill="midnightblue" stroke="midnightblue" points="249.16,-22.38 238.95,-19.53 245.15,-28.12 249.16,-22.38"/>
</g>
<!-- Node9 -->
<g id="node9" class="node">
<title>Node9</title>
<g id="a_node9"><a xlink:href="_tower_8h.html" target="_top" xlink:title=" ">
<polygon fill="none" stroke="black" points="104.5,-112.5 104.5,-131.5 157.5,-131.5 157.5,-112.5 104.5,-112.5"/>
<text text-anchor="middle" x="131" y="-119.5" font-family="Helvetica,sans-Serif" font-size="10.00">Tower.h</text>
</a>
</g>
</g>
<!-- Node1&#45;&gt;Node9 -->
<g id="edge10" class="edge">
<title>Node1&#45;&gt;Node9</title>
<path fill="none" stroke="midnightblue" d="M161.89,-168.08C156.72,-160.53 149.15,-149.49 142.81,-140.23"/>
<polygon fill="midnightblue" stroke="midnightblue" points="145.54,-138.02 137,-131.75 139.76,-141.98 145.54,-138.02"/>
</g>
<!-- Node3 -->
<g id="node3" class="node">
<title>Node3</title>
<g id="a_node3"><a xlink:title=" ">
<polygon fill="none" stroke="#bfbfbf" points="0,-0.5 0,-19.5 110,-19.5 110,-0.5 0,-0.5"/>
<text text-anchor="middle" x="55" y="-7.5" font-family="Helvetica,sans-Serif" font-size="10.00">../SDL2/EntitySDL.h</text>
</a>
</g>
</g>
<!-- Node2&#45;&gt;Node3 -->
<g id="edge2" class="edge">
<title>Node2&#45;&gt;Node3</title>
<path fill="none" stroke="midnightblue" d="M75.04,-56.08C71.79,-48.77 67.08,-38.18 63.05,-29.1"/>
<polygon fill="midnightblue" stroke="midnightblue" points="66.15,-27.47 58.89,-19.75 59.75,-30.31 66.15,-27.47"/>
</g>
<!-- Node4&#45;&gt;Node2 -->
<g id="edge6" class="edge">
<title>Node4&#45;&gt;Node2</title>
<path fill="none" stroke="midnightblue" d="M185.03,-112.44C164.39,-103.6 131.94,-89.69 108.37,-79.59"/>
<polygon fill="midnightblue" stroke="midnightblue" points="109.44,-76.24 98.87,-75.52 106.68,-82.67 109.44,-76.24"/>
</g>
<!-- Node4&#45;&gt;Node5 -->
<g id="edge4" class="edge">
<title>Node4&#45;&gt;Node5</title>
<path fill="none" stroke="midnightblue" d="M206.49,-112.37C209.56,-94.62 216.63,-53.67 220.79,-29.6"/>
<polygon fill="midnightblue" stroke="midnightblue" points="224.26,-30.04 222.52,-19.59 217.36,-28.85 224.26,-30.04"/>
</g>
<!-- Node6 -->
<g id="node6" class="node">
<title>Node6</title>
<g id="a_node6"><a xlink:title=" ">
<polygon fill="none" stroke="#bfbfbf" points="233,-56.5 233,-75.5 265,-75.5 265,-56.5 233,-56.5"/>
<text text-anchor="middle" x="249" y="-63.5" font-family="Helvetica,sans-Serif" font-size="10.00">list</text>
</a>
</g>
</g>
<!-- Node4&#45;&gt;Node6 -->
<g id="edge5" class="edge">
<title>Node4&#45;&gt;Node6</title>
<path fill="none" stroke="midnightblue" d="M212.27,-112.08C218.54,-104.38 227.79,-93.03 235.43,-83.65"/>
<polygon fill="midnightblue" stroke="midnightblue" points="238.27,-85.71 241.87,-75.75 232.84,-81.29 238.27,-85.71"/>
</g>
<!-- Node7 -->
<g id="node7" class="node">
<title>Node7</title>
<g id="a_node7"><a xlink:href="_road_8h.html" target="_top" xlink:title=" ">
<polygon fill="none" stroke="black" points="127,-56.5 127,-75.5 177,-75.5 177,-56.5 127,-56.5"/>
<text text-anchor="middle" x="152" y="-63.5" font-family="Helvetica,sans-Serif" font-size="10.00">Road.h</text>
</a>
</g>
</g>
<!-- Node4&#45;&gt;Node7 -->
<g id="edge7" class="edge">
<title>Node4&#45;&gt;Node7</title>
<path fill="none" stroke="midnightblue" d="M196.25,-112.08C188.53,-104.22 177.1,-92.57 167.78,-83.08"/>
<polygon fill="midnightblue" stroke="midnightblue" points="170.09,-80.44 160.59,-75.75 165.1,-85.34 170.09,-80.44"/>
</g>
<!-- Node7&#45;&gt;Node5 -->
<g id="edge8" class="edge">
<title>Node7&#45;&gt;Node5</title>
<path fill="none" stroke="midnightblue" d="M163.57,-56.32C174.42,-48.18 190.88,-35.84 203.88,-26.09"/>
<polygon fill="midnightblue" stroke="midnightblue" points="206.32,-28.63 212.22,-19.83 202.12,-23.03 206.32,-28.63"/>
</g>
<!-- Node8 -->
<g id="node8" class="node">
<title>Node8</title>
<g id="a_node8"><a xlink:title=" ">
<polygon fill="none" stroke="#bfbfbf" points="128.5,-0.5 128.5,-19.5 175.5,-19.5 175.5,-0.5 128.5,-0.5"/>
<text text-anchor="middle" x="152" y="-7.5" font-family="Helvetica,sans-Serif" font-size="10.00">vector</text>
</a>
</g>
</g>
<!-- Node7&#45;&gt;Node8 -->
<g id="edge9" class="edge">
<title>Node7&#45;&gt;Node8</title>
<path fill="none" stroke="midnightblue" d="M152,-56.08C152,-49.01 152,-38.86 152,-29.99"/>
<polygon fill="midnightblue" stroke="midnightblue" points="155.5,-29.75 152,-19.75 148.5,-29.75 155.5,-29.75"/>
</g>
<!-- Node9&#45;&gt;Node2 -->
<g id="edge11" class="edge">
<title>Node9&#45;&gt;Node2</title>
<path fill="none" stroke="midnightblue" d="M122.41,-112.08C114.84,-104.22 103.62,-92.57 94.49,-83.08"/>
<polygon fill="midnightblue" stroke="midnightblue" points="96.88,-80.53 87.43,-75.75 91.84,-85.38 96.88,-80.53"/>
</g>
</g>
</svg>
