<?xml version="1.0" encoding="UTF-8" standalone="no"?>
<!DOCTYPE svg PUBLIC "-//W3C//DTD SVG 1.1//EN"
 "http://www.w3.org/Graphics/SVG/1.1/DTD/svg11.dtd">
<!-- Generated by graphviz version 2.43.0 (0)
 -->
<!-- Title: /home/allan/Licence2_Informatique/ProjetLIFAP4/src/core/Projectile.h Pages: 1 -->
<svg width="285pt" height="274pt"
 viewBox="0.00 0.00 284.95 274.00" xmlns="http://www.w3.org/2000/svg" xmlns:xlink="http://www.w3.org/1999/xlink">
<g id="graph0" class="graph" transform="scale(1 1) rotate(0) translate(4 270)">
<title>/home/allan/Licence2_Informatique/ProjetLIFAP4/src/core/Projectile.h</title>
<!-- Node1 -->
<g id="node1" class="node">
<title>Node1</title>
<g id="a_node1"><a xlink:title=" ">
<polygon fill="#bfbfbf" stroke="black" points="60.45,-224.5 60.45,-265.5 208.45,-265.5 208.45,-224.5 60.45,-224.5"/>
<text text-anchor="start" x="68.45" y="-253.5" font-family="Helvetica,sans-Serif" font-size="10.00">/home/allan/Licence2</text>
<text text-anchor="start" x="68.45" y="-242.5" font-family="Helvetica,sans-Serif" font-size="10.00">_Informatique/ProjetLIFAP4</text>
<text text-anchor="middle" x="134.45" y="-231.5" font-family="Helvetica,sans-Serif" font-size="10.00">/src/core/Projectile.h</text>
</a>
</g>
</g>
<!-- Node2 -->
<g id="node2" class="node">
<title>Node2</title>
<g id="a_node2"><a xlink:href="_entity_8h.html" target="_top" xlink:title=" ">
<polygon fill="none" stroke="black" points="169.95,-112.5 169.95,-131.5 222.95,-131.5 222.95,-112.5 169.95,-112.5"/>
<text text-anchor="middle" x="196.45" y="-119.5" font-family="Helvetica,sans-Serif" font-size="10.00">Entity.h</text>
</a>
</g>
</g>
<!-- Node1&#45;&gt;Node2 -->
<g id="edge1" class="edge">
<title>Node1&#45;&gt;Node2</title>
<path fill="none" stroke="midnightblue" d="M144.55,-224.29C156.45,-201.06 176.05,-162.82 187.45,-140.56"/>
<polygon fill="midnightblue" stroke="midnightblue" points="190.61,-142.07 192.06,-131.57 184.38,-138.88 190.61,-142.07"/>
</g>
<!-- Node4 -->
<g id="node4" class="node">
<title>Node4</title>
<g id="a_node4"><a xlink:title=" ">
<polygon fill="none" stroke="#bfbfbf" points="138.45,-0.5 138.45,-19.5 198.45,-19.5 198.45,-0.5 138.45,-0.5"/>
<text text-anchor="middle" x="168.45" y="-7.5" font-family="Helvetica,sans-Serif" font-size="10.00">iostream</text>
</a>
</g>
</g>
<!-- Node1&#45;&gt;Node4 -->
<g id="edge12" class="edge">
<title>Node1&#45;&gt;Node4</title>
<path fill="none" stroke="midnightblue" d="M89.83,-224.34C43.31,-200.83 -19.5,-158.75 6.45,-112 32.47,-65.11 90.31,-37.15 129.35,-22.92"/>
<polygon fill="midnightblue" stroke="midnightblue" points="130.56,-26.2 138.84,-19.59 128.25,-19.6 130.56,-26.2"/>
</g>
<!-- Node5 -->
<g id="node5" class="node">
<title>Node5</title>
<g id="a_node5"><a xlink:href="_enemy_8h.html" target="_top" xlink:title=" ">
<polygon fill="none" stroke="black" points="77.45,-168.5 77.45,-187.5 135.45,-187.5 135.45,-168.5 77.45,-168.5"/>
<text text-anchor="middle" x="106.45" y="-175.5" font-family="Helvetica,sans-Serif" font-size="10.00">Enemy.h</text>
</a>
</g>
</g>
<!-- Node1&#45;&gt;Node5 -->
<g id="edge4" class="edge">
<title>Node1&#45;&gt;Node5</title>
<path fill="none" stroke="midnightblue" d="M126.05,-224.5C122.29,-215.78 117.89,-205.56 114.21,-197.02"/>
<polygon fill="midnightblue" stroke="midnightblue" points="117.35,-195.45 110.18,-187.65 110.92,-198.22 117.35,-195.45"/>
</g>
<!-- Node8 -->
<g id="node8" class="node">
<title>Node8</title>
<g id="a_node8"><a xlink:href="_tower_archer_8h.html" target="_top" xlink:title=" ">
<polygon fill="none" stroke="black" points="191.95,-168.5 191.95,-187.5 276.95,-187.5 276.95,-168.5 191.95,-168.5"/>
<text text-anchor="middle" x="234.45" y="-175.5" font-family="Helvetica,sans-Serif" font-size="10.00">TowerArcher.h</text>
</a>
</g>
</g>
<!-- Node1&#45;&gt;Node8 -->
<g id="edge9" class="edge">
<title>Node1&#45;&gt;Node8</title>
<path fill="none" stroke="midnightblue" d="M164.45,-224.5C179.93,-214.44 198.47,-202.38 212.58,-193.21"/>
<polygon fill="midnightblue" stroke="midnightblue" points="214.66,-196.04 221.14,-187.65 210.85,-190.17 214.66,-196.04"/>
</g>
<!-- Node3 -->
<g id="node3" class="node">
<title>Node3</title>
<g id="a_node3"><a xlink:href="_vec2_8h.html" target="_top" xlink:title=" ">
<polygon fill="none" stroke="black" points="170.95,-56.5 170.95,-75.5 219.95,-75.5 219.95,-56.5 170.95,-56.5"/>
<text text-anchor="middle" x="195.45" y="-63.5" font-family="Helvetica,sans-Serif" font-size="10.00">Vec2.h</text>
</a>
</g>
</g>
<!-- Node2&#45;&gt;Node3 -->
<g id="edge2" class="edge">
<title>Node2&#45;&gt;Node3</title>
<path fill="none" stroke="midnightblue" d="M196.28,-112.08C196.15,-105.01 195.97,-94.86 195.8,-85.99"/>
<polygon fill="midnightblue" stroke="midnightblue" points="199.3,-85.68 195.61,-75.75 192.3,-85.81 199.3,-85.68"/>
</g>
<!-- Node3&#45;&gt;Node4 -->
<g id="edge3" class="edge">
<title>Node3&#45;&gt;Node4</title>
<path fill="none" stroke="midnightblue" d="M190.99,-56.08C187.3,-48.69 181.93,-37.95 177.36,-28.81"/>
<polygon fill="midnightblue" stroke="midnightblue" points="180.43,-27.13 172.83,-19.75 174.17,-30.26 180.43,-27.13"/>
</g>
<!-- Node5&#45;&gt;Node2 -->
<g id="edge7" class="edge">
<title>Node5&#45;&gt;Node2</title>
<path fill="none" stroke="midnightblue" d="M120.91,-168.32C134.95,-159.9 156.5,-146.97 172.99,-137.07"/>
<polygon fill="midnightblue" stroke="midnightblue" points="175.25,-139.8 182.03,-131.65 171.65,-133.8 175.25,-139.8"/>
</g>
<!-- Node5&#45;&gt;Node4 -->
<g id="edge5" class="edge">
<title>Node5&#45;&gt;Node4</title>
<path fill="none" stroke="midnightblue" d="M109.78,-168.08C119.58,-141.83 148.45,-64.55 161.68,-29.12"/>
<polygon fill="midnightblue" stroke="midnightblue" points="165.03,-30.16 165.25,-19.57 158.47,-27.71 165.03,-30.16"/>
</g>
<!-- Node6 -->
<g id="node6" class="node">
<title>Node6</title>
<g id="a_node6"><a xlink:title=" ">
<polygon fill="none" stroke="#bfbfbf" points="15.45,-112.5 15.45,-131.5 47.45,-131.5 47.45,-112.5 15.45,-112.5"/>
<text text-anchor="middle" x="31.45" y="-119.5" font-family="Helvetica,sans-Serif" font-size="10.00">list</text>
</a>
</g>
</g>
<!-- Node5&#45;&gt;Node6 -->
<g id="edge6" class="edge">
<title>Node5&#45;&gt;Node6</title>
<path fill="none" stroke="midnightblue" d="M94.4,-168.32C82.99,-160.11 65.62,-147.6 52.01,-137.81"/>
<polygon fill="midnightblue" stroke="midnightblue" points="53.88,-134.84 43.72,-131.83 49.79,-140.52 53.88,-134.84"/>
</g>
<!-- Node7 -->
<g id="node7" class="node">
<title>Node7</title>
<g id="a_node7"><a xlink:href="_map_8h.html" target="_top" xlink:title=" ">
<polygon fill="none" stroke="black" points="65.95,-112.5 65.95,-131.5 112.95,-131.5 112.95,-112.5 65.95,-112.5"/>
<text text-anchor="middle" x="89.45" y="-119.5" font-family="Helvetica,sans-Serif" font-size="10.00">Map.h</text>
</a>
</g>
</g>
<!-- Node5&#45;&gt;Node7 -->
<g id="edge8" class="edge">
<title>Node5&#45;&gt;Node7</title>
<path fill="none" stroke="midnightblue" d="M103.64,-168.08C101.36,-160.85 98.08,-150.41 95.24,-141.4"/>
<polygon fill="midnightblue" stroke="midnightblue" points="98.55,-140.24 92.2,-131.75 91.87,-142.34 98.55,-140.24"/>
</g>
<!-- Node8&#45;&gt;Node2 -->
<g id="edge11" class="edge">
<title>Node8&#45;&gt;Node2</title>
<path fill="none" stroke="midnightblue" d="M228.17,-168.08C222.81,-160.46 214.93,-149.26 208.37,-139.94"/>
<polygon fill="midnightblue" stroke="midnightblue" points="211.23,-137.91 202.61,-131.75 205.5,-141.94 211.23,-137.91"/>
</g>
<!-- Node8&#45;&gt;Node4 -->
<g id="edge10" class="edge">
<title>Node8&#45;&gt;Node4</title>
<path fill="none" stroke="midnightblue" d="M236.37,-168.43C240.55,-147.68 248.56,-93.66 228.45,-56 221.36,-42.73 208.45,-32.27 196.41,-24.79"/>
<polygon fill="midnightblue" stroke="midnightblue" points="197.91,-21.61 187.49,-19.65 194.41,-27.67 197.91,-21.61"/>
</g>
</g>
</svg>
