<?xml version="1.0" encoding="UTF-8" standalone="no"?>
<!DOCTYPE svg PUBLIC "-//W3C//DTD SVG 1.1//EN"
 "http://www.w3.org/Graphics/SVG/1.1/DTD/svg11.dtd">
<!-- Generated by graphviz version 2.43.0 (0)
 -->
<!-- Title: src/core/Projectile.h Pages: 1 -->
<svg width="275pt" height="140pt"
 viewBox="0.00 0.00 275.08 140.00" xmlns="http://www.w3.org/2000/svg" xmlns:xlink="http://www.w3.org/1999/xlink">
<g id="graph0" class="graph" transform="scale(1 1) rotate(0) translate(4 136)">
<title>src/core/Projectile.h</title>
<!-- Node1 -->
<g id="node1" class="node">
<title>Node1</title>
<g id="a_node1"><a xlink:title="Définition des donées membres et des fonctions membres de la classe Projectile.">
<polygon fill="#bfbfbf" stroke="black" points="33.08,-112.5 33.08,-131.5 146.08,-131.5 146.08,-112.5 33.08,-112.5"/>
<text text-anchor="middle" x="89.58" y="-119.5" font-family="Helvetica,sans-Serif" font-size="10.00">src/core/Projectile.h</text>
</a>
</g>
</g>
<!-- Node2 -->
<g id="node2" class="node">
<title>Node2</title>
<g id="a_node2"><a xlink:href="_entity_8h.html" target="_top" xlink:title="Définition des donées membres et des fonctions membres de la classe Entity.">
<polygon fill="none" stroke="black" points="20.08,-0.5 20.08,-19.5 73.08,-19.5 73.08,-0.5 20.08,-0.5"/>
<text text-anchor="middle" x="46.58" y="-7.5" font-family="Helvetica,sans-Serif" font-size="10.00">Entity.h</text>
</a>
</g>
</g>
<!-- Node1&#45;&gt;Node2 -->
<g id="edge1" class="edge">
<title>Node1&#45;&gt;Node2</title>
<path fill="none" stroke="midnightblue" d="M55.4,-112.49C36.59,-105.88 14.84,-94.6 3.58,-76 -7.04,-58.46 9.99,-38.9 25.65,-25.86"/>
<polygon fill="midnightblue" stroke="midnightblue" points="27.84,-28.6 33.57,-19.69 23.53,-23.08 27.84,-28.6"/>
</g>
<!-- Node3 -->
<g id="node3" class="node">
<title>Node3</title>
<g id="a_node3"><a xlink:href="_enemy_8h.html" target="_top" xlink:title="Définition des donées membres et des fonctions membres de la classe Enemy.">
<polygon fill="none" stroke="black" points="153.58,-56.5 153.58,-75.5 211.58,-75.5 211.58,-56.5 153.58,-56.5"/>
<text text-anchor="middle" x="182.58" y="-63.5" font-family="Helvetica,sans-Serif" font-size="10.00">Enemy.h</text>
</a>
</g>
</g>
<!-- Node1&#45;&gt;Node3 -->
<g id="edge2" class="edge">
<title>Node1&#45;&gt;Node3</title>
<path fill="none" stroke="midnightblue" d="M104.52,-112.32C119.17,-103.82 141.72,-90.73 158.82,-80.8"/>
<polygon fill="midnightblue" stroke="midnightblue" points="160.79,-83.7 167.68,-75.65 157.27,-77.65 160.79,-83.7"/>
</g>
<!-- Node4 -->
<g id="node4" class="node">
<title>Node4</title>
<g id="a_node4"><a xlink:title=" ">
<polygon fill="none" stroke="#bfbfbf" points="91.58,-0.5 91.58,-19.5 151.58,-19.5 151.58,-0.5 91.58,-0.5"/>
<text text-anchor="middle" x="121.58" y="-7.5" font-family="Helvetica,sans-Serif" font-size="10.00">iostream</text>
</a>
</g>
</g>
<!-- Node1&#45;&gt;Node4 -->
<g id="edge10" class="edge">
<title>Node1&#45;&gt;Node4</title>
<path fill="none" stroke="midnightblue" d="M93.19,-112.49C96.9,-103.53 102.66,-88.95 106.58,-76 111.25,-60.57 115.28,-42.7 117.98,-29.6"/>
<polygon fill="midnightblue" stroke="midnightblue" points="121.47,-30 120,-19.51 114.61,-28.63 121.47,-30"/>
</g>
<!-- Node7 -->
<g id="node7" class="node">
<title>Node7</title>
<g id="a_node7"><a xlink:href="_tower_archer_8h.html" target="_top" xlink:title="Définition des donées membres et des fonctions membres de la classe TowerArcher.">
<polygon fill="none" stroke="black" points="12.08,-56.5 12.08,-75.5 97.08,-75.5 97.08,-56.5 12.08,-56.5"/>
<text text-anchor="middle" x="54.58" y="-63.5" font-family="Helvetica,sans-Serif" font-size="10.00">TowerArcher.h</text>
</a>
</g>
</g>
<!-- Node1&#45;&gt;Node7 -->
<g id="edge7" class="edge">
<title>Node1&#45;&gt;Node7</title>
<path fill="none" stroke="midnightblue" d="M83.8,-112.08C78.91,-104.53 71.75,-93.49 65.75,-84.23"/>
<polygon fill="midnightblue" stroke="midnightblue" points="68.63,-82.24 60.25,-75.75 62.76,-86.05 68.63,-82.24"/>
</g>
<!-- Node3&#45;&gt;Node2 -->
<g id="edge5" class="edge">
<title>Node3&#45;&gt;Node2</title>
<path fill="none" stroke="midnightblue" d="M161.03,-56.44C138.55,-47.52 103.09,-33.44 77.6,-23.32"/>
<polygon fill="midnightblue" stroke="midnightblue" points="78.62,-19.95 68.03,-19.52 76.03,-26.46 78.62,-19.95"/>
</g>
<!-- Node3&#45;&gt;Node4 -->
<g id="edge3" class="edge">
<title>Node3&#45;&gt;Node4</title>
<path fill="none" stroke="midnightblue" d="M172.78,-56.32C163.76,-48.34 150.18,-36.31 139.26,-26.65"/>
<polygon fill="midnightblue" stroke="midnightblue" points="141.37,-23.84 131.56,-19.83 136.73,-29.08 141.37,-23.84"/>
</g>
<!-- Node5 -->
<g id="node5" class="node">
<title>Node5</title>
<g id="a_node5"><a xlink:title=" ">
<polygon fill="none" stroke="#bfbfbf" points="169.58,-0.5 169.58,-19.5 201.58,-19.5 201.58,-0.5 169.58,-0.5"/>
<text text-anchor="middle" x="185.58" y="-7.5" font-family="Helvetica,sans-Serif" font-size="10.00">list</text>
</a>
</g>
</g>
<!-- Node3&#45;&gt;Node5 -->
<g id="edge4" class="edge">
<title>Node3&#45;&gt;Node5</title>
<path fill="none" stroke="midnightblue" d="M183.08,-56.08C183.47,-49.01 184.03,-38.86 184.53,-29.99"/>
<polygon fill="midnightblue" stroke="midnightblue" points="188.04,-29.93 185.1,-19.75 181.05,-29.54 188.04,-29.93"/>
</g>
<!-- Node6 -->
<g id="node6" class="node">
<title>Node6</title>
<g id="a_node6"><a xlink:href="_map_8h.html" target="_top" xlink:title="Définition des donées membres et des fonctions membres de la classe Map.">
<polygon fill="none" stroke="black" points="220.08,-0.5 220.08,-19.5 267.08,-19.5 267.08,-0.5 220.08,-0.5"/>
<text text-anchor="middle" x="243.58" y="-7.5" font-family="Helvetica,sans-Serif" font-size="10.00">Map.h</text>
</a>
</g>
</g>
<!-- Node3&#45;&gt;Node6 -->
<g id="edge6" class="edge">
<title>Node3&#45;&gt;Node6</title>
<path fill="none" stroke="midnightblue" d="M192.38,-56.32C201.4,-48.34 214.99,-36.31 225.9,-26.65"/>
<polygon fill="midnightblue" stroke="midnightblue" points="228.44,-29.08 233.6,-19.83 223.8,-23.84 228.44,-29.08"/>
</g>
<!-- Node7&#45;&gt;Node2 -->
<g id="edge9" class="edge">
<title>Node7&#45;&gt;Node2</title>
<path fill="none" stroke="midnightblue" d="M53.26,-56.08C52.2,-48.93 50.68,-38.64 49.35,-29.69"/>
<polygon fill="midnightblue" stroke="midnightblue" points="52.81,-29.13 47.88,-19.75 45.88,-30.16 52.81,-29.13"/>
</g>
<!-- Node7&#45;&gt;Node4 -->
<g id="edge8" class="edge">
<title>Node7&#45;&gt;Node4</title>
<path fill="none" stroke="midnightblue" d="M65.35,-56.32C75.35,-48.26 90.47,-36.08 102.51,-26.37"/>
<polygon fill="midnightblue" stroke="midnightblue" points="105.03,-28.83 110.62,-19.83 100.64,-23.38 105.03,-28.83"/>
</g>
</g>
</svg>
