<?xml version="1.0" encoding="UTF-8" standalone="no"?>
<!DOCTYPE svg PUBLIC "-//W3C//DTD SVG 1.1//EN"
 "http://www.w3.org/Graphics/SVG/1.1/DTD/svg11.dtd">
<!-- Generated by graphviz version 2.43.0 (0)
 -->
<!-- Title: /home/allan/Licence2_Informatique/ProjetLIFAP4/src/core/Projectile.cpp Pages: 1 -->
<svg width="396pt" height="330pt"
 viewBox="0.00 0.00 395.50 330.00" xmlns="http://www.w3.org/2000/svg" xmlns:xlink="http://www.w3.org/1999/xlink">
<g id="graph0" class="graph" transform="scale(1 1) rotate(0) translate(4 326)">
<title>/home/allan/Licence2_Informatique/ProjetLIFAP4/src/core/Projectile.cpp</title>
<!-- Node1 -->
<g id="node1" class="node">
<title>Node1</title>
<g id="a_node1"><a xlink:title=" ">
<polygon fill="#bfbfbf" stroke="black" points="160,-280.5 160,-321.5 308,-321.5 308,-280.5 160,-280.5"/>
<text text-anchor="start" x="168" y="-309.5" font-family="Helvetica,sans-Serif" font-size="10.00">/home/allan/Licence2</text>
<text text-anchor="start" x="168" y="-298.5" font-family="Helvetica,sans-Serif" font-size="10.00">_Informatique/ProjetLIFAP4</text>
<text text-anchor="middle" x="234" y="-287.5" font-family="Helvetica,sans-Serif" font-size="10.00">/src/core/Projectile.cpp</text>
</a>
</g>
</g>
<!-- Node2 -->
<g id="node2" class="node">
<title>Node2</title>
<g id="a_node2"><a xlink:href="_projectile_8h.html" target="_top" xlink:title=" ">
<polygon fill="none" stroke="black" points="134.5,-224.5 134.5,-243.5 205.5,-243.5 205.5,-224.5 134.5,-224.5"/>
<text text-anchor="middle" x="170" y="-231.5" font-family="Helvetica,sans-Serif" font-size="10.00">Projectile.h</text>
</a>
</g>
</g>
<!-- Node1&#45;&gt;Node2 -->
<g id="edge1" class="edge">
<title>Node1&#45;&gt;Node2</title>
<path fill="none" stroke="midnightblue" d="M214.8,-280.5C205.46,-271.01 194.37,-259.76 185.57,-250.81"/>
<polygon fill="midnightblue" stroke="midnightblue" points="188.03,-248.32 178.52,-243.65 183.04,-253.23 188.03,-248.32"/>
</g>
<!-- Node5 -->
<g id="node5" class="node">
<title>Node5</title>
<g id="a_node5"><a xlink:title=" ">
<polygon fill="none" stroke="#bfbfbf" points="112,-0.5 112,-19.5 172,-19.5 172,-0.5 112,-0.5"/>
<text text-anchor="middle" x="142" y="-7.5" font-family="Helvetica,sans-Serif" font-size="10.00">iostream</text>
</a>
</g>
</g>
<!-- Node1&#45;&gt;Node5 -->
<g id="edge17" class="edge">
<title>Node1&#45;&gt;Node5</title>
<path fill="none" stroke="midnightblue" d="M159.96,-292.59C91.41,-281.15 0,-252.18 0,-179 0,-179 0,-179 0,-121 0,-69.03 60.17,-38.11 102.17,-22.86"/>
<polygon fill="midnightblue" stroke="midnightblue" points="103.59,-26.07 111.89,-19.49 101.29,-19.46 103.59,-26.07"/>
</g>
<!-- Node9 -->
<g id="node9" class="node">
<title>Node9</title>
<g id="a_node9"><a xlink:href="_tower_archer_8h.html" target="_top" xlink:title=" ">
<polygon fill="none" stroke="black" points="227.5,-168.5 227.5,-187.5 312.5,-187.5 312.5,-168.5 227.5,-168.5"/>
<text text-anchor="middle" x="270" y="-175.5" font-family="Helvetica,sans-Serif" font-size="10.00">TowerArcher.h</text>
</a>
</g>
</g>
<!-- Node1&#45;&gt;Node9 -->
<g id="edge14" class="edge">
<title>Node1&#45;&gt;Node9</title>
<path fill="none" stroke="midnightblue" d="M238.23,-280.46C241.73,-265.01 247.07,-242.95 253,-224 255.84,-214.92 259.52,-205.01 262.73,-196.81"/>
<polygon fill="midnightblue" stroke="midnightblue" points="265.98,-198.11 266.44,-187.52 259.48,-195.51 265.98,-198.11"/>
</g>
<!-- Node10 -->
<g id="node10" class="node">
<title>Node10</title>
<g id="a_node10"><a xlink:title=" ">
<polygon fill="none" stroke="#bfbfbf" points="262,-224.5 262,-243.5 318,-243.5 318,-224.5 262,-224.5"/>
<text text-anchor="middle" x="290" y="-231.5" font-family="Helvetica,sans-Serif" font-size="10.00">unistd.h</text>
</a>
</g>
</g>
<!-- Node1&#45;&gt;Node10 -->
<g id="edge15" class="edge">
<title>Node1&#45;&gt;Node10</title>
<path fill="none" stroke="midnightblue" d="M250.8,-280.5C258.81,-271.2 268.28,-260.21 275.91,-251.36"/>
<polygon fill="midnightblue" stroke="midnightblue" points="278.67,-253.51 282.55,-243.65 273.37,-248.94 278.67,-253.51"/>
</g>
<!-- Node11 -->
<g id="node11" class="node">
<title>Node11</title>
<g id="a_node11"><a xlink:title=" ">
<polygon fill="none" stroke="#bfbfbf" points="336.5,-224.5 336.5,-243.5 387.5,-243.5 387.5,-224.5 336.5,-224.5"/>
<text text-anchor="middle" x="362" y="-231.5" font-family="Helvetica,sans-Serif" font-size="10.00">math.h</text>
</a>
</g>
</g>
<!-- Node1&#45;&gt;Node11 -->
<g id="edge16" class="edge">
<title>Node1&#45;&gt;Node11</title>
<path fill="none" stroke="midnightblue" d="M272.4,-280.5C292.88,-270.1 317.54,-257.58 335.8,-248.31"/>
<polygon fill="midnightblue" stroke="midnightblue" points="337.63,-251.3 344.96,-243.65 334.46,-245.06 337.63,-251.3"/>
</g>
<!-- Node3 -->
<g id="node3" class="node">
<title>Node3</title>
<g id="a_node3"><a xlink:href="_entity_8h.html" target="_top" xlink:title=" ">
<polygon fill="none" stroke="black" points="220.5,-112.5 220.5,-131.5 273.5,-131.5 273.5,-112.5 220.5,-112.5"/>
<text text-anchor="middle" x="247" y="-119.5" font-family="Helvetica,sans-Serif" font-size="10.00">Entity.h</text>
</a>
</g>
</g>
<!-- Node2&#45;&gt;Node3 -->
<g id="edge2" class="edge">
<title>Node2&#45;&gt;Node3</title>
<path fill="none" stroke="midnightblue" d="M176.04,-224.37C188.75,-206.22 218.44,-163.8 235.11,-139.99"/>
<polygon fill="midnightblue" stroke="midnightblue" points="238.12,-141.79 240.99,-131.59 232.38,-137.78 238.12,-141.79"/>
</g>
<!-- Node2&#45;&gt;Node5 -->
<g id="edge13" class="edge">
<title>Node2&#45;&gt;Node5</title>
<path fill="none" stroke="midnightblue" d="M152.14,-224.32C124.69,-209.77 73.56,-177.49 57,-132 41.25,-88.75 89.26,-46.73 119.44,-25.43"/>
<polygon fill="midnightblue" stroke="midnightblue" points="121.49,-28.27 127.78,-19.75 117.55,-22.49 121.49,-28.27"/>
</g>
<!-- Node6 -->
<g id="node6" class="node">
<title>Node6</title>
<g id="a_node6"><a xlink:href="_enemy_8h.html" target="_top" xlink:title=" ">
<polygon fill="none" stroke="black" points="113,-168.5 113,-187.5 171,-187.5 171,-168.5 113,-168.5"/>
<text text-anchor="middle" x="142" y="-175.5" font-family="Helvetica,sans-Serif" font-size="10.00">Enemy.h</text>
</a>
</g>
</g>
<!-- Node2&#45;&gt;Node6 -->
<g id="edge5" class="edge">
<title>Node2&#45;&gt;Node6</title>
<path fill="none" stroke="midnightblue" d="M165.38,-224.08C161.54,-216.69 155.98,-205.95 151.24,-196.81"/>
<polygon fill="midnightblue" stroke="midnightblue" points="154.25,-195.02 146.54,-187.75 148.03,-198.24 154.25,-195.02"/>
</g>
<!-- Node2&#45;&gt;Node9 -->
<g id="edge10" class="edge">
<title>Node2&#45;&gt;Node9</title>
<path fill="none" stroke="midnightblue" d="M186.07,-224.32C201.96,-215.74 226.51,-202.49 244.96,-192.52"/>
<polygon fill="midnightblue" stroke="midnightblue" points="246.84,-195.49 253.97,-187.65 243.51,-189.33 246.84,-195.49"/>
</g>
<!-- Node4 -->
<g id="node4" class="node">
<title>Node4</title>
<g id="a_node4"><a xlink:href="_vec2_8h.html" target="_top" xlink:title=" ">
<polygon fill="none" stroke="black" points="196.5,-56.5 196.5,-75.5 245.5,-75.5 245.5,-56.5 196.5,-56.5"/>
<text text-anchor="middle" x="221" y="-63.5" font-family="Helvetica,sans-Serif" font-size="10.00">Vec2.h</text>
</a>
</g>
</g>
<!-- Node3&#45;&gt;Node4 -->
<g id="edge3" class="edge">
<title>Node3&#45;&gt;Node4</title>
<path fill="none" stroke="midnightblue" d="M242.71,-112.08C239.15,-104.69 233.98,-93.95 229.58,-84.81"/>
<polygon fill="midnightblue" stroke="midnightblue" points="232.71,-83.24 225.21,-75.75 226.4,-86.28 232.71,-83.24"/>
</g>
<!-- Node4&#45;&gt;Node5 -->
<g id="edge4" class="edge">
<title>Node4&#45;&gt;Node5</title>
<path fill="none" stroke="midnightblue" d="M208.31,-56.32C196.1,-47.98 177.42,-35.21 163,-25.35"/>
<polygon fill="midnightblue" stroke="midnightblue" points="164.89,-22.41 154.66,-19.65 160.94,-28.19 164.89,-22.41"/>
</g>
<!-- Node6&#45;&gt;Node3 -->
<g id="edge8" class="edge">
<title>Node6&#45;&gt;Node3</title>
<path fill="none" stroke="midnightblue" d="M158.87,-168.32C175.71,-159.66 201.81,-146.24 221.24,-136.25"/>
<polygon fill="midnightblue" stroke="midnightblue" points="222.88,-139.34 230.17,-131.65 219.68,-133.12 222.88,-139.34"/>
</g>
<!-- Node6&#45;&gt;Node5 -->
<g id="edge6" class="edge">
<title>Node6&#45;&gt;Node5</title>
<path fill="none" stroke="midnightblue" d="M142,-168.08C142,-141.95 142,-65.21 142,-29.58"/>
<polygon fill="midnightblue" stroke="midnightblue" points="145.5,-29.57 142,-19.57 138.5,-29.57 145.5,-29.57"/>
</g>
<!-- Node7 -->
<g id="node7" class="node">
<title>Node7</title>
<g id="a_node7"><a xlink:title=" ">
<polygon fill="none" stroke="#bfbfbf" points="170,-112.5 170,-131.5 202,-131.5 202,-112.5 170,-112.5"/>
<text text-anchor="middle" x="186" y="-119.5" font-family="Helvetica,sans-Serif" font-size="10.00">list</text>
</a>
</g>
</g>
<!-- Node6&#45;&gt;Node7 -->
<g id="edge7" class="edge">
<title>Node6&#45;&gt;Node7</title>
<path fill="none" stroke="midnightblue" d="M149.27,-168.08C155.54,-160.38 164.79,-149.03 172.43,-139.65"/>
<polygon fill="midnightblue" stroke="midnightblue" points="175.27,-141.71 178.87,-131.75 169.84,-137.29 175.27,-141.71"/>
</g>
<!-- Node8 -->
<g id="node8" class="node">
<title>Node8</title>
<g id="a_node8"><a xlink:href="_map_8h.html" target="_top" xlink:title=" ">
<polygon fill="none" stroke="black" points="66.5,-112.5 66.5,-131.5 113.5,-131.5 113.5,-112.5 66.5,-112.5"/>
<text text-anchor="middle" x="90" y="-119.5" font-family="Helvetica,sans-Serif" font-size="10.00">Map.h</text>
</a>
</g>
</g>
<!-- Node6&#45;&gt;Node8 -->
<g id="edge9" class="edge">
<title>Node6&#45;&gt;Node8</title>
<path fill="none" stroke="midnightblue" d="M133.41,-168.08C125.84,-160.22 114.62,-148.57 105.49,-139.08"/>
<polygon fill="midnightblue" stroke="midnightblue" points="107.88,-136.53 98.43,-131.75 102.84,-141.38 107.88,-136.53"/>
</g>
<!-- Node9&#45;&gt;Node3 -->
<g id="edge12" class="edge">
<title>Node9&#45;&gt;Node3</title>
<path fill="none" stroke="midnightblue" d="M266.2,-168.08C263.09,-160.77 258.58,-150.18 254.71,-141.1"/>
<polygon fill="midnightblue" stroke="midnightblue" points="257.87,-139.58 250.73,-131.75 251.43,-142.32 257.87,-139.58"/>
</g>
<!-- Node9&#45;&gt;Node5 -->
<g id="edge11" class="edge">
<title>Node9&#45;&gt;Node5</title>
<path fill="none" stroke="midnightblue" d="M273.09,-168.17C276.05,-159.2 280.32,-144.83 282,-132 286.68,-96.31 280.47,-80.39 254,-56 234,-37.57 205.49,-26.26 182.24,-19.59"/>
<polygon fill="midnightblue" stroke="midnightblue" points="182.87,-16.13 172.31,-16.92 181.06,-22.9 182.87,-16.13"/>
</g>
</g>
</svg>
