<?xml version="1.0" encoding="UTF-8" standalone="no"?>
<!DOCTYPE svg PUBLIC "-//W3C//DTD SVG 1.1//EN"
 "http://www.w3.org/Graphics/SVG/1.1/DTD/svg11.dtd">
<!-- Generated by graphviz version 2.43.0 (0)
 -->
<!-- Title: src/core/Projectile.cpp Pages: 1 -->
<svg width="628pt" height="252pt"
 viewBox="0.00 0.00 627.50 252.00" xmlns="http://www.w3.org/2000/svg" xmlns:xlink="http://www.w3.org/1999/xlink">
<g id="graph0" class="graph" transform="scale(1 1) rotate(0) translate(4 248)">
<title>src/core/Projectile.cpp</title>
<!-- Node1 -->
<g id="node1" class="node">
<title>Node1</title>
<g id="a_node1"><a xlink:title=" ">
<polygon fill="#bfbfbf" stroke="black" points="190.5,-224.5 190.5,-243.5 314.5,-243.5 314.5,-224.5 190.5,-224.5"/>
<text text-anchor="middle" x="252.5" y="-231.5" font-family="Helvetica,sans-Serif" font-size="10.00">src/core/Projectile.cpp</text>
</a>
</g>
</g>
<!-- Node2 -->
<g id="node2" class="node">
<title>Node2</title>
<g id="a_node2"><a xlink:href="_projectile_8h.html" target="_top" xlink:title="Définition des donées membres et des fonctions membres de la classe Projectile.">
<polygon fill="none" stroke="black" points="84,-168.5 84,-187.5 155,-187.5 155,-168.5 84,-168.5"/>
<text text-anchor="middle" x="119.5" y="-175.5" font-family="Helvetica,sans-Serif" font-size="10.00">Projectile.h</text>
</a>
</g>
</g>
<!-- Node1&#45;&gt;Node2 -->
<g id="edge1" class="edge">
<title>Node1&#45;&gt;Node2</title>
<path fill="none" stroke="midnightblue" d="M231.43,-224.44C209.44,-215.52 174.77,-201.44 149.84,-191.32"/>
<polygon fill="midnightblue" stroke="midnightblue" points="151.06,-188.04 140.48,-187.52 148.42,-194.52 151.06,-188.04"/>
</g>
<!-- Node6 -->
<g id="node6" class="node">
<title>Node6</title>
<g id="a_node6"><a xlink:title=" ">
<polygon fill="none" stroke="#bfbfbf" points="184.5,-0.5 184.5,-19.5 244.5,-19.5 244.5,-0.5 184.5,-0.5"/>
<text text-anchor="middle" x="214.5" y="-7.5" font-family="Helvetica,sans-Serif" font-size="10.00">iostream</text>
</a>
</g>
</g>
<!-- Node1&#45;&gt;Node6 -->
<g id="edge25" class="edge">
<title>Node1&#45;&gt;Node6</title>
<path fill="none" stroke="midnightblue" d="M251.01,-224.3C245.42,-191.63 225.6,-75.87 217.74,-29.96"/>
<polygon fill="midnightblue" stroke="midnightblue" points="221.16,-29.15 216.02,-19.88 214.26,-30.33 221.16,-29.15"/>
</g>
<!-- Node10 -->
<g id="node10" class="node">
<title>Node10</title>
<g id="a_node10"><a xlink:href="_tower_8h.html" target="_top" xlink:title=" ">
<polygon fill="none" stroke="black" points="0,-112.5 0,-131.5 53,-131.5 53,-112.5 0,-112.5"/>
<text text-anchor="middle" x="26.5" y="-119.5" font-family="Helvetica,sans-Serif" font-size="10.00">Tower.h</text>
</a>
</g>
</g>
<!-- Node1&#45;&gt;Node10 -->
<g id="edge14" class="edge">
<title>Node1&#45;&gt;Node10</title>
<path fill="none" stroke="midnightblue" d="M190.17,-227.75C153.92,-222.25 108.77,-211.01 74.5,-188 56.9,-176.18 43.35,-155.67 35.2,-140.84"/>
<polygon fill="midnightblue" stroke="midnightblue" points="38.16,-138.93 30.44,-131.66 31.94,-142.15 38.16,-138.93"/>
</g>
<!-- Node11 -->
<g id="node11" class="node">
<title>Node11</title>
<g id="a_node11"><a xlink:href="_game_8h.html" target="_top" xlink:title="Définition des donées membres et des fonctions membres de la classe Game.">
<polygon fill="none" stroke="black" points="374,-112.5 374,-131.5 429,-131.5 429,-112.5 374,-112.5"/>
<text text-anchor="middle" x="401.5" y="-119.5" font-family="Helvetica,sans-Serif" font-size="10.00">Game.h</text>
</a>
</g>
</g>
<!-- Node1&#45;&gt;Node11 -->
<g id="edge15" class="edge">
<title>Node1&#45;&gt;Node11</title>
<path fill="none" stroke="midnightblue" d="M255.51,-224.2C260.64,-210.43 272.31,-183.74 290.5,-168 311.45,-149.86 340.68,-138.41 363.88,-131.6"/>
<polygon fill="midnightblue" stroke="midnightblue" points="365.03,-134.92 373.74,-128.88 363.16,-128.17 365.03,-134.92"/>
</g>
<!-- Node15 -->
<g id="node15" class="node">
<title>Node15</title>
<g id="a_node15"><a xlink:title=" ">
<polygon fill="none" stroke="#bfbfbf" points="299.5,-168.5 299.5,-187.5 355.5,-187.5 355.5,-168.5 299.5,-168.5"/>
<text text-anchor="middle" x="327.5" y="-175.5" font-family="Helvetica,sans-Serif" font-size="10.00">unistd.h</text>
</a>
</g>
</g>
<!-- Node1&#45;&gt;Node15 -->
<g id="edge23" class="edge">
<title>Node1&#45;&gt;Node15</title>
<path fill="none" stroke="midnightblue" d="M264.55,-224.32C275.96,-216.11 293.33,-203.6 306.93,-193.81"/>
<polygon fill="midnightblue" stroke="midnightblue" points="309.16,-196.52 315.23,-187.83 305.07,-190.84 309.16,-196.52"/>
</g>
<!-- Node16 -->
<g id="node16" class="node">
<title>Node16</title>
<g id="a_node16"><a xlink:title=" ">
<polygon fill="none" stroke="#bfbfbf" points="374,-168.5 374,-187.5 425,-187.5 425,-168.5 374,-168.5"/>
<text text-anchor="middle" x="399.5" y="-175.5" font-family="Helvetica,sans-Serif" font-size="10.00">math.h</text>
</a>
</g>
</g>
<!-- Node1&#45;&gt;Node16 -->
<g id="edge24" class="edge">
<title>Node1&#45;&gt;Node16</title>
<path fill="none" stroke="midnightblue" d="M275.79,-224.44C300.31,-215.44 339.1,-201.19 366.7,-191.05"/>
<polygon fill="midnightblue" stroke="midnightblue" points="368.14,-194.25 376.32,-187.52 365.72,-187.68 368.14,-194.25"/>
</g>
<!-- Node3 -->
<g id="node3" class="node">
<title>Node3</title>
<g id="a_node3"><a xlink:href="_entity_8h.html" target="_top" xlink:title="Définition des donées membres et des fonctions membres de la classe Entity.">
<polygon fill="none" stroke="black" points="38,-56.5 38,-75.5 91,-75.5 91,-56.5 38,-56.5"/>
<text text-anchor="middle" x="64.5" y="-63.5" font-family="Helvetica,sans-Serif" font-size="10.00">Entity.h</text>
</a>
</g>
</g>
<!-- Node2&#45;&gt;Node3 -->
<g id="edge2" class="edge">
<title>Node2&#45;&gt;Node3</title>
<path fill="none" stroke="midnightblue" d="M115.18,-168.37C106.19,-150.38 85.28,-108.55 73.31,-84.63"/>
<polygon fill="midnightblue" stroke="midnightblue" points="76.4,-82.97 68.8,-75.59 70.14,-86.1 76.4,-82.97"/>
</g>
<!-- Node5 -->
<g id="node5" class="node">
<title>Node5</title>
<g id="a_node5"><a xlink:href="_enemy_8h.html" target="_top" xlink:title="Définition des donées membres et des fonctions membres de la classe Enemy.">
<polygon fill="none" stroke="black" points="147.5,-112.5 147.5,-131.5 205.5,-131.5 205.5,-112.5 147.5,-112.5"/>
<text text-anchor="middle" x="176.5" y="-119.5" font-family="Helvetica,sans-Serif" font-size="10.00">Enemy.h</text>
</a>
</g>
</g>
<!-- Node2&#45;&gt;Node5 -->
<g id="edge4" class="edge">
<title>Node2&#45;&gt;Node5</title>
<path fill="none" stroke="midnightblue" d="M128.66,-168.32C137,-160.42 149.53,-148.55 159.68,-138.94"/>
<polygon fill="midnightblue" stroke="midnightblue" points="162.32,-141.25 167.18,-131.83 157.51,-136.17 162.32,-141.25"/>
</g>
<!-- Node2&#45;&gt;Node6 -->
<g id="edge13" class="edge">
<title>Node2&#45;&gt;Node6</title>
<path fill="none" stroke="midnightblue" d="M121.02,-168.22C123.48,-155.37 129.02,-130.92 138.5,-112 154.95,-79.19 182.34,-46.14 199.36,-27.17"/>
<polygon fill="midnightblue" stroke="midnightblue" points="202.01,-29.46 206.17,-19.72 196.84,-24.74 202.01,-29.46"/>
</g>
<!-- Node2&#45;&gt;Node10 -->
<g id="edge11" class="edge">
<title>Node2&#45;&gt;Node10</title>
<path fill="none" stroke="midnightblue" d="M104.56,-168.32C89.91,-159.82 67.37,-146.73 50.26,-136.8"/>
<polygon fill="midnightblue" stroke="midnightblue" points="51.81,-133.65 41.4,-131.65 48.3,-139.7 51.81,-133.65"/>
</g>
<!-- Node4 -->
<g id="node4" class="node">
<title>Node4</title>
<g id="a_node4"><a xlink:title=" ">
<polygon fill="none" stroke="#bfbfbf" points="9.5,-0.5 9.5,-19.5 119.5,-19.5 119.5,-0.5 9.5,-0.5"/>
<text text-anchor="middle" x="64.5" y="-7.5" font-family="Helvetica,sans-Serif" font-size="10.00">../SDL2/EntitySDL.h</text>
</a>
</g>
</g>
<!-- Node3&#45;&gt;Node4 -->
<g id="edge3" class="edge">
<title>Node3&#45;&gt;Node4</title>
<path fill="none" stroke="midnightblue" d="M64.5,-56.08C64.5,-49.01 64.5,-38.86 64.5,-29.99"/>
<polygon fill="midnightblue" stroke="midnightblue" points="68,-29.75 64.5,-19.75 61,-29.75 68,-29.75"/>
</g>
<!-- Node5&#45;&gt;Node3 -->
<g id="edge7" class="edge">
<title>Node5&#45;&gt;Node3</title>
<path fill="none" stroke="midnightblue" d="M158.51,-112.32C140.46,-103.62 112.45,-90.12 91.7,-80.11"/>
<polygon fill="midnightblue" stroke="midnightblue" points="92.98,-76.84 82.45,-75.65 89.94,-83.15 92.98,-76.84"/>
</g>
<!-- Node5&#45;&gt;Node6 -->
<g id="edge5" class="edge">
<title>Node5&#45;&gt;Node6</title>
<path fill="none" stroke="midnightblue" d="M179.48,-112.37C185.64,-94.54 199.89,-53.3 208.19,-29.27"/>
<polygon fill="midnightblue" stroke="midnightblue" points="211.57,-30.19 211.53,-19.59 204.96,-27.9 211.57,-30.19"/>
</g>
<!-- Node7 -->
<g id="node7" class="node">
<title>Node7</title>
<g id="a_node7"><a xlink:title=" ">
<polygon fill="none" stroke="#bfbfbf" points="242.5,-56.5 242.5,-75.5 274.5,-75.5 274.5,-56.5 242.5,-56.5"/>
<text text-anchor="middle" x="258.5" y="-63.5" font-family="Helvetica,sans-Serif" font-size="10.00">list</text>
</a>
</g>
</g>
<!-- Node5&#45;&gt;Node7 -->
<g id="edge6" class="edge">
<title>Node5&#45;&gt;Node7</title>
<path fill="none" stroke="midnightblue" d="M189.67,-112.32C202.35,-103.98 221.73,-91.21 236.71,-81.35"/>
<polygon fill="midnightblue" stroke="midnightblue" points="238.93,-84.08 245.36,-75.65 235.08,-78.23 238.93,-84.08"/>
</g>
<!-- Node8 -->
<g id="node8" class="node">
<title>Node8</title>
<g id="a_node8"><a xlink:href="_road_8h.html" target="_top" xlink:title=" ">
<polygon fill="none" stroke="black" points="292.5,-56.5 292.5,-75.5 342.5,-75.5 342.5,-56.5 292.5,-56.5"/>
<text text-anchor="middle" x="317.5" y="-63.5" font-family="Helvetica,sans-Serif" font-size="10.00">Road.h</text>
</a>
</g>
</g>
<!-- Node5&#45;&gt;Node8 -->
<g id="edge8" class="edge">
<title>Node5&#45;&gt;Node8</title>
<path fill="none" stroke="midnightblue" d="M198.84,-112.44C222.25,-103.48 259.24,-89.31 285.69,-79.18"/>
<polygon fill="midnightblue" stroke="midnightblue" points="287.18,-82.36 295.26,-75.52 284.67,-75.82 287.18,-82.36"/>
</g>
<!-- Node8&#45;&gt;Node6 -->
<g id="edge9" class="edge">
<title>Node8&#45;&gt;Node6</title>
<path fill="none" stroke="midnightblue" d="M300.95,-56.32C284.51,-47.7 259.07,-34.36 240.03,-24.39"/>
<polygon fill="midnightblue" stroke="midnightblue" points="241.49,-21.2 231.01,-19.65 238.24,-27.4 241.49,-21.2"/>
</g>
<!-- Node9 -->
<g id="node9" class="node">
<title>Node9</title>
<g id="a_node9"><a xlink:title=" ">
<polygon fill="none" stroke="#bfbfbf" points="403,-0.5 403,-19.5 450,-19.5 450,-0.5 403,-0.5"/>
<text text-anchor="middle" x="426.5" y="-7.5" font-family="Helvetica,sans-Serif" font-size="10.00">vector</text>
</a>
</g>
</g>
<!-- Node8&#45;&gt;Node9 -->
<g id="edge10" class="edge">
<title>Node8&#45;&gt;Node9</title>
<path fill="none" stroke="midnightblue" d="M335.01,-56.32C352.57,-47.62 379.83,-34.12 400.03,-24.11"/>
<polygon fill="midnightblue" stroke="midnightblue" points="401.62,-27.23 409.03,-19.65 398.52,-20.96 401.62,-27.23"/>
</g>
<!-- Node10&#45;&gt;Node3 -->
<g id="edge12" class="edge">
<title>Node10&#45;&gt;Node3</title>
<path fill="none" stroke="midnightblue" d="M32.77,-112.08C38.14,-104.46 46.02,-93.26 52.58,-83.94"/>
<polygon fill="midnightblue" stroke="midnightblue" points="55.45,-85.94 58.34,-75.75 49.72,-81.91 55.45,-85.94"/>
</g>
<!-- Node11&#45;&gt;Node7 -->
<g id="edge22" class="edge">
<title>Node11&#45;&gt;Node7</title>
<path fill="none" stroke="midnightblue" d="M378.84,-112.44C353.14,-102.74 311.32,-86.95 284.36,-76.77"/>
<polygon fill="midnightblue" stroke="midnightblue" points="285.42,-73.42 274.83,-73.16 282.94,-79.97 285.42,-73.42"/>
</g>
<!-- Node11&#45;&gt;Node8 -->
<g id="edge18" class="edge">
<title>Node11&#45;&gt;Node8</title>
<path fill="none" stroke="midnightblue" d="M388,-112.32C374.9,-103.9 354.79,-90.97 339.39,-81.07"/>
<polygon fill="midnightblue" stroke="midnightblue" points="341.27,-78.12 330.96,-75.65 337.48,-84.01 341.27,-78.12"/>
</g>
<!-- Node11&#45;&gt;Node9 -->
<g id="edge21" class="edge">
<title>Node11&#45;&gt;Node9</title>
<path fill="none" stroke="midnightblue" d="M429.22,-118.79C456.57,-114.96 497.04,-104.51 516.5,-76 534.32,-49.89 492.36,-30.55 459.9,-20.03"/>
<polygon fill="midnightblue" stroke="midnightblue" points="460.8,-16.64 450.21,-17.05 458.74,-23.33 460.8,-16.64"/>
</g>
<!-- Node12 -->
<g id="node12" class="node">
<title>Node12</title>
<g id="a_node12"><a xlink:href="_ressources_8h.html" target="_top" xlink:title=" ">
<polygon fill="none" stroke="black" points="361,-56.5 361,-75.5 442,-75.5 442,-56.5 361,-56.5"/>
<text text-anchor="middle" x="401.5" y="-63.5" font-family="Helvetica,sans-Serif" font-size="10.00">Ressources.h</text>
</a>
</g>
</g>
<!-- Node11&#45;&gt;Node12 -->
<g id="edge16" class="edge">
<title>Node11&#45;&gt;Node12</title>
<path fill="none" stroke="midnightblue" d="M401.5,-112.08C401.5,-105.01 401.5,-94.86 401.5,-85.99"/>
<polygon fill="midnightblue" stroke="midnightblue" points="405,-85.75 401.5,-75.75 398,-85.75 405,-85.75"/>
</g>
<!-- Node13 -->
<g id="node13" class="node">
<title>Node13</title>
<g id="a_node13"><a xlink:href="_map_8h.html" target="_top" xlink:title="Définition des donées membres et des fonctions membres de la classe Map.">
<polygon fill="none" stroke="black" points="460,-56.5 460,-75.5 507,-75.5 507,-56.5 460,-56.5"/>
<text text-anchor="middle" x="483.5" y="-63.5" font-family="Helvetica,sans-Serif" font-size="10.00">Map.h</text>
</a>
</g>
</g>
<!-- Node11&#45;&gt;Node13 -->
<g id="edge19" class="edge">
<title>Node11&#45;&gt;Node13</title>
<path fill="none" stroke="midnightblue" d="M414.67,-112.32C427.35,-103.98 446.73,-91.21 461.71,-81.35"/>
<polygon fill="midnightblue" stroke="midnightblue" points="463.93,-84.08 470.36,-75.65 460.08,-78.23 463.93,-84.08"/>
</g>
<!-- Node14 -->
<g id="node14" class="node">
<title>Node14</title>
<g id="a_node14"><a xlink:href="_castle_8h.html" target="_top" xlink:title="Définition des donées membres et des fonctions membres de la classe Castle.">
<polygon fill="none" stroke="black" points="563.5,-56.5 563.5,-75.5 619.5,-75.5 619.5,-56.5 563.5,-56.5"/>
<text text-anchor="middle" x="591.5" y="-63.5" font-family="Helvetica,sans-Serif" font-size="10.00">Castle.h</text>
</a>
</g>
</g>
<!-- Node11&#45;&gt;Node14 -->
<g id="edge20" class="edge">
<title>Node11&#45;&gt;Node14</title>
<path fill="none" stroke="midnightblue" d="M429.13,-113.15C461.87,-103.84 516.6,-88.29 553.36,-77.84"/>
<polygon fill="midnightblue" stroke="midnightblue" points="554.56,-81.14 563.22,-75.04 552.64,-74.41 554.56,-81.14"/>
</g>
<!-- Node12&#45;&gt;Node6 -->
<g id="edge17" class="edge">
<title>Node12&#45;&gt;Node6</title>
<path fill="none" stroke="midnightblue" d="M371.87,-56.44C340,-47.24 289.17,-32.56 253.94,-22.39"/>
<polygon fill="midnightblue" stroke="midnightblue" points="254.57,-18.93 243.99,-19.52 252.63,-25.65 254.57,-18.93"/>
</g>
</g>
</svg>
