<?xml version="1.0" encoding="UTF-8" standalone="no"?>
<!DOCTYPE svg PUBLIC "-//W3C//DTD SVG 1.1//EN"
 "http://www.w3.org/Graphics/SVG/1.1/DTD/svg11.dtd">
<!-- Generated by graphviz version 2.43.0 (0)
 -->
<!-- Title: src/core/Ressources.cpp Pages: 1 -->
<svg width="158pt" height="140pt"
 viewBox="0.00 0.00 158.00 140.00" xmlns="http://www.w3.org/2000/svg" xmlns:xlink="http://www.w3.org/1999/xlink">
<g id="graph0" class="graph" transform="scale(1 1) rotate(0) translate(4 136)">
<title>src/core/Ressources.cpp</title>
<!-- Node1 -->
<g id="node1" class="node">
<title>Node1</title>
<g id="a_node1"><a xlink:title=" ">
<polygon fill="#bfbfbf" stroke="black" points="0,-112.5 0,-131.5 134,-131.5 134,-112.5 0,-112.5"/>
<text text-anchor="middle" x="67" y="-119.5" font-family="Helvetica,sans-Serif" font-size="10.00">src/core/Ressources.cpp</text>
</a>
</g>
</g>
<!-- Node2 -->
<g id="node2" class="node">
<title>Node2</title>
<g id="a_node2"><a xlink:href="_ressources_8h.html" target="_top" xlink:title=" ">
<polygon fill="none" stroke="black" points="26.5,-56.5 26.5,-75.5 107.5,-75.5 107.5,-56.5 26.5,-56.5"/>
<text text-anchor="middle" x="67" y="-63.5" font-family="Helvetica,sans-Serif" font-size="10.00">Ressources.h</text>
</a>
</g>
</g>
<!-- Node1&#45;&gt;Node2 -->
<g id="edge1" class="edge">
<title>Node1&#45;&gt;Node2</title>
<path fill="none" stroke="midnightblue" d="M67,-112.08C67,-105.01 67,-94.86 67,-85.99"/>
<polygon fill="midnightblue" stroke="midnightblue" points="70.5,-85.75 67,-75.75 63.5,-85.75 70.5,-85.75"/>
</g>
<!-- Node3 -->
<g id="node3" class="node">
<title>Node3</title>
<g id="a_node3"><a xlink:href="_entity_8h.html" target="_top" xlink:title="Définition des donées membres et des fonctions membres de la classe Entity.">
<polygon fill="none" stroke="black" points="2.5,-0.5 2.5,-19.5 55.5,-19.5 55.5,-0.5 2.5,-0.5"/>
<text text-anchor="middle" x="29" y="-7.5" font-family="Helvetica,sans-Serif" font-size="10.00">Entity.h</text>
</a>
</g>
</g>
<!-- Node1&#45;&gt;Node3 -->
<g id="edge4" class="edge">
<title>Node1&#45;&gt;Node3</title>
<path fill="none" stroke="midnightblue" d="M52.05,-112.47C40.07,-104.7 24.13,-92 17,-76 10.37,-61.11 14.79,-42.74 20.04,-29.32"/>
<polygon fill="midnightblue" stroke="midnightblue" points="23.41,-30.36 24.23,-19.8 17,-27.54 23.41,-30.36"/>
</g>
<!-- Node4 -->
<g id="node4" class="node">
<title>Node4</title>
<g id="a_node4"><a xlink:title=" ">
<polygon fill="none" stroke="#bfbfbf" points="90,-0.5 90,-19.5 150,-19.5 150,-0.5 90,-0.5"/>
<text text-anchor="middle" x="120" y="-7.5" font-family="Helvetica,sans-Serif" font-size="10.00">iostream</text>
</a>
</g>
</g>
<!-- Node1&#45;&gt;Node4 -->
<g id="edge5" class="edge">
<title>Node1&#45;&gt;Node4</title>
<path fill="none" stroke="midnightblue" d="M81.76,-112.39C93.63,-104.56 109.51,-91.83 117,-76 123.8,-61.64 124.03,-43.44 122.86,-29.96"/>
<polygon fill="midnightblue" stroke="midnightblue" points="126.33,-29.44 121.66,-19.93 119.37,-30.27 126.33,-29.44"/>
</g>
<!-- Node2&#45;&gt;Node3 -->
<g id="edge2" class="edge">
<title>Node2&#45;&gt;Node3</title>
<path fill="none" stroke="midnightblue" d="M60.73,-56.08C55.36,-48.46 47.48,-37.26 40.92,-27.94"/>
<polygon fill="midnightblue" stroke="midnightblue" points="43.78,-25.91 35.16,-19.75 38.05,-29.94 43.78,-25.91"/>
</g>
<!-- Node2&#45;&gt;Node4 -->
<g id="edge3" class="edge">
<title>Node2&#45;&gt;Node4</title>
<path fill="none" stroke="midnightblue" d="M75.75,-56.08C83.47,-48.22 94.9,-36.57 104.22,-27.08"/>
<polygon fill="midnightblue" stroke="midnightblue" points="106.9,-29.34 111.41,-19.75 101.91,-24.44 106.9,-29.34"/>
</g>
</g>
</svg>
