<?xml version="1.0" encoding="UTF-8" standalone="no"?>
<!DOCTYPE svg PUBLIC "-//W3C//DTD SVG 1.1//EN"
 "http://www.w3.org/Graphics/SVG/1.1/DTD/svg11.dtd">
<!-- Generated by graphviz version 2.43.0 (0)
 -->
<!-- Title: /home/allan/Licence2_Informatique/ProjetLIFAP4/src/core/Ressources.cpp Pages: 1 -->
<svg width="156pt" height="274pt"
 viewBox="0.00 0.00 156.00 274.00" xmlns="http://www.w3.org/2000/svg" xmlns:xlink="http://www.w3.org/1999/xlink">
<g id="graph0" class="graph" transform="scale(1 1) rotate(0) translate(4 270)">
<title>/home/allan/Licence2_Informatique/ProjetLIFAP4/src/core/Ressources.cpp</title>
<!-- Node1 -->
<g id="node1" class="node">
<title>Node1</title>
<g id="a_node1"><a xlink:title=" ">
<polygon fill="#bfbfbf" stroke="black" points="0,-224.5 0,-265.5 148,-265.5 148,-224.5 0,-224.5"/>
<text text-anchor="start" x="8" y="-253.5" font-family="Helvetica,sans-Serif" font-size="10.00">/home/allan/Licence2</text>
<text text-anchor="start" x="8" y="-242.5" font-family="Helvetica,sans-Serif" font-size="10.00">_Informatique/ProjetLIFAP4</text>
<text text-anchor="middle" x="74" y="-231.5" font-family="Helvetica,sans-Serif" font-size="10.00">/src/core/Ressources.cpp</text>
</a>
</g>
</g>
<!-- Node2 -->
<g id="node2" class="node">
<title>Node2</title>
<g id="a_node2"><a xlink:href="_ressources_8h.html" target="_top" xlink:title=" ">
<polygon fill="none" stroke="black" points="33.5,-168.5 33.5,-187.5 114.5,-187.5 114.5,-168.5 33.5,-168.5"/>
<text text-anchor="middle" x="74" y="-175.5" font-family="Helvetica,sans-Serif" font-size="10.00">Ressources.h</text>
</a>
</g>
</g>
<!-- Node1&#45;&gt;Node2 -->
<g id="edge1" class="edge">
<title>Node1&#45;&gt;Node2</title>
<path fill="none" stroke="midnightblue" d="M74,-224.5C74,-216.07 74,-206.24 74,-197.87"/>
<polygon fill="midnightblue" stroke="midnightblue" points="77.5,-197.65 74,-187.65 70.5,-197.65 77.5,-197.65"/>
</g>
<!-- Node3 -->
<g id="node3" class="node">
<title>Node3</title>
<g id="a_node3"><a xlink:href="_entity_8h.html" target="_top" xlink:title=" ">
<polygon fill="none" stroke="black" points="7.5,-112.5 7.5,-131.5 60.5,-131.5 60.5,-112.5 7.5,-112.5"/>
<text text-anchor="middle" x="34" y="-119.5" font-family="Helvetica,sans-Serif" font-size="10.00">Entity.h</text>
</a>
</g>
</g>
<!-- Node1&#45;&gt;Node3 -->
<g id="edge6" class="edge">
<title>Node1&#45;&gt;Node3</title>
<path fill="none" stroke="midnightblue" d="M50.07,-224.49C39.97,-214.73 29.34,-202 24,-188 18.22,-172.85 21.93,-154.5 26.38,-141.17"/>
<polygon fill="midnightblue" stroke="midnightblue" points="29.7,-142.3 29.94,-131.71 23.14,-139.83 29.7,-142.3"/>
</g>
<!-- Node5 -->
<g id="node5" class="node">
<title>Node5</title>
<g id="a_node5"><a xlink:title=" ">
<polygon fill="none" stroke="#bfbfbf" points="59,-0.5 59,-19.5 119,-19.5 119,-0.5 59,-0.5"/>
<text text-anchor="middle" x="89" y="-7.5" font-family="Helvetica,sans-Serif" font-size="10.00">iostream</text>
</a>
</g>
</g>
<!-- Node1&#45;&gt;Node5 -->
<g id="edge7" class="edge">
<title>Node1&#45;&gt;Node5</title>
<path fill="none" stroke="midnightblue" d="M97.93,-224.49C108.03,-214.73 118.66,-202 124,-188 145.26,-132.28 115.54,-61.54 98.91,-28.94"/>
<polygon fill="midnightblue" stroke="midnightblue" points="101.82,-26.96 94.05,-19.76 95.63,-30.24 101.82,-26.96"/>
</g>
<!-- Node2&#45;&gt;Node3 -->
<g id="edge2" class="edge">
<title>Node2&#45;&gt;Node3</title>
<path fill="none" stroke="midnightblue" d="M67.39,-168.08C61.74,-160.46 53.46,-149.26 46.55,-139.94"/>
<polygon fill="midnightblue" stroke="midnightblue" points="49.25,-137.7 40.48,-131.75 43.62,-141.87 49.25,-137.7"/>
</g>
<!-- Node2&#45;&gt;Node5 -->
<g id="edge5" class="edge">
<title>Node2&#45;&gt;Node5</title>
<path fill="none" stroke="midnightblue" d="M74.81,-168.08C77.17,-141.95 84.1,-65.21 87.32,-29.58"/>
<polygon fill="midnightblue" stroke="midnightblue" points="90.81,-29.84 88.23,-19.57 83.84,-29.21 90.81,-29.84"/>
</g>
<!-- Node4 -->
<g id="node4" class="node">
<title>Node4</title>
<g id="a_node4"><a xlink:href="_vec2_8h.html" target="_top" xlink:title=" ">
<polygon fill="none" stroke="black" points="10.5,-56.5 10.5,-75.5 59.5,-75.5 59.5,-56.5 10.5,-56.5"/>
<text text-anchor="middle" x="35" y="-63.5" font-family="Helvetica,sans-Serif" font-size="10.00">Vec2.h</text>
</a>
</g>
</g>
<!-- Node3&#45;&gt;Node4 -->
<g id="edge3" class="edge">
<title>Node3&#45;&gt;Node4</title>
<path fill="none" stroke="midnightblue" d="M34.17,-112.08C34.3,-105.01 34.48,-94.86 34.65,-85.99"/>
<polygon fill="midnightblue" stroke="midnightblue" points="38.15,-85.81 34.84,-75.75 31.15,-85.68 38.15,-85.81"/>
</g>
<!-- Node4&#45;&gt;Node5 -->
<g id="edge4" class="edge">
<title>Node4&#45;&gt;Node5</title>
<path fill="none" stroke="midnightblue" d="M43.92,-56.08C51.78,-48.22 63.43,-36.57 72.92,-27.08"/>
<polygon fill="midnightblue" stroke="midnightblue" points="75.65,-29.3 80.25,-19.75 70.7,-24.35 75.65,-29.3"/>
</g>
</g>
</svg>
