<?xml version="1.0" encoding="UTF-8" standalone="no"?>
<!DOCTYPE svg PUBLIC "-//W3C//DTD SVG 1.1//EN"
 "http://www.w3.org/Graphics/SVG/1.1/DTD/svg11.dtd">
<!-- Generated by graphviz version 2.43.0 (0)
 -->
<!-- Title: src/core/Road.h Pages: 1 -->
<svg width="575pt" height="252pt"
 viewBox="0.00 0.00 574.50 252.00" xmlns="http://www.w3.org/2000/svg" xmlns:xlink="http://www.w3.org/1999/xlink">
<g id="graph0" class="graph" transform="scale(1 1) rotate(0) translate(4 248)">
<title>src/core/Road.h</title>
<!-- Node1 -->
<g id="node1" class="node">
<title>Node1</title>
<g id="a_node1"><a xlink:title=" ">
<polygon fill="#bfbfbf" stroke="black" points="256,-224.5 256,-243.5 348,-243.5 348,-224.5 256,-224.5"/>
<text text-anchor="middle" x="302" y="-231.5" font-family="Helvetica,sans-Serif" font-size="10.00">src/core/Road.h</text>
</a>
</g>
</g>
<!-- Node2 -->
<g id="node2" class="node">
<title>Node2</title>
<g id="a_node2"><a xlink:href="_enemy_8h.html" target="_top" xlink:title="Définition des donées membres et des fonctions membres de la classe Enemy.">
<polygon fill="none" stroke="black" points="130.5,-168.5 130.5,-187.5 229.5,-187.5 229.5,-168.5 130.5,-168.5"/>
<text text-anchor="middle" x="180" y="-175.5" font-family="Helvetica,sans-Serif" font-size="10.00">src/core/Enemy.h</text>
</a>
</g>
</g>
<!-- Node1&#45;&gt;Node2 -->
<g id="edge1" class="edge">
<title>Node1&#45;&gt;Node2</title>
<path fill="none" stroke="midnightblue" d="M273.46,-220.37C250.61,-210.26 219.19,-196.35 199.24,-187.52"/>
<polygon fill="midnightblue" stroke="midnightblue" points="272.11,-223.6 282.67,-224.44 274.94,-217.2 272.11,-223.6"/>
</g>
<!-- Node7 -->
<g id="node7" class="node">
<title>Node7</title>
<g id="a_node7"><a xlink:href="_game_8h.html" target="_top" xlink:title="Définition des donées membres et des fonctions membres de la classe Game.">
<polygon fill="none" stroke="black" points="298,-112.5 298,-131.5 394,-131.5 394,-112.5 298,-112.5"/>
<text text-anchor="middle" x="346" y="-119.5" font-family="Helvetica,sans-Serif" font-size="10.00">src/core/Game.h</text>
</a>
</g>
</g>
<!-- Node1&#45;&gt;Node7 -->
<g id="edge7" class="edge">
<title>Node1&#45;&gt;Node7</title>
<path fill="none" stroke="midnightblue" d="M306.22,-214.59C309.52,-201.36 314.63,-183.26 321,-168 326.51,-154.81 334.9,-140.53 340.42,-131.67"/>
<polygon fill="midnightblue" stroke="midnightblue" points="302.8,-213.84 303.87,-224.38 309.6,-215.47 302.8,-213.84"/>
</g>
<!-- Node11 -->
<g id="node11" class="node">
<title>Node11</title>
<g id="a_node11"><a xlink:href="_road_8cpp.html" target="_top" xlink:title=" ">
<polygon fill="none" stroke="black" points="330.5,-168.5 330.5,-187.5 433.5,-187.5 433.5,-168.5 330.5,-168.5"/>
<text text-anchor="middle" x="382" y="-175.5" font-family="Helvetica,sans-Serif" font-size="10.00">src/core/Road.cpp</text>
</a>
</g>
</g>
<!-- Node1&#45;&gt;Node11 -->
<g id="edge13" class="edge">
<title>Node1&#45;&gt;Node11</title>
<path fill="none" stroke="midnightblue" d="M323.3,-218.62C337.92,-208.76 356.83,-195.99 369.18,-187.65"/>
<polygon fill="midnightblue" stroke="midnightblue" points="321.18,-215.83 314.85,-224.32 325.1,-221.63 321.18,-215.83"/>
</g>
<!-- Node3 -->
<g id="node3" class="node">
<title>Node3</title>
<g id="a_node3"><a xlink:href="_enemy_8cpp.html" target="_top" xlink:title=" ">
<polygon fill="none" stroke="black" points="0,-112.5 0,-131.5 110,-131.5 110,-112.5 0,-112.5"/>
<text text-anchor="middle" x="55" y="-119.5" font-family="Helvetica,sans-Serif" font-size="10.00">src/core/Enemy.cpp</text>
</a>
</g>
</g>
<!-- Node2&#45;&gt;Node3 -->
<g id="edge2" class="edge">
<title>Node2&#45;&gt;Node3</title>
<path fill="none" stroke="midnightblue" d="M150.76,-164.37C127.35,-154.26 95.16,-140.35 74.71,-131.52"/>
<polygon fill="midnightblue" stroke="midnightblue" points="149.63,-167.69 160.19,-168.44 152.4,-161.26 149.63,-167.69"/>
</g>
<!-- Node4 -->
<g id="node4" class="node">
<title>Node4</title>
<g id="a_node4"><a xlink:href="_game_8cpp.html" target="_top" xlink:title=" ">
<polygon fill="none" stroke="black" points="121.5,-56.5 121.5,-75.5 228.5,-75.5 228.5,-56.5 121.5,-56.5"/>
<text text-anchor="middle" x="175" y="-63.5" font-family="Helvetica,sans-Serif" font-size="10.00">src/core/Game.cpp</text>
</a>
</g>
</g>
<!-- Node2&#45;&gt;Node4 -->
<g id="edge3" class="edge">
<title>Node2&#45;&gt;Node4</title>
<path fill="none" stroke="midnightblue" d="M168.58,-159.44C164.02,-151.42 159.31,-141.58 157,-132 152.12,-111.74 162.73,-88.23 169.65,-75.78"/>
<polygon fill="midnightblue" stroke="midnightblue" points="165.71,-161.46 173.9,-168.19 171.69,-157.83 165.71,-161.46"/>
</g>
<!-- Node5 -->
<g id="node5" class="node">
<title>Node5</title>
<g id="a_node5"><a xlink:href="_projectile_8h.html" target="_top" xlink:title="Définition des donées membres et des fonctions membres de la classe Projectile.">
<polygon fill="none" stroke="black" points="166.5,-112.5 166.5,-131.5 279.5,-131.5 279.5,-112.5 166.5,-112.5"/>
<text text-anchor="middle" x="223" y="-119.5" font-family="Helvetica,sans-Serif" font-size="10.00">src/core/Projectile.h</text>
</a>
</g>
</g>
<!-- Node2&#45;&gt;Node5 -->
<g id="edge4" class="edge">
<title>Node2&#45;&gt;Node5</title>
<path fill="none" stroke="midnightblue" d="M193.42,-160.14C200.91,-150.74 209.94,-139.4 216.03,-131.75"/>
<polygon fill="midnightblue" stroke="midnightblue" points="190.59,-158.08 187.1,-168.08 196.07,-162.44 190.59,-158.08"/>
</g>
<!-- Node5&#45;&gt;Node4 -->
<g id="edge5" class="edge">
<title>Node5&#45;&gt;Node4</title>
<path fill="none" stroke="midnightblue" d="M208.27,-104.43C199.86,-94.97 189.65,-83.48 182.78,-75.75"/>
<polygon fill="midnightblue" stroke="midnightblue" points="205.81,-106.93 215.07,-112.08 211.05,-102.28 205.81,-106.93"/>
</g>
<!-- Node6 -->
<g id="node6" class="node">
<title>Node6</title>
<g id="a_node6"><a xlink:href="_projectile_8cpp.html" target="_top" xlink:title=" ">
<polygon fill="none" stroke="black" points="247,-56.5 247,-75.5 371,-75.5 371,-56.5 247,-56.5"/>
<text text-anchor="middle" x="309" y="-63.5" font-family="Helvetica,sans-Serif" font-size="10.00">src/core/Projectile.cpp</text>
</a>
</g>
</g>
<!-- Node5&#45;&gt;Node6 -->
<g id="edge6" class="edge">
<title>Node5&#45;&gt;Node6</title>
<path fill="none" stroke="midnightblue" d="M245.45,-106.9C261.22,-97 281.81,-84.07 295.22,-75.65"/>
<polygon fill="midnightblue" stroke="midnightblue" points="243.43,-104.04 236.82,-112.32 247.15,-109.97 243.43,-104.04"/>
</g>
<!-- Node7&#45;&gt;Node4 -->
<g id="edge8" class="edge">
<title>Node7&#45;&gt;Node4</title>
<path fill="none" stroke="midnightblue" d="M308.96,-109.3C276.74,-99.13 230.81,-84.62 201.97,-75.52"/>
<polygon fill="midnightblue" stroke="midnightblue" points="308.31,-112.77 318.9,-112.44 310.42,-106.09 308.31,-112.77"/>
</g>
<!-- Node7&#45;&gt;Node6 -->
<g id="edge9" class="edge">
<title>Node7&#45;&gt;Node6</title>
<path fill="none" stroke="midnightblue" d="M334.05,-103.57C327.69,-94.27 320.13,-83.25 315,-75.75"/>
<polygon fill="midnightblue" stroke="midnightblue" points="331.35,-105.81 339.89,-112.08 337.13,-101.86 331.35,-105.81"/>
</g>
<!-- Node8 -->
<g id="node8" class="node">
<title>Node8</title>
<g id="a_node8"><a xlink:href="_game_t_x_t_8h.html" target="_top" xlink:title="Fichier s&#39;occupant de l&#39;affichage du jeu en mode texte.">
<polygon fill="none" stroke="black" points="389.5,-56.5 389.5,-75.5 496.5,-75.5 496.5,-56.5 389.5,-56.5"/>
<text text-anchor="middle" x="443" y="-63.5" font-family="Helvetica,sans-Serif" font-size="10.00">src/txt/GameTXT.h</text>
</a>
</g>
</g>
<!-- Node7&#45;&gt;Node8 -->
<g id="edge10" class="edge">
<title>Node7&#45;&gt;Node8</title>
<path fill="none" stroke="midnightblue" d="M370.34,-107.45C388.24,-97.48 412.05,-84.23 427.45,-75.65"/>
<polygon fill="midnightblue" stroke="midnightblue" points="368.62,-104.4 361.58,-112.32 372.02,-110.52 368.62,-104.4"/>
</g>
<!-- Node9 -->
<g id="node9" class="node">
<title>Node9</title>
<g id="a_node9"><a xlink:href="_game_t_x_t_8cpp.html" target="_top" xlink:title=" ">
<polygon fill="none" stroke="black" points="317,-0.5 317,-19.5 435,-19.5 435,-0.5 317,-0.5"/>
<text text-anchor="middle" x="376" y="-7.5" font-family="Helvetica,sans-Serif" font-size="10.00">src/txt/GameTXT.cpp</text>
</a>
</g>
</g>
<!-- Node8&#45;&gt;Node9 -->
<g id="edge11" class="edge">
<title>Node8&#45;&gt;Node9</title>
<path fill="none" stroke="midnightblue" d="M424.17,-49.82C412.16,-40.15 397.03,-27.95 386.96,-19.83"/>
<polygon fill="midnightblue" stroke="midnightblue" points="422.25,-52.77 432.24,-56.32 426.65,-47.32 422.25,-52.77"/>
</g>
<!-- Node10 -->
<g id="node10" class="node">
<title>Node10</title>
<g id="a_node10"><a xlink:href="main_t_x_t_8cpp.html" target="_top" xlink:title=" ">
<polygon fill="none" stroke="black" points="453.5,-0.5 453.5,-19.5 566.5,-19.5 566.5,-0.5 453.5,-0.5"/>
<text text-anchor="middle" x="510" y="-7.5" font-family="Helvetica,sans-Serif" font-size="10.00">src/txt/mainTXT.cpp</text>
</a>
</g>
</g>
<!-- Node8&#45;&gt;Node10 -->
<g id="edge12" class="edge">
<title>Node8&#45;&gt;Node10</title>
<path fill="none" stroke="midnightblue" d="M461.83,-49.82C473.84,-40.15 488.97,-27.95 499.04,-19.83"/>
<polygon fill="midnightblue" stroke="midnightblue" points="459.35,-47.32 453.76,-56.32 463.75,-52.77 459.35,-47.32"/>
</g>
</g>
</svg>
