<?xml version="1.0" encoding="UTF-8" standalone="no"?>
<!DOCTYPE svg PUBLIC "-//W3C//DTD SVG 1.1//EN"
 "http://www.w3.org/Graphics/SVG/1.1/DTD/svg11.dtd">
<!-- Generated by graphviz version 2.43.0 (0)
 -->
<!-- Title: src/core/TowerArcher.cpp Pages: 1 -->
<svg width="275pt" height="140pt"
 viewBox="0.00 0.00 275.13 140.00" xmlns="http://www.w3.org/2000/svg" xmlns:xlink="http://www.w3.org/1999/xlink">
<g id="graph0" class="graph" transform="scale(1 1) rotate(0) translate(4 136)">
<title>src/core/TowerArcher.cpp</title>
<!-- Node1 -->
<g id="node1" class="node">
<title>Node1</title>
<g id="a_node1"><a xlink:title=" ">
<polygon fill="#bfbfbf" stroke="black" points="22.13,-112.5 22.13,-131.5 159.13,-131.5 159.13,-112.5 22.13,-112.5"/>
<text text-anchor="middle" x="90.63" y="-119.5" font-family="Helvetica,sans-Serif" font-size="10.00">src/core/TowerArcher.cpp</text>
</a>
</g>
</g>
<!-- Node2 -->
<g id="node2" class="node">
<title>Node2</title>
<g id="a_node2"><a xlink:href="_tower_archer_8h.html" target="_top" xlink:title="Définition des donées membres et des fonctions membres de la classe TowerArcher.">
<polygon fill="none" stroke="black" points="13.13,-56.5 13.13,-75.5 98.13,-75.5 98.13,-56.5 13.13,-56.5"/>
<text text-anchor="middle" x="55.63" y="-63.5" font-family="Helvetica,sans-Serif" font-size="10.00">TowerArcher.h</text>
</a>
</g>
</g>
<!-- Node1&#45;&gt;Node2 -->
<g id="edge1" class="edge">
<title>Node1&#45;&gt;Node2</title>
<path fill="none" stroke="midnightblue" d="M84.85,-112.08C79.96,-104.53 72.81,-93.49 66.8,-84.23"/>
<polygon fill="midnightblue" stroke="midnightblue" points="69.68,-82.24 61.3,-75.75 63.81,-86.05 69.68,-82.24"/>
</g>
<!-- Node3 -->
<g id="node3" class="node">
<title>Node3</title>
<g id="a_node3"><a xlink:title=" ">
<polygon fill="none" stroke="#bfbfbf" points="19.63,-0.5 19.63,-19.5 79.63,-19.5 79.63,-0.5 19.63,-0.5"/>
<text text-anchor="middle" x="49.63" y="-7.5" font-family="Helvetica,sans-Serif" font-size="10.00">iostream</text>
</a>
</g>
</g>
<!-- Node1&#45;&gt;Node3 -->
<g id="edge10" class="edge">
<title>Node1&#45;&gt;Node3</title>
<path fill="none" stroke="midnightblue" d="M55.62,-112.45C36.7,-105.84 14.95,-94.59 3.63,-76 -7.26,-58.1 10.87,-38.61 27.48,-25.69"/>
<polygon fill="midnightblue" stroke="midnightblue" points="29.85,-28.29 35.86,-19.57 25.72,-22.64 29.85,-28.29"/>
</g>
<!-- Node4 -->
<g id="node4" class="node">
<title>Node4</title>
<g id="a_node4"><a xlink:href="_entity_8h.html" target="_top" xlink:title="Définition des donées membres et des fonctions membres de la classe Entity.">
<polygon fill="none" stroke="black" points="98.13,-0.5 98.13,-19.5 151.13,-19.5 151.13,-0.5 98.13,-0.5"/>
<text text-anchor="middle" x="124.63" y="-7.5" font-family="Helvetica,sans-Serif" font-size="10.00">Entity.h</text>
</a>
</g>
</g>
<!-- Node1&#45;&gt;Node4 -->
<g id="edge4" class="edge">
<title>Node1&#45;&gt;Node4</title>
<path fill="none" stroke="midnightblue" d="M93.88,-112.43C97.26,-103.43 102.59,-88.81 106.63,-76 111.54,-60.47 116.42,-42.63 119.87,-29.58"/>
<polygon fill="midnightblue" stroke="midnightblue" points="123.26,-30.45 122.39,-19.89 116.48,-28.69 123.26,-30.45"/>
</g>
<!-- Node5 -->
<g id="node5" class="node">
<title>Node5</title>
<g id="a_node5"><a xlink:href="_enemy_8h.html" target="_top" xlink:title="Définition des donées membres et des fonctions membres de la classe Enemy.">
<polygon fill="none" stroke="black" points="154.63,-56.5 154.63,-75.5 212.63,-75.5 212.63,-56.5 154.63,-56.5"/>
<text text-anchor="middle" x="183.63" y="-63.5" font-family="Helvetica,sans-Serif" font-size="10.00">Enemy.h</text>
</a>
</g>
</g>
<!-- Node1&#45;&gt;Node5 -->
<g id="edge5" class="edge">
<title>Node1&#45;&gt;Node5</title>
<path fill="none" stroke="midnightblue" d="M105.58,-112.32C120.22,-103.82 142.77,-90.73 159.87,-80.8"/>
<polygon fill="midnightblue" stroke="midnightblue" points="161.84,-83.7 168.73,-75.65 158.32,-77.65 161.84,-83.7"/>
</g>
<!-- Node2&#45;&gt;Node3 -->
<g id="edge2" class="edge">
<title>Node2&#45;&gt;Node3</title>
<path fill="none" stroke="midnightblue" d="M54.64,-56.08C53.85,-48.93 52.7,-38.64 51.71,-29.69"/>
<polygon fill="midnightblue" stroke="midnightblue" points="55.19,-29.3 50.61,-19.75 48.23,-30.08 55.19,-29.3"/>
</g>
<!-- Node2&#45;&gt;Node4 -->
<g id="edge3" class="edge">
<title>Node2&#45;&gt;Node4</title>
<path fill="none" stroke="midnightblue" d="M66.72,-56.32C77.12,-48.18 92.89,-35.84 105.35,-26.09"/>
<polygon fill="midnightblue" stroke="midnightblue" points="107.63,-28.75 113.35,-19.83 103.31,-23.24 107.63,-28.75"/>
</g>
<!-- Node5&#45;&gt;Node3 -->
<g id="edge6" class="edge">
<title>Node5&#45;&gt;Node3</title>
<path fill="none" stroke="midnightblue" d="M162.4,-56.44C140.25,-47.52 105.31,-33.44 80.2,-23.32"/>
<polygon fill="midnightblue" stroke="midnightblue" points="81.35,-20.01 70.77,-19.52 78.73,-26.5 81.35,-20.01"/>
</g>
<!-- Node5&#45;&gt;Node4 -->
<g id="edge8" class="edge">
<title>Node5&#45;&gt;Node4</title>
<path fill="none" stroke="midnightblue" d="M174.15,-56.32C165.43,-48.34 152.29,-36.31 141.74,-26.65"/>
<polygon fill="midnightblue" stroke="midnightblue" points="144.02,-24 134.28,-19.83 139.3,-29.17 144.02,-24"/>
</g>
<!-- Node6 -->
<g id="node6" class="node">
<title>Node6</title>
<g id="a_node6"><a xlink:title=" ">
<polygon fill="none" stroke="#bfbfbf" points="169.63,-0.5 169.63,-19.5 201.63,-19.5 201.63,-0.5 169.63,-0.5"/>
<text text-anchor="middle" x="185.63" y="-7.5" font-family="Helvetica,sans-Serif" font-size="10.00">list</text>
</a>
</g>
</g>
<!-- Node5&#45;&gt;Node6 -->
<g id="edge7" class="edge">
<title>Node5&#45;&gt;Node6</title>
<path fill="none" stroke="midnightblue" d="M183.96,-56.08C184.23,-49.01 184.6,-38.86 184.93,-29.99"/>
<polygon fill="midnightblue" stroke="midnightblue" points="188.44,-29.87 185.31,-19.75 181.44,-29.61 188.44,-29.87"/>
</g>
<!-- Node7 -->
<g id="node7" class="node">
<title>Node7</title>
<g id="a_node7"><a xlink:href="_map_8h.html" target="_top" xlink:title="Définition des donées membres et des fonctions membres de la classe Map.">
<polygon fill="none" stroke="black" points="220.13,-0.5 220.13,-19.5 267.13,-19.5 267.13,-0.5 220.13,-0.5"/>
<text text-anchor="middle" x="243.63" y="-7.5" font-family="Helvetica,sans-Serif" font-size="10.00">Map.h</text>
</a>
</g>
</g>
<!-- Node5&#45;&gt;Node7 -->
<g id="edge9" class="edge">
<title>Node5&#45;&gt;Node7</title>
<path fill="none" stroke="midnightblue" d="M193.27,-56.32C202.14,-48.34 215.51,-36.31 226.24,-26.65"/>
<polygon fill="midnightblue" stroke="midnightblue" points="228.73,-29.13 233.82,-19.83 224.04,-23.92 228.73,-29.13"/>
</g>
</g>
</svg>
