<?xml version="1.0" encoding="UTF-8" standalone="no"?>
<!DOCTYPE svg PUBLIC "-//W3C//DTD SVG 1.1//EN"
 "http://www.w3.org/Graphics/SVG/1.1/DTD/svg11.dtd">
<!-- Generated by graphviz version 2.43.0 (0)
 -->
<!-- Title: /home/allan/Licence2_Informatique/ProjetLIFAP4/src/core/TowerArcher.cpp Pages: 1 -->
<svg width="292pt" height="274pt"
 viewBox="0.00 0.00 291.89 274.00" xmlns="http://www.w3.org/2000/svg" xmlns:xlink="http://www.w3.org/1999/xlink">
<g id="graph0" class="graph" transform="scale(1 1) rotate(0) translate(4 270)">
<title>/home/allan/Licence2_Informatique/ProjetLIFAP4/src/core/TowerArcher.cpp</title>
<!-- Node1 -->
<g id="node1" class="node">
<title>Node1</title>
<g id="a_node1"><a xlink:title=" ">
<polygon fill="#bfbfbf" stroke="black" points="22.39,-224.5 22.39,-265.5 170.39,-265.5 170.39,-224.5 22.39,-224.5"/>
<text text-anchor="start" x="30.39" y="-253.5" font-family="Helvetica,sans-Serif" font-size="10.00">/home/allan/Licence2</text>
<text text-anchor="start" x="30.39" y="-242.5" font-family="Helvetica,sans-Serif" font-size="10.00">_Informatique/ProjetLIFAP4</text>
<text text-anchor="middle" x="96.39" y="-231.5" font-family="Helvetica,sans-Serif" font-size="10.00">/src/core/TowerArcher.cpp</text>
</a>
</g>
</g>
<!-- Node2 -->
<g id="node2" class="node">
<title>Node2</title>
<g id="a_node2"><a xlink:href="_tower_archer_8h.html" target="_top" xlink:title=" ">
<polygon fill="none" stroke="black" points="18.89,-168.5 18.89,-187.5 103.89,-187.5 103.89,-168.5 18.89,-168.5"/>
<text text-anchor="middle" x="61.39" y="-175.5" font-family="Helvetica,sans-Serif" font-size="10.00">TowerArcher.h</text>
</a>
</g>
</g>
<!-- Node1&#45;&gt;Node2 -->
<g id="edge1" class="edge">
<title>Node1&#45;&gt;Node2</title>
<path fill="none" stroke="midnightblue" d="M85.89,-224.5C81.09,-215.59 75.45,-205.11 70.8,-196.46"/>
<polygon fill="midnightblue" stroke="midnightblue" points="73.87,-194.8 66.05,-187.65 67.71,-198.12 73.87,-194.8"/>
</g>
<!-- Node3 -->
<g id="node3" class="node">
<title>Node3</title>
<g id="a_node3"><a xlink:title=" ">
<polygon fill="none" stroke="#bfbfbf" points="45.39,-0.5 45.39,-19.5 105.39,-19.5 105.39,-0.5 45.39,-0.5"/>
<text text-anchor="middle" x="75.39" y="-7.5" font-family="Helvetica,sans-Serif" font-size="10.00">iostream</text>
</a>
</g>
</g>
<!-- Node1&#45;&gt;Node3 -->
<g id="edge12" class="edge">
<title>Node1&#45;&gt;Node3</title>
<path fill="none" stroke="midnightblue" d="M47.97,-224.26C32.85,-215.52 17.91,-203.61 9.39,-188 -21.03,-132.24 32.36,-59.53 60.16,-27.44"/>
<polygon fill="midnightblue" stroke="midnightblue" points="62.88,-29.65 66.92,-19.85 57.65,-24.99 62.88,-29.65"/>
</g>
<!-- Node4 -->
<g id="node4" class="node">
<title>Node4</title>
<g id="a_node4"><a xlink:href="_entity_8h.html" target="_top" xlink:title=" ">
<polygon fill="none" stroke="black" points="76.89,-112.5 76.89,-131.5 129.89,-131.5 129.89,-112.5 76.89,-112.5"/>
<text text-anchor="middle" x="103.39" y="-119.5" font-family="Helvetica,sans-Serif" font-size="10.00">Entity.h</text>
</a>
</g>
</g>
<!-- Node1&#45;&gt;Node4 -->
<g id="edge6" class="edge">
<title>Node1&#45;&gt;Node4</title>
<path fill="none" stroke="midnightblue" d="M103.46,-224.33C106.91,-213.73 110.67,-200.32 112.39,-188 113.62,-179.2 113.27,-176.85 112.39,-168 111.52,-159.17 109.7,-149.51 107.93,-141.4"/>
<polygon fill="midnightblue" stroke="midnightblue" points="111.31,-140.49 105.63,-131.55 104.49,-142.08 111.31,-140.49"/>
</g>
<!-- Node6 -->
<g id="node6" class="node">
<title>Node6</title>
<g id="a_node6"><a xlink:href="_enemy_8h.html" target="_top" xlink:title=" ">
<polygon fill="none" stroke="black" points="160.39,-168.5 160.39,-187.5 218.39,-187.5 218.39,-168.5 160.39,-168.5"/>
<text text-anchor="middle" x="189.39" y="-175.5" font-family="Helvetica,sans-Serif" font-size="10.00">Enemy.h</text>
</a>
</g>
</g>
<!-- Node1&#45;&gt;Node6 -->
<g id="edge7" class="edge">
<title>Node1&#45;&gt;Node6</title>
<path fill="none" stroke="midnightblue" d="M124.3,-224.5C138.55,-214.53 155.61,-202.61 168.68,-193.48"/>
<polygon fill="midnightblue" stroke="midnightblue" points="170.82,-196.25 177.01,-187.65 166.81,-190.51 170.82,-196.25"/>
</g>
<!-- Node2&#45;&gt;Node3 -->
<g id="edge2" class="edge">
<title>Node2&#45;&gt;Node3</title>
<path fill="none" stroke="midnightblue" d="M61.6,-168.47C62.15,-148.66 63.91,-98.06 68.39,-56 69.32,-47.24 70.77,-37.59 72.11,-29.47"/>
<polygon fill="midnightblue" stroke="midnightblue" points="75.56,-30.04 73.8,-19.59 68.66,-28.86 75.56,-30.04"/>
</g>
<!-- Node2&#45;&gt;Node4 -->
<g id="edge3" class="edge">
<title>Node2&#45;&gt;Node4</title>
<path fill="none" stroke="midnightblue" d="M68.33,-168.08C74.32,-160.38 83.14,-149.03 90.44,-139.65"/>
<polygon fill="midnightblue" stroke="midnightblue" points="93.21,-141.79 96.59,-131.75 87.68,-137.5 93.21,-141.79"/>
</g>
<!-- Node5 -->
<g id="node5" class="node">
<title>Node5</title>
<g id="a_node5"><a xlink:href="_vec2_8h.html" target="_top" xlink:title=" ">
<polygon fill="none" stroke="black" points="77.89,-56.5 77.89,-75.5 126.89,-75.5 126.89,-56.5 77.89,-56.5"/>
<text text-anchor="middle" x="102.39" y="-63.5" font-family="Helvetica,sans-Serif" font-size="10.00">Vec2.h</text>
</a>
</g>
</g>
<!-- Node4&#45;&gt;Node5 -->
<g id="edge4" class="edge">
<title>Node4&#45;&gt;Node5</title>
<path fill="none" stroke="midnightblue" d="M103.23,-112.08C103.1,-105.01 102.91,-94.86 102.74,-85.99"/>
<polygon fill="midnightblue" stroke="midnightblue" points="106.24,-85.68 102.55,-75.75 99.24,-85.81 106.24,-85.68"/>
</g>
<!-- Node5&#45;&gt;Node3 -->
<g id="edge5" class="edge">
<title>Node5&#45;&gt;Node3</title>
<path fill="none" stroke="midnightblue" d="M97.93,-56.08C94.24,-48.69 88.87,-37.95 84.3,-28.81"/>
<polygon fill="midnightblue" stroke="midnightblue" points="87.37,-27.13 79.77,-19.75 81.11,-30.26 87.37,-27.13"/>
</g>
<!-- Node6&#45;&gt;Node3 -->
<g id="edge8" class="edge">
<title>Node6&#45;&gt;Node3</title>
<path fill="none" stroke="midnightblue" d="M187.15,-168.28C181.41,-147.2 164.52,-92.5 135.39,-56 125.55,-43.67 111.59,-32.94 99.61,-25.05"/>
<polygon fill="midnightblue" stroke="midnightblue" points="101.27,-21.95 90.94,-19.59 97.54,-27.88 101.27,-21.95"/>
</g>
<!-- Node6&#45;&gt;Node4 -->
<g id="edge10" class="edge">
<title>Node6&#45;&gt;Node4</title>
<path fill="none" stroke="midnightblue" d="M175.57,-168.32C162.16,-159.9 141.57,-146.97 125.81,-137.07"/>
<polygon fill="midnightblue" stroke="midnightblue" points="127.51,-134.01 117.18,-131.65 123.78,-139.94 127.51,-134.01"/>
</g>
<!-- Node7 -->
<g id="node7" class="node">
<title>Node7</title>
<g id="a_node7"><a xlink:title=" ">
<polygon fill="none" stroke="#bfbfbf" points="186.39,-112.5 186.39,-131.5 218.39,-131.5 218.39,-112.5 186.39,-112.5"/>
<text text-anchor="middle" x="202.39" y="-119.5" font-family="Helvetica,sans-Serif" font-size="10.00">list</text>
</a>
</g>
</g>
<!-- Node6&#45;&gt;Node7 -->
<g id="edge9" class="edge">
<title>Node6&#45;&gt;Node7</title>
<path fill="none" stroke="midnightblue" d="M191.54,-168.08C193.26,-160.93 195.74,-150.64 197.89,-141.69"/>
<polygon fill="midnightblue" stroke="midnightblue" points="201.35,-142.29 200.29,-131.75 194.54,-140.65 201.35,-142.29"/>
</g>
<!-- Node8 -->
<g id="node8" class="node">
<title>Node8</title>
<g id="a_node8"><a xlink:href="_map_8h.html" target="_top" xlink:title=" ">
<polygon fill="none" stroke="black" points="236.89,-112.5 236.89,-131.5 283.89,-131.5 283.89,-112.5 236.89,-112.5"/>
<text text-anchor="middle" x="260.39" y="-119.5" font-family="Helvetica,sans-Serif" font-size="10.00">Map.h</text>
</a>
</g>
</g>
<!-- Node6&#45;&gt;Node8 -->
<g id="edge11" class="edge">
<title>Node6&#45;&gt;Node8</title>
<path fill="none" stroke="midnightblue" d="M200.8,-168.32C211.5,-160.18 227.73,-147.84 240.55,-138.09"/>
<polygon fill="midnightblue" stroke="midnightblue" points="242.94,-140.67 248.78,-131.83 238.7,-135.1 242.94,-140.67"/>
</g>
</g>
</svg>
