<?xml version="1.0" encoding="UTF-8" standalone="no"?>
<!DOCTYPE svg PUBLIC "-//W3C//DTD SVG 1.1//EN"
 "http://www.w3.org/Graphics/SVG/1.1/DTD/svg11.dtd">
<!-- Generated by graphviz version 2.43.0 (0)
 -->
<!-- Title: src/core/TowerArcher.cpp Pages: 1 -->
<svg width="145pt" height="252pt"
 viewBox="0.00 0.00 145.00 252.00" xmlns="http://www.w3.org/2000/svg" xmlns:xlink="http://www.w3.org/1999/xlink">
<g id="graph0" class="graph" transform="scale(1 1) rotate(0) translate(4 248)">
<title>src/core/TowerArcher.cpp</title>
<!-- Node1 -->
<g id="node1" class="node">
<title>Node1</title>
<g id="a_node1"><a xlink:title=" ">
<polygon fill="#bfbfbf" stroke="black" points="0,-224.5 0,-243.5 137,-243.5 137,-224.5 0,-224.5"/>
<text text-anchor="middle" x="68.5" y="-231.5" font-family="Helvetica,sans-Serif" font-size="10.00">src/core/TowerArcher.cpp</text>
</a>
</g>
</g>
<!-- Node2 -->
<g id="node2" class="node">
<title>Node2</title>
<g id="a_node2"><a xlink:href="_tower_archer_8h.html" target="_top" xlink:title="Définition des donées membres et des fonctions membres de la classe TowerArcher.">
<polygon fill="none" stroke="black" points="26,-168.5 26,-187.5 111,-187.5 111,-168.5 26,-168.5"/>
<text text-anchor="middle" x="68.5" y="-175.5" font-family="Helvetica,sans-Serif" font-size="10.00">TowerArcher.h</text>
</a>
</g>
</g>
<!-- Node1&#45;&gt;Node2 -->
<g id="edge1" class="edge">
<title>Node1&#45;&gt;Node2</title>
<path fill="none" stroke="midnightblue" d="M68.5,-224.08C68.5,-217.01 68.5,-206.86 68.5,-197.99"/>
<polygon fill="midnightblue" stroke="midnightblue" points="72,-197.75 68.5,-187.75 65,-197.75 72,-197.75"/>
</g>
<!-- Node3 -->
<g id="node3" class="node">
<title>Node3</title>
<g id="a_node3"><a xlink:href="_tower_8h.html" target="_top" xlink:title=" ">
<polygon fill="none" stroke="black" points="42,-112.5 42,-131.5 95,-131.5 95,-112.5 42,-112.5"/>
<text text-anchor="middle" x="68.5" y="-119.5" font-family="Helvetica,sans-Serif" font-size="10.00">Tower.h</text>
</a>
</g>
</g>
<!-- Node2&#45;&gt;Node3 -->
<g id="edge2" class="edge">
<title>Node2&#45;&gt;Node3</title>
<path fill="none" stroke="midnightblue" d="M68.5,-168.08C68.5,-161.01 68.5,-150.86 68.5,-141.99"/>
<polygon fill="midnightblue" stroke="midnightblue" points="72,-141.75 68.5,-131.75 65,-141.75 72,-141.75"/>
</g>
<!-- Node4 -->
<g id="node4" class="node">
<title>Node4</title>
<g id="a_node4"><a xlink:href="_entity_8h.html" target="_top" xlink:title="Définition des donées membres et des fonctions membres de la classe Entity.">
<polygon fill="none" stroke="black" points="42,-56.5 42,-75.5 95,-75.5 95,-56.5 42,-56.5"/>
<text text-anchor="middle" x="68.5" y="-63.5" font-family="Helvetica,sans-Serif" font-size="10.00">Entity.h</text>
</a>
</g>
</g>
<!-- Node3&#45;&gt;Node4 -->
<g id="edge3" class="edge">
<title>Node3&#45;&gt;Node4</title>
<path fill="none" stroke="midnightblue" d="M68.5,-112.08C68.5,-105.01 68.5,-94.86 68.5,-85.99"/>
<polygon fill="midnightblue" stroke="midnightblue" points="72,-85.75 68.5,-75.75 65,-85.75 72,-85.75"/>
</g>
<!-- Node5 -->
<g id="node5" class="node">
<title>Node5</title>
<g id="a_node5"><a xlink:title=" ">
<polygon fill="none" stroke="#bfbfbf" points="13.5,-0.5 13.5,-19.5 123.5,-19.5 123.5,-0.5 13.5,-0.5"/>
<text text-anchor="middle" x="68.5" y="-7.5" font-family="Helvetica,sans-Serif" font-size="10.00">../SDL2/EntitySDL.h</text>
</a>
</g>
</g>
<!-- Node4&#45;&gt;Node5 -->
<g id="edge4" class="edge">
<title>Node4&#45;&gt;Node5</title>
<path fill="none" stroke="midnightblue" d="M68.5,-56.08C68.5,-49.01 68.5,-38.86 68.5,-29.99"/>
<polygon fill="midnightblue" stroke="midnightblue" points="72,-29.75 68.5,-19.75 65,-29.75 72,-29.75"/>
</g>
</g>
</svg>
