<?xml version="1.0" encoding="UTF-8" standalone="no"?>
<!DOCTYPE svg PUBLIC "-//W3C//DTD SVG 1.1//EN"
 "http://www.w3.org/Graphics/SVG/1.1/DTD/svg11.dtd">
<!-- Generated by graphviz version 2.43.0 (0)
 -->
<!-- Title: src/core/TowerBomb.h Pages: 1 -->
<svg width="268pt" height="84pt"
 viewBox="0.00 0.00 268.00 84.00" xmlns="http://www.w3.org/2000/svg" xmlns:xlink="http://www.w3.org/1999/xlink">
<g id="graph0" class="graph" transform="scale(1 1) rotate(0) translate(4 80)">
<title>src/core/TowerBomb.h</title>
<!-- Node1 -->
<g id="node1" class="node">
<title>Node1</title>
<g id="a_node1"><a xlink:title="Définition des donées membres et des fonctions membres de la class TowerBomb.">
<polygon fill="#bfbfbf" stroke="black" points="60.5,-56.5 60.5,-75.5 184.5,-75.5 184.5,-56.5 60.5,-56.5"/>
<text text-anchor="middle" x="122.5" y="-63.5" font-family="Helvetica,sans-Serif" font-size="10.00">src/core/TowerBomb.h</text>
</a>
</g>
</g>
<!-- Node2 -->
<g id="node2" class="node">
<title>Node2</title>
<g id="a_node2"><a xlink:href="_game_8cpp.html" target="_top" xlink:title=" ">
<polygon fill="none" stroke="black" points="0,-0.5 0,-19.5 107,-19.5 107,-0.5 0,-0.5"/>
<text text-anchor="middle" x="53.5" y="-7.5" font-family="Helvetica,sans-Serif" font-size="10.00">src/core/Game.cpp</text>
</a>
</g>
</g>
<!-- Node1&#45;&gt;Node2 -->
<g id="edge1" class="edge">
<title>Node1&#45;&gt;Node2</title>
<path fill="none" stroke="midnightblue" d="M103.46,-50.1C91.04,-40.38 75.26,-28.03 64.79,-19.83"/>
<polygon fill="midnightblue" stroke="midnightblue" points="101.38,-52.92 111.41,-56.32 105.7,-47.4 101.38,-52.92"/>
</g>
<!-- Node3 -->
<g id="node3" class="node">
<title>Node3</title>
<g id="a_node3"><a xlink:href="_tower_bomb_8cpp.html" target="_top" xlink:title=" ">
<polygon fill="none" stroke="black" points="125,-0.5 125,-19.5 260,-19.5 260,-0.5 125,-0.5"/>
<text text-anchor="middle" x="192.5" y="-7.5" font-family="Helvetica,sans-Serif" font-size="10.00">src/core/TowerBomb.cpp</text>
</a>
</g>
</g>
<!-- Node1&#45;&gt;Node3 -->
<g id="edge2" class="edge">
<title>Node1&#45;&gt;Node3</title>
<path fill="none" stroke="midnightblue" d="M141.81,-50.1C154.41,-40.38 170.43,-28.03 181.05,-19.83"/>
<polygon fill="midnightblue" stroke="midnightblue" points="139.53,-47.44 133.75,-56.32 143.8,-52.99 139.53,-47.44"/>
</g>
</g>
</svg>
