<?xml version="1.0" encoding="UTF-8" standalone="no"?>
<!DOCTYPE svg PUBLIC "-//W3C//DTD SVG 1.1//EN"
 "http://www.w3.org/Graphics/SVG/1.1/DTD/svg11.dtd">
<!-- Generated by graphviz version 2.43.0 (0)
 -->
<!-- Title: src/core/TowerMagic.cpp Pages: 1 -->
<svg width="156pt" height="140pt"
 viewBox="0.00 0.00 155.50 140.00" xmlns="http://www.w3.org/2000/svg" xmlns:xlink="http://www.w3.org/1999/xlink">
<g id="graph0" class="graph" transform="scale(1 1) rotate(0) translate(4 136)">
<title>src/core/TowerMagic.cpp</title>
<!-- Node1 -->
<g id="node1" class="node">
<title>Node1</title>
<g id="a_node1"><a xlink:title=" ">
<polygon fill="#bfbfbf" stroke="black" points="0,-112.5 0,-131.5 136,-131.5 136,-112.5 0,-112.5"/>
<text text-anchor="middle" x="68" y="-119.5" font-family="Helvetica,sans-Serif" font-size="10.00">src/core/TowerMagic.cpp</text>
</a>
</g>
</g>
<!-- Node2 -->
<g id="node2" class="node">
<title>Node2</title>
<g id="a_node2"><a xlink:href="_tower_magic_8h.html" target="_top" xlink:title=" ">
<polygon fill="none" stroke="black" points="26.5,-56.5 26.5,-75.5 109.5,-75.5 109.5,-56.5 26.5,-56.5"/>
<text text-anchor="middle" x="68" y="-63.5" font-family="Helvetica,sans-Serif" font-size="10.00">TowerMagic.h</text>
</a>
</g>
</g>
<!-- Node1&#45;&gt;Node2 -->
<g id="edge1" class="edge">
<title>Node1&#45;&gt;Node2</title>
<path fill="none" stroke="midnightblue" d="M68,-112.08C68,-105.01 68,-94.86 68,-85.99"/>
<polygon fill="midnightblue" stroke="midnightblue" points="71.5,-85.75 68,-75.75 64.5,-85.75 71.5,-85.75"/>
</g>
<!-- Node3 -->
<g id="node3" class="node">
<title>Node3</title>
<g id="a_node3"><a xlink:title=" ">
<polygon fill="none" stroke="#bfbfbf" points="0,-0.5 0,-19.5 60,-19.5 60,-0.5 0,-0.5"/>
<text text-anchor="middle" x="30" y="-7.5" font-family="Helvetica,sans-Serif" font-size="10.00">iostream</text>
</a>
</g>
</g>
<!-- Node1&#45;&gt;Node3 -->
<g id="edge5" class="edge">
<title>Node1&#45;&gt;Node3</title>
<path fill="none" stroke="midnightblue" d="M52.27,-112.24C40.11,-104.48 24.19,-91.93 17,-76 10.21,-60.95 15.11,-42.36 20.73,-28.92"/>
<polygon fill="midnightblue" stroke="midnightblue" points="23.94,-30.33 24.99,-19.79 17.59,-27.38 23.94,-30.33"/>
</g>
<!-- Node4 -->
<g id="node4" class="node">
<title>Node4</title>
<g id="a_node4"><a xlink:href="_entity_8h.html" target="_top" xlink:title="Définition des donées membres et des fonctions membres de la classe Entity.">
<polygon fill="none" stroke="black" points="94.5,-0.5 94.5,-19.5 147.5,-19.5 147.5,-0.5 94.5,-0.5"/>
<text text-anchor="middle" x="121" y="-7.5" font-family="Helvetica,sans-Serif" font-size="10.00">Entity.h</text>
</a>
</g>
</g>
<!-- Node1&#45;&gt;Node4 -->
<g id="edge4" class="edge">
<title>Node1&#45;&gt;Node4</title>
<path fill="none" stroke="midnightblue" d="M83.12,-112.49C95.25,-104.72 111.47,-92.03 119,-76 125.75,-61.63 125.69,-43.43 124.26,-29.95"/>
<polygon fill="midnightblue" stroke="midnightblue" points="127.71,-29.34 122.86,-19.92 120.78,-30.31 127.71,-29.34"/>
</g>
<!-- Node2&#45;&gt;Node3 -->
<g id="edge2" class="edge">
<title>Node2&#45;&gt;Node3</title>
<path fill="none" stroke="midnightblue" d="M61.73,-56.08C56.36,-48.46 48.48,-37.26 41.92,-27.94"/>
<polygon fill="midnightblue" stroke="midnightblue" points="44.78,-25.91 36.16,-19.75 39.05,-29.94 44.78,-25.91"/>
</g>
<!-- Node2&#45;&gt;Node4 -->
<g id="edge3" class="edge">
<title>Node2&#45;&gt;Node4</title>
<path fill="none" stroke="midnightblue" d="M76.75,-56.08C84.47,-48.22 95.9,-36.57 105.22,-27.08"/>
<polygon fill="midnightblue" stroke="midnightblue" points="107.9,-29.34 112.41,-19.75 102.91,-24.44 107.9,-29.34"/>
</g>
</g>
</svg>
