<?xml version="1.0" encoding="UTF-8" standalone="no"?>
<!DOCTYPE svg PUBLIC "-//W3C//DTD SVG 1.1//EN"
 "http://www.w3.org/Graphics/SVG/1.1/DTD/svg11.dtd">
<!-- Generated by graphviz version 2.43.0 (0)
 -->
<!-- Title: src/core/TowerBomb.cpp Pages: 1 -->
<svg width="143pt" height="252pt"
 viewBox="0.00 0.00 143.00 252.00" xmlns="http://www.w3.org/2000/svg" xmlns:xlink="http://www.w3.org/1999/xlink">
<g id="graph0" class="graph" transform="scale(1 1) rotate(0) translate(4 248)">
<title>src/core/TowerBomb.cpp</title>
<!-- Node1 -->
<g id="node1" class="node">
<title>Node1</title>
<g id="a_node1"><a xlink:title=" ">
<polygon fill="#bfbfbf" stroke="black" points="0,-224.5 0,-243.5 135,-243.5 135,-224.5 0,-224.5"/>
<text text-anchor="middle" x="67.5" y="-231.5" font-family="Helvetica,sans-Serif" font-size="10.00">src/core/TowerBomb.cpp</text>
</a>
</g>
</g>
<!-- Node2 -->
<g id="node2" class="node">
<title>Node2</title>
<g id="a_node2"><a xlink:href="_tower_bomb_8h.html" target="_top" xlink:title="Définition des donées membres et des fonctions membres de la class TowerBomb.">
<polygon fill="none" stroke="black" points="26,-168.5 26,-187.5 109,-187.5 109,-168.5 26,-168.5"/>
<text text-anchor="middle" x="67.5" y="-175.5" font-family="Helvetica,sans-Serif" font-size="10.00">TowerBomb.h</text>
</a>
</g>
</g>
<!-- Node1&#45;&gt;Node2 -->
<g id="edge1" class="edge">
<title>Node1&#45;&gt;Node2</title>
<path fill="none" stroke="midnightblue" d="M67.5,-224.08C67.5,-217.01 67.5,-206.86 67.5,-197.99"/>
<polygon fill="midnightblue" stroke="midnightblue" points="71,-197.75 67.5,-187.75 64,-197.75 71,-197.75"/>
</g>
<!-- Node3 -->
<g id="node3" class="node">
<title>Node3</title>
<g id="a_node3"><a xlink:href="_tower_8h.html" target="_top" xlink:title=" ">
<polygon fill="none" stroke="black" points="41,-112.5 41,-131.5 94,-131.5 94,-112.5 41,-112.5"/>
<text text-anchor="middle" x="67.5" y="-119.5" font-family="Helvetica,sans-Serif" font-size="10.00">Tower.h</text>
</a>
</g>
</g>
<!-- Node2&#45;&gt;Node3 -->
<g id="edge2" class="edge">
<title>Node2&#45;&gt;Node3</title>
<path fill="none" stroke="midnightblue" d="M67.5,-168.08C67.5,-161.01 67.5,-150.86 67.5,-141.99"/>
<polygon fill="midnightblue" stroke="midnightblue" points="71,-141.75 67.5,-131.75 64,-141.75 71,-141.75"/>
</g>
<!-- Node4 -->
<g id="node4" class="node">
<title>Node4</title>
<g id="a_node4"><a xlink:href="_entity_8h.html" target="_top" xlink:title="Définition des donées membres et des fonctions membres de la classe Entity.">
<polygon fill="none" stroke="black" points="41,-56.5 41,-75.5 94,-75.5 94,-56.5 41,-56.5"/>
<text text-anchor="middle" x="67.5" y="-63.5" font-family="Helvetica,sans-Serif" font-size="10.00">Entity.h</text>
</a>
</g>
</g>
<!-- Node3&#45;&gt;Node4 -->
<g id="edge3" class="edge">
<title>Node3&#45;&gt;Node4</title>
<path fill="none" stroke="midnightblue" d="M67.5,-112.08C67.5,-105.01 67.5,-94.86 67.5,-85.99"/>
<polygon fill="midnightblue" stroke="midnightblue" points="71,-85.75 67.5,-75.75 64,-85.75 71,-85.75"/>
</g>
<!-- Node5 -->
<g id="node5" class="node">
<title>Node5</title>
<g id="a_node5"><a xlink:title=" ">
<polygon fill="none" stroke="#bfbfbf" points="12.5,-0.5 12.5,-19.5 122.5,-19.5 122.5,-0.5 12.5,-0.5"/>
<text text-anchor="middle" x="67.5" y="-7.5" font-family="Helvetica,sans-Serif" font-size="10.00">../SDL2/EntitySDL.h</text>
</a>
</g>
</g>
<!-- Node4&#45;&gt;Node5 -->
<g id="edge4" class="edge">
<title>Node4&#45;&gt;Node5</title>
<path fill="none" stroke="midnightblue" d="M67.5,-56.08C67.5,-49.01 67.5,-38.86 67.5,-29.99"/>
<polygon fill="midnightblue" stroke="midnightblue" points="71,-29.75 67.5,-19.75 64,-29.75 71,-29.75"/>
</g>
</g>
</svg>
