<?xml version="1.0" encoding="UTF-8" standalone="no"?>
<!DOCTYPE svg PUBLIC "-//W3C//DTD SVG 1.1//EN"
 "http://www.w3.org/Graphics/SVG/1.1/DTD/svg11.dtd">
<!-- Generated by graphviz version 2.43.0 (0)
 -->
<!-- Title: src/core/TowerMagic.h Pages: 1 -->
<svg width="270pt" height="84pt"
 viewBox="0.00 0.00 269.50 84.00" xmlns="http://www.w3.org/2000/svg" xmlns:xlink="http://www.w3.org/1999/xlink">
<g id="graph0" class="graph" transform="scale(1 1) rotate(0) translate(4 80)">
<title>src/core/TowerMagic.h</title>
<!-- Node1 -->
<g id="node1" class="node">
<title>Node1</title>
<g id="a_node1"><a xlink:title="Définition des donées membres et des fonctions membres de la classe TowerMagic.">
<polygon fill="#bfbfbf" stroke="black" points="61,-56.5 61,-75.5 186,-75.5 186,-56.5 61,-56.5"/>
<text text-anchor="middle" x="123.5" y="-63.5" font-family="Helvetica,sans-Serif" font-size="10.00">src/core/TowerMagic.h</text>
</a>
</g>
</g>
<!-- Node2 -->
<g id="node2" class="node">
<title>Node2</title>
<g id="a_node2"><a xlink:href="_game_8cpp.html" target="_top" xlink:title=" ">
<polygon fill="none" stroke="black" points="0,-0.5 0,-19.5 107,-19.5 107,-0.5 0,-0.5"/>
<text text-anchor="middle" x="53.5" y="-7.5" font-family="Helvetica,sans-Serif" font-size="10.00">src/core/Game.cpp</text>
</a>
</g>
</g>
<!-- Node1&#45;&gt;Node2 -->
<g id="edge1" class="edge">
<title>Node1&#45;&gt;Node2</title>
<path fill="none" stroke="midnightblue" d="M104.19,-50.1C91.59,-40.38 75.57,-28.03 64.95,-19.83"/>
<polygon fill="midnightblue" stroke="midnightblue" points="102.2,-52.99 112.25,-56.32 106.47,-47.44 102.2,-52.99"/>
</g>
<!-- Node3 -->
<g id="node3" class="node">
<title>Node3</title>
<g id="a_node3"><a xlink:href="_tower_magic_8cpp.html" target="_top" xlink:title=" ">
<polygon fill="none" stroke="black" points="125.5,-0.5 125.5,-19.5 261.5,-19.5 261.5,-0.5 125.5,-0.5"/>
<text text-anchor="middle" x="193.5" y="-7.5" font-family="Helvetica,sans-Serif" font-size="10.00">src/core/TowerMagic.cpp</text>
</a>
</g>
</g>
<!-- Node1&#45;&gt;Node3 -->
<g id="edge2" class="edge">
<title>Node1&#45;&gt;Node3</title>
<path fill="none" stroke="midnightblue" d="M142.81,-50.1C155.41,-40.38 171.43,-28.03 182.05,-19.83"/>
<polygon fill="midnightblue" stroke="midnightblue" points="140.53,-47.44 134.75,-56.32 144.8,-52.99 140.53,-47.44"/>
</g>
</g>
</svg>
