<?xml version="1.0" encoding="UTF-8" standalone="no"?>
<!DOCTYPE svg PUBLIC "-//W3C//DTD SVG 1.1//EN"
 "http://www.w3.org/Graphics/SVG/1.1/DTD/svg11.dtd">
<!-- Generated by graphviz version 2.43.0 (0)
 -->
<!-- Title: /home/allan/Licence2_Informatique/ProjetLIFAP4/src/core/TowerArcher.h Pages: 1 -->
<svg width="536pt" height="362pt"
 viewBox="0.00 0.00 536.00 362.00" xmlns="http://www.w3.org/2000/svg" xmlns:xlink="http://www.w3.org/1999/xlink">
<g id="graph0" class="graph" transform="scale(1 1) rotate(0) translate(4 358)">
<title>/home/allan/Licence2_Informatique/ProjetLIFAP4/src/core/TowerArcher.h</title>
<!-- Node1 -->
<g id="node1" class="node">
<title>Node1</title>
<g id="a_node1"><a xlink:title=" ">
<polygon fill="#bfbfbf" stroke="black" points="227,-312.5 227,-353.5 375,-353.5 375,-312.5 227,-312.5"/>
<text text-anchor="start" x="235" y="-341.5" font-family="Helvetica,sans-Serif" font-size="10.00">/home/allan/Licence2</text>
<text text-anchor="start" x="235" y="-330.5" font-family="Helvetica,sans-Serif" font-size="10.00">_Informatique/ProjetLIFAP4</text>
<text text-anchor="middle" x="301" y="-319.5" font-family="Helvetica,sans-Serif" font-size="10.00">/src/core/TowerArcher.h</text>
</a>
</g>
</g>
<!-- Node2 -->
<g id="node2" class="node">
<title>Node2</title>
<g id="a_node2"><a xlink:href="_game_8h.html" target="_top" xlink:title=" ">
<polygon fill="none" stroke="black" points="83,-156.5 83,-197.5 231,-197.5 231,-156.5 83,-156.5"/>
<text text-anchor="start" x="91" y="-185.5" font-family="Helvetica,sans-Serif" font-size="10.00">/home/allan/Licence2</text>
<text text-anchor="start" x="91" y="-174.5" font-family="Helvetica,sans-Serif" font-size="10.00">_Informatique/ProjetLIFAP4</text>
<text text-anchor="middle" x="157" y="-163.5" font-family="Helvetica,sans-Serif" font-size="10.00">/src/core/Game.h</text>
</a>
</g>
</g>
<!-- Node1&#45;&gt;Node2 -->
<g id="edge1" class="edge">
<title>Node1&#45;&gt;Node2</title>
<path fill="none" stroke="midnightblue" d="M217.16,-312.85C197.91,-304.58 179.46,-292.79 167,-276 150.19,-253.34 150.89,-219.18 153.52,-197.75"/>
<polygon fill="midnightblue" stroke="midnightblue" points="216.06,-316.18 226.65,-316.63 218.66,-309.68 216.06,-316.18"/>
</g>
<!-- Node7 -->
<g id="node7" class="node">
<title>Node7</title>
<g id="a_node7"><a xlink:href="_projectile_8cpp.html" target="_top" xlink:title=" ">
<polygon fill="none" stroke="black" points="268,-156.5 268,-197.5 416,-197.5 416,-156.5 268,-156.5"/>
<text text-anchor="start" x="276" y="-185.5" font-family="Helvetica,sans-Serif" font-size="10.00">/home/allan/Licence2</text>
<text text-anchor="start" x="276" y="-174.5" font-family="Helvetica,sans-Serif" font-size="10.00">_Informatique/ProjetLIFAP4</text>
<text text-anchor="middle" x="342" y="-163.5" font-family="Helvetica,sans-Serif" font-size="10.00">/src/core/Projectile.cpp</text>
</a>
</g>
</g>
<!-- Node1&#45;&gt;Node7 -->
<g id="edge6" class="edge">
<title>Node1&#45;&gt;Node7</title>
<path fill="none" stroke="midnightblue" d="M320.28,-303.69C325.24,-295.14 330.01,-285.49 333,-276 341.27,-249.76 342.7,-217.77 342.62,-197.63"/>
<polygon fill="midnightblue" stroke="midnightblue" points="317.14,-302.13 314.91,-312.49 323.11,-305.78 317.14,-302.13"/>
</g>
<!-- Node8 -->
<g id="node8" class="node">
<title>Node8</title>
<g id="a_node8"><a xlink:href="_projectile_8h.html" target="_top" xlink:title=" ">
<polygon fill="none" stroke="black" points="176,-234.5 176,-275.5 324,-275.5 324,-234.5 176,-234.5"/>
<text text-anchor="start" x="184" y="-263.5" font-family="Helvetica,sans-Serif" font-size="10.00">/home/allan/Licence2</text>
<text text-anchor="start" x="184" y="-252.5" font-family="Helvetica,sans-Serif" font-size="10.00">_Informatique/ProjetLIFAP4</text>
<text text-anchor="middle" x="250" y="-241.5" font-family="Helvetica,sans-Serif" font-size="10.00">/src/core/Projectile.h</text>
</a>
</g>
</g>
<!-- Node1&#45;&gt;Node8 -->
<g id="edge7" class="edge">
<title>Node1&#45;&gt;Node8</title>
<path fill="none" stroke="midnightblue" d="M282.24,-304.05C275.88,-294.57 268.91,-284.18 263.09,-275.51"/>
<polygon fill="midnightblue" stroke="midnightblue" points="279.39,-306.07 287.87,-312.43 285.2,-302.17 279.39,-306.07"/>
</g>
<!-- Node9 -->
<g id="node9" class="node">
<title>Node9</title>
<g id="a_node9"><a xlink:href="_tower_archer_8cpp.html" target="_top" xlink:title=" ">
<polygon fill="none" stroke="black" points="380,-234.5 380,-275.5 528,-275.5 528,-234.5 380,-234.5"/>
<text text-anchor="start" x="388" y="-263.5" font-family="Helvetica,sans-Serif" font-size="10.00">/home/allan/Licence2</text>
<text text-anchor="start" x="388" y="-252.5" font-family="Helvetica,sans-Serif" font-size="10.00">_Informatique/ProjetLIFAP4</text>
<text text-anchor="middle" x="454" y="-241.5" font-family="Helvetica,sans-Serif" font-size="10.00">/src/core/TowerArcher.cpp</text>
</a>
</g>
</g>
<!-- Node1&#45;&gt;Node9 -->
<g id="edge10" class="edge">
<title>Node1&#45;&gt;Node9</title>
<path fill="none" stroke="midnightblue" d="M349.5,-307.91C370.54,-297.46 394.85,-285.38 414.73,-275.51"/>
<polygon fill="midnightblue" stroke="midnightblue" points="347.8,-304.84 340.4,-312.43 350.91,-311.11 347.8,-304.84"/>
</g>
<!-- Node3 -->
<g id="node3" class="node">
<title>Node3</title>
<g id="a_node3"><a xlink:href="_game_8cpp.html" target="_top" xlink:title=" ">
<polygon fill="none" stroke="black" points="0,-78.5 0,-119.5 148,-119.5 148,-78.5 0,-78.5"/>
<text text-anchor="start" x="8" y="-107.5" font-family="Helvetica,sans-Serif" font-size="10.00">/home/allan/Licence2</text>
<text text-anchor="start" x="8" y="-96.5" font-family="Helvetica,sans-Serif" font-size="10.00">_Informatique/ProjetLIFAP4</text>
<text text-anchor="middle" x="74" y="-85.5" font-family="Helvetica,sans-Serif" font-size="10.00">/src/core/Game.cpp</text>
</a>
</g>
</g>
<!-- Node2&#45;&gt;Node3 -->
<g id="edge2" class="edge">
<title>Node2&#45;&gt;Node3</title>
<path fill="none" stroke="midnightblue" d="M128.05,-149.49C117.28,-139.63 105.26,-128.63 95.3,-119.51"/>
<polygon fill="midnightblue" stroke="midnightblue" points="125.89,-152.26 135.63,-156.43 130.61,-147.09 125.89,-152.26"/>
</g>
<!-- Node4 -->
<g id="node4" class="node">
<title>Node4</title>
<g id="a_node4"><a xlink:href="_game_t_x_t_8h.html" target="_top" xlink:title=" ">
<polygon fill="none" stroke="black" points="166,-78.5 166,-119.5 314,-119.5 314,-78.5 166,-78.5"/>
<text text-anchor="start" x="174" y="-107.5" font-family="Helvetica,sans-Serif" font-size="10.00">/home/allan/Licence2</text>
<text text-anchor="start" x="174" y="-96.5" font-family="Helvetica,sans-Serif" font-size="10.00">_Informatique/ProjetLIFAP4</text>
<text text-anchor="middle" x="240" y="-85.5" font-family="Helvetica,sans-Serif" font-size="10.00">/src/txt/GameTXT.h</text>
</a>
</g>
</g>
<!-- Node2&#45;&gt;Node4 -->
<g id="edge3" class="edge">
<title>Node2&#45;&gt;Node4</title>
<path fill="none" stroke="midnightblue" d="M185.95,-149.49C196.72,-139.63 208.74,-128.63 218.7,-119.51"/>
<polygon fill="midnightblue" stroke="midnightblue" points="183.39,-147.09 178.37,-156.43 188.11,-152.26 183.39,-147.09"/>
</g>
<!-- Node5 -->
<g id="node5" class="node">
<title>Node5</title>
<g id="a_node5"><a xlink:href="_game_t_x_t_8cpp.html" target="_top" xlink:title=" ">
<polygon fill="none" stroke="black" points="83,-0.5 83,-41.5 231,-41.5 231,-0.5 83,-0.5"/>
<text text-anchor="start" x="91" y="-29.5" font-family="Helvetica,sans-Serif" font-size="10.00">/home/allan/Licence2</text>
<text text-anchor="start" x="91" y="-18.5" font-family="Helvetica,sans-Serif" font-size="10.00">_Informatique/ProjetLIFAP4</text>
<text text-anchor="middle" x="157" y="-7.5" font-family="Helvetica,sans-Serif" font-size="10.00">/src/txt/GameTXT.cpp</text>
</a>
</g>
</g>
<!-- Node4&#45;&gt;Node5 -->
<g id="edge4" class="edge">
<title>Node4&#45;&gt;Node5</title>
<path fill="none" stroke="midnightblue" d="M211.05,-71.49C200.28,-61.63 188.26,-50.63 178.3,-41.51"/>
<polygon fill="midnightblue" stroke="midnightblue" points="208.89,-74.26 218.63,-78.43 213.61,-69.09 208.89,-74.26"/>
</g>
<!-- Node6 -->
<g id="node6" class="node">
<title>Node6</title>
<g id="a_node6"><a xlink:href="main_t_x_t_8cpp.html" target="_top" xlink:title=" ">
<polygon fill="none" stroke="black" points="249,-0.5 249,-41.5 397,-41.5 397,-0.5 249,-0.5"/>
<text text-anchor="start" x="257" y="-29.5" font-family="Helvetica,sans-Serif" font-size="10.00">/home/allan/Licence2</text>
<text text-anchor="start" x="257" y="-18.5" font-family="Helvetica,sans-Serif" font-size="10.00">_Informatique/ProjetLIFAP4</text>
<text text-anchor="middle" x="323" y="-7.5" font-family="Helvetica,sans-Serif" font-size="10.00">/src/txt/mainTXT.cpp</text>
</a>
</g>
</g>
<!-- Node4&#45;&gt;Node6 -->
<g id="edge5" class="edge">
<title>Node4&#45;&gt;Node6</title>
<path fill="none" stroke="midnightblue" d="M268.95,-71.49C279.72,-61.63 291.74,-50.63 301.7,-41.51"/>
<polygon fill="midnightblue" stroke="midnightblue" points="266.39,-69.09 261.37,-78.43 271.11,-74.26 266.39,-69.09"/>
</g>
<!-- Node8&#45;&gt;Node2 -->
<g id="edge8" class="edge">
<title>Node8&#45;&gt;Node2</title>
<path fill="none" stroke="midnightblue" d="M218.26,-228.06C206.02,-218.06 192.25,-206.8 180.87,-197.51"/>
<polygon fill="midnightblue" stroke="midnightblue" points="216.09,-230.81 226.05,-234.43 220.52,-225.39 216.09,-230.81"/>
</g>
<!-- Node8&#45;&gt;Node7 -->
<g id="edge9" class="edge">
<title>Node8&#45;&gt;Node7</title>
<path fill="none" stroke="midnightblue" d="M281.74,-227.78C293.77,-217.84 307.24,-206.72 318.39,-197.51"/>
<polygon fill="midnightblue" stroke="midnightblue" points="279.17,-225.36 273.69,-234.43 283.63,-230.76 279.17,-225.36"/>
</g>
</g>
</svg>
