<?xml version="1.0" encoding="UTF-8" standalone="no"?>
<!DOCTYPE svg PUBLIC "-//W3C//DTD SVG 1.1//EN"
 "http://www.w3.org/Graphics/SVG/1.1/DTD/svg11.dtd">
<!-- Generated by graphviz version 2.43.0 (0)
 -->
<!-- Title: src/core/TowerBomb.h Pages: 1 -->
<svg width="132pt" height="196pt"
 viewBox="0.00 0.00 132.00 196.00" xmlns="http://www.w3.org/2000/svg" xmlns:xlink="http://www.w3.org/1999/xlink">
<g id="graph0" class="graph" transform="scale(1 1) rotate(0) translate(4 192)">
<title>src/core/TowerBomb.h</title>
<!-- Node1 -->
<g id="node1" class="node">
<title>Node1</title>
<g id="a_node1"><a xlink:title="Définition des donées membres et des fonctions membres de la class TowerBomb.">
<polygon fill="#bfbfbf" stroke="black" points="0,-168.5 0,-187.5 124,-187.5 124,-168.5 0,-168.5"/>
<text text-anchor="middle" x="62" y="-175.5" font-family="Helvetica,sans-Serif" font-size="10.00">src/core/TowerBomb.h</text>
</a>
</g>
</g>
<!-- Node2 -->
<g id="node2" class="node">
<title>Node2</title>
<g id="a_node2"><a xlink:href="_tower_8h.html" target="_top" xlink:title=" ">
<polygon fill="none" stroke="black" points="35.5,-112.5 35.5,-131.5 88.5,-131.5 88.5,-112.5 35.5,-112.5"/>
<text text-anchor="middle" x="62" y="-119.5" font-family="Helvetica,sans-Serif" font-size="10.00">Tower.h</text>
</a>
</g>
</g>
<!-- Node1&#45;&gt;Node2 -->
<g id="edge1" class="edge">
<title>Node1&#45;&gt;Node2</title>
<path fill="none" stroke="midnightblue" d="M62,-168.08C62,-161.01 62,-150.86 62,-141.99"/>
<polygon fill="midnightblue" stroke="midnightblue" points="65.5,-141.75 62,-131.75 58.5,-141.75 65.5,-141.75"/>
</g>
<!-- Node3 -->
<g id="node3" class="node">
<title>Node3</title>
<g id="a_node3"><a xlink:href="_entity_8h.html" target="_top" xlink:title="Définition des donées membres et des fonctions membres de la classe Entity.">
<polygon fill="none" stroke="black" points="35.5,-56.5 35.5,-75.5 88.5,-75.5 88.5,-56.5 35.5,-56.5"/>
<text text-anchor="middle" x="62" y="-63.5" font-family="Helvetica,sans-Serif" font-size="10.00">Entity.h</text>
</a>
</g>
</g>
<!-- Node2&#45;&gt;Node3 -->
<g id="edge2" class="edge">
<title>Node2&#45;&gt;Node3</title>
<path fill="none" stroke="midnightblue" d="M62,-112.08C62,-105.01 62,-94.86 62,-85.99"/>
<polygon fill="midnightblue" stroke="midnightblue" points="65.5,-85.75 62,-75.75 58.5,-85.75 65.5,-85.75"/>
</g>
<!-- Node4 -->
<g id="node4" class="node">
<title>Node4</title>
<g id="a_node4"><a xlink:title=" ">
<polygon fill="none" stroke="#bfbfbf" points="7,-0.5 7,-19.5 117,-19.5 117,-0.5 7,-0.5"/>
<text text-anchor="middle" x="62" y="-7.5" font-family="Helvetica,sans-Serif" font-size="10.00">../SDL2/EntitySDL.h</text>
</a>
</g>
</g>
<!-- Node3&#45;&gt;Node4 -->
<g id="edge3" class="edge">
<title>Node3&#45;&gt;Node4</title>
<path fill="none" stroke="midnightblue" d="M62,-56.08C62,-49.01 62,-38.86 62,-29.99"/>
<polygon fill="midnightblue" stroke="midnightblue" points="65.5,-29.75 62,-19.75 58.5,-29.75 65.5,-29.75"/>
</g>
</g>
</svg>
