<?xml version="1.0" encoding="UTF-8" standalone="no"?>
<!DOCTYPE svg PUBLIC "-//W3C//DTD SVG 1.1//EN"
 "http://www.w3.org/Graphics/SVG/1.1/DTD/svg11.dtd">
<!-- Generated by graphviz version 2.43.0 (0)
 -->
<!-- Title: src/core/Tower.h Pages: 1 -->
<svg width="783pt" height="140pt"
 viewBox="0.00 0.00 783.00 140.00" xmlns="http://www.w3.org/2000/svg" xmlns:xlink="http://www.w3.org/1999/xlink">
<g id="graph0" class="graph" transform="scale(1 1) rotate(0) translate(4 136)">
<title>src/core/Tower.h</title>
<!-- Node1 -->
<g id="node1" class="node">
<title>Node1</title>
<g id="a_node1"><a xlink:title=" ">
<polygon fill="#bfbfbf" stroke="black" points="334.5,-112.5 334.5,-131.5 429.5,-131.5 429.5,-112.5 334.5,-112.5"/>
<text text-anchor="middle" x="382" y="-119.5" font-family="Helvetica,sans-Serif" font-size="10.00">src/core/Tower.h</text>
</a>
</g>
</g>
<!-- Node2 -->
<g id="node2" class="node">
<title>Node2</title>
<g id="a_node2"><a xlink:href="_game_8cpp.html" target="_top" xlink:title=" ">
<polygon fill="none" stroke="black" points="360.5,-0.5 360.5,-19.5 467.5,-19.5 467.5,-0.5 360.5,-0.5"/>
<text text-anchor="middle" x="414" y="-7.5" font-family="Helvetica,sans-Serif" font-size="10.00">src/core/Game.cpp</text>
</a>
</g>
</g>
<!-- Node1&#45;&gt;Node2 -->
<g id="edge1" class="edge">
<title>Node1&#45;&gt;Node2</title>
<path fill="none" stroke="midnightblue" d="M411.1,-107.65C423.63,-100.25 437,-89.73 444,-76 454.16,-56.07 435.2,-32.03 423.05,-19.52"/>
<polygon fill="midnightblue" stroke="midnightblue" points="409.33,-104.63 402.22,-112.49 412.68,-110.78 409.33,-104.63"/>
</g>
<!-- Node3 -->
<g id="node3" class="node">
<title>Node3</title>
<g id="a_node3"><a xlink:href="_projectile_8cpp.html" target="_top" xlink:title=" ">
<polygon fill="none" stroke="black" points="0,-0.5 0,-19.5 124,-19.5 124,-0.5 0,-0.5"/>
<text text-anchor="middle" x="62" y="-7.5" font-family="Helvetica,sans-Serif" font-size="10.00">src/core/Projectile.cpp</text>
</a>
</g>
</g>
<!-- Node1&#45;&gt;Node3 -->
<g id="edge2" class="edge">
<title>Node1&#45;&gt;Node3</title>
<path fill="none" stroke="midnightblue" d="M324.19,-117.4C232.49,-111.09 62.14,-96.72 44,-76 29.81,-59.79 45.31,-33.3 55.16,-19.69"/>
<polygon fill="midnightblue" stroke="midnightblue" points="324.21,-120.91 334.43,-118.09 324.69,-113.93 324.21,-120.91"/>
</g>
<!-- Node4 -->
<g id="node4" class="node">
<title>Node4</title>
<g id="a_node4"><a xlink:href="_projectile_8h.html" target="_top" xlink:title="Définition des donées membres et des fonctions membres de la classe Projectile.">
<polygon fill="none" stroke="black" points="53.5,-56.5 53.5,-75.5 166.5,-75.5 166.5,-56.5 53.5,-56.5"/>
<text text-anchor="middle" x="110" y="-63.5" font-family="Helvetica,sans-Serif" font-size="10.00">src/core/Projectile.h</text>
</a>
</g>
</g>
<!-- Node1&#45;&gt;Node4 -->
<g id="edge3" class="edge">
<title>Node1&#45;&gt;Node4</title>
<path fill="none" stroke="midnightblue" d="M328.98,-110.47C277.57,-100.27 200.56,-84.98 152.9,-75.52"/>
<polygon fill="midnightblue" stroke="midnightblue" points="328.41,-113.93 338.9,-112.44 329.77,-107.06 328.41,-113.93"/>
</g>
<!-- Node5 -->
<g id="node5" class="node">
<title>Node5</title>
<g id="a_node5"><a xlink:href="_tower_8cpp.html" target="_top" xlink:title=" ">
<polygon fill="none" stroke="black" points="329,-56.5 329,-75.5 435,-75.5 435,-56.5 329,-56.5"/>
<text text-anchor="middle" x="382" y="-63.5" font-family="Helvetica,sans-Serif" font-size="10.00">src/core/Tower.cpp</text>
</a>
</g>
</g>
<!-- Node1&#45;&gt;Node5 -->
<g id="edge6" class="edge">
<title>Node1&#45;&gt;Node5</title>
<path fill="none" stroke="midnightblue" d="M382,-101.8C382,-92.91 382,-82.78 382,-75.75"/>
<polygon fill="midnightblue" stroke="midnightblue" points="378.5,-102.08 382,-112.08 385.5,-102.08 378.5,-102.08"/>
</g>
<!-- Node6 -->
<g id="node6" class="node">
<title>Node6</title>
<g id="a_node6"><a xlink:href="_tower_archer_8h.html" target="_top" xlink:title="Définition des donées membres et des fonctions membres de la classe TowerArcher.">
<polygon fill="none" stroke="black" points="185,-56.5 185,-75.5 311,-75.5 311,-56.5 185,-56.5"/>
<text text-anchor="middle" x="248" y="-63.5" font-family="Helvetica,sans-Serif" font-size="10.00">src/core/TowerArcher.h</text>
</a>
</g>
</g>
<!-- Node1&#45;&gt;Node6 -->
<g id="edge7" class="edge">
<title>Node1&#45;&gt;Node6</title>
<path fill="none" stroke="midnightblue" d="M351.32,-108.64C326.18,-98.5 291.25,-84.43 269.13,-75.52"/>
<polygon fill="midnightblue" stroke="midnightblue" points="350.18,-111.95 360.77,-112.44 352.8,-105.46 350.18,-111.95"/>
</g>
<!-- Node8 -->
<g id="node8" class="node">
<title>Node8</title>
<g id="a_node8"><a xlink:href="_tower_bomb_8h.html" target="_top" xlink:title="Définition des donées membres et des fonctions membres de la class TowerBomb.">
<polygon fill="none" stroke="black" points="491,-56.5 491,-75.5 615,-75.5 615,-56.5 491,-56.5"/>
<text text-anchor="middle" x="553" y="-63.5" font-family="Helvetica,sans-Serif" font-size="10.00">src/core/TowerBomb.h</text>
</a>
</g>
</g>
<!-- Node1&#45;&gt;Node8 -->
<g id="edge10" class="edge">
<title>Node1&#45;&gt;Node8</title>
<path fill="none" stroke="midnightblue" d="M419.04,-109.3C451.26,-99.13 497.19,-84.62 526.03,-75.52"/>
<polygon fill="midnightblue" stroke="midnightblue" points="417.58,-106.09 409.1,-112.44 419.69,-112.77 417.58,-106.09"/>
</g>
<!-- Node10 -->
<g id="node10" class="node">
<title>Node10</title>
<g id="a_node10"><a xlink:href="_tower_magic_8h.html" target="_top" xlink:title="Définition des donées membres et des fonctions membres de la classe TowerMagic.">
<polygon fill="none" stroke="black" points="633.5,-56.5 633.5,-75.5 758.5,-75.5 758.5,-56.5 633.5,-56.5"/>
<text text-anchor="middle" x="696" y="-63.5" font-family="Helvetica,sans-Serif" font-size="10.00">src/core/TowerMagic.h</text>
</a>
</g>
</g>
<!-- Node1&#45;&gt;Node10 -->
<g id="edge13" class="edge">
<title>Node1&#45;&gt;Node10</title>
<path fill="none" stroke="midnightblue" d="M439.65,-111.09C498.98,-100.88 590.43,-85.15 646.56,-75.5"/>
<polygon fill="midnightblue" stroke="midnightblue" points="438.95,-107.65 429.69,-112.8 440.14,-114.55 438.95,-107.65"/>
</g>
<!-- Node4&#45;&gt;Node2 -->
<g id="edge4" class="edge">
<title>Node4&#45;&gt;Node2</title>
<path fill="none" stroke="midnightblue" d="M168.19,-54.66C225.64,-44.46 312.45,-29.04 366.06,-19.52"/>
<polygon fill="midnightblue" stroke="midnightblue" points="167.4,-51.25 158.17,-56.44 168.63,-58.14 167.4,-51.25"/>
</g>
<!-- Node4&#45;&gt;Node3 -->
<g id="edge5" class="edge">
<title>Node4&#45;&gt;Node3</title>
<path fill="none" stroke="midnightblue" d="M95.27,-48.43C86.86,-38.97 76.65,-27.48 69.78,-19.75"/>
<polygon fill="midnightblue" stroke="midnightblue" points="92.81,-50.93 102.07,-56.08 98.05,-46.28 92.81,-50.93"/>
</g>
<!-- Node6&#45;&gt;Node2 -->
<g id="edge8" class="edge">
<title>Node6&#45;&gt;Node2</title>
<path fill="none" stroke="midnightblue" d="M283.95,-53.3C315.23,-43.13 359.82,-28.62 387.82,-19.52"/>
<polygon fill="midnightblue" stroke="midnightblue" points="282.73,-50.02 274.3,-56.44 284.9,-56.68 282.73,-50.02"/>
</g>
<!-- Node7 -->
<g id="node7" class="node">
<title>Node7</title>
<g id="a_node7"><a xlink:href="_tower_archer_8cpp.html" target="_top" xlink:title=" ">
<polygon fill="none" stroke="black" points="179.5,-0.5 179.5,-19.5 316.5,-19.5 316.5,-0.5 179.5,-0.5"/>
<text text-anchor="middle" x="248" y="-7.5" font-family="Helvetica,sans-Serif" font-size="10.00">src/core/TowerArcher.cpp</text>
</a>
</g>
</g>
<!-- Node6&#45;&gt;Node7 -->
<g id="edge9" class="edge">
<title>Node6&#45;&gt;Node7</title>
<path fill="none" stroke="midnightblue" d="M248,-45.8C248,-36.91 248,-26.78 248,-19.75"/>
<polygon fill="midnightblue" stroke="midnightblue" points="244.5,-46.08 248,-56.08 251.5,-46.08 244.5,-46.08"/>
</g>
<!-- Node8&#45;&gt;Node2 -->
<g id="edge11" class="edge">
<title>Node8&#45;&gt;Node2</title>
<path fill="none" stroke="midnightblue" d="M521.52,-52.77C495.41,-42.63 458.96,-28.47 435.92,-19.52"/>
<polygon fill="midnightblue" stroke="midnightblue" points="520.39,-56.08 530.98,-56.44 522.92,-49.56 520.39,-56.08"/>
</g>
<!-- Node9 -->
<g id="node9" class="node">
<title>Node9</title>
<g id="a_node9"><a xlink:href="_tower_bomb_8cpp.html" target="_top" xlink:title=" ">
<polygon fill="none" stroke="black" points="485.5,-0.5 485.5,-19.5 620.5,-19.5 620.5,-0.5 485.5,-0.5"/>
<text text-anchor="middle" x="553" y="-7.5" font-family="Helvetica,sans-Serif" font-size="10.00">src/core/TowerBomb.cpp</text>
</a>
</g>
</g>
<!-- Node8&#45;&gt;Node9 -->
<g id="edge12" class="edge">
<title>Node8&#45;&gt;Node9</title>
<path fill="none" stroke="midnightblue" d="M553,-45.8C553,-36.91 553,-26.78 553,-19.75"/>
<polygon fill="midnightblue" stroke="midnightblue" points="549.5,-46.08 553,-56.08 556.5,-46.08 549.5,-46.08"/>
</g>
<!-- Node10&#45;&gt;Node2 -->
<g id="edge14" class="edge">
<title>Node10&#45;&gt;Node2</title>
<path fill="none" stroke="midnightblue" d="M641.36,-54.54C588.06,-44.33 508,-29 458.47,-19.52"/>
<polygon fill="midnightblue" stroke="midnightblue" points="640.84,-58 651.32,-56.44 642.15,-51.13 640.84,-58"/>
</g>
<!-- Node11 -->
<g id="node11" class="node">
<title>Node11</title>
<g id="a_node11"><a xlink:href="_tower_magic_8cpp.html" target="_top" xlink:title=" ">
<polygon fill="none" stroke="black" points="639,-0.5 639,-19.5 775,-19.5 775,-0.5 639,-0.5"/>
<text text-anchor="middle" x="707" y="-7.5" font-family="Helvetica,sans-Serif" font-size="10.00">src/core/TowerMagic.cpp</text>
</a>
</g>
</g>
<!-- Node10&#45;&gt;Node11 -->
<g id="edge15" class="edge">
<title>Node10&#45;&gt;Node11</title>
<path fill="none" stroke="midnightblue" d="M699.85,-46.1C701.68,-37.14 703.77,-26.86 705.22,-19.75"/>
<polygon fill="midnightblue" stroke="midnightblue" points="696.38,-45.59 697.82,-56.08 703.24,-46.98 696.38,-45.59"/>
</g>
</g>
</svg>
