<?xml version="1.0" encoding="UTF-8" standalone="no"?>
<!DOCTYPE svg PUBLIC "-//W3C//DTD SVG 1.1//EN"
 "http://www.w3.org/Graphics/SVG/1.1/DTD/svg11.dtd">
<!-- Generated by graphviz version 2.43.0 (0)
 -->
<!-- Title: /home/allan/Licence2_Informatique/ProjetLIFAP4/src/core/Vec2.cpp Pages: 1 -->
<svg width="156pt" height="162pt"
 viewBox="0.00 0.00 156.00 162.00" xmlns="http://www.w3.org/2000/svg" xmlns:xlink="http://www.w3.org/1999/xlink">
<g id="graph0" class="graph" transform="scale(1 1) rotate(0) translate(4 158)">
<title>/home/allan/Licence2_Informatique/ProjetLIFAP4/src/core/Vec2.cpp</title>
<!-- Node1 -->
<g id="node1" class="node">
<title>Node1</title>
<g id="a_node1"><a xlink:title=" ">
<polygon fill="#bfbfbf" stroke="black" points="0,-112.5 0,-153.5 148,-153.5 148,-112.5 0,-112.5"/>
<text text-anchor="start" x="8" y="-141.5" font-family="Helvetica,sans-Serif" font-size="10.00">/home/allan/Licence2</text>
<text text-anchor="start" x="8" y="-130.5" font-family="Helvetica,sans-Serif" font-size="10.00">_Informatique/ProjetLIFAP4</text>
<text text-anchor="middle" x="74" y="-119.5" font-family="Helvetica,sans-Serif" font-size="10.00">/src/core/Vec2.cpp</text>
</a>
</g>
</g>
<!-- Node2 -->
<g id="node2" class="node">
<title>Node2</title>
<g id="a_node2"><a xlink:title=" ">
<polygon fill="none" stroke="#bfbfbf" points="44,-0.5 44,-19.5 104,-19.5 104,-0.5 44,-0.5"/>
<text text-anchor="middle" x="74" y="-7.5" font-family="Helvetica,sans-Serif" font-size="10.00">iostream</text>
</a>
</g>
</g>
<!-- Node1&#45;&gt;Node2 -->
<g id="edge1" class="edge">
<title>Node1&#45;&gt;Node2</title>
<path fill="none" stroke="midnightblue" d="M70.88,-112.33C68.82,-96.99 66.73,-75.15 68,-56 68.57,-47.34 69.77,-37.81 70.94,-29.75"/>
<polygon fill="midnightblue" stroke="midnightblue" points="74.44,-30.01 72.51,-19.59 67.52,-28.94 74.44,-30.01"/>
</g>
<!-- Node3 -->
<g id="node3" class="node">
<title>Node3</title>
<g id="a_node3"><a xlink:href="_vec2_8h.html" target="_top" xlink:title=" ">
<polygon fill="none" stroke="black" points="76.5,-56.5 76.5,-75.5 125.5,-75.5 125.5,-56.5 76.5,-56.5"/>
<text text-anchor="middle" x="101" y="-63.5" font-family="Helvetica,sans-Serif" font-size="10.00">Vec2.h</text>
</a>
</g>
</g>
<!-- Node1&#45;&gt;Node3 -->
<g id="edge2" class="edge">
<title>Node1&#45;&gt;Node3</title>
<path fill="none" stroke="midnightblue" d="M82.1,-112.5C85.72,-103.78 89.97,-93.56 93.51,-85.02"/>
<polygon fill="midnightblue" stroke="midnightblue" points="96.8,-86.23 97.41,-75.65 90.34,-83.54 96.8,-86.23"/>
</g>
<!-- Node3&#45;&gt;Node2 -->
<g id="edge3" class="edge">
<title>Node3&#45;&gt;Node2</title>
<path fill="none" stroke="midnightblue" d="M96.54,-56.08C92.85,-48.69 87.48,-37.95 82.91,-28.81"/>
<polygon fill="midnightblue" stroke="midnightblue" points="85.98,-27.13 78.38,-19.75 79.72,-30.26 85.98,-27.13"/>
</g>
</g>
</svg>
