<?xml version="1.0" encoding="UTF-8" standalone="no"?>
<!DOCTYPE svg PUBLIC "-//W3C//DTD SVG 1.1//EN"
 "http://www.w3.org/Graphics/SVG/1.1/DTD/svg11.dtd">
<!-- Generated by graphviz version 2.43.0 (0)
 -->
<!-- Title: Road::getPointX Pages: 1 -->
<svg width="648pt" height="104pt"
 viewBox="0.00 0.00 648.00 104.00" xmlns="http://www.w3.org/2000/svg" xmlns:xlink="http://www.w3.org/1999/xlink">
<g id="graph0" class="graph" transform="scale(1 1) rotate(0) translate(4 100)">
<title>Road::getPointX</title>
<!-- Node1 -->
<g id="node1" class="node">
<title>Node1</title>
<g id="a_node1"><a xlink:title="Accesseur du PointX, recupère sa valeur.">
<polygon fill="#bfbfbf" stroke="black" points="545,-38.5 545,-57.5 640,-57.5 640,-38.5 545,-38.5"/>
<text text-anchor="middle" x="592.5" y="-45.5" font-family="Helvetica,sans-Serif" font-size="10.00">Road::getPointX</text>
</a>
</g>
</g>
<!-- Node2 -->
<g id="node2" class="node">
<title>Node2</title>
<g id="a_node2"><a xlink:href="class_enemy.html#adf23e5e83dc77b5b9896df6deaab9528" target="_top" xlink:title=" ">
<polygon fill="none" stroke="black" points="201,-76.5 201,-95.5 341,-95.5 341,-76.5 201,-76.5"/>
<text text-anchor="middle" x="271" y="-83.5" font-family="Helvetica,sans-Serif" font-size="10.00">Enemy::enemyDirectionX</text>
</a>
</g>
</g>
<!-- Node1&#45;&gt;Node2 -->
<g id="edge1" class="edge">
<title>Node1&#45;&gt;Node2</title>
<path fill="none" stroke="midnightblue" d="M545.14,-59.93C533.41,-62.6 520.8,-65.18 509,-67 452.81,-75.68 388.47,-80.52 341.02,-83.14"/>
<polygon fill="midnightblue" stroke="midnightblue" points="546.23,-63.27 555.17,-57.58 544.64,-56.45 546.23,-63.27"/>
</g>
<!-- Node4 -->
<g id="node4" class="node">
<title>Node4</title>
<g id="a_node4"><a xlink:href="class_enemy.html#a8d79bf0666d466e582c41e513dcb7b24" target="_top" xlink:title=" ">
<polygon fill="none" stroke="black" points="43,-38.5 43,-57.5 122,-57.5 122,-38.5 43,-38.5"/>
<text text-anchor="middle" x="82.5" y="-45.5" font-family="Helvetica,sans-Serif" font-size="10.00">Enemy::walk</text>
</a>
</g>
</g>
<!-- Node1&#45;&gt;Node4 -->
<g id="edge9" class="edge">
<title>Node1&#45;&gt;Node4</title>
<path fill="none" stroke="midnightblue" d="M548.31,-36.12C535.73,-33.19 521.91,-30.47 509,-29 372.99,-13.54 337.45,-18.04 201,-29 174.53,-31.13 145.03,-35.91 122.21,-40.14"/>
<polygon fill="midnightblue" stroke="midnightblue" points="547.54,-39.53 558.08,-38.49 549.19,-32.73 547.54,-39.53"/>
</g>
<!-- Node5 -->
<g id="node5" class="node">
<title>Node5</title>
<g id="a_node5"><a xlink:href="class_enemy.html#ae96ba0b49cf1ab2f02087e1025d68e4a" target="_top" xlink:title=" ">
<polygon fill="none" stroke="black" points="377,-38.5 377,-57.5 509,-57.5 509,-38.5 377,-38.5"/>
<text text-anchor="middle" x="443" y="-45.5" font-family="Helvetica,sans-Serif" font-size="10.00">Enemy::enemyDistance</text>
</a>
</g>
</g>
<!-- Node1&#45;&gt;Node5 -->
<g id="edge4" class="edge">
<title>Node1&#45;&gt;Node5</title>
<path fill="none" stroke="midnightblue" d="M534.81,-48C526.44,-48 517.76,-48 509.23,-48"/>
<polygon fill="midnightblue" stroke="midnightblue" points="534.83,-51.5 544.83,-48 534.83,-44.5 534.83,-51.5"/>
</g>
<!-- Node3 -->
<g id="node3" class="node">
<title>Node3</title>
<g id="a_node3"><a xlink:href="class_projectile.html#aab843b501a1669277ec8157ddab8ca0a" target="_top" xlink:title="Fonction calculant la direction en x depuis une tour vers un ennemi.">
<polygon fill="none" stroke="black" points="0,-76.5 0,-95.5 165,-95.5 165,-76.5 0,-76.5"/>
<text text-anchor="middle" x="82.5" y="-83.5" font-family="Helvetica,sans-Serif" font-size="10.00">Projectile::projectileDirectionX</text>
</a>
</g>
</g>
<!-- Node2&#45;&gt;Node3 -->
<g id="edge2" class="edge">
<title>Node2&#45;&gt;Node3</title>
<path fill="none" stroke="midnightblue" d="M190.64,-86C182.21,-86 173.63,-86 165.17,-86"/>
<polygon fill="midnightblue" stroke="midnightblue" points="190.82,-89.5 200.82,-86 190.82,-82.5 190.82,-89.5"/>
</g>
<!-- Node2&#45;&gt;Node4 -->
<g id="edge3" class="edge">
<title>Node2&#45;&gt;Node4</title>
<path fill="none" stroke="midnightblue" d="M212.79,-74.34C183.35,-68.35 148.26,-61.19 122.07,-55.86"/>
<polygon fill="midnightblue" stroke="midnightblue" points="212.44,-77.84 222.94,-76.41 213.84,-70.98 212.44,-77.84"/>
</g>
<!-- Node5&#45;&gt;Node2 -->
<g id="edge5" class="edge">
<title>Node5&#45;&gt;Node2</title>
<path fill="none" stroke="midnightblue" d="M389.1,-59.82C365.13,-65.18 337.18,-71.43 314.59,-76.48"/>
<polygon fill="midnightblue" stroke="midnightblue" points="390.11,-63.19 399.1,-57.59 388.58,-56.35 390.11,-63.19"/>
</g>
<!-- Node6 -->
<g id="node6" class="node">
<title>Node6</title>
<g id="a_node6"><a xlink:href="class_enemy.html#aa7a5add0fb6b2e1af8dbf174415fb482" target="_top" xlink:title=" ">
<polygon fill="none" stroke="black" points="201,-38.5 201,-57.5 341,-57.5 341,-38.5 201,-38.5"/>
<text text-anchor="middle" x="271" y="-45.5" font-family="Helvetica,sans-Serif" font-size="10.00">Enemy::enemyDirectionY</text>
</a>
</g>
</g>
<!-- Node5&#45;&gt;Node6 -->
<g id="edge6" class="edge">
<title>Node5&#45;&gt;Node6</title>
<path fill="none" stroke="midnightblue" d="M366.5,-48C358.02,-48 349.41,-48 341.02,-48"/>
<polygon fill="midnightblue" stroke="midnightblue" points="366.76,-51.5 376.76,-48 366.76,-44.5 366.76,-51.5"/>
</g>
<!-- Node6&#45;&gt;Node4 -->
<g id="edge8" class="edge">
<title>Node6&#45;&gt;Node4</title>
<path fill="none" stroke="midnightblue" d="M190.76,-48C167.05,-48 142.11,-48 122.26,-48"/>
<polygon fill="midnightblue" stroke="midnightblue" points="190.82,-51.5 200.82,-48 190.82,-44.5 190.82,-51.5"/>
</g>
<!-- Node7 -->
<g id="node7" class="node">
<title>Node7</title>
<g id="a_node7"><a xlink:href="class_projectile.html#ab75864403c68d4d2f2b0f80004cd2778" target="_top" xlink:title="Fonction calculant la direction en y depuis une tour vers un ennemi.">
<polygon fill="none" stroke="black" points="0.5,-0.5 0.5,-19.5 164.5,-19.5 164.5,-0.5 0.5,-0.5"/>
<text text-anchor="middle" x="82.5" y="-7.5" font-family="Helvetica,sans-Serif" font-size="10.00">Projectile::projectileDirectionY</text>
</a>
</g>
</g>
<!-- Node6&#45;&gt;Node7 -->
<g id="edge7" class="edge">
<title>Node6&#45;&gt;Node7</title>
<path fill="none" stroke="midnightblue" d="M213.02,-36.39C186.5,-30.99 155.33,-24.64 130.22,-19.52"/>
<polygon fill="midnightblue" stroke="midnightblue" points="212.44,-39.84 222.94,-38.41 213.84,-32.98 212.44,-39.84"/>
</g>
</g>
</svg>
