<?xml version="1.0" encoding="UTF-8" standalone="no"?>
<!DOCTYPE svg PUBLIC "-//W3C//DTD SVG 1.1//EN"
 "http://www.w3.org/Graphics/SVG/1.1/DTD/svg11.dtd">
<!-- Generated by graphviz version 2.43.0 (0)
 -->
<!-- Title: Entity::setPos Pages: 1 -->
<svg width="270pt" height="142pt"
 viewBox="0.00 0.00 270.00 142.00" xmlns="http://www.w3.org/2000/svg" xmlns:xlink="http://www.w3.org/1999/xlink">
<g id="graph0" class="graph" transform="scale(1 1) rotate(0) translate(4 138)">
<title>Entity::setPos</title>
<!-- Node1 -->
<g id="node1" class="node">
<title>Node1</title>
<g id="a_node1"><a xlink:title="Accesseur modifiant la position en x et en y d&#39;un ennemi.">
<polygon fill="#bfbfbf" stroke="black" points="179,-57.5 179,-76.5 262,-76.5 262,-57.5 179,-57.5"/>
<text text-anchor="middle" x="220.5" y="-64.5" font-family="Helvetica,sans-Serif" font-size="10.00">Entity::setPos</text>
</a>
</g>
</g>
<!-- Node2 -->
<g id="node2" class="node">
<title>Node2</title>
<g id="a_node2"><a xlink:href="class_projectile.html#ac536ed2aad56af866a2078b9a85aa16d" target="_top" xlink:title="Constructeur par défaut de la classe Projectile.">
<polygon fill="none" stroke="black" points="14.5,-114.5 14.5,-133.5 128.5,-133.5 128.5,-114.5 14.5,-114.5"/>
<text text-anchor="middle" x="71.5" y="-121.5" font-family="Helvetica,sans-Serif" font-size="10.00">Projectile::Projectile</text>
</a>
</g>
</g>
<!-- Node1&#45;&gt;Node2 -->
<g id="edge1" class="edge">
<title>Node1&#45;&gt;Node2</title>
<path fill="none" stroke="midnightblue" d="M193.7,-81.41C179.13,-89.14 160.41,-98.41 143,-105 133.64,-108.55 123.34,-111.72 113.57,-114.4"/>
<polygon fill="midnightblue" stroke="midnightblue" points="195.48,-84.43 202.62,-76.6 192.16,-78.27 195.48,-84.43"/>
</g>
<!-- Node3 -->
<g id="node3" class="node">
<title>Node3</title>
<g id="a_node3"><a xlink:href="class_enemy.html#a012b23beffeee74ef1422c2d7c28bb37" target="_top" xlink:title=" ">
<polygon fill="none" stroke="black" points="8.5,-76.5 8.5,-95.5 134.5,-95.5 134.5,-76.5 8.5,-76.5"/>
<text text-anchor="middle" x="71.5" y="-83.5" font-family="Helvetica,sans-Serif" font-size="10.00">Enemy::regressionTest</text>
</a>
</g>
</g>
<!-- Node1&#45;&gt;Node3 -->
<g id="edge2" class="edge">
<title>Node1&#45;&gt;Node3</title>
<path fill="none" stroke="midnightblue" d="M168.7,-73.57C157.74,-74.98 146.03,-76.5 134.7,-77.96"/>
<polygon fill="midnightblue" stroke="midnightblue" points="169.47,-77 178.94,-72.24 168.58,-70.05 169.47,-77"/>
</g>
<!-- Node4 -->
<g id="node4" class="node">
<title>Node4</title>
<g id="a_node4"><a xlink:href="class_tower_archer.html#a59af6e08c7426311d6bf5327ce86c13e" target="_top" xlink:title="Constructeur par défaut de la classe TowerArcher.">
<polygon fill="none" stroke="black" points="0,-38.5 0,-57.5 143,-57.5 143,-38.5 0,-38.5"/>
<text text-anchor="middle" x="71.5" y="-45.5" font-family="Helvetica,sans-Serif" font-size="10.00">TowerArcher::TowerArcher</text>
</a>
</g>
</g>
<!-- Node1&#45;&gt;Node4 -->
<g id="edge3" class="edge">
<title>Node1&#45;&gt;Node4</title>
<path fill="none" stroke="midnightblue" d="M169,-60.47C160.65,-59.39 151.85,-58.26 143.11,-57.13"/>
<polygon fill="midnightblue" stroke="midnightblue" points="168.58,-63.95 178.94,-61.76 169.47,-57 168.58,-63.95"/>
</g>
<!-- Node5 -->
<g id="node5" class="node">
<title>Node5</title>
<g id="a_node5"><a xlink:href="class_projectile.html#adfc163f4a625fc293f8f67fd0eb49761" target="_top" xlink:title="Fonction calculant toutes les positions nécessaires au projectile entre une tour et un ennemi.">
<polygon fill="none" stroke="black" points="25,-0.5 25,-19.5 118,-19.5 118,-0.5 25,-0.5"/>
<text text-anchor="middle" x="71.5" y="-7.5" font-family="Helvetica,sans-Serif" font-size="10.00">Projectile::track</text>
</a>
</g>
</g>
<!-- Node1&#45;&gt;Node5 -->
<g id="edge4" class="edge">
<title>Node1&#45;&gt;Node5</title>
<path fill="none" stroke="midnightblue" d="M193.7,-52.59C179.13,-44.86 160.41,-35.59 143,-29 133.64,-25.45 123.34,-22.28 113.57,-19.6"/>
<polygon fill="midnightblue" stroke="midnightblue" points="192.16,-55.73 202.62,-57.4 195.48,-49.57 192.16,-55.73"/>
</g>
</g>
</svg>
