<?xml version="1.0" encoding="UTF-8" standalone="no"?>
<!DOCTYPE svg PUBLIC "-//W3C//DTD SVG 1.1//EN"
 "http://www.w3.org/Graphics/SVG/1.1/DTD/svg11.dtd">
<!-- Generated by graphviz version 2.43.0 (0)
 -->
<!-- Title: Enemy::enemyDirectionX Pages: 1 -->
<svg width="470pt" height="142pt"
 viewBox="0.00 0.00 470.00 142.00" xmlns="http://www.w3.org/2000/svg" xmlns:xlink="http://www.w3.org/1999/xlink">
<g id="graph0" class="graph" transform="scale(1 1) rotate(0) translate(4 138)">
<title>Enemy::enemyDirectionX</title>
<!-- Node1 -->
<g id="node1" class="node">
<title>Node1</title>
<g id="a_node1"><a xlink:title=" ">
<polygon fill="#bfbfbf" stroke="black" points="0,-66.5 0,-85.5 140,-85.5 140,-66.5 0,-66.5"/>
<text text-anchor="middle" x="70" y="-73.5" font-family="Helvetica,sans-Serif" font-size="10.00">Enemy::enemyDirectionX</text>
</a>
</g>
</g>
<!-- Node2 -->
<g id="node2" class="node">
<title>Node2</title>
<g id="a_node2"><a xlink:href="class_enemy.html#ae96ba0b49cf1ab2f02087e1025d68e4a" target="_top" xlink:title=" ">
<polygon fill="none" stroke="black" points="176,-66.5 176,-85.5 308,-85.5 308,-66.5 176,-66.5"/>
<text text-anchor="middle" x="242" y="-73.5" font-family="Helvetica,sans-Serif" font-size="10.00">Enemy::enemyDistance</text>
</a>
</g>
</g>
<!-- Node1&#45;&gt;Node2 -->
<g id="edge1" class="edge">
<title>Node1&#45;&gt;Node2</title>
<path fill="none" stroke="midnightblue" d="M140.15,-76C148.51,-76 157.09,-76 165.54,-76"/>
<polygon fill="midnightblue" stroke="midnightblue" points="165.76,-79.5 175.76,-76 165.76,-72.5 165.76,-79.5"/>
</g>
<!-- Node3 -->
<g id="node3" class="node">
<title>Node3</title>
<g id="a_node3"><a xlink:href="class_entity.html#a632a853b65d0468f138bc35efc0d317b" target="_top" xlink:title="Accesseur renvoyant la position en x d&#39;un ennemi de type const.">
<polygon fill="none" stroke="black" points="344,-114.5 344,-133.5 462,-133.5 462,-114.5 344,-114.5"/>
<text text-anchor="middle" x="403" y="-121.5" font-family="Helvetica,sans-Serif" font-size="10.00">Entity::getConstPosX</text>
</a>
</g>
</g>
<!-- Node1&#45;&gt;Node3 -->
<g id="edge6" class="edge">
<title>Node1&#45;&gt;Node3</title>
<path fill="none" stroke="midnightblue" d="M120.59,-85.51C138.07,-88.72 157.88,-92.2 176,-95 228.77,-103.15 288.73,-110.77 333.62,-116.15"/>
<polygon fill="midnightblue" stroke="midnightblue" points="333.48,-119.66 343.82,-117.37 334.31,-112.71 333.48,-119.66"/>
</g>
<!-- Node5 -->
<g id="node5" class="node">
<title>Node5</title>
<g id="a_node5"><a xlink:href="class_road.html#a3d9af22c8a684b0fde2ce1b390d27d2a" target="_top" xlink:title="Accesseur du PointX, recupère sa valeur.">
<polygon fill="none" stroke="black" points="355.5,-0.5 355.5,-19.5 450.5,-19.5 450.5,-0.5 355.5,-0.5"/>
<text text-anchor="middle" x="403" y="-7.5" font-family="Helvetica,sans-Serif" font-size="10.00">Road::getPointX</text>
</a>
</g>
</g>
<!-- Node1&#45;&gt;Node5 -->
<g id="edge7" class="edge">
<title>Node1&#45;&gt;Node5</title>
<path fill="none" stroke="midnightblue" d="M118.78,-66.47C178.77,-54.51 281.54,-34.02 345.4,-21.29"/>
<polygon fill="midnightblue" stroke="midnightblue" points="346.18,-24.7 355.31,-19.31 344.82,-17.83 346.18,-24.7"/>
</g>
<!-- Node2&#45;&gt;Node3 -->
<g id="edge2" class="edge">
<title>Node2&#45;&gt;Node3</title>
<path fill="none" stroke="midnightblue" d="M274.79,-85.6C299.38,-93.02 333.64,-103.36 360.4,-111.44"/>
<polygon fill="midnightblue" stroke="midnightblue" points="359.68,-114.88 370.26,-114.42 361.7,-108.18 359.68,-114.88"/>
</g>
<!-- Node4 -->
<g id="node4" class="node">
<title>Node4</title>
<g id="a_node4"><a xlink:href="class_entity.html#a280a384eddb9c7bfb96547adfbb8f515" target="_top" xlink:title="Accesseur renvoyant la position en y d&#39;un ennemi de type const.">
<polygon fill="none" stroke="black" points="344.5,-76.5 344.5,-95.5 461.5,-95.5 461.5,-76.5 344.5,-76.5"/>
<text text-anchor="middle" x="403" y="-83.5" font-family="Helvetica,sans-Serif" font-size="10.00">Entity::getConstPosY</text>
</a>
</g>
</g>
<!-- Node2&#45;&gt;Node4 -->
<g id="edge3" class="edge">
<title>Node2&#45;&gt;Node4</title>
<path fill="none" stroke="midnightblue" d="M308.13,-80.1C316.76,-80.64 325.62,-81.2 334.3,-81.74"/>
<polygon fill="midnightblue" stroke="midnightblue" points="334.16,-85.24 344.36,-82.37 334.6,-78.25 334.16,-85.24"/>
</g>
<!-- Node2&#45;&gt;Node5 -->
<g id="edge4" class="edge">
<title>Node2&#45;&gt;Node5</title>
<path fill="none" stroke="midnightblue" d="M261.69,-66.48C281.75,-56.47 314.68,-40.58 344,-29 349.43,-26.86 355.21,-24.75 360.94,-22.78"/>
<polygon fill="midnightblue" stroke="midnightblue" points="362.09,-26.08 370.45,-19.58 359.86,-19.45 362.09,-26.08"/>
</g>
<!-- Node6 -->
<g id="node6" class="node">
<title>Node6</title>
<g id="a_node6"><a xlink:href="class_road.html#ab7507b9872a1990388e7fa18d3c3253f" target="_top" xlink:title="Accesseur du PointY, récupère sa valeur.">
<polygon fill="none" stroke="black" points="356,-38.5 356,-57.5 450,-57.5 450,-38.5 356,-38.5"/>
<text text-anchor="middle" x="403" y="-45.5" font-family="Helvetica,sans-Serif" font-size="10.00">Road::getPointY</text>
</a>
</g>
</g>
<!-- Node2&#45;&gt;Node6 -->
<g id="edge5" class="edge">
<title>Node2&#45;&gt;Node6</title>
<path fill="none" stroke="midnightblue" d="M297.27,-66.44C312.92,-63.69 330.02,-60.68 345.78,-57.9"/>
<polygon fill="midnightblue" stroke="midnightblue" points="346.67,-61.3 355.91,-56.12 345.46,-54.4 346.67,-61.3"/>
</g>
</g>
</svg>
