<?xml version="1.0" encoding="UTF-8" standalone="no"?>
<!DOCTYPE svg PUBLIC "-//W3C//DTD SVG 1.1//EN"
 "http://www.w3.org/Graphics/SVG/1.1/DTD/svg11.dtd">
<!-- Generated by graphviz version 2.43.0 (0)
 -->
<!-- Title: Entity::getConstSpeed Pages: 1 -->
<svg width="333pt" height="142pt"
 viewBox="0.00 0.00 333.00 142.00" xmlns="http://www.w3.org/2000/svg" xmlns:xlink="http://www.w3.org/1999/xlink">
<g id="graph0" class="graph" transform="scale(1 1) rotate(0) translate(4 138)">
<title>Entity::getConstSpeed</title>
<!-- Node1 -->
<g id="node1" class="node">
<title>Node1</title>
<g id="a_node1"><a xlink:title="Accesseur renvoyant la vitesse d&#39;un ennemi de type const.">
<polygon fill="#bfbfbf" stroke="black" points="201,-57.5 201,-76.5 325,-76.5 325,-57.5 201,-57.5"/>
<text text-anchor="middle" x="263" y="-64.5" font-family="Helvetica,sans-Serif" font-size="10.00">Entity::getConstSpeed</text>
</a>
</g>
</g>
<!-- Node2 -->
<g id="node2" class="node">
<title>Node2</title>
<g id="a_node2"><a xlink:href="class_projectile.html#aab843b501a1669277ec8157ddab8ca0a" target="_top" xlink:title="Fonction calculant la direction en x depuis une tour vers un ennemi.">
<polygon fill="none" stroke="black" points="0,-114.5 0,-133.5 165,-133.5 165,-114.5 0,-114.5"/>
<text text-anchor="middle" x="82.5" y="-121.5" font-family="Helvetica,sans-Serif" font-size="10.00">Projectile::projectileDirectionX</text>
</a>
</g>
</g>
<!-- Node1&#45;&gt;Node2 -->
<g id="edge1" class="edge">
<title>Node1&#45;&gt;Node2</title>
<path fill="none" stroke="midnightblue" d="M231.08,-80.43C212.23,-88.29 187.5,-98.01 165,-105 153.62,-108.53 141.17,-111.75 129.5,-114.5"/>
<polygon fill="midnightblue" stroke="midnightblue" points="232.51,-83.63 240.36,-76.52 229.79,-77.18 232.51,-83.63"/>
</g>
<!-- Node3 -->
<g id="node3" class="node">
<title>Node3</title>
<g id="a_node3"><a xlink:href="class_projectile.html#ab75864403c68d4d2f2b0f80004cd2778" target="_top" xlink:title="Fonction calculant la direction en y depuis une tour vers un ennemi.">
<polygon fill="none" stroke="black" points="0.5,-76.5 0.5,-95.5 164.5,-95.5 164.5,-76.5 0.5,-76.5"/>
<text text-anchor="middle" x="82.5" y="-83.5" font-family="Helvetica,sans-Serif" font-size="10.00">Projectile::projectileDirectionY</text>
</a>
</g>
</g>
<!-- Node1&#45;&gt;Node3 -->
<g id="edge2" class="edge">
<title>Node1&#45;&gt;Node3</title>
<path fill="none" stroke="midnightblue" d="M190.36,-74.63C181.88,-75.53 173.18,-76.45 164.59,-77.37"/>
<polygon fill="midnightblue" stroke="midnightblue" points="191,-78.08 200.57,-73.54 190.26,-71.12 191,-78.08"/>
</g>
<!-- Node4 -->
<g id="node4" class="node">
<title>Node4</title>
<g id="a_node4"><a xlink:href="class_projectile.html#a73f8a1e71748a6994efba59c459385c8" target="_top" xlink:title="Fonction calculant toutes les positions nécessaires au projectile entre une tour et un ennemi.">
<polygon fill="none" stroke="black" points="36,-38.5 36,-57.5 129,-57.5 129,-38.5 36,-38.5"/>
<text text-anchor="middle" x="82.5" y="-45.5" font-family="Helvetica,sans-Serif" font-size="10.00">Projectile::track</text>
</a>
</g>
</g>
<!-- Node1&#45;&gt;Node4 -->
<g id="edge3" class="edge">
<title>Node1&#45;&gt;Node4</title>
<path fill="none" stroke="midnightblue" d="M190.55,-59.39C169.89,-57.2 147.89,-54.85 129.25,-52.87"/>
<polygon fill="midnightblue" stroke="midnightblue" points="190.26,-62.88 200.57,-60.46 191,-55.92 190.26,-62.88"/>
</g>
<!-- Node5 -->
<g id="node5" class="node">
<title>Node5</title>
<g id="a_node5"><a xlink:href="class_enemy.html#a8d79bf0666d466e582c41e513dcb7b24" target="_top" xlink:title=" ">
<polygon fill="none" stroke="black" points="43,-0.5 43,-19.5 122,-19.5 122,-0.5 43,-0.5"/>
<text text-anchor="middle" x="82.5" y="-7.5" font-family="Helvetica,sans-Serif" font-size="10.00">Enemy::walk</text>
</a>
</g>
</g>
<!-- Node1&#45;&gt;Node5 -->
<g id="edge4" class="edge">
<title>Node1&#45;&gt;Node5</title>
<path fill="none" stroke="midnightblue" d="M231.08,-53.57C212.23,-45.71 187.5,-35.99 165,-29 151.26,-24.73 135.96,-20.92 122.36,-17.86"/>
<polygon fill="midnightblue" stroke="midnightblue" points="229.79,-56.82 240.36,-57.48 232.51,-50.37 229.79,-56.82"/>
</g>
</g>
</svg>
