<?xml version="1.0" encoding="UTF-8" standalone="no"?>
<!DOCTYPE svg PUBLIC "-//W3C//DTD SVG 1.1//EN"
 "http://www.w3.org/Graphics/SVG/1.1/DTD/svg11.dtd">
<!-- Generated by graphviz version 2.43.0 (0)
 -->
<!-- Title: Entity::getConstPosY Pages: 1 -->
<svg width="731pt" height="170pt"
 viewBox="0.00 0.00 731.00 170.12" xmlns="http://www.w3.org/2000/svg" xmlns:xlink="http://www.w3.org/1999/xlink">
<g id="graph0" class="graph" transform="scale(1 1) rotate(0) translate(4 166.12)">
<title>Entity::getConstPosY</title>
<!-- Node1 -->
<g id="node1" class="node">
<title>Node1</title>
<g id="a_node1"><a xlink:title=" ">
<polygon fill="#bfbfbf" stroke="black" points="606,-66.62 606,-85.62 723,-85.62 723,-66.62 606,-66.62"/>
<text text-anchor="middle" x="664.5" y="-73.62" font-family="Helvetica,sans-Serif" font-size="10.00">Entity::getConstPosY</text>
</a>
</g>
</g>
<!-- Node2 -->
<g id="node2" class="node">
<title>Node2</title>
<g id="a_node2"><a xlink:href="class_projectile.html#a4fed5dda0d58cd0721bf8a20a005c594" target="_top" xlink:title=" ">
<polygon fill="none" stroke="black" points="453,-142.62 453,-161.62 570,-161.62 570,-142.62 453,-142.62"/>
<text text-anchor="middle" x="511.5" y="-149.62" font-family="Helvetica,sans-Serif" font-size="10.00">Projectile::directionY</text>
</a>
</g>
</g>
<!-- Node1&#45;&gt;Node2 -->
<g id="edge1" class="edge">
<title>Node1&#45;&gt;Node2</title>
<path fill="none" stroke="midnightblue" d="M638.85,-90.83C620.22,-101.7 593.88,-116.55 570,-128.12 559.39,-133.27 547.39,-138.38 537.11,-142.56"/>
<polygon fill="midnightblue" stroke="midnightblue" points="640.73,-93.79 647.58,-85.7 637.18,-87.75 640.73,-93.79"/>
</g>
<!-- Node3 -->
<g id="node3" class="node">
<title>Node3</title>
<g id="a_node3"><a xlink:href="class_projectile.html#adfc163f4a625fc293f8f67fd0eb49761" target="_top" xlink:title=" ">
<polygon fill="none" stroke="black" points="316.5,-104.62 316.5,-123.62 409.5,-123.62 409.5,-104.62 316.5,-104.62"/>
<text text-anchor="middle" x="363" y="-111.62" font-family="Helvetica,sans-Serif" font-size="10.00">Projectile::track</text>
</a>
</g>
</g>
<!-- Node1&#45;&gt;Node3 -->
<g id="edge10" class="edge">
<title>Node1&#45;&gt;Node3</title>
<path fill="none" stroke="midnightblue" d="M611.3,-87.77C597.89,-90.48 583.45,-93.14 570,-95.12 515.1,-103.21 451.44,-108.46 409.58,-111.34"/>
<polygon fill="midnightblue" stroke="midnightblue" points="612.23,-91.15 621.32,-85.71 610.81,-84.3 612.23,-91.15"/>
</g>
<!-- Node7 -->
<g id="node7" class="node">
<title>Node7</title>
<g id="a_node7"><a xlink:href="class_projectile.html#aa878bcc1843c911447425d7618b8f9de" target="_top" xlink:title=" ">
<polygon fill="none" stroke="black" points="456.5,-66.62 456.5,-85.62 566.5,-85.62 566.5,-66.62 456.5,-66.62"/>
<text text-anchor="middle" x="511.5" y="-73.62" font-family="Helvetica,sans-Serif" font-size="10.00">Projectile::distance</text>
</a>
</g>
</g>
<!-- Node1&#45;&gt;Node7 -->
<g id="edge6" class="edge">
<title>Node1&#45;&gt;Node7</title>
<path fill="none" stroke="midnightblue" d="M595.94,-76.12C586.21,-76.12 576.3,-76.12 566.87,-76.12"/>
<polygon fill="midnightblue" stroke="midnightblue" points="595.98,-79.62 605.98,-76.12 595.98,-72.62 595.98,-79.62"/>
</g>
<!-- Node9 -->
<g id="node9" class="node">
<title>Node9</title>
<g id="a_node9"><a xlink:href="class_projectile.html#ac536ed2aad56af866a2078b9a85aa16d" target="_top" xlink:title=" ">
<polygon fill="none" stroke="black" points="454.5,-28.62 454.5,-47.62 568.5,-47.62 568.5,-28.62 454.5,-28.62"/>
<text text-anchor="middle" x="511.5" y="-35.62" font-family="Helvetica,sans-Serif" font-size="10.00">Projectile::Projectile</text>
</a>
</g>
</g>
<!-- Node1&#45;&gt;Node9 -->
<g id="edge9" class="edge">
<title>Node1&#45;&gt;Node9</title>
<path fill="none" stroke="midnightblue" d="M615.66,-64.08C594.56,-58.77 570.12,-52.62 550.33,-47.64"/>
<polygon fill="midnightblue" stroke="midnightblue" points="614.84,-67.49 625.4,-66.53 616.55,-60.7 614.84,-67.49"/>
</g>
<!-- Node10 -->
<g id="node10" class="node">
<title>Node10</title>
<g id="a_node10"><a xlink:href="_game_t_x_t_8cpp.html#a79f96f754efd066587bec9a3d0d0add7" target="_top" xlink:title=" ">
<polygon fill="none" stroke="black" points="191.5,-9.62 191.5,-28.62 247.5,-28.62 247.5,-9.62 191.5,-9.62"/>
<text text-anchor="middle" x="219.5" y="-16.62" font-family="Helvetica,sans-Serif" font-size="10.00">txtShow</text>
</a>
</g>
</g>
<!-- Node1&#45;&gt;Node10 -->
<g id="edge11" class="edge">
<title>Node1&#45;&gt;Node10</title>
<path fill="none" stroke="midnightblue" d="M644.46,-60.14C626.55,-46.23 598.31,-27.07 570,-19.12 454.04,13.44 307.78,-4.5 247.93,-14.2"/>
<polygon fill="midnightblue" stroke="midnightblue" points="642.39,-62.97 652.38,-66.48 646.76,-57.5 642.39,-62.97"/>
</g>
<!-- Node2&#45;&gt;Node3 -->
<g id="edge2" class="edge">
<title>Node2&#45;&gt;Node3</title>
<path fill="none" stroke="midnightblue" d="M463.8,-140.01C443.4,-134.72 419.82,-128.6 400.7,-123.64"/>
<polygon fill="midnightblue" stroke="midnightblue" points="462.97,-143.41 473.53,-142.53 464.73,-136.64 462.97,-143.41"/>
</g>
<!-- Node4 -->
<g id="node4" class="node">
<title>Node4</title>
<g id="a_node4"><a xlink:href="class_game.html#acd26cbdfb8fa7cec1832711e618fec45" target="_top" xlink:title=" ">
<polygon fill="none" stroke="black" points="166,-66.62 166,-85.62 273,-85.62 273,-66.62 166,-66.62"/>
<text text-anchor="middle" x="219.5" y="-73.62" font-family="Helvetica,sans-Serif" font-size="10.00">Game::autoEvents</text>
</a>
</g>
</g>
<!-- Node3&#45;&gt;Node4 -->
<g id="edge3" class="edge">
<title>Node3&#45;&gt;Node4</title>
<path fill="none" stroke="midnightblue" d="M316.4,-101.88C296.89,-96.64 274.46,-90.61 256.2,-85.71"/>
<polygon fill="midnightblue" stroke="midnightblue" points="315.73,-105.32 326.29,-104.53 317.54,-98.56 315.73,-105.32"/>
</g>
<!-- Node5 -->
<g id="node5" class="node">
<title>Node5</title>
<g id="a_node5"><a xlink:href="_game_t_x_t_8cpp.html#aa8f70cd3510ceae6f2dd1bd542fcaabd" target="_top" xlink:title=" ">
<polygon fill="none" stroke="black" points="77,-28.62 77,-47.62 130,-47.62 130,-28.62 77,-28.62"/>
<text text-anchor="middle" x="103.5" y="-35.62" font-family="Helvetica,sans-Serif" font-size="10.00">txtLoop</text>
</a>
</g>
</g>
<!-- Node4&#45;&gt;Node5 -->
<g id="edge4" class="edge">
<title>Node4&#45;&gt;Node5</title>
<path fill="none" stroke="midnightblue" d="M179.87,-63.25C163.47,-57.78 144.8,-51.56 130.15,-46.67"/>
<polygon fill="midnightblue" stroke="midnightblue" points="179.14,-66.69 189.73,-66.53 181.35,-60.05 179.14,-66.69"/>
</g>
<!-- Node6 -->
<g id="node6" class="node">
<title>Node6</title>
<g id="a_node6"><a xlink:href="main_t_x_t_8cpp.html#a840291bc02cba5474a4cb46a9b9566fe" target="_top" xlink:title=" ">
<polygon fill="none" stroke="black" points="0,-28.62 0,-47.62 41,-47.62 41,-28.62 0,-28.62"/>
<text text-anchor="middle" x="20.5" y="-35.62" font-family="Helvetica,sans-Serif" font-size="10.00">main</text>
</a>
</g>
</g>
<!-- Node5&#45;&gt;Node6 -->
<g id="edge5" class="edge">
<title>Node5&#45;&gt;Node6</title>
<path fill="none" stroke="midnightblue" d="M66.75,-38.12C57.92,-38.12 48.79,-38.12 41.06,-38.12"/>
<polygon fill="midnightblue" stroke="midnightblue" points="66.87,-41.62 76.87,-38.12 66.87,-34.62 66.87,-41.62"/>
</g>
<!-- Node8 -->
<g id="node8" class="node">
<title>Node8</title>
<g id="a_node8"><a xlink:href="class_projectile.html#a62f3ecf85f4a26de65c5e0e333181ed1" target="_top" xlink:title=" ">
<polygon fill="none" stroke="black" points="309,-66.62 309,-85.62 417,-85.62 417,-66.62 309,-66.62"/>
<text text-anchor="middle" x="363" y="-73.62" font-family="Helvetica,sans-Serif" font-size="10.00">Projectile::inRange</text>
</a>
</g>
</g>
<!-- Node7&#45;&gt;Node8 -->
<g id="edge7" class="edge">
<title>Node7&#45;&gt;Node8</title>
<path fill="none" stroke="midnightblue" d="M446.09,-76.12C436.52,-76.12 426.74,-76.12 417.42,-76.12"/>
<polygon fill="midnightblue" stroke="midnightblue" points="446.37,-79.62 456.37,-76.12 446.37,-72.62 446.37,-79.62"/>
</g>
<!-- Node8&#45;&gt;Node4 -->
<g id="edge8" class="edge">
<title>Node8&#45;&gt;Node4</title>
<path fill="none" stroke="midnightblue" d="M298.71,-76.12C290.26,-76.12 281.67,-76.12 273.42,-76.12"/>
<polygon fill="midnightblue" stroke="midnightblue" points="298.91,-79.62 308.91,-76.12 298.91,-72.62 298.91,-79.62"/>
</g>
<!-- Node10&#45;&gt;Node5 -->
<g id="edge12" class="edge">
<title>Node10&#45;&gt;Node5</title>
<path fill="none" stroke="midnightblue" d="M181.45,-25.3C164.68,-28.09 145.27,-31.33 130.15,-33.85"/>
<polygon fill="midnightblue" stroke="midnightblue" points="182.2,-28.72 191.48,-23.63 181.04,-21.82 182.2,-28.72"/>
</g>
</g>
</svg>
