<?xml version="1.0" encoding="UTF-8" standalone="no"?>
<!DOCTYPE svg PUBLIC "-//W3C//DTD SVG 1.1//EN"
 "http://www.w3.org/Graphics/SVG/1.1/DTD/svg11.dtd">
<!-- Generated by graphviz version 2.43.0 (0)
 -->
<!-- Title: Entity::getConstPosX Pages: 1 -->
<svg width="696pt" height="292pt"
 viewBox="0.00 0.00 696.00 291.99" xmlns="http://www.w3.org/2000/svg" xmlns:xlink="http://www.w3.org/1999/xlink">
<g id="graph0" class="graph" transform="scale(1 1) rotate(0) translate(4 287.99)">
<title>Entity::getConstPosX</title>
<!-- Node1 -->
<g id="node1" class="node">
<title>Node1</title>
<g id="a_node1"><a xlink:title="Accesseur renvoyant la position en x d&#39;un ennemi de type const.">
<polygon fill="#bfbfbf" stroke="black" points="570,-133.5 570,-152.5 688,-152.5 688,-133.5 570,-133.5"/>
<text text-anchor="middle" x="629" y="-140.5" font-family="Helvetica,sans-Serif" font-size="10.00">Entity::getConstPosX</text>
</a>
</g>
</g>
<!-- Node2 -->
<g id="node2" class="node">
<title>Node2</title>
<g id="a_node2"><a xlink:href="class_enemy.html#adf23e5e83dc77b5b9896df6deaab9528" target="_top" xlink:title=" ">
<polygon fill="none" stroke="black" points="201,-228.5 201,-247.5 341,-247.5 341,-228.5 201,-228.5"/>
<text text-anchor="middle" x="271" y="-235.5" font-family="Helvetica,sans-Serif" font-size="10.00">Enemy::enemyDirectionX</text>
</a>
</g>
</g>
<!-- Node1&#45;&gt;Node2 -->
<g id="edge1" class="edge">
<title>Node1&#45;&gt;Node2</title>
<path fill="none" stroke="midnightblue" d="M611.84,-159.8C594.39,-176.74 564.93,-202.03 534,-214 471.8,-238.06 395.33,-242.48 341.1,-241.84"/>
<polygon fill="midnightblue" stroke="midnightblue" points="614.36,-162.23 618.97,-152.69 609.42,-157.27 614.36,-162.23"/>
</g>
<!-- Node3 -->
<g id="node3" class="node">
<title>Node3</title>
<g id="a_node3"><a xlink:href="class_projectile.html#aab843b501a1669277ec8157ddab8ca0a" target="_top" xlink:title="Fonction calculant la direction en x depuis une tour vers un ennemi.">
<polygon fill="none" stroke="black" points="0,-247.5 0,-266.5 165,-266.5 165,-247.5 0,-247.5"/>
<text text-anchor="middle" x="82.5" y="-254.5" font-family="Helvetica,sans-Serif" font-size="10.00">Projectile::projectileDirectionX</text>
</a>
</g>
</g>
<!-- Node1&#45;&gt;Node3 -->
<g id="edge10" class="edge">
<title>Node1&#45;&gt;Node3</title>
<path fill="none" stroke="midnightblue" d="M616.65,-161.28C601.16,-184.42 571.04,-223.36 534,-241 398.16,-305.69 212.28,-282.24 128.13,-266.55"/>
<polygon fill="midnightblue" stroke="midnightblue" points="619.7,-163.02 622.2,-152.72 613.83,-159.21 619.7,-163.02"/>
</g>
<!-- Node4 -->
<g id="node4" class="node">
<title>Node4</title>
<g id="a_node4"><a xlink:href="class_enemy.html#a8d79bf0666d466e582c41e513dcb7b24" target="_top" xlink:title=" ">
<polygon fill="none" stroke="black" points="43,-190.5 43,-209.5 122,-209.5 122,-190.5 43,-190.5"/>
<text text-anchor="middle" x="82.5" y="-197.5" font-family="Helvetica,sans-Serif" font-size="10.00">Enemy::walk</text>
</a>
</g>
</g>
<!-- Node1&#45;&gt;Node4 -->
<g id="edge16" class="edge">
<title>Node1&#45;&gt;Node4</title>
<path fill="none" stroke="midnightblue" d="M600.67,-156.95C582.33,-165.58 557.33,-175.95 534,-181 384.42,-213.38 200.57,-207.38 122.03,-202.74"/>
<polygon fill="midnightblue" stroke="midnightblue" points="602.39,-160.01 609.87,-152.51 599.34,-153.71 602.39,-160.01"/>
</g>
<!-- Node5 -->
<g id="node5" class="node">
<title>Node5</title>
<g id="a_node5"><a xlink:href="class_enemy.html#ae96ba0b49cf1ab2f02087e1025d68e4a" target="_top" xlink:title=" ">
<polygon fill="none" stroke="black" points="389.5,-152.5 389.5,-171.5 521.5,-171.5 521.5,-152.5 389.5,-152.5"/>
<text text-anchor="middle" x="455.5" y="-159.5" font-family="Helvetica,sans-Serif" font-size="10.00">Enemy::enemyDistance</text>
</a>
</g>
</g>
<!-- Node1&#45;&gt;Node5 -->
<g id="edge4" class="edge">
<title>Node1&#45;&gt;Node5</title>
<path fill="none" stroke="midnightblue" d="M559.94,-150.54C547.3,-151.94 534.13,-153.4 521.58,-154.79"/>
<polygon fill="midnightblue" stroke="midnightblue" points="560.38,-154.01 569.94,-149.43 559.61,-147.06 560.38,-154.01"/>
</g>
<!-- Node8 -->
<g id="node8" class="node">
<title>Node8</title>
<g id="a_node8"><a xlink:href="class_projectile.html#a5d2b817dfcc1eb69d0840d7430b6fcb6" target="_top" xlink:title="Fonction modifiant la donnée membre inRange en fonction de la distance entre un ennemi et une tour.">
<polygon fill="none" stroke="black" points="401.5,-114.5 401.5,-133.5 509.5,-133.5 509.5,-114.5 401.5,-114.5"/>
<text text-anchor="middle" x="455.5" y="-121.5" font-family="Helvetica,sans-Serif" font-size="10.00">Projectile::inRange</text>
</a>
</g>
</g>
<!-- Node1&#45;&gt;Node8 -->
<g id="edge9" class="edge">
<title>Node1&#45;&gt;Node8</title>
<path fill="none" stroke="midnightblue" d="M559.7,-135.43C543.03,-133.59 525.44,-131.64 509.6,-129.88"/>
<polygon fill="midnightblue" stroke="midnightblue" points="559.61,-138.94 569.94,-136.57 560.38,-131.99 559.61,-138.94"/>
</g>
<!-- Node9 -->
<g id="node9" class="node">
<title>Node9</title>
<g id="a_node9"><a xlink:href="class_projectile.html#af8ce64f55796b9dcc0e78ede2427b104" target="_top" xlink:title="Fonction calculant la distance depuis une tour jusqu&#39;à un ennemi.">
<polygon fill="none" stroke="black" points="377,-76.5 377,-95.5 534,-95.5 534,-76.5 377,-76.5"/>
<text text-anchor="middle" x="455.5" y="-83.5" font-family="Helvetica,sans-Serif" font-size="10.00">Projectile::projectileDistance</text>
</a>
</g>
</g>
<!-- Node1&#45;&gt;Node9 -->
<g id="edge11" class="edge">
<title>Node1&#45;&gt;Node9</title>
<path fill="none" stroke="midnightblue" d="M597.44,-129.35C579.25,-121.55 555.58,-111.97 534,-105 523.19,-101.51 511.35,-98.31 500.26,-95.56"/>
<polygon fill="midnightblue" stroke="midnightblue" points="596.1,-132.58 606.67,-133.35 598.89,-126.16 596.1,-132.58"/>
</g>
<!-- Node10 -->
<g id="node10" class="node">
<title>Node10</title>
<g id="a_node10"><a xlink:href="class_projectile.html#a73f8a1e71748a6994efba59c459385c8" target="_top" xlink:title="Fonction calculant toutes les positions nécessaires au projectile entre une tour et un ennemi.">
<polygon fill="none" stroke="black" points="409,-38.5 409,-57.5 502,-57.5 502,-38.5 409,-38.5"/>
<text text-anchor="middle" x="455.5" y="-45.5" font-family="Helvetica,sans-Serif" font-size="10.00">Projectile::track</text>
</a>
</g>
</g>
<!-- Node1&#45;&gt;Node10 -->
<g id="edge12" class="edge">
<title>Node1&#45;&gt;Node10</title>
<path fill="none" stroke="midnightblue" d="M611.94,-126.22C594.39,-108.86 564.66,-82.19 534,-67 524.19,-62.14 513.06,-58.47 502.35,-55.72"/>
<polygon fill="midnightblue" stroke="midnightblue" points="609.59,-128.82 619.11,-133.47 614.57,-123.9 609.59,-128.82"/>
</g>
<!-- Node11 -->
<g id="node11" class="node">
<title>Node11</title>
<g id="a_node11"><a xlink:href="_game_t_x_t_8cpp.html#a79f96f754efd066587bec9a3d0d0add7" target="_top" xlink:title="Fonction dans lequel l&#39;affichage se fait.">
<polygon fill="none" stroke="black" points="427.5,-0.5 427.5,-19.5 483.5,-19.5 483.5,-0.5 427.5,-0.5"/>
<text text-anchor="middle" x="455.5" y="-7.5" font-family="Helvetica,sans-Serif" font-size="10.00">txtShow</text>
</a>
</g>
</g>
<!-- Node1&#45;&gt;Node11 -->
<g id="edge13" class="edge">
<title>Node1&#45;&gt;Node11</title>
<path fill="none" stroke="midnightblue" d="M617.96,-124.56C603.09,-99.03 572.72,-53.32 534,-29 518.87,-19.49 499.31,-14.74 483.62,-12.37"/>
<polygon fill="midnightblue" stroke="midnightblue" points="614.92,-126.29 622.89,-133.27 621.01,-122.85 614.92,-126.29"/>
</g>
<!-- Node2&#45;&gt;Node3 -->
<g id="edge2" class="edge">
<title>Node2&#45;&gt;Node3</title>
<path fill="none" stroke="midnightblue" d="M190.64,-246.09C182.21,-246.94 173.63,-247.82 165.17,-248.68"/>
<polygon fill="midnightblue" stroke="midnightblue" points="191.23,-249.54 200.82,-245.05 190.52,-242.58 191.23,-249.54"/>
</g>
<!-- Node2&#45;&gt;Node4 -->
<g id="edge3" class="edge">
<title>Node2&#45;&gt;Node4</title>
<path fill="none" stroke="midnightblue" d="M212.79,-226.34C183.35,-220.35 148.26,-213.19 122.07,-207.86"/>
<polygon fill="midnightblue" stroke="midnightblue" points="212.44,-229.84 222.94,-228.41 213.84,-222.98 212.44,-229.84"/>
</g>
<!-- Node5&#45;&gt;Node2 -->
<g id="edge5" class="edge">
<title>Node5&#45;&gt;Node2</title>
<path fill="none" stroke="midnightblue" d="M422.15,-175.47C385.61,-190.69 327.05,-215.08 294.93,-228.45"/>
<polygon fill="midnightblue" stroke="midnightblue" points="423.5,-178.7 431.39,-171.63 420.81,-172.24 423.5,-178.7"/>
</g>
<!-- Node6 -->
<g id="node6" class="node">
<title>Node6</title>
<g id="a_node6"><a xlink:href="class_enemy.html#aa7a5add0fb6b2e1af8dbf174415fb482" target="_top" xlink:title=" ">
<polygon fill="none" stroke="black" points="201,-152.5 201,-171.5 341,-171.5 341,-152.5 201,-152.5"/>
<text text-anchor="middle" x="271" y="-159.5" font-family="Helvetica,sans-Serif" font-size="10.00">Enemy::enemyDirectionY</text>
</a>
</g>
</g>
<!-- Node5&#45;&gt;Node6 -->
<g id="edge6" class="edge">
<title>Node5&#45;&gt;Node6</title>
<path fill="none" stroke="midnightblue" d="M379.34,-162C366.69,-162 353.6,-162 341.1,-162"/>
<polygon fill="midnightblue" stroke="midnightblue" points="379.39,-165.5 389.39,-162 379.39,-158.5 379.39,-165.5"/>
</g>
<!-- Node6&#45;&gt;Node4 -->
<g id="edge8" class="edge">
<title>Node6&#45;&gt;Node4</title>
<path fill="none" stroke="midnightblue" d="M212.79,-173.66C183.35,-179.65 148.26,-186.81 122.07,-192.14"/>
<polygon fill="midnightblue" stroke="midnightblue" points="213.84,-177.02 222.94,-171.59 212.44,-170.16 213.84,-177.02"/>
</g>
<!-- Node7 -->
<g id="node7" class="node">
<title>Node7</title>
<g id="a_node7"><a xlink:href="class_projectile.html#ab75864403c68d4d2f2b0f80004cd2778" target="_top" xlink:title="Fonction calculant la direction en y depuis une tour vers un ennemi.">
<polygon fill="none" stroke="black" points="0.5,-152.5 0.5,-171.5 164.5,-171.5 164.5,-152.5 0.5,-152.5"/>
<text text-anchor="middle" x="82.5" y="-159.5" font-family="Helvetica,sans-Serif" font-size="10.00">Projectile::projectileDirectionY</text>
</a>
</g>
</g>
<!-- Node6&#45;&gt;Node7 -->
<g id="edge7" class="edge">
<title>Node6&#45;&gt;Node7</title>
<path fill="none" stroke="midnightblue" d="M190.74,-162C182.06,-162 173.23,-162 164.54,-162"/>
<polygon fill="midnightblue" stroke="midnightblue" points="190.82,-165.5 200.82,-162 190.82,-158.5 190.82,-165.5"/>
</g>
<!-- Node12 -->
<g id="node12" class="node">
<title>Node12</title>
<g id="a_node12"><a xlink:href="_game_t_x_t_8cpp.html#aa8f70cd3510ceae6f2dd1bd542fcaabd" target="_top" xlink:title="Boucle pour l&#39;affichage et la gestion des évènements.">
<polygon fill="none" stroke="black" points="244.5,-0.5 244.5,-19.5 297.5,-19.5 297.5,-0.5 244.5,-0.5"/>
<text text-anchor="middle" x="271" y="-7.5" font-family="Helvetica,sans-Serif" font-size="10.00">txtLoop</text>
</a>
</g>
</g>
<!-- Node11&#45;&gt;Node12 -->
<g id="edge14" class="edge">
<title>Node11&#45;&gt;Node12</title>
<path fill="none" stroke="midnightblue" d="M417.17,-10C381.57,-10 328.88,-10 297.74,-10"/>
<polygon fill="midnightblue" stroke="midnightblue" points="417.18,-13.5 427.18,-10 417.18,-6.5 417.18,-13.5"/>
</g>
<!-- Node13 -->
<g id="node13" class="node">
<title>Node13</title>
<g id="a_node13"><a xlink:href="main_t_x_t_8cpp.html#a840291bc02cba5474a4cb46a9b9566fe" target="_top" xlink:title=" ">
<polygon fill="none" stroke="black" points="62,-0.5 62,-19.5 103,-19.5 103,-0.5 62,-0.5"/>
<text text-anchor="middle" x="82.5" y="-7.5" font-family="Helvetica,sans-Serif" font-size="10.00">main</text>
</a>
</g>
</g>
<!-- Node12&#45;&gt;Node13 -->
<g id="edge15" class="edge">
<title>Node12&#45;&gt;Node13</title>
<path fill="none" stroke="midnightblue" d="M234.07,-10C195.02,-10 134.07,-10 103.06,-10"/>
<polygon fill="midnightblue" stroke="midnightblue" points="234.46,-13.5 244.46,-10 234.46,-6.5 234.46,-13.5"/>
</g>
</g>
</svg>
