<?xml version="1.0" encoding="UTF-8" standalone="no"?>
<!DOCTYPE svg PUBLIC "-//W3C//DTD SVG 1.1//EN"
 "http://www.w3.org/Graphics/SVG/1.1/DTD/svg11.dtd">
<!-- Generated by graphviz version 2.43.0 (0)
 -->
<!-- Title: Entity::setSpeed Pages: 1 -->
<svg width="282pt" height="142pt"
 viewBox="0.00 0.00 282.00 142.00" xmlns="http://www.w3.org/2000/svg" xmlns:xlink="http://www.w3.org/1999/xlink">
<g id="graph0" class="graph" transform="scale(1 1) rotate(0) translate(4 138)">
<title>Entity::setSpeed</title>
<!-- Node1 -->
<g id="node1" class="node">
<title>Node1</title>
<g id="a_node1"><a xlink:title="Accesseur modifiant la vitesse d&#39;un ennemi.">
<polygon fill="#bfbfbf" stroke="black" points="179,-57.5 179,-76.5 274,-76.5 274,-57.5 179,-57.5"/>
<text text-anchor="middle" x="226.5" y="-64.5" font-family="Helvetica,sans-Serif" font-size="10.00">Entity::setSpeed</text>
</a>
</g>
</g>
<!-- Node2 -->
<g id="node2" class="node">
<title>Node2</title>
<g id="a_node2"><a xlink:href="class_enemy.html#a0eaeb6dd84980b1a3f0ea74140183fdc" target="_top" xlink:title="Constructeur apr défaut de la classe Enemy.">
<polygon fill="none" stroke="black" points="27,-114.5 27,-133.5 116,-133.5 116,-114.5 27,-114.5"/>
<text text-anchor="middle" x="71.5" y="-121.5" font-family="Helvetica,sans-Serif" font-size="10.00">Enemy::Enemy</text>
</a>
</g>
</g>
<!-- Node1&#45;&gt;Node2 -->
<g id="edge1" class="edge">
<title>Node1&#45;&gt;Node2</title>
<path fill="none" stroke="midnightblue" d="M198,-81.08C182.19,-88.82 161.79,-98.2 143,-105 133.35,-108.5 122.74,-111.68 112.76,-114.4"/>
<polygon fill="midnightblue" stroke="midnightblue" points="199.8,-84.1 207.2,-76.51 196.69,-77.83 199.8,-84.1"/>
</g>
<!-- Node3 -->
<g id="node3" class="node">
<title>Node3</title>
<g id="a_node3"><a xlink:href="class_tower_archer.html#a59af6e08c7426311d6bf5327ce86c13e" target="_top" xlink:title="Constructeur par défaut de la classe TowerArcher.">
<polygon fill="none" stroke="black" points="0,-76.5 0,-95.5 143,-95.5 143,-76.5 0,-76.5"/>
<text text-anchor="middle" x="71.5" y="-83.5" font-family="Helvetica,sans-Serif" font-size="10.00">TowerArcher::TowerArcher</text>
</a>
</g>
</g>
<!-- Node1&#45;&gt;Node3 -->
<g id="edge2" class="edge">
<title>Node1&#45;&gt;Node3</title>
<path fill="none" stroke="midnightblue" d="M168.78,-74.04C160.44,-75.08 151.76,-76.16 143.18,-77.22"/>
<polygon fill="midnightblue" stroke="midnightblue" points="169.27,-77.51 178.76,-72.8 168.41,-70.56 169.27,-77.51"/>
</g>
<!-- Node4 -->
<g id="node4" class="node">
<title>Node4</title>
<g id="a_node4"><a xlink:href="class_tower_bomb.html#a7e1c2b0cbd24f82457dca1c3d57e4da2" target="_top" xlink:title="Constructeur par défaut de la classe TowerArcher.">
<polygon fill="none" stroke="black" points="3,-38.5 3,-57.5 140,-57.5 140,-38.5 3,-38.5"/>
<text text-anchor="middle" x="71.5" y="-45.5" font-family="Helvetica,sans-Serif" font-size="10.00">TowerBomb::TowerBomb</text>
</a>
</g>
</g>
<!-- Node1&#45;&gt;Node4 -->
<g id="edge3" class="edge">
<title>Node1&#45;&gt;Node4</title>
<path fill="none" stroke="midnightblue" d="M168.8,-59.96C159.45,-58.8 149.66,-57.58 140.07,-56.39"/>
<polygon fill="midnightblue" stroke="midnightblue" points="168.41,-63.44 178.76,-61.2 169.27,-56.49 168.41,-63.44"/>
</g>
<!-- Node5 -->
<g id="node5" class="node">
<title>Node5</title>
<g id="a_node5"><a xlink:href="class_tower_magic.html#ab5761dd7777ca7e16da74717b7866841" target="_top" xlink:title="Constructeur par défaut de la classe TowerArcher.">
<polygon fill="none" stroke="black" points="2.5,-0.5 2.5,-19.5 140.5,-19.5 140.5,-0.5 2.5,-0.5"/>
<text text-anchor="middle" x="71.5" y="-7.5" font-family="Helvetica,sans-Serif" font-size="10.00">TowerMagic::TowerMagic</text>
</a>
</g>
</g>
<!-- Node1&#45;&gt;Node5 -->
<g id="edge4" class="edge">
<title>Node1&#45;&gt;Node5</title>
<path fill="none" stroke="midnightblue" d="M198,-52.92C182.19,-45.18 161.79,-35.8 143,-29 133.35,-25.5 122.74,-22.32 112.76,-19.6"/>
<polygon fill="midnightblue" stroke="midnightblue" points="196.69,-56.17 207.2,-57.49 199.8,-49.9 196.69,-56.17"/>
</g>
</g>
</svg>
