<?xml version="1.0" encoding="UTF-8" standalone="no"?>
<!DOCTYPE svg PUBLIC "-//W3C//DTD SVG 1.1//EN"
 "http://www.w3.org/Graphics/SVG/1.1/DTD/svg11.dtd">
<!-- Generated by graphviz version 2.43.0 (0)
 -->
<!-- Title: Entity::getConstPosY Pages: 1 -->
<svg width="499pt" height="180pt"
 viewBox="0.00 0.00 499.00 180.00" xmlns="http://www.w3.org/2000/svg" xmlns:xlink="http://www.w3.org/1999/xlink">
<g id="graph0" class="graph" transform="scale(1 1) rotate(0) translate(4 176)">
<title>Entity::getConstPosY</title>
<!-- Node1 -->
<g id="node1" class="node">
<title>Node1</title>
<g id="a_node1"><a xlink:title="Accesseur renvoyant la position en y d&#39;un ennemi de type const.">
<polygon fill="#bfbfbf" stroke="black" points="374,-76.5 374,-95.5 491,-95.5 491,-76.5 374,-76.5"/>
<text text-anchor="middle" x="432.5" y="-83.5" font-family="Helvetica,sans-Serif" font-size="10.00">Entity::getConstPosY</text>
</a>
</g>
</g>
<!-- Node2 -->
<g id="node2" class="node">
<title>Node2</title>
<g id="a_node2"><a xlink:href="class_projectile.html#a4fed5dda0d58cd0721bf8a20a005c594" target="_top" xlink:title="Fonction calculant la direction en y depuis une tour vers un ennemi.">
<polygon fill="none" stroke="black" points="221,-152.5 221,-171.5 338,-171.5 338,-152.5 221,-152.5"/>
<text text-anchor="middle" x="279.5" y="-159.5" font-family="Helvetica,sans-Serif" font-size="10.00">Projectile::directionY</text>
</a>
</g>
</g>
<!-- Node1&#45;&gt;Node2 -->
<g id="edge1" class="edge">
<title>Node1&#45;&gt;Node2</title>
<path fill="none" stroke="midnightblue" d="M406.85,-100.71C388.22,-111.57 361.88,-126.42 338,-138 327.39,-143.14 315.39,-148.26 305.11,-152.44"/>
<polygon fill="midnightblue" stroke="midnightblue" points="408.73,-103.66 415.58,-95.58 405.18,-97.63 408.73,-103.66"/>
</g>
<!-- Node3 -->
<g id="node3" class="node">
<title>Node3</title>
<g id="a_node3"><a xlink:href="class_projectile.html#adfc163f4a625fc293f8f67fd0eb49761" target="_top" xlink:title="Fonction calculant toutes les positions nécessaires au projectile entre une tour et un ennemi.">
<polygon fill="none" stroke="black" points="84.5,-133.5 84.5,-152.5 177.5,-152.5 177.5,-133.5 84.5,-133.5"/>
<text text-anchor="middle" x="131" y="-140.5" font-family="Helvetica,sans-Serif" font-size="10.00">Projectile::track</text>
</a>
</g>
</g>
<!-- Node1&#45;&gt;Node3 -->
<g id="edge6" class="edge">
<title>Node1&#45;&gt;Node3</title>
<path fill="none" stroke="midnightblue" d="M375.28,-97.6C363,-100.08 350.07,-102.66 338,-105 283.02,-115.66 219.64,-127.24 177.86,-134.78"/>
<polygon fill="midnightblue" stroke="midnightblue" points="376.3,-100.96 385.4,-95.54 374.91,-94.1 376.3,-100.96"/>
</g>
<!-- Node4 -->
<g id="node4" class="node">
<title>Node4</title>
<g id="a_node4"><a xlink:href="class_projectile.html#af518d9b26f04aa7e5a8a13fc6060a98a" target="_top" xlink:title="Fonction calculant la distance depuis une tour jusqu&#39;à un ennemi.">
<polygon fill="none" stroke="black" points="224.5,-76.5 224.5,-95.5 334.5,-95.5 334.5,-76.5 224.5,-76.5"/>
<text text-anchor="middle" x="279.5" y="-83.5" font-family="Helvetica,sans-Serif" font-size="10.00">Projectile::distance</text>
</a>
</g>
</g>
<!-- Node1&#45;&gt;Node4 -->
<g id="edge3" class="edge">
<title>Node1&#45;&gt;Node4</title>
<path fill="none" stroke="midnightblue" d="M363.94,-86C354.21,-86 344.3,-86 334.87,-86"/>
<polygon fill="midnightblue" stroke="midnightblue" points="363.98,-89.5 373.98,-86 363.98,-82.5 363.98,-89.5"/>
</g>
<!-- Node6 -->
<g id="node6" class="node">
<title>Node6</title>
<g id="a_node6"><a xlink:href="class_projectile.html#ac536ed2aad56af866a2078b9a85aa16d" target="_top" xlink:title="Constructeur par défaut de la classe Projectile.">
<polygon fill="none" stroke="black" points="222.5,-38.5 222.5,-57.5 336.5,-57.5 336.5,-38.5 222.5,-38.5"/>
<text text-anchor="middle" x="279.5" y="-45.5" font-family="Helvetica,sans-Serif" font-size="10.00">Projectile::Projectile</text>
</a>
</g>
</g>
<!-- Node1&#45;&gt;Node6 -->
<g id="edge5" class="edge">
<title>Node1&#45;&gt;Node6</title>
<path fill="none" stroke="midnightblue" d="M383.66,-73.96C362.56,-68.65 338.12,-62.5 318.33,-57.52"/>
<polygon fill="midnightblue" stroke="midnightblue" points="382.84,-77.36 393.4,-76.41 384.55,-70.58 382.84,-77.36"/>
</g>
<!-- Node7 -->
<g id="node7" class="node">
<title>Node7</title>
<g id="a_node7"><a xlink:href="_game_t_x_t_8h.html#a79f96f754efd066587bec9a3d0d0add7" target="_top" xlink:title="Fonction dans lequel l&#39;affichage se fait.">
<polygon fill="none" stroke="black" points="251.5,-0.5 251.5,-19.5 307.5,-19.5 307.5,-0.5 251.5,-0.5"/>
<text text-anchor="middle" x="279.5" y="-7.5" font-family="Helvetica,sans-Serif" font-size="10.00">txtShow</text>
</a>
</g>
</g>
<!-- Node1&#45;&gt;Node7 -->
<g id="edge7" class="edge">
<title>Node1&#45;&gt;Node7</title>
<path fill="none" stroke="midnightblue" d="M409.82,-70.82C391.36,-58.38 363.8,-40.94 338,-29 328.36,-24.54 317.38,-20.64 307.61,-17.56"/>
<polygon fill="midnightblue" stroke="midnightblue" points="407.88,-73.73 418.11,-76.48 411.82,-67.95 407.88,-73.73"/>
</g>
<!-- Node2&#45;&gt;Node3 -->
<g id="edge2" class="edge">
<title>Node2&#45;&gt;Node3</title>
<path fill="none" stroke="midnightblue" d="M210.49,-153.18C199.39,-151.74 188.14,-150.28 177.74,-148.93"/>
<polygon fill="midnightblue" stroke="midnightblue" points="210.23,-156.68 220.6,-154.49 211.13,-149.73 210.23,-156.68"/>
</g>
<!-- Node5 -->
<g id="node5" class="node">
<title>Node5</title>
<g id="a_node5"><a xlink:href="class_projectile.html#a62f3ecf85f4a26de65c5e0e333181ed1" target="_top" xlink:title="Fonction modifiant la donnée membre inRange en fonction de la distance entre un ennemi et une tour.">
<polygon fill="none" stroke="black" points="77,-76.5 77,-95.5 185,-95.5 185,-76.5 77,-76.5"/>
<text text-anchor="middle" x="131" y="-83.5" font-family="Helvetica,sans-Serif" font-size="10.00">Projectile::inRange</text>
</a>
</g>
</g>
<!-- Node4&#45;&gt;Node5 -->
<g id="edge4" class="edge">
<title>Node4&#45;&gt;Node5</title>
<path fill="none" stroke="midnightblue" d="M214.09,-86C204.52,-86 194.74,-86 185.42,-86"/>
<polygon fill="midnightblue" stroke="midnightblue" points="214.37,-89.5 224.37,-86 214.37,-82.5 214.37,-89.5"/>
</g>
<!-- Node8 -->
<g id="node8" class="node">
<title>Node8</title>
<g id="a_node8"><a xlink:href="_game_t_x_t_8h.html#aa8f70cd3510ceae6f2dd1bd542fcaabd" target="_top" xlink:title="Boucle pour l&#39;affichage et la gestion des évènements.">
<polygon fill="none" stroke="black" points="104.5,-0.5 104.5,-19.5 157.5,-19.5 157.5,-0.5 104.5,-0.5"/>
<text text-anchor="middle" x="131" y="-7.5" font-family="Helvetica,sans-Serif" font-size="10.00">txtLoop</text>
</a>
</g>
</g>
<!-- Node7&#45;&gt;Node8 -->
<g id="edge8" class="edge">
<title>Node7&#45;&gt;Node8</title>
<path fill="none" stroke="midnightblue" d="M240.99,-10C214.84,-10 180.65,-10 157.59,-10"/>
<polygon fill="midnightblue" stroke="midnightblue" points="241.29,-13.5 251.29,-10 241.29,-6.5 241.29,-13.5"/>
</g>
<!-- Node9 -->
<g id="node9" class="node">
<title>Node9</title>
<g id="a_node9"><a xlink:href="main_t_x_t_8cpp.html#a840291bc02cba5474a4cb46a9b9566fe" target="_top" xlink:title=" ">
<polygon fill="none" stroke="black" points="0,-0.5 0,-19.5 41,-19.5 41,-0.5 0,-0.5"/>
<text text-anchor="middle" x="20.5" y="-7.5" font-family="Helvetica,sans-Serif" font-size="10.00">main</text>
</a>
</g>
</g>
<!-- Node8&#45;&gt;Node9 -->
<g id="edge9" class="edge">
<title>Node8&#45;&gt;Node9</title>
<path fill="none" stroke="midnightblue" d="M93.81,-10C76.28,-10 55.91,-10 41.26,-10"/>
<polygon fill="midnightblue" stroke="midnightblue" points="94.29,-13.5 104.29,-10 94.29,-6.5 94.29,-13.5"/>
</g>
</g>
</svg>
