<?xml version="1.0" encoding="UTF-8" standalone="no"?>
<!DOCTYPE svg PUBLIC "-//W3C//DTD SVG 1.1//EN"
 "http://www.w3.org/Graphics/SVG/1.1/DTD/svg11.dtd">
<!-- Generated by graphviz version 2.43.0 (0)
 -->
<!-- Title: WindowTXT::clear Pages: 1 -->
<svg width="451pt" height="66pt"
 viewBox="0.00 0.00 451.00 66.00" xmlns="http://www.w3.org/2000/svg" xmlns:xlink="http://www.w3.org/1999/xlink">
<g id="graph0" class="graph" transform="scale(1 1) rotate(0) translate(4 62)">
<title>WindowTXT::clear</title>
<!-- Node1 -->
<g id="node1" class="node">
<title>Node1</title>
<g id="a_node1"><a xlink:title=" ">
<polygon fill="#bfbfbf" stroke="black" points="339,-19.5 339,-38.5 443,-38.5 443,-19.5 339,-19.5"/>
<text text-anchor="middle" x="391" y="-26.5" font-family="Helvetica,sans-Serif" font-size="10.00">WindowTXT::clear</text>
</a>
</g>
</g>
<!-- Node2 -->
<g id="node2" class="node">
<title>Node2</title>
<g id="a_node2"><a xlink:href="_game_t_x_t_8cpp.html#a79f96f754efd066587bec9a3d0d0add7" target="_top" xlink:title=" ">
<polygon fill="none" stroke="black" points="206.5,-38.5 206.5,-57.5 262.5,-57.5 262.5,-38.5 206.5,-38.5"/>
<text text-anchor="middle" x="234.5" y="-45.5" font-family="Helvetica,sans-Serif" font-size="10.00">txtShow</text>
</a>
</g>
</g>
<!-- Node1&#45;&gt;Node2 -->
<g id="edge1" class="edge">
<title>Node1&#45;&gt;Node2</title>
<path fill="none" stroke="midnightblue" d="M328.94,-36.51C305.95,-39.34 280.96,-42.41 262.62,-44.67"/>
<polygon fill="midnightblue" stroke="midnightblue" points="329.48,-39.97 338.98,-35.27 328.63,-33.02 329.48,-39.97"/>
</g>
<!-- Node5 -->
<g id="node5" class="node">
<title>Node5</title>
<g id="a_node5"><a xlink:href="class_window_t_x_t.html#abeff0343c64358919da2302c43f32cb3" target="_top" xlink:title=" ">
<polygon fill="none" stroke="black" points="166,-0.5 166,-19.5 303,-19.5 303,-0.5 166,-0.5"/>
<text text-anchor="middle" x="234.5" y="-7.5" font-family="Helvetica,sans-Serif" font-size="10.00">WindowTXT::WindowTXT</text>
</a>
</g>
</g>
<!-- Node1&#45;&gt;Node5 -->
<g id="edge4" class="edge">
<title>Node1&#45;&gt;Node5</title>
<path fill="none" stroke="midnightblue" d="M328.88,-21.48C320.47,-20.45 311.8,-19.38 303.27,-18.33"/>
<polygon fill="midnightblue" stroke="midnightblue" points="328.63,-24.98 338.98,-22.73 329.48,-18.03 328.63,-24.98"/>
</g>
<!-- Node3 -->
<g id="node3" class="node">
<title>Node3</title>
<g id="a_node3"><a xlink:href="_game_t_x_t_8cpp.html#aa8f70cd3510ceae6f2dd1bd542fcaabd" target="_top" xlink:title=" ">
<polygon fill="none" stroke="black" points="77,-38.5 77,-57.5 130,-57.5 130,-38.5 77,-38.5"/>
<text text-anchor="middle" x="103.5" y="-45.5" font-family="Helvetica,sans-Serif" font-size="10.00">txtLoop</text>
</a>
</g>
</g>
<!-- Node2&#45;&gt;Node3 -->
<g id="edge2" class="edge">
<title>Node2&#45;&gt;Node3</title>
<path fill="none" stroke="midnightblue" d="M196.2,-48C175.03,-48 149.07,-48 130.19,-48"/>
<polygon fill="midnightblue" stroke="midnightblue" points="196.46,-51.5 206.46,-48 196.46,-44.5 196.46,-51.5"/>
</g>
<!-- Node4 -->
<g id="node4" class="node">
<title>Node4</title>
<g id="a_node4"><a xlink:href="main_t_x_t_8cpp.html#a840291bc02cba5474a4cb46a9b9566fe" target="_top" xlink:title=" ">
<polygon fill="none" stroke="black" points="0,-38.5 0,-57.5 41,-57.5 41,-38.5 0,-38.5"/>
<text text-anchor="middle" x="20.5" y="-45.5" font-family="Helvetica,sans-Serif" font-size="10.00">main</text>
</a>
</g>
</g>
<!-- Node3&#45;&gt;Node4 -->
<g id="edge3" class="edge">
<title>Node3&#45;&gt;Node4</title>
<path fill="none" stroke="midnightblue" d="M66.75,-48C57.92,-48 48.79,-48 41.06,-48"/>
<polygon fill="midnightblue" stroke="midnightblue" points="66.87,-51.5 76.87,-48 66.87,-44.5 66.87,-51.5"/>
</g>
</g>
</svg>
