<?xml version="1.0" encoding="UTF-8" standalone="no"?>
<!DOCTYPE svg PUBLIC "-//W3C//DTD SVG 1.1//EN"
 "http://www.w3.org/Graphics/SVG/1.1/DTD/svg11.dtd">
<!-- Generated by graphviz version 2.43.0 (0)
 -->
<!-- Title: Projectile::track Pages: 1 -->
<svg width="415pt" height="440pt"
 viewBox="0.00 0.00 415.00 440.45" xmlns="http://www.w3.org/2000/svg" xmlns:xlink="http://www.w3.org/1999/xlink">
<g id="graph0" class="graph" transform="scale(1 1) rotate(0) translate(4 436.45)">
<title>Projectile::track</title>
<!-- Node1 -->
<g id="node1" class="node">
<title>Node1</title>
<g id="a_node1"><a xlink:title=" ">
<polygon fill="#bfbfbf" stroke="black" points="0,-209.5 0,-228.5 93,-228.5 93,-209.5 0,-209.5"/>
<text text-anchor="middle" x="46.5" y="-216.5" font-family="Helvetica,sans-Serif" font-size="10.00">Projectile::track</text>
</a>
</g>
</g>
<!-- Node2 -->
<g id="node2" class="node">
<title>Node2</title>
<g id="a_node2"><a xlink:href="class_projectile.html#ae5645549de0ef4e2defdb3edd9fc57f0" target="_top" xlink:title=" ">
<polygon fill="none" stroke="black" points="129,-380.5 129,-399.5 247,-399.5 247,-380.5 129,-380.5"/>
<text text-anchor="middle" x="188" y="-387.5" font-family="Helvetica,sans-Serif" font-size="10.00">Projectile::directionX</text>
</a>
</g>
</g>
<!-- Node1&#45;&gt;Node2 -->
<g id="edge1" class="edge">
<title>Node1&#45;&gt;Node2</title>
<path fill="none" stroke="midnightblue" d="M50.36,-228.68C58.46,-254.49 83.93,-325.79 129,-366 133.43,-369.95 138.6,-373.31 143.99,-376.14"/>
<polygon fill="midnightblue" stroke="midnightblue" points="142.65,-379.38 153.19,-380.43 145.61,-373.03 142.65,-379.38"/>
</g>
<!-- Node3 -->
<g id="node3" class="node">
<title>Node3</title>
<g id="a_node3"><a xlink:href="class_entity.html#a758caa46a2a259ffc63d09616def9423" target="_top" xlink:title="Fonction retournant la position en x de l&#39;entité en const.">
<polygon fill="none" stroke="black" points="286,-399.5 286,-418.5 404,-418.5 404,-399.5 286,-399.5"/>
<text text-anchor="middle" x="345" y="-406.5" font-family="Helvetica,sans-Serif" font-size="10.00">Entity::getConstPosX</text>
</a>
</g>
</g>
<!-- Node1&#45;&gt;Node3 -->
<g id="edge7" class="edge">
<title>Node1&#45;&gt;Node3</title>
<path fill="none" stroke="midnightblue" d="M48.14,-228.79C50.88,-261.38 64.57,-366.53 129,-409 181.44,-443.57 257.84,-432.69 304.04,-421.18"/>
<polygon fill="midnightblue" stroke="midnightblue" points="305.19,-424.49 313.98,-418.57 303.42,-417.72 305.19,-424.49"/>
</g>
<!-- Node4 -->
<g id="node4" class="node">
<title>Node4</title>
<g id="a_node4"><a xlink:href="class_entity.html#a8e30cf9734be5d2037517b59d11ff412" target="_top" xlink:title="Fonction retournant la vitesse de l&#39;entité en const.">
<polygon fill="none" stroke="black" points="283,-342.5 283,-361.5 407,-361.5 407,-342.5 283,-342.5"/>
<text text-anchor="middle" x="345" y="-349.5" font-family="Helvetica,sans-Serif" font-size="10.00">Entity::getConstSpeed</text>
</a>
</g>
</g>
<!-- Node1&#45;&gt;Node4 -->
<g id="edge9" class="edge">
<title>Node1&#45;&gt;Node4</title>
<path fill="none" stroke="midnightblue" d="M51.15,-228.82C60.26,-251.74 86.33,-308.62 129,-333 172.31,-357.75 228.72,-361.9 272.89,-360.18"/>
<polygon fill="midnightblue" stroke="midnightblue" points="273.17,-363.67 282.98,-359.67 272.82,-356.67 273.17,-363.67"/>
</g>
<!-- Node5 -->
<g id="node5" class="node">
<title>Node5</title>
<g id="a_node5"><a xlink:href="class_projectile.html#a4fed5dda0d58cd0721bf8a20a005c594" target="_top" xlink:title=" ">
<polygon fill="none" stroke="black" points="129.5,-304.5 129.5,-323.5 246.5,-323.5 246.5,-304.5 129.5,-304.5"/>
<text text-anchor="middle" x="188" y="-311.5" font-family="Helvetica,sans-Serif" font-size="10.00">Projectile::directionY</text>
</a>
</g>
</g>
<!-- Node1&#45;&gt;Node5 -->
<g id="edge4" class="edge">
<title>Node1&#45;&gt;Node5</title>
<path fill="none" stroke="midnightblue" d="M56.71,-228.86C71.02,-243.72 99.96,-272.02 129,-290 135.31,-293.91 142.36,-297.43 149.31,-300.5"/>
<polygon fill="midnightblue" stroke="midnightblue" points="148.09,-303.78 158.66,-304.4 150.78,-297.32 148.09,-303.78"/>
</g>
<!-- Node6 -->
<g id="node6" class="node">
<title>Node6</title>
<g id="a_node6"><a xlink:href="class_entity.html#a44db7a4bd777f13d5316ca9151dffad7" target="_top" xlink:title="Fonction retournant la position en y de l&#39;entité en const.">
<polygon fill="none" stroke="black" points="286.5,-285.5 286.5,-304.5 403.5,-304.5 403.5,-285.5 286.5,-285.5"/>
<text text-anchor="middle" x="345" y="-292.5" font-family="Helvetica,sans-Serif" font-size="10.00">Entity::getConstPosY</text>
</a>
</g>
</g>
<!-- Node1&#45;&gt;Node6 -->
<g id="edge8" class="edge">
<title>Node1&#45;&gt;Node6</title>
<path fill="none" stroke="midnightblue" d="M64.46,-228.51C80.59,-237.16 105.77,-249.67 129,-257 177.19,-272.2 233.49,-281.88 276.39,-287.66"/>
<polygon fill="midnightblue" stroke="midnightblue" points="276.07,-291.15 286.44,-288.97 276.98,-284.21 276.07,-291.15"/>
</g>
<!-- Node7 -->
<g id="node7" class="node">
<title>Node7</title>
<g id="a_node7"><a xlink:href="class_entity.html#aa888515055b65c5ffa3c66f667c3a5c3" target="_top" xlink:title="Fonction retournant la position en x de l&#39;entité">
<polygon fill="none" stroke="black" points="143,-228.5 143,-247.5 233,-247.5 233,-228.5 143,-228.5"/>
<text text-anchor="middle" x="188" y="-235.5" font-family="Helvetica,sans-Serif" font-size="10.00">Entity::getPosX</text>
</a>
</g>
</g>
<!-- Node1&#45;&gt;Node7 -->
<g id="edge10" class="edge">
<title>Node1&#45;&gt;Node7</title>
<path fill="none" stroke="midnightblue" d="M93.18,-225.22C105.72,-226.93 119.44,-228.8 132.43,-230.57"/>
<polygon fill="midnightblue" stroke="midnightblue" points="132.26,-234.08 142.65,-231.96 133.21,-227.14 132.26,-234.08"/>
</g>
<!-- Node8 -->
<g id="node8" class="node">
<title>Node8</title>
<g id="a_node8"><a xlink:href="class_entity.html#afb4d00e5b5b27d6c69b00f8a5f6ed436" target="_top" xlink:title="Fonction retournant la position en y de l&#39;entité">
<polygon fill="none" stroke="black" points="143.5,-190.5 143.5,-209.5 232.5,-209.5 232.5,-190.5 143.5,-190.5"/>
<text text-anchor="middle" x="188" y="-197.5" font-family="Helvetica,sans-Serif" font-size="10.00">Entity::getPosY</text>
</a>
</g>
</g>
<!-- Node1&#45;&gt;Node8 -->
<g id="edge11" class="edge">
<title>Node1&#45;&gt;Node8</title>
<path fill="none" stroke="midnightblue" d="M93.18,-212.78C105.97,-211.04 119.99,-209.13 133.2,-207.33"/>
<polygon fill="midnightblue" stroke="midnightblue" points="133.68,-210.79 143.12,-205.98 132.74,-203.86 133.68,-210.79"/>
</g>
<!-- Node9 -->
<g id="node9" class="node">
<title>Node9</title>
<g id="a_node9"><a xlink:href="class_entity.html#adbd6cd7e606bffb2fc7b061ddd13ea14" target="_top" xlink:title="Fonction retournant les PV de l&#39;entité en const.">
<polygon fill="none" stroke="black" points="148.5,-152.5 148.5,-171.5 227.5,-171.5 227.5,-152.5 148.5,-152.5"/>
<text text-anchor="middle" x="188" y="-159.5" font-family="Helvetica,sans-Serif" font-size="10.00">Entity::getPV</text>
</a>
</g>
</g>
<!-- Node1&#45;&gt;Node9 -->
<g id="edge12" class="edge">
<title>Node1&#45;&gt;Node9</title>
<path fill="none" stroke="midnightblue" d="M66.32,-209.44C82.66,-201.33 107.08,-189.67 129,-181 134.43,-178.85 140.21,-176.75 145.93,-174.77"/>
<polygon fill="midnightblue" stroke="midnightblue" points="147.09,-178.08 155.45,-171.58 144.86,-171.44 147.09,-178.08"/>
</g>
<!-- Node10 -->
<g id="node10" class="node">
<title>Node10</title>
<g id="a_node10"><a xlink:href="class_entity.html#abdd4f6821f64524d42bdf29baa7375b5" target="_top" xlink:title="Procédure définissant la position en x et en y.">
<polygon fill="none" stroke="black" points="146.5,-114.5 146.5,-133.5 229.5,-133.5 229.5,-114.5 146.5,-114.5"/>
<text text-anchor="middle" x="188" y="-121.5" font-family="Helvetica,sans-Serif" font-size="10.00">Entity::setPos</text>
</a>
</g>
</g>
<!-- Node1&#45;&gt;Node10 -->
<g id="edge13" class="edge">
<title>Node1&#45;&gt;Node10</title>
<path fill="none" stroke="midnightblue" d="M55.28,-209.42C68.72,-193.47 97.85,-161.4 129,-143 132.59,-140.88 136.45,-138.96 140.41,-137.23"/>
<polygon fill="midnightblue" stroke="midnightblue" points="141.74,-140.47 149.75,-133.54 139.17,-133.96 141.74,-140.47"/>
</g>
<!-- Node11 -->
<g id="node11" class="node">
<title>Node11</title>
<g id="a_node11"><a xlink:href="class_entity.html#a4333a5eb508029a6ab2a34c072b3c50f" target="_top" xlink:title="Procédure définissant la position en x.">
<polygon fill="none" stroke="black" points="143.5,-76.5 143.5,-95.5 232.5,-95.5 232.5,-76.5 143.5,-76.5"/>
<text text-anchor="middle" x="188" y="-83.5" font-family="Helvetica,sans-Serif" font-size="10.00">Entity::setPosX</text>
</a>
</g>
</g>
<!-- Node1&#45;&gt;Node11 -->
<g id="edge14" class="edge">
<title>Node1&#45;&gt;Node11</title>
<path fill="none" stroke="midnightblue" d="M51.71,-209.48C61.82,-187.71 89.58,-133.94 129,-105 131.52,-103.15 134.24,-101.47 137.06,-99.95"/>
<polygon fill="midnightblue" stroke="midnightblue" points="138.79,-103.01 146.38,-95.62 135.84,-96.66 138.79,-103.01"/>
</g>
<!-- Node12 -->
<g id="node12" class="node">
<title>Node12</title>
<g id="a_node12"><a xlink:href="class_entity.html#a818d626382f59946d0e0ca8111df6657" target="_top" xlink:title="Procédure définissant la position en y.">
<polygon fill="none" stroke="black" points="143.5,-38.5 143.5,-57.5 232.5,-57.5 232.5,-38.5 143.5,-38.5"/>
<text text-anchor="middle" x="188" y="-45.5" font-family="Helvetica,sans-Serif" font-size="10.00">Entity::setPosY</text>
</a>
</g>
</g>
<!-- Node1&#45;&gt;Node12 -->
<g id="edge15" class="edge">
<title>Node1&#45;&gt;Node12</title>
<path fill="none" stroke="midnightblue" d="M49.99,-209.19C57.3,-182.35 81.27,-107.01 129,-67 131.03,-65.3 133.21,-63.76 135.49,-62.35"/>
<polygon fill="midnightblue" stroke="midnightblue" points="137.47,-65.27 144.74,-57.56 134.25,-59.05 137.47,-65.27"/>
</g>
<!-- Node13 -->
<g id="node13" class="node">
<title>Node13</title>
<g id="a_node13"><a xlink:href="class_entity.html#af43254cad39f33e56cf48d74e95e4cef" target="_top" xlink:title="Procedure définissant les PV de l&#39;entité">
<polygon fill="none" stroke="black" points="149,-0.5 149,-19.5 227,-19.5 227,-0.5 149,-0.5"/>
<text text-anchor="middle" x="188" y="-7.5" font-family="Helvetica,sans-Serif" font-size="10.00">Entity::setPV</text>
</a>
</g>
</g>
<!-- Node1&#45;&gt;Node13 -->
<g id="edge16" class="edge">
<title>Node1&#45;&gt;Node13</title>
<path fill="none" stroke="midnightblue" d="M48.85,-209.09C53.63,-177.87 72.6,-80.61 129,-29 132.17,-26.1 135.78,-23.65 139.63,-21.57"/>
<polygon fill="midnightblue" stroke="midnightblue" points="141.25,-24.67 148.91,-17.35 138.35,-18.3 141.25,-24.67"/>
</g>
<!-- Node2&#45;&gt;Node3 -->
<g id="edge2" class="edge">
<title>Node2&#45;&gt;Node3</title>
<path fill="none" stroke="midnightblue" d="M247.16,-397.13C256.43,-398.27 266.1,-399.45 275.58,-400.61"/>
<polygon fill="midnightblue" stroke="midnightblue" points="275.42,-404.12 285.77,-401.86 276.27,-397.17 275.42,-404.12"/>
</g>
<!-- Node2&#45;&gt;Node4 -->
<g id="edge3" class="edge">
<title>Node2&#45;&gt;Node4</title>
<path fill="none" stroke="midnightblue" d="M228.11,-380.41C248.47,-375.42 273.57,-369.27 295.19,-363.97"/>
<polygon fill="midnightblue" stroke="midnightblue" points="296.29,-367.3 305.17,-361.52 294.62,-360.5 296.29,-367.3"/>
</g>
<!-- Node5&#45;&gt;Node4 -->
<g id="edge6" class="edge">
<title>Node5&#45;&gt;Node4</title>
<path fill="none" stroke="midnightblue" d="M228.11,-323.59C248.47,-328.58 273.57,-334.73 295.19,-340.03"/>
<polygon fill="midnightblue" stroke="midnightblue" points="294.62,-343.5 305.17,-342.48 296.29,-336.7 294.62,-343.5"/>
</g>
<!-- Node5&#45;&gt;Node6 -->
<g id="edge5" class="edge">
<title>Node5&#45;&gt;Node6</title>
<path fill="none" stroke="midnightblue" d="M246.72,-306.93C256.36,-305.74 266.45,-304.51 276.32,-303.3"/>
<polygon fill="midnightblue" stroke="midnightblue" points="276.99,-306.74 286.49,-302.05 276.14,-299.79 276.99,-306.74"/>
</g>
</g>
</svg>
