<?xml version="1.0" encoding="UTF-8" standalone="no"?>
<!DOCTYPE svg PUBLIC "-//W3C//DTD SVG 1.1//EN"
 "http://www.w3.org/Graphics/SVG/1.1/DTD/svg11.dtd">
<!-- Generated by graphviz version 2.43.0 (0)
 -->
<!-- Title: Enemy::walk Pages: 1 -->
<svg width="585pt" height="510pt"
 viewBox="0.00 0.00 585.00 510.39" xmlns="http://www.w3.org/2000/svg" xmlns:xlink="http://www.w3.org/1999/xlink">
<g id="graph0" class="graph" transform="scale(1 1) rotate(0) translate(4 506.39)">
<title>Enemy::walk</title>
<!-- Node1 -->
<g id="node1" class="node">
<title>Node1</title>
<g id="a_node1"><a xlink:title=" ">
<polygon fill="#bfbfbf" stroke="black" points="0,-190.5 0,-209.5 79,-209.5 79,-190.5 0,-190.5"/>
<text text-anchor="middle" x="39.5" y="-197.5" font-family="Helvetica,sans-Serif" font-size="10.00">Enemy::walk</text>
</a>
</g>
</g>
<!-- Node2 -->
<g id="node2" class="node">
<title>Node2</title>
<g id="a_node2"><a xlink:href="class_enemy.html#adf23e5e83dc77b5b9896df6deaab9528" target="_top" xlink:title=" ">
<polygon fill="none" stroke="black" points="115,-418.5 115,-437.5 255,-437.5 255,-418.5 115,-418.5"/>
<text text-anchor="middle" x="185" y="-425.5" font-family="Helvetica,sans-Serif" font-size="10.00">Enemy::enemyDirectionX</text>
</a>
</g>
</g>
<!-- Node1&#45;&gt;Node2 -->
<g id="edge1" class="edge">
<title>Node1&#45;&gt;Node2</title>
<path fill="none" stroke="midnightblue" d="M41.18,-209.64C43.95,-241.89 57.24,-347.12 115,-404 119.01,-407.95 123.7,-411.25 128.72,-414.01"/>
<polygon fill="midnightblue" stroke="midnightblue" points="127.49,-417.3 138.03,-418.41 130.49,-410.97 127.49,-417.3"/>
</g>
<!-- Node4 -->
<g id="node4" class="node">
<title>Node4</title>
<g id="a_node4"><a xlink:href="class_entity.html#a632a853b65d0468f138bc35efc0d317b" target="_top" xlink:title="Accesseur renvoyant la position en x d&#39;un ennemi de type const.">
<polygon fill="none" stroke="black" points="459,-380.5 459,-399.5 577,-399.5 577,-380.5 459,-380.5"/>
<text text-anchor="middle" x="518" y="-387.5" font-family="Helvetica,sans-Serif" font-size="10.00">Entity::getConstPosX</text>
</a>
</g>
</g>
<!-- Node1&#45;&gt;Node4 -->
<g id="edge13" class="edge">
<title>Node1&#45;&gt;Node4</title>
<path fill="none" stroke="midnightblue" d="M44.11,-209.53C52.85,-231.32 77.24,-285.14 115,-314 212.75,-388.71 362.25,-397.11 448.73,-394.74"/>
<polygon fill="midnightblue" stroke="midnightblue" points="449.08,-398.23 458.96,-394.4 448.85,-391.23 449.08,-398.23"/>
</g>
<!-- Node5 -->
<g id="node5" class="node">
<title>Node5</title>
<g id="a_node5"><a xlink:href="class_entity.html#a280a384eddb9c7bfb96547adfbb8f515" target="_top" xlink:title="Accesseur renvoyant la position en y d&#39;un ennemi de type const.">
<polygon fill="none" stroke="black" points="459.5,-266.5 459.5,-285.5 576.5,-285.5 576.5,-266.5 459.5,-266.5"/>
<text text-anchor="middle" x="518" y="-273.5" font-family="Helvetica,sans-Serif" font-size="10.00">Entity::getConstPosY</text>
</a>
</g>
</g>
<!-- Node1&#45;&gt;Node5 -->
<g id="edge14" class="edge">
<title>Node1&#45;&gt;Node5</title>
<path fill="none" stroke="midnightblue" d="M79.19,-196.92C149.33,-192.53 301.48,-188.53 423,-224 449.8,-231.82 477.4,-248.28 495.7,-260.6"/>
<polygon fill="midnightblue" stroke="midnightblue" points="493.92,-263.62 504.13,-266.42 497.9,-257.86 493.92,-263.62"/>
</g>
<!-- Node6 -->
<g id="node6" class="node">
<title>Node6</title>
<g id="a_node6"><a xlink:href="class_road.html#a3d9af22c8a684b0fde2ce1b390d27d2a" target="_top" xlink:title="Accesseur du PointX, recupère sa valeur.">
<polygon fill="none" stroke="black" points="470.5,-456.5 470.5,-475.5 565.5,-475.5 565.5,-456.5 470.5,-456.5"/>
<text text-anchor="middle" x="518" y="-463.5" font-family="Helvetica,sans-Serif" font-size="10.00">Road::getPointX</text>
</a>
</g>
</g>
<!-- Node1&#45;&gt;Node6 -->
<g id="edge16" class="edge">
<title>Node1&#45;&gt;Node6</title>
<path fill="none" stroke="midnightblue" d="M39.95,-209.61C38.41,-247.19 38.29,-385.15 115,-447 220.28,-531.89 396.17,-499.27 475.71,-478.31"/>
<polygon fill="midnightblue" stroke="midnightblue" points="477.09,-481.56 485.82,-475.57 475.26,-474.81 477.09,-481.56"/>
</g>
<!-- Node7 -->
<g id="node7" class="node">
<title>Node7</title>
<g id="a_node7"><a xlink:href="class_road.html#ab7507b9872a1990388e7fa18d3c3253f" target="_top" xlink:title="Accesseur du PointY, récupère sa valeur.">
<polygon fill="none" stroke="black" points="471,-304.5 471,-323.5 565,-323.5 565,-304.5 471,-304.5"/>
<text text-anchor="middle" x="518" y="-311.5" font-family="Helvetica,sans-Serif" font-size="10.00">Road::getPointY</text>
</a>
</g>
</g>
<!-- Node1&#45;&gt;Node7 -->
<g id="edge17" class="edge">
<title>Node1&#45;&gt;Node7</title>
<path fill="none" stroke="midnightblue" d="M79.09,-209.23C164.92,-229.77 371.56,-279.2 467.06,-302.05"/>
<polygon fill="midnightblue" stroke="midnightblue" points="466.5,-305.52 477.04,-304.44 468.13,-298.71 466.5,-305.52"/>
</g>
<!-- Node8 -->
<g id="node8" class="node">
<title>Node8</title>
<g id="a_node8"><a xlink:href="class_enemy.html#aa7a5add0fb6b2e1af8dbf174415fb482" target="_top" xlink:title=" ">
<polygon fill="none" stroke="black" points="115,-285.5 115,-304.5 255,-304.5 255,-285.5 115,-285.5"/>
<text text-anchor="middle" x="185" y="-292.5" font-family="Helvetica,sans-Serif" font-size="10.00">Enemy::enemyDirectionY</text>
</a>
</g>
</g>
<!-- Node1&#45;&gt;Node8 -->
<g id="edge9" class="edge">
<title>Node1&#45;&gt;Node8</title>
<path fill="none" stroke="midnightblue" d="M53.81,-209.61C68.61,-220.21 93.28,-237.66 115,-252 129.64,-261.66 146.34,-272.08 159.64,-280.24"/>
<polygon fill="midnightblue" stroke="midnightblue" points="157.87,-283.27 168.23,-285.5 161.52,-277.3 157.87,-283.27"/>
</g>
<!-- Node9 -->
<g id="node9" class="node">
<title>Node9</title>
<g id="a_node9"><a xlink:href="class_entity.html#a285dfcfbbc0ca74d0637c15f427eb6d3" target="_top" xlink:title="Accesseur renvoyant la vitesse d&#39;un ennemi de type const.">
<polygon fill="none" stroke="black" points="123,-152.5 123,-171.5 247,-171.5 247,-152.5 123,-152.5"/>
<text text-anchor="middle" x="185" y="-159.5" font-family="Helvetica,sans-Serif" font-size="10.00">Entity::getConstSpeed</text>
</a>
</g>
</g>
<!-- Node1&#45;&gt;Node9 -->
<g id="edge15" class="edge">
<title>Node1&#45;&gt;Node9</title>
<path fill="none" stroke="midnightblue" d="M76.71,-190.41C95.32,-185.48 118.2,-179.43 138.04,-174.17"/>
<polygon fill="midnightblue" stroke="midnightblue" points="139.03,-177.53 147.8,-171.59 137.24,-170.76 139.03,-177.53"/>
</g>
<!-- Node10 -->
<g id="node10" class="node">
<title>Node10</title>
<g id="a_node10"><a xlink:href="class_entity.html#abc07607e9d85670694097ac4b6b6dd27" target="_top" xlink:title="Accesseur renvoyant la position en x d&#39;une entité">
<polygon fill="none" stroke="black" points="140,-114.5 140,-133.5 230,-133.5 230,-114.5 140,-114.5"/>
<text text-anchor="middle" x="185" y="-121.5" font-family="Helvetica,sans-Serif" font-size="10.00">Entity::getPosX</text>
</a>
</g>
</g>
<!-- Node1&#45;&gt;Node10 -->
<g id="edge18" class="edge">
<title>Node1&#45;&gt;Node10</title>
<path fill="none" stroke="midnightblue" d="M50.72,-190.08C64.32,-177.41 89.62,-155.6 115,-143 119.87,-140.58 125.09,-138.44 130.4,-136.54"/>
<polygon fill="midnightblue" stroke="midnightblue" points="131.58,-139.83 139.99,-133.39 129.4,-133.18 131.58,-139.83"/>
</g>
<!-- Node11 -->
<g id="node11" class="node">
<title>Node11</title>
<g id="a_node11"><a xlink:href="class_entity.html#adc3a7257facf71297850bc86b705b503" target="_top" xlink:title="Accesseur renvoyant la position en y d&#39;une entité">
<polygon fill="none" stroke="black" points="140.5,-76.5 140.5,-95.5 229.5,-95.5 229.5,-76.5 140.5,-76.5"/>
<text text-anchor="middle" x="185" y="-83.5" font-family="Helvetica,sans-Serif" font-size="10.00">Entity::getPosY</text>
</a>
</g>
</g>
<!-- Node1&#45;&gt;Node11 -->
<g id="edge19" class="edge">
<title>Node1&#45;&gt;Node11</title>
<path fill="none" stroke="midnightblue" d="M45.38,-190.25C55.56,-170.91 80.98,-127.65 115,-105 119.84,-101.78 125.21,-99.1 130.76,-96.88"/>
<polygon fill="midnightblue" stroke="midnightblue" points="131.94,-100.17 140.21,-93.54 129.61,-93.57 131.94,-100.17"/>
</g>
<!-- Node12 -->
<g id="node12" class="node">
<title>Node12</title>
<g id="a_node12"><a xlink:href="class_entity.html#a36acb34214fabf4355ea9068543c2435" target="_top" xlink:title="Accesseur modifiant la position en x d&#39;un ennemi.">
<polygon fill="none" stroke="black" points="140.5,-38.5 140.5,-57.5 229.5,-57.5 229.5,-38.5 140.5,-38.5"/>
<text text-anchor="middle" x="185" y="-45.5" font-family="Helvetica,sans-Serif" font-size="10.00">Entity::setPosX</text>
</a>
</g>
</g>
<!-- Node1&#45;&gt;Node12 -->
<g id="edge20" class="edge">
<title>Node1&#45;&gt;Node12</title>
<path fill="none" stroke="midnightblue" d="M43.11,-190.25C50.21,-165.62 72.29,-100.46 115,-67 119.7,-63.32 125.07,-60.35 130.68,-57.96"/>
<polygon fill="midnightblue" stroke="midnightblue" points="132.11,-61.16 140.3,-54.45 129.71,-54.59 132.11,-61.16"/>
</g>
<!-- Node13 -->
<g id="node13" class="node">
<title>Node13</title>
<g id="a_node13"><a xlink:href="class_entity.html#a2043f8c1dbb431cd210ec30f0ae8feeb" target="_top" xlink:title="Accesseur modifiant la position en y d&#39;un ennemi.">
<polygon fill="none" stroke="black" points="140.5,-0.5 140.5,-19.5 229.5,-19.5 229.5,-0.5 140.5,-0.5"/>
<text text-anchor="middle" x="185" y="-7.5" font-family="Helvetica,sans-Serif" font-size="10.00">Entity::setPosY</text>
</a>
</g>
</g>
<!-- Node1&#45;&gt;Node13 -->
<g id="edge21" class="edge">
<title>Node1&#45;&gt;Node13</title>
<path fill="none" stroke="midnightblue" d="M41.81,-190.16C46.24,-160.9 63.38,-73.76 115,-29 119.57,-25.04 124.9,-21.89 130.53,-19.4"/>
<polygon fill="midnightblue" stroke="midnightblue" points="132.07,-22.57 140.21,-15.8 129.62,-16.01 132.07,-22.57"/>
</g>
<!-- Node3 -->
<g id="node3" class="node">
<title>Node3</title>
<g id="a_node3"><a xlink:href="class_enemy.html#ae96ba0b49cf1ab2f02087e1025d68e4a" target="_top" xlink:title=" ">
<polygon fill="none" stroke="black" points="291,-342.5 291,-361.5 423,-361.5 423,-342.5 291,-342.5"/>
<text text-anchor="middle" x="357" y="-349.5" font-family="Helvetica,sans-Serif" font-size="10.00">Enemy::enemyDistance</text>
</a>
</g>
</g>
<!-- Node2&#45;&gt;Node3 -->
<g id="edge2" class="edge">
<title>Node2&#45;&gt;Node3</title>
<path fill="none" stroke="midnightblue" d="M207.53,-418.37C237.29,-405.07 291.18,-380.98 325.19,-365.77"/>
<polygon fill="midnightblue" stroke="midnightblue" points="326.94,-368.82 334.64,-361.55 324.09,-362.43 326.94,-368.82"/>
</g>
<!-- Node2&#45;&gt;Node4 -->
<g id="edge7" class="edge">
<title>Node2&#45;&gt;Node4</title>
<path fill="none" stroke="midnightblue" d="M255.06,-421.87C302.39,-417.46 366.57,-411.05 423,-404 431.35,-402.96 440.11,-401.77 448.78,-400.54"/>
<polygon fill="midnightblue" stroke="midnightblue" points="449.49,-403.98 458.89,-399.09 448.5,-397.05 449.49,-403.98"/>
</g>
<!-- Node2&#45;&gt;Node6 -->
<g id="edge8" class="edge">
<title>Node2&#45;&gt;Node6</title>
<path fill="none" stroke="midnightblue" d="M255.39,-435.97C316.07,-442.93 403.12,-452.93 459.86,-459.44"/>
<polygon fill="midnightblue" stroke="midnightblue" points="459.75,-462.95 470.09,-460.61 460.55,-456 459.75,-462.95"/>
</g>
<!-- Node3&#45;&gt;Node4 -->
<g id="edge3" class="edge">
<title>Node3&#45;&gt;Node4</title>
<path fill="none" stroke="midnightblue" d="M398.12,-361.59C419.1,-366.6 444.98,-372.79 467.23,-378.11"/>
<polygon fill="midnightblue" stroke="midnightblue" points="466.63,-381.56 477.17,-380.48 468.25,-374.75 466.63,-381.56"/>
</g>
<!-- Node3&#45;&gt;Node5 -->
<g id="edge4" class="edge">
<title>Node3&#45;&gt;Node5</title>
<path fill="none" stroke="midnightblue" d="M372.91,-342.34C392.21,-330.14 427.13,-309.05 459,-295 463.97,-292.81 469.27,-290.73 474.58,-288.82"/>
<polygon fill="midnightblue" stroke="midnightblue" points="475.75,-292.12 484.06,-285.54 473.46,-285.5 475.75,-292.12"/>
</g>
<!-- Node3&#45;&gt;Node6 -->
<g id="edge5" class="edge">
<title>Node3&#45;&gt;Node6</title>
<path fill="none" stroke="midnightblue" d="M371.28,-361.52C398.69,-381.17 461.73,-426.37 495.2,-450.37"/>
<polygon fill="midnightblue" stroke="midnightblue" points="493.25,-453.28 503.42,-456.26 497.33,-447.59 493.25,-453.28"/>
</g>
<!-- Node3&#45;&gt;Node7 -->
<g id="edge6" class="edge">
<title>Node3&#45;&gt;Node7</title>
<path fill="none" stroke="midnightblue" d="M398.12,-342.41C419.1,-337.4 444.98,-331.21 467.23,-325.89"/>
<polygon fill="midnightblue" stroke="midnightblue" points="468.25,-329.25 477.17,-323.52 466.63,-322.44 468.25,-329.25"/>
</g>
<!-- Node8&#45;&gt;Node3 -->
<g id="edge10" class="edge">
<title>Node8&#45;&gt;Node3</title>
<path fill="none" stroke="midnightblue" d="M214.45,-304.54C242.77,-314.03 286.41,-328.67 317.75,-339.17"/>
<polygon fill="midnightblue" stroke="midnightblue" points="316.86,-342.57 327.45,-342.43 319.08,-335.93 316.86,-342.57"/>
</g>
<!-- Node8&#45;&gt;Node5 -->
<g id="edge11" class="edge">
<title>Node8&#45;&gt;Node5</title>
<path fill="none" stroke="midnightblue" d="M255.39,-291.02C312.32,-287.75 392.47,-283.15 449.01,-279.9"/>
<polygon fill="midnightblue" stroke="midnightblue" points="449.5,-283.38 459.28,-279.31 449.1,-276.39 449.5,-283.38"/>
</g>
<!-- Node8&#45;&gt;Node7 -->
<g id="edge12" class="edge">
<title>Node8&#45;&gt;Node7</title>
<path fill="none" stroke="midnightblue" d="M255.39,-298.98C316.24,-302.48 403.63,-307.49 460.36,-310.75"/>
<polygon fill="midnightblue" stroke="midnightblue" points="460.4,-314.26 470.58,-311.34 460.8,-307.27 460.4,-314.26"/>
</g>
</g>
</svg>
