<?xml version="1.0" encoding="UTF-8" standalone="no"?>
<!DOCTYPE svg PUBLIC "-//W3C//DTD SVG 1.1//EN"
 "http://www.w3.org/Graphics/SVG/1.1/DTD/svg11.dtd">
<!-- Generated by graphviz version 2.43.0 (0)
 -->
<!-- Title: Projectile::inRange Pages: 1 -->
<svg width="270pt" height="104pt"
 viewBox="0.00 0.00 270.00 104.00" xmlns="http://www.w3.org/2000/svg" xmlns:xlink="http://www.w3.org/1999/xlink">
<g id="graph0" class="graph" transform="scale(1 1) rotate(0) translate(4 100)">
<title>Projectile::inRange</title>
<!-- Node1 -->
<g id="node1" class="node">
<title>Node1</title>
<g id="a_node1"><a xlink:title="Fonction modifiant la donnée membre inRange en fonction de la distance entre un ennemi et une tour.">
<polygon fill="#bfbfbf" stroke="black" points="0,-38.5 0,-57.5 108,-57.5 108,-38.5 0,-38.5"/>
<text text-anchor="middle" x="54" y="-45.5" font-family="Helvetica,sans-Serif" font-size="10.00">Projectile::inRange</text>
</a>
</g>
</g>
<!-- Node2 -->
<g id="node2" class="node">
<title>Node2</title>
<g id="a_node2"><a xlink:href="class_entity.html#a632a853b65d0468f138bc35efc0d317b" target="_top" xlink:title="Accesseur renvoyant la position en x d&#39;un ennemi de type const.">
<polygon fill="none" stroke="black" points="144,-76.5 144,-95.5 262,-95.5 262,-76.5 144,-76.5"/>
<text text-anchor="middle" x="203" y="-83.5" font-family="Helvetica,sans-Serif" font-size="10.00">Entity::getConstPosX</text>
</a>
</g>
</g>
<!-- Node1&#45;&gt;Node2 -->
<g id="edge1" class="edge">
<title>Node1&#45;&gt;Node2</title>
<path fill="none" stroke="midnightblue" d="M92.09,-57.59C111.32,-62.56 134.99,-68.68 155.43,-73.96"/>
<polygon fill="midnightblue" stroke="midnightblue" points="154.61,-77.37 165.17,-76.48 156.37,-70.59 154.61,-77.37"/>
</g>
<!-- Node3 -->
<g id="node3" class="node">
<title>Node3</title>
<g id="a_node3"><a xlink:href="class_entity.html#a280a384eddb9c7bfb96547adfbb8f515" target="_top" xlink:title="Accesseur renvoyant la position en y d&#39;un ennemi de type const.">
<polygon fill="none" stroke="black" points="144.5,-38.5 144.5,-57.5 261.5,-57.5 261.5,-38.5 144.5,-38.5"/>
<text text-anchor="middle" x="203" y="-45.5" font-family="Helvetica,sans-Serif" font-size="10.00">Entity::getConstPosY</text>
</a>
</g>
</g>
<!-- Node1&#45;&gt;Node3 -->
<g id="edge2" class="edge">
<title>Node1&#45;&gt;Node3</title>
<path fill="none" stroke="midnightblue" d="M108.07,-48C116.52,-48 125.37,-48 134.11,-48"/>
<polygon fill="midnightblue" stroke="midnightblue" points="134.28,-51.5 144.28,-48 134.28,-44.5 134.28,-51.5"/>
</g>
<!-- Node4 -->
<g id="node4" class="node">
<title>Node4</title>
<g id="a_node4"><a xlink:href="class_tower.html#aec46f3ace5aa79591e33b8b7355539c1" target="_top" xlink:title="Accesseur renvoyant la valeur de la donnée membre range.">
<polygon fill="none" stroke="black" points="154,-0.5 154,-19.5 252,-19.5 252,-0.5 154,-0.5"/>
<text text-anchor="middle" x="203" y="-7.5" font-family="Helvetica,sans-Serif" font-size="10.00">Tower::getRange</text>
</a>
</g>
</g>
<!-- Node1&#45;&gt;Node4 -->
<g id="edge3" class="edge">
<title>Node1&#45;&gt;Node4</title>
<path fill="none" stroke="midnightblue" d="M92.09,-38.41C111.32,-33.44 134.99,-27.32 155.43,-22.04"/>
<polygon fill="midnightblue" stroke="midnightblue" points="156.37,-25.41 165.17,-19.52 154.61,-18.63 156.37,-25.41"/>
</g>
</g>
</svg>
