<?xml version="1.0" encoding="UTF-8" standalone="no"?>
<!DOCTYPE svg PUBLIC "-//W3C//DTD SVG 1.1//EN"
 "http://www.w3.org/Graphics/SVG/1.1/DTD/svg11.dtd">
<!-- Generated by graphviz version 2.43.0 (0)
 -->
<!-- Title: Tower Pages: 1 -->
<svg width="111pt" height="441pt"
 viewBox="0.00 0.00 111.00 441.00" xmlns="http://www.w3.org/2000/svg" xmlns:xlink="http://www.w3.org/1999/xlink">
<g id="graph0" class="graph" transform="scale(1 1) rotate(0) translate(4 437)">
<title>Tower</title>
<!-- Node1 -->
<g id="node1" class="node">
<title>Node1</title>
<g id="a_node1"><a xlink:title=" ">
<polygon fill="#bfbfbf" stroke="black" points="10.5,-0.5 10.5,-134.5 92.5,-134.5 92.5,-0.5 10.5,-0.5"/>
<text text-anchor="middle" x="51.5" y="-122.5" font-family="Helvetica,sans-Serif" font-size="10.00">Tower</text>
<polyline fill="none" stroke="black" points="10.5,-115.5 92.5,-115.5 "/>
<text text-anchor="start" x="18.5" y="-103.5" font-family="Helvetica,sans-Serif" font-size="10.00">+ level</text>
<polyline fill="none" stroke="black" points="10.5,-96.5 92.5,-96.5 "/>
<text text-anchor="start" x="18.5" y="-84.5" font-family="Helvetica,sans-Serif" font-size="10.00">+ Tower()</text>
<text text-anchor="start" x="18.5" y="-73.5" font-family="Helvetica,sans-Serif" font-size="10.00">+ ~Tower()</text>
<text text-anchor="start" x="18.5" y="-62.5" font-family="Helvetica,sans-Serif" font-size="10.00">+ setRange()</text>
<text text-anchor="start" x="18.5" y="-51.5" font-family="Helvetica,sans-Serif" font-size="10.00">+ getRange()</text>
<text text-anchor="start" x="18.5" y="-40.5" font-family="Helvetica,sans-Serif" font-size="10.00">+ setPrice()</text>
<text text-anchor="start" x="18.5" y="-29.5" font-family="Helvetica,sans-Serif" font-size="10.00">+ getPrice()</text>
<text text-anchor="start" x="18.5" y="-18.5" font-family="Helvetica,sans-Serif" font-size="10.00">+ setLevel()</text>
<text text-anchor="start" x="18.5" y="-7.5" font-family="Helvetica,sans-Serif" font-size="10.00">+ getLevel()</text>
</a>
</g>
</g>
<!-- Node2 -->
<g id="node2" class="node">
<title>Node2</title>
<g id="a_node2"><a xlink:href="class_entity.html" target="_top" xlink:title="Classe gérant toutes les entités présentes dans le jeu (Ennemis, Tours, Projectiles,...">
<polygon fill="none" stroke="black" points="0,-171.5 0,-338.5 103,-338.5 103,-171.5 0,-171.5"/>
<text text-anchor="middle" x="51.5" y="-326.5" font-family="Helvetica,sans-Serif" font-size="10.00">Entity</text>
<polyline fill="none" stroke="black" points="0,-319.5 103,-319.5 "/>
<text text-anchor="start" x="8" y="-307.5" font-family="Helvetica,sans-Serif" font-size="10.00">+ path</text>
<polyline fill="none" stroke="black" points="0,-300.5 103,-300.5 "/>
<text text-anchor="start" x="8" y="-288.5" font-family="Helvetica,sans-Serif" font-size="10.00">+ Entity()</text>
<text text-anchor="start" x="8" y="-277.5" font-family="Helvetica,sans-Serif" font-size="10.00">+ ~Entity()</text>
<text text-anchor="start" x="8" y="-266.5" font-family="Helvetica,sans-Serif" font-size="10.00">+ getPosX()</text>
<text text-anchor="start" x="8" y="-255.5" font-family="Helvetica,sans-Serif" font-size="10.00">+ getPosY()</text>
<text text-anchor="start" x="8" y="-244.5" font-family="Helvetica,sans-Serif" font-size="10.00">+ getConstPosX()</text>
<text text-anchor="start" x="8" y="-233.5" font-family="Helvetica,sans-Serif" font-size="10.00">+ getConstPosY()</text>
<text text-anchor="start" x="8" y="-222.5" font-family="Helvetica,sans-Serif" font-size="10.00">+ setPos()</text>
<text text-anchor="start" x="8" y="-211.5" font-family="Helvetica,sans-Serif" font-size="10.00">+ setPosX()</text>
<text text-anchor="start" x="8" y="-200.5" font-family="Helvetica,sans-Serif" font-size="10.00">+ setPosY()</text>
<text text-anchor="start" x="8" y="-189.5" font-family="Helvetica,sans-Serif" font-size="10.00">+ setSpeed()</text>
<text text-anchor="start" x="8" y="-178.5" font-family="Helvetica,sans-Serif" font-size="10.00">and 9 more...</text>
</a>
</g>
</g>
<!-- Node2&#45;&gt;Node1 -->
<g id="edge1" class="edge">
<title>Node2&#45;&gt;Node1</title>
<path fill="none" stroke="midnightblue" d="M51.5,-161.19C51.5,-152.22 51.5,-143.26 51.5,-134.64"/>
<polygon fill="none" stroke="midnightblue" points="48,-161.29 51.5,-171.29 55,-161.29 48,-161.29"/>
</g>
<!-- Node3 -->
<g id="node3" class="node">
<title>Node3</title>
<g id="a_node3"><a xlink:title=" ">
<polygon fill="none" stroke="#bfbfbf" points="19.5,-375.5 19.5,-432.5 83.5,-432.5 83.5,-375.5 19.5,-375.5"/>
<text text-anchor="middle" x="51.5" y="-420.5" font-family="Helvetica,sans-Serif" font-size="10.00">EntitySDL</text>
<polyline fill="none" stroke="#bfbfbf" points="19.5,-413.5 83.5,-413.5 "/>
<text text-anchor="middle" x="51.5" y="-401.5" font-family="Helvetica,sans-Serif" font-size="10.00"> </text>
<polyline fill="none" stroke="#bfbfbf" points="19.5,-394.5 83.5,-394.5 "/>
<text text-anchor="middle" x="51.5" y="-382.5" font-family="Helvetica,sans-Serif" font-size="10.00"> </text>
</a>
</g>
</g>
<!-- Node3&#45;&gt;Node2 -->
<g id="edge2" class="edge">
<title>Node3&#45;&gt;Node2</title>
<path fill="none" stroke="midnightblue" d="M51.5,-365.35C51.5,-357.08 51.5,-348.01 51.5,-338.74"/>
<polygon fill="none" stroke="midnightblue" points="48,-365.35 51.5,-375.35 55,-365.35 48,-365.35"/>
</g>
</g>
</svg>
