<?xml version="1.0" encoding="UTF-8" standalone="no"?>
<!DOCTYPE svg PUBLIC "-//W3C//DTD SVG 1.1//EN"
 "http://www.w3.org/Graphics/SVG/1.1/DTD/svg11.dtd">
<!-- Generated by graphviz version 2.43.0 (0)
 -->
<!-- Title: WindowTXT::WindowTXT Pages: 1 -->
<svg width="438pt" height="66pt"
 viewBox="0.00 0.00 438.00 66.00" xmlns="http://www.w3.org/2000/svg" xmlns:xlink="http://www.w3.org/1999/xlink">
<g id="graph0" class="graph" transform="scale(1 1) rotate(0) translate(4 62)">
<title>WindowTXT::WindowTXT</title>
<!-- Node1 -->
<g id="node1" class="node">
<title>Node1</title>
<g id="a_node1"><a xlink:title=" ">
<polygon fill="#bfbfbf" stroke="black" points="0,-19.5 0,-38.5 137,-38.5 137,-19.5 0,-19.5"/>
<text text-anchor="middle" x="68.5" y="-26.5" font-family="Helvetica,sans-Serif" font-size="10.00">WindowTXT::WindowTXT</text>
</a>
</g>
</g>
<!-- Node2 -->
<g id="node2" class="node">
<title>Node2</title>
<g id="a_node2"><a xlink:href="class_window_t_x_t.html#a79659c7c121f98d9021e422a69d61333" target="_top" xlink:title=" ">
<polygon fill="none" stroke="black" points="180.5,-38.5 180.5,-57.5 284.5,-57.5 284.5,-38.5 180.5,-38.5"/>
<text text-anchor="middle" x="232.5" y="-45.5" font-family="Helvetica,sans-Serif" font-size="10.00">WindowTXT::clear</text>
</a>
</g>
</g>
<!-- Node1&#45;&gt;Node2 -->
<g id="edge1" class="edge">
<title>Node1&#45;&gt;Node2</title>
<path fill="none" stroke="midnightblue" d="M137.26,-36.95C148.17,-38.23 159.41,-39.54 170.15,-40.8"/>
<polygon fill="midnightblue" stroke="midnightblue" points="169.94,-44.3 180.28,-41.99 170.75,-37.35 169.94,-44.3"/>
</g>
<!-- Node4 -->
<g id="node4" class="node">
<title>Node4</title>
<g id="a_node4"><a xlink:href="class_window_t_x_t.html#aa8793437173094a52733af7c0fe1416b" target="_top" xlink:title=" ">
<polygon fill="none" stroke="black" points="173,-0.5 173,-19.5 292,-19.5 292,-0.5 173,-0.5"/>
<text text-anchor="middle" x="232.5" y="-7.5" font-family="Helvetica,sans-Serif" font-size="10.00">WindowTXT::termInit</text>
</a>
</g>
</g>
<!-- Node1&#45;&gt;Node4 -->
<g id="edge3" class="edge">
<title>Node1&#45;&gt;Node4</title>
<path fill="none" stroke="midnightblue" d="M137.26,-21.05C145.65,-20.07 154.22,-19.06 162.62,-18.08"/>
<polygon fill="midnightblue" stroke="midnightblue" points="163.23,-21.53 172.76,-16.89 162.42,-14.58 163.23,-21.53"/>
</g>
<!-- Node3 -->
<g id="node3" class="node">
<title>Node3</title>
<g id="a_node3"><a xlink:href="class_window_t_x_t.html#a0243ba21b4e67a20c74b94c0192e3e02" target="_top" xlink:title=" ">
<polygon fill="none" stroke="black" points="328,-38.5 328,-57.5 430,-57.5 430,-38.5 328,-38.5"/>
<text text-anchor="middle" x="379" y="-45.5" font-family="Helvetica,sans-Serif" font-size="10.00">WindowTXT::print</text>
</a>
</g>
</g>
<!-- Node2&#45;&gt;Node3 -->
<g id="edge2" class="edge">
<title>Node2&#45;&gt;Node3</title>
<path fill="none" stroke="midnightblue" d="M284.85,-48C295.43,-48 306.65,-48 317.51,-48"/>
<polygon fill="midnightblue" stroke="midnightblue" points="317.78,-51.5 327.78,-48 317.78,-44.5 317.78,-51.5"/>
</g>
</g>
</svg>
