<?xml version="1.0" encoding="UTF-8" standalone="no"?>
<!DOCTYPE svg PUBLIC "-//W3C//DTD SVG 1.1//EN"
 "http://www.w3.org/Graphics/SVG/1.1/DTD/svg11.dtd">
<!-- Generated by graphviz version 2.43.0 (0)
 -->
<!-- Title: Projectile::distance Pages: 1 -->
<svg width="272pt" height="66pt"
 viewBox="0.00 0.00 272.00 66.00" xmlns="http://www.w3.org/2000/svg" xmlns:xlink="http://www.w3.org/1999/xlink">
<g id="graph0" class="graph" transform="scale(1 1) rotate(0) translate(4 62)">
<title>Projectile::distance</title>
<!-- Node1 -->
<g id="node1" class="node">
<title>Node1</title>
<g id="a_node1"><a xlink:title=" ">
<polygon fill="#bfbfbf" stroke="black" points="0,-19.5 0,-38.5 110,-38.5 110,-19.5 0,-19.5"/>
<text text-anchor="middle" x="55" y="-26.5" font-family="Helvetica,sans-Serif" font-size="10.00">Projectile::distance</text>
</a>
</g>
</g>
<!-- Node2 -->
<g id="node2" class="node">
<title>Node2</title>
<g id="a_node2"><a xlink:href="class_entity.html#a758caa46a2a259ffc63d09616def9423" target="_top" xlink:title="Fonction retournant la position en x de l&#39;entité en const.">
<polygon fill="none" stroke="black" points="146,-38.5 146,-57.5 264,-57.5 264,-38.5 146,-38.5"/>
<text text-anchor="middle" x="205" y="-45.5" font-family="Helvetica,sans-Serif" font-size="10.00">Entity::getConstPosX</text>
</a>
</g>
</g>
<!-- Node1&#45;&gt;Node2 -->
<g id="edge1" class="edge">
<title>Node1&#45;&gt;Node2</title>
<path fill="none" stroke="midnightblue" d="M110.27,-35.97C118.57,-37.03 127.23,-38.14 135.78,-39.24"/>
<polygon fill="midnightblue" stroke="midnightblue" points="135.39,-42.72 145.75,-40.52 136.28,-35.78 135.39,-42.72"/>
</g>
<!-- Node3 -->
<g id="node3" class="node">
<title>Node3</title>
<g id="a_node3"><a xlink:href="class_entity.html#a44db7a4bd777f13d5316ca9151dffad7" target="_top" xlink:title="Fonction retournant la position en y de l&#39;entité en const.">
<polygon fill="none" stroke="black" points="146.5,-0.5 146.5,-19.5 263.5,-19.5 263.5,-0.5 146.5,-0.5"/>
<text text-anchor="middle" x="205" y="-7.5" font-family="Helvetica,sans-Serif" font-size="10.00">Entity::getConstPosY</text>
</a>
</g>
</g>
<!-- Node1&#45;&gt;Node3 -->
<g id="edge2" class="edge">
<title>Node1&#45;&gt;Node3</title>
<path fill="none" stroke="midnightblue" d="M110.27,-22.03C118.69,-20.95 127.48,-19.82 136.15,-18.71"/>
<polygon fill="midnightblue" stroke="midnightblue" points="136.78,-22.16 146.25,-17.41 135.89,-15.22 136.78,-22.16"/>
</g>
</g>
</svg>
