<?xml version="1.0" encoding="UTF-8" standalone="no"?>
<!DOCTYPE svg PUBLIC "-//W3C//DTD SVG 1.1//EN"
 "http://www.w3.org/Graphics/SVG/1.1/DTD/svg11.dtd">
<!-- Generated by graphviz version 2.43.0 (0)
 -->
<!-- Title: Entity::getPosX Pages: 1 -->
<svg width="260pt" height="66pt"
 viewBox="0.00 0.00 260.00 66.00" xmlns="http://www.w3.org/2000/svg" xmlns:xlink="http://www.w3.org/1999/xlink">
<g id="graph0" class="graph" transform="scale(1 1) rotate(0) translate(4 62)">
<title>Entity::getPosX</title>
<!-- Node1 -->
<g id="node1" class="node">
<title>Node1</title>
<g id="a_node1"><a xlink:title="Accesseur renvoyant la position en x d&#39;une entité">
<polygon fill="#bfbfbf" stroke="black" points="162,-19.5 162,-38.5 252,-38.5 252,-19.5 162,-19.5"/>
<text text-anchor="middle" x="207" y="-26.5" font-family="Helvetica,sans-Serif" font-size="10.00">Entity::getPosX</text>
</a>
</g>
</g>
<!-- Node2 -->
<g id="node2" class="node">
<title>Node2</title>
<g id="a_node2"><a xlink:href="class_enemy.html#a012b23beffeee74ef1422c2d7c28bb37" target="_top" xlink:title=" ">
<polygon fill="none" stroke="black" points="0,-38.5 0,-57.5 126,-57.5 126,-38.5 0,-38.5"/>
<text text-anchor="middle" x="63" y="-45.5" font-family="Helvetica,sans-Serif" font-size="10.00">Enemy::regressionTest</text>
</a>
</g>
</g>
<!-- Node1&#45;&gt;Node2 -->
<g id="edge1" class="edge">
<title>Node1&#45;&gt;Node2</title>
<path fill="none" stroke="midnightblue" d="M151.8,-36.25C143.4,-37.38 134.67,-38.54 126.11,-39.69"/>
<polygon fill="midnightblue" stroke="midnightblue" points="152.4,-39.7 161.85,-34.91 151.47,-32.76 152.4,-39.7"/>
</g>
<!-- Node3 -->
<g id="node3" class="node">
<title>Node3</title>
<g id="a_node3"><a xlink:href="class_projectile.html#adfc163f4a625fc293f8f67fd0eb49761" target="_top" xlink:title="Fonction calculant toutes les positions nécessaires au projectile entre une tour et un ennemi.">
<polygon fill="none" stroke="black" points="16.5,-0.5 16.5,-19.5 109.5,-19.5 109.5,-0.5 16.5,-0.5"/>
<text text-anchor="middle" x="63" y="-7.5" font-family="Helvetica,sans-Serif" font-size="10.00">Projectile::track</text>
</a>
</g>
</g>
<!-- Node1&#45;&gt;Node3 -->
<g id="edge2" class="edge">
<title>Node1&#45;&gt;Node3</title>
<path fill="none" stroke="midnightblue" d="M151.89,-21.76C137.94,-19.89 123.06,-17.9 109.6,-16.1"/>
<polygon fill="midnightblue" stroke="midnightblue" points="151.47,-25.24 161.85,-23.09 152.4,-18.3 151.47,-25.24"/>
</g>
</g>
</svg>
