<?xml version="1.0" encoding="UTF-8" standalone="no"?>
<!DOCTYPE svg PUBLIC "-//W3C//DTD SVG 1.1//EN"
 "http://www.w3.org/Graphics/SVG/1.1/DTD/svg11.dtd">
<!-- Generated by graphviz version 2.43.0 (0)
 -->
<!-- Title: Entity::getConstPosX Pages: 1 -->
<!--zoomable 170 -->
<svg id="main" version="1.1" xmlns="http://www.w3.org/2000/svg" xmlns:xlink="http://www.w3.org/1999/xlink" xml:space="preserve" onload="init(evt)">
<style type="text/css"><![CDATA[
.edge:hover path { stroke: red; }
.edge:hover polygon { stroke: red; fill: red; }
]]></style>
<script type="text/javascript"><![CDATA[
var edges = document.getElementsByTagName('g');
if (edges && edges.length) {
  for (var i=0;i<edges.length;i++) {
    if (edges[i].id.substr(0,4)=='edge') {
      edges[i].setAttribute('class','edge');
    }
  }
}
]]></script>
        <defs>
                <circle id="rim" cx="0" cy="0" r="7"/>
                <circle id="rim2" cx="0" cy="0" r="3.5"/>
                <g id="zoomPlus">
                        <use xlink:href="#rim" fill="#404040">
                                <set attributeName="fill" to="#808080" begin="zoomplus.mouseover" end="zoomplus.mouseout"/>
                        </use>
                        <path d="M-4,0h8M0,-4v8" fill="none" stroke="white" stroke-width="1.5" pointer-events="none"/>
                </g>
                <g id="zoomMin">
                        <use xlink:href="#rim" fill="#404040">
                                <set attributeName="fill" to="#808080" begin="zoomminus.mouseover" end="zoomminus.mouseout"/>
                        </use>
                        <path d="M-4,0h8" fill="none" stroke="white" stroke-width="1.5" pointer-events="none"/>
                </g>
                <g id="dirArrow">
                        <path fill="none" stroke="white" stroke-width="1.5" d="M0,-3.0v7 M-2.5,-0.5L0,-3.0L2.5,-0.5"/>
                </g>
               <g id="resetDef">
                       <use xlink:href="#rim2" fill="#404040">
                               <set attributeName="fill" to="#808080" begin="reset.mouseover" end="reset.mouseout"/>
                       </use>
               </g>
        </defs>

<script type="text/javascript">
var viewWidth = 733;
var viewHeight = 170;
var sectionId = 'dynsection-2';
</script>
<script xlink:href="svgpan.js"/>
<svg id="graph" class="graph">
<g id="viewport">
<title>Entity::getConstPosX</title>
<!-- Node1 -->
<g id="node1" class="node">
<title>Node1</title>
<g id="a_node1"><a xlink:title=" ">
<polygon fill="#bfbfbf" stroke="black" points="607,-66.6 607,-85.6 725,-85.6 725,-66.6 607,-66.6"/>
<text text-anchor="middle" x="666" y="-73.6" font-family="Helvetica,sans-Serif" font-size="10.00">Entity::getConstPosX</text>
</a>
</g>
</g>
<!-- Node2 -->
<g id="node2" class="node">
<title>Node2</title>
<g id="a_node2"><a xlink:href="class_projectile.html#ae5645549de0ef4e2defdb3edd9fc57f0" target="_top" xlink:title=" ">
<polygon fill="none" stroke="black" points="453,-142.6 453,-161.6 571,-161.6 571,-142.6 453,-142.6"/>
<text text-anchor="middle" x="512" y="-149.6" font-family="Helvetica,sans-Serif" font-size="10.00">Projectile::directionX</text>
</a>
</g>
</g>
<!-- Node1&#45;&gt;Node2 -->
<g id="edge1" class="edge">
<title>Node1&#45;&gt;Node2</title>
<path fill="none" stroke="midnightblue" d="M640.22,-90.82C621.49,-101.69 595.01,-116.54 571,-128.1 560.3,-133.25 548.19,-138.37 537.82,-142.55"/>
<polygon fill="midnightblue" stroke="midnightblue" points="642.13,-93.76 648.99,-85.69 638.59,-87.71 642.13,-93.76"/>
</g>
<!-- Node3 -->
<g id="node3" class="node">
<title>Node3</title>
<g id="a_node3"><a xlink:href="class_projectile.html#adfc163f4a625fc293f8f67fd0eb49761" target="_top" xlink:title=" ">
<polygon fill="none" stroke="black" points="316.5,-104.6 316.5,-123.6 409.5,-123.6 409.5,-104.6 316.5,-104.6"/>
<text text-anchor="middle" x="363" y="-111.6" font-family="Helvetica,sans-Serif" font-size="10.00">Projectile::track</text>
</a>
</g>
</g>
<!-- Node1&#45;&gt;Node3 -->
<g id="edge10" class="edge">
<title>Node1&#45;&gt;Node3</title>
<path fill="none" stroke="midnightblue" d="M612.51,-87.75C599.03,-90.46 584.52,-93.12 571,-95.1 515.83,-103.18 451.86,-108.43 409.8,-111.32"/>
<polygon fill="midnightblue" stroke="midnightblue" points="613.5,-91.12 622.59,-85.68 612.09,-84.26 613.5,-91.12"/>
</g>
<!-- Node7 -->
<g id="node7" class="node">
<title>Node7</title>
<g id="a_node7"><a xlink:href="class_projectile.html#aa878bcc1843c911447425d7618b8f9de" target="_top" xlink:title=" ">
<polygon fill="none" stroke="black" points="457,-66.6 457,-85.6 567,-85.6 567,-66.6 457,-66.6"/>
<text text-anchor="middle" x="512" y="-73.6" font-family="Helvetica,sans-Serif" font-size="10.00">Projectile::distance</text>
</a>
</g>
</g>
<!-- Node1&#45;&gt;Node7 -->
<g id="edge6" class="edge">
<title>Node1&#45;&gt;Node7</title>
<path fill="none" stroke="midnightblue" d="M596.58,-76.1C586.81,-76.1 576.88,-76.1 567.43,-76.1"/>
<polygon fill="midnightblue" stroke="midnightblue" points="596.67,-79.6 606.67,-76.1 596.67,-72.6 596.67,-79.6"/>
</g>
<!-- Node9 -->
<g id="node9" class="node">
<title>Node9</title>
<g id="a_node9"><a xlink:href="class_projectile.html#ac536ed2aad56af866a2078b9a85aa16d" target="_top" xlink:title=" ">
<polygon fill="none" stroke="black" points="455,-28.6 455,-47.6 569,-47.6 569,-28.6 455,-28.6"/>
<text text-anchor="middle" x="512" y="-35.6" font-family="Helvetica,sans-Serif" font-size="10.00">Projectile::Projectile</text>
</a>
</g>
</g>
<!-- Node1&#45;&gt;Node9 -->
<g id="edge9" class="edge">
<title>Node1&#45;&gt;Node9</title>
<path fill="none" stroke="midnightblue" d="M616.84,-64.06C595.6,-58.75 571,-52.6 551.08,-47.62"/>
<polygon fill="midnightblue" stroke="midnightblue" points="616.09,-67.48 626.64,-66.51 617.79,-60.69 616.09,-67.48"/>
</g>
<!-- Node10 -->
<g id="node10" class="node">
<title>Node10</title>
<g id="a_node10"><a xlink:href="_game_t_x_t_8cpp.html#a79f96f754efd066587bec9a3d0d0add7" target="_top" xlink:title=" ">
<polygon fill="none" stroke="black" points="191.5,-9.6 191.5,-28.6 247.5,-28.6 247.5,-9.6 191.5,-9.6"/>
<text text-anchor="middle" x="219.5" y="-16.6" font-family="Helvetica,sans-Serif" font-size="10.00">txtShow</text>
</a>
</g>
</g>
<!-- Node1&#45;&gt;Node10 -->
<g id="edge11" class="edge">
<title>Node1&#45;&gt;Node10</title>
<path fill="none" stroke="midnightblue" d="M645.85,-60.12C627.83,-46.2 599.43,-27.05 571,-19.1 454.38,13.5 307.27,-4.58 247.55,-14.25"/>
<polygon fill="midnightblue" stroke="midnightblue" points="643.81,-62.97 653.81,-66.46 648.17,-57.49 643.81,-62.97"/>
</g>
<!-- Node2&#45;&gt;Node3 -->
<g id="edge2" class="edge">
<title>Node2&#45;&gt;Node3</title>
<path fill="none" stroke="midnightblue" d="M464.15,-139.99C443.67,-134.7 420.01,-128.58 400.83,-123.62"/>
<polygon fill="midnightblue" stroke="midnightblue" points="463.35,-143.4 473.91,-142.51 465.1,-136.62 463.35,-143.4"/>
</g>
<!-- Node4 -->
<g id="node4" class="node">
<title>Node4</title>
<g id="a_node4"><a xlink:href="class_game.html#acd26cbdfb8fa7cec1832711e618fec45" target="_top" xlink:title=" ">
<polygon fill="none" stroke="black" points="166,-66.6 166,-85.6 273,-85.6 273,-66.6 166,-66.6"/>
<text text-anchor="middle" x="219.5" y="-73.6" font-family="Helvetica,sans-Serif" font-size="10.00">Game::autoEvents</text>
</a>
</g>
</g>
<!-- Node3&#45;&gt;Node4 -->
<g id="edge3" class="edge">
<title>Node3&#45;&gt;Node4</title>
<path fill="none" stroke="midnightblue" d="M316.4,-101.85C296.89,-96.62 274.46,-90.59 256.2,-85.69"/>
<polygon fill="midnightblue" stroke="midnightblue" points="315.73,-105.3 326.29,-104.51 317.54,-98.54 315.73,-105.3"/>
</g>
<!-- Node5 -->
<g id="node5" class="node">
<title>Node5</title>
<g id="a_node5"><a xlink:href="_game_t_x_t_8cpp.html#aa8f70cd3510ceae6f2dd1bd542fcaabd" target="_top" xlink:title=" ">
<polygon fill="none" stroke="black" points="77,-28.6 77,-47.6 130,-47.6 130,-28.6 77,-28.6"/>
<text text-anchor="middle" x="103.5" y="-35.6" font-family="Helvetica,sans-Serif" font-size="10.00">txtLoop</text>
</a>
</g>
</g>
<!-- Node4&#45;&gt;Node5 -->
<g id="edge4" class="edge">
<title>Node4&#45;&gt;Node5</title>
<path fill="none" stroke="midnightblue" d="M179.87,-63.22C163.47,-57.76 144.8,-51.53 130.15,-46.65"/>
<polygon fill="midnightblue" stroke="midnightblue" points="179.14,-66.67 189.73,-66.51 181.35,-60.03 179.14,-66.67"/>
</g>
<!-- Node6 -->
<g id="node6" class="node">
<title>Node6</title>
<g id="a_node6"><a xlink:href="main_t_x_t_8cpp.html#a840291bc02cba5474a4cb46a9b9566fe" target="_top" xlink:title=" ">
<polygon fill="none" stroke="black" points="0,-28.6 0,-47.6 41,-47.6 41,-28.6 0,-28.6"/>
<text text-anchor="middle" x="20.5" y="-35.6" font-family="Helvetica,sans-Serif" font-size="10.00">main</text>
</a>
</g>
</g>
<!-- Node5&#45;&gt;Node6 -->
<g id="edge5" class="edge">
<title>Node5&#45;&gt;Node6</title>
<path fill="none" stroke="midnightblue" d="M66.75,-38.1C57.92,-38.1 48.79,-38.1 41.06,-38.1"/>
<polygon fill="midnightblue" stroke="midnightblue" points="66.87,-41.6 76.87,-38.1 66.87,-34.6 66.87,-41.6"/>
</g>
<!-- Node8 -->
<g id="node8" class="node">
<title>Node8</title>
<g id="a_node8"><a xlink:href="class_projectile.html#a62f3ecf85f4a26de65c5e0e333181ed1" target="_top" xlink:title=" ">
<polygon fill="none" stroke="black" points="309,-66.6 309,-85.6 417,-85.6 417,-66.6 309,-66.6"/>
<text text-anchor="middle" x="363" y="-73.6" font-family="Helvetica,sans-Serif" font-size="10.00">Projectile::inRange</text>
</a>
</g>
</g>
<!-- Node7&#45;&gt;Node8 -->
<g id="edge7" class="edge">
<title>Node7&#45;&gt;Node8</title>
<path fill="none" stroke="midnightblue" d="M446.55,-76.1C436.72,-76.1 426.67,-76.1 417.12,-76.1"/>
<polygon fill="midnightblue" stroke="midnightblue" points="446.68,-79.6 456.68,-76.1 446.68,-72.6 446.68,-79.6"/>
</g>
<!-- Node8&#45;&gt;Node4 -->
<g id="edge8" class="edge">
<title>Node8&#45;&gt;Node4</title>
<path fill="none" stroke="midnightblue" d="M298.71,-76.1C290.26,-76.1 281.67,-76.1 273.42,-76.1"/>
<polygon fill="midnightblue" stroke="midnightblue" points="298.91,-79.6 308.91,-76.1 298.91,-72.6 298.91,-79.6"/>
</g>
<!-- Node10&#45;&gt;Node5 -->
<g id="edge12" class="edge">
<title>Node10&#45;&gt;Node5</title>
<path fill="none" stroke="midnightblue" d="M181.45,-25.28C164.68,-28.07 145.27,-31.3 130.15,-33.83"/>
<polygon fill="midnightblue" stroke="midnightblue" points="182.2,-28.7 191.48,-23.6 181.04,-21.79 182.2,-28.7"/>
</g>
</g>
</svg>
        <g id="navigator" transform="translate(0 0)" fill="#404254">
                <rect fill="#f2f5e9" fill-opacity="0.5" stroke="#606060" stroke-width=".5" x="0" y="0" width="60" height="60"/>
                <use id="zoomplus" xlink:href="#zoomPlus" x="17" y="9" onmousedown="handleZoom(evt,'in')"/>
                <use id="zoomminus" xlink:href="#zoomMin" x="42" y="9" onmousedown="handleZoom(evt,'out')"/>
                <use id="reset" xlink:href="#resetDef" x="30" y="36" onmousedown="handleReset()"/>
                <g id="arrowUp" xlink:href="#dirArrow" transform="translate(30 24)" onmousedown="handlePan(0,-1)">
                  <use xlink:href="#rim" fill="#404040">
                        <set attributeName="fill" to="#808080" begin="arrowUp.mouseover" end="arrowUp.mouseout"/>
                  </use>
                  <path fill="none" stroke="white" stroke-width="1.5" d="M0,-3.0v7 M-2.5,-0.5L0,-3.0L2.5,-0.5"/>
                </g>
                <g id="arrowRight" xlink:href="#dirArrow" transform="rotate(90) translate(36 -43)" onmousedown="handlePan(1,0)">
                  <use xlink:href="#rim" fill="#404040">
                        <set attributeName="fill" to="#808080" begin="arrowRight.mouseover" end="arrowRight.mouseout"/>
                  </use>
                  <path fill="none" stroke="white" stroke-width="1.5" d="M0,-3.0v7 M-2.5,-0.5L0,-3.0L2.5,-0.5"/>
                </g>
                <g id="arrowDown" xlink:href="#dirArrow" transform="rotate(180) translate(-30 -48)" onmousedown="handlePan(0,1)">
                  <use xlink:href="#rim" fill="#404040">
                        <set attributeName="fill" to="#808080" begin="arrowDown.mouseover" end="arrowDown.mouseout"/>
                  </use>
                  <path fill="none" stroke="white" stroke-width="1.5" d="M0,-3.0v7 M-2.5,-0.5L0,-3.0L2.5,-0.5"/>
                </g>
                <g id="arrowLeft" xlink:href="#dirArrow" transform="rotate(270) translate(-36 17)" onmousedown="handlePan(-1,0)">
                  <use xlink:href="#rim" fill="#404040">
                        <set attributeName="fill" to="#808080" begin="arrowLeft.mouseover" end="arrowLeft.mouseout"/>
                  </use>
                  <path fill="none" stroke="white" stroke-width="1.5" d="M0,-3.0v7 M-2.5,-0.5L0,-3.0L2.5,-0.5"/>
                </g>
        </g>
        <svg viewBox="0 0 15 15" width="100%" height="30px" preserveAspectRatio="xMaxYMin meet">
         <g id="arrow_out" transform="scale(0.3 0.3)">
          <a xlink:href="class_entity_a632a853b65d0468f138bc35efc0d317b_icgraph_org.svg" target="_base">
           <rect id="button" ry="5" rx="5" y="6" x="6" height="38" width="38"
                fill="#f2f5e9" fill-opacity="0.5" stroke="#606060" stroke-width="1.0"/>
           <path id="arrow"
             d="M 11.500037,31.436501 C 11.940474,20.09759 22.043105,11.32322 32.158766,21.979434 L 37.068811,17.246167 C 37.068811,17.246167 37.088388,32 37.088388,32 L 22.160133,31.978069 C 22.160133,31.978069 26.997745,27.140456 26.997745,27.140456 C 18.528582,18.264221 13.291696,25.230495 11.500037,31.436501 z"
             style="fill:#404040;"/>
          </a>
         </g>
        </svg>
</svg>
