<?xml version="1.0" encoding="UTF-8" standalone="no"?>
<!DOCTYPE svg PUBLIC "-//W3C//DTD SVG 1.1//EN"
 "http://www.w3.org/Graphics/SVG/1.1/DTD/svg11.dtd">
<!-- Generated by graphviz version 2.43.0 (0)
 -->
<!-- Title: TowerArcher Pages: 1 -->
<svg width="112pt" height="546pt"
 viewBox="0.00 0.00 112.00 546.00" xmlns="http://www.w3.org/2000/svg" xmlns:xlink="http://www.w3.org/1999/xlink">
<g id="graph0" class="graph" transform="scale(1 1) rotate(0) translate(4 542)">
<title>TowerArcher</title>
<!-- Node1 -->
<g id="node1" class="node">
<title>Node1</title>
<g id="a_node1"><a xlink:title="Classe gérant les tours d&#39;archer /!\ Hérite de la classe Entity /!.">
<polygon fill="#bfbfbf" stroke="black" points="0,-0.5 0,-68.5 104,-68.5 104,-0.5 0,-0.5"/>
<text text-anchor="middle" x="52" y="-56.5" font-family="Helvetica,sans-Serif" font-size="10.00">TowerArcher</text>
<polyline fill="none" stroke="black" points="0,-49.5 104,-49.5 "/>
<text text-anchor="middle" x="52" y="-37.5" font-family="Helvetica,sans-Serif" font-size="10.00"> </text>
<polyline fill="none" stroke="black" points="0,-30.5 104,-30.5 "/>
<text text-anchor="start" x="8" y="-18.5" font-family="Helvetica,sans-Serif" font-size="10.00">+ TowerArcher()</text>
<text text-anchor="start" x="8" y="-7.5" font-family="Helvetica,sans-Serif" font-size="10.00">+ ~TowerArcher()</text>
</a>
</g>
</g>
<!-- Node2 -->
<g id="node2" class="node">
<title>Node2</title>
<g id="a_node2"><a xlink:href="class_tower.html" target="_top" xlink:title=" ">
<polygon fill="none" stroke="black" points="11,-105.5 11,-239.5 93,-239.5 93,-105.5 11,-105.5"/>
<text text-anchor="middle" x="52" y="-227.5" font-family="Helvetica,sans-Serif" font-size="10.00">Tower</text>
<polyline fill="none" stroke="black" points="11,-220.5 93,-220.5 "/>
<text text-anchor="start" x="19" y="-208.5" font-family="Helvetica,sans-Serif" font-size="10.00">+ level</text>
<polyline fill="none" stroke="black" points="11,-201.5 93,-201.5 "/>
<text text-anchor="start" x="19" y="-189.5" font-family="Helvetica,sans-Serif" font-size="10.00">+ Tower()</text>
<text text-anchor="start" x="19" y="-178.5" font-family="Helvetica,sans-Serif" font-size="10.00">+ ~Tower()</text>
<text text-anchor="start" x="19" y="-167.5" font-family="Helvetica,sans-Serif" font-size="10.00">+ setRange()</text>
<text text-anchor="start" x="19" y="-156.5" font-family="Helvetica,sans-Serif" font-size="10.00">+ getRange()</text>
<text text-anchor="start" x="19" y="-145.5" font-family="Helvetica,sans-Serif" font-size="10.00">+ setPrice()</text>
<text text-anchor="start" x="19" y="-134.5" font-family="Helvetica,sans-Serif" font-size="10.00">+ getPrice()</text>
<text text-anchor="start" x="19" y="-123.5" font-family="Helvetica,sans-Serif" font-size="10.00">+ setLevel()</text>
<text text-anchor="start" x="19" y="-112.5" font-family="Helvetica,sans-Serif" font-size="10.00">+ getLevel()</text>
</a>
</g>
</g>
<!-- Node2&#45;&gt;Node1 -->
<g id="edge1" class="edge">
<title>Node2&#45;&gt;Node1</title>
<path fill="none" stroke="midnightblue" d="M52,-95.37C52,-86.08 52,-77 52,-68.83"/>
<polygon fill="none" stroke="midnightblue" points="48.5,-95.49 52,-105.49 55.5,-95.49 48.5,-95.49"/>
</g>
<!-- Node3 -->
<g id="node3" class="node">
<title>Node3</title>
<g id="a_node3"><a xlink:href="class_entity.html" target="_top" xlink:title="Classe gérant toutes les entités présentes dans le jeu (Ennemis, Tours, Projectiles,...">
<polygon fill="none" stroke="black" points="0.5,-276.5 0.5,-443.5 103.5,-443.5 103.5,-276.5 0.5,-276.5"/>
<text text-anchor="middle" x="52" y="-431.5" font-family="Helvetica,sans-Serif" font-size="10.00">Entity</text>
<polyline fill="none" stroke="black" points="0.5,-424.5 103.5,-424.5 "/>
<text text-anchor="start" x="8.5" y="-412.5" font-family="Helvetica,sans-Serif" font-size="10.00">+ path</text>
<polyline fill="none" stroke="black" points="0.5,-405.5 103.5,-405.5 "/>
<text text-anchor="start" x="8.5" y="-393.5" font-family="Helvetica,sans-Serif" font-size="10.00">+ Entity()</text>
<text text-anchor="start" x="8.5" y="-382.5" font-family="Helvetica,sans-Serif" font-size="10.00">+ ~Entity()</text>
<text text-anchor="start" x="8.5" y="-371.5" font-family="Helvetica,sans-Serif" font-size="10.00">+ getPosX()</text>
<text text-anchor="start" x="8.5" y="-360.5" font-family="Helvetica,sans-Serif" font-size="10.00">+ getPosY()</text>
<text text-anchor="start" x="8.5" y="-349.5" font-family="Helvetica,sans-Serif" font-size="10.00">+ getConstPosX()</text>
<text text-anchor="start" x="8.5" y="-338.5" font-family="Helvetica,sans-Serif" font-size="10.00">+ getConstPosY()</text>
<text text-anchor="start" x="8.5" y="-327.5" font-family="Helvetica,sans-Serif" font-size="10.00">+ setPos()</text>
<text text-anchor="start" x="8.5" y="-316.5" font-family="Helvetica,sans-Serif" font-size="10.00">+ setPosX()</text>
<text text-anchor="start" x="8.5" y="-305.5" font-family="Helvetica,sans-Serif" font-size="10.00">+ setPosY()</text>
<text text-anchor="start" x="8.5" y="-294.5" font-family="Helvetica,sans-Serif" font-size="10.00">+ setSpeed()</text>
<text text-anchor="start" x="8.5" y="-283.5" font-family="Helvetica,sans-Serif" font-size="10.00">and 9 more...</text>
</a>
</g>
</g>
<!-- Node3&#45;&gt;Node2 -->
<g id="edge2" class="edge">
<title>Node3&#45;&gt;Node2</title>
<path fill="none" stroke="midnightblue" d="M52,-266.19C52,-257.22 52,-248.26 52,-239.64"/>
<polygon fill="none" stroke="midnightblue" points="48.5,-266.29 52,-276.29 55.5,-266.29 48.5,-266.29"/>
</g>
<!-- Node4 -->
<g id="node4" class="node">
<title>Node4</title>
<g id="a_node4"><a xlink:title=" ">
<polygon fill="none" stroke="#bfbfbf" points="20,-480.5 20,-537.5 84,-537.5 84,-480.5 20,-480.5"/>
<text text-anchor="middle" x="52" y="-525.5" font-family="Helvetica,sans-Serif" font-size="10.00">EntitySDL</text>
<polyline fill="none" stroke="#bfbfbf" points="20,-518.5 84,-518.5 "/>
<text text-anchor="middle" x="52" y="-506.5" font-family="Helvetica,sans-Serif" font-size="10.00"> </text>
<polyline fill="none" stroke="#bfbfbf" points="20,-499.5 84,-499.5 "/>
<text text-anchor="middle" x="52" y="-487.5" font-family="Helvetica,sans-Serif" font-size="10.00"> </text>
</a>
</g>
</g>
<!-- Node4&#45;&gt;Node3 -->
<g id="edge3" class="edge">
<title>Node4&#45;&gt;Node3</title>
<path fill="none" stroke="midnightblue" d="M52,-470.35C52,-462.08 52,-453.01 52,-443.74"/>
<polygon fill="none" stroke="midnightblue" points="48.5,-470.35 52,-480.35 55.5,-470.35 48.5,-470.35"/>
</g>
</g>
</svg>
