<?xml version="1.0" encoding="UTF-8" standalone="no"?>
<!DOCTYPE svg PUBLIC "-//W3C//DTD SVG 1.1//EN"
 "http://www.w3.org/Graphics/SVG/1.1/DTD/svg11.dtd">
<!-- Generated by graphviz version 2.43.0 (0)
 -->
<!-- Title: TowerArcher::TowerArcher Pages: 1 -->
<svg width="282pt" height="66pt"
 viewBox="0.00 0.00 282.00 66.00" xmlns="http://www.w3.org/2000/svg" xmlns:xlink="http://www.w3.org/1999/xlink">
<g id="graph0" class="graph" transform="scale(1 1) rotate(0) translate(4 62)">
<title>TowerArcher::TowerArcher</title>
<!-- Node1 -->
<g id="node1" class="node">
<title>Node1</title>
<g id="a_node1"><a xlink:title=" ">
<polygon fill="#bfbfbf" stroke="black" points="0,-19.5 0,-38.5 143,-38.5 143,-19.5 0,-19.5"/>
<text text-anchor="middle" x="71.5" y="-26.5" font-family="Helvetica,sans-Serif" font-size="10.00">TowerArcher::TowerArcher</text>
</a>
</g>
</g>
<!-- Node2 -->
<g id="node2" class="node">
<title>Node2</title>
<g id="a_node2"><a xlink:href="class_entity.html#abdd4f6821f64524d42bdf29baa7375b5" target="_top" xlink:title="Procédure définissant la position en x et en y.">
<polygon fill="none" stroke="black" points="185,-38.5 185,-57.5 268,-57.5 268,-38.5 185,-38.5"/>
<text text-anchor="middle" x="226.5" y="-45.5" font-family="Helvetica,sans-Serif" font-size="10.00">Entity::setPos</text>
</a>
</g>
</g>
<!-- Node1&#45;&gt;Node2 -->
<g id="edge1" class="edge">
<title>Node1&#45;&gt;Node2</title>
<path fill="none" stroke="midnightblue" d="M143.18,-37.78C153.75,-39.09 164.48,-40.42 174.54,-41.67"/>
<polygon fill="midnightblue" stroke="midnightblue" points="174.39,-45.18 184.75,-42.94 175.26,-38.23 174.39,-45.18"/>
</g>
<!-- Node3 -->
<g id="node3" class="node">
<title>Node3</title>
<g id="a_node3"><a xlink:href="class_entity.html#a5cd41e16d7e711c662ca8156620f554e" target="_top" xlink:title="Procédure définissant la vitesse de l&#39;entité">
<polygon fill="none" stroke="black" points="179,-0.5 179,-19.5 274,-19.5 274,-0.5 179,-0.5"/>
<text text-anchor="middle" x="226.5" y="-7.5" font-family="Helvetica,sans-Serif" font-size="10.00">Entity::setSpeed</text>
</a>
</g>
</g>
<!-- Node1&#45;&gt;Node3 -->
<g id="edge2" class="edge">
<title>Node1&#45;&gt;Node3</title>
<path fill="none" stroke="midnightblue" d="M143.18,-20.22C151.75,-19.16 160.42,-18.08 168.76,-17.05"/>
<polygon fill="midnightblue" stroke="midnightblue" points="169.23,-20.51 178.73,-15.81 168.37,-13.57 169.23,-20.51"/>
</g>
</g>
</svg>
