<?xml version="1.0" encoding="UTF-8" standalone="no"?>
<!DOCTYPE svg PUBLIC "-//W3C//DTD SVG 1.1//EN"
 "http://www.w3.org/Graphics/SVG/1.1/DTD/svg11.dtd">
<!-- Generated by graphviz version 2.43.0 (0)
 -->
<!-- Title: Entity Pages: 1 -->
<svg width="770pt" height="413pt"
 viewBox="0.00 0.00 769.50 413.00" xmlns="http://www.w3.org/2000/svg" xmlns:xlink="http://www.w3.org/1999/xlink">
<g id="graph0" class="graph" transform="scale(1 1) rotate(0) translate(4 409)">
<title>Entity</title>
<!-- Node1 -->
<g id="node1" class="node">
<title>Node1</title>
<g id="a_node1"><a xlink:title="class representant l&#39;ensemble des entités La classe gere les toutes les fonctions commmunes des entit...">
<polygon fill="#bfbfbf" stroke="black" points="309.5,-237.5 309.5,-404.5 412.5,-404.5 412.5,-237.5 309.5,-237.5"/>
<text text-anchor="middle" x="361" y="-392.5" font-family="Helvetica,sans-Serif" font-size="10.00">Entity</text>
<polyline fill="none" stroke="black" points="309.5,-385.5 412.5,-385.5 "/>
<text text-anchor="middle" x="361" y="-373.5" font-family="Helvetica,sans-Serif" font-size="10.00"> </text>
<polyline fill="none" stroke="black" points="309.5,-366.5 412.5,-366.5 "/>
<text text-anchor="start" x="317.5" y="-354.5" font-family="Helvetica,sans-Serif" font-size="10.00">+ Entity()</text>
<text text-anchor="start" x="317.5" y="-343.5" font-family="Helvetica,sans-Serif" font-size="10.00">+ ~Entity()</text>
<text text-anchor="start" x="317.5" y="-332.5" font-family="Helvetica,sans-Serif" font-size="10.00">+ getPosX()</text>
<text text-anchor="start" x="317.5" y="-321.5" font-family="Helvetica,sans-Serif" font-size="10.00">+ getPosY()</text>
<text text-anchor="start" x="317.5" y="-310.5" font-family="Helvetica,sans-Serif" font-size="10.00">+ getConstPosX()</text>
<text text-anchor="start" x="317.5" y="-299.5" font-family="Helvetica,sans-Serif" font-size="10.00">+ getConstPosY()</text>
<text text-anchor="start" x="317.5" y="-288.5" font-family="Helvetica,sans-Serif" font-size="10.00">+ setPos()</text>
<text text-anchor="start" x="317.5" y="-277.5" font-family="Helvetica,sans-Serif" font-size="10.00">+ setPosX()</text>
<text text-anchor="start" x="317.5" y="-266.5" font-family="Helvetica,sans-Serif" font-size="10.00">+ setPosY()</text>
<text text-anchor="start" x="317.5" y="-255.5" font-family="Helvetica,sans-Serif" font-size="10.00">+ setSpeed()</text>
<text text-anchor="start" x="317.5" y="-244.5" font-family="Helvetica,sans-Serif" font-size="10.00">and 7 more...</text>
</a>
</g>
</g>
<!-- Node2 -->
<g id="node2" class="node">
<title>Node2</title>
<g id="a_node2"><a xlink:href="class_castle.html" target="_top" xlink:title="classe representant le chateau La classe gere les fonctions du chateau">
<polygon fill="none" stroke="black" points="0,-66.5 0,-134.5 74,-134.5 74,-66.5 0,-66.5"/>
<text text-anchor="middle" x="37" y="-122.5" font-family="Helvetica,sans-Serif" font-size="10.00">Castle</text>
<polyline fill="none" stroke="black" points="0,-115.5 74,-115.5 "/>
<text text-anchor="middle" x="37" y="-103.5" font-family="Helvetica,sans-Serif" font-size="10.00"> </text>
<polyline fill="none" stroke="black" points="0,-96.5 74,-96.5 "/>
<text text-anchor="start" x="8" y="-84.5" font-family="Helvetica,sans-Serif" font-size="10.00">+ Castle()</text>
<text text-anchor="start" x="8" y="-73.5" font-family="Helvetica,sans-Serif" font-size="10.00">+ ~Castle()</text>
</a>
</g>
</g>
<!-- Node1&#45;&gt;Node2 -->
<g id="edge1" class="edge">
<title>Node1&#45;&gt;Node2</title>
<path fill="none" stroke="midnightblue" d="M299.37,-307.28C237.71,-291.71 143.54,-259.83 83,-201 64.44,-182.96 52.62,-156.01 45.61,-134.7"/>
<polygon fill="none" stroke="midnightblue" points="298.81,-310.74 309.36,-309.73 300.48,-303.95 298.81,-310.74"/>
</g>
<!-- Node3 -->
<g id="node3" class="node">
<title>Node3</title>
<g id="a_node3"><a xlink:href="class_enemy.html" target="_top" xlink:title="classe representant l&#39;ennemie La classe gere les fonctions de l&#39;ennemie">
<polygon fill="none" stroke="black" points="92.5,-33.5 92.5,-167.5 187.5,-167.5 187.5,-33.5 92.5,-33.5"/>
<text text-anchor="middle" x="140" y="-155.5" font-family="Helvetica,sans-Serif" font-size="10.00">Enemy</text>
<polyline fill="none" stroke="black" points="92.5,-148.5 187.5,-148.5 "/>
<text text-anchor="start" x="100.5" y="-136.5" font-family="Helvetica,sans-Serif" font-size="10.00">+ enemies</text>
<polyline fill="none" stroke="black" points="92.5,-129.5 187.5,-129.5 "/>
<text text-anchor="start" x="100.5" y="-117.5" font-family="Helvetica,sans-Serif" font-size="10.00">+ Enemy()</text>
<text text-anchor="start" x="100.5" y="-106.5" font-family="Helvetica,sans-Serif" font-size="10.00">+ ~Enemy()</text>
<text text-anchor="start" x="100.5" y="-95.5" font-family="Helvetica,sans-Serif" font-size="10.00">+ setIsArrived()</text>
<text text-anchor="start" x="100.5" y="-84.5" font-family="Helvetica,sans-Serif" font-size="10.00">+ getIsArrived()</text>
<text text-anchor="start" x="100.5" y="-73.5" font-family="Helvetica,sans-Serif" font-size="10.00">+ walk()</text>
<text text-anchor="start" x="100.5" y="-62.5" font-family="Helvetica,sans-Serif" font-size="10.00">+ isDead()</text>
<text text-anchor="start" x="100.5" y="-51.5" font-family="Helvetica,sans-Serif" font-size="10.00">+ walk()</text>
<text text-anchor="start" x="100.5" y="-40.5" font-family="Helvetica,sans-Serif" font-size="10.00">+ appear()</text>
</a>
</g>
</g>
<!-- Node1&#45;&gt;Node3 -->
<g id="edge2" class="edge">
<title>Node1&#45;&gt;Node3</title>
<path fill="none" stroke="midnightblue" d="M300.41,-285.35C266.82,-264.06 225.92,-234.48 196,-201 187.08,-191.02 178.98,-179.39 171.87,-167.67"/>
<polygon fill="none" stroke="midnightblue" points="298.89,-288.53 309.23,-290.86 302.6,-282.59 298.89,-288.53"/>
</g>
<!-- Node4 -->
<g id="node4" class="node">
<title>Node4</title>
<g id="a_node4"><a xlink:href="class_projectile.html" target="_top" xlink:title="class representant les projectiles">
<polygon fill="none" stroke="black" points="205.5,-0.5 205.5,-200.5 302.5,-200.5 302.5,-0.5 205.5,-0.5"/>
<text text-anchor="middle" x="254" y="-188.5" font-family="Helvetica,sans-Serif" font-size="10.00">Projectile</text>
<polyline fill="none" stroke="black" points="205.5,-181.5 302.5,-181.5 "/>
<text text-anchor="middle" x="254" y="-169.5" font-family="Helvetica,sans-Serif" font-size="10.00"> </text>
<polyline fill="none" stroke="black" points="205.5,-162.5 302.5,-162.5 "/>
<text text-anchor="start" x="213.5" y="-150.5" font-family="Helvetica,sans-Serif" font-size="10.00">+ Projectile()</text>
<text text-anchor="start" x="213.5" y="-139.5" font-family="Helvetica,sans-Serif" font-size="10.00">+ Projectile()</text>
<text text-anchor="start" x="213.5" y="-128.5" font-family="Helvetica,sans-Serif" font-size="10.00">+ ~Projectile()</text>
<text text-anchor="start" x="213.5" y="-117.5" font-family="Helvetica,sans-Serif" font-size="10.00">+ getProjectile()</text>
<text text-anchor="start" x="213.5" y="-106.5" font-family="Helvetica,sans-Serif" font-size="10.00">+ setProjectile()</text>
<text text-anchor="start" x="213.5" y="-95.5" font-family="Helvetica,sans-Serif" font-size="10.00">+ setTime()</text>
<text text-anchor="start" x="213.5" y="-84.5" font-family="Helvetica,sans-Serif" font-size="10.00">+ getTime()</text>
<text text-anchor="start" x="213.5" y="-73.5" font-family="Helvetica,sans-Serif" font-size="10.00">+ directionX()</text>
<text text-anchor="start" x="213.5" y="-62.5" font-family="Helvetica,sans-Serif" font-size="10.00">+ directionY()</text>
<text text-anchor="start" x="213.5" y="-51.5" font-family="Helvetica,sans-Serif" font-size="10.00">+ distance()</text>
<text text-anchor="start" x="213.5" y="-40.5" font-family="Helvetica,sans-Serif" font-size="10.00">+ track()</text>
<text text-anchor="start" x="213.5" y="-29.5" font-family="Helvetica,sans-Serif" font-size="10.00">+ inRange()</text>
<text text-anchor="start" x="213.5" y="-18.5" font-family="Helvetica,sans-Serif" font-size="10.00">+ isInRange()</text>
<text text-anchor="start" x="213.5" y="-7.5" font-family="Helvetica,sans-Serif" font-size="10.00">+ touch()</text>
</a>
</g>
</g>
<!-- Node1&#45;&gt;Node4 -->
<g id="edge3" class="edge">
<title>Node1&#45;&gt;Node4</title>
<path fill="none" stroke="midnightblue" d="M316.12,-228.35C311.65,-219.23 307.11,-209.95 302.61,-200.76"/>
<polygon fill="none" stroke="midnightblue" points="313.01,-229.95 320.55,-237.39 319.29,-226.87 313.01,-229.95"/>
</g>
<!-- Node5 -->
<g id="node5" class="node">
<title>Node5</title>
<g id="a_node5"><a xlink:href="class_tower.html" target="_top" xlink:title=" ">
<polygon fill="none" stroke="black" points="321,-55.5 321,-145.5 401,-145.5 401,-55.5 321,-55.5"/>
<text text-anchor="middle" x="361" y="-133.5" font-family="Helvetica,sans-Serif" font-size="10.00">Tower</text>
<polyline fill="none" stroke="black" points="321,-126.5 401,-126.5 "/>
<text text-anchor="middle" x="361" y="-114.5" font-family="Helvetica,sans-Serif" font-size="10.00"> </text>
<polyline fill="none" stroke="black" points="321,-107.5 401,-107.5 "/>
<text text-anchor="start" x="329" y="-95.5" font-family="Helvetica,sans-Serif" font-size="10.00">+ Tower()</text>
<text text-anchor="start" x="329" y="-84.5" font-family="Helvetica,sans-Serif" font-size="10.00">+ ~Tower()</text>
<text text-anchor="start" x="329" y="-73.5" font-family="Helvetica,sans-Serif" font-size="10.00">+ setTower()</text>
<text text-anchor="start" x="329" y="-62.5" font-family="Helvetica,sans-Serif" font-size="10.00">+ getTower()</text>
</a>
</g>
</g>
<!-- Node1&#45;&gt;Node5 -->
<g id="edge4" class="edge">
<title>Node1&#45;&gt;Node5</title>
<path fill="none" stroke="midnightblue" d="M361,-227.07C361,-198.82 361,-169.07 361,-145.63"/>
<polygon fill="none" stroke="midnightblue" points="357.5,-227.39 361,-237.39 364.5,-227.39 357.5,-227.39"/>
</g>
<!-- Node6 -->
<g id="node6" class="node">
<title>Node6</title>
<g id="a_node6"><a xlink:href="class_tower_archer.html" target="_top" xlink:title=" ">
<polygon fill="none" stroke="black" points="419,-44.5 419,-156.5 523,-156.5 523,-44.5 419,-44.5"/>
<text text-anchor="middle" x="471" y="-144.5" font-family="Helvetica,sans-Serif" font-size="10.00">TowerArcher</text>
<polyline fill="none" stroke="black" points="419,-137.5 523,-137.5 "/>
<text text-anchor="middle" x="471" y="-125.5" font-family="Helvetica,sans-Serif" font-size="10.00"> </text>
<polyline fill="none" stroke="black" points="419,-118.5 523,-118.5 "/>
<text text-anchor="start" x="427" y="-106.5" font-family="Helvetica,sans-Serif" font-size="10.00">+ TowerArcher()</text>
<text text-anchor="start" x="427" y="-95.5" font-family="Helvetica,sans-Serif" font-size="10.00">+ ~TowerArcher()</text>
<text text-anchor="start" x="427" y="-84.5" font-family="Helvetica,sans-Serif" font-size="10.00">+ setRange()</text>
<text text-anchor="start" x="427" y="-73.5" font-family="Helvetica,sans-Serif" font-size="10.00">+ getRange()</text>
<text text-anchor="start" x="427" y="-62.5" font-family="Helvetica,sans-Serif" font-size="10.00">+ setPrice()</text>
<text text-anchor="start" x="427" y="-51.5" font-family="Helvetica,sans-Serif" font-size="10.00">+ getPrice()</text>
</a>
</g>
</g>
<!-- Node1&#45;&gt;Node6 -->
<g id="edge5" class="edge">
<title>Node1&#45;&gt;Node6</title>
<path fill="none" stroke="midnightblue" d="M407.24,-228.16C419.46,-203.88 432.27,-178.42 443.18,-156.75"/>
<polygon fill="none" stroke="midnightblue" points="403.96,-226.89 402.59,-237.39 410.21,-230.04 403.96,-226.89"/>
</g>
<!-- Node7 -->
<g id="node7" class="node">
<title>Node7</title>
<g id="a_node7"><a xlink:href="class_tower_bomb.html" target="_top" xlink:title=" ">
<polygon fill="none" stroke="black" points="541.5,-44.5 541.5,-156.5 642.5,-156.5 642.5,-44.5 541.5,-44.5"/>
<text text-anchor="middle" x="592" y="-144.5" font-family="Helvetica,sans-Serif" font-size="10.00">TowerBomb</text>
<polyline fill="none" stroke="black" points="541.5,-137.5 642.5,-137.5 "/>
<text text-anchor="middle" x="592" y="-125.5" font-family="Helvetica,sans-Serif" font-size="10.00"> </text>
<polyline fill="none" stroke="black" points="541.5,-118.5 642.5,-118.5 "/>
<text text-anchor="start" x="549.5" y="-106.5" font-family="Helvetica,sans-Serif" font-size="10.00">+ TowerBomb()</text>
<text text-anchor="start" x="549.5" y="-95.5" font-family="Helvetica,sans-Serif" font-size="10.00">+ ~TowerBomb()</text>
<text text-anchor="start" x="549.5" y="-84.5" font-family="Helvetica,sans-Serif" font-size="10.00">+ setRange()</text>
<text text-anchor="start" x="549.5" y="-73.5" font-family="Helvetica,sans-Serif" font-size="10.00">+ getRange()</text>
<text text-anchor="start" x="549.5" y="-62.5" font-family="Helvetica,sans-Serif" font-size="10.00">+ setPrice()</text>
<text text-anchor="start" x="549.5" y="-51.5" font-family="Helvetica,sans-Serif" font-size="10.00">+ getPrice()</text>
</a>
</g>
</g>
<!-- Node1&#45;&gt;Node7 -->
<g id="edge6" class="edge">
<title>Node1&#45;&gt;Node7</title>
<path fill="none" stroke="midnightblue" d="M421.52,-286.6C456.58,-265.25 499.97,-235.19 532,-201 544.27,-187.9 555.26,-171.88 564.38,-156.56"/>
<polygon fill="none" stroke="midnightblue" points="419.57,-283.69 412.8,-291.84 423.18,-289.69 419.57,-283.69"/>
</g>
<!-- Node8 -->
<g id="node8" class="node">
<title>Node8</title>
<g id="a_node8"><a xlink:href="class_tower_magic.html" target="_top" xlink:title=" ">
<polygon fill="none" stroke="black" points="660.5,-44.5 660.5,-156.5 761.5,-156.5 761.5,-44.5 660.5,-44.5"/>
<text text-anchor="middle" x="711" y="-144.5" font-family="Helvetica,sans-Serif" font-size="10.00">TowerMagic</text>
<polyline fill="none" stroke="black" points="660.5,-137.5 761.5,-137.5 "/>
<text text-anchor="middle" x="711" y="-125.5" font-family="Helvetica,sans-Serif" font-size="10.00"> </text>
<polyline fill="none" stroke="black" points="660.5,-118.5 761.5,-118.5 "/>
<text text-anchor="start" x="668.5" y="-106.5" font-family="Helvetica,sans-Serif" font-size="10.00">+ TowerMagic()</text>
<text text-anchor="start" x="668.5" y="-95.5" font-family="Helvetica,sans-Serif" font-size="10.00">+ ~TowerMagic()</text>
<text text-anchor="start" x="668.5" y="-84.5" font-family="Helvetica,sans-Serif" font-size="10.00">+ setRange()</text>
<text text-anchor="start" x="668.5" y="-73.5" font-family="Helvetica,sans-Serif" font-size="10.00">+ getRange()</text>
<text text-anchor="start" x="668.5" y="-62.5" font-family="Helvetica,sans-Serif" font-size="10.00">+ setPrice()</text>
<text text-anchor="start" x="668.5" y="-51.5" font-family="Helvetica,sans-Serif" font-size="10.00">+ getPrice()</text>
</a>
</g>
</g>
<!-- Node1&#45;&gt;Node8 -->
<g id="edge7" class="edge">
<title>Node1&#45;&gt;Node8</title>
<path fill="none" stroke="midnightblue" d="M422.44,-307.11C485.92,-291.2 584.92,-258.88 652,-201 666.07,-188.86 677.67,-172.51 686.75,-156.57"/>
<polygon fill="none" stroke="midnightblue" points="421.45,-303.75 412.57,-309.52 423.11,-310.55 421.45,-303.75"/>
</g>
</g>
</svg>
