<?xml version="1.0" encoding="UTF-8" standalone="no"?>
<!DOCTYPE svg PUBLIC "-//W3C//DTD SVG 1.1//EN"
 "http://www.w3.org/Graphics/SVG/1.1/DTD/svg11.dtd">
<!-- Generated by graphviz version 2.43.0 (0)
 -->
<!-- Title: Enemy::enemyDistance Pages: 1 -->
<svg width="517pt" height="104pt"
 viewBox="0.00 0.00 517.00 104.00" xmlns="http://www.w3.org/2000/svg" xmlns:xlink="http://www.w3.org/1999/xlink">
<g id="graph0" class="graph" transform="scale(1 1) rotate(0) translate(4 100)">
<title>Enemy::enemyDistance</title>
<!-- Node1 -->
<g id="node1" class="node">
<title>Node1</title>
<g id="a_node1"><a xlink:title=" ">
<polygon fill="#bfbfbf" stroke="black" points="377,-38.5 377,-57.5 509,-57.5 509,-38.5 377,-38.5"/>
<text text-anchor="middle" x="443" y="-45.5" font-family="Helvetica,sans-Serif" font-size="10.00">Enemy::enemyDistance</text>
</a>
</g>
</g>
<!-- Node2 -->
<g id="node2" class="node">
<title>Node2</title>
<g id="a_node2"><a xlink:href="class_enemy.html#adf23e5e83dc77b5b9896df6deaab9528" target="_top" xlink:title=" ">
<polygon fill="none" stroke="black" points="201,-57.5 201,-76.5 341,-76.5 341,-57.5 201,-57.5"/>
<text text-anchor="middle" x="271" y="-64.5" font-family="Helvetica,sans-Serif" font-size="10.00">Enemy::enemyDirectionX</text>
</a>
</g>
</g>
<!-- Node1&#45;&gt;Node2 -->
<g id="edge1" class="edge">
<title>Node1&#45;&gt;Node2</title>
<path fill="none" stroke="midnightblue" d="M366.78,-56.41C358.21,-57.37 349.5,-58.34 341.02,-59.29"/>
<polygon fill="midnightblue" stroke="midnightblue" points="367.21,-59.88 376.76,-55.29 366.43,-52.92 367.21,-59.88"/>
</g>
<!-- Node5 -->
<g id="node5" class="node">
<title>Node5</title>
<g id="a_node5"><a xlink:href="class_enemy.html#aa7a5add0fb6b2e1af8dbf174415fb482" target="_top" xlink:title=" ">
<polygon fill="none" stroke="black" points="201,-19.5 201,-38.5 341,-38.5 341,-19.5 201,-19.5"/>
<text text-anchor="middle" x="271" y="-26.5" font-family="Helvetica,sans-Serif" font-size="10.00">Enemy::enemyDirectionY</text>
</a>
</g>
</g>
<!-- Node1&#45;&gt;Node5 -->
<g id="edge4" class="edge">
<title>Node1&#45;&gt;Node5</title>
<path fill="none" stroke="midnightblue" d="M366.78,-39.59C358.21,-38.63 349.5,-37.66 341.02,-36.71"/>
<polygon fill="midnightblue" stroke="midnightblue" points="366.43,-43.08 376.76,-40.71 367.21,-36.12 366.43,-43.08"/>
</g>
<!-- Node3 -->
<g id="node3" class="node">
<title>Node3</title>
<g id="a_node3"><a xlink:href="class_projectile.html#aab843b501a1669277ec8157ddab8ca0a" target="_top" xlink:title="Fonction calculant la direction en x depuis une tour vers un ennemi.">
<polygon fill="none" stroke="black" points="0,-76.5 0,-95.5 165,-95.5 165,-76.5 0,-76.5"/>
<text text-anchor="middle" x="82.5" y="-83.5" font-family="Helvetica,sans-Serif" font-size="10.00">Projectile::projectileDirectionX</text>
</a>
</g>
</g>
<!-- Node2&#45;&gt;Node3 -->
<g id="edge2" class="edge">
<title>Node2&#45;&gt;Node3</title>
<path fill="none" stroke="midnightblue" d="M190.64,-75.09C182.21,-75.94 173.63,-76.82 165.17,-77.68"/>
<polygon fill="midnightblue" stroke="midnightblue" points="191.23,-78.54 200.82,-74.05 190.52,-71.58 191.23,-78.54"/>
</g>
<!-- Node4 -->
<g id="node4" class="node">
<title>Node4</title>
<g id="a_node4"><a xlink:href="class_enemy.html#a8d79bf0666d466e582c41e513dcb7b24" target="_top" xlink:title=" ">
<polygon fill="none" stroke="black" points="43,-38.5 43,-57.5 122,-57.5 122,-38.5 43,-38.5"/>
<text text-anchor="middle" x="82.5" y="-45.5" font-family="Helvetica,sans-Serif" font-size="10.00">Enemy::walk</text>
</a>
</g>
</g>
<!-- Node2&#45;&gt;Node4 -->
<g id="edge3" class="edge">
<title>Node2&#45;&gt;Node4</title>
<path fill="none" stroke="midnightblue" d="M190.76,-58.93C167.05,-56.51 142.11,-53.97 122.26,-51.95"/>
<polygon fill="midnightblue" stroke="midnightblue" points="190.52,-62.42 200.82,-59.95 191.23,-55.46 190.52,-62.42"/>
</g>
<!-- Node5&#45;&gt;Node4 -->
<g id="edge6" class="edge">
<title>Node5&#45;&gt;Node4</title>
<path fill="none" stroke="midnightblue" d="M190.76,-37.07C167.05,-39.49 142.11,-42.03 122.26,-44.05"/>
<polygon fill="midnightblue" stroke="midnightblue" points="191.23,-40.54 200.82,-36.05 190.52,-33.58 191.23,-40.54"/>
</g>
<!-- Node6 -->
<g id="node6" class="node">
<title>Node6</title>
<g id="a_node6"><a xlink:href="class_projectile.html#ab75864403c68d4d2f2b0f80004cd2778" target="_top" xlink:title="Fonction calculant la direction en y depuis une tour vers un ennemi.">
<polygon fill="none" stroke="black" points="0.5,-0.5 0.5,-19.5 164.5,-19.5 164.5,-0.5 0.5,-0.5"/>
<text text-anchor="middle" x="82.5" y="-7.5" font-family="Helvetica,sans-Serif" font-size="10.00">Projectile::projectileDirectionY</text>
</a>
</g>
</g>
<!-- Node5&#45;&gt;Node6 -->
<g id="edge5" class="edge">
<title>Node5&#45;&gt;Node6</title>
<path fill="none" stroke="midnightblue" d="M190.74,-20.92C182.06,-20.04 173.23,-19.14 164.54,-18.26"/>
<polygon fill="midnightblue" stroke="midnightblue" points="190.52,-24.42 200.82,-21.95 191.23,-17.46 190.52,-24.42"/>
</g>
</g>
</svg>
