<?xml version="1.0" encoding="UTF-8" standalone="no"?>
<!DOCTYPE svg PUBLIC "-//W3C//DTD SVG 1.1//EN"
 "http://www.w3.org/Graphics/SVG/1.1/DTD/svg11.dtd">
<!-- Generated by graphviz version 2.43.0 (0)
 -->
<!-- Title: Enemy::enemyDistance Pages: 1 -->
<svg width="294pt" height="142pt"
 viewBox="0.00 0.00 294.00 142.00" xmlns="http://www.w3.org/2000/svg" xmlns:xlink="http://www.w3.org/1999/xlink">
<g id="graph0" class="graph" transform="scale(1 1) rotate(0) translate(4 138)">
<title>Enemy::enemyDistance</title>
<!-- Node1 -->
<g id="node1" class="node">
<title>Node1</title>
<g id="a_node1"><a xlink:title=" ">
<polygon fill="#bfbfbf" stroke="black" points="0,-57.5 0,-76.5 132,-76.5 132,-57.5 0,-57.5"/>
<text text-anchor="middle" x="66" y="-64.5" font-family="Helvetica,sans-Serif" font-size="10.00">Enemy::enemyDistance</text>
</a>
</g>
</g>
<!-- Node2 -->
<g id="node2" class="node">
<title>Node2</title>
<g id="a_node2"><a xlink:href="class_entity.html#a632a853b65d0468f138bc35efc0d317b" target="_top" xlink:title="Accesseur renvoyant la position en x d&#39;un ennemi de type const.">
<polygon fill="none" stroke="black" points="168,-114.5 168,-133.5 286,-133.5 286,-114.5 168,-114.5"/>
<text text-anchor="middle" x="227" y="-121.5" font-family="Helvetica,sans-Serif" font-size="10.00">Entity::getConstPosX</text>
</a>
</g>
</g>
<!-- Node1&#45;&gt;Node2 -->
<g id="edge1" class="edge">
<title>Node1&#45;&gt;Node2</title>
<path fill="none" stroke="midnightblue" d="M91.38,-76.51C111.77,-84.38 141.67,-95.74 168,-105 173.97,-107.1 180.31,-109.25 186.52,-111.32"/>
<polygon fill="midnightblue" stroke="midnightblue" points="185.52,-114.68 196.11,-114.48 187.71,-108.03 185.52,-114.68"/>
</g>
<!-- Node3 -->
<g id="node3" class="node">
<title>Node3</title>
<g id="a_node3"><a xlink:href="class_entity.html#a280a384eddb9c7bfb96547adfbb8f515" target="_top" xlink:title="Accesseur renvoyant la position en y d&#39;un ennemi de type const.">
<polygon fill="none" stroke="black" points="168.5,-76.5 168.5,-95.5 285.5,-95.5 285.5,-76.5 168.5,-76.5"/>
<text text-anchor="middle" x="227" y="-83.5" font-family="Helvetica,sans-Serif" font-size="10.00">Entity::getConstPosY</text>
</a>
</g>
</g>
<!-- Node1&#45;&gt;Node3 -->
<g id="edge2" class="edge">
<title>Node1&#45;&gt;Node3</title>
<path fill="none" stroke="midnightblue" d="M132.13,-74.78C140.76,-75.81 149.62,-76.87 158.3,-77.91"/>
<polygon fill="midnightblue" stroke="midnightblue" points="158.02,-81.4 168.36,-79.11 158.85,-74.45 158.02,-81.4"/>
</g>
<!-- Node4 -->
<g id="node4" class="node">
<title>Node4</title>
<g id="a_node4"><a xlink:href="class_road.html#a3d9af22c8a684b0fde2ce1b390d27d2a" target="_top" xlink:title="Accesseur du PointX, recupère sa valeur.">
<polygon fill="none" stroke="black" points="179.5,-38.5 179.5,-57.5 274.5,-57.5 274.5,-38.5 179.5,-38.5"/>
<text text-anchor="middle" x="227" y="-45.5" font-family="Helvetica,sans-Serif" font-size="10.00">Road::getPointX</text>
</a>
</g>
</g>
<!-- Node1&#45;&gt;Node4 -->
<g id="edge3" class="edge">
<title>Node1&#45;&gt;Node4</title>
<path fill="none" stroke="midnightblue" d="M132.13,-59.22C144.34,-57.76 157.01,-56.24 168.94,-54.82"/>
<polygon fill="midnightblue" stroke="midnightblue" points="169.7,-58.25 179.22,-53.59 168.87,-51.3 169.7,-58.25"/>
</g>
<!-- Node5 -->
<g id="node5" class="node">
<title>Node5</title>
<g id="a_node5"><a xlink:href="class_road.html#ab7507b9872a1990388e7fa18d3c3253f" target="_top" xlink:title="Accesseur du PointY, récupère sa valeur.">
<polygon fill="none" stroke="black" points="180,-0.5 180,-19.5 274,-19.5 274,-0.5 180,-0.5"/>
<text text-anchor="middle" x="227" y="-7.5" font-family="Helvetica,sans-Serif" font-size="10.00">Road::getPointY</text>
</a>
</g>
</g>
<!-- Node1&#45;&gt;Node5 -->
<g id="edge4" class="edge">
<title>Node1&#45;&gt;Node5</title>
<path fill="none" stroke="midnightblue" d="M91.38,-57.49C111.77,-49.62 141.67,-38.26 168,-29 173.97,-26.9 180.31,-24.75 186.52,-22.68"/>
<polygon fill="midnightblue" stroke="midnightblue" points="187.71,-25.97 196.11,-19.52 185.52,-19.32 187.71,-25.97"/>
</g>
</g>
</svg>
