<?xml version="1.0" encoding="UTF-8" standalone="no"?>
<!DOCTYPE svg PUBLIC "-//W3C//DTD SVG 1.1//EN"
 "http://www.w3.org/Graphics/SVG/1.1/DTD/svg11.dtd">
<!-- Generated by graphviz version 2.43.0 (0)
 -->
<!-- Title: Entity::setSpeed Pages: 1 -->
<svg width="282pt" height="66pt"
 viewBox="0.00 0.00 282.00 66.00" xmlns="http://www.w3.org/2000/svg" xmlns:xlink="http://www.w3.org/1999/xlink">
<g id="graph0" class="graph" transform="scale(1 1) rotate(0) translate(4 62)">
<title>Entity::setSpeed</title>
<!-- Node1 -->
<g id="node1" class="node">
<title>Node1</title>
<g id="a_node1"><a xlink:title="Procédure définissant la vitesse de l&#39;entité">
<polygon fill="#bfbfbf" stroke="black" points="179,-19.5 179,-38.5 274,-38.5 274,-19.5 179,-19.5"/>
<text text-anchor="middle" x="226.5" y="-26.5" font-family="Helvetica,sans-Serif" font-size="10.00">Entity::setSpeed</text>
</a>
</g>
</g>
<!-- Node2 -->
<g id="node2" class="node">
<title>Node2</title>
<g id="a_node2"><a xlink:href="class_projectile.html#ac536ed2aad56af866a2078b9a85aa16d" target="_top" xlink:title=" ">
<polygon fill="none" stroke="black" points="14.5,-38.5 14.5,-57.5 128.5,-57.5 128.5,-38.5 14.5,-38.5"/>
<text text-anchor="middle" x="71.5" y="-45.5" font-family="Helvetica,sans-Serif" font-size="10.00">Projectile::Projectile</text>
</a>
</g>
</g>
<!-- Node1&#45;&gt;Node2 -->
<g id="edge1" class="edge">
<title>Node1&#45;&gt;Node2</title>
<path fill="none" stroke="midnightblue" d="M168.52,-36.08C155.48,-37.69 141.64,-39.41 128.64,-41.03"/>
<polygon fill="midnightblue" stroke="midnightblue" points="169.27,-39.51 178.76,-34.8 168.41,-32.56 169.27,-39.51"/>
</g>
<!-- Node3 -->
<g id="node3" class="node">
<title>Node3</title>
<g id="a_node3"><a xlink:href="class_tower_archer.html#a59af6e08c7426311d6bf5327ce86c13e" target="_top" xlink:title=" ">
<polygon fill="none" stroke="black" points="0,-0.5 0,-19.5 143,-19.5 143,-0.5 0,-0.5"/>
<text text-anchor="middle" x="71.5" y="-7.5" font-family="Helvetica,sans-Serif" font-size="10.00">TowerArcher::TowerArcher</text>
</a>
</g>
</g>
<!-- Node1&#45;&gt;Node3 -->
<g id="edge2" class="edge">
<title>Node1&#45;&gt;Node3</title>
<path fill="none" stroke="midnightblue" d="M168.78,-21.96C160.44,-20.92 151.76,-19.84 143.18,-18.78"/>
<polygon fill="midnightblue" stroke="midnightblue" points="168.41,-25.44 178.76,-23.2 169.27,-18.49 168.41,-25.44"/>
</g>
</g>
</svg>
