<?xml version="1.0" encoding="UTF-8" standalone="no"?>
<!DOCTYPE svg PUBLIC "-//W3C//DTD SVG 1.1//EN"
 "http://www.w3.org/Graphics/SVG/1.1/DTD/svg11.dtd">
<!-- Generated by graphviz version 2.43.0 (0)
 -->
<!-- Title: Entity Pages: 1 -->
<svg width="1049pt" height="622pt"
 viewBox="0.00 0.00 1048.50 622.00" xmlns="http://www.w3.org/2000/svg" xmlns:xlink="http://www.w3.org/1999/xlink">
<g id="graph0" class="graph" transform="scale(1 1) rotate(0) translate(4 618)">
<title>Entity</title>
<!-- Node1 -->
<g id="node1" class="node">
<title>Node1</title>
<g id="a_node1"><a xlink:title=" ">
<polygon fill="#bfbfbf" stroke="black" points="413.5,-380.5 413.5,-613.5 562.5,-613.5 562.5,-380.5 413.5,-380.5"/>
<text text-anchor="middle" x="488" y="-601.5" font-family="Helvetica,sans-Serif" font-size="10.00">Entity</text>
<polyline fill="none" stroke="black" points="413.5,-594.5 562.5,-594.5 "/>
<text text-anchor="middle" x="488" y="-582.5" font-family="Helvetica,sans-Serif" font-size="10.00"> </text>
<polyline fill="none" stroke="black" points="413.5,-575.5 562.5,-575.5 "/>
<text text-anchor="start" x="421.5" y="-563.5" font-family="Helvetica,sans-Serif" font-size="10.00">+ Entity()</text>
<text text-anchor="start" x="421.5" y="-552.5" font-family="Helvetica,sans-Serif" font-size="10.00">+ ~Entity()</text>
<text text-anchor="start" x="421.5" y="-541.5" font-family="Helvetica,sans-Serif" font-size="10.00">+ float getPosX()</text>
<text text-anchor="start" x="421.5" y="-530.5" font-family="Helvetica,sans-Serif" font-size="10.00">+ float getPosY()</text>
<text text-anchor="start" x="421.5" y="-519.5" font-family="Helvetica,sans-Serif" font-size="10.00">+ const float getConstPosX</text>
<text text-anchor="start" x="421.5" y="-508.5" font-family="Helvetica,sans-Serif" font-size="10.00">() const</text>
<text text-anchor="start" x="421.5" y="-497.5" font-family="Helvetica,sans-Serif" font-size="10.00">+ const float getConstPosY</text>
<text text-anchor="start" x="421.5" y="-486.5" font-family="Helvetica,sans-Serif" font-size="10.00">() const</text>
<text text-anchor="start" x="421.5" y="-475.5" font-family="Helvetica,sans-Serif" font-size="10.00">+ void setPos(float </text>
<text text-anchor="start" x="421.5" y="-464.5" font-family="Helvetica,sans-Serif" font-size="10.00">_posx, float _posy)</text>
<text text-anchor="start" x="421.5" y="-453.5" font-family="Helvetica,sans-Serif" font-size="10.00">+ void setPosX(float</text>
<text text-anchor="start" x="421.5" y="-442.5" font-family="Helvetica,sans-Serif" font-size="10.00"> _posx)</text>
<text text-anchor="start" x="421.5" y="-431.5" font-family="Helvetica,sans-Serif" font-size="10.00">+ void setPosY(float</text>
<text text-anchor="start" x="421.5" y="-420.5" font-family="Helvetica,sans-Serif" font-size="10.00"> _posy)</text>
<text text-anchor="start" x="421.5" y="-409.5" font-family="Helvetica,sans-Serif" font-size="10.00">+ void setSpeed(int </text>
<text text-anchor="start" x="421.5" y="-398.5" font-family="Helvetica,sans-Serif" font-size="10.00">_speed)</text>
<text text-anchor="start" x="421.5" y="-387.5" font-family="Helvetica,sans-Serif" font-size="10.00">and 7 more...</text>
</a>
</g>
</g>
<!-- Node2 -->
<g id="node2" class="node">
<title>Node2</title>
<g id="a_node2"><a xlink:href="class_castle.html" target="_top" xlink:title="classe representant le chateau">
<polygon fill="none" stroke="black" points="0,-138 0,-206 74,-206 74,-138 0,-138"/>
<text text-anchor="middle" x="37" y="-194" font-family="Helvetica,sans-Serif" font-size="10.00">Castle</text>
<polyline fill="none" stroke="black" points="0,-187 74,-187 "/>
<text text-anchor="middle" x="37" y="-175" font-family="Helvetica,sans-Serif" font-size="10.00"> </text>
<polyline fill="none" stroke="black" points="0,-168 74,-168 "/>
<text text-anchor="start" x="8" y="-156" font-family="Helvetica,sans-Serif" font-size="10.00">+ Castle()</text>
<text text-anchor="start" x="8" y="-145" font-family="Helvetica,sans-Serif" font-size="10.00">+ ~Castle()</text>
</a>
</g>
</g>
<!-- Node1&#45;&gt;Node2 -->
<g id="edge1" class="edge">
<title>Node1&#45;&gt;Node2</title>
<path fill="none" stroke="midnightblue" d="M403.34,-486.95C311.42,-472.6 166.58,-436.04 83,-344 48.28,-305.76 39.32,-244.07 37.26,-206.17"/>
<polygon fill="none" stroke="midnightblue" points="403.04,-490.45 413.45,-488.47 404.09,-483.52 403.04,-490.45"/>
</g>
<!-- Node3 -->
<g id="node3" class="node">
<title>Node3</title>
<g id="a_node3"><a xlink:href="class_enemy.html" target="_top" xlink:title=" ">
<polygon fill="none" stroke="black" points="92.5,-83 92.5,-261 227.5,-261 227.5,-83 92.5,-83"/>
<text text-anchor="middle" x="160" y="-249" font-family="Helvetica,sans-Serif" font-size="10.00">Enemy</text>
<polyline fill="none" stroke="black" points="92.5,-242 227.5,-242 "/>
<text text-anchor="start" x="100.5" y="-230" font-family="Helvetica,sans-Serif" font-size="10.00">+ std::list&lt; Enemy &gt;</text>
<text text-anchor="start" x="100.5" y="-219" font-family="Helvetica,sans-Serif" font-size="10.00"> * enemies</text>
<polyline fill="none" stroke="black" points="92.5,-212 227.5,-212 "/>
<text text-anchor="start" x="100.5" y="-200" font-family="Helvetica,sans-Serif" font-size="10.00">+ Enemy()</text>
<text text-anchor="start" x="100.5" y="-189" font-family="Helvetica,sans-Serif" font-size="10.00">+ ~Enemy()</text>
<text text-anchor="start" x="100.5" y="-178" font-family="Helvetica,sans-Serif" font-size="10.00">+ void setIsArrived(bool</text>
<text text-anchor="start" x="100.5" y="-167" font-family="Helvetica,sans-Serif" font-size="10.00"> _isArrived)</text>
<text text-anchor="start" x="100.5" y="-156" font-family="Helvetica,sans-Serif" font-size="10.00">+ bool getIsArrived()</text>
<text text-anchor="start" x="100.5" y="-145" font-family="Helvetica,sans-Serif" font-size="10.00">+ void walk(const Map</text>
<text text-anchor="start" x="100.5" y="-134" font-family="Helvetica,sans-Serif" font-size="10.00"> &amp;map)</text>
<text text-anchor="start" x="100.5" y="-123" font-family="Helvetica,sans-Serif" font-size="10.00">+ bool isDead()</text>
<text text-anchor="start" x="100.5" y="-112" font-family="Helvetica,sans-Serif" font-size="10.00">+ void walk(const Map</text>
<text text-anchor="start" x="100.5" y="-101" font-family="Helvetica,sans-Serif" font-size="10.00"> &amp;map)</text>
<text text-anchor="start" x="100.5" y="-90" font-family="Helvetica,sans-Serif" font-size="10.00">+ void appear()</text>
</a>
</g>
</g>
<!-- Node1&#45;&gt;Node3 -->
<g id="edge2" class="edge">
<title>Node1&#45;&gt;Node3</title>
<path fill="none" stroke="midnightblue" d="M404.26,-461.53C350.35,-435.81 282.02,-396.14 236,-344 215.04,-320.25 199.02,-289.79 187.22,-261.17"/>
<polygon fill="none" stroke="midnightblue" points="402.92,-464.77 413.46,-465.85 405.9,-458.43 402.92,-464.77"/>
</g>
<!-- Node4 -->
<g id="node4" class="node">
<title>Node4</title>
<g id="a_node4"><a xlink:href="class_projectile.html" target="_top" xlink:title=" ">
<polygon fill="none" stroke="black" points="245.5,-0.5 245.5,-343.5 418.5,-343.5 418.5,-0.5 245.5,-0.5"/>
<text text-anchor="middle" x="332" y="-331.5" font-family="Helvetica,sans-Serif" font-size="10.00">Projectile</text>
<polyline fill="none" stroke="black" points="245.5,-324.5 418.5,-324.5 "/>
<text text-anchor="middle" x="332" y="-312.5" font-family="Helvetica,sans-Serif" font-size="10.00"> </text>
<polyline fill="none" stroke="black" points="245.5,-305.5 418.5,-305.5 "/>
<text text-anchor="start" x="253.5" y="-293.5" font-family="Helvetica,sans-Serif" font-size="10.00">+ Projectile()</text>
<text text-anchor="start" x="253.5" y="-282.5" font-family="Helvetica,sans-Serif" font-size="10.00">+ Projectile(const TowerArcher</text>
<text text-anchor="start" x="253.5" y="-271.5" font-family="Helvetica,sans-Serif" font-size="10.00"> &amp;towerArch)</text>
<text text-anchor="start" x="253.5" y="-260.5" font-family="Helvetica,sans-Serif" font-size="10.00">+ ~Projectile()</text>
<text text-anchor="start" x="253.5" y="-249.5" font-family="Helvetica,sans-Serif" font-size="10.00">+ int getProjectile(int</text>
<text text-anchor="start" x="253.5" y="-238.5" font-family="Helvetica,sans-Serif" font-size="10.00"> damage)</text>
<text text-anchor="start" x="253.5" y="-227.5" font-family="Helvetica,sans-Serif" font-size="10.00">+ void setProjectile</text>
<text text-anchor="start" x="253.5" y="-216.5" font-family="Helvetica,sans-Serif" font-size="10.00">(int damage)</text>
<text text-anchor="start" x="253.5" y="-205.5" font-family="Helvetica,sans-Serif" font-size="10.00">+ void setTime(int _time)</text>
<text text-anchor="start" x="253.5" y="-194.5" font-family="Helvetica,sans-Serif" font-size="10.00">+ const int getTime()</text>
<text text-anchor="start" x="253.5" y="-183.5" font-family="Helvetica,sans-Serif" font-size="10.00">+ const float directionX</text>
<text text-anchor="start" x="253.5" y="-172.5" font-family="Helvetica,sans-Serif" font-size="10.00">(const Enemy &amp;enemy, const</text>
<text text-anchor="start" x="253.5" y="-161.5" font-family="Helvetica,sans-Serif" font-size="10.00"> TowerArcher &amp;tower)</text>
<text text-anchor="start" x="253.5" y="-150.5" font-family="Helvetica,sans-Serif" font-size="10.00">+ const float directionY</text>
<text text-anchor="start" x="253.5" y="-139.5" font-family="Helvetica,sans-Serif" font-size="10.00">(const Enemy &amp;enemy, const</text>
<text text-anchor="start" x="253.5" y="-128.5" font-family="Helvetica,sans-Serif" font-size="10.00"> TowerArcher &amp;tower)</text>
<text text-anchor="start" x="253.5" y="-117.5" font-family="Helvetica,sans-Serif" font-size="10.00">+ const float distance</text>
<text text-anchor="start" x="253.5" y="-106.5" font-family="Helvetica,sans-Serif" font-size="10.00">(const Enemy &amp;x, const</text>
<text text-anchor="start" x="253.5" y="-95.5" font-family="Helvetica,sans-Serif" font-size="10.00"> TowerArcher &amp;y)</text>
<text text-anchor="start" x="253.5" y="-84.5" font-family="Helvetica,sans-Serif" font-size="10.00">+ void track(Enemy &amp;enemy,</text>
<text text-anchor="start" x="253.5" y="-73.5" font-family="Helvetica,sans-Serif" font-size="10.00"> const TowerArcher &amp;towerArch)</text>
<text text-anchor="start" x="253.5" y="-62.5" font-family="Helvetica,sans-Serif" font-size="10.00">+ void inRange(const</text>
<text text-anchor="start" x="253.5" y="-51.5" font-family="Helvetica,sans-Serif" font-size="10.00"> Enemy &amp;enemy, const</text>
<text text-anchor="start" x="253.5" y="-40.5" font-family="Helvetica,sans-Serif" font-size="10.00"> TowerArcher &amp;towerArch)</text>
<text text-anchor="start" x="253.5" y="-29.5" font-family="Helvetica,sans-Serif" font-size="10.00">+ const bool isInRange</text>
<text text-anchor="start" x="253.5" y="-18.5" font-family="Helvetica,sans-Serif" font-size="10.00">() const</text>
<text text-anchor="start" x="253.5" y="-7.5" font-family="Helvetica,sans-Serif" font-size="10.00">+ const bool touch()</text>
</a>
</g>
</g>
<!-- Node1&#45;&gt;Node4 -->
<g id="edge3" class="edge">
<title>Node1&#45;&gt;Node4</title>
<path fill="none" stroke="midnightblue" d="M427.76,-371.28C423.38,-362.19 418.91,-352.95 414.42,-343.66"/>
<polygon fill="none" stroke="midnightblue" points="424.62,-372.82 432.12,-380.3 430.92,-369.77 424.62,-372.82"/>
</g>
<!-- Node5 -->
<g id="node5" class="node">
<title>Node5</title>
<g id="a_node5"><a xlink:href="class_tower.html" target="_top" xlink:title=" ">
<polygon fill="none" stroke="black" points="436.5,-127 436.5,-217 539.5,-217 539.5,-127 436.5,-127"/>
<text text-anchor="middle" x="488" y="-205" font-family="Helvetica,sans-Serif" font-size="10.00">Tower</text>
<polyline fill="none" stroke="black" points="436.5,-198 539.5,-198 "/>
<text text-anchor="middle" x="488" y="-186" font-family="Helvetica,sans-Serif" font-size="10.00"> </text>
<polyline fill="none" stroke="black" points="436.5,-179 539.5,-179 "/>
<text text-anchor="start" x="444.5" y="-167" font-family="Helvetica,sans-Serif" font-size="10.00">+ Tower()</text>
<text text-anchor="start" x="444.5" y="-156" font-family="Helvetica,sans-Serif" font-size="10.00">+ ~Tower()</text>
<text text-anchor="start" x="444.5" y="-145" font-family="Helvetica,sans-Serif" font-size="10.00">+ void setTower()</text>
<text text-anchor="start" x="444.5" y="-134" font-family="Helvetica,sans-Serif" font-size="10.00">+ int getTower()</text>
</a>
</g>
</g>
<!-- Node1&#45;&gt;Node5 -->
<g id="edge4" class="edge">
<title>Node1&#45;&gt;Node5</title>
<path fill="none" stroke="midnightblue" d="M488,-370.3C488,-316.33 488,-256.75 488,-217.33"/>
<polygon fill="none" stroke="midnightblue" points="484.5,-370.3 488,-380.3 491.5,-370.3 484.5,-370.3"/>
</g>
<!-- Node6 -->
<g id="node6" class="node">
<title>Node6</title>
<g id="a_node6"><a xlink:href="class_tower_archer.html" target="_top" xlink:title=" ">
<polygon fill="none" stroke="black" points="557.5,-110.5 557.5,-233.5 706.5,-233.5 706.5,-110.5 557.5,-110.5"/>
<text text-anchor="middle" x="632" y="-221.5" font-family="Helvetica,sans-Serif" font-size="10.00">TowerArcher</text>
<polyline fill="none" stroke="black" points="557.5,-214.5 706.5,-214.5 "/>
<text text-anchor="middle" x="632" y="-202.5" font-family="Helvetica,sans-Serif" font-size="10.00"> </text>
<polyline fill="none" stroke="black" points="557.5,-195.5 706.5,-195.5 "/>
<text text-anchor="start" x="565.5" y="-183.5" font-family="Helvetica,sans-Serif" font-size="10.00">+ TowerArcher()</text>
<text text-anchor="start" x="565.5" y="-172.5" font-family="Helvetica,sans-Serif" font-size="10.00">+ ~TowerArcher()</text>
<text text-anchor="start" x="565.5" y="-161.5" font-family="Helvetica,sans-Serif" font-size="10.00">+ void setRange(int range)</text>
<text text-anchor="start" x="565.5" y="-150.5" font-family="Helvetica,sans-Serif" font-size="10.00">+ int getRange() const</text>
<text text-anchor="start" x="565.5" y="-139.5" font-family="Helvetica,sans-Serif" font-size="10.00">+ void setPrice(int </text>
<text text-anchor="start" x="565.5" y="-128.5" font-family="Helvetica,sans-Serif" font-size="10.00">_price)</text>
<text text-anchor="start" x="565.5" y="-117.5" font-family="Helvetica,sans-Serif" font-size="10.00">+ int getPrice() const</text>
</a>
</g>
</g>
<!-- Node1&#45;&gt;Node6 -->
<g id="edge5" class="edge">
<title>Node1&#45;&gt;Node6</title>
<path fill="none" stroke="midnightblue" d="M543.76,-370.93C564.78,-323.77 587.76,-272.24 604.99,-233.58"/>
<polygon fill="none" stroke="midnightblue" points="540.46,-369.74 539.58,-380.3 546.85,-372.59 540.46,-369.74"/>
</g>
<!-- Node7 -->
<g id="node7" class="node">
<title>Node7</title>
<g id="a_node7"><a xlink:href="class_tower_bomb.html" target="_top" xlink:title=" ">
<polygon fill="none" stroke="black" points="724.5,-110.5 724.5,-233.5 873.5,-233.5 873.5,-110.5 724.5,-110.5"/>
<text text-anchor="middle" x="799" y="-221.5" font-family="Helvetica,sans-Serif" font-size="10.00">TowerBomb</text>
<polyline fill="none" stroke="black" points="724.5,-214.5 873.5,-214.5 "/>
<text text-anchor="middle" x="799" y="-202.5" font-family="Helvetica,sans-Serif" font-size="10.00"> </text>
<polyline fill="none" stroke="black" points="724.5,-195.5 873.5,-195.5 "/>
<text text-anchor="start" x="732.5" y="-183.5" font-family="Helvetica,sans-Serif" font-size="10.00">+ TowerBomb()</text>
<text text-anchor="start" x="732.5" y="-172.5" font-family="Helvetica,sans-Serif" font-size="10.00">+ ~TowerBomb()</text>
<text text-anchor="start" x="732.5" y="-161.5" font-family="Helvetica,sans-Serif" font-size="10.00">+ void setRange(int range)</text>
<text text-anchor="start" x="732.5" y="-150.5" font-family="Helvetica,sans-Serif" font-size="10.00">+ int getRange() const</text>
<text text-anchor="start" x="732.5" y="-139.5" font-family="Helvetica,sans-Serif" font-size="10.00">+ void setPrice(int </text>
<text text-anchor="start" x="732.5" y="-128.5" font-family="Helvetica,sans-Serif" font-size="10.00">_price)</text>
<text text-anchor="start" x="732.5" y="-117.5" font-family="Helvetica,sans-Serif" font-size="10.00">+ int getPrice() const</text>
</a>
</g>
</g>
<!-- Node1&#45;&gt;Node7 -->
<g id="edge6" class="edge">
<title>Node1&#45;&gt;Node7</title>
<path fill="none" stroke="midnightblue" d="M571.72,-454.56C618.76,-428.03 675.9,-389.97 716,-344 743.98,-311.92 764.84,-268.75 778.65,-233.81"/>
<polygon fill="none" stroke="midnightblue" points="569.79,-451.63 562.76,-459.55 573.2,-457.74 569.79,-451.63"/>
</g>
<!-- Node8 -->
<g id="node8" class="node">
<title>Node8</title>
<g id="a_node8"><a xlink:href="class_tower_magic.html" target="_top" xlink:title=" ">
<polygon fill="none" stroke="black" points="891.5,-110.5 891.5,-233.5 1040.5,-233.5 1040.5,-110.5 891.5,-110.5"/>
<text text-anchor="middle" x="966" y="-221.5" font-family="Helvetica,sans-Serif" font-size="10.00">TowerMagic</text>
<polyline fill="none" stroke="black" points="891.5,-214.5 1040.5,-214.5 "/>
<text text-anchor="middle" x="966" y="-202.5" font-family="Helvetica,sans-Serif" font-size="10.00"> </text>
<polyline fill="none" stroke="black" points="891.5,-195.5 1040.5,-195.5 "/>
<text text-anchor="start" x="899.5" y="-183.5" font-family="Helvetica,sans-Serif" font-size="10.00">+ TowerMagic()</text>
<text text-anchor="start" x="899.5" y="-172.5" font-family="Helvetica,sans-Serif" font-size="10.00">+ ~TowerMagic()</text>
<text text-anchor="start" x="899.5" y="-161.5" font-family="Helvetica,sans-Serif" font-size="10.00">+ void setRange(int range)</text>
<text text-anchor="start" x="899.5" y="-150.5" font-family="Helvetica,sans-Serif" font-size="10.00">+ int getRange() const</text>
<text text-anchor="start" x="899.5" y="-139.5" font-family="Helvetica,sans-Serif" font-size="10.00">+ void setPrice(int </text>
<text text-anchor="start" x="899.5" y="-128.5" font-family="Helvetica,sans-Serif" font-size="10.00">_price)</text>
<text text-anchor="start" x="899.5" y="-117.5" font-family="Helvetica,sans-Serif" font-size="10.00">+ int getPrice() const</text>
</a>
</g>
</g>
<!-- Node1&#45;&gt;Node8 -->
<g id="edge7" class="edge">
<title>Node1&#45;&gt;Node8</title>
<path fill="none" stroke="midnightblue" d="M572.42,-482.31C659.64,-464.25 795.08,-424.78 883,-344 915.08,-314.53 936.14,-269.99 949.02,-233.75"/>
<polygon fill="none" stroke="midnightblue" points="571.66,-478.89 562.56,-484.3 573.05,-485.75 571.66,-478.89"/>
</g>
</g>
</svg>
