<?xml version="1.0" encoding="UTF-8" standalone="no"?>
<!DOCTYPE svg PUBLIC "-//W3C//DTD SVG 1.1//EN"
 "http://www.w3.org/Graphics/SVG/1.1/DTD/svg11.dtd">
<!-- Generated by graphviz version 2.43.0 (0)
 -->
<!-- Title: Projectile::Projectile Pages: 1 -->
<svg width="286pt" height="218pt"
 viewBox="0.00 0.00 286.00 218.00" xmlns="http://www.w3.org/2000/svg" xmlns:xlink="http://www.w3.org/1999/xlink">
<g id="graph0" class="graph" transform="scale(1 1) rotate(0) translate(4 214)">
<title>Projectile::Projectile</title>
<!-- Node1 -->
<g id="node1" class="node">
<title>Node1</title>
<g id="a_node1"><a xlink:title=" ">
<polygon fill="#bfbfbf" stroke="black" points="0,-95.5 0,-114.5 114,-114.5 114,-95.5 0,-95.5"/>
<text text-anchor="middle" x="57" y="-102.5" font-family="Helvetica,sans-Serif" font-size="10.00">Projectile::Projectile</text>
</a>
</g>
</g>
<!-- Node2 -->
<g id="node2" class="node">
<title>Node2</title>
<g id="a_node2"><a xlink:href="class_entity.html#a758caa46a2a259ffc63d09616def9423" target="_top" xlink:title="Fonction retournant la position en x de l&#39;entité en const.">
<polygon fill="none" stroke="black" points="155,-190.5 155,-209.5 273,-209.5 273,-190.5 155,-190.5"/>
<text text-anchor="middle" x="214" y="-197.5" font-family="Helvetica,sans-Serif" font-size="10.00">Entity::getConstPosX</text>
</a>
</g>
</g>
<!-- Node1&#45;&gt;Node2 -->
<g id="edge1" class="edge">
<title>Node1&#45;&gt;Node2</title>
<path fill="none" stroke="midnightblue" d="M67,-114.6C82.5,-130.59 115.85,-162.71 150,-181 154.19,-183.24 158.67,-185.26 163.25,-187.06"/>
<polygon fill="midnightblue" stroke="midnightblue" points="162.12,-190.37 172.72,-190.46 164.49,-183.79 162.12,-190.37"/>
</g>
<!-- Node3 -->
<g id="node3" class="node">
<title>Node3</title>
<g id="a_node3"><a xlink:href="class_entity.html#a44db7a4bd777f13d5316ca9151dffad7" target="_top" xlink:title="Fonction retournant la position en y de l&#39;entité en const.">
<polygon fill="none" stroke="black" points="155.5,-152.5 155.5,-171.5 272.5,-171.5 272.5,-152.5 155.5,-152.5"/>
<text text-anchor="middle" x="214" y="-159.5" font-family="Helvetica,sans-Serif" font-size="10.00">Entity::getConstPosY</text>
</a>
</g>
</g>
<!-- Node1&#45;&gt;Node3 -->
<g id="edge2" class="edge">
<title>Node1&#45;&gt;Node3</title>
<path fill="none" stroke="midnightblue" d="M79.33,-114.51C97.83,-122.59 125.42,-134.24 150,-143 156.14,-145.19 162.68,-147.35 169.13,-149.38"/>
<polygon fill="midnightblue" stroke="midnightblue" points="168.54,-152.86 179.12,-152.45 170.59,-146.17 168.54,-152.86"/>
</g>
<!-- Node4 -->
<g id="node4" class="node">
<title>Node4</title>
<g id="a_node4"><a xlink:href="class_entity.html#abdd4f6821f64524d42bdf29baa7375b5" target="_top" xlink:title="Procédure définissant la position en x et en y.">
<polygon fill="none" stroke="black" points="172.5,-114.5 172.5,-133.5 255.5,-133.5 255.5,-114.5 172.5,-114.5"/>
<text text-anchor="middle" x="214" y="-121.5" font-family="Helvetica,sans-Serif" font-size="10.00">Entity::setPos</text>
</a>
</g>
</g>
<!-- Node1&#45;&gt;Node4 -->
<g id="edge3" class="edge">
<title>Node1&#45;&gt;Node4</title>
<path fill="none" stroke="midnightblue" d="M114.4,-111.91C130.01,-113.83 146.86,-115.89 162.14,-117.77"/>
<polygon fill="midnightblue" stroke="midnightblue" points="162.08,-121.28 172.43,-119.03 162.93,-114.34 162.08,-121.28"/>
</g>
<!-- Node5 -->
<g id="node5" class="node">
<title>Node5</title>
<g id="a_node5"><a xlink:href="class_tower_archer.html#acd38cffb28eae6001a17a5699b100ca5" target="_top" xlink:title=" ">
<polygon fill="none" stroke="black" points="150,-76.5 150,-95.5 278,-95.5 278,-76.5 150,-76.5"/>
<text text-anchor="middle" x="214" y="-83.5" font-family="Helvetica,sans-Serif" font-size="10.00">TowerArcher::setRange</text>
</a>
</g>
</g>
<!-- Node1&#45;&gt;Node5 -->
<g id="edge4" class="edge">
<title>Node1&#45;&gt;Node5</title>
<path fill="none" stroke="midnightblue" d="M114.4,-98.09C122.67,-97.07 131.29,-96.02 139.84,-94.97"/>
<polygon fill="midnightblue" stroke="midnightblue" points="140.33,-98.43 149.83,-93.74 139.47,-91.49 140.33,-98.43"/>
</g>
<!-- Node6 -->
<g id="node6" class="node">
<title>Node6</title>
<g id="a_node6"><a xlink:href="class_entity.html#a5cd41e16d7e711c662ca8156620f554e" target="_top" xlink:title="Procédure définissant la vitesse de l&#39;entité">
<polygon fill="none" stroke="black" points="166.5,-38.5 166.5,-57.5 261.5,-57.5 261.5,-38.5 166.5,-38.5"/>
<text text-anchor="middle" x="214" y="-45.5" font-family="Helvetica,sans-Serif" font-size="10.00">Entity::setSpeed</text>
</a>
</g>
</g>
<!-- Node1&#45;&gt;Node6 -->
<g id="edge5" class="edge">
<title>Node1&#45;&gt;Node6</title>
<path fill="none" stroke="midnightblue" d="M79.33,-95.49C97.83,-87.41 125.42,-75.76 150,-67 156.14,-64.81 162.68,-62.65 169.13,-60.62"/>
<polygon fill="midnightblue" stroke="midnightblue" points="170.59,-63.83 179.12,-57.55 168.54,-57.14 170.59,-63.83"/>
</g>
<!-- Node7 -->
<g id="node7" class="node">
<title>Node7</title>
<g id="a_node7"><a xlink:href="class_projectile.html#ad8f541084dea689d7f2c8d6893c77129" target="_top" xlink:title=" ">
<polygon fill="none" stroke="black" points="160,-0.5 160,-19.5 268,-19.5 268,-0.5 160,-0.5"/>
<text text-anchor="middle" x="214" y="-7.5" font-family="Helvetica,sans-Serif" font-size="10.00">Projectile::setTime</text>
</a>
</g>
</g>
<!-- Node1&#45;&gt;Node7 -->
<g id="edge6" class="edge">
<title>Node1&#45;&gt;Node7</title>
<path fill="none" stroke="midnightblue" d="M67,-95.4C82.5,-79.41 115.85,-47.29 150,-29 154.19,-26.76 158.67,-24.74 163.25,-22.94"/>
<polygon fill="midnightblue" stroke="midnightblue" points="164.49,-26.21 172.72,-19.54 162.12,-19.63 164.49,-26.21"/>
</g>
</g>
</svg>
