<?xml version="1.0" encoding="UTF-8" standalone="no"?>
<!DOCTYPE svg PUBLIC "-//W3C//DTD SVG 1.1//EN"
 "http://www.w3.org/Graphics/SVG/1.1/DTD/svg11.dtd">
<!-- Generated by graphviz version 2.43.0 (0)
 -->
<!-- Title: Entity::getConstPosX Pages: 1 -->
<svg width="501pt" height="180pt"
 viewBox="0.00 0.00 501.00 180.00" xmlns="http://www.w3.org/2000/svg" xmlns:xlink="http://www.w3.org/1999/xlink">
<g id="graph0" class="graph" transform="scale(1 1) rotate(0) translate(4 176)">
<title>Entity::getConstPosX</title>
<!-- Node1 -->
<g id="node1" class="node">
<title>Node1</title>
<g id="a_node1"><a xlink:title="Accesseur renvoyant la position en x d&#39;un ennemi de type const.">
<polygon fill="#bfbfbf" stroke="black" points="375,-76.5 375,-95.5 493,-95.5 493,-76.5 375,-76.5"/>
<text text-anchor="middle" x="434" y="-83.5" font-family="Helvetica,sans-Serif" font-size="10.00">Entity::getConstPosX</text>
</a>
</g>
</g>
<!-- Node2 -->
<g id="node2" class="node">
<title>Node2</title>
<g id="a_node2"><a xlink:href="class_projectile.html#ae5645549de0ef4e2defdb3edd9fc57f0" target="_top" xlink:title="Fonction calculant la direction en x depuis une tour vers un ennemi.">
<polygon fill="none" stroke="black" points="221,-152.5 221,-171.5 339,-171.5 339,-152.5 221,-152.5"/>
<text text-anchor="middle" x="280" y="-159.5" font-family="Helvetica,sans-Serif" font-size="10.00">Projectile::directionX</text>
</a>
</g>
</g>
<!-- Node1&#45;&gt;Node2 -->
<g id="edge1" class="edge">
<title>Node1&#45;&gt;Node2</title>
<path fill="none" stroke="midnightblue" d="M408.22,-100.72C389.49,-111.59 363.01,-126.44 339,-138 328.3,-143.15 316.19,-148.27 305.82,-152.45"/>
<polygon fill="midnightblue" stroke="midnightblue" points="410.13,-103.65 416.99,-95.58 406.59,-97.61 410.13,-103.65"/>
</g>
<!-- Node3 -->
<g id="node3" class="node">
<title>Node3</title>
<g id="a_node3"><a xlink:href="class_projectile.html#adfc163f4a625fc293f8f67fd0eb49761" target="_top" xlink:title="Fonction calculant toutes les positions nécessaires au projectile entre une tour et un ennemi.">
<polygon fill="none" stroke="black" points="84.5,-133.5 84.5,-152.5 177.5,-152.5 177.5,-133.5 84.5,-133.5"/>
<text text-anchor="middle" x="131" y="-140.5" font-family="Helvetica,sans-Serif" font-size="10.00">Projectile::track</text>
</a>
</g>
</g>
<!-- Node1&#45;&gt;Node3 -->
<g id="edge6" class="edge">
<title>Node1&#45;&gt;Node3</title>
<path fill="none" stroke="midnightblue" d="M376.85,-97.52C364.39,-100.03 351.25,-102.64 339,-105 283.57,-115.69 219.65,-127.32 177.68,-134.86"/>
<polygon fill="midnightblue" stroke="midnightblue" points="377.55,-100.95 386.66,-95.54 376.16,-94.09 377.55,-100.95"/>
</g>
<!-- Node4 -->
<g id="node4" class="node">
<title>Node4</title>
<g id="a_node4"><a xlink:href="class_projectile.html#af518d9b26f04aa7e5a8a13fc6060a98a" target="_top" xlink:title="Fonction calculant la distance depuis une tour jusqu&#39;à un ennemi.">
<polygon fill="none" stroke="black" points="225,-76.5 225,-95.5 335,-95.5 335,-76.5 225,-76.5"/>
<text text-anchor="middle" x="280" y="-83.5" font-family="Helvetica,sans-Serif" font-size="10.00">Projectile::distance</text>
</a>
</g>
</g>
<!-- Node1&#45;&gt;Node4 -->
<g id="edge3" class="edge">
<title>Node1&#45;&gt;Node4</title>
<path fill="none" stroke="midnightblue" d="M364.58,-86C354.81,-86 344.88,-86 335.43,-86"/>
<polygon fill="midnightblue" stroke="midnightblue" points="364.67,-89.5 374.67,-86 364.67,-82.5 364.67,-89.5"/>
</g>
<!-- Node6 -->
<g id="node6" class="node">
<title>Node6</title>
<g id="a_node6"><a xlink:href="class_projectile.html#ac536ed2aad56af866a2078b9a85aa16d" target="_top" xlink:title="Constructeur par défaut de la classe Projectile.">
<polygon fill="none" stroke="black" points="223,-38.5 223,-57.5 337,-57.5 337,-38.5 223,-38.5"/>
<text text-anchor="middle" x="280" y="-45.5" font-family="Helvetica,sans-Serif" font-size="10.00">Projectile::Projectile</text>
</a>
</g>
</g>
<!-- Node1&#45;&gt;Node6 -->
<g id="edge5" class="edge">
<title>Node1&#45;&gt;Node6</title>
<path fill="none" stroke="midnightblue" d="M384.84,-73.96C363.6,-68.65 339,-62.5 319.08,-57.52"/>
<polygon fill="midnightblue" stroke="midnightblue" points="384.09,-77.38 394.64,-76.41 385.79,-70.59 384.09,-77.38"/>
</g>
<!-- Node7 -->
<g id="node7" class="node">
<title>Node7</title>
<g id="a_node7"><a xlink:href="_game_t_x_t_8h.html#a79f96f754efd066587bec9a3d0d0add7" target="_top" xlink:title="Fonction dans lequel l&#39;affichage se fait.">
<polygon fill="none" stroke="black" points="252,-0.5 252,-19.5 308,-19.5 308,-0.5 252,-0.5"/>
<text text-anchor="middle" x="280" y="-7.5" font-family="Helvetica,sans-Serif" font-size="10.00">txtShow</text>
</a>
</g>
</g>
<!-- Node1&#45;&gt;Node7 -->
<g id="edge7" class="edge">
<title>Node1&#45;&gt;Node7</title>
<path fill="none" stroke="midnightblue" d="M411.2,-70.81C392.64,-58.36 364.93,-40.92 339,-29 329.18,-24.49 317.98,-20.55 308.05,-17.45"/>
<polygon fill="midnightblue" stroke="midnightblue" points="409.3,-73.74 419.53,-76.47 413.23,-67.95 409.3,-73.74"/>
</g>
<!-- Node2&#45;&gt;Node3 -->
<g id="edge2" class="edge">
<title>Node2&#45;&gt;Node3</title>
<path fill="none" stroke="midnightblue" d="M210.75,-153.18C199.62,-151.74 188.33,-150.28 177.9,-148.93"/>
<polygon fill="midnightblue" stroke="midnightblue" points="210.54,-156.68 220.9,-154.49 211.43,-149.74 210.54,-156.68"/>
</g>
<!-- Node5 -->
<g id="node5" class="node">
<title>Node5</title>
<g id="a_node5"><a xlink:href="class_projectile.html#a62f3ecf85f4a26de65c5e0e333181ed1" target="_top" xlink:title="Fonction modifiant la donnée membre inRange en fonction de la distance entre un ennemi et une tour.">
<polygon fill="none" stroke="black" points="77,-76.5 77,-95.5 185,-95.5 185,-76.5 77,-76.5"/>
<text text-anchor="middle" x="131" y="-83.5" font-family="Helvetica,sans-Serif" font-size="10.00">Projectile::inRange</text>
</a>
</g>
</g>
<!-- Node4&#45;&gt;Node5 -->
<g id="edge4" class="edge">
<title>Node4&#45;&gt;Node5</title>
<path fill="none" stroke="midnightblue" d="M214.55,-86C204.72,-86 194.67,-86 185.12,-86"/>
<polygon fill="midnightblue" stroke="midnightblue" points="214.68,-89.5 224.68,-86 214.68,-82.5 214.68,-89.5"/>
</g>
<!-- Node8 -->
<g id="node8" class="node">
<title>Node8</title>
<g id="a_node8"><a xlink:href="_game_t_x_t_8h.html#aa8f70cd3510ceae6f2dd1bd542fcaabd" target="_top" xlink:title="Boucle pour l&#39;affichage et la gestion des évènements.">
<polygon fill="none" stroke="black" points="104.5,-0.5 104.5,-19.5 157.5,-19.5 157.5,-0.5 104.5,-0.5"/>
<text text-anchor="middle" x="131" y="-7.5" font-family="Helvetica,sans-Serif" font-size="10.00">txtLoop</text>
</a>
</g>
</g>
<!-- Node7&#45;&gt;Node8 -->
<g id="edge8" class="edge">
<title>Node7&#45;&gt;Node8</title>
<path fill="none" stroke="midnightblue" d="M241.36,-10C215.13,-10 180.82,-10 157.68,-10"/>
<polygon fill="midnightblue" stroke="midnightblue" points="241.69,-13.5 251.69,-10 241.69,-6.5 241.69,-13.5"/>
</g>
<!-- Node9 -->
<g id="node9" class="node">
<title>Node9</title>
<g id="a_node9"><a xlink:href="main_t_x_t_8cpp.html#a840291bc02cba5474a4cb46a9b9566fe" target="_top" xlink:title=" ">
<polygon fill="none" stroke="black" points="0,-0.5 0,-19.5 41,-19.5 41,-0.5 0,-0.5"/>
<text text-anchor="middle" x="20.5" y="-7.5" font-family="Helvetica,sans-Serif" font-size="10.00">main</text>
</a>
</g>
</g>
<!-- Node8&#45;&gt;Node9 -->
<g id="edge9" class="edge">
<title>Node8&#45;&gt;Node9</title>
<path fill="none" stroke="midnightblue" d="M93.81,-10C76.28,-10 55.91,-10 41.26,-10"/>
<polygon fill="midnightblue" stroke="midnightblue" points="94.29,-13.5 104.29,-10 94.29,-6.5 94.29,-13.5"/>
</g>
</g>
</svg>
