<?xml version="1.0" encoding="UTF-8" standalone="no"?>
<!DOCTYPE svg PUBLIC "-//W3C//DTD SVG 1.1//EN"
 "http://www.w3.org/Graphics/SVG/1.1/DTD/svg11.dtd">
<!-- Generated by graphviz version 2.43.0 (0)
 -->
<!-- Title: Entity Pages: 1 -->
<svg width="781pt" height="391pt"
 viewBox="0.00 0.00 780.50 391.00" xmlns="http://www.w3.org/2000/svg" xmlns:xlink="http://www.w3.org/1999/xlink">
<g id="graph0" class="graph" transform="scale(1 1) rotate(0) translate(4 387)">
<title>Entity</title>
<!-- Node1 -->
<g id="node1" class="node">
<title>Node1</title>
<g id="a_node1"><a xlink:title="Classe gérant toutes les entités présentes dans le jeu (Ennemis, Tours, Projectiles,...">
<polygon fill="#bfbfbf" stroke="black" points="320.5,-215.5 320.5,-382.5 423.5,-382.5 423.5,-215.5 320.5,-215.5"/>
<text text-anchor="middle" x="372" y="-370.5" font-family="Helvetica,sans-Serif" font-size="10.00">Entity</text>
<polyline fill="none" stroke="black" points="320.5,-363.5 423.5,-363.5 "/>
<text text-anchor="middle" x="372" y="-351.5" font-family="Helvetica,sans-Serif" font-size="10.00"> </text>
<polyline fill="none" stroke="black" points="320.5,-344.5 423.5,-344.5 "/>
<text text-anchor="start" x="328.5" y="-332.5" font-family="Helvetica,sans-Serif" font-size="10.00">+ Entity()</text>
<text text-anchor="start" x="328.5" y="-321.5" font-family="Helvetica,sans-Serif" font-size="10.00">+ ~Entity()</text>
<text text-anchor="start" x="328.5" y="-310.5" font-family="Helvetica,sans-Serif" font-size="10.00">+ getPosX()</text>
<text text-anchor="start" x="328.5" y="-299.5" font-family="Helvetica,sans-Serif" font-size="10.00">+ getPosY()</text>
<text text-anchor="start" x="328.5" y="-288.5" font-family="Helvetica,sans-Serif" font-size="10.00">+ getConstPosX()</text>
<text text-anchor="start" x="328.5" y="-277.5" font-family="Helvetica,sans-Serif" font-size="10.00">+ getConstPosY()</text>
<text text-anchor="start" x="328.5" y="-266.5" font-family="Helvetica,sans-Serif" font-size="10.00">+ setPos()</text>
<text text-anchor="start" x="328.5" y="-255.5" font-family="Helvetica,sans-Serif" font-size="10.00">+ setPosX()</text>
<text text-anchor="start" x="328.5" y="-244.5" font-family="Helvetica,sans-Serif" font-size="10.00">+ setPosY()</text>
<text text-anchor="start" x="328.5" y="-233.5" font-family="Helvetica,sans-Serif" font-size="10.00">+ setSpeed()</text>
<text text-anchor="start" x="328.5" y="-222.5" font-family="Helvetica,sans-Serif" font-size="10.00">and 8 more...</text>
</a>
</g>
</g>
<!-- Node2 -->
<g id="node2" class="node">
<title>Node2</title>
<g id="a_node2"><a xlink:href="class_castle.html" target="_top" xlink:title=" ">
<polygon fill="none" stroke="black" points="0,-55.5 0,-123.5 74,-123.5 74,-55.5 0,-55.5"/>
<text text-anchor="middle" x="37" y="-111.5" font-family="Helvetica,sans-Serif" font-size="10.00">Castle</text>
<polyline fill="none" stroke="black" points="0,-104.5 74,-104.5 "/>
<text text-anchor="middle" x="37" y="-92.5" font-family="Helvetica,sans-Serif" font-size="10.00"> </text>
<polyline fill="none" stroke="black" points="0,-85.5 74,-85.5 "/>
<text text-anchor="start" x="8" y="-73.5" font-family="Helvetica,sans-Serif" font-size="10.00">+ Castle()</text>
<text text-anchor="start" x="8" y="-62.5" font-family="Helvetica,sans-Serif" font-size="10.00">+ ~Castle()</text>
</a>
</g>
</g>
<!-- Node1&#45;&gt;Node2 -->
<g id="edge1" class="edge">
<title>Node1&#45;&gt;Node2</title>
<path fill="none" stroke="midnightblue" d="M310.6,-285.81C247.03,-270.45 148.07,-238.54 83,-179 66.65,-164.04 55.15,-141.91 47.74,-123.53"/>
<polygon fill="none" stroke="midnightblue" points="309.96,-289.25 320.49,-288.13 311.56,-282.44 309.96,-289.25"/>
</g>
<!-- Node3 -->
<g id="node3" class="node">
<title>Node3</title>
<g id="a_node3"><a xlink:href="class_enemy.html" target="_top" xlink:title="Classe gérant les ennemis /!\ Hérite de la classe Entity /!.">
<polygon fill="none" stroke="black" points="92,-28 92,-151 198,-151 198,-28 92,-28"/>
<text text-anchor="middle" x="145" y="-139" font-family="Helvetica,sans-Serif" font-size="10.00">Enemy</text>
<polyline fill="none" stroke="black" points="92,-132 198,-132 "/>
<text text-anchor="start" x="100" y="-120" font-family="Helvetica,sans-Serif" font-size="10.00">+ enemies</text>
<polyline fill="none" stroke="black" points="92,-113 198,-113 "/>
<text text-anchor="start" x="100" y="-101" font-family="Helvetica,sans-Serif" font-size="10.00">+ Enemy()</text>
<text text-anchor="start" x="100" y="-90" font-family="Helvetica,sans-Serif" font-size="10.00">+ ~Enemy()</text>
<text text-anchor="start" x="100" y="-79" font-family="Helvetica,sans-Serif" font-size="10.00">+ setIsArrived()</text>
<text text-anchor="start" x="100" y="-68" font-family="Helvetica,sans-Serif" font-size="10.00">+ getIsArrived()</text>
<text text-anchor="start" x="100" y="-57" font-family="Helvetica,sans-Serif" font-size="10.00">+ walk()</text>
<text text-anchor="start" x="100" y="-46" font-family="Helvetica,sans-Serif" font-size="10.00">+ isDead()</text>
<text text-anchor="start" x="100" y="-35" font-family="Helvetica,sans-Serif" font-size="10.00">+ regressionTest()</text>
</a>
</g>
</g>
<!-- Node1&#45;&gt;Node3 -->
<g id="edge2" class="edge">
<title>Node1&#45;&gt;Node3</title>
<path fill="none" stroke="midnightblue" d="M311.56,-261.49C278.56,-239.89 238.19,-210.62 207,-179 198.7,-170.59 190.73,-160.95 183.43,-151.21"/>
<polygon fill="none" stroke="midnightblue" points="309.92,-264.6 320.21,-267.1 313.72,-258.72 309.92,-264.6"/>
</g>
<!-- Node4 -->
<g id="node4" class="node">
<title>Node4</title>
<g id="a_node4"><a xlink:href="class_projectile.html" target="_top" xlink:title="Classe gérant les projectiles /!\ Hérite de la classe Entity /!.">
<polygon fill="none" stroke="black" points="216.5,-0.5 216.5,-178.5 313.5,-178.5 313.5,-0.5 216.5,-0.5"/>
<text text-anchor="middle" x="265" y="-166.5" font-family="Helvetica,sans-Serif" font-size="10.00">Projectile</text>
<polyline fill="none" stroke="black" points="216.5,-159.5 313.5,-159.5 "/>
<text text-anchor="middle" x="265" y="-147.5" font-family="Helvetica,sans-Serif" font-size="10.00"> </text>
<polyline fill="none" stroke="black" points="216.5,-140.5 313.5,-140.5 "/>
<text text-anchor="start" x="224.5" y="-128.5" font-family="Helvetica,sans-Serif" font-size="10.00">+ Projectile()</text>
<text text-anchor="start" x="224.5" y="-117.5" font-family="Helvetica,sans-Serif" font-size="10.00">+ ~Projectile()</text>
<text text-anchor="start" x="224.5" y="-106.5" font-family="Helvetica,sans-Serif" font-size="10.00">+ getProjectile()</text>
<text text-anchor="start" x="224.5" y="-95.5" font-family="Helvetica,sans-Serif" font-size="10.00">+ setProjectile()</text>
<text text-anchor="start" x="224.5" y="-84.5" font-family="Helvetica,sans-Serif" font-size="10.00">+ setTime()</text>
<text text-anchor="start" x="224.5" y="-73.5" font-family="Helvetica,sans-Serif" font-size="10.00">+ getTime()</text>
<text text-anchor="start" x="224.5" y="-62.5" font-family="Helvetica,sans-Serif" font-size="10.00">+ directionX()</text>
<text text-anchor="start" x="224.5" y="-51.5" font-family="Helvetica,sans-Serif" font-size="10.00">+ directionY()</text>
<text text-anchor="start" x="224.5" y="-40.5" font-family="Helvetica,sans-Serif" font-size="10.00">+ distance()</text>
<text text-anchor="start" x="224.5" y="-29.5" font-family="Helvetica,sans-Serif" font-size="10.00">+ track()</text>
<text text-anchor="start" x="224.5" y="-18.5" font-family="Helvetica,sans-Serif" font-size="10.00">+ inRange()</text>
<text text-anchor="start" x="224.5" y="-7.5" font-family="Helvetica,sans-Serif" font-size="10.00">+ isInRange()</text>
</a>
</g>
</g>
<!-- Node1&#45;&gt;Node4 -->
<g id="edge3" class="edge">
<title>Node1&#45;&gt;Node4</title>
<path fill="none" stroke="midnightblue" d="M324.69,-206.26C319.96,-197.07 315.15,-187.76 310.44,-178.61"/>
<polygon fill="none" stroke="midnightblue" points="321.71,-208.11 329.4,-215.39 327.93,-204.9 321.71,-208.11"/>
</g>
<!-- Node5 -->
<g id="node5" class="node">
<title>Node5</title>
<g id="a_node5"><a xlink:href="class_tower.html" target="_top" xlink:title=" ">
<polygon fill="none" stroke="black" points="332,-44.5 332,-134.5 412,-134.5 412,-44.5 332,-44.5"/>
<text text-anchor="middle" x="372" y="-122.5" font-family="Helvetica,sans-Serif" font-size="10.00">Tower</text>
<polyline fill="none" stroke="black" points="332,-115.5 412,-115.5 "/>
<text text-anchor="middle" x="372" y="-103.5" font-family="Helvetica,sans-Serif" font-size="10.00"> </text>
<polyline fill="none" stroke="black" points="332,-96.5 412,-96.5 "/>
<text text-anchor="start" x="340" y="-84.5" font-family="Helvetica,sans-Serif" font-size="10.00">+ Tower()</text>
<text text-anchor="start" x="340" y="-73.5" font-family="Helvetica,sans-Serif" font-size="10.00">+ ~Tower()</text>
<text text-anchor="start" x="340" y="-62.5" font-family="Helvetica,sans-Serif" font-size="10.00">+ setTower()</text>
<text text-anchor="start" x="340" y="-51.5" font-family="Helvetica,sans-Serif" font-size="10.00">+ getTower()</text>
</a>
</g>
</g>
<!-- Node1&#45;&gt;Node5 -->
<g id="edge4" class="edge">
<title>Node1&#45;&gt;Node5</title>
<path fill="none" stroke="midnightblue" d="M372,-205.3C372,-180.73 372,-155.32 372,-134.67"/>
<polygon fill="none" stroke="midnightblue" points="368.5,-205.39 372,-215.39 375.5,-205.39 368.5,-205.39"/>
</g>
<!-- Node6 -->
<g id="node6" class="node">
<title>Node6</title>
<g id="a_node6"><a xlink:href="class_tower_archer.html" target="_top" xlink:title="Classe gérant les tours d&#39;archer /!\ Hérite de la classe Entity /!.">
<polygon fill="none" stroke="black" points="430,-33.5 430,-145.5 534,-145.5 534,-33.5 430,-33.5"/>
<text text-anchor="middle" x="482" y="-133.5" font-family="Helvetica,sans-Serif" font-size="10.00">TowerArcher</text>
<polyline fill="none" stroke="black" points="430,-126.5 534,-126.5 "/>
<text text-anchor="middle" x="482" y="-114.5" font-family="Helvetica,sans-Serif" font-size="10.00"> </text>
<polyline fill="none" stroke="black" points="430,-107.5 534,-107.5 "/>
<text text-anchor="start" x="438" y="-95.5" font-family="Helvetica,sans-Serif" font-size="10.00">+ TowerArcher()</text>
<text text-anchor="start" x="438" y="-84.5" font-family="Helvetica,sans-Serif" font-size="10.00">+ ~TowerArcher()</text>
<text text-anchor="start" x="438" y="-73.5" font-family="Helvetica,sans-Serif" font-size="10.00">+ setRange()</text>
<text text-anchor="start" x="438" y="-62.5" font-family="Helvetica,sans-Serif" font-size="10.00">+ getRange()</text>
<text text-anchor="start" x="438" y="-51.5" font-family="Helvetica,sans-Serif" font-size="10.00">+ setPrice()</text>
<text text-anchor="start" x="438" y="-40.5" font-family="Helvetica,sans-Serif" font-size="10.00">+ getPrice()</text>
</a>
</g>
</g>
<!-- Node1&#45;&gt;Node6 -->
<g id="edge5" class="edge">
<title>Node1&#45;&gt;Node6</title>
<path fill="none" stroke="midnightblue" d="M420.62,-206.28C431.56,-185.64 442.85,-164.35 452.71,-145.75"/>
<polygon fill="none" stroke="midnightblue" points="417.38,-204.92 415.79,-215.39 423.57,-208.2 417.38,-204.92"/>
</g>
<!-- Node7 -->
<g id="node7" class="node">
<title>Node7</title>
<g id="a_node7"><a xlink:href="class_tower_bomb.html" target="_top" xlink:title=" ">
<polygon fill="none" stroke="black" points="552.5,-33.5 552.5,-145.5 653.5,-145.5 653.5,-33.5 552.5,-33.5"/>
<text text-anchor="middle" x="603" y="-133.5" font-family="Helvetica,sans-Serif" font-size="10.00">TowerBomb</text>
<polyline fill="none" stroke="black" points="552.5,-126.5 653.5,-126.5 "/>
<text text-anchor="middle" x="603" y="-114.5" font-family="Helvetica,sans-Serif" font-size="10.00"> </text>
<polyline fill="none" stroke="black" points="552.5,-107.5 653.5,-107.5 "/>
<text text-anchor="start" x="560.5" y="-95.5" font-family="Helvetica,sans-Serif" font-size="10.00">+ TowerBomb()</text>
<text text-anchor="start" x="560.5" y="-84.5" font-family="Helvetica,sans-Serif" font-size="10.00">+ ~TowerBomb()</text>
<text text-anchor="start" x="560.5" y="-73.5" font-family="Helvetica,sans-Serif" font-size="10.00">+ setRange()</text>
<text text-anchor="start" x="560.5" y="-62.5" font-family="Helvetica,sans-Serif" font-size="10.00">+ getRange()</text>
<text text-anchor="start" x="560.5" y="-51.5" font-family="Helvetica,sans-Serif" font-size="10.00">+ setPrice()</text>
<text text-anchor="start" x="560.5" y="-40.5" font-family="Helvetica,sans-Serif" font-size="10.00">+ getPrice()</text>
</a>
</g>
</g>
<!-- Node1&#45;&gt;Node7 -->
<g id="edge6" class="edge">
<title>Node1&#45;&gt;Node7</title>
<path fill="none" stroke="midnightblue" d="M432.24,-263.74C467,-242.18 510.19,-212.21 543,-179 552.78,-169.1 561.99,-157.4 570.11,-145.81"/>
<polygon fill="none" stroke="midnightblue" points="430.29,-260.82 423.59,-269.03 433.95,-266.79 430.29,-260.82"/>
</g>
<!-- Node8 -->
<g id="node8" class="node">
<title>Node8</title>
<g id="a_node8"><a xlink:href="class_tower_magic.html" target="_top" xlink:title=" ">
<polygon fill="none" stroke="black" points="671.5,-33.5 671.5,-145.5 772.5,-145.5 772.5,-33.5 671.5,-33.5"/>
<text text-anchor="middle" x="722" y="-133.5" font-family="Helvetica,sans-Serif" font-size="10.00">TowerMagic</text>
<polyline fill="none" stroke="black" points="671.5,-126.5 772.5,-126.5 "/>
<text text-anchor="middle" x="722" y="-114.5" font-family="Helvetica,sans-Serif" font-size="10.00"> </text>
<polyline fill="none" stroke="black" points="671.5,-107.5 772.5,-107.5 "/>
<text text-anchor="start" x="679.5" y="-95.5" font-family="Helvetica,sans-Serif" font-size="10.00">+ TowerMagic()</text>
<text text-anchor="start" x="679.5" y="-84.5" font-family="Helvetica,sans-Serif" font-size="10.00">+ ~TowerMagic()</text>
<text text-anchor="start" x="679.5" y="-73.5" font-family="Helvetica,sans-Serif" font-size="10.00">+ setRange()</text>
<text text-anchor="start" x="679.5" y="-62.5" font-family="Helvetica,sans-Serif" font-size="10.00">+ getRange()</text>
<text text-anchor="start" x="679.5" y="-51.5" font-family="Helvetica,sans-Serif" font-size="10.00">+ setPrice()</text>
<text text-anchor="start" x="679.5" y="-40.5" font-family="Helvetica,sans-Serif" font-size="10.00">+ getPrice()</text>
</a>
</g>
</g>
<!-- Node1&#45;&gt;Node8 -->
<g id="edge7" class="edge">
<title>Node1&#45;&gt;Node8</title>
<path fill="none" stroke="midnightblue" d="M433.39,-284.24C496.39,-267.7 594.62,-234.92 663,-179 674.29,-169.76 684.23,-157.8 692.58,-145.67"/>
<polygon fill="none" stroke="midnightblue" points="432.4,-280.88 423.59,-286.76 434.15,-287.66 432.4,-280.88"/>
</g>
</g>
</svg>
