<?xml version="1.0" encoding="UTF-8" standalone="no"?>
<!DOCTYPE svg PUBLIC "-//W3C//DTD SVG 1.1//EN"
 "http://www.w3.org/Graphics/SVG/1.1/DTD/svg11.dtd">
<!-- Generated by graphviz version 2.43.0 (0)
 -->
<!-- Title: Game::autoEvents Pages: 1 -->
<svg width="592pt" height="598pt"
 viewBox="0.00 0.00 592.00 598.00" xmlns="http://www.w3.org/2000/svg" xmlns:xlink="http://www.w3.org/1999/xlink">
<g id="graph0" class="graph" transform="scale(1 1) rotate(0) translate(4 594)">
<title>Game::autoEvents</title>
<!-- Node1 -->
<g id="node1" class="node">
<title>Node1</title>
<g id="a_node1"><a xlink:title=" ">
<polygon fill="#bfbfbf" stroke="black" points="0,-247.5 0,-266.5 107,-266.5 107,-247.5 0,-247.5"/>
<text text-anchor="middle" x="53.5" y="-254.5" font-family="Helvetica,sans-Serif" font-size="10.00">Game::autoEvents</text>
</a>
</g>
</g>
<!-- Node2 -->
<g id="node2" class="node">
<title>Node2</title>
<g id="a_node2"><a xlink:href="class_projectile.html#a62f3ecf85f4a26de65c5e0e333181ed1" target="_top" xlink:title=" ">
<polygon fill="none" stroke="black" points="147,-532.5 147,-551.5 255,-551.5 255,-532.5 147,-532.5"/>
<text text-anchor="middle" x="201" y="-539.5" font-family="Helvetica,sans-Serif" font-size="10.00">Projectile::inRange</text>
</a>
</g>
</g>
<!-- Node1&#45;&gt;Node2 -->
<g id="edge1" class="edge">
<title>Node1&#45;&gt;Node2</title>
<path fill="none" stroke="midnightblue" d="M59.51,-266.81C80.58,-308.09 162.27,-468.09 190.41,-523.21"/>
<polygon fill="midnightblue" stroke="midnightblue" points="187.35,-524.92 195.01,-532.23 193.58,-521.73 187.35,-524.92"/>
</g>
<!-- Node7 -->
<g id="node7" class="node">
<title>Node7</title>
<g id="a_node7"><a xlink:href="class_enemy.html#a038e636d16b708f92627348a36750702" target="_top" xlink:title=" ">
<polygon fill="none" stroke="black" points="156.5,-247.5 156.5,-266.5 245.5,-266.5 245.5,-247.5 156.5,-247.5"/>
<text text-anchor="middle" x="201" y="-254.5" font-family="Helvetica,sans-Serif" font-size="10.00">Enemy::isDead</text>
</a>
</g>
</g>
<!-- Node1&#45;&gt;Node7 -->
<g id="edge6" class="edge">
<title>Node1&#45;&gt;Node7</title>
<path fill="none" stroke="midnightblue" d="M107.03,-257C119.75,-257 133.36,-257 146.14,-257"/>
<polygon fill="midnightblue" stroke="midnightblue" points="146.17,-260.5 156.17,-257 146.17,-253.5 146.17,-260.5"/>
</g>
<!-- Node8 -->
<g id="node8" class="node">
<title>Node8</title>
<g id="a_node8"><a xlink:href="class_projectile.html#a58142be6b80e4faff2b037b170ff005c" target="_top" xlink:title=" ">
<polygon fill="none" stroke="black" points="143,-209.5 143,-228.5 259,-228.5 259,-209.5 143,-209.5"/>
<text text-anchor="middle" x="201" y="-216.5" font-family="Helvetica,sans-Serif" font-size="10.00">Projectile::isInRange</text>
</a>
</g>
</g>
<!-- Node1&#45;&gt;Node8 -->
<g id="edge7" class="edge">
<title>Node1&#45;&gt;Node8</title>
<path fill="none" stroke="midnightblue" d="M91.22,-247.41C110.16,-242.46 133.46,-236.38 153.63,-231.11"/>
<polygon fill="midnightblue" stroke="midnightblue" points="154.76,-234.43 163.55,-228.52 152.99,-227.66 154.76,-234.43"/>
</g>
<!-- Node9 -->
<g id="node9" class="node">
<title>Node9</title>
<g id="a_node9"><a xlink:href="class_projectile.html#adfc163f4a625fc293f8f67fd0eb49761" target="_top" xlink:title=" ">
<polygon fill="none" stroke="black" points="154.5,-285.5 154.5,-304.5 247.5,-304.5 247.5,-285.5 154.5,-285.5"/>
<text text-anchor="middle" x="201" y="-292.5" font-family="Helvetica,sans-Serif" font-size="10.00">Projectile::track</text>
</a>
</g>
</g>
<!-- Node1&#45;&gt;Node9 -->
<g id="edge8" class="edge">
<title>Node1&#45;&gt;Node9</title>
<path fill="none" stroke="midnightblue" d="M91.22,-266.59C110.16,-271.54 133.46,-277.62 153.63,-282.89"/>
<polygon fill="midnightblue" stroke="midnightblue" points="152.99,-286.34 163.55,-285.48 154.76,-279.57 152.99,-286.34"/>
</g>
<!-- Node20 -->
<g id="node20" class="node">
<title>Node20</title>
<g id="a_node20"><a xlink:href="class_enemy.html#a056522bafce43c9a33c623f659a20270" target="_top" xlink:title=" ">
<polygon fill="none" stroke="black" points="161.5,-38.5 161.5,-57.5 240.5,-57.5 240.5,-38.5 161.5,-38.5"/>
<text text-anchor="middle" x="201" y="-45.5" font-family="Helvetica,sans-Serif" font-size="10.00">Enemy::walk</text>
</a>
</g>
</g>
<!-- Node1&#45;&gt;Node20 -->
<g id="edge25" class="edge">
<title>Node1&#45;&gt;Node20</title>
<path fill="none" stroke="midnightblue" d="M61.13,-247.48C83.71,-215.04 157.87,-108.52 187.55,-65.88"/>
<polygon fill="midnightblue" stroke="midnightblue" points="190.49,-67.79 193.33,-57.58 184.75,-63.79 190.49,-67.79"/>
</g>
<!-- Node3 -->
<g id="node3" class="node">
<title>Node3</title>
<g id="a_node3"><a xlink:href="class_projectile.html#aa878bcc1843c911447425d7618b8f9de" target="_top" xlink:title=" ">
<polygon fill="none" stroke="black" points="304.5,-532.5 304.5,-551.5 414.5,-551.5 414.5,-532.5 304.5,-532.5"/>
<text text-anchor="middle" x="359.5" y="-539.5" font-family="Helvetica,sans-Serif" font-size="10.00">Projectile::distance</text>
</a>
</g>
</g>
<!-- Node2&#45;&gt;Node3 -->
<g id="edge2" class="edge">
<title>Node2&#45;&gt;Node3</title>
<path fill="none" stroke="midnightblue" d="M255.42,-542C267.86,-542 281.23,-542 294.08,-542"/>
<polygon fill="midnightblue" stroke="midnightblue" points="294.26,-545.5 304.26,-542 294.26,-538.5 294.26,-545.5"/>
</g>
<!-- Node6 -->
<g id="node6" class="node">
<title>Node6</title>
<g id="a_node6"><a xlink:href="class_tower_archer.html#a11681126df7f8db3dc7767f86c6fc668" target="_top" xlink:title=" ">
<polygon fill="none" stroke="black" points="295,-570.5 295,-589.5 424,-589.5 424,-570.5 295,-570.5"/>
<text text-anchor="middle" x="359.5" y="-577.5" font-family="Helvetica,sans-Serif" font-size="10.00">TowerArcher::getRange</text>
</a>
</g>
</g>
<!-- Node2&#45;&gt;Node6 -->
<g id="edge5" class="edge">
<title>Node2&#45;&gt;Node6</title>
<path fill="none" stroke="midnightblue" d="M241.49,-551.59C262.14,-556.6 287.61,-562.79 309.51,-568.11"/>
<polygon fill="midnightblue" stroke="midnightblue" points="308.75,-571.52 319.29,-570.48 310.4,-564.72 308.75,-571.52"/>
</g>
<!-- Node4 -->
<g id="node4" class="node">
<title>Node4</title>
<g id="a_node4"><a xlink:href="class_entity.html#a758caa46a2a259ffc63d09616def9423" target="_top" xlink:title="Fonction retournant la position en x de l&#39;entité en const.">
<polygon fill="none" stroke="black" points="463,-494.5 463,-513.5 581,-513.5 581,-494.5 463,-494.5"/>
<text text-anchor="middle" x="522" y="-501.5" font-family="Helvetica,sans-Serif" font-size="10.00">Entity::getConstPosX</text>
</a>
</g>
</g>
<!-- Node3&#45;&gt;Node4 -->
<g id="edge3" class="edge">
<title>Node3&#45;&gt;Node4</title>
<path fill="none" stroke="midnightblue" d="M401,-532.41C422.18,-527.4 448.3,-521.21 470.76,-515.89"/>
<polygon fill="midnightblue" stroke="midnightblue" points="471.87,-519.23 480.79,-513.52 470.25,-512.42 471.87,-519.23"/>
</g>
<!-- Node5 -->
<g id="node5" class="node">
<title>Node5</title>
<g id="a_node5"><a xlink:href="class_entity.html#a44db7a4bd777f13d5316ca9151dffad7" target="_top" xlink:title="Fonction retournant la position en y de l&#39;entité en const.">
<polygon fill="none" stroke="black" points="463.5,-266.5 463.5,-285.5 580.5,-285.5 580.5,-266.5 463.5,-266.5"/>
<text text-anchor="middle" x="522" y="-273.5" font-family="Helvetica,sans-Serif" font-size="10.00">Entity::getConstPosY</text>
</a>
</g>
</g>
<!-- Node3&#45;&gt;Node5 -->
<g id="edge4" class="edge">
<title>Node3&#45;&gt;Node5</title>
<path fill="none" stroke="midnightblue" d="M374.12,-532.39C388.09,-521.99 409.73,-504.29 424,-485 470.32,-422.39 502.29,-334.13 514.94,-295.44"/>
<polygon fill="midnightblue" stroke="midnightblue" points="518.28,-296.5 518,-285.91 511.61,-294.37 518.28,-296.5"/>
</g>
<!-- Node9&#45;&gt;Node4 -->
<g id="edge15" class="edge">
<title>Node9&#45;&gt;Node4</title>
<path fill="none" stroke="midnightblue" d="M203.38,-304.63C208.53,-336.71 229.82,-440.43 295,-485 342.03,-517.16 408.11,-519.03 456.67,-514.58"/>
<polygon fill="midnightblue" stroke="midnightblue" points="457.16,-518.05 466.75,-513.55 456.44,-511.09 457.16,-518.05"/>
</g>
<!-- Node9&#45;&gt;Node5 -->
<g id="edge16" class="edge">
<title>Node9&#45;&gt;Node5</title>
<path fill="none" stroke="midnightblue" d="M247.7,-292.28C301.48,-289.08 391.25,-283.73 453.15,-280.04"/>
<polygon fill="midnightblue" stroke="midnightblue" points="453.45,-283.53 463.22,-279.44 453.03,-276.54 453.45,-283.53"/>
</g>
<!-- Node10 -->
<g id="node10" class="node">
<title>Node10</title>
<g id="a_node10"><a xlink:href="class_projectile.html#ae5645549de0ef4e2defdb3edd9fc57f0" target="_top" xlink:title=" ">
<polygon fill="none" stroke="black" points="300.5,-304.5 300.5,-323.5 418.5,-323.5 418.5,-304.5 300.5,-304.5"/>
<text text-anchor="middle" x="359.5" y="-311.5" font-family="Helvetica,sans-Serif" font-size="10.00">Projectile::directionX</text>
</a>
</g>
</g>
<!-- Node9&#45;&gt;Node10 -->
<g id="edge9" class="edge">
<title>Node9&#45;&gt;Node10</title>
<path fill="none" stroke="midnightblue" d="M247.69,-300.55C261.1,-302.18 276.07,-303.99 290.56,-305.75"/>
<polygon fill="midnightblue" stroke="midnightblue" points="290.14,-309.23 300.49,-306.96 290.98,-302.28 290.14,-309.23"/>
</g>
<!-- Node11 -->
<g id="node11" class="node">
<title>Node11</title>
<g id="a_node11"><a xlink:href="class_entity.html#a8e30cf9734be5d2037517b59d11ff412" target="_top" xlink:title="Fonction retournant la vitesse de l&#39;entité en const.">
<polygon fill="none" stroke="black" points="460,-228.5 460,-247.5 584,-247.5 584,-228.5 460,-228.5"/>
<text text-anchor="middle" x="522" y="-235.5" font-family="Helvetica,sans-Serif" font-size="10.00">Entity::getConstSpeed</text>
</a>
</g>
</g>
<!-- Node9&#45;&gt;Node11 -->
<g id="edge17" class="edge">
<title>Node9&#45;&gt;Node11</title>
<path fill="none" stroke="midnightblue" d="M242.41,-285.43C248.33,-282.95 254.07,-279.86 259,-276 282.59,-257.52 268.76,-233.46 295,-219 357,-184.83 443.4,-208.03 489.33,-224.87"/>
<polygon fill="midnightblue" stroke="midnightblue" points="488.18,-228.17 498.77,-228.45 490.66,-221.63 488.18,-228.17"/>
</g>
<!-- Node12 -->
<g id="node12" class="node">
<title>Node12</title>
<g id="a_node12"><a xlink:href="class_projectile.html#a4fed5dda0d58cd0721bf8a20a005c594" target="_top" xlink:title=" ">
<polygon fill="none" stroke="black" points="301,-228.5 301,-247.5 418,-247.5 418,-228.5 301,-228.5"/>
<text text-anchor="middle" x="359.5" y="-235.5" font-family="Helvetica,sans-Serif" font-size="10.00">Projectile::directionY</text>
</a>
</g>
</g>
<!-- Node9&#45;&gt;Node12 -->
<g id="edge12" class="edge">
<title>Node9&#45;&gt;Node12</title>
<path fill="none" stroke="midnightblue" d="M231.68,-285.41C240.5,-282.48 250.17,-279.19 259,-276 275.15,-270.17 278.97,-268.15 295,-262 304.31,-258.43 314.4,-254.6 323.74,-251.07"/>
<polygon fill="midnightblue" stroke="midnightblue" points="325.02,-254.33 333.14,-247.52 322.55,-247.78 325.02,-254.33"/>
</g>
<!-- Node13 -->
<g id="node13" class="node">
<title>Node13</title>
<g id="a_node13"><a xlink:href="class_entity.html#aa888515055b65c5ffa3c66f667c3a5c3" target="_top" xlink:title="Fonction retournant la position en x de l&#39;entité">
<polygon fill="none" stroke="black" points="314.5,-152.5 314.5,-171.5 404.5,-171.5 404.5,-152.5 314.5,-152.5"/>
<text text-anchor="middle" x="359.5" y="-159.5" font-family="Helvetica,sans-Serif" font-size="10.00">Entity::getPosX</text>
</a>
</g>
</g>
<!-- Node9&#45;&gt;Node13 -->
<g id="edge18" class="edge">
<title>Node9&#45;&gt;Node13</title>
<path fill="none" stroke="midnightblue" d="M244.81,-285.4C250,-282.94 254.9,-279.86 259,-276 290.34,-246.44 264.25,-216.17 295,-186 299,-182.08 303.7,-178.79 308.7,-176.03"/>
<polygon fill="midnightblue" stroke="midnightblue" points="310.44,-179.08 317.95,-171.61 307.42,-172.76 310.44,-179.08"/>
</g>
<!-- Node14 -->
<g id="node14" class="node">
<title>Node14</title>
<g id="a_node14"><a xlink:href="class_entity.html#afb4d00e5b5b27d6c69b00f8a5f6ed436" target="_top" xlink:title="Fonction retournant la position en y de l&#39;entité">
<polygon fill="none" stroke="black" points="315,-114.5 315,-133.5 404,-133.5 404,-114.5 315,-114.5"/>
<text text-anchor="middle" x="359.5" y="-121.5" font-family="Helvetica,sans-Serif" font-size="10.00">Entity::getPosY</text>
</a>
</g>
</g>
<!-- Node9&#45;&gt;Node14 -->
<g id="edge19" class="edge">
<title>Node9&#45;&gt;Node14</title>
<path fill="none" stroke="midnightblue" d="M246.09,-285.4C250.89,-282.95 255.35,-279.87 259,-276 301.04,-231.47 252.27,-186.87 295,-143 298.16,-139.76 301.84,-137.07 305.82,-134.83"/>
<polygon fill="midnightblue" stroke="midnightblue" points="307.29,-138 314.89,-130.62 304.35,-131.65 307.29,-138"/>
</g>
<!-- Node15 -->
<g id="node15" class="node">
<title>Node15</title>
<g id="a_node15"><a xlink:href="class_entity.html#adbd6cd7e606bffb2fc7b061ddd13ea14" target="_top" xlink:title="Fonction retournant les PV de l&#39;entité en const.">
<polygon fill="none" stroke="black" points="320,-76.5 320,-95.5 399,-95.5 399,-76.5 320,-76.5"/>
<text text-anchor="middle" x="359.5" y="-83.5" font-family="Helvetica,sans-Serif" font-size="10.00">Entity::getPV</text>
</a>
</g>
</g>
<!-- Node9&#45;&gt;Node15 -->
<g id="edge20" class="edge">
<title>Node9&#45;&gt;Node15</title>
<path fill="none" stroke="midnightblue" d="M246.58,-285.45C251.24,-282.99 255.53,-279.89 259,-276 310.69,-218.04 242.41,-162.16 295,-105 299.29,-100.33 304.68,-96.79 310.5,-94.11"/>
<polygon fill="midnightblue" stroke="midnightblue" points="311.77,-97.38 319.89,-90.57 309.3,-90.83 311.77,-97.38"/>
</g>
<!-- Node16 -->
<g id="node16" class="node">
<title>Node16</title>
<g id="a_node16"><a xlink:href="class_entity.html#abdd4f6821f64524d42bdf29baa7375b5" target="_top" xlink:title="Procédure définissant la position en x et en y.">
<polygon fill="none" stroke="black" points="318,-456.5 318,-475.5 401,-475.5 401,-456.5 318,-456.5"/>
<text text-anchor="middle" x="359.5" y="-463.5" font-family="Helvetica,sans-Serif" font-size="10.00">Entity::setPos</text>
</a>
</g>
</g>
<!-- Node9&#45;&gt;Node16 -->
<g id="edge21" class="edge">
<title>Node9&#45;&gt;Node16</title>
<path fill="none" stroke="midnightblue" d="M205.21,-304.89C214.49,-331.93 244.02,-407.74 295,-447 299.06,-450.12 303.62,-452.73 308.39,-454.92"/>
<polygon fill="midnightblue" stroke="midnightblue" points="307.16,-458.2 317.75,-458.61 309.73,-451.68 307.16,-458.2"/>
</g>
<!-- Node17 -->
<g id="node17" class="node">
<title>Node17</title>
<g id="a_node17"><a xlink:href="class_entity.html#a4333a5eb508029a6ab2a34c072b3c50f" target="_top" xlink:title="Procédure définissant la position en x.">
<polygon fill="none" stroke="black" points="315,-418.5 315,-437.5 404,-437.5 404,-418.5 315,-418.5"/>
<text text-anchor="middle" x="359.5" y="-425.5" font-family="Helvetica,sans-Serif" font-size="10.00">Entity::setPosX</text>
</a>
</g>
</g>
<!-- Node9&#45;&gt;Node17 -->
<g id="edge22" class="edge">
<title>Node9&#45;&gt;Node17</title>
<path fill="none" stroke="midnightblue" d="M207.12,-304.58C219.32,-326.47 252.3,-380.5 295,-409 298.3,-411.2 301.86,-413.15 305.55,-414.89"/>
<polygon fill="midnightblue" stroke="midnightblue" points="304.35,-418.18 314.93,-418.75 307.01,-411.7 304.35,-418.18"/>
</g>
<!-- Node18 -->
<g id="node18" class="node">
<title>Node18</title>
<g id="a_node18"><a xlink:href="class_entity.html#a818d626382f59946d0e0ca8111df6657" target="_top" xlink:title="Procédure définissant la position en y.">
<polygon fill="none" stroke="black" points="315,-380.5 315,-399.5 404,-399.5 404,-380.5 315,-380.5"/>
<text text-anchor="middle" x="359.5" y="-387.5" font-family="Helvetica,sans-Serif" font-size="10.00">Entity::setPosY</text>
</a>
</g>
</g>
<!-- Node9&#45;&gt;Node18 -->
<g id="edge23" class="edge">
<title>Node9&#45;&gt;Node18</title>
<path fill="none" stroke="midnightblue" d="M211.12,-304.6C226.81,-320.59 260.56,-352.72 295,-371 299.22,-373.24 303.75,-375.26 308.37,-377.06"/>
<polygon fill="midnightblue" stroke="midnightblue" points="307.32,-380.4 317.91,-380.47 309.67,-373.81 307.32,-380.4"/>
</g>
<!-- Node19 -->
<g id="node19" class="node">
<title>Node19</title>
<g id="a_node19"><a xlink:href="class_entity.html#af43254cad39f33e56cf48d74e95e4cef" target="_top" xlink:title="Procedure définissant les PV de l&#39;entité">
<polygon fill="none" stroke="black" points="320.5,-342.5 320.5,-361.5 398.5,-361.5 398.5,-342.5 320.5,-342.5"/>
<text text-anchor="middle" x="359.5" y="-349.5" font-family="Helvetica,sans-Serif" font-size="10.00">Entity::setPV</text>
</a>
</g>
</g>
<!-- Node9&#45;&gt;Node19 -->
<g id="edge24" class="edge">
<title>Node9&#45;&gt;Node19</title>
<path fill="none" stroke="midnightblue" d="M223.57,-304.51C242.27,-312.59 270.16,-324.23 295,-333 301.34,-335.24 308.1,-337.45 314.75,-339.52"/>
<polygon fill="midnightblue" stroke="midnightblue" points="313.77,-342.88 324.36,-342.45 315.81,-336.18 313.77,-342.88"/>
</g>
<!-- Node10&#45;&gt;Node4 -->
<g id="edge10" class="edge">
<title>Node10&#45;&gt;Node4</title>
<path fill="none" stroke="midnightblue" d="M407.64,-323.59C413.51,-326.04 419.14,-329.13 424,-333 475.04,-373.67 503.95,-448.99 515.32,-484.5"/>
<polygon fill="midnightblue" stroke="midnightblue" points="512,-485.64 518.28,-494.17 518.69,-483.58 512,-485.64"/>
</g>
<!-- Node10&#45;&gt;Node11 -->
<g id="edge11" class="edge">
<title>Node10&#45;&gt;Node11</title>
<path fill="none" stroke="midnightblue" d="M374.81,-304.46C393.69,-292.2 428.25,-270.84 460,-257 465.08,-254.78 470.51,-252.71 475.95,-250.8"/>
<polygon fill="midnightblue" stroke="midnightblue" points="477.3,-254.04 485.68,-247.57 475.09,-247.4 477.3,-254.04"/>
</g>
<!-- Node12&#45;&gt;Node5 -->
<g id="edge13" class="edge">
<title>Node12&#45;&gt;Node5</title>
<path fill="none" stroke="midnightblue" d="M401,-247.59C422.18,-252.6 448.3,-258.79 470.76,-264.11"/>
<polygon fill="midnightblue" stroke="midnightblue" points="470.25,-267.58 480.79,-266.48 471.87,-260.77 470.25,-267.58"/>
</g>
<!-- Node12&#45;&gt;Node11 -->
<g id="edge14" class="edge">
<title>Node12&#45;&gt;Node11</title>
<path fill="none" stroke="midnightblue" d="M418.44,-238C428.55,-238 439.16,-238 449.57,-238"/>
<polygon fill="midnightblue" stroke="midnightblue" points="449.89,-241.5 459.89,-238 449.89,-234.5 449.89,-241.5"/>
</g>
<!-- Node21 -->
<g id="node21" class="node">
<title>Node21</title>
<g id="a_node21"><a xlink:href="class_map.html#a421954a09241f064e551c84f6f044744" target="_top" xlink:title="Renvoie la largeur du terrain.">
<polygon fill="none" stroke="black" points="316.5,-38.5 316.5,-57.5 402.5,-57.5 402.5,-38.5 316.5,-38.5"/>
<text text-anchor="middle" x="359.5" y="-45.5" font-family="Helvetica,sans-Serif" font-size="10.00">Map::getDimX</text>
</a>
</g>
</g>
<!-- Node20&#45;&gt;Node21 -->
<g id="edge26" class="edge">
<title>Node20&#45;&gt;Node21</title>
<path fill="none" stroke="midnightblue" d="M240.69,-48C260.44,-48 284.77,-48 306.17,-48"/>
<polygon fill="midnightblue" stroke="midnightblue" points="306.42,-51.5 316.42,-48 306.42,-44.5 306.42,-51.5"/>
</g>
<!-- Node22 -->
<g id="node22" class="node">
<title>Node22</title>
<g id="a_node22"><a xlink:href="class_map.html#ac39389f542d1804f9f9891ee6867a103" target="_top" xlink:title=" ">
<polygon fill="none" stroke="black" points="302,-0.5 302,-19.5 417,-19.5 417,-0.5 302,-0.5"/>
<text text-anchor="middle" x="359.5" y="-7.5" font-family="Helvetica,sans-Serif" font-size="10.00">Map::IsValidPosition</text>
</a>
</g>
</g>
<!-- Node20&#45;&gt;Node22 -->
<g id="edge27" class="edge">
<title>Node20&#45;&gt;Node22</title>
<path fill="none" stroke="midnightblue" d="M240.69,-38.61C261.41,-33.58 287.15,-27.32 309.29,-21.95"/>
<polygon fill="midnightblue" stroke="midnightblue" points="310.28,-25.31 319.17,-19.55 308.63,-18.51 310.28,-25.31"/>
</g>
</g>
</svg>
