<?xml version="1.0" encoding="UTF-8" standalone="no"?>
<!DOCTYPE svg PUBLIC "-//W3C//DTD SVG 1.1//EN"
 "http://www.w3.org/Graphics/SVG/1.1/DTD/svg11.dtd">
<!-- Generated by graphviz version 2.43.0 (0)
 -->
<!-- Title: Entity::getConstPosY Pages: 1 -->
<svg width="695pt" height="292pt"
 viewBox="0.00 0.00 695.00 292.08" xmlns="http://www.w3.org/2000/svg" xmlns:xlink="http://www.w3.org/1999/xlink">
<g id="graph0" class="graph" transform="scale(1 1) rotate(0) translate(4 288.08)">
<title>Entity::getConstPosY</title>
<!-- Node1 -->
<g id="node1" class="node">
<title>Node1</title>
<g id="a_node1"><a xlink:title="Accesseur renvoyant la position en y d&#39;un ennemi de type const.">
<polygon fill="#bfbfbf" stroke="black" points="570,-133.5 570,-152.5 687,-152.5 687,-133.5 570,-133.5"/>
<text text-anchor="middle" x="628.5" y="-140.5" font-family="Helvetica,sans-Serif" font-size="10.00">Entity::getConstPosY</text>
</a>
</g>
</g>
<!-- Node2 -->
<g id="node2" class="node">
<title>Node2</title>
<g id="a_node2"><a xlink:href="class_enemy.html#aa7a5add0fb6b2e1af8dbf174415fb482" target="_top" xlink:title=" ">
<polygon fill="none" stroke="black" points="201,-228.5 201,-247.5 341,-247.5 341,-228.5 201,-228.5"/>
<text text-anchor="middle" x="271" y="-235.5" font-family="Helvetica,sans-Serif" font-size="10.00">Enemy::enemyDirectionY</text>
</a>
</g>
</g>
<!-- Node1&#45;&gt;Node2 -->
<g id="edge1" class="edge">
<title>Node1&#45;&gt;Node2</title>
<path fill="none" stroke="midnightblue" d="M611.44,-159.8C594.11,-176.74 564.81,-202.04 534,-214 471.83,-238.14 395.36,-242.55 341.12,-241.89"/>
<polygon fill="midnightblue" stroke="midnightblue" points="613.95,-162.24 618.53,-152.69 608.99,-157.3 613.95,-162.24"/>
</g>
<!-- Node3 -->
<g id="node3" class="node">
<title>Node3</title>
<g id="a_node3"><a xlink:href="class_projectile.html#ab75864403c68d4d2f2b0f80004cd2778" target="_top" xlink:title="Fonction calculant la direction en y depuis une tour vers un ennemi.">
<polygon fill="none" stroke="black" points="0.5,-247.5 0.5,-266.5 164.5,-266.5 164.5,-247.5 0.5,-247.5"/>
<text text-anchor="middle" x="82.5" y="-254.5" font-family="Helvetica,sans-Serif" font-size="10.00">Projectile::projectileDirectionY</text>
</a>
</g>
</g>
<!-- Node1&#45;&gt;Node3 -->
<g id="edge10" class="edge">
<title>Node1&#45;&gt;Node3</title>
<path fill="none" stroke="midnightblue" d="M616.24,-161.28C600.85,-184.41 570.92,-223.36 534,-241 398.07,-305.96 211.84,-282.27 127.81,-266.53"/>
<polygon fill="midnightblue" stroke="midnightblue" points="619.28,-163.02 621.75,-152.72 613.39,-159.24 619.28,-163.02"/>
</g>
<!-- Node4 -->
<g id="node4" class="node">
<title>Node4</title>
<g id="a_node4"><a xlink:href="class_enemy.html#a8d79bf0666d466e582c41e513dcb7b24" target="_top" xlink:title=" ">
<polygon fill="none" stroke="black" points="43,-190.5 43,-209.5 122,-209.5 122,-190.5 43,-190.5"/>
<text text-anchor="middle" x="82.5" y="-197.5" font-family="Helvetica,sans-Serif" font-size="10.00">Enemy::walk</text>
</a>
</g>
</g>
<!-- Node1&#45;&gt;Node4 -->
<g id="edge16" class="edge">
<title>Node1&#45;&gt;Node4</title>
<path fill="none" stroke="midnightblue" d="M600.33,-156.96C582.08,-165.59 557.22,-175.95 534,-181 384.45,-213.51 200.59,-207.45 122.03,-202.77"/>
<polygon fill="midnightblue" stroke="midnightblue" points="602.01,-160.03 609.47,-152.51 598.95,-153.73 602.01,-160.03"/>
</g>
<!-- Node5 -->
<g id="node5" class="node">
<title>Node5</title>
<g id="a_node5"><a xlink:href="class_enemy.html#ae96ba0b49cf1ab2f02087e1025d68e4a" target="_top" xlink:title=" ">
<polygon fill="none" stroke="black" points="389.5,-152.5 389.5,-171.5 521.5,-171.5 521.5,-152.5 389.5,-152.5"/>
<text text-anchor="middle" x="455.5" y="-159.5" font-family="Helvetica,sans-Serif" font-size="10.00">Enemy::enemyDistance</text>
</a>
</g>
</g>
<!-- Node1&#45;&gt;Node5 -->
<g id="edge4" class="edge">
<title>Node1&#45;&gt;Node5</title>
<path fill="none" stroke="midnightblue" d="M559.33,-150.57C546.92,-151.95 534.01,-153.39 521.69,-154.76"/>
<polygon fill="midnightblue" stroke="midnightblue" points="560.05,-154.02 569.61,-149.43 559.28,-147.06 560.05,-154.02"/>
</g>
<!-- Node8 -->
<g id="node8" class="node">
<title>Node8</title>
<g id="a_node8"><a xlink:href="class_projectile.html#a5d2b817dfcc1eb69d0840d7430b6fcb6" target="_top" xlink:title="Fonction modifiant la donnée membre inRange en fonction de la distance entre un ennemi et une tour.">
<polygon fill="none" stroke="black" points="401.5,-114.5 401.5,-133.5 509.5,-133.5 509.5,-114.5 401.5,-114.5"/>
<text text-anchor="middle" x="455.5" y="-121.5" font-family="Helvetica,sans-Serif" font-size="10.00">Projectile::inRange</text>
</a>
</g>
</g>
<!-- Node1&#45;&gt;Node8 -->
<g id="edge9" class="edge">
<title>Node1&#45;&gt;Node8</title>
<path fill="none" stroke="midnightblue" d="M559.45,-135.44C542.91,-133.6 525.46,-131.66 509.73,-129.91"/>
<polygon fill="midnightblue" stroke="midnightblue" points="559.28,-138.94 569.61,-136.57 560.05,-131.98 559.28,-138.94"/>
</g>
<!-- Node9 -->
<g id="node9" class="node">
<title>Node9</title>
<g id="a_node9"><a xlink:href="class_projectile.html#af8ce64f55796b9dcc0e78ede2427b104" target="_top" xlink:title="Fonction calculant la distance depuis une tour jusqu&#39;à un ennemi.">
<polygon fill="none" stroke="black" points="377,-76.5 377,-95.5 534,-95.5 534,-76.5 377,-76.5"/>
<text text-anchor="middle" x="455.5" y="-83.5" font-family="Helvetica,sans-Serif" font-size="10.00">Projectile::projectileDistance</text>
</a>
</g>
</g>
<!-- Node1&#45;&gt;Node9 -->
<g id="edge11" class="edge">
<title>Node1&#45;&gt;Node9</title>
<path fill="none" stroke="midnightblue" d="M596.86,-129.23C578.8,-121.45 555.38,-111.92 534,-105 523.19,-101.5 511.36,-98.29 500.26,-95.55"/>
<polygon fill="midnightblue" stroke="midnightblue" points="595.72,-132.55 606.29,-133.34 598.52,-126.14 595.72,-132.55"/>
</g>
<!-- Node10 -->
<g id="node10" class="node">
<title>Node10</title>
<g id="a_node10"><a xlink:href="class_projectile.html#a73f8a1e71748a6994efba59c459385c8" target="_top" xlink:title="Fonction calculant toutes les positions nécessaires au projectile entre une tour et un ennemi.">
<polygon fill="none" stroke="black" points="409,-38.5 409,-57.5 502,-57.5 502,-38.5 409,-38.5"/>
<text text-anchor="middle" x="455.5" y="-45.5" font-family="Helvetica,sans-Serif" font-size="10.00">Projectile::track</text>
</a>
</g>
</g>
<!-- Node1&#45;&gt;Node10 -->
<g id="edge12" class="edge">
<title>Node1&#45;&gt;Node10</title>
<path fill="none" stroke="midnightblue" d="M611.54,-126.22C594.1,-108.85 564.54,-82.19 534,-67 524.2,-62.13 513.07,-58.45 502.36,-55.7"/>
<polygon fill="midnightblue" stroke="midnightblue" points="609.16,-128.79 618.67,-133.47 614.16,-123.88 609.16,-128.79"/>
</g>
<!-- Node11 -->
<g id="node11" class="node">
<title>Node11</title>
<g id="a_node11"><a xlink:href="_game_t_x_t_8cpp.html#a79f96f754efd066587bec9a3d0d0add7" target="_top" xlink:title="Fonction dans lequel l&#39;affichage se fait.">
<polygon fill="none" stroke="black" points="427.5,-0.5 427.5,-19.5 483.5,-19.5 483.5,-0.5 427.5,-0.5"/>
<text text-anchor="middle" x="455.5" y="-7.5" font-family="Helvetica,sans-Serif" font-size="10.00">txtShow</text>
</a>
</g>
</g>
<!-- Node1&#45;&gt;Node11 -->
<g id="edge13" class="edge">
<title>Node1&#45;&gt;Node11</title>
<path fill="none" stroke="midnightblue" d="M617.35,-124.22C602.51,-98.63 572.43,-53.21 534,-29 518.88,-19.47 499.32,-14.72 483.63,-12.36"/>
<polygon fill="midnightblue" stroke="midnightblue" points="614.48,-126.27 622.44,-133.27 620.58,-122.84 614.48,-126.27"/>
</g>
<!-- Node2&#45;&gt;Node3 -->
<g id="edge2" class="edge">
<title>Node2&#45;&gt;Node3</title>
<path fill="none" stroke="midnightblue" d="M190.74,-246.08C182.06,-246.96 173.23,-247.86 164.54,-248.74"/>
<polygon fill="midnightblue" stroke="midnightblue" points="191.23,-249.54 200.82,-245.05 190.52,-242.58 191.23,-249.54"/>
</g>
<!-- Node2&#45;&gt;Node4 -->
<g id="edge3" class="edge">
<title>Node2&#45;&gt;Node4</title>
<path fill="none" stroke="midnightblue" d="M212.79,-226.34C183.35,-220.35 148.26,-213.19 122.07,-207.86"/>
<polygon fill="midnightblue" stroke="midnightblue" points="212.44,-229.84 222.94,-228.41 213.84,-222.98 212.44,-229.84"/>
</g>
<!-- Node5&#45;&gt;Node2 -->
<g id="edge8" class="edge">
<title>Node5&#45;&gt;Node2</title>
<path fill="none" stroke="midnightblue" d="M422.15,-175.47C385.61,-190.69 327.05,-215.08 294.93,-228.45"/>
<polygon fill="midnightblue" stroke="midnightblue" points="423.5,-178.7 431.39,-171.63 420.81,-172.24 423.5,-178.7"/>
</g>
<!-- Node6 -->
<g id="node6" class="node">
<title>Node6</title>
<g id="a_node6"><a xlink:href="class_enemy.html#adf23e5e83dc77b5b9896df6deaab9528" target="_top" xlink:title=" ">
<polygon fill="none" stroke="black" points="201,-152.5 201,-171.5 341,-171.5 341,-152.5 201,-152.5"/>
<text text-anchor="middle" x="271" y="-159.5" font-family="Helvetica,sans-Serif" font-size="10.00">Enemy::enemyDirectionX</text>
</a>
</g>
</g>
<!-- Node5&#45;&gt;Node6 -->
<g id="edge5" class="edge">
<title>Node5&#45;&gt;Node6</title>
<path fill="none" stroke="midnightblue" d="M379.34,-162C366.69,-162 353.6,-162 341.1,-162"/>
<polygon fill="midnightblue" stroke="midnightblue" points="379.39,-165.5 389.39,-162 379.39,-158.5 379.39,-165.5"/>
</g>
<!-- Node6&#45;&gt;Node4 -->
<g id="edge7" class="edge">
<title>Node6&#45;&gt;Node4</title>
<path fill="none" stroke="midnightblue" d="M212.79,-173.66C183.35,-179.65 148.26,-186.81 122.07,-192.14"/>
<polygon fill="midnightblue" stroke="midnightblue" points="213.84,-177.02 222.94,-171.59 212.44,-170.16 213.84,-177.02"/>
</g>
<!-- Node7 -->
<g id="node7" class="node">
<title>Node7</title>
<g id="a_node7"><a xlink:href="class_projectile.html#aab843b501a1669277ec8157ddab8ca0a" target="_top" xlink:title="Fonction calculant la direction en x depuis une tour vers un ennemi.">
<polygon fill="none" stroke="black" points="0,-152.5 0,-171.5 165,-171.5 165,-152.5 0,-152.5"/>
<text text-anchor="middle" x="82.5" y="-159.5" font-family="Helvetica,sans-Serif" font-size="10.00">Projectile::projectileDirectionX</text>
</a>
</g>
</g>
<!-- Node6&#45;&gt;Node7 -->
<g id="edge6" class="edge">
<title>Node6&#45;&gt;Node7</title>
<path fill="none" stroke="midnightblue" d="M190.64,-162C182.21,-162 173.63,-162 165.17,-162"/>
<polygon fill="midnightblue" stroke="midnightblue" points="190.82,-165.5 200.82,-162 190.82,-158.5 190.82,-165.5"/>
</g>
<!-- Node12 -->
<g id="node12" class="node">
<title>Node12</title>
<g id="a_node12"><a xlink:href="_game_t_x_t_8cpp.html#aa8f70cd3510ceae6f2dd1bd542fcaabd" target="_top" xlink:title="Boucle pour l&#39;affichage et la gestion des évènements.">
<polygon fill="none" stroke="black" points="244.5,-0.5 244.5,-19.5 297.5,-19.5 297.5,-0.5 244.5,-0.5"/>
<text text-anchor="middle" x="271" y="-7.5" font-family="Helvetica,sans-Serif" font-size="10.00">txtLoop</text>
</a>
</g>
</g>
<!-- Node11&#45;&gt;Node12 -->
<g id="edge14" class="edge">
<title>Node11&#45;&gt;Node12</title>
<path fill="none" stroke="midnightblue" d="M417.17,-10C381.57,-10 328.88,-10 297.74,-10"/>
<polygon fill="midnightblue" stroke="midnightblue" points="417.18,-13.5 427.18,-10 417.18,-6.5 417.18,-13.5"/>
</g>
<!-- Node13 -->
<g id="node13" class="node">
<title>Node13</title>
<g id="a_node13"><a xlink:href="main_t_x_t_8cpp.html#a840291bc02cba5474a4cb46a9b9566fe" target="_top" xlink:title=" ">
<polygon fill="none" stroke="black" points="62,-0.5 62,-19.5 103,-19.5 103,-0.5 62,-0.5"/>
<text text-anchor="middle" x="82.5" y="-7.5" font-family="Helvetica,sans-Serif" font-size="10.00">main</text>
</a>
</g>
</g>
<!-- Node12&#45;&gt;Node13 -->
<g id="edge15" class="edge">
<title>Node12&#45;&gt;Node13</title>
<path fill="none" stroke="midnightblue" d="M234.07,-10C195.02,-10 134.07,-10 103.06,-10"/>
<polygon fill="midnightblue" stroke="midnightblue" points="234.46,-13.5 244.46,-10 234.46,-6.5 234.46,-13.5"/>
</g>
</g>
</svg>
