<?xml version="1.0" encoding="UTF-8" standalone="no"?>
<!DOCTYPE svg PUBLIC "-//W3C//DTD SVG 1.1//EN"
 "http://www.w3.org/Graphics/SVG/1.1/DTD/svg11.dtd">
<!-- Generated by graphviz version 2.43.0 (0)
 -->
<!-- Title: Enemy::isDead Pages: 1 -->
<svg width="233pt" height="104pt"
 viewBox="0.00 0.00 233.00 104.00" xmlns="http://www.w3.org/2000/svg" xmlns:xlink="http://www.w3.org/1999/xlink">
<g id="graph0" class="graph" transform="scale(1 1) rotate(0) translate(4 100)">
<title>Enemy::isDead</title>
<!-- Node1 -->
<g id="node1" class="node">
<title>Node1</title>
<g id="a_node1"><a xlink:title=" ">
<polygon fill="#bfbfbf" stroke="black" points="0,-38.5 0,-57.5 89,-57.5 89,-38.5 0,-38.5"/>
<text text-anchor="middle" x="44.5" y="-45.5" font-family="Helvetica,sans-Serif" font-size="10.00">Enemy::isDead</text>
</a>
</g>
</g>
<!-- Node2 -->
<g id="node2" class="node">
<title>Node2</title>
<g id="a_node2"><a xlink:href="class_entity.html#a4c3de4661a585b0bd42bd16ce9cc5002" target="_top" xlink:title="Accesseur renvoyant la valeur de la donnée membre &#39;isDead&#39; d&#39;un ennemi.">
<polygon fill="none" stroke="black" points="125,-76.5 125,-95.5 225,-95.5 225,-76.5 125,-76.5"/>
<text text-anchor="middle" x="175" y="-83.5" font-family="Helvetica,sans-Serif" font-size="10.00">Entity::getIsDead</text>
</a>
</g>
</g>
<!-- Node1&#45;&gt;Node2 -->
<g id="edge1" class="edge">
<title>Node1&#45;&gt;Node2</title>
<path fill="none" stroke="midnightblue" d="M77.93,-57.59C94.21,-62.4 114.14,-68.3 131.62,-73.47"/>
<polygon fill="midnightblue" stroke="midnightblue" points="131,-76.93 141.58,-76.41 132.99,-70.22 131,-76.93"/>
</g>
<!-- Node3 -->
<g id="node3" class="node">
<title>Node3</title>
<g id="a_node3"><a xlink:href="class_entity.html#a334b52f5de8bbd7fb81f8bbeec08992b" target="_top" xlink:title="Accesseur renvoyant les points de vie d&#39;un ennemi.">
<polygon fill="none" stroke="black" points="135.5,-38.5 135.5,-57.5 214.5,-57.5 214.5,-38.5 135.5,-38.5"/>
<text text-anchor="middle" x="175" y="-45.5" font-family="Helvetica,sans-Serif" font-size="10.00">Entity::getPV</text>
</a>
</g>
</g>
<!-- Node1&#45;&gt;Node3 -->
<g id="edge2" class="edge">
<title>Node1&#45;&gt;Node3</title>
<path fill="none" stroke="midnightblue" d="M89,-48C100.6,-48 113.22,-48 125.09,-48"/>
<polygon fill="midnightblue" stroke="midnightblue" points="125.28,-51.5 135.28,-48 125.28,-44.5 125.28,-51.5"/>
</g>
<!-- Node4 -->
<g id="node4" class="node">
<title>Node4</title>
<g id="a_node4"><a xlink:href="class_entity.html#a048e30a0b851dc9073d5ec40396e38a4" target="_top" xlink:title="Accesseur modifiant la données membre &#39;isDead&#39; d&#39;un ennemi.">
<polygon fill="none" stroke="black" points="125.5,-0.5 125.5,-19.5 224.5,-19.5 224.5,-0.5 125.5,-0.5"/>
<text text-anchor="middle" x="175" y="-7.5" font-family="Helvetica,sans-Serif" font-size="10.00">Entity::setIsDead</text>
</a>
</g>
</g>
<!-- Node1&#45;&gt;Node4 -->
<g id="edge3" class="edge">
<title>Node1&#45;&gt;Node4</title>
<path fill="none" stroke="midnightblue" d="M77.93,-38.41C94.21,-33.6 114.14,-27.7 131.62,-22.53"/>
<polygon fill="midnightblue" stroke="midnightblue" points="132.99,-25.78 141.58,-19.59 131,-19.07 132.99,-25.78"/>
</g>
</g>
</svg>
