<?xml version="1.0" encoding="UTF-8" standalone="no"?>
<!DOCTYPE svg PUBLIC "-//W3C//DTD SVG 1.1//EN"
 "http://www.w3.org/Graphics/SVG/1.1/DTD/svg11.dtd">
<!-- Generated by graphviz version 2.43.0 (0)
 -->
<!-- Title: Projectile::inRange Pages: 1 -->
<svg width="435pt" height="85pt"
 viewBox="0.00 0.00 435.00 85.00" xmlns="http://www.w3.org/2000/svg" xmlns:xlink="http://www.w3.org/1999/xlink">
<g id="graph0" class="graph" transform="scale(1 1) rotate(0) translate(4 81)">
<title>Projectile::inRange</title>
<!-- Node1 -->
<g id="node1" class="node">
<title>Node1</title>
<g id="a_node1"><a xlink:title="Fonction modifiant la donnée membre inRange en fonction de la distance entre un ennemi et une tour.">
<polygon fill="#bfbfbf" stroke="black" points="0,-19.5 0,-38.5 108,-38.5 108,-19.5 0,-19.5"/>
<text text-anchor="middle" x="54" y="-26.5" font-family="Helvetica,sans-Serif" font-size="10.00">Projectile::inRange</text>
</a>
</g>
</g>
<!-- Node2 -->
<g id="node2" class="node">
<title>Node2</title>
<g id="a_node2"><a xlink:href="class_projectile.html#af518d9b26f04aa7e5a8a13fc6060a98a" target="_top" xlink:title="Fonction calculant la distance depuis une tour jusqu&#39;à un ennemi.">
<polygon fill="none" stroke="black" points="153.5,-38.5 153.5,-57.5 263.5,-57.5 263.5,-38.5 153.5,-38.5"/>
<text text-anchor="middle" x="208.5" y="-45.5" font-family="Helvetica,sans-Serif" font-size="10.00">Projectile::distance</text>
</a>
</g>
</g>
<!-- Node1&#45;&gt;Node2 -->
<g id="edge1" class="edge">
<title>Node1&#45;&gt;Node2</title>
<path fill="none" stroke="midnightblue" d="M108.34,-35.65C119.63,-37.05 131.66,-38.55 143.31,-40"/>
<polygon fill="midnightblue" stroke="midnightblue" points="143.06,-43.5 153.42,-41.26 143.93,-36.55 143.06,-43.5"/>
</g>
<!-- Node5 -->
<g id="node5" class="node">
<title>Node5</title>
<g id="a_node5"><a xlink:href="class_tower_archer.html#a11681126df7f8db3dc7767f86c6fc668" target="_top" xlink:title="Accesseur renvoyant la valeur de la donnée membre range.">
<polygon fill="none" stroke="black" points="144,-0.5 144,-19.5 273,-19.5 273,-0.5 144,-0.5"/>
<text text-anchor="middle" x="208.5" y="-7.5" font-family="Helvetica,sans-Serif" font-size="10.00">TowerArcher::getRange</text>
</a>
</g>
</g>
<!-- Node1&#45;&gt;Node5 -->
<g id="edge4" class="edge">
<title>Node1&#45;&gt;Node5</title>
<path fill="none" stroke="midnightblue" d="M108.34,-22.35C116.61,-21.32 125.28,-20.24 133.9,-19.17"/>
<polygon fill="midnightblue" stroke="midnightblue" points="134.49,-22.62 143.98,-17.91 133.62,-15.68 134.49,-22.62"/>
</g>
<!-- Node3 -->
<g id="node3" class="node">
<title>Node3</title>
<g id="a_node3"><a xlink:href="class_entity.html#a632a853b65d0468f138bc35efc0d317b" target="_top" xlink:title="Accesseur renvoyant la position en x d&#39;un ennemi de type const.">
<polygon fill="none" stroke="black" points="309,-57.5 309,-76.5 427,-76.5 427,-57.5 309,-57.5"/>
<text text-anchor="middle" x="368" y="-64.5" font-family="Helvetica,sans-Serif" font-size="10.00">Entity::getConstPosX</text>
</a>
</g>
</g>
<!-- Node2&#45;&gt;Node3 -->
<g id="edge2" class="edge">
<title>Node2&#45;&gt;Node3</title>
<path fill="none" stroke="midnightblue" d="M263.7,-54.54C274.99,-55.9 287.02,-57.35 298.74,-58.77"/>
<polygon fill="midnightblue" stroke="midnightblue" points="298.59,-62.27 308.93,-60 299.42,-55.32 298.59,-62.27"/>
</g>
<!-- Node4 -->
<g id="node4" class="node">
<title>Node4</title>
<g id="a_node4"><a xlink:href="class_entity.html#a280a384eddb9c7bfb96547adfbb8f515" target="_top" xlink:title="Accesseur renvoyant la position en y d&#39;un ennemi de type const.">
<polygon fill="none" stroke="black" points="309.5,-19.5 309.5,-38.5 426.5,-38.5 426.5,-19.5 309.5,-19.5"/>
<text text-anchor="middle" x="368" y="-26.5" font-family="Helvetica,sans-Serif" font-size="10.00">Entity::getConstPosY</text>
</a>
</g>
</g>
<!-- Node2&#45;&gt;Node4 -->
<g id="edge3" class="edge">
<title>Node2&#45;&gt;Node4</title>
<path fill="none" stroke="midnightblue" d="M263.7,-41.46C275.24,-40.07 287.56,-38.58 299.53,-37.14"/>
<polygon fill="midnightblue" stroke="midnightblue" points="299.97,-40.61 309.47,-35.94 299.13,-33.66 299.97,-40.61"/>
</g>
</g>
</svg>
