<?xml version="1.0" encoding="UTF-8" standalone="no"?>
<!DOCTYPE svg PUBLIC "-//W3C//DTD SVG 1.1//EN"
 "http://www.w3.org/Graphics/SVG/1.1/DTD/svg11.dtd">
<!-- Generated by graphviz version 2.43.0 (0)
 -->
<!-- Title: Entity Pages: 1 -->
<svg width="507pt" height="634pt"
 viewBox="0.00 0.00 506.50 634.00" xmlns="http://www.w3.org/2000/svg" xmlns:xlink="http://www.w3.org/1999/xlink">
<g id="graph0" class="graph" transform="scale(1 1) rotate(0) translate(4 630)">
<title>Entity</title>
<!-- Node1 -->
<g id="node1" class="node">
<title>Node1</title>
<g id="a_node1"><a xlink:title="Classe gérant toutes les entités présentes dans le jeu (Ennemis, Tours, Projectiles,...">
<polygon fill="#bfbfbf" stroke="black" points="152.5,-364.5 152.5,-531.5 255.5,-531.5 255.5,-364.5 152.5,-364.5"/>
<text text-anchor="middle" x="204" y="-519.5" font-family="Helvetica,sans-Serif" font-size="10.00">Entity</text>
<polyline fill="none" stroke="black" points="152.5,-512.5 255.5,-512.5 "/>
<text text-anchor="start" x="160.5" y="-500.5" font-family="Helvetica,sans-Serif" font-size="10.00">+ path</text>
<polyline fill="none" stroke="black" points="152.5,-493.5 255.5,-493.5 "/>
<text text-anchor="start" x="160.5" y="-481.5" font-family="Helvetica,sans-Serif" font-size="10.00">+ Entity()</text>
<text text-anchor="start" x="160.5" y="-470.5" font-family="Helvetica,sans-Serif" font-size="10.00">+ ~Entity()</text>
<text text-anchor="start" x="160.5" y="-459.5" font-family="Helvetica,sans-Serif" font-size="10.00">+ getPosX()</text>
<text text-anchor="start" x="160.5" y="-448.5" font-family="Helvetica,sans-Serif" font-size="10.00">+ getPosY()</text>
<text text-anchor="start" x="160.5" y="-437.5" font-family="Helvetica,sans-Serif" font-size="10.00">+ getConstPosX()</text>
<text text-anchor="start" x="160.5" y="-426.5" font-family="Helvetica,sans-Serif" font-size="10.00">+ getConstPosY()</text>
<text text-anchor="start" x="160.5" y="-415.5" font-family="Helvetica,sans-Serif" font-size="10.00">+ setPos()</text>
<text text-anchor="start" x="160.5" y="-404.5" font-family="Helvetica,sans-Serif" font-size="10.00">+ setPosX()</text>
<text text-anchor="start" x="160.5" y="-393.5" font-family="Helvetica,sans-Serif" font-size="10.00">+ setPosY()</text>
<text text-anchor="start" x="160.5" y="-382.5" font-family="Helvetica,sans-Serif" font-size="10.00">+ setSpeed()</text>
<text text-anchor="start" x="160.5" y="-371.5" font-family="Helvetica,sans-Serif" font-size="10.00">and 9 more...</text>
</a>
</g>
</g>
<!-- Node3 -->
<g id="node3" class="node">
<title>Node3</title>
<g id="a_node3"><a xlink:href="class_enemy.html" target="_top" xlink:title="Classe gérant les ennemis /!\ Hérite de la classe Entity /!.">
<polygon fill="none" stroke="black" points="0,-144 0,-289 120,-289 120,-144 0,-144"/>
<text text-anchor="middle" x="60" y="-277" font-family="Helvetica,sans-Serif" font-size="10.00">Enemy</text>
<polyline fill="none" stroke="black" points="0,-270 120,-270 "/>
<text text-anchor="start" x="8" y="-258" font-family="Helvetica,sans-Serif" font-size="10.00">+ pointTrack</text>
<polyline fill="none" stroke="black" points="0,-251 120,-251 "/>
<text text-anchor="start" x="8" y="-239" font-family="Helvetica,sans-Serif" font-size="10.00">+ Enemy()</text>
<text text-anchor="start" x="8" y="-228" font-family="Helvetica,sans-Serif" font-size="10.00">+ ~Enemy()</text>
<text text-anchor="start" x="8" y="-217" font-family="Helvetica,sans-Serif" font-size="10.00">+ setIsArrived()</text>
<text text-anchor="start" x="8" y="-206" font-family="Helvetica,sans-Serif" font-size="10.00">+ getIsArrived()</text>
<text text-anchor="start" x="8" y="-195" font-family="Helvetica,sans-Serif" font-size="10.00">+ walk()</text>
<text text-anchor="start" x="8" y="-184" font-family="Helvetica,sans-Serif" font-size="10.00">+ isDead()</text>
<text text-anchor="start" x="8" y="-173" font-family="Helvetica,sans-Serif" font-size="10.00">+ enemyDistance()</text>
<text text-anchor="start" x="8" y="-162" font-family="Helvetica,sans-Serif" font-size="10.00">+ enemyDirectionX()</text>
<text text-anchor="start" x="8" y="-151" font-family="Helvetica,sans-Serif" font-size="10.00">+ enemyDirectionY()</text>
</a>
</g>
</g>
<!-- Node1&#45;&gt;Node3 -->
<g id="edge2" class="edge">
<title>Node1&#45;&gt;Node3</title>
<path fill="none" stroke="midnightblue" d="M146.98,-356.62C140.91,-346.96 134.82,-337.28 129,-328 121.13,-315.45 112.77,-302.09 104.68,-289.15"/>
<polygon fill="none" stroke="midnightblue" points="144.02,-358.49 152.31,-365.09 149.95,-354.76 144.02,-358.49"/>
</g>
<!-- Node4 -->
<g id="node4" class="node">
<title>Node4</title>
<g id="a_node4"><a xlink:href="class_projectile.html" target="_top" xlink:title="Classe gérant les projectiles /!\ Hérite de la classe Entity /!.">
<polygon fill="none" stroke="black" points="138,-105.5 138,-327.5 270,-327.5 270,-105.5 138,-105.5"/>
<text text-anchor="middle" x="204" y="-315.5" font-family="Helvetica,sans-Serif" font-size="10.00">Projectile</text>
<polyline fill="none" stroke="black" points="138,-308.5 270,-308.5 "/>
<text text-anchor="start" x="146" y="-296.5" font-family="Helvetica,sans-Serif" font-size="10.00">+ tracking</text>
<text text-anchor="start" x="146" y="-285.5" font-family="Helvetica,sans-Serif" font-size="10.00">+ _inRange</text>
<text text-anchor="start" x="146" y="-274.5" font-family="Helvetica,sans-Serif" font-size="10.00">+ timeDelete</text>
<polyline fill="none" stroke="black" points="138,-267.5 270,-267.5 "/>
<text text-anchor="start" x="146" y="-255.5" font-family="Helvetica,sans-Serif" font-size="10.00">+ Projectile()</text>
<text text-anchor="start" x="146" y="-244.5" font-family="Helvetica,sans-Serif" font-size="10.00">+ ~Projectile()</text>
<text text-anchor="start" x="146" y="-233.5" font-family="Helvetica,sans-Serif" font-size="10.00">+ Projectile()</text>
<text text-anchor="start" x="146" y="-222.5" font-family="Helvetica,sans-Serif" font-size="10.00">+ fctPath()</text>
<text text-anchor="start" x="146" y="-211.5" font-family="Helvetica,sans-Serif" font-size="10.00">+ getProjectile()</text>
<text text-anchor="start" x="146" y="-200.5" font-family="Helvetica,sans-Serif" font-size="10.00">+ setProjectile()</text>
<text text-anchor="start" x="146" y="-189.5" font-family="Helvetica,sans-Serif" font-size="10.00">+ setTime()</text>
<text text-anchor="start" x="146" y="-178.5" font-family="Helvetica,sans-Serif" font-size="10.00">+ getTime()</text>
<text text-anchor="start" x="146" y="-167.5" font-family="Helvetica,sans-Serif" font-size="10.00">+ projectileDirectionX()</text>
<text text-anchor="start" x="146" y="-156.5" font-family="Helvetica,sans-Serif" font-size="10.00">+ projectileDirectionY()</text>
<text text-anchor="start" x="146" y="-145.5" font-family="Helvetica,sans-Serif" font-size="10.00">+ track()</text>
<text text-anchor="start" x="146" y="-134.5" font-family="Helvetica,sans-Serif" font-size="10.00">+ inRange()</text>
<text text-anchor="start" x="146" y="-123.5" font-family="Helvetica,sans-Serif" font-size="10.00">+ projectileDistance()</text>
<text text-anchor="start" x="146" y="-112.5" font-family="Helvetica,sans-Serif" font-size="10.00">+ touch()</text>
</a>
</g>
</g>
<!-- Node1&#45;&gt;Node4 -->
<g id="edge3" class="edge">
<title>Node1&#45;&gt;Node4</title>
<path fill="none" stroke="midnightblue" d="M204,-354.28C204,-345.52 204,-336.58 204,-327.67"/>
<polygon fill="none" stroke="midnightblue" points="200.5,-354.47 204,-364.47 207.5,-354.47 200.5,-354.47"/>
</g>
<!-- Node5 -->
<g id="node5" class="node">
<title>Node5</title>
<g id="a_node5"><a xlink:href="class_tower.html" target="_top" xlink:title=" ">
<polygon fill="none" stroke="black" points="288,-149.5 288,-283.5 370,-283.5 370,-149.5 288,-149.5"/>
<text text-anchor="middle" x="329" y="-271.5" font-family="Helvetica,sans-Serif" font-size="10.00">Tower</text>
<polyline fill="none" stroke="black" points="288,-264.5 370,-264.5 "/>
<text text-anchor="start" x="296" y="-252.5" font-family="Helvetica,sans-Serif" font-size="10.00">+ level</text>
<polyline fill="none" stroke="black" points="288,-245.5 370,-245.5 "/>
<text text-anchor="start" x="296" y="-233.5" font-family="Helvetica,sans-Serif" font-size="10.00">+ Tower()</text>
<text text-anchor="start" x="296" y="-222.5" font-family="Helvetica,sans-Serif" font-size="10.00">+ ~Tower()</text>
<text text-anchor="start" x="296" y="-211.5" font-family="Helvetica,sans-Serif" font-size="10.00">+ setRange()</text>
<text text-anchor="start" x="296" y="-200.5" font-family="Helvetica,sans-Serif" font-size="10.00">+ getRange()</text>
<text text-anchor="start" x="296" y="-189.5" font-family="Helvetica,sans-Serif" font-size="10.00">+ setPrice()</text>
<text text-anchor="start" x="296" y="-178.5" font-family="Helvetica,sans-Serif" font-size="10.00">+ getPrice()</text>
<text text-anchor="start" x="296" y="-167.5" font-family="Helvetica,sans-Serif" font-size="10.00">+ setLevel()</text>
<text text-anchor="start" x="296" y="-156.5" font-family="Helvetica,sans-Serif" font-size="10.00">+ getLevel()</text>
</a>
</g>
</g>
<!-- Node1&#45;&gt;Node5 -->
<g id="edge4" class="edge">
<title>Node1&#45;&gt;Node5</title>
<path fill="none" stroke="midnightblue" d="M260.91,-359.71C267.23,-349.15 273.4,-338.42 279,-328 286.58,-313.91 294.07,-298.44 300.85,-283.66"/>
<polygon fill="none" stroke="midnightblue" points="257.75,-358.16 255.57,-368.53 263.74,-361.78 257.75,-358.16"/>
</g>
<!-- Node2 -->
<g id="node2" class="node">
<title>Node2</title>
<g id="a_node2"><a xlink:title=" ">
<polygon fill="none" stroke="#bfbfbf" points="172,-568.5 172,-625.5 236,-625.5 236,-568.5 172,-568.5"/>
<text text-anchor="middle" x="204" y="-613.5" font-family="Helvetica,sans-Serif" font-size="10.00">EntitySDL</text>
<polyline fill="none" stroke="#bfbfbf" points="172,-606.5 236,-606.5 "/>
<text text-anchor="middle" x="204" y="-594.5" font-family="Helvetica,sans-Serif" font-size="10.00"> </text>
<polyline fill="none" stroke="#bfbfbf" points="172,-587.5 236,-587.5 "/>
<text text-anchor="middle" x="204" y="-575.5" font-family="Helvetica,sans-Serif" font-size="10.00"> </text>
</a>
</g>
</g>
<!-- Node2&#45;&gt;Node1 -->
<g id="edge1" class="edge">
<title>Node2&#45;&gt;Node1</title>
<path fill="none" stroke="midnightblue" d="M204,-558.35C204,-550.08 204,-541.01 204,-531.74"/>
<polygon fill="none" stroke="midnightblue" points="200.5,-558.35 204,-568.35 207.5,-558.35 200.5,-558.35"/>
</g>
<!-- Node6 -->
<g id="node6" class="node">
<title>Node6</title>
<g id="a_node6"><a xlink:href="class_tower_archer.html" target="_top" xlink:title="Classe gérant les tours d&#39;archer /!\ Hérite de la classe Entity /!.">
<polygon fill="none" stroke="black" points="156,-0.5 156,-68.5 260,-68.5 260,-0.5 156,-0.5"/>
<text text-anchor="middle" x="208" y="-56.5" font-family="Helvetica,sans-Serif" font-size="10.00">TowerArcher</text>
<polyline fill="none" stroke="black" points="156,-49.5 260,-49.5 "/>
<text text-anchor="middle" x="208" y="-37.5" font-family="Helvetica,sans-Serif" font-size="10.00"> </text>
<polyline fill="none" stroke="black" points="156,-30.5 260,-30.5 "/>
<text text-anchor="start" x="164" y="-18.5" font-family="Helvetica,sans-Serif" font-size="10.00">+ TowerArcher()</text>
<text text-anchor="start" x="164" y="-7.5" font-family="Helvetica,sans-Serif" font-size="10.00">+ ~TowerArcher()</text>
</a>
</g>
</g>
<!-- Node5&#45;&gt;Node6 -->
<g id="edge5" class="edge">
<title>Node5&#45;&gt;Node6</title>
<path fill="none" stroke="midnightblue" d="M299.43,-140.06C293.4,-127.91 286.55,-115.79 279,-105 269.9,-92 258.17,-79.36 246.88,-68.51"/>
<polygon fill="none" stroke="midnightblue" points="296.4,-141.83 303.89,-149.33 302.71,-138.8 296.4,-141.83"/>
</g>
<!-- Node7 -->
<g id="node7" class="node">
<title>Node7</title>
<g id="a_node7"><a xlink:href="class_tower_bomb.html" target="_top" xlink:title="Classe gérant les tours d&#39;archer /!\ Hérite de la classe Entity /!.">
<polygon fill="none" stroke="black" points="278.5,-0.5 278.5,-68.5 379.5,-68.5 379.5,-0.5 278.5,-0.5"/>
<text text-anchor="middle" x="329" y="-56.5" font-family="Helvetica,sans-Serif" font-size="10.00">TowerBomb</text>
<polyline fill="none" stroke="black" points="278.5,-49.5 379.5,-49.5 "/>
<text text-anchor="middle" x="329" y="-37.5" font-family="Helvetica,sans-Serif" font-size="10.00"> </text>
<polyline fill="none" stroke="black" points="278.5,-30.5 379.5,-30.5 "/>
<text text-anchor="start" x="286.5" y="-18.5" font-family="Helvetica,sans-Serif" font-size="10.00">+ TowerBomb()</text>
<text text-anchor="start" x="286.5" y="-7.5" font-family="Helvetica,sans-Serif" font-size="10.00">+ ~TowerBomb()</text>
</a>
</g>
</g>
<!-- Node5&#45;&gt;Node7 -->
<g id="edge6" class="edge">
<title>Node5&#45;&gt;Node7</title>
<path fill="none" stroke="midnightblue" d="M329,-139.39C329,-114.68 329,-88.55 329,-68.68"/>
<polygon fill="none" stroke="midnightblue" points="325.5,-139.5 329,-149.5 332.5,-139.5 325.5,-139.5"/>
</g>
<!-- Node8 -->
<g id="node8" class="node">
<title>Node8</title>
<g id="a_node8"><a xlink:href="class_tower_magic.html" target="_top" xlink:title="Classe gérant les tours d&#39;archer /!\ Hérite de la classe Entity /!.">
<polygon fill="none" stroke="black" points="397.5,-0.5 397.5,-68.5 498.5,-68.5 498.5,-0.5 397.5,-0.5"/>
<text text-anchor="middle" x="448" y="-56.5" font-family="Helvetica,sans-Serif" font-size="10.00">TowerMagic</text>
<polyline fill="none" stroke="black" points="397.5,-49.5 498.5,-49.5 "/>
<text text-anchor="middle" x="448" y="-37.5" font-family="Helvetica,sans-Serif" font-size="10.00"> </text>
<polyline fill="none" stroke="black" points="397.5,-30.5 498.5,-30.5 "/>
<text text-anchor="start" x="405.5" y="-18.5" font-family="Helvetica,sans-Serif" font-size="10.00">+ TowerMagic()</text>
<text text-anchor="start" x="405.5" y="-7.5" font-family="Helvetica,sans-Serif" font-size="10.00">+ ~TowerMagic()</text>
</a>
</g>
</g>
<!-- Node5&#45;&gt;Node8 -->
<g id="edge7" class="edge">
<title>Node5&#45;&gt;Node8</title>
<path fill="none" stroke="midnightblue" d="M375.7,-144.86C393.08,-118.57 411.99,-89.97 426.11,-68.62"/>
<polygon fill="none" stroke="midnightblue" points="372.71,-143.03 370.12,-153.3 378.55,-146.89 372.71,-143.03"/>
</g>
</g>
</svg>
