<?xml version="1.0" encoding="UTF-8" standalone="no"?>
<!DOCTYPE svg PUBLIC "-//W3C//DTD SVG 1.1//EN"
 "http://www.w3.org/Graphics/SVG/1.1/DTD/svg11.dtd">
<!-- Generated by graphviz version 2.43.0 (0)
 -->
<!-- Title: Tower Pages: 1 -->
<svg width="111pt" height="303pt"
 viewBox="0.00 0.00 111.00 303.00" xmlns="http://www.w3.org/2000/svg" xmlns:xlink="http://www.w3.org/1999/xlink">
<g id="graph0" class="graph" transform="scale(1 1) rotate(0) translate(4 299)">
<title>Tower</title>
<!-- Node1 -->
<g id="node1" class="node">
<title>Node1</title>
<g id="a_node1"><a xlink:title=" ">
<polygon fill="#bfbfbf" stroke="black" points="11.5,-0.5 11.5,-90.5 91.5,-90.5 91.5,-0.5 11.5,-0.5"/>
<text text-anchor="middle" x="51.5" y="-78.5" font-family="Helvetica,sans-Serif" font-size="10.00">Tower</text>
<polyline fill="none" stroke="black" points="11.5,-71.5 91.5,-71.5 "/>
<text text-anchor="middle" x="51.5" y="-59.5" font-family="Helvetica,sans-Serif" font-size="10.00"> </text>
<polyline fill="none" stroke="black" points="11.5,-52.5 91.5,-52.5 "/>
<text text-anchor="start" x="19.5" y="-40.5" font-family="Helvetica,sans-Serif" font-size="10.00">+ Tower()</text>
<text text-anchor="start" x="19.5" y="-29.5" font-family="Helvetica,sans-Serif" font-size="10.00">+ ~Tower()</text>
<text text-anchor="start" x="19.5" y="-18.5" font-family="Helvetica,sans-Serif" font-size="10.00">+ setTower()</text>
<text text-anchor="start" x="19.5" y="-7.5" font-family="Helvetica,sans-Serif" font-size="10.00">+ getTower()</text>
</a>
</g>
</g>
<!-- Node2 -->
<g id="node2" class="node">
<title>Node2</title>
<g id="a_node2"><a xlink:href="class_entity.html" target="_top" xlink:title="Classe gérant toutes les entités présentes dans le jeu (Ennemis, Tours, Projectiles,...">
<polygon fill="none" stroke="black" points="0,-127.5 0,-294.5 103,-294.5 103,-127.5 0,-127.5"/>
<text text-anchor="middle" x="51.5" y="-282.5" font-family="Helvetica,sans-Serif" font-size="10.00">Entity</text>
<polyline fill="none" stroke="black" points="0,-275.5 103,-275.5 "/>
<text text-anchor="middle" x="51.5" y="-263.5" font-family="Helvetica,sans-Serif" font-size="10.00"> </text>
<polyline fill="none" stroke="black" points="0,-256.5 103,-256.5 "/>
<text text-anchor="start" x="8" y="-244.5" font-family="Helvetica,sans-Serif" font-size="10.00">+ Entity()</text>
<text text-anchor="start" x="8" y="-233.5" font-family="Helvetica,sans-Serif" font-size="10.00">+ ~Entity()</text>
<text text-anchor="start" x="8" y="-222.5" font-family="Helvetica,sans-Serif" font-size="10.00">+ getPosX()</text>
<text text-anchor="start" x="8" y="-211.5" font-family="Helvetica,sans-Serif" font-size="10.00">+ getPosY()</text>
<text text-anchor="start" x="8" y="-200.5" font-family="Helvetica,sans-Serif" font-size="10.00">+ getConstPosX()</text>
<text text-anchor="start" x="8" y="-189.5" font-family="Helvetica,sans-Serif" font-size="10.00">+ getConstPosY()</text>
<text text-anchor="start" x="8" y="-178.5" font-family="Helvetica,sans-Serif" font-size="10.00">+ setPos()</text>
<text text-anchor="start" x="8" y="-167.5" font-family="Helvetica,sans-Serif" font-size="10.00">+ setPosX()</text>
<text text-anchor="start" x="8" y="-156.5" font-family="Helvetica,sans-Serif" font-size="10.00">+ setPosY()</text>
<text text-anchor="start" x="8" y="-145.5" font-family="Helvetica,sans-Serif" font-size="10.00">+ setSpeed()</text>
<text text-anchor="start" x="8" y="-134.5" font-family="Helvetica,sans-Serif" font-size="10.00">and 8 more...</text>
</a>
</g>
</g>
<!-- Node2&#45;&gt;Node1 -->
<g id="edge1" class="edge">
<title>Node2&#45;&gt;Node1</title>
<path fill="none" stroke="midnightblue" d="M51.5,-117.22C51.5,-107.99 51.5,-98.95 51.5,-90.58"/>
<polygon fill="none" stroke="midnightblue" points="48,-117.29 51.5,-127.29 55,-117.29 48,-117.29"/>
</g>
</g>
</svg>
