<?xml version="1.0" encoding="UTF-8" standalone="no"?>
<!DOCTYPE svg PUBLIC "-//W3C//DTD SVG 1.1//EN"
 "http://www.w3.org/Graphics/SVG/1.1/DTD/svg11.dtd">
<!-- Generated by graphviz version 2.43.0 (0)
 -->
<!-- Title: Tower::setPrice Pages: 1 -->
<svg width="277pt" height="104pt"
 viewBox="0.00 0.00 277.00 104.00" xmlns="http://www.w3.org/2000/svg" xmlns:xlink="http://www.w3.org/1999/xlink">
<g id="graph0" class="graph" transform="scale(1 1) rotate(0) translate(4 100)">
<title>Tower::setPrice</title>
<!-- Node1 -->
<g id="node1" class="node">
<title>Node1</title>
<g id="a_node1"><a xlink:title="Accesseur modifiant la valeur de la donnée membre price.">
<polygon fill="#bfbfbf" stroke="black" points="179,-38.5 179,-57.5 269,-57.5 269,-38.5 179,-38.5"/>
<text text-anchor="middle" x="224" y="-45.5" font-family="Helvetica,sans-Serif" font-size="10.00">Tower::setPrice</text>
</a>
</g>
</g>
<!-- Node2 -->
<g id="node2" class="node">
<title>Node2</title>
<g id="a_node2"><a xlink:href="class_tower_archer.html#a59af6e08c7426311d6bf5327ce86c13e" target="_top" xlink:title="Constructeur par défaut de la classe TowerArcher.">
<polygon fill="none" stroke="black" points="0,-76.5 0,-95.5 143,-95.5 143,-76.5 0,-76.5"/>
<text text-anchor="middle" x="71.5" y="-83.5" font-family="Helvetica,sans-Serif" font-size="10.00">TowerArcher::TowerArcher</text>
</a>
</g>
</g>
<!-- Node1&#45;&gt;Node2 -->
<g id="edge1" class="edge">
<title>Node1&#45;&gt;Node2</title>
<path fill="none" stroke="midnightblue" d="M175.32,-60.04C154.29,-65.35 129.93,-71.5 110.2,-76.48"/>
<polygon fill="midnightblue" stroke="midnightblue" points="176.18,-63.43 185.02,-57.59 174.47,-56.64 176.18,-63.43"/>
</g>
<!-- Node3 -->
<g id="node3" class="node">
<title>Node3</title>
<g id="a_node3"><a xlink:href="class_tower_bomb.html#a7e1c2b0cbd24f82457dca1c3d57e4da2" target="_top" xlink:title="Constructeur par défaut de la classe TowerArcher.">
<polygon fill="none" stroke="black" points="3,-38.5 3,-57.5 140,-57.5 140,-38.5 3,-38.5"/>
<text text-anchor="middle" x="71.5" y="-45.5" font-family="Helvetica,sans-Serif" font-size="10.00">TowerBomb::TowerBomb</text>
</a>
</g>
</g>
<!-- Node1&#45;&gt;Node3 -->
<g id="edge2" class="edge">
<title>Node1&#45;&gt;Node3</title>
<path fill="none" stroke="midnightblue" d="M168.52,-48C159.34,-48 149.71,-48 140.24,-48"/>
<polygon fill="midnightblue" stroke="midnightblue" points="168.66,-51.5 178.66,-48 168.66,-44.5 168.66,-51.5"/>
</g>
<!-- Node4 -->
<g id="node4" class="node">
<title>Node4</title>
<g id="a_node4"><a xlink:href="class_tower_magic.html#ab5761dd7777ca7e16da74717b7866841" target="_top" xlink:title="Constructeur par défaut de la classe TowerArcher.">
<polygon fill="none" stroke="black" points="2.5,-0.5 2.5,-19.5 140.5,-19.5 140.5,-0.5 2.5,-0.5"/>
<text text-anchor="middle" x="71.5" y="-7.5" font-family="Helvetica,sans-Serif" font-size="10.00">TowerMagic::TowerMagic</text>
</a>
</g>
</g>
<!-- Node1&#45;&gt;Node4 -->
<g id="edge3" class="edge">
<title>Node1&#45;&gt;Node4</title>
<path fill="none" stroke="midnightblue" d="M175.32,-35.96C154.29,-30.65 129.93,-24.5 110.2,-19.52"/>
<polygon fill="midnightblue" stroke="midnightblue" points="174.47,-39.36 185.02,-38.41 176.18,-32.57 174.47,-39.36"/>
</g>
</g>
</svg>
