<?xml version="1.0" encoding="UTF-8" standalone="no"?>
<!DOCTYPE svg PUBLIC "-//W3C//DTD SVG 1.1//EN"
 "http://www.w3.org/Graphics/SVG/1.1/DTD/svg11.dtd">
<!-- Generated by graphviz version 2.43.0 (0)
 -->
<!-- Title: Projectile::projectileDirectionY Pages: 1 -->
<svg width="670pt" height="180pt"
 viewBox="0.00 0.00 670.00 180.00" xmlns="http://www.w3.org/2000/svg" xmlns:xlink="http://www.w3.org/1999/xlink">
<g id="graph0" class="graph" transform="scale(1 1) rotate(0) translate(4 176)">
<title>Projectile::projectileDirectionY</title>
<!-- Node1 -->
<g id="node1" class="node">
<title>Node1</title>
<g id="a_node1"><a xlink:title="Fonction calculant la direction en y depuis une tour vers un ennemi.">
<polygon fill="#bfbfbf" stroke="black" points="0,-38.5 0,-57.5 164,-57.5 164,-38.5 0,-38.5"/>
<text text-anchor="middle" x="82" y="-45.5" font-family="Helvetica,sans-Serif" font-size="10.00">Projectile::projectileDirectionY</text>
</a>
</g>
</g>
<!-- Node2 -->
<g id="node2" class="node">
<title>Node2</title>
<g id="a_node2"><a xlink:href="class_enemy.html#aa7a5add0fb6b2e1af8dbf174415fb482" target="_top" xlink:title=" ">
<polygon fill="none" stroke="black" points="200,-95.5 200,-114.5 340,-114.5 340,-95.5 200,-95.5"/>
<text text-anchor="middle" x="270" y="-102.5" font-family="Helvetica,sans-Serif" font-size="10.00">Enemy::enemyDirectionY</text>
</a>
</g>
</g>
<!-- Node1&#45;&gt;Node2 -->
<g id="edge1" class="edge">
<title>Node1&#45;&gt;Node2</title>
<path fill="none" stroke="midnightblue" d="M114.13,-57.54C145.38,-67.12 193.69,-81.92 228.03,-92.45"/>
<polygon fill="midnightblue" stroke="midnightblue" points="227.18,-95.84 237.77,-95.43 229.23,-89.15 227.18,-95.84"/>
</g>
<!-- Node5 -->
<g id="node5" class="node">
<title>Node5</title>
<g id="a_node5"><a xlink:href="class_entity.html#a280a384eddb9c7bfb96547adfbb8f515" target="_top" xlink:title="Accesseur renvoyant la position en y d&#39;un ennemi de type const.">
<polygon fill="none" stroke="black" points="544.5,-38.5 544.5,-57.5 661.5,-57.5 661.5,-38.5 544.5,-38.5"/>
<text text-anchor="middle" x="603" y="-45.5" font-family="Helvetica,sans-Serif" font-size="10.00">Entity::getConstPosY</text>
</a>
</g>
</g>
<!-- Node1&#45;&gt;Node5 -->
<g id="edge9" class="edge">
<title>Node1&#45;&gt;Node5</title>
<path fill="none" stroke="midnightblue" d="M164.09,-48C266.01,-48 439.08,-48 534.26,-48"/>
<polygon fill="midnightblue" stroke="midnightblue" points="534.35,-51.5 544.35,-48 534.35,-44.5 534.35,-51.5"/>
</g>
<!-- Node8 -->
<g id="node8" class="node">
<title>Node8</title>
<g id="a_node8"><a xlink:href="class_entity.html#a285dfcfbbc0ca74d0637c15f427eb6d3" target="_top" xlink:title="Accesseur renvoyant la vitesse d&#39;un ennemi de type const.">
<polygon fill="none" stroke="black" points="208,-0.5 208,-19.5 332,-19.5 332,-0.5 208,-0.5"/>
<text text-anchor="middle" x="270" y="-7.5" font-family="Helvetica,sans-Serif" font-size="10.00">Entity::getConstSpeed</text>
</a>
</g>
</g>
<!-- Node1&#45;&gt;Node8 -->
<g id="edge10" class="edge">
<title>Node1&#45;&gt;Node8</title>
<path fill="none" stroke="midnightblue" d="M129.94,-38.41C155.03,-33.28 186.12,-26.93 212.53,-21.54"/>
<polygon fill="midnightblue" stroke="midnightblue" points="213.3,-24.95 222.4,-19.52 211.9,-18.09 213.3,-24.95"/>
</g>
<!-- Node3 -->
<g id="node3" class="node">
<title>Node3</title>
<g id="a_node3"><a xlink:href="class_enemy.html#ae96ba0b49cf1ab2f02087e1025d68e4a" target="_top" xlink:title=" ">
<polygon fill="none" stroke="black" points="376,-114.5 376,-133.5 508,-133.5 508,-114.5 376,-114.5"/>
<text text-anchor="middle" x="442" y="-121.5" font-family="Helvetica,sans-Serif" font-size="10.00">Enemy::enemyDistance</text>
</a>
</g>
</g>
<!-- Node2&#45;&gt;Node3 -->
<g id="edge2" class="edge">
<title>Node2&#45;&gt;Node3</title>
<path fill="none" stroke="midnightblue" d="M340.15,-112.73C348.6,-113.67 357.28,-114.64 365.82,-115.6"/>
<polygon fill="midnightblue" stroke="midnightblue" points="365.43,-119.08 375.76,-116.71 366.21,-112.12 365.43,-119.08"/>
</g>
<!-- Node2&#45;&gt;Node5 -->
<g id="edge7" class="edge">
<title>Node2&#45;&gt;Node5</title>
<path fill="none" stroke="midnightblue" d="M326.4,-95.46C384.37,-85.48 475.31,-69.82 536.72,-59.24"/>
<polygon fill="midnightblue" stroke="midnightblue" points="537.43,-62.67 546.69,-57.52 536.24,-55.77 537.43,-62.67"/>
</g>
<!-- Node7 -->
<g id="node7" class="node">
<title>Node7</title>
<g id="a_node7"><a xlink:href="class_road.html#ab7507b9872a1990388e7fa18d3c3253f" target="_top" xlink:title="Accesseur du PointY, récupère sa valeur.">
<polygon fill="none" stroke="black" points="556,-152.5 556,-171.5 650,-171.5 650,-152.5 556,-152.5"/>
<text text-anchor="middle" x="603" y="-159.5" font-family="Helvetica,sans-Serif" font-size="10.00">Road::getPointY</text>
</a>
</g>
</g>
<!-- Node2&#45;&gt;Node7 -->
<g id="edge8" class="edge">
<title>Node2&#45;&gt;Node7</title>
<path fill="none" stroke="midnightblue" d="M292.23,-114.56C313.09,-123.51 346.08,-136.45 376,-143 432.86,-155.45 499.4,-159.86 545.5,-161.36"/>
<polygon fill="midnightblue" stroke="midnightblue" points="545.49,-164.86 555.59,-161.65 545.69,-157.86 545.49,-164.86"/>
</g>
<!-- Node4 -->
<g id="node4" class="node">
<title>Node4</title>
<g id="a_node4"><a xlink:href="class_entity.html#a632a853b65d0468f138bc35efc0d317b" target="_top" xlink:title="Accesseur renvoyant la position en x d&#39;un ennemi de type const.">
<polygon fill="none" stroke="black" points="544,-114.5 544,-133.5 662,-133.5 662,-114.5 544,-114.5"/>
<text text-anchor="middle" x="603" y="-121.5" font-family="Helvetica,sans-Serif" font-size="10.00">Entity::getConstPosX</text>
</a>
</g>
</g>
<!-- Node3&#45;&gt;Node4 -->
<g id="edge3" class="edge">
<title>Node3&#45;&gt;Node4</title>
<path fill="none" stroke="midnightblue" d="M508.13,-124C516.54,-124 525.18,-124 533.64,-124"/>
<polygon fill="midnightblue" stroke="midnightblue" points="533.86,-127.5 543.86,-124 533.86,-120.5 533.86,-127.5"/>
</g>
<!-- Node3&#45;&gt;Node5 -->
<g id="edge4" class="edge">
<title>Node3&#45;&gt;Node5</title>
<path fill="none" stroke="midnightblue" d="M476.55,-114.41C487.02,-110.69 498.35,-105.89 508,-100 526.53,-88.7 525.26,-77.96 544,-67 547.6,-64.89 551.47,-62.99 555.43,-61.26"/>
<polygon fill="midnightblue" stroke="midnightblue" points="556.76,-64.5 564.78,-57.58 554.19,-57.99 556.76,-64.5"/>
</g>
<!-- Node6 -->
<g id="node6" class="node">
<title>Node6</title>
<g id="a_node6"><a xlink:href="class_road.html#a3d9af22c8a684b0fde2ce1b390d27d2a" target="_top" xlink:title="Accesseur du PointX, recupère sa valeur.">
<polygon fill="none" stroke="black" points="555.5,-76.5 555.5,-95.5 650.5,-95.5 650.5,-76.5 555.5,-76.5"/>
<text text-anchor="middle" x="603" y="-83.5" font-family="Helvetica,sans-Serif" font-size="10.00">Road::getPointX</text>
</a>
</g>
</g>
<!-- Node3&#45;&gt;Node6 -->
<g id="edge5" class="edge">
<title>Node3&#45;&gt;Node6</title>
<path fill="none" stroke="midnightblue" d="M483.12,-114.41C504.1,-109.4 529.98,-103.21 552.23,-97.89"/>
<polygon fill="midnightblue" stroke="midnightblue" points="553.25,-101.25 562.17,-95.52 551.63,-94.44 553.25,-101.25"/>
</g>
<!-- Node3&#45;&gt;Node7 -->
<g id="edge6" class="edge">
<title>Node3&#45;&gt;Node7</title>
<path fill="none" stroke="midnightblue" d="M483.12,-133.59C504.1,-138.6 529.98,-144.79 552.23,-150.11"/>
<polygon fill="midnightblue" stroke="midnightblue" points="551.63,-153.56 562.17,-152.48 553.25,-146.75 551.63,-153.56"/>
</g>
</g>
</svg>
