<?xml version="1.0" encoding="UTF-8" standalone="no"?>
<!DOCTYPE svg PUBLIC "-//W3C//DTD SVG 1.1//EN"
 "http://www.w3.org/Graphics/SVG/1.1/DTD/svg11.dtd">
<!-- Generated by graphviz version 2.43.0 (0)
 -->
<!-- Title: WindowTXT::print Pages: 1 -->
<svg width="589pt" height="104pt"
 viewBox="0.00 0.00 589.00 104.00" xmlns="http://www.w3.org/2000/svg" xmlns:xlink="http://www.w3.org/1999/xlink">
<g id="graph0" class="graph" transform="scale(1 1) rotate(0) translate(4 100)">
<title>WindowTXT::print</title>
<!-- Node1 -->
<g id="node1" class="node">
<title>Node1</title>
<g id="a_node1"><a xlink:title=" ">
<polygon fill="#bfbfbf" stroke="black" points="479,-38.5 479,-57.5 581,-57.5 581,-38.5 479,-38.5"/>
<text text-anchor="middle" x="530" y="-45.5" font-family="Helvetica,sans-Serif" font-size="10.00">WindowTXT::print</text>
</a>
</g>
</g>
<!-- Node2 -->
<g id="node2" class="node">
<title>Node2</title>
<g id="a_node2"><a xlink:href="class_window_t_x_t.html#a79659c7c121f98d9021e422a69d61333" target="_top" xlink:title=" ">
<polygon fill="none" stroke="black" points="339,-38.5 339,-57.5 443,-57.5 443,-38.5 339,-38.5"/>
<text text-anchor="middle" x="391" y="-45.5" font-family="Helvetica,sans-Serif" font-size="10.00">WindowTXT::clear</text>
</a>
</g>
</g>
<!-- Node1&#45;&gt;Node2 -->
<g id="edge1" class="edge">
<title>Node1&#45;&gt;Node2</title>
<path fill="none" stroke="midnightblue" d="M468.54,-48C460.07,-48 451.43,-48 443.15,-48"/>
<polygon fill="midnightblue" stroke="midnightblue" points="468.76,-51.5 478.76,-48 468.76,-44.5 468.76,-51.5"/>
</g>
<!-- Node3 -->
<g id="node3" class="node">
<title>Node3</title>
<g id="a_node3"><a xlink:href="_game_t_x_t_8cpp.html#a79f96f754efd066587bec9a3d0d0add7" target="_top" xlink:title=" ">
<polygon fill="none" stroke="black" points="206.5,-76.5 206.5,-95.5 262.5,-95.5 262.5,-76.5 206.5,-76.5"/>
<text text-anchor="middle" x="234.5" y="-83.5" font-family="Helvetica,sans-Serif" font-size="10.00">txtShow</text>
</a>
</g>
</g>
<!-- Node1&#45;&gt;Node3 -->
<g id="edge7" class="edge">
<title>Node1&#45;&gt;Node3</title>
<path fill="none" stroke="midnightblue" d="M480.65,-59.8C468.42,-62.48 455.28,-65.09 443,-67 378.84,-76.98 302.64,-82.31 262.83,-84.6"/>
<polygon fill="midnightblue" stroke="midnightblue" points="481.68,-63.16 490.67,-57.55 480.14,-56.33 481.68,-63.16"/>
</g>
<!-- Node7 -->
<g id="node7" class="node">
<title>Node7</title>
<g id="a_node7"><a xlink:href="class_window_t_x_t.html#a0d16dcf496056efce67906187587b48b" target="_top" xlink:title=" ">
<polygon fill="none" stroke="black" points="340,-0.5 340,-19.5 442,-19.5 442,-0.5 340,-0.5"/>
<text text-anchor="middle" x="391" y="-7.5" font-family="Helvetica,sans-Serif" font-size="10.00">WindowTXT::print</text>
</a>
</g>
</g>
<!-- Node1&#45;&gt;Node7 -->
<g id="edge6" class="edge">
<title>Node1&#45;&gt;Node7</title>
<path fill="none" stroke="midnightblue" d="M484.59,-35.68C465.77,-30.46 444.16,-24.47 426.56,-19.59"/>
<polygon fill="midnightblue" stroke="midnightblue" points="483.86,-39.11 494.43,-38.41 485.73,-32.37 483.86,-39.11"/>
</g>
<!-- Node2&#45;&gt;Node3 -->
<g id="edge2" class="edge">
<title>Node2&#45;&gt;Node3</title>
<path fill="none" stroke="midnightblue" d="M341.01,-60.05C315.15,-66.41 284.4,-73.97 262.79,-79.29"/>
<polygon fill="midnightblue" stroke="midnightblue" points="342.14,-63.38 351.01,-57.59 340.47,-56.58 342.14,-63.38"/>
</g>
<!-- Node6 -->
<g id="node6" class="node">
<title>Node6</title>
<g id="a_node6"><a xlink:href="class_window_t_x_t.html#abeff0343c64358919da2302c43f32cb3" target="_top" xlink:title=" ">
<polygon fill="none" stroke="black" points="166,-38.5 166,-57.5 303,-57.5 303,-38.5 166,-38.5"/>
<text text-anchor="middle" x="234.5" y="-45.5" font-family="Helvetica,sans-Serif" font-size="10.00">WindowTXT::WindowTXT</text>
</a>
</g>
</g>
<!-- Node2&#45;&gt;Node6 -->
<g id="edge5" class="edge">
<title>Node2&#45;&gt;Node6</title>
<path fill="none" stroke="midnightblue" d="M328.88,-48C320.47,-48 311.8,-48 303.27,-48"/>
<polygon fill="midnightblue" stroke="midnightblue" points="328.98,-51.5 338.98,-48 328.98,-44.5 328.98,-51.5"/>
</g>
<!-- Node4 -->
<g id="node4" class="node">
<title>Node4</title>
<g id="a_node4"><a xlink:href="_game_t_x_t_8cpp.html#aa8f70cd3510ceae6f2dd1bd542fcaabd" target="_top" xlink:title=" ">
<polygon fill="none" stroke="black" points="77,-76.5 77,-95.5 130,-95.5 130,-76.5 77,-76.5"/>
<text text-anchor="middle" x="103.5" y="-83.5" font-family="Helvetica,sans-Serif" font-size="10.00">txtLoop</text>
</a>
</g>
</g>
<!-- Node3&#45;&gt;Node4 -->
<g id="edge3" class="edge">
<title>Node3&#45;&gt;Node4</title>
<path fill="none" stroke="midnightblue" d="M196.2,-86C175.03,-86 149.07,-86 130.19,-86"/>
<polygon fill="midnightblue" stroke="midnightblue" points="196.46,-89.5 206.46,-86 196.46,-82.5 196.46,-89.5"/>
</g>
<!-- Node5 -->
<g id="node5" class="node">
<title>Node5</title>
<g id="a_node5"><a xlink:href="main_t_x_t_8cpp.html#a840291bc02cba5474a4cb46a9b9566fe" target="_top" xlink:title=" ">
<polygon fill="none" stroke="black" points="0,-76.5 0,-95.5 41,-95.5 41,-76.5 0,-76.5"/>
<text text-anchor="middle" x="20.5" y="-83.5" font-family="Helvetica,sans-Serif" font-size="10.00">main</text>
</a>
</g>
</g>
<!-- Node4&#45;&gt;Node5 -->
<g id="edge4" class="edge">
<title>Node4&#45;&gt;Node5</title>
<path fill="none" stroke="midnightblue" d="M66.75,-86C57.92,-86 48.79,-86 41.06,-86"/>
<polygon fill="midnightblue" stroke="midnightblue" points="66.87,-89.5 76.87,-86 66.87,-82.5 66.87,-89.5"/>
</g>
</g>
</svg>
