<?xml version="1.0" encoding="UTF-8" standalone="no"?>
<!DOCTYPE svg PUBLIC "-//W3C//DTD SVG 1.1//EN"
 "http://www.w3.org/Graphics/SVG/1.1/DTD/svg11.dtd">
<!-- Generated by graphviz version 2.43.0 (0)
 -->
<!-- Title: Enemy::Enemy Pages: 1 -->
<svg width="232pt" height="142pt"
 viewBox="0.00 0.00 232.00 142.00" xmlns="http://www.w3.org/2000/svg" xmlns:xlink="http://www.w3.org/1999/xlink">
<g id="graph0" class="graph" transform="scale(1 1) rotate(0) translate(4 138)">
<title>Enemy::Enemy</title>
<!-- Node1 -->
<g id="node1" class="node">
<title>Node1</title>
<g id="a_node1"><a xlink:title="Constructeur apr défaut de la classe Enemy.">
<polygon fill="#bfbfbf" stroke="black" points="0,-57.5 0,-76.5 89,-76.5 89,-57.5 0,-57.5"/>
<text text-anchor="middle" x="44.5" y="-64.5" font-family="Helvetica,sans-Serif" font-size="10.00">Enemy::Enemy</text>
</a>
</g>
</g>
<!-- Node2 -->
<g id="node2" class="node">
<title>Node2</title>
<g id="a_node2"><a xlink:href="class_entity.html#a048e30a0b851dc9073d5ec40396e38a4" target="_top" xlink:title="Accesseur modifiant la données membre &#39;isDead&#39; d&#39;un ennemi.">
<polygon fill="none" stroke="black" points="125,-114.5 125,-133.5 224,-133.5 224,-114.5 125,-114.5"/>
<text text-anchor="middle" x="174.5" y="-121.5" font-family="Helvetica,sans-Serif" font-size="10.00">Entity::setIsDead</text>
</a>
</g>
</g>
<!-- Node1&#45;&gt;Node2 -->
<g id="edge1" class="edge">
<title>Node1&#45;&gt;Node2</title>
<path fill="none" stroke="midnightblue" d="M64.6,-76.61C80.59,-84.54 104.09,-95.92 125,-105 129.43,-106.92 134.13,-108.87 138.78,-110.75"/>
<polygon fill="midnightblue" stroke="midnightblue" points="137.6,-114.05 148.19,-114.48 140.18,-107.54 137.6,-114.05"/>
</g>
<!-- Node3 -->
<g id="node3" class="node">
<title>Node3</title>
<g id="a_node3"><a xlink:href="class_entity.html#a5b37027cb419da8f2d08aae7b6da2938" target="_top" xlink:title="Accesseur modifiant la position en x et en y d&#39;un ennemi.">
<polygon fill="none" stroke="black" points="133,-76.5 133,-95.5 216,-95.5 216,-76.5 133,-76.5"/>
<text text-anchor="middle" x="174.5" y="-83.5" font-family="Helvetica,sans-Serif" font-size="10.00">Entity::setPos</text>
</a>
</g>
</g>
<!-- Node1&#45;&gt;Node3 -->
<g id="edge2" class="edge">
<title>Node1&#45;&gt;Node3</title>
<path fill="none" stroke="midnightblue" d="M89.19,-73.49C99.95,-75.08 111.56,-76.81 122.62,-78.45"/>
<polygon fill="midnightblue" stroke="midnightblue" points="122.19,-81.92 132.59,-79.93 123.21,-75 122.19,-81.92"/>
</g>
<!-- Node4 -->
<g id="node4" class="node">
<title>Node4</title>
<g id="a_node4"><a xlink:href="class_entity.html#a2f1d8b793ec68f84a0adeb938ad57ee5" target="_top" xlink:title="Accesseur modifiant les points de vie d&#39;un ennemi.">
<polygon fill="none" stroke="black" points="135.5,-38.5 135.5,-57.5 213.5,-57.5 213.5,-38.5 135.5,-38.5"/>
<text text-anchor="middle" x="174.5" y="-45.5" font-family="Helvetica,sans-Serif" font-size="10.00">Entity::setPV</text>
</a>
</g>
</g>
<!-- Node1&#45;&gt;Node4 -->
<g id="edge3" class="edge">
<title>Node1&#45;&gt;Node4</title>
<path fill="none" stroke="midnightblue" d="M89.19,-60.51C100.73,-58.8 113.25,-56.94 125.03,-55.2"/>
<polygon fill="midnightblue" stroke="midnightblue" points="125.76,-58.62 135.14,-53.69 124.73,-51.7 125.76,-58.62"/>
</g>
<!-- Node5 -->
<g id="node5" class="node">
<title>Node5</title>
<g id="a_node5"><a xlink:href="class_entity.html#adc48ea3a922e2705958bcb1f3066011b" target="_top" xlink:title="Accesseur modifiant la vitesse d&#39;un ennemi.">
<polygon fill="none" stroke="black" points="127,-0.5 127,-19.5 222,-19.5 222,-0.5 127,-0.5"/>
<text text-anchor="middle" x="174.5" y="-7.5" font-family="Helvetica,sans-Serif" font-size="10.00">Entity::setSpeed</text>
</a>
</g>
</g>
<!-- Node1&#45;&gt;Node5 -->
<g id="edge4" class="edge">
<title>Node1&#45;&gt;Node5</title>
<path fill="none" stroke="midnightblue" d="M64.6,-57.39C80.59,-49.46 104.09,-38.08 125,-29 129.43,-27.08 134.13,-25.13 138.78,-23.25"/>
<polygon fill="midnightblue" stroke="midnightblue" points="140.18,-26.46 148.19,-19.52 137.6,-19.95 140.18,-26.46"/>
</g>
</g>
</svg>
