<?xml version="1.0" encoding="UTF-8" standalone="no"?>
<!DOCTYPE svg PUBLIC "-//W3C//DTD SVG 1.1//EN"
 "http://www.w3.org/Graphics/SVG/1.1/DTD/svg11.dtd">
<!-- Generated by graphviz version 2.43.0 (0)
 -->
<!-- Title: TowerArcher::TowerArcher Pages: 1 -->
<svg width="294pt" height="142pt"
 viewBox="0.00 0.00 294.00 142.00" xmlns="http://www.w3.org/2000/svg" xmlns:xlink="http://www.w3.org/1999/xlink">
<g id="graph0" class="graph" transform="scale(1 1) rotate(0) translate(4 138)">
<title>TowerArcher::TowerArcher</title>
<!-- Node1 -->
<g id="node1" class="node">
<title>Node1</title>
<g id="a_node1"><a xlink:title="Constructeur par défaut de la classe TowerArcher.">
<polygon fill="#bfbfbf" stroke="black" points="0,-57.5 0,-76.5 143,-76.5 143,-57.5 0,-57.5"/>
<text text-anchor="middle" x="71.5" y="-64.5" font-family="Helvetica,sans-Serif" font-size="10.00">TowerArcher::TowerArcher</text>
</a>
</g>
</g>
<!-- Node2 -->
<g id="node2" class="node">
<title>Node2</title>
<g id="a_node2"><a xlink:href="class_entity.html#aa3e4324343ffa8395c40468d6966654e" target="_top" xlink:title="Accesseur modifiant les dommages causés par un ennemi.">
<polygon fill="none" stroke="black" points="179,-114.5 179,-133.5 286,-133.5 286,-114.5 179,-114.5"/>
<text text-anchor="middle" x="232.5" y="-121.5" font-family="Helvetica,sans-Serif" font-size="10.00">Entity::setDamage</text>
</a>
</g>
</g>
<!-- Node1&#45;&gt;Node2 -->
<g id="edge1" class="edge">
<title>Node1&#45;&gt;Node2</title>
<path fill="none" stroke="midnightblue" d="M99.11,-76.54C125.48,-85.99 166.06,-100.54 195.34,-111.04"/>
<polygon fill="midnightblue" stroke="midnightblue" points="194.21,-114.35 204.8,-114.43 196.57,-107.76 194.21,-114.35"/>
</g>
<!-- Node3 -->
<g id="node3" class="node">
<title>Node3</title>
<g id="a_node3"><a xlink:href="class_tower.html#aef61dd07944b209caf0a1bdcf9b568af" target="_top" xlink:title="Accesseur modifiant la valeur de la donnée membre price.">
<polygon fill="none" stroke="black" points="187.5,-76.5 187.5,-95.5 277.5,-95.5 277.5,-76.5 187.5,-76.5"/>
<text text-anchor="middle" x="232.5" y="-83.5" font-family="Helvetica,sans-Serif" font-size="10.00">Tower::setPrice</text>
</a>
</g>
</g>
<!-- Node1&#45;&gt;Node3 -->
<g id="edge2" class="edge">
<title>Node1&#45;&gt;Node3</title>
<path fill="none" stroke="midnightblue" d="M143.17,-75.44C154.48,-76.8 166.03,-78.18 176.9,-79.48"/>
<polygon fill="midnightblue" stroke="midnightblue" points="176.73,-82.98 187.07,-80.69 177.56,-76.03 176.73,-82.98"/>
</g>
<!-- Node4 -->
<g id="node4" class="node">
<title>Node4</title>
<g id="a_node4"><a xlink:href="class_tower.html#adc0cce29130f8b3c35f416f88eb097be" target="_top" xlink:title="Accesseur modifiant la valeur de la donnée membre range.">
<polygon fill="none" stroke="black" points="184,-38.5 184,-57.5 281,-57.5 281,-38.5 184,-38.5"/>
<text text-anchor="middle" x="232.5" y="-45.5" font-family="Helvetica,sans-Serif" font-size="10.00">Tower::setRange</text>
</a>
</g>
</g>
<!-- Node1&#45;&gt;Node4 -->
<g id="edge3" class="edge">
<title>Node1&#45;&gt;Node4</title>
<path fill="none" stroke="midnightblue" d="M143.17,-58.56C153.38,-57.33 163.8,-56.09 173.73,-54.9"/>
<polygon fill="midnightblue" stroke="midnightblue" points="174.35,-58.35 183.86,-53.69 173.52,-51.4 174.35,-58.35"/>
</g>
<!-- Node5 -->
<g id="node5" class="node">
<title>Node5</title>
<g id="a_node5"><a xlink:href="class_entity.html#adc48ea3a922e2705958bcb1f3066011b" target="_top" xlink:title="Accesseur modifiant la vitesse d&#39;un ennemi.">
<polygon fill="none" stroke="black" points="185,-0.5 185,-19.5 280,-19.5 280,-0.5 185,-0.5"/>
<text text-anchor="middle" x="232.5" y="-7.5" font-family="Helvetica,sans-Serif" font-size="10.00">Entity::setSpeed</text>
</a>
</g>
</g>
<!-- Node1&#45;&gt;Node5 -->
<g id="edge4" class="edge">
<title>Node1&#45;&gt;Node5</title>
<path fill="none" stroke="midnightblue" d="M99.11,-57.46C125.48,-48.01 166.06,-33.46 195.34,-22.96"/>
<polygon fill="midnightblue" stroke="midnightblue" points="196.57,-26.24 204.8,-19.57 194.21,-19.65 196.57,-26.24"/>
</g>
</g>
</svg>
