<?xml version="1.0" encoding="UTF-8" standalone="no"?>
<!DOCTYPE svg PUBLIC "-//W3C//DTD SVG 1.1//EN"
 "http://www.w3.org/Graphics/SVG/1.1/DTD/svg11.dtd">
<!-- Generated by graphviz version 2.43.0 (0)
 -->
<!-- Title: TowerBomb::TowerBomb Pages: 1 -->
<svg width="288pt" height="142pt"
 viewBox="0.00 0.00 288.00 142.00" xmlns="http://www.w3.org/2000/svg" xmlns:xlink="http://www.w3.org/1999/xlink">
<g id="graph0" class="graph" transform="scale(1 1) rotate(0) translate(4 138)">
<title>TowerBomb::TowerBomb</title>
<!-- Node1 -->
<g id="node1" class="node">
<title>Node1</title>
<g id="a_node1"><a xlink:title="Constructeur par défaut de la classe TowerArcher.">
<polygon fill="#bfbfbf" stroke="black" points="0,-57.5 0,-76.5 137,-76.5 137,-57.5 0,-57.5"/>
<text text-anchor="middle" x="68.5" y="-64.5" font-family="Helvetica,sans-Serif" font-size="10.00">TowerBomb::TowerBomb</text>
</a>
</g>
</g>
<!-- Node2 -->
<g id="node2" class="node">
<title>Node2</title>
<g id="a_node2"><a xlink:href="class_entity.html#aa3e4324343ffa8395c40468d6966654e" target="_top" xlink:title="Accesseur modifiant les dommages causés par un ennemi.">
<polygon fill="none" stroke="black" points="173,-114.5 173,-133.5 280,-133.5 280,-114.5 173,-114.5"/>
<text text-anchor="middle" x="226.5" y="-121.5" font-family="Helvetica,sans-Serif" font-size="10.00">Entity::setDamage</text>
</a>
</g>
</g>
<!-- Node1&#45;&gt;Node2 -->
<g id="edge1" class="edge">
<title>Node1&#45;&gt;Node2</title>
<path fill="none" stroke="midnightblue" d="M95.43,-76.56C116.36,-84.26 146.56,-95.36 173,-105 178.29,-106.93 183.89,-108.96 189.38,-110.95"/>
<polygon fill="midnightblue" stroke="midnightblue" points="188.46,-114.34 199.05,-114.46 190.84,-107.76 188.46,-114.34"/>
</g>
<!-- Node3 -->
<g id="node3" class="node">
<title>Node3</title>
<g id="a_node3"><a xlink:href="class_tower.html#aef61dd07944b209caf0a1bdcf9b568af" target="_top" xlink:title="Accesseur modifiant la valeur de la donnée membre price.">
<polygon fill="none" stroke="black" points="181.5,-76.5 181.5,-95.5 271.5,-95.5 271.5,-76.5 181.5,-76.5"/>
<text text-anchor="middle" x="226.5" y="-83.5" font-family="Helvetica,sans-Serif" font-size="10.00">Tower::setPrice</text>
</a>
</g>
</g>
<!-- Node1&#45;&gt;Node3 -->
<g id="edge2" class="edge">
<title>Node1&#45;&gt;Node3</title>
<path fill="none" stroke="midnightblue" d="M137.02,-75.22C148.49,-76.62 160.27,-78.06 171.35,-79.4"/>
<polygon fill="midnightblue" stroke="midnightblue" points="170.94,-82.88 181.29,-80.62 171.78,-75.93 170.94,-82.88"/>
</g>
<!-- Node4 -->
<g id="node4" class="node">
<title>Node4</title>
<g id="a_node4"><a xlink:href="class_tower.html#adc0cce29130f8b3c35f416f88eb097be" target="_top" xlink:title="Accesseur modifiant la valeur de la donnée membre range.">
<polygon fill="none" stroke="black" points="178,-38.5 178,-57.5 275,-57.5 275,-38.5 178,-38.5"/>
<text text-anchor="middle" x="226.5" y="-45.5" font-family="Helvetica,sans-Serif" font-size="10.00">Tower::setRange</text>
</a>
</g>
</g>
<!-- Node1&#45;&gt;Node4 -->
<g id="edge3" class="edge">
<title>Node1&#45;&gt;Node4</title>
<path fill="none" stroke="midnightblue" d="M137.02,-58.78C147.16,-57.54 157.55,-56.28 167.47,-55.07"/>
<polygon fill="midnightblue" stroke="midnightblue" points="168.11,-58.52 177.62,-53.83 167.27,-51.57 168.11,-58.52"/>
</g>
<!-- Node5 -->
<g id="node5" class="node">
<title>Node5</title>
<g id="a_node5"><a xlink:href="class_entity.html#adc48ea3a922e2705958bcb1f3066011b" target="_top" xlink:title="Accesseur modifiant la vitesse d&#39;un ennemi.">
<polygon fill="none" stroke="black" points="179,-0.5 179,-19.5 274,-19.5 274,-0.5 179,-0.5"/>
<text text-anchor="middle" x="226.5" y="-7.5" font-family="Helvetica,sans-Serif" font-size="10.00">Entity::setSpeed</text>
</a>
</g>
</g>
<!-- Node1&#45;&gt;Node5 -->
<g id="edge4" class="edge">
<title>Node1&#45;&gt;Node5</title>
<path fill="none" stroke="midnightblue" d="M95.43,-57.44C116.36,-49.74 146.56,-38.64 173,-29 178.29,-27.07 183.89,-25.04 189.38,-23.05"/>
<polygon fill="midnightblue" stroke="midnightblue" points="190.84,-26.24 199.05,-19.54 188.46,-19.66 190.84,-26.24"/>
</g>
</g>
</svg>
