<?xml version="1.0" encoding="UTF-8" standalone="no"?>
<!DOCTYPE svg PUBLIC "-//W3C//DTD SVG 1.1//EN"
 "http://www.w3.org/Graphics/SVG/1.1/DTD/svg11.dtd">
<!-- Generated by graphviz version 2.43.0 (0)
 -->
<!-- Title: TowerMagic::TowerMagic Pages: 1 -->
<svg width="289pt" height="142pt"
 viewBox="0.00 0.00 289.00 142.00" xmlns="http://www.w3.org/2000/svg" xmlns:xlink="http://www.w3.org/1999/xlink">
<g id="graph0" class="graph" transform="scale(1 1) rotate(0) translate(4 138)">
<title>TowerMagic::TowerMagic</title>
<!-- Node1 -->
<g id="node1" class="node">
<title>Node1</title>
<g id="a_node1"><a xlink:title="Constructeur par défaut de la classe TowerArcher.">
<polygon fill="#bfbfbf" stroke="black" points="0,-57.5 0,-76.5 138,-76.5 138,-57.5 0,-57.5"/>
<text text-anchor="middle" x="69" y="-64.5" font-family="Helvetica,sans-Serif" font-size="10.00">TowerMagic::TowerMagic</text>
</a>
</g>
</g>
<!-- Node2 -->
<g id="node2" class="node">
<title>Node2</title>
<g id="a_node2"><a xlink:href="class_entity.html#aa3e4324343ffa8395c40468d6966654e" target="_top" xlink:title="Accesseur modifiant les dommages causés par un ennemi.">
<polygon fill="none" stroke="black" points="174,-114.5 174,-133.5 281,-133.5 281,-114.5 174,-114.5"/>
<text text-anchor="middle" x="227.5" y="-121.5" font-family="Helvetica,sans-Serif" font-size="10.00">Entity::setDamage</text>
</a>
</g>
</g>
<!-- Node1&#45;&gt;Node2 -->
<g id="edge1" class="edge">
<title>Node1&#45;&gt;Node2</title>
<path fill="none" stroke="midnightblue" d="M96.06,-76.55C117.09,-84.25 147.44,-95.34 174,-105 179.29,-106.93 184.89,-108.96 190.38,-110.94"/>
<polygon fill="midnightblue" stroke="midnightblue" points="189.46,-114.33 200.06,-114.45 191.84,-107.75 189.46,-114.33"/>
</g>
<!-- Node3 -->
<g id="node3" class="node">
<title>Node3</title>
<g id="a_node3"><a xlink:href="class_tower.html#aef61dd07944b209caf0a1bdcf9b568af" target="_top" xlink:title="Accesseur modifiant la valeur de la donnée membre price.">
<polygon fill="none" stroke="black" points="182.5,-76.5 182.5,-95.5 272.5,-95.5 272.5,-76.5 182.5,-76.5"/>
<text text-anchor="middle" x="227.5" y="-83.5" font-family="Helvetica,sans-Serif" font-size="10.00">Tower::setPrice</text>
</a>
</g>
</g>
<!-- Node1&#45;&gt;Node3 -->
<g id="edge2" class="edge">
<title>Node1&#45;&gt;Node3</title>
<path fill="none" stroke="midnightblue" d="M138.19,-75.28C149.55,-76.66 161.2,-78.07 172.15,-79.4"/>
<polygon fill="midnightblue" stroke="midnightblue" points="172.07,-82.92 182.41,-80.65 172.91,-75.97 172.07,-82.92"/>
</g>
<!-- Node4 -->
<g id="node4" class="node">
<title>Node4</title>
<g id="a_node4"><a xlink:href="class_tower.html#adc0cce29130f8b3c35f416f88eb097be" target="_top" xlink:title="Accesseur modifiant la valeur de la donnée membre range.">
<polygon fill="none" stroke="black" points="179,-38.5 179,-57.5 276,-57.5 276,-38.5 179,-38.5"/>
<text text-anchor="middle" x="227.5" y="-45.5" font-family="Helvetica,sans-Serif" font-size="10.00">Tower::setRange</text>
</a>
</g>
</g>
<!-- Node1&#45;&gt;Node4 -->
<g id="edge3" class="edge">
<title>Node1&#45;&gt;Node4</title>
<path fill="none" stroke="midnightblue" d="M138.19,-58.72C148.34,-57.49 158.71,-56.23 168.62,-55.03"/>
<polygon fill="midnightblue" stroke="midnightblue" points="169.25,-58.48 178.75,-53.8 168.4,-51.53 169.25,-58.48"/>
</g>
<!-- Node5 -->
<g id="node5" class="node">
<title>Node5</title>
<g id="a_node5"><a xlink:href="class_entity.html#adc48ea3a922e2705958bcb1f3066011b" target="_top" xlink:title="Accesseur modifiant la vitesse d&#39;un ennemi.">
<polygon fill="none" stroke="black" points="180,-0.5 180,-19.5 275,-19.5 275,-0.5 180,-0.5"/>
<text text-anchor="middle" x="227.5" y="-7.5" font-family="Helvetica,sans-Serif" font-size="10.00">Entity::setSpeed</text>
</a>
</g>
</g>
<!-- Node1&#45;&gt;Node5 -->
<g id="edge4" class="edge">
<title>Node1&#45;&gt;Node5</title>
<path fill="none" stroke="midnightblue" d="M96.06,-57.45C117.09,-49.75 147.44,-38.66 174,-29 179.29,-27.07 184.89,-25.04 190.38,-23.06"/>
<polygon fill="midnightblue" stroke="midnightblue" points="191.84,-26.25 200.06,-19.55 189.46,-19.67 191.84,-26.25"/>
</g>
</g>
</svg>
