<?xml version="1.0" encoding="UTF-8" standalone="no"?>
<!DOCTYPE svg PUBLIC "-//W3C//DTD SVG 1.1//EN"
 "http://www.w3.org/Graphics/SVG/1.1/DTD/svg11.dtd">
<!-- Generated by graphviz version 2.43.0 (0)
 -->
<!-- Title: Projectile::track Pages: 1 -->
<svg width="261pt" height="218pt"
 viewBox="0.00 0.00 261.00 218.00" xmlns="http://www.w3.org/2000/svg" xmlns:xlink="http://www.w3.org/1999/xlink">
<g id="graph0" class="graph" transform="scale(1 1) rotate(0) translate(4 214)">
<title>Projectile::track</title>
<!-- Node1 -->
<g id="node1" class="node">
<title>Node1</title>
<g id="a_node1"><a xlink:title="Fonction calculant toutes les positions nécessaires au projectile entre une tour et un ennemi.">
<polygon fill="#bfbfbf" stroke="black" points="0,-95.5 0,-114.5 93,-114.5 93,-95.5 0,-95.5"/>
<text text-anchor="middle" x="46.5" y="-102.5" font-family="Helvetica,sans-Serif" font-size="10.00">Projectile::track</text>
</a>
</g>
</g>
<!-- Node2 -->
<g id="node2" class="node">
<title>Node2</title>
<g id="a_node2"><a xlink:href="class_entity.html#a632a853b65d0468f138bc35efc0d317b" target="_top" xlink:title="Accesseur renvoyant la position en x d&#39;un ennemi de type const.">
<polygon fill="none" stroke="black" points="132,-190.5 132,-209.5 250,-209.5 250,-190.5 132,-190.5"/>
<text text-anchor="middle" x="191" y="-197.5" font-family="Helvetica,sans-Serif" font-size="10.00">Entity::getConstPosX</text>
</a>
</g>
</g>
<!-- Node1&#45;&gt;Node2 -->
<g id="edge1" class="edge">
<title>Node1&#45;&gt;Node2</title>
<path fill="none" stroke="midnightblue" d="M55.25,-114.63C68.65,-130.65 97.72,-162.83 129,-181 132.67,-183.13 136.6,-185.05 140.64,-186.77"/>
<polygon fill="midnightblue" stroke="midnightblue" points="139.59,-190.12 150.18,-190.44 142.1,-183.58 139.59,-190.12"/>
</g>
<!-- Node3 -->
<g id="node3" class="node">
<title>Node3</title>
<g id="a_node3"><a xlink:href="class_entity.html#a280a384eddb9c7bfb96547adfbb8f515" target="_top" xlink:title="Accesseur renvoyant la position en y d&#39;un ennemi de type const.">
<polygon fill="none" stroke="black" points="132.5,-152.5 132.5,-171.5 249.5,-171.5 249.5,-152.5 132.5,-152.5"/>
<text text-anchor="middle" x="191" y="-159.5" font-family="Helvetica,sans-Serif" font-size="10.00">Entity::getConstPosY</text>
</a>
</g>
</g>
<!-- Node1&#45;&gt;Node3 -->
<g id="edge2" class="edge">
<title>Node1&#45;&gt;Node3</title>
<path fill="none" stroke="midnightblue" d="M66.29,-114.64C82.61,-122.8 107.01,-134.49 129,-143 134.63,-145.18 140.63,-147.29 146.58,-149.27"/>
<polygon fill="midnightblue" stroke="midnightblue" points="145.89,-152.72 156.48,-152.45 148.03,-146.05 145.89,-152.72"/>
</g>
<!-- Node4 -->
<g id="node4" class="node">
<title>Node4</title>
<g id="a_node4"><a xlink:href="class_entity.html#a285dfcfbbc0ca74d0637c15f427eb6d3" target="_top" xlink:title="Accesseur renvoyant la vitesse d&#39;un ennemi de type const.">
<polygon fill="none" stroke="black" points="129,-114.5 129,-133.5 253,-133.5 253,-114.5 129,-114.5"/>
<text text-anchor="middle" x="191" y="-121.5" font-family="Helvetica,sans-Serif" font-size="10.00">Entity::getConstSpeed</text>
</a>
</g>
</g>
<!-- Node1&#45;&gt;Node4 -->
<g id="edge3" class="edge">
<title>Node1&#45;&gt;Node4</title>
<path fill="none" stroke="midnightblue" d="M93.37,-111.12C101.5,-112.2 110.14,-113.35 118.77,-114.5"/>
<polygon fill="midnightblue" stroke="midnightblue" points="118.5,-118 128.88,-115.85 119.43,-111.06 118.5,-118"/>
</g>
<!-- Node5 -->
<g id="node5" class="node">
<title>Node5</title>
<g id="a_node5"><a xlink:href="class_entity.html#af723cc5c75855e421a0b2dcf29eb2903" target="_top" xlink:title="Accesseur renvoyant les dommages causés par un ennemi.">
<polygon fill="none" stroke="black" points="137.5,-76.5 137.5,-95.5 244.5,-95.5 244.5,-76.5 137.5,-76.5"/>
<text text-anchor="middle" x="191" y="-83.5" font-family="Helvetica,sans-Serif" font-size="10.00">Entity::getDamage</text>
</a>
</g>
</g>
<!-- Node1&#45;&gt;Node5 -->
<g id="edge4" class="edge">
<title>Node1&#45;&gt;Node5</title>
<path fill="none" stroke="midnightblue" d="M93.37,-98.88C104.2,-97.44 115.92,-95.88 127.34,-94.35"/>
<polygon fill="midnightblue" stroke="midnightblue" points="127.82,-97.82 137.27,-93.03 126.9,-90.88 127.82,-97.82"/>
</g>
<!-- Node6 -->
<g id="node6" class="node">
<title>Node6</title>
<g id="a_node6"><a xlink:href="class_entity.html#a334b52f5de8bbd7fb81f8bbeec08992b" target="_top" xlink:title="Accesseur renvoyant les points de vie d&#39;un ennemi.">
<polygon fill="none" stroke="black" points="151.5,-38.5 151.5,-57.5 230.5,-57.5 230.5,-38.5 151.5,-38.5"/>
<text text-anchor="middle" x="191" y="-45.5" font-family="Helvetica,sans-Serif" font-size="10.00">Entity::getPV</text>
</a>
</g>
</g>
<!-- Node1&#45;&gt;Node6 -->
<g id="edge5" class="edge">
<title>Node1&#45;&gt;Node6</title>
<path fill="none" stroke="midnightblue" d="M66.29,-95.36C82.61,-87.2 107.01,-75.51 129,-67 134.63,-64.82 140.63,-62.71 146.58,-60.73"/>
<polygon fill="midnightblue" stroke="midnightblue" points="148.03,-63.95 156.48,-57.55 145.89,-57.28 148.03,-63.95"/>
</g>
<!-- Node7 -->
<g id="node7" class="node">
<title>Node7</title>
<g id="a_node7"><a xlink:href="class_entity.html#a2f1d8b793ec68f84a0adeb938ad57ee5" target="_top" xlink:title="Accesseur modifiant les points de vie d&#39;un ennemi.">
<polygon fill="none" stroke="black" points="152,-0.5 152,-19.5 230,-19.5 230,-0.5 152,-0.5"/>
<text text-anchor="middle" x="191" y="-7.5" font-family="Helvetica,sans-Serif" font-size="10.00">Entity::setPV</text>
</a>
</g>
</g>
<!-- Node1&#45;&gt;Node7 -->
<g id="edge6" class="edge">
<title>Node1&#45;&gt;Node7</title>
<path fill="none" stroke="midnightblue" d="M55.25,-95.37C68.65,-79.35 97.72,-47.17 129,-29 133.16,-26.59 137.66,-24.44 142.26,-22.55"/>
<polygon fill="midnightblue" stroke="midnightblue" points="143.63,-25.78 151.79,-19.01 141.19,-19.21 143.63,-25.78"/>
</g>
</g>
</svg>
