<?xml version="1.0" encoding="UTF-8" standalone="no"?>
<!DOCTYPE svg PUBLIC "-//W3C//DTD SVG 1.1//EN"
 "http://www.w3.org/Graphics/SVG/1.1/DTD/svg11.dtd">
<!-- Generated by graphviz version 2.43.0 (0)
 -->
<!-- Title: Projectile::projectileDirectionX Pages: 1 -->
<svg width="671pt" height="142pt"
 viewBox="0.00 0.00 671.00 142.00" xmlns="http://www.w3.org/2000/svg" xmlns:xlink="http://www.w3.org/1999/xlink">
<g id="graph0" class="graph" transform="scale(1 1) rotate(0) translate(4 138)">
<title>Projectile::projectileDirectionX</title>
<!-- Node1 -->
<g id="node1" class="node">
<title>Node1</title>
<g id="a_node1"><a xlink:title="Fonction calculant la direction en x depuis une tour vers un ennemi.">
<polygon fill="#bfbfbf" stroke="black" points="0,-57.5 0,-76.5 165,-76.5 165,-57.5 0,-57.5"/>
<text text-anchor="middle" x="82.5" y="-64.5" font-family="Helvetica,sans-Serif" font-size="10.00">Projectile::projectileDirectionX</text>
</a>
</g>
</g>
<!-- Node2 -->
<g id="node2" class="node">
<title>Node2</title>
<g id="a_node2"><a xlink:href="class_enemy.html#adf23e5e83dc77b5b9896df6deaab9528" target="_top" xlink:title=" ">
<polygon fill="none" stroke="black" points="201,-57.5 201,-76.5 341,-76.5 341,-57.5 201,-57.5"/>
<text text-anchor="middle" x="271" y="-64.5" font-family="Helvetica,sans-Serif" font-size="10.00">Enemy::enemyDirectionX</text>
</a>
</g>
</g>
<!-- Node1&#45;&gt;Node2 -->
<g id="edge1" class="edge">
<title>Node1&#45;&gt;Node2</title>
<path fill="none" stroke="midnightblue" d="M165.03,-67C173.53,-67 182.17,-67 190.64,-67"/>
<polygon fill="midnightblue" stroke="midnightblue" points="190.88,-70.5 200.88,-67 190.88,-63.5 190.88,-70.5"/>
</g>
<!-- Node4 -->
<g id="node4" class="node">
<title>Node4</title>
<g id="a_node4"><a xlink:href="class_entity.html#a632a853b65d0468f138bc35efc0d317b" target="_top" xlink:title="Accesseur renvoyant la position en x d&#39;un ennemi de type const.">
<polygon fill="none" stroke="black" points="545,-114.5 545,-133.5 663,-133.5 663,-114.5 545,-114.5"/>
<text text-anchor="middle" x="604" y="-121.5" font-family="Helvetica,sans-Serif" font-size="10.00">Entity::getConstPosX</text>
</a>
</g>
</g>
<!-- Node1&#45;&gt;Node4 -->
<g id="edge9" class="edge">
<title>Node1&#45;&gt;Node4</title>
<path fill="none" stroke="midnightblue" d="M140.53,-76.51C159.73,-79.64 181.28,-83.06 201,-86 279.08,-97.64 298.44,-102.22 377,-110 429.81,-115.23 489.76,-118.84 534.64,-121.08"/>
<polygon fill="midnightblue" stroke="midnightblue" points="534.69,-124.58 544.84,-121.58 535.03,-117.59 534.69,-124.58"/>
</g>
<!-- Node8 -->
<g id="node8" class="node">
<title>Node8</title>
<g id="a_node8"><a xlink:href="class_entity.html#a285dfcfbbc0ca74d0637c15f427eb6d3" target="_top" xlink:title="Accesseur renvoyant la vitesse d&#39;un ennemi de type const.">
<polygon fill="none" stroke="black" points="209,-19.5 209,-38.5 333,-38.5 333,-19.5 209,-19.5"/>
<text text-anchor="middle" x="271" y="-26.5" font-family="Helvetica,sans-Serif" font-size="10.00">Entity::getConstSpeed</text>
</a>
</g>
</g>
<!-- Node1&#45;&gt;Node8 -->
<g id="edge10" class="edge">
<title>Node1&#45;&gt;Node8</title>
<path fill="none" stroke="midnightblue" d="M130.56,-57.41C155.73,-52.28 186.9,-45.93 213.38,-40.54"/>
<polygon fill="midnightblue" stroke="midnightblue" points="214.18,-43.95 223.28,-38.52 212.78,-37.09 214.18,-43.95"/>
</g>
<!-- Node3 -->
<g id="node3" class="node">
<title>Node3</title>
<g id="a_node3"><a xlink:href="class_enemy.html#ae96ba0b49cf1ab2f02087e1025d68e4a" target="_top" xlink:title=" ">
<polygon fill="none" stroke="black" points="377,-38.5 377,-57.5 509,-57.5 509,-38.5 377,-38.5"/>
<text text-anchor="middle" x="443" y="-45.5" font-family="Helvetica,sans-Serif" font-size="10.00">Enemy::enemyDistance</text>
</a>
</g>
</g>
<!-- Node2&#45;&gt;Node3 -->
<g id="edge2" class="edge">
<title>Node2&#45;&gt;Node3</title>
<path fill="none" stroke="midnightblue" d="M341.15,-59.27C349.6,-58.33 358.28,-57.36 366.82,-56.4"/>
<polygon fill="midnightblue" stroke="midnightblue" points="367.21,-59.88 376.76,-55.29 366.43,-52.92 367.21,-59.88"/>
</g>
<!-- Node2&#45;&gt;Node4 -->
<g id="edge7" class="edge">
<title>Node2&#45;&gt;Node4</title>
<path fill="none" stroke="midnightblue" d="M327.4,-76.54C385.37,-86.52 476.31,-102.18 537.72,-112.76"/>
<polygon fill="midnightblue" stroke="midnightblue" points="537.24,-116.23 547.69,-114.48 538.43,-109.33 537.24,-116.23"/>
</g>
<!-- Node6 -->
<g id="node6" class="node">
<title>Node6</title>
<g id="a_node6"><a xlink:href="class_road.html#a3d9af22c8a684b0fde2ce1b390d27d2a" target="_top" xlink:title="Accesseur du PointX, recupère sa valeur.">
<polygon fill="none" stroke="black" points="556.5,-0.5 556.5,-19.5 651.5,-19.5 651.5,-0.5 556.5,-0.5"/>
<text text-anchor="middle" x="604" y="-7.5" font-family="Helvetica,sans-Serif" font-size="10.00">Road::getPointX</text>
</a>
</g>
</g>
<!-- Node2&#45;&gt;Node6 -->
<g id="edge8" class="edge">
<title>Node2&#45;&gt;Node6</title>
<path fill="none" stroke="midnightblue" d="M312.26,-57.5C321.81,-54.81 331.87,-51.61 341,-48 357.82,-41.34 359.64,-34.08 377,-29 432.86,-12.65 499.56,-8.85 545.96,-8.55"/>
<polygon fill="midnightblue" stroke="midnightblue" points="546.13,-12.05 556.13,-8.54 546.12,-5.05 546.13,-12.05"/>
</g>
<!-- Node3&#45;&gt;Node4 -->
<g id="edge3" class="edge">
<title>Node3&#45;&gt;Node4</title>
<path fill="none" stroke="midnightblue" d="M477.55,-57.59C488.02,-61.31 499.35,-66.11 509,-72 527.53,-83.3 526.26,-94.04 545,-105 548.6,-107.11 552.47,-109.01 556.43,-110.74"/>
<polygon fill="midnightblue" stroke="midnightblue" points="555.19,-114.01 565.78,-114.42 557.76,-107.5 555.19,-114.01"/>
</g>
<!-- Node5 -->
<g id="node5" class="node">
<title>Node5</title>
<g id="a_node5"><a xlink:href="class_entity.html#a280a384eddb9c7bfb96547adfbb8f515" target="_top" xlink:title="Accesseur renvoyant la position en y d&#39;un ennemi de type const.">
<polygon fill="none" stroke="black" points="545.5,-76.5 545.5,-95.5 662.5,-95.5 662.5,-76.5 545.5,-76.5"/>
<text text-anchor="middle" x="604" y="-83.5" font-family="Helvetica,sans-Serif" font-size="10.00">Entity::getConstPosY</text>
</a>
</g>
</g>
<!-- Node3&#45;&gt;Node5 -->
<g id="edge4" class="edge">
<title>Node3&#45;&gt;Node5</title>
<path fill="none" stroke="midnightblue" d="M484.12,-57.59C505.1,-62.6 530.98,-68.79 553.23,-74.11"/>
<polygon fill="midnightblue" stroke="midnightblue" points="552.63,-77.56 563.17,-76.48 554.25,-70.75 552.63,-77.56"/>
</g>
<!-- Node3&#45;&gt;Node6 -->
<g id="edge5" class="edge">
<title>Node3&#45;&gt;Node6</title>
<path fill="none" stroke="midnightblue" d="M484.12,-38.41C505.1,-33.4 530.98,-27.21 553.23,-21.89"/>
<polygon fill="midnightblue" stroke="midnightblue" points="554.25,-25.25 563.17,-19.52 552.63,-18.44 554.25,-25.25"/>
</g>
<!-- Node7 -->
<g id="node7" class="node">
<title>Node7</title>
<g id="a_node7"><a xlink:href="class_road.html#ab7507b9872a1990388e7fa18d3c3253f" target="_top" xlink:title="Accesseur du PointY, récupère sa valeur.">
<polygon fill="none" stroke="black" points="557,-38.5 557,-57.5 651,-57.5 651,-38.5 557,-38.5"/>
<text text-anchor="middle" x="604" y="-45.5" font-family="Helvetica,sans-Serif" font-size="10.00">Road::getPointY</text>
</a>
</g>
</g>
<!-- Node3&#45;&gt;Node7 -->
<g id="edge6" class="edge">
<title>Node3&#45;&gt;Node7</title>
<path fill="none" stroke="midnightblue" d="M509.13,-48C521.47,-48 534.28,-48 546.33,-48"/>
<polygon fill="midnightblue" stroke="midnightblue" points="546.7,-51.5 556.7,-48 546.7,-44.5 546.7,-51.5"/>
</g>
</g>
</svg>
