<?xml version="1.0" encoding="UTF-8" standalone="no"?>
<!DOCTYPE svg PUBLIC "-//W3C//DTD SVG 1.1//EN"
 "http://www.w3.org/Graphics/SVG/1.1/DTD/svg11.dtd">
<!-- Generated by graphviz version 2.43.0 (0)
 -->
<!-- Title: Entity::getConstSpeed Pages: 1 -->
<svg width="415pt" height="104pt"
 viewBox="0.00 0.00 415.00 104.00" xmlns="http://www.w3.org/2000/svg" xmlns:xlink="http://www.w3.org/1999/xlink">
<g id="graph0" class="graph" transform="scale(1 1) rotate(0) translate(4 100)">
<title>Entity::getConstSpeed</title>
<!-- Node1 -->
<g id="node1" class="node">
<title>Node1</title>
<g id="a_node1"><a xlink:title="Accesseur renvoyant la vitesse d&#39;un ennemi de type const.">
<polygon fill="#bfbfbf" stroke="black" points="283,-38.5 283,-57.5 407,-57.5 407,-38.5 283,-38.5"/>
<text text-anchor="middle" x="345" y="-45.5" font-family="Helvetica,sans-Serif" font-size="10.00">Entity::getConstSpeed</text>
</a>
</g>
</g>
<!-- Node2 -->
<g id="node2" class="node">
<title>Node2</title>
<g id="a_node2"><a xlink:href="class_projectile.html#ae5645549de0ef4e2defdb3edd9fc57f0" target="_top" xlink:title="Fonction calculant la direction en x depuis une tour vers un ennemi.">
<polygon fill="none" stroke="black" points="129,-76.5 129,-95.5 247,-95.5 247,-76.5 129,-76.5"/>
<text text-anchor="middle" x="188" y="-83.5" font-family="Helvetica,sans-Serif" font-size="10.00">Projectile::directionX</text>
</a>
</g>
</g>
<!-- Node1&#45;&gt;Node2 -->
<g id="edge1" class="edge">
<title>Node1&#45;&gt;Node2</title>
<path fill="none" stroke="midnightblue" d="M294.89,-60.04C273.24,-65.35 248.15,-71.5 227.83,-76.48"/>
<polygon fill="midnightblue" stroke="midnightblue" points="296.01,-63.37 304.89,-57.59 294.34,-56.57 296.01,-63.37"/>
</g>
<!-- Node3 -->
<g id="node3" class="node">
<title>Node3</title>
<g id="a_node3"><a xlink:href="class_projectile.html#adfc163f4a625fc293f8f67fd0eb49761" target="_top" xlink:title="Fonction calculant toutes les positions nécessaires au projectile entre une tour et un ennemi.">
<polygon fill="none" stroke="black" points="0,-38.5 0,-57.5 93,-57.5 93,-38.5 0,-38.5"/>
<text text-anchor="middle" x="46.5" y="-45.5" font-family="Helvetica,sans-Serif" font-size="10.00">Projectile::track</text>
</a>
</g>
</g>
<!-- Node1&#45;&gt;Node3 -->
<g id="edge5" class="edge">
<title>Node1&#45;&gt;Node3</title>
<path fill="none" stroke="midnightblue" d="M272.74,-48C216.9,-48 140.89,-48 93.01,-48"/>
<polygon fill="midnightblue" stroke="midnightblue" points="272.92,-51.5 282.92,-48 272.92,-44.5 272.92,-51.5"/>
</g>
<!-- Node4 -->
<g id="node4" class="node">
<title>Node4</title>
<g id="a_node4"><a xlink:href="class_projectile.html#a4fed5dda0d58cd0721bf8a20a005c594" target="_top" xlink:title="Fonction calculant la direction en y depuis une tour vers un ennemi.">
<polygon fill="none" stroke="black" points="129.5,-0.5 129.5,-19.5 246.5,-19.5 246.5,-0.5 129.5,-0.5"/>
<text text-anchor="middle" x="188" y="-7.5" font-family="Helvetica,sans-Serif" font-size="10.00">Projectile::directionY</text>
</a>
</g>
</g>
<!-- Node1&#45;&gt;Node4 -->
<g id="edge3" class="edge">
<title>Node1&#45;&gt;Node4</title>
<path fill="none" stroke="midnightblue" d="M294.89,-35.96C273.24,-30.65 248.15,-24.5 227.83,-19.52"/>
<polygon fill="midnightblue" stroke="midnightblue" points="294.34,-39.43 304.89,-38.41 296.01,-32.63 294.34,-39.43"/>
</g>
<!-- Node2&#45;&gt;Node3 -->
<g id="edge2" class="edge">
<title>Node2&#45;&gt;Node3</title>
<path fill="none" stroke="midnightblue" d="M142.04,-73.75C122.82,-68.52 100.7,-62.49 82.69,-57.59"/>
<polygon fill="midnightblue" stroke="midnightblue" points="141.23,-77.16 151.8,-76.41 143.07,-70.41 141.23,-77.16"/>
</g>
<!-- Node4&#45;&gt;Node3 -->
<g id="edge4" class="edge">
<title>Node4&#45;&gt;Node3</title>
<path fill="none" stroke="midnightblue" d="M142.04,-22.25C122.82,-27.48 100.7,-33.51 82.69,-38.41"/>
<polygon fill="midnightblue" stroke="midnightblue" points="143.07,-25.59 151.8,-19.59 141.23,-18.84 143.07,-25.59"/>
</g>
</g>
</svg>
