<?xml version="1.0" encoding="UTF-8" standalone="no"?>
<!DOCTYPE svg PUBLIC "-//W3C//DTD SVG 1.1//EN"
 "http://www.w3.org/Graphics/SVG/1.1/DTD/svg11.dtd">
<!-- Generated by graphviz version 2.43.0 (0)
 -->
<!-- Title: Enemy::enemyDirectionX Pages: 1 -->
<svg width="349pt" height="66pt"
 viewBox="0.00 0.00 349.00 66.00" xmlns="http://www.w3.org/2000/svg" xmlns:xlink="http://www.w3.org/1999/xlink">
<g id="graph0" class="graph" transform="scale(1 1) rotate(0) translate(4 62)">
<title>Enemy::enemyDirectionX</title>
<!-- Node1 -->
<g id="node1" class="node">
<title>Node1</title>
<g id="a_node1"><a xlink:title=" ">
<polygon fill="#bfbfbf" stroke="black" points="201,-19.5 201,-38.5 341,-38.5 341,-19.5 201,-19.5"/>
<text text-anchor="middle" x="271" y="-26.5" font-family="Helvetica,sans-Serif" font-size="10.00">Enemy::enemyDirectionX</text>
</a>
</g>
</g>
<!-- Node2 -->
<g id="node2" class="node">
<title>Node2</title>
<g id="a_node2"><a xlink:href="class_projectile.html#aab843b501a1669277ec8157ddab8ca0a" target="_top" xlink:title="Fonction calculant la direction en x depuis une tour vers un ennemi.">
<polygon fill="none" stroke="black" points="0,-38.5 0,-57.5 165,-57.5 165,-38.5 0,-38.5"/>
<text text-anchor="middle" x="82.5" y="-45.5" font-family="Helvetica,sans-Serif" font-size="10.00">Projectile::projectileDirectionX</text>
</a>
</g>
</g>
<!-- Node1&#45;&gt;Node2 -->
<g id="edge1" class="edge">
<title>Node1&#45;&gt;Node2</title>
<path fill="none" stroke="midnightblue" d="M190.64,-37.09C182.21,-37.94 173.63,-38.82 165.17,-39.68"/>
<polygon fill="midnightblue" stroke="midnightblue" points="191.23,-40.54 200.82,-36.05 190.52,-33.58 191.23,-40.54"/>
</g>
<!-- Node3 -->
<g id="node3" class="node">
<title>Node3</title>
<g id="a_node3"><a xlink:href="class_enemy.html#a8d79bf0666d466e582c41e513dcb7b24" target="_top" xlink:title=" ">
<polygon fill="none" stroke="black" points="43,-0.5 43,-19.5 122,-19.5 122,-0.5 43,-0.5"/>
<text text-anchor="middle" x="82.5" y="-7.5" font-family="Helvetica,sans-Serif" font-size="10.00">Enemy::walk</text>
</a>
</g>
</g>
<!-- Node1&#45;&gt;Node3 -->
<g id="edge2" class="edge">
<title>Node1&#45;&gt;Node3</title>
<path fill="none" stroke="midnightblue" d="M190.76,-20.93C167.05,-18.51 142.11,-15.97 122.26,-13.95"/>
<polygon fill="midnightblue" stroke="midnightblue" points="190.52,-24.42 200.82,-21.95 191.23,-17.46 190.52,-24.42"/>
</g>
</g>
</svg>
