<?xml version="1.0" encoding="UTF-8" standalone="no"?>
<!DOCTYPE svg PUBLIC "-//W3C//DTD SVG 1.1//EN"
 "http://www.w3.org/Graphics/SVG/1.1/DTD/svg11.dtd">
<!-- Generated by graphviz version 2.43.0 (0)
 -->
<!-- Title: Entity::setPV Pages: 1 -->
<svg width="215pt" height="66pt"
 viewBox="0.00 0.00 215.00 66.00" xmlns="http://www.w3.org/2000/svg" xmlns:xlink="http://www.w3.org/1999/xlink">
<g id="graph0" class="graph" transform="scale(1 1) rotate(0) translate(4 62)">
<title>Entity::setPV</title>
<!-- Node1 -->
<g id="node1" class="node">
<title>Node1</title>
<g id="a_node1"><a xlink:title="Accesseur modifiant les points de vie d&#39;un ennemi.">
<polygon fill="#bfbfbf" stroke="black" points="129,-19.5 129,-38.5 207,-38.5 207,-19.5 129,-19.5"/>
<text text-anchor="middle" x="168" y="-26.5" font-family="Helvetica,sans-Serif" font-size="10.00">Entity::setPV</text>
</a>
</g>
</g>
<!-- Node2 -->
<g id="node2" class="node">
<title>Node2</title>
<g id="a_node2"><a xlink:href="class_enemy.html#a0eaeb6dd84980b1a3f0ea74140183fdc" target="_top" xlink:title="Constructeur apr défaut de la classe Enemy.">
<polygon fill="none" stroke="black" points="2,-38.5 2,-57.5 91,-57.5 91,-38.5 2,-38.5"/>
<text text-anchor="middle" x="46.5" y="-45.5" font-family="Helvetica,sans-Serif" font-size="10.00">Enemy::Enemy</text>
</a>
</g>
</g>
<!-- Node1&#45;&gt;Node2 -->
<g id="edge1" class="edge">
<title>Node1&#45;&gt;Node2</title>
<path fill="none" stroke="midnightblue" d="M118.74,-36.67C109.6,-38.13 100.09,-39.64 91.1,-41.07"/>
<polygon fill="midnightblue" stroke="midnightblue" points="119.53,-40.09 128.86,-35.06 118.44,-33.18 119.53,-40.09"/>
</g>
<!-- Node3 -->
<g id="node3" class="node">
<title>Node3</title>
<g id="a_node3"><a xlink:href="class_projectile.html#a73f8a1e71748a6994efba59c459385c8" target="_top" xlink:title="Fonction calculant toutes les positions nécessaires au projectile entre une tour et un ennemi.">
<polygon fill="none" stroke="black" points="0,-0.5 0,-19.5 93,-19.5 93,-0.5 0,-0.5"/>
<text text-anchor="middle" x="46.5" y="-7.5" font-family="Helvetica,sans-Serif" font-size="10.00">Projectile::track</text>
</a>
</g>
</g>
<!-- Node1&#45;&gt;Node3 -->
<g id="edge2" class="edge">
<title>Node1&#45;&gt;Node3</title>
<path fill="none" stroke="midnightblue" d="M118.77,-21.33C110.34,-19.99 101.58,-18.6 93.21,-17.27"/>
<polygon fill="midnightblue" stroke="midnightblue" points="118.44,-24.82 128.86,-22.94 119.53,-17.91 118.44,-24.82"/>
</g>
</g>
</svg>
