<?xml version="1.0" encoding="UTF-8" standalone="no"?>
<!DOCTYPE svg PUBLIC "-//W3C//DTD SVG 1.1//EN"
 "http://www.w3.org/Graphics/SVG/1.1/DTD/svg11.dtd">
<!-- Generated by graphviz version 2.43.0 (0)
 -->
<!-- Title: Game Pages: 1 -->
<svg width="232pt" height="435pt"
 viewBox="0.00 0.00 231.50 435.00" xmlns="http://www.w3.org/2000/svg" xmlns:xlink="http://www.w3.org/1999/xlink">
<g id="graph0" class="graph" transform="scale(1 1) rotate(0) translate(4 431)">
<title>Game</title>
<!-- Node1 -->
<g id="node1" class="node">
<title>Node1</title>
<g id="a_node1"><a xlink:title="Classe gérant la physique du jeu.">
<polygon fill="#bfbfbf" stroke="black" points="44.5,-0.5 44.5,-277.5 181.5,-277.5 181.5,-0.5 44.5,-0.5"/>
<text text-anchor="middle" x="113" y="-265.5" font-family="Helvetica,sans-Serif" font-size="10.00">Game</text>
<polyline fill="none" stroke="black" points="44.5,-258.5 181.5,-258.5 "/>
<text text-anchor="start" x="52.5" y="-246.5" font-family="Helvetica,sans-Serif" font-size="10.00">+ newEnemy</text>
<text text-anchor="start" x="52.5" y="-235.5" font-family="Helvetica,sans-Serif" font-size="10.00">+ newTower</text>
<text text-anchor="start" x="52.5" y="-224.5" font-family="Helvetica,sans-Serif" font-size="10.00">+ nbNewEnemy</text>
<text text-anchor="start" x="52.5" y="-213.5" font-family="Helvetica,sans-Serif" font-size="10.00">+ newProjectile1</text>
<text text-anchor="start" x="52.5" y="-202.5" font-family="Helvetica,sans-Serif" font-size="10.00">+ newProjectile2</text>
<text text-anchor="start" x="52.5" y="-191.5" font-family="Helvetica,sans-Serif" font-size="10.00">+ newProjectile3</text>
<text text-anchor="start" x="52.5" y="-180.5" font-family="Helvetica,sans-Serif" font-size="10.00">+ newProjectile4</text>
<text text-anchor="start" x="52.5" y="-169.5" font-family="Helvetica,sans-Serif" font-size="10.00">+ newProjectile5</text>
<text text-anchor="start" x="52.5" y="-158.5" font-family="Helvetica,sans-Serif" font-size="10.00">+ newProjectile6</text>
<text text-anchor="start" x="52.5" y="-147.5" font-family="Helvetica,sans-Serif" font-size="10.00">+ newProjectile7</text>
<text text-anchor="start" x="52.5" y="-136.5" font-family="Helvetica,sans-Serif" font-size="10.00">and 15 more...</text>
<polyline fill="none" stroke="black" points="44.5,-129.5 181.5,-129.5 "/>
<text text-anchor="start" x="52.5" y="-117.5" font-family="Helvetica,sans-Serif" font-size="10.00">+ Game()</text>
<text text-anchor="start" x="52.5" y="-106.5" font-family="Helvetica,sans-Serif" font-size="10.00">+ ~Game()</text>
<text text-anchor="start" x="52.5" y="-95.5" font-family="Helvetica,sans-Serif" font-size="10.00">+ coordTowersFonction()</text>
<text text-anchor="start" x="52.5" y="-84.5" font-family="Helvetica,sans-Serif" font-size="10.00">+ autoEvents()</text>
<text text-anchor="start" x="52.5" y="-73.5" font-family="Helvetica,sans-Serif" font-size="10.00">+ earnGold()</text>
<text text-anchor="start" x="52.5" y="-62.5" font-family="Helvetica,sans-Serif" font-size="10.00">+ addTowerArch()</text>
<text text-anchor="start" x="52.5" y="-51.5" font-family="Helvetica,sans-Serif" font-size="10.00">+ addTowerMagic()</text>
<text text-anchor="start" x="52.5" y="-40.5" font-family="Helvetica,sans-Serif" font-size="10.00">+ addTowerBomb()</text>
<text text-anchor="start" x="52.5" y="-29.5" font-family="Helvetica,sans-Serif" font-size="10.00">+ coordTower()</text>
<text text-anchor="start" x="52.5" y="-18.5" font-family="Helvetica,sans-Serif" font-size="10.00">+ getRessources()</text>
<text text-anchor="start" x="52.5" y="-7.5" font-family="Helvetica,sans-Serif" font-size="10.00">and 15 more...</text>
</a>
</g>
</g>
<!-- Node2 -->
<g id="node2" class="node">
<title>Node2</title>
<g id="a_node2"><a xlink:href="class_castle.html" target="_top" xlink:title=" ">
<polygon fill="none" stroke="black" points="0,-325.5 0,-426.5 106,-426.5 106,-325.5 0,-325.5"/>
<text text-anchor="middle" x="53" y="-414.5" font-family="Helvetica,sans-Serif" font-size="10.00">Castle</text>
<polyline fill="none" stroke="black" points="0,-407.5 106,-407.5 "/>
<text text-anchor="middle" x="53" y="-395.5" font-family="Helvetica,sans-Serif" font-size="10.00"> </text>
<polyline fill="none" stroke="black" points="0,-388.5 106,-388.5 "/>
<text text-anchor="start" x="8" y="-376.5" font-family="Helvetica,sans-Serif" font-size="10.00">+ Castle()</text>
<text text-anchor="start" x="8" y="-365.5" font-family="Helvetica,sans-Serif" font-size="10.00">+ ~Castle()</text>
<text text-anchor="start" x="8" y="-354.5" font-family="Helvetica,sans-Serif" font-size="10.00">+ getPV()</text>
<text text-anchor="start" x="8" y="-343.5" font-family="Helvetica,sans-Serif" font-size="10.00">+ setPV()</text>
<text text-anchor="start" x="8" y="-332.5" font-family="Helvetica,sans-Serif" font-size="10.00">+ damageCastle()</text>
</a>
</g>
</g>
<!-- Node2&#45;&gt;Node1 -->
<g id="edge1" class="edge">
<title>Node2&#45;&gt;Node1</title>
<path fill="none" stroke="#404040" d="M65.65,-325.45C68.44,-314.52 71.54,-302.4 74.77,-289.73"/>
<polygon fill="none" stroke="#404040" points="74.81,-289.6 72.41,-282.79 77.77,-277.97 80.17,-284.77 74.81,-289.6"/>
<text text-anchor="middle" x="93.5" y="-299" font-family="Helvetica,sans-Serif" font-size="10.00"> +castle</text>
</g>
<!-- Node3 -->
<g id="node3" class="node">
<title>Node3</title>
<g id="a_node3"><a xlink:href="class_ressources.html" target="_top" xlink:title=" ">
<polygon fill="none" stroke="black" points="124.5,-331 124.5,-421 223.5,-421 223.5,-331 124.5,-331"/>
<text text-anchor="middle" x="174" y="-409" font-family="Helvetica,sans-Serif" font-size="10.00">Ressources</text>
<polyline fill="none" stroke="black" points="124.5,-402 223.5,-402 "/>
<text text-anchor="middle" x="174" y="-390" font-family="Helvetica,sans-Serif" font-size="10.00"> </text>
<polyline fill="none" stroke="black" points="124.5,-383 223.5,-383 "/>
<text text-anchor="start" x="132.5" y="-371" font-family="Helvetica,sans-Serif" font-size="10.00">+ Ressources()</text>
<text text-anchor="start" x="132.5" y="-360" font-family="Helvetica,sans-Serif" font-size="10.00">+ ~Ressources()</text>
<text text-anchor="start" x="132.5" y="-349" font-family="Helvetica,sans-Serif" font-size="10.00">+ getGold()</text>
<text text-anchor="start" x="132.5" y="-338" font-family="Helvetica,sans-Serif" font-size="10.00">+ setGold()</text>
</a>
</g>
</g>
<!-- Node3&#45;&gt;Node1 -->
<g id="edge2" class="edge">
<title>Node3&#45;&gt;Node1</title>
<path fill="none" stroke="#404040" d="M162.53,-330.8C159.34,-318.52 155.69,-304.47 151.85,-289.68"/>
<polygon fill="none" stroke="#404040" points="151.75,-289.3 146.38,-284.5 148.74,-277.69 154.12,-282.49 151.75,-289.3"/>
<text text-anchor="middle" x="171.5" y="-299" font-family="Helvetica,sans-Serif" font-size="10.00"> +gold</text>
</g>
</g>
</svg>
