<?xml version="1.0" encoding="UTF-8" standalone="no"?>
<!DOCTYPE svg PUBLIC "-//W3C//DTD SVG 1.1//EN"
 "http://www.w3.org/Graphics/SVG/1.1/DTD/svg11.dtd">
<!-- Generated by graphviz version 2.43.0 (0)
 -->
<!-- Title: Enemy::regressionTest Pages: 1 -->
<svg width="285pt" height="408pt"
 viewBox="0.00 0.00 285.00 408.00" xmlns="http://www.w3.org/2000/svg" xmlns:xlink="http://www.w3.org/1999/xlink">
<g id="graph0" class="graph" transform="scale(1 1) rotate(0) translate(4 404)">
<title>Enemy::regressionTest</title>
<!-- Node1 -->
<g id="node1" class="node">
<title>Node1</title>
<g id="a_node1"><a xlink:title=" ">
<polygon fill="#bfbfbf" stroke="black" points="0,-190.5 0,-209.5 126,-209.5 126,-190.5 0,-190.5"/>
<text text-anchor="middle" x="63" y="-197.5" font-family="Helvetica,sans-Serif" font-size="10.00">Enemy::regressionTest</text>
</a>
</g>
</g>
<!-- Node2 -->
<g id="node2" class="node">
<title>Node2</title>
<g id="a_node2"><a xlink:href="class_enemy.html#a24e24858cebb59b909fa5d633fd24062" target="_top" xlink:title=" ">
<polygon fill="none" stroke="black" points="162,-380.5 162,-399.5 277,-399.5 277,-380.5 162,-380.5"/>
<text text-anchor="middle" x="219.5" y="-387.5" font-family="Helvetica,sans-Serif" font-size="10.00">Enemy::getIsArrived</text>
</a>
</g>
</g>
<!-- Node1&#45;&gt;Node2 -->
<g id="edge1" class="edge">
<title>Node1&#45;&gt;Node2</title>
<path fill="none" stroke="midnightblue" d="M66.85,-209.75C75.81,-238.73 106.2,-325.19 162,-371 164.14,-372.76 166.45,-374.35 168.87,-375.8"/>
<polygon fill="midnightblue" stroke="midnightblue" points="167.5,-379.04 178,-380.45 170.67,-372.8 167.5,-379.04"/>
</g>
<!-- Node3 -->
<g id="node3" class="node">
<title>Node3</title>
<g id="a_node3"><a xlink:href="class_entity.html#a4c3de4661a585b0bd42bd16ce9cc5002" target="_top" xlink:title="Accesseur renvoyant la valeur de la donnée membre &#39;isDead&#39; d&#39;un ennemi.">
<polygon fill="none" stroke="black" points="169.5,-342.5 169.5,-361.5 269.5,-361.5 269.5,-342.5 169.5,-342.5"/>
<text text-anchor="middle" x="219.5" y="-349.5" font-family="Helvetica,sans-Serif" font-size="10.00">Entity::getIsDead</text>
</a>
</g>
</g>
<!-- Node1&#45;&gt;Node3 -->
<g id="edge2" class="edge">
<title>Node1&#45;&gt;Node3</title>
<path fill="none" stroke="midnightblue" d="M68.46,-209.61C80.23,-233.91 114.49,-298.36 162,-333 164.63,-334.92 167.48,-336.66 170.43,-338.22"/>
<polygon fill="midnightblue" stroke="midnightblue" points="169.02,-341.43 179.56,-342.44 171.95,-335.07 169.02,-341.43"/>
</g>
<!-- Node4 -->
<g id="node4" class="node">
<title>Node4</title>
<g id="a_node4"><a xlink:href="class_entity.html#abc07607e9d85670694097ac4b6b6dd27" target="_top" xlink:title="Accesseur renvoyant la position en x d&#39;une entité">
<polygon fill="none" stroke="black" points="174.5,-304.5 174.5,-323.5 264.5,-323.5 264.5,-304.5 174.5,-304.5"/>
<text text-anchor="middle" x="219.5" y="-311.5" font-family="Helvetica,sans-Serif" font-size="10.00">Entity::getPosX</text>
</a>
</g>
</g>
<!-- Node1&#45;&gt;Node4 -->
<g id="edge3" class="edge">
<title>Node1&#45;&gt;Node4</title>
<path fill="none" stroke="midnightblue" d="M71.32,-209.52C86.33,-228.42 122.54,-270.96 162,-295 165.38,-297.06 169.02,-298.93 172.75,-300.62"/>
<polygon fill="midnightblue" stroke="midnightblue" points="171.58,-303.92 182.16,-304.45 174.22,-297.44 171.58,-303.92"/>
</g>
<!-- Node5 -->
<g id="node5" class="node">
<title>Node5</title>
<g id="a_node5"><a xlink:href="class_entity.html#adc3a7257facf71297850bc86b705b503" target="_top" xlink:title="Accesseur renvoyant la position en y d&#39;une entité">
<polygon fill="none" stroke="black" points="175,-266.5 175,-285.5 264,-285.5 264,-266.5 175,-266.5"/>
<text text-anchor="middle" x="219.5" y="-273.5" font-family="Helvetica,sans-Serif" font-size="10.00">Entity::getPosY</text>
</a>
</g>
</g>
<!-- Node1&#45;&gt;Node5 -->
<g id="edge4" class="edge">
<title>Node1&#45;&gt;Node5</title>
<path fill="none" stroke="midnightblue" d="M78.44,-209.66C97.14,-221.85 130.99,-242.94 162,-257 166.71,-259.14 171.73,-261.16 176.77,-263.04"/>
<polygon fill="midnightblue" stroke="midnightblue" points="175.79,-266.41 186.39,-266.46 178.14,-259.81 175.79,-266.41"/>
</g>
<!-- Node6 -->
<g id="node6" class="node">
<title>Node6</title>
<g id="a_node6"><a xlink:href="class_entity.html#a334b52f5de8bbd7fb81f8bbeec08992b" target="_top" xlink:title="Accesseur renvoyant les points de vie d&#39;un ennemi.">
<polygon fill="none" stroke="black" points="180,-228.5 180,-247.5 259,-247.5 259,-228.5 180,-228.5"/>
<text text-anchor="middle" x="219.5" y="-235.5" font-family="Helvetica,sans-Serif" font-size="10.00">Entity::getPV</text>
</a>
</g>
</g>
<!-- Node1&#45;&gt;Node6 -->
<g id="edge5" class="edge">
<title>Node1&#45;&gt;Node6</title>
<path fill="none" stroke="midnightblue" d="M102.99,-209.59C123.28,-214.58 148.29,-220.73 169.85,-226.03"/>
<polygon fill="midnightblue" stroke="midnightblue" points="169.25,-229.49 179.79,-228.48 170.92,-222.69 169.25,-229.49"/>
</g>
<!-- Node7 -->
<g id="node7" class="node">
<title>Node7</title>
<g id="a_node7"><a xlink:href="class_entity.html#a65f27075a95287e8c0f8f101498b3e84" target="_top" xlink:title="Accesseur renvoyant la vitesse d&#39;un ennemi.">
<polygon fill="none" stroke="black" points="171.5,-190.5 171.5,-209.5 267.5,-209.5 267.5,-190.5 171.5,-190.5"/>
<text text-anchor="middle" x="219.5" y="-197.5" font-family="Helvetica,sans-Serif" font-size="10.00">Entity::getSpeed</text>
</a>
</g>
</g>
<!-- Node1&#45;&gt;Node7 -->
<g id="edge6" class="edge">
<title>Node1&#45;&gt;Node7</title>
<path fill="none" stroke="midnightblue" d="M126.4,-200C137.81,-200 149.67,-200 160.94,-200"/>
<polygon fill="midnightblue" stroke="midnightblue" points="161.08,-203.5 171.08,-200 161.08,-196.5 161.08,-203.5"/>
</g>
<!-- Node8 -->
<g id="node8" class="node">
<title>Node8</title>
<g id="a_node8"><a xlink:href="class_enemy.html#aa43f1dedcced3cab663e25ab2c7d5b4a" target="_top" xlink:title=" ">
<polygon fill="none" stroke="black" points="162.5,-152.5 162.5,-171.5 276.5,-171.5 276.5,-152.5 162.5,-152.5"/>
<text text-anchor="middle" x="219.5" y="-159.5" font-family="Helvetica,sans-Serif" font-size="10.00">Enemy::setIsArrived</text>
</a>
</g>
</g>
<!-- Node1&#45;&gt;Node8 -->
<g id="edge7" class="edge">
<title>Node1&#45;&gt;Node8</title>
<path fill="none" stroke="midnightblue" d="M102.99,-190.41C123.28,-185.42 148.29,-179.27 169.85,-173.97"/>
<polygon fill="midnightblue" stroke="midnightblue" points="170.92,-177.31 179.79,-171.52 169.25,-170.51 170.92,-177.31"/>
</g>
<!-- Node9 -->
<g id="node9" class="node">
<title>Node9</title>
<g id="a_node9"><a xlink:href="class_entity.html#a048e30a0b851dc9073d5ec40396e38a4" target="_top" xlink:title="Accesseur modifiant la données membre &#39;isDead&#39; d&#39;un ennemi.">
<polygon fill="none" stroke="black" points="170,-114.5 170,-133.5 269,-133.5 269,-114.5 170,-114.5"/>
<text text-anchor="middle" x="219.5" y="-121.5" font-family="Helvetica,sans-Serif" font-size="10.00">Entity::setIsDead</text>
</a>
</g>
</g>
<!-- Node1&#45;&gt;Node9 -->
<g id="edge8" class="edge">
<title>Node1&#45;&gt;Node9</title>
<path fill="none" stroke="midnightblue" d="M78.44,-190.34C97.14,-178.15 130.99,-157.06 162,-143 166.71,-140.86 171.73,-138.84 176.77,-136.96"/>
<polygon fill="midnightblue" stroke="midnightblue" points="178.14,-140.19 186.39,-133.54 175.79,-133.59 178.14,-140.19"/>
</g>
<!-- Node10 -->
<g id="node10" class="node">
<title>Node10</title>
<g id="a_node10"><a xlink:href="class_entity.html#a5b37027cb419da8f2d08aae7b6da2938" target="_top" xlink:title="Accesseur modifiant la position en x et en y d&#39;un ennemi.">
<polygon fill="none" stroke="black" points="178,-76.5 178,-95.5 261,-95.5 261,-76.5 178,-76.5"/>
<text text-anchor="middle" x="219.5" y="-83.5" font-family="Helvetica,sans-Serif" font-size="10.00">Entity::setPos</text>
</a>
</g>
</g>
<!-- Node1&#45;&gt;Node10 -->
<g id="edge9" class="edge">
<title>Node1&#45;&gt;Node10</title>
<path fill="none" stroke="midnightblue" d="M71.32,-190.48C86.33,-171.58 122.54,-129.04 162,-105 165.38,-102.94 169.02,-101.07 172.75,-99.38"/>
<polygon fill="midnightblue" stroke="midnightblue" points="174.22,-102.56 182.16,-95.55 171.58,-96.08 174.22,-102.56"/>
</g>
<!-- Node11 -->
<g id="node11" class="node">
<title>Node11</title>
<g id="a_node11"><a xlink:href="class_entity.html#a2f1d8b793ec68f84a0adeb938ad57ee5" target="_top" xlink:title="Accesseur modifiant les points de vie d&#39;un ennemi.">
<polygon fill="none" stroke="black" points="180.5,-38.5 180.5,-57.5 258.5,-57.5 258.5,-38.5 180.5,-38.5"/>
<text text-anchor="middle" x="219.5" y="-45.5" font-family="Helvetica,sans-Serif" font-size="10.00">Entity::setPV</text>
</a>
</g>
</g>
<!-- Node1&#45;&gt;Node11 -->
<g id="edge10" class="edge">
<title>Node1&#45;&gt;Node11</title>
<path fill="none" stroke="midnightblue" d="M68.46,-190.39C80.23,-166.09 114.49,-101.64 162,-67 164.85,-64.92 167.93,-63.07 171.15,-61.4"/>
<polygon fill="midnightblue" stroke="midnightblue" points="172.77,-64.51 180.45,-57.21 169.89,-58.13 172.77,-64.51"/>
</g>
<!-- Node12 -->
<g id="node12" class="node">
<title>Node12</title>
<g id="a_node12"><a xlink:href="class_entity.html#adc48ea3a922e2705958bcb1f3066011b" target="_top" xlink:title="Accesseur modifiant la vitesse d&#39;un ennemi.">
<polygon fill="none" stroke="black" points="172,-0.5 172,-19.5 267,-19.5 267,-0.5 172,-0.5"/>
<text text-anchor="middle" x="219.5" y="-7.5" font-family="Helvetica,sans-Serif" font-size="10.00">Entity::setSpeed</text>
</a>
</g>
</g>
<!-- Node1&#45;&gt;Node12 -->
<g id="edge11" class="edge">
<title>Node1&#45;&gt;Node12</title>
<path fill="none" stroke="midnightblue" d="M66.85,-190.25C75.81,-161.27 106.2,-74.81 162,-29 164.14,-27.24 166.45,-25.65 168.87,-24.2"/>
<polygon fill="midnightblue" stroke="midnightblue" points="170.67,-27.2 178,-19.55 167.5,-20.96 170.67,-27.2"/>
</g>
</g>
</svg>
