<?xml version="1.0" encoding="UTF-8" standalone="no"?>
<!DOCTYPE svg PUBLIC "-//W3C//DTD SVG 1.1//EN"
 "http://www.w3.org/Graphics/SVG/1.1/DTD/svg11.dtd">
<!-- Generated by graphviz version 2.43.0 (0)
 -->
<!-- Title: Projectile::Projectile Pages: 1 -->
<svg width="276pt" height="180pt"
 viewBox="0.00 0.00 276.00 180.00" xmlns="http://www.w3.org/2000/svg" xmlns:xlink="http://www.w3.org/1999/xlink">
<g id="graph0" class="graph" transform="scale(1 1) rotate(0) translate(4 176)">
<title>Projectile::Projectile</title>
<!-- Node1 -->
<g id="node1" class="node">
<title>Node1</title>
<g id="a_node1"><a xlink:title="Constructeur par défaut de la classe Projectile.">
<polygon fill="#bfbfbf" stroke="black" points="0,-76.5 0,-95.5 114,-95.5 114,-76.5 0,-76.5"/>
<text text-anchor="middle" x="57" y="-83.5" font-family="Helvetica,sans-Serif" font-size="10.00">Projectile::Projectile</text>
</a>
</g>
</g>
<!-- Node2 -->
<g id="node2" class="node">
<title>Node2</title>
<g id="a_node2"><a xlink:href="class_entity.html#a632a853b65d0468f138bc35efc0d317b" target="_top" xlink:title="Accesseur renvoyant la position en x d&#39;un ennemi de type const.">
<polygon fill="none" stroke="black" points="150,-152.5 150,-171.5 268,-171.5 268,-152.5 150,-152.5"/>
<text text-anchor="middle" x="209" y="-159.5" font-family="Helvetica,sans-Serif" font-size="10.00">Entity::getConstPosX</text>
</a>
</g>
</g>
<!-- Node1&#45;&gt;Node2 -->
<g id="edge1" class="edge">
<title>Node1&#45;&gt;Node2</title>
<path fill="none" stroke="midnightblue" d="M71.15,-95.55C88.51,-107.83 120.36,-129.2 150,-143 154.68,-145.18 159.69,-147.22 164.72,-149.09"/>
<polygon fill="midnightblue" stroke="midnightblue" points="163.75,-152.46 174.35,-152.48 166.08,-145.86 163.75,-152.46"/>
</g>
<!-- Node3 -->
<g id="node3" class="node">
<title>Node3</title>
<g id="a_node3"><a xlink:href="class_entity.html#a280a384eddb9c7bfb96547adfbb8f515" target="_top" xlink:title="Accesseur renvoyant la position en y d&#39;un ennemi de type const.">
<polygon fill="none" stroke="black" points="150.5,-114.5 150.5,-133.5 267.5,-133.5 267.5,-114.5 150.5,-114.5"/>
<text text-anchor="middle" x="209" y="-121.5" font-family="Helvetica,sans-Serif" font-size="10.00">Entity::getConstPosY</text>
</a>
</g>
</g>
<!-- Node1&#45;&gt;Node3 -->
<g id="edge2" class="edge">
<title>Node1&#45;&gt;Node3</title>
<path fill="none" stroke="midnightblue" d="M95.85,-95.59C115.47,-100.56 139.62,-106.68 160.48,-111.96"/>
<polygon fill="midnightblue" stroke="midnightblue" points="159.87,-115.42 170.42,-114.48 161.59,-108.63 159.87,-115.42"/>
</g>
<!-- Node4 -->
<g id="node4" class="node">
<title>Node4</title>
<g id="a_node4"><a xlink:href="class_entity.html#a5b37027cb419da8f2d08aae7b6da2938" target="_top" xlink:title="Accesseur modifiant la position en x et en y d&#39;un ennemi.">
<polygon fill="none" stroke="black" points="167.5,-76.5 167.5,-95.5 250.5,-95.5 250.5,-76.5 167.5,-76.5"/>
<text text-anchor="middle" x="209" y="-83.5" font-family="Helvetica,sans-Serif" font-size="10.00">Entity::setPos</text>
</a>
</g>
</g>
<!-- Node1&#45;&gt;Node4 -->
<g id="edge3" class="edge">
<title>Node1&#45;&gt;Node4</title>
<path fill="none" stroke="midnightblue" d="M114.28,-86C128.33,-86 143.3,-86 157.07,-86"/>
<polygon fill="midnightblue" stroke="midnightblue" points="157.33,-89.5 167.33,-86 157.33,-82.5 157.33,-89.5"/>
</g>
<!-- Node5 -->
<g id="node5" class="node">
<title>Node5</title>
<g id="a_node5"><a xlink:href="class_entity.html#adc48ea3a922e2705958bcb1f3066011b" target="_top" xlink:title="Accesseur modifiant la vitesse d&#39;un ennemi.">
<polygon fill="none" stroke="black" points="161.5,-38.5 161.5,-57.5 256.5,-57.5 256.5,-38.5 161.5,-38.5"/>
<text text-anchor="middle" x="209" y="-45.5" font-family="Helvetica,sans-Serif" font-size="10.00">Entity::setSpeed</text>
</a>
</g>
</g>
<!-- Node1&#45;&gt;Node5 -->
<g id="edge4" class="edge">
<title>Node1&#45;&gt;Node5</title>
<path fill="none" stroke="midnightblue" d="M95.85,-76.41C115.47,-71.44 139.62,-65.32 160.48,-60.04"/>
<polygon fill="midnightblue" stroke="midnightblue" points="161.59,-63.37 170.42,-57.52 159.87,-56.58 161.59,-63.37"/>
</g>
<!-- Node6 -->
<g id="node6" class="node">
<title>Node6</title>
<g id="a_node6"><a xlink:href="class_projectile.html#ad8f541084dea689d7f2c8d6893c77129" target="_top" xlink:title="Accesseur modifiant la valeur de la donnée membre time.">
<polygon fill="none" stroke="black" points="155,-0.5 155,-19.5 263,-19.5 263,-0.5 155,-0.5"/>
<text text-anchor="middle" x="209" y="-7.5" font-family="Helvetica,sans-Serif" font-size="10.00">Projectile::setTime</text>
</a>
</g>
</g>
<!-- Node1&#45;&gt;Node6 -->
<g id="edge5" class="edge">
<title>Node1&#45;&gt;Node6</title>
<path fill="none" stroke="midnightblue" d="M71.15,-76.45C88.51,-64.17 120.36,-42.8 150,-29 154.68,-26.82 159.69,-24.78 164.72,-22.91"/>
<polygon fill="midnightblue" stroke="midnightblue" points="166.08,-26.14 174.35,-19.52 163.75,-19.54 166.08,-26.14"/>
</g>
</g>
</svg>
