<?xml version="1.0" encoding="UTF-8" standalone="no"?>
<!DOCTYPE svg PUBLIC "-//W3C//DTD SVG 1.1//EN"
 "http://www.w3.org/Graphics/SVG/1.1/DTD/svg11.dtd">
<!-- Generated by graphviz version 2.43.0 (0)
 -->
<!-- Title: Graphical Class Hierarchy Pages: 1 -->
<svg width="350pt" height="104pt"
 viewBox="0.00 0.00 350.00 104.00" xmlns="http://www.w3.org/2000/svg" xmlns:xlink="http://www.w3.org/1999/xlink">
<g id="graph0" class="graph" transform="scale(1 1) rotate(0) translate(4 100)">
<title>Graphical Class Hierarchy</title>
<!-- Node2 -->
<g id="node1" class="node">
<title>Node2</title>
<g id="a_node1"><a xlink:href="class_projectile.html" target="_top" xlink:title="Classe gérant les projectiles /!\ Hérite de la classe Entity /!.">
<polygon fill="none" stroke="black" points="0,-57.5 0,-76.5 62,-76.5 62,-57.5 0,-57.5"/>
<text text-anchor="middle" x="31" y="-64.5" font-family="Helvetica,sans-Serif" font-size="10.00">Projectile</text>
</a>
</g>
</g>
<!-- Node0 -->
<g id="node2" class="node">
<title>Node0</title>
<g id="a_node2"><a xlink:href="class_entity.html" target="_top" xlink:title="Classe gérant toutes les entités présentes dans le jeu (Ennemis, Tours, Projectiles,...">
<polygon fill="none" stroke="black" points="98,-57.5 98,-76.5 143,-76.5 143,-57.5 98,-57.5"/>
<text text-anchor="middle" x="120.5" y="-64.5" font-family="Helvetica,sans-Serif" font-size="10.00">Entity</text>
</a>
</g>
</g>
<!-- Node2&#45;&gt;Node0 -->
<g id="edge1" class="edge">
<title>Node2&#45;&gt;Node0</title>
<path fill="none" stroke="midnightblue" d="M72.3,-60.27C81.13,-60.17 90.14,-60.45 97.89,-61.09"/>
<polygon fill="midnightblue" stroke="midnightblue" points="72.01,-56.78 62.11,-60.55 72.21,-63.77 72.01,-56.78"/>
</g>
<!-- Node0&#45;&gt;Node2 -->
<g id="edge3" class="edge">
<title>Node0&#45;&gt;Node2</title>
<path fill="none" stroke="midnightblue" d="M87.74,-73.52C79.38,-73.85 70.39,-73.83 62.11,-73.45"/>
<polygon fill="midnightblue" stroke="midnightblue" points="88.12,-77 97.89,-72.91 87.7,-70.02 88.12,-77"/>
</g>
<!-- Node1 -->
<g id="node3" class="node">
<title>Node1</title>
<g id="a_node3"><a xlink:href="class_enemy.html" target="_top" xlink:title="Classe gérant les ennemis /!\ Hérite de la classe Entity /!.">
<polygon fill="none" stroke="black" points="179,-76.5 179,-95.5 229,-95.5 229,-76.5 179,-76.5"/>
<text text-anchor="middle" x="204" y="-83.5" font-family="Helvetica,sans-Serif" font-size="10.00">Enemy</text>
</a>
</g>
</g>
<!-- Node0&#45;&gt;Node1 -->
<g id="edge2" class="edge">
<title>Node0&#45;&gt;Node1</title>
<path fill="none" stroke="midnightblue" d="M153.31,-74.42C161.78,-76.39 170.81,-78.49 178.8,-80.36"/>
<polygon fill="midnightblue" stroke="midnightblue" points="153.87,-70.95 143.34,-72.09 152.28,-77.77 153.87,-70.95"/>
</g>
<!-- Node3 -->
<g id="node4" class="node">
<title>Node3</title>
<g id="a_node4"><a xlink:href="class_tower.html" target="_top" xlink:title=" ">
<polygon fill="none" stroke="black" points="181.5,-38.5 181.5,-57.5 226.5,-57.5 226.5,-38.5 181.5,-38.5"/>
<text text-anchor="middle" x="204" y="-45.5" font-family="Helvetica,sans-Serif" font-size="10.00">Tower</text>
</a>
</g>
</g>
<!-- Node0&#45;&gt;Node3 -->
<g id="edge4" class="edge">
<title>Node0&#45;&gt;Node3</title>
<path fill="none" stroke="midnightblue" d="M153.21,-59.61C162.64,-57.41 172.75,-55.05 181.38,-53.04"/>
<polygon fill="midnightblue" stroke="midnightblue" points="152.28,-56.23 143.34,-61.91 153.87,-63.05 152.28,-56.23"/>
</g>
<!-- Node4 -->
<g id="node5" class="node">
<title>Node4</title>
<g id="a_node5"><a xlink:href="class_tower_archer.html" target="_top" xlink:title="Classe gérant les tours d&#39;archer /!\ Hérite de la classe Entity /!.">
<polygon fill="none" stroke="black" points="265,-76.5 265,-95.5 342,-95.5 342,-76.5 265,-76.5"/>
<text text-anchor="middle" x="303.5" y="-83.5" font-family="Helvetica,sans-Serif" font-size="10.00">TowerArcher</text>
</a>
</g>
</g>
<!-- Node3&#45;&gt;Node4 -->
<g id="edge5" class="edge">
<title>Node3&#45;&gt;Node4</title>
<path fill="none" stroke="midnightblue" d="M236.03,-60.09C249.53,-65.36 265.14,-71.44 277.83,-76.38"/>
<polygon fill="midnightblue" stroke="midnightblue" points="237.23,-56.8 226.64,-56.43 234.68,-63.33 237.23,-56.8"/>
</g>
<!-- Node5 -->
<g id="node6" class="node">
<title>Node5</title>
<g id="a_node6"><a xlink:href="class_tower_bomb.html" target="_top" xlink:title="Classe gérant les tours d&#39;archer /!\ Hérite de la classe Entity /!.">
<polygon fill="none" stroke="black" points="266.5,-38.5 266.5,-57.5 340.5,-57.5 340.5,-38.5 266.5,-38.5"/>
<text text-anchor="middle" x="303.5" y="-45.5" font-family="Helvetica,sans-Serif" font-size="10.00">TowerBomb</text>
</a>
</g>
</g>
<!-- Node3&#45;&gt;Node5 -->
<g id="edge6" class="edge">
<title>Node3&#45;&gt;Node5</title>
<path fill="none" stroke="midnightblue" d="M236.8,-48C246.25,-48 256.67,-48 266.37,-48"/>
<polygon fill="midnightblue" stroke="midnightblue" points="236.64,-44.5 226.64,-48 236.64,-51.5 236.64,-44.5"/>
</g>
<!-- Node6 -->
<g id="node7" class="node">
<title>Node6</title>
<g id="a_node7"><a xlink:href="class_tower_magic.html" target="_top" xlink:title="Classe gérant les tours d&#39;archer /!\ Hérite de la classe Entity /!.">
<polygon fill="none" stroke="black" points="266.5,-0.5 266.5,-19.5 340.5,-19.5 340.5,-0.5 266.5,-0.5"/>
<text text-anchor="middle" x="303.5" y="-7.5" font-family="Helvetica,sans-Serif" font-size="10.00">TowerMagic</text>
</a>
</g>
</g>
<!-- Node3&#45;&gt;Node6 -->
<g id="edge7" class="edge">
<title>Node3&#45;&gt;Node6</title>
<path fill="none" stroke="midnightblue" d="M236.03,-35.91C249.53,-30.64 265.14,-24.56 277.83,-19.62"/>
<polygon fill="midnightblue" stroke="midnightblue" points="234.68,-32.67 226.64,-39.57 237.23,-39.2 234.68,-32.67"/>
</g>
</g>
</svg>
