<?xml version="1.0" encoding="UTF-8" standalone="no"?>
<!DOCTYPE svg PUBLIC "-//W3C//DTD SVG 1.1//EN"
 "http://www.w3.org/Graphics/SVG/1.1/DTD/svg11.dtd">
<!-- Generated by graphviz version 2.43.0 (0)
 -->
<!-- Title: Graphical Class Hierarchy Pages: 1 -->
<svg width="166pt" height="256pt"
 viewBox="0.00 0.00 166.00 256.00" xmlns="http://www.w3.org/2000/svg" xmlns:xlink="http://www.w3.org/1999/xlink">
<g id="graph0" class="graph" transform="scale(1 1) rotate(0) translate(4 252)">
<title>Graphical Class Hierarchy</title>
<!-- Node0 -->
<g id="node1" class="node">
<title>Node0</title>
<g id="a_node1"><a xlink:href="class_entity.html" target="_top" xlink:title="Classe gérant toutes les entités présentes dans le jeu (Ennemis, Tours, Projectiles,...">
<polygon fill="none" stroke="black" points="0,-114.5 0,-133.5 45,-133.5 45,-114.5 0,-114.5"/>
<text text-anchor="middle" x="22.5" y="-121.5" font-family="Helvetica,sans-Serif" font-size="10.00">Entity</text>
</a>
</g>
</g>
<!-- Node1 -->
<g id="node2" class="node">
<title>Node1</title>
<g id="a_node2"><a xlink:href="class_castle.html" target="_top" xlink:title=" ">
<polygon fill="none" stroke="black" points="96,-228.5 96,-247.5 143,-247.5 143,-228.5 96,-228.5"/>
<text text-anchor="middle" x="119.5" y="-235.5" font-family="Helvetica,sans-Serif" font-size="10.00">Castle</text>
</a>
</g>
</g>
<!-- Node0&#45;&gt;Node1 -->
<g id="edge1" class="edge">
<title>Node0&#45;&gt;Node1</title>
<path fill="none" stroke="midnightblue" d="M31.13,-142.91C40.33,-163.77 57.54,-197.24 81,-219 85.28,-222.97 90.55,-226.31 95.77,-229.04"/>
<polygon fill="midnightblue" stroke="midnightblue" points="34.28,-141.39 27.16,-133.54 27.84,-144.12 34.28,-141.39"/>
</g>
<!-- Node2 -->
<g id="node3" class="node">
<title>Node2</title>
<g id="a_node3"><a xlink:href="class_enemy.html" target="_top" xlink:title="Classe gérant les ennemis /!\ Hérite de la classe Entity /!.">
<polygon fill="none" stroke="black" points="94.5,-190.5 94.5,-209.5 144.5,-209.5 144.5,-190.5 94.5,-190.5"/>
<text text-anchor="middle" x="119.5" y="-197.5" font-family="Helvetica,sans-Serif" font-size="10.00">Enemy</text>
</a>
</g>
</g>
<!-- Node0&#45;&gt;Node2 -->
<g id="edge2" class="edge">
<title>Node0&#45;&gt;Node2</title>
<path fill="none" stroke="midnightblue" d="M38.45,-141.48C49.4,-153.58 65.07,-169.51 81,-181 85.85,-184.5 91.45,-187.71 96.8,-190.45"/>
<polygon fill="midnightblue" stroke="midnightblue" points="40.92,-138.99 31.68,-133.81 35.68,-143.63 40.92,-138.99"/>
</g>
<!-- Node3 -->
<g id="node4" class="node">
<title>Node3</title>
<g id="a_node4"><a xlink:href="class_projectile.html" target="_top" xlink:title="Classe gérant les projectiles /!\ Hérite de la classe Entity /!.">
<polygon fill="none" stroke="black" points="88.5,-152.5 88.5,-171.5 150.5,-171.5 150.5,-152.5 88.5,-152.5"/>
<text text-anchor="middle" x="119.5" y="-159.5" font-family="Helvetica,sans-Serif" font-size="10.00">Projectile</text>
</a>
</g>
</g>
<!-- Node0&#45;&gt;Node3 -->
<g id="edge3" class="edge">
<title>Node0&#45;&gt;Node3</title>
<path fill="none" stroke="midnightblue" d="M54.59,-136.43C67.63,-141.65 82.55,-147.62 94.69,-152.48"/>
<polygon fill="midnightblue" stroke="midnightblue" points="55.64,-133.09 45.06,-132.62 53.04,-139.59 55.64,-133.09"/>
</g>
<!-- Node4 -->
<g id="node5" class="node">
<title>Node4</title>
<g id="a_node5"><a xlink:href="class_tower.html" target="_top" xlink:title=" ">
<polygon fill="none" stroke="black" points="97,-114.5 97,-133.5 142,-133.5 142,-114.5 97,-114.5"/>
<text text-anchor="middle" x="119.5" y="-121.5" font-family="Helvetica,sans-Serif" font-size="10.00">Tower</text>
</a>
</g>
</g>
<!-- Node0&#45;&gt;Node4 -->
<g id="edge4" class="edge">
<title>Node0&#45;&gt;Node4</title>
<path fill="none" stroke="midnightblue" d="M55.43,-124C69,-124 84.47,-124 96.7,-124"/>
<polygon fill="midnightblue" stroke="midnightblue" points="55.06,-120.5 45.06,-124 55.06,-127.5 55.06,-120.5"/>
</g>
<!-- Node5 -->
<g id="node6" class="node">
<title>Node5</title>
<g id="a_node6"><a xlink:href="class_tower_archer.html" target="_top" xlink:title="Classe gérant les tours d&#39;archer /!\ Hérite de la classe Entity /!.">
<polygon fill="none" stroke="black" points="81,-76.5 81,-95.5 158,-95.5 158,-76.5 81,-76.5"/>
<text text-anchor="middle" x="119.5" y="-83.5" font-family="Helvetica,sans-Serif" font-size="10.00">TowerArcher</text>
</a>
</g>
</g>
<!-- Node0&#45;&gt;Node5 -->
<g id="edge5" class="edge">
<title>Node0&#45;&gt;Node5</title>
<path fill="none" stroke="midnightblue" d="M54.59,-111.57C67.63,-106.35 82.55,-100.38 94.69,-95.52"/>
<polygon fill="midnightblue" stroke="midnightblue" points="53.04,-108.41 45.06,-115.38 55.64,-114.91 53.04,-108.41"/>
</g>
<!-- Node6 -->
<g id="node7" class="node">
<title>Node6</title>
<g id="a_node7"><a xlink:href="class_tower_bomb.html" target="_top" xlink:title=" ">
<polygon fill="none" stroke="black" points="82.5,-38.5 82.5,-57.5 156.5,-57.5 156.5,-38.5 82.5,-38.5"/>
<text text-anchor="middle" x="119.5" y="-45.5" font-family="Helvetica,sans-Serif" font-size="10.00">TowerBomb</text>
</a>
</g>
</g>
<!-- Node0&#45;&gt;Node6 -->
<g id="edge6" class="edge">
<title>Node0&#45;&gt;Node6</title>
<path fill="none" stroke="midnightblue" d="M38.45,-106.52C49.4,-94.42 65.07,-78.49 81,-67 85.85,-63.5 91.45,-60.29 96.8,-57.55"/>
<polygon fill="midnightblue" stroke="midnightblue" points="35.68,-104.37 31.68,-114.19 40.92,-109.01 35.68,-104.37"/>
</g>
<!-- Node7 -->
<g id="node8" class="node">
<title>Node7</title>
<g id="a_node8"><a xlink:href="class_tower_magic.html" target="_top" xlink:title=" ">
<polygon fill="none" stroke="black" points="82.5,-0.5 82.5,-19.5 156.5,-19.5 156.5,-0.5 82.5,-0.5"/>
<text text-anchor="middle" x="119.5" y="-7.5" font-family="Helvetica,sans-Serif" font-size="10.00">TowerMagic</text>
</a>
</g>
</g>
<!-- Node0&#45;&gt;Node7 -->
<g id="edge7" class="edge">
<title>Node0&#45;&gt;Node7</title>
<path fill="none" stroke="midnightblue" d="M31.13,-105.09C40.33,-84.23 57.54,-50.76 81,-29 84.96,-25.33 89.76,-22.19 94.59,-19.59"/>
<polygon fill="midnightblue" stroke="midnightblue" points="27.84,-103.88 27.16,-114.46 34.28,-106.61 27.84,-103.88"/>
</g>
</g>
</svg>
