<?xml version="1.0" encoding="UTF-8" standalone="no"?>
<!DOCTYPE svg PUBLIC "-//W3C//DTD SVG 1.1//EN"
 "http://www.w3.org/Graphics/SVG/1.1/DTD/svg11.dtd">
<!-- Generated by graphviz version 2.43.0 (0)
 -->
<!-- Title: main Pages: 1 -->
<svg width="874pt" height="1244pt"
 viewBox="0.00 0.00 874.00 1244.00" xmlns="http://www.w3.org/2000/svg" xmlns:xlink="http://www.w3.org/1999/xlink">
<g id="graph0" class="graph" transform="scale(1 1) rotate(0) translate(4 1240)">
<title>main</title>
<!-- Node1 -->
<g id="node1" class="node">
<title>Node1</title>
<g id="a_node1"><a xlink:title=" ">
<polygon fill="#bfbfbf" stroke="black" points="0,-494.5 0,-513.5 41,-513.5 41,-494.5 0,-494.5"/>
<text text-anchor="middle" x="20.5" y="-501.5" font-family="Helvetica,sans-Serif" font-size="10.00">main</text>
</a>
</g>
</g>
<!-- Node2 -->
<g id="node2" class="node">
<title>Node2</title>
<g id="a_node2"><a xlink:href="class_window_t_x_t.html#a83ebb5f49e60aa4ad260a1f34a412a8f" target="_top" xlink:title=" ">
<polygon fill="none" stroke="black" points="77,-513.5 77,-532.5 205,-532.5 205,-513.5 77,-513.5"/>
<text text-anchor="middle" x="141" y="-520.5" font-family="Helvetica,sans-Serif" font-size="10.00">WindowTXT::termClear</text>
</a>
</g>
</g>
<!-- Node1&#45;&gt;Node2 -->
<g id="edge1" class="edge">
<title>Node1&#45;&gt;Node2</title>
<path fill="none" stroke="midnightblue" d="M41.07,-507.14C49.47,-508.49 59.85,-510.15 70.69,-511.89"/>
<polygon fill="midnightblue" stroke="midnightblue" points="70.3,-515.37 80.73,-513.5 71.41,-508.46 70.3,-515.37"/>
</g>
<!-- Node3 -->
<g id="node3" class="node">
<title>Node3</title>
<g id="a_node3"><a xlink:href="_game_t_x_t_8cpp.html#aa8f70cd3510ceae6f2dd1bd542fcaabd" target="_top" xlink:title=" ">
<polygon fill="none" stroke="black" points="114.5,-475.5 114.5,-494.5 167.5,-494.5 167.5,-475.5 114.5,-475.5"/>
<text text-anchor="middle" x="141" y="-482.5" font-family="Helvetica,sans-Serif" font-size="10.00">txtLoop</text>
</a>
</g>
</g>
<!-- Node1&#45;&gt;Node3 -->
<g id="edge2" class="edge">
<title>Node1&#45;&gt;Node3</title>
<path fill="none" stroke="midnightblue" d="M41.07,-500.86C58.16,-498.12 83.42,-494.07 104.13,-490.75"/>
<polygon fill="midnightblue" stroke="midnightblue" points="104.86,-494.18 114.18,-489.14 103.75,-487.27 104.86,-494.18"/>
</g>
<!-- Node4 -->
<g id="node4" class="node">
<title>Node4</title>
<g id="a_node4"><a xlink:href="class_game.html#acd26cbdfb8fa7cec1832711e618fec45" target="_top" xlink:title=" ">
<polygon fill="none" stroke="black" points="241.5,-722.5 241.5,-741.5 348.5,-741.5 348.5,-722.5 241.5,-722.5"/>
<text text-anchor="middle" x="295" y="-729.5" font-family="Helvetica,sans-Serif" font-size="10.00">Game::autoEvents</text>
</a>
</g>
</g>
<!-- Node3&#45;&gt;Node4 -->
<g id="edge3" class="edge">
<title>Node3&#45;&gt;Node4</title>
<path fill="none" stroke="midnightblue" d="M167.79,-486.55C180.76,-488.7 195.67,-493.49 205,-504 266.14,-572.83 184.54,-635.27 241,-708 243.83,-711.64 247.34,-714.75 251.19,-717.4"/>
<polygon fill="midnightblue" stroke="midnightblue" points="249.63,-720.54 260.04,-722.49 253.12,-714.47 249.63,-720.54"/>
</g>
<!-- Node24 -->
<g id="node24" class="node">
<title>Node24</title>
<g id="a_node24"><a xlink:href="class_map.html#a421954a09241f064e551c84f6f044744" target="_top" xlink:title="Renvoie la largeur du terrain.">
<polygon fill="none" stroke="black" points="598,-646.5 598,-665.5 684,-665.5 684,-646.5 598,-646.5"/>
<text text-anchor="middle" x="641" y="-653.5" font-family="Helvetica,sans-Serif" font-size="10.00">Map::getDimX</text>
</a>
</g>
</g>
<!-- Node3&#45;&gt;Node24 -->
<g id="edge34" class="edge">
<title>Node3&#45;&gt;Node24</title>
<path fill="none" stroke="midnightblue" d="M167.53,-489.45C179.54,-492.33 193.67,-496.91 205,-504 225,-516.51 224.29,-526.35 241,-543 302.5,-604.28 304.09,-643.53 385,-675 449.2,-699.97 471.41,-681.46 540,-675 556.16,-673.48 573.61,-670.6 589.33,-667.54"/>
<polygon fill="midnightblue" stroke="midnightblue" points="590.27,-670.92 599.38,-665.51 588.88,-664.06 590.27,-670.92"/>
</g>
<!-- Node26 -->
<g id="node26" class="node">
<title>Node26</title>
<g id="a_node26"><a xlink:href="class_window_t_x_t.html#a05997a70b080e106a15520a52d82fd2c" target="_top" xlink:title=" ">
<polygon fill="none" stroke="black" points="241,-86.5 241,-105.5 349,-105.5 349,-86.5 241,-86.5"/>
<text text-anchor="middle" x="295" y="-93.5" font-family="Helvetica,sans-Serif" font-size="10.00">WindowTXT::getCh</text>
</a>
</g>
</g>
<!-- Node3&#45;&gt;Node26 -->
<g id="edge31" class="edge">
<title>Node3&#45;&gt;Node26</title>
<path fill="none" stroke="midnightblue" d="M144.37,-475.42C153.91,-437.63 191.29,-295.55 241,-186 252.76,-160.09 270.02,-132.12 281.62,-114.36"/>
<polygon fill="midnightblue" stroke="midnightblue" points="284.8,-115.89 287.4,-105.62 278.96,-112.02 284.8,-115.89"/>
</g>
<!-- Node28 -->
<g id="node28" class="node">
<title>Node28</title>
<g id="a_node28"><a xlink:href="class_game.html#a74dda151003b81807c663d07eda2c657" target="_top" xlink:title=" ">
<polygon fill="none" stroke="black" points="404.5,-570.5 404.5,-589.5 520.5,-589.5 520.5,-570.5 404.5,-570.5"/>
<text text-anchor="middle" x="462.5" y="-577.5" font-family="Helvetica,sans-Serif" font-size="10.00">Game::getConstMap</text>
</a>
</g>
</g>
<!-- Node3&#45;&gt;Node28 -->
<g id="edge33" class="edge">
<title>Node3&#45;&gt;Node28</title>
<path fill="none" stroke="midnightblue" d="M167.61,-492.61C222.54,-508.95 352.15,-547.48 419.39,-567.48"/>
<polygon fill="midnightblue" stroke="midnightblue" points="418.65,-570.91 429.23,-570.4 420.64,-564.2 418.65,-570.91"/>
</g>
<!-- Node29 -->
<g id="node29" class="node">
<title>Node29</title>
<g id="a_node29"><a xlink:href="class_map.html#a1de1775f4a648f64d2310763dc10affe" target="_top" xlink:title="Renvoie la hauteur du terrain.">
<polygon fill="none" stroke="black" points="419.5,-38.5 419.5,-57.5 505.5,-57.5 505.5,-38.5 419.5,-38.5"/>
<text text-anchor="middle" x="462.5" y="-45.5" font-family="Helvetica,sans-Serif" font-size="10.00">Map::getDimY</text>
</a>
</g>
</g>
<!-- Node3&#45;&gt;Node29 -->
<g id="edge35" class="edge">
<title>Node3&#45;&gt;Node29</title>
<path fill="none" stroke="midnightblue" d="M147.27,-475.45C180.98,-414.47 365.49,-81.64 385,-67 392.16,-61.63 400.65,-57.76 409.33,-54.98"/>
<polygon fill="midnightblue" stroke="midnightblue" points="410.43,-58.31 419.14,-52.28 408.57,-51.56 410.43,-58.31"/>
</g>
<!-- Node30 -->
<g id="node30" class="node">
<title>Node30</title>
<g id="a_node30"><a xlink:href="_game_t_x_t_8cpp.html#a79f96f754efd066587bec9a3d0d0add7" target="_top" xlink:title=" ">
<polygon fill="none" stroke="black" points="267,-361.5 267,-380.5 323,-380.5 323,-361.5 267,-361.5"/>
<text text-anchor="middle" x="295" y="-368.5" font-family="Helvetica,sans-Serif" font-size="10.00">txtShow</text>
</a>
</g>
</g>
<!-- Node3&#45;&gt;Node30 -->
<g id="edge36" class="edge">
<title>Node3&#45;&gt;Node30</title>
<path fill="none" stroke="midnightblue" d="M154.7,-475.48C180.79,-455.91 240.65,-411.01 272.75,-386.94"/>
<polygon fill="midnightblue" stroke="midnightblue" points="275.12,-389.54 281.02,-380.74 270.92,-383.94 275.12,-389.54"/>
</g>
<!-- Node5 -->
<g id="node5" class="node">
<title>Node5</title>
<g id="a_node5"><a xlink:href="class_projectile.html#a62f3ecf85f4a26de65c5e0e333181ed1" target="_top" xlink:title=" ">
<polygon fill="none" stroke="black" points="408.5,-722.5 408.5,-741.5 516.5,-741.5 516.5,-722.5 408.5,-722.5"/>
<text text-anchor="middle" x="462.5" y="-729.5" font-family="Helvetica,sans-Serif" font-size="10.00">Projectile::inRange</text>
</a>
</g>
</g>
<!-- Node4&#45;&gt;Node5 -->
<g id="edge4" class="edge">
<title>Node4&#45;&gt;Node5</title>
<path fill="none" stroke="midnightblue" d="M348.82,-732C364.57,-732 381.98,-732 398.32,-732"/>
<polygon fill="midnightblue" stroke="midnightblue" points="398.33,-735.5 408.33,-732 398.33,-728.5 398.33,-735.5"/>
</g>
<!-- Node10 -->
<g id="node10" class="node">
<title>Node10</title>
<g id="a_node10"><a xlink:href="class_enemy.html#a038e636d16b708f92627348a36750702" target="_top" xlink:title=" ">
<polygon fill="none" stroke="black" points="418,-608.5 418,-627.5 507,-627.5 507,-608.5 418,-608.5"/>
<text text-anchor="middle" x="462.5" y="-615.5" font-family="Helvetica,sans-Serif" font-size="10.00">Enemy::isDead</text>
</a>
</g>
</g>
<!-- Node4&#45;&gt;Node10 -->
<g id="edge9" class="edge">
<title>Node4&#45;&gt;Node10</title>
<path fill="none" stroke="midnightblue" d="M302.08,-722.49C314.92,-703.2 346.8,-659.42 385,-637 392.05,-632.86 399.97,-629.62 407.98,-627.09"/>
<polygon fill="midnightblue" stroke="midnightblue" points="409.06,-630.42 417.73,-624.33 407.15,-623.68 409.06,-630.42"/>
</g>
<!-- Node11 -->
<g id="node11" class="node">
<title>Node11</title>
<g id="a_node11"><a xlink:href="class_projectile.html#a58142be6b80e4faff2b037b170ff005c" target="_top" xlink:title=" ">
<polygon fill="none" stroke="black" points="404.5,-646.5 404.5,-665.5 520.5,-665.5 520.5,-646.5 404.5,-646.5"/>
<text text-anchor="middle" x="462.5" y="-653.5" font-family="Helvetica,sans-Serif" font-size="10.00">Projectile::isInRange</text>
</a>
</g>
</g>
<!-- Node4&#45;&gt;Node11 -->
<g id="edge10" class="edge">
<title>Node4&#45;&gt;Node11</title>
<path fill="none" stroke="midnightblue" d="M316.96,-722.37C345.94,-709.07 398.39,-684.98 431.51,-669.77"/>
<polygon fill="midnightblue" stroke="midnightblue" points="433.08,-672.9 440.71,-665.55 430.16,-666.54 433.08,-672.9"/>
</g>
<!-- Node12 -->
<g id="node12" class="node">
<title>Node12</title>
<g id="a_node12"><a xlink:href="class_projectile.html#adfc163f4a625fc293f8f67fd0eb49761" target="_top" xlink:title=" ">
<polygon fill="none" stroke="black" points="416,-988.5 416,-1007.5 509,-1007.5 509,-988.5 416,-988.5"/>
<text text-anchor="middle" x="462.5" y="-995.5" font-family="Helvetica,sans-Serif" font-size="10.00">Projectile::track</text>
</a>
</g>
</g>
<!-- Node4&#45;&gt;Node12 -->
<g id="edge11" class="edge">
<title>Node4&#45;&gt;Node12</title>
<path fill="none" stroke="midnightblue" d="M302.09,-741.78C326.52,-781.06 417.72,-927.64 450.05,-979.6"/>
<polygon fill="midnightblue" stroke="midnightblue" points="447.28,-981.77 455.53,-988.41 453.22,-978.07 447.28,-981.77"/>
</g>
<!-- Node23 -->
<g id="node23" class="node">
<title>Node23</title>
<g id="a_node23"><a xlink:href="class_enemy.html#a056522bafce43c9a33c623f659a20270" target="_top" xlink:title=" ">
<polygon fill="none" stroke="black" points="423,-760.5 423,-779.5 502,-779.5 502,-760.5 423,-760.5"/>
<text text-anchor="middle" x="462.5" y="-767.5" font-family="Helvetica,sans-Serif" font-size="10.00">Enemy::walk</text>
</a>
</g>
</g>
<!-- Node4&#45;&gt;Node23 -->
<g id="edge28" class="edge">
<title>Node4&#45;&gt;Node23</title>
<path fill="none" stroke="midnightblue" d="M337.76,-741.59C360.64,-746.84 389.1,-753.38 412.96,-758.85"/>
<polygon fill="midnightblue" stroke="midnightblue" points="412.34,-762.3 422.87,-761.13 413.91,-755.48 412.34,-762.3"/>
</g>
<!-- Node6 -->
<g id="node6" class="node">
<title>Node6</title>
<g id="a_node6"><a xlink:href="class_projectile.html#aa878bcc1843c911447425d7618b8f9de" target="_top" xlink:title=" ">
<polygon fill="none" stroke="black" points="586,-684.5 586,-703.5 696,-703.5 696,-684.5 586,-684.5"/>
<text text-anchor="middle" x="641" y="-691.5" font-family="Helvetica,sans-Serif" font-size="10.00">Projectile::distance</text>
</a>
</g>
</g>
<!-- Node5&#45;&gt;Node6 -->
<g id="edge5" class="edge">
<title>Node5&#45;&gt;Node6</title>
<path fill="none" stroke="midnightblue" d="M508.04,-722.41C531.64,-717.33 560.83,-711.04 585.75,-705.68"/>
<polygon fill="midnightblue" stroke="midnightblue" points="586.74,-709.05 595.78,-703.52 585.27,-702.2 586.74,-709.05"/>
</g>
<!-- Node9 -->
<g id="node9" class="node">
<title>Node9</title>
<g id="a_node9"><a xlink:href="class_tower_archer.html#a11681126df7f8db3dc7767f86c6fc668" target="_top" xlink:title=" ">
<polygon fill="none" stroke="black" points="576.5,-722.5 576.5,-741.5 705.5,-741.5 705.5,-722.5 576.5,-722.5"/>
<text text-anchor="middle" x="641" y="-729.5" font-family="Helvetica,sans-Serif" font-size="10.00">TowerArcher::getRange</text>
</a>
</g>
</g>
<!-- Node5&#45;&gt;Node9 -->
<g id="edge8" class="edge">
<title>Node5&#45;&gt;Node9</title>
<path fill="none" stroke="midnightblue" d="M516.93,-732C532.48,-732 549.74,-732 566.3,-732"/>
<polygon fill="midnightblue" stroke="midnightblue" points="566.49,-735.5 576.49,-732 566.49,-728.5 566.49,-735.5"/>
</g>
<!-- Node7 -->
<g id="node7" class="node">
<title>Node7</title>
<g id="a_node7"><a xlink:href="class_entity.html#a758caa46a2a259ffc63d09616def9423" target="_top" xlink:title="Fonction retournant la position en x de l&#39;entité en const.">
<polygon fill="none" stroke="black" points="745,-817.5 745,-836.5 863,-836.5 863,-817.5 745,-817.5"/>
<text text-anchor="middle" x="804" y="-824.5" font-family="Helvetica,sans-Serif" font-size="10.00">Entity::getConstPosX</text>
</a>
</g>
</g>
<!-- Node6&#45;&gt;Node7 -->
<g id="edge6" class="edge">
<title>Node6&#45;&gt;Node7</title>
<path fill="none" stroke="midnightblue" d="M687.36,-703.55C693.93,-706.02 700.37,-709.12 706,-713 727.67,-727.92 725.13,-739.81 742,-760 756.53,-777.39 774.03,-796.43 786.55,-809.76"/>
<polygon fill="midnightblue" stroke="midnightblue" points="784.22,-812.38 793.64,-817.25 789.31,-807.58 784.22,-812.38"/>
</g>
<!-- Node8 -->
<g id="node8" class="node">
<title>Node8</title>
<g id="a_node8"><a xlink:href="class_entity.html#a44db7a4bd777f13d5316ca9151dffad7" target="_top" xlink:title="Fonction retournant la position en y de l&#39;entité en const.">
<polygon fill="none" stroke="black" points="745.5,-731.5 745.5,-750.5 862.5,-750.5 862.5,-731.5 745.5,-731.5"/>
<text text-anchor="middle" x="804" y="-738.5" font-family="Helvetica,sans-Serif" font-size="10.00">Entity::getConstPosY</text>
</a>
</g>
</g>
<!-- Node6&#45;&gt;Node8 -->
<g id="edge7" class="edge">
<title>Node6&#45;&gt;Node8</title>
<path fill="none" stroke="midnightblue" d="M674.58,-703.51C699.27,-710.72 733.41,-720.68 760.28,-728.53"/>
<polygon fill="midnightblue" stroke="midnightblue" points="759.61,-731.98 770.19,-731.42 761.57,-725.26 759.61,-731.98"/>
</g>
<!-- Node12&#45;&gt;Node7 -->
<g id="edge18" class="edge">
<title>Node12&#45;&gt;Node7</title>
<path fill="none" stroke="midnightblue" d="M480.2,-988.3C501.78,-976.07 540.78,-954.93 576,-941 631.98,-918.86 652.45,-930.5 706,-903 736.86,-887.15 767.55,-860.88 785.9,-843.76"/>
<polygon fill="midnightblue" stroke="midnightblue" points="788.58,-846.03 793.41,-836.6 783.76,-840.96 788.58,-846.03"/>
</g>
<!-- Node12&#45;&gt;Node8 -->
<g id="edge19" class="edge">
<title>Node12&#45;&gt;Node8</title>
<path fill="none" stroke="midnightblue" d="M467.12,-988.14C478.38,-958.84 515.71,-871.58 576,-827 624.4,-791.21 649.92,-810.88 706,-789 730.71,-779.36 757.66,-765.76 776.87,-755.49"/>
<polygon fill="midnightblue" stroke="midnightblue" points="778.76,-758.45 785.89,-750.61 775.43,-752.29 778.76,-758.45"/>
</g>
<!-- Node13 -->
<g id="node13" class="node">
<title>Node13</title>
<g id="a_node13"><a xlink:href="class_projectile.html#ae5645549de0ef4e2defdb3edd9fc57f0" target="_top" xlink:title=" ">
<polygon fill="none" stroke="black" points="582,-1140.5 582,-1159.5 700,-1159.5 700,-1140.5 582,-1140.5"/>
<text text-anchor="middle" x="641" y="-1147.5" font-family="Helvetica,sans-Serif" font-size="10.00">Projectile::directionX</text>
</a>
</g>
</g>
<!-- Node12&#45;&gt;Node13 -->
<g id="edge12" class="edge">
<title>Node12&#45;&gt;Node13</title>
<path fill="none" stroke="midnightblue" d="M468.94,-1007.7C483.18,-1032.2 524.1,-1097.09 576,-1131 579.14,-1133.05 582.52,-1134.89 586.01,-1136.54"/>
<polygon fill="midnightblue" stroke="midnightblue" points="584.89,-1139.86 595.47,-1140.45 587.57,-1133.39 584.89,-1139.86"/>
</g>
<!-- Node14 -->
<g id="node14" class="node">
<title>Node14</title>
<g id="a_node14"><a xlink:href="class_entity.html#a8e30cf9734be5d2037517b59d11ff412" target="_top" xlink:title="Fonction retournant la vitesse de l&#39;entité en const.">
<polygon fill="none" stroke="black" points="742,-1140.5 742,-1159.5 866,-1159.5 866,-1140.5 742,-1140.5"/>
<text text-anchor="middle" x="804" y="-1147.5" font-family="Helvetica,sans-Serif" font-size="10.00">Entity::getConstSpeed</text>
</a>
</g>
</g>
<!-- Node12&#45;&gt;Node14 -->
<g id="edge20" class="edge">
<title>Node12&#45;&gt;Node14</title>
<path fill="none" stroke="midnightblue" d="M466.32,-1007.81C475.74,-1038.55 509.37,-1133.08 576,-1169 638.43,-1202.66 724.79,-1179.83 770.92,-1163.14"/>
<polygon fill="midnightblue" stroke="midnightblue" points="772.26,-1166.38 780.4,-1159.6 769.81,-1159.82 772.26,-1166.38"/>
</g>
<!-- Node15 -->
<g id="node15" class="node">
<title>Node15</title>
<g id="a_node15"><a xlink:href="class_projectile.html#a4fed5dda0d58cd0721bf8a20a005c594" target="_top" xlink:title=" ">
<polygon fill="none" stroke="black" points="582.5,-988.5 582.5,-1007.5 699.5,-1007.5 699.5,-988.5 582.5,-988.5"/>
<text text-anchor="middle" x="641" y="-995.5" font-family="Helvetica,sans-Serif" font-size="10.00">Projectile::directionY</text>
</a>
</g>
</g>
<!-- Node12&#45;&gt;Node15 -->
<g id="edge15" class="edge">
<title>Node12&#45;&gt;Node15</title>
<path fill="none" stroke="midnightblue" d="M509.41,-998C528.55,-998 551.16,-998 572.15,-998"/>
<polygon fill="midnightblue" stroke="midnightblue" points="572.3,-1001.5 582.3,-998 572.3,-994.5 572.3,-1001.5"/>
</g>
<!-- Node16 -->
<g id="node16" class="node">
<title>Node16</title>
<g id="a_node16"><a xlink:href="class_entity.html#aa888515055b65c5ffa3c66f667c3a5c3" target="_top" xlink:title="Fonction retournant la position en x de l&#39;entité">
<polygon fill="none" stroke="black" points="596,-1102.5 596,-1121.5 686,-1121.5 686,-1102.5 596,-1102.5"/>
<text text-anchor="middle" x="641" y="-1109.5" font-family="Helvetica,sans-Serif" font-size="10.00">Entity::getPosX</text>
</a>
</g>
</g>
<!-- Node12&#45;&gt;Node16 -->
<g id="edge21" class="edge">
<title>Node12&#45;&gt;Node16</title>
<path fill="none" stroke="midnightblue" d="M472.15,-1007.58C489.82,-1026.6 532.13,-1069.32 576,-1093 580.18,-1095.26 584.66,-1097.28 589.24,-1099.08"/>
<polygon fill="midnightblue" stroke="midnightblue" points="588.11,-1102.39 598.71,-1102.48 590.48,-1095.8 588.11,-1102.39"/>
</g>
<!-- Node17 -->
<g id="node17" class="node">
<title>Node17</title>
<g id="a_node17"><a xlink:href="class_entity.html#afb4d00e5b5b27d6c69b00f8a5f6ed436" target="_top" xlink:title="Fonction retournant la position en y de l&#39;entité">
<polygon fill="none" stroke="black" points="596.5,-1064.5 596.5,-1083.5 685.5,-1083.5 685.5,-1064.5 596.5,-1064.5"/>
<text text-anchor="middle" x="641" y="-1071.5" font-family="Helvetica,sans-Serif" font-size="10.00">Entity::getPosY</text>
</a>
</g>
</g>
<!-- Node12&#45;&gt;Node17 -->
<g id="edge22" class="edge">
<title>Node12&#45;&gt;Node17</title>
<path fill="none" stroke="midnightblue" d="M480.21,-1007.67C501.8,-1019.89 540.81,-1040.99 576,-1055 581.79,-1057.31 587.98,-1059.48 594.14,-1061.48"/>
<polygon fill="midnightblue" stroke="midnightblue" points="593.14,-1064.84 603.73,-1064.47 595.22,-1058.15 593.14,-1064.84"/>
</g>
<!-- Node18 -->
<g id="node18" class="node">
<title>Node18</title>
<g id="a_node18"><a xlink:href="class_entity.html#adbd6cd7e606bffb2fc7b061ddd13ea14" target="_top" xlink:title="Fonction retournant les PV de l&#39;entité en const.">
<polygon fill="none" stroke="black" points="601.5,-1026.5 601.5,-1045.5 680.5,-1045.5 680.5,-1026.5 601.5,-1026.5"/>
<text text-anchor="middle" x="641" y="-1033.5" font-family="Helvetica,sans-Serif" font-size="10.00">Entity::getPV</text>
</a>
</g>
</g>
<!-- Node12&#45;&gt;Node18 -->
<g id="edge23" class="edge">
<title>Node12&#45;&gt;Node18</title>
<path fill="none" stroke="midnightblue" d="M508.04,-1007.59C533.46,-1013.06 565.36,-1019.93 591.43,-1025.54"/>
<polygon fill="midnightblue" stroke="midnightblue" points="590.96,-1029.02 601.47,-1027.7 592.43,-1022.18 590.96,-1029.02"/>
</g>
<!-- Node19 -->
<g id="node19" class="node">
<title>Node19</title>
<g id="a_node19"><a xlink:href="class_entity.html#abdd4f6821f64524d42bdf29baa7375b5" target="_top" xlink:title="Procédure définissant la position en x et en y.">
<polygon fill="none" stroke="black" points="599.5,-950.5 599.5,-969.5 682.5,-969.5 682.5,-950.5 599.5,-950.5"/>
<text text-anchor="middle" x="641" y="-957.5" font-family="Helvetica,sans-Serif" font-size="10.00">Entity::setPos</text>
</a>
</g>
</g>
<!-- Node12&#45;&gt;Node19 -->
<g id="edge24" class="edge">
<title>Node12&#45;&gt;Node19</title>
<path fill="none" stroke="midnightblue" d="M508.04,-988.41C532.83,-983.07 563.78,-976.41 589.48,-970.88"/>
<polygon fill="midnightblue" stroke="midnightblue" points="590.36,-974.27 599.4,-968.74 588.89,-967.42 590.36,-974.27"/>
</g>
<!-- Node20 -->
<g id="node20" class="node">
<title>Node20</title>
<g id="a_node20"><a xlink:href="class_entity.html#a4333a5eb508029a6ab2a34c072b3c50f" target="_top" xlink:title="Procédure définissant la position en x.">
<polygon fill="none" stroke="black" points="596.5,-874.5 596.5,-893.5 685.5,-893.5 685.5,-874.5 596.5,-874.5"/>
<text text-anchor="middle" x="641" y="-881.5" font-family="Helvetica,sans-Serif" font-size="10.00">Entity::setPosX</text>
</a>
</g>
</g>
<!-- Node12&#45;&gt;Node20 -->
<g id="edge25" class="edge">
<title>Node12&#45;&gt;Node20</title>
<path fill="none" stroke="midnightblue" d="M473.25,-988.39C491.84,-970.49 534.25,-931.73 576,-908 583.19,-903.92 591.2,-900.28 599.06,-897.14"/>
<polygon fill="midnightblue" stroke="midnightblue" points="600.39,-900.38 608.51,-893.58 597.92,-893.83 600.39,-900.38"/>
</g>
<!-- Node21 -->
<g id="node21" class="node">
<title>Node21</title>
<g id="a_node21"><a xlink:href="class_entity.html#a818d626382f59946d0e0ca8111df6657" target="_top" xlink:title="Procédure définissant la position en y.">
<polygon fill="none" stroke="black" points="596.5,-836.5 596.5,-855.5 685.5,-855.5 685.5,-836.5 596.5,-836.5"/>
<text text-anchor="middle" x="641" y="-843.5" font-family="Helvetica,sans-Serif" font-size="10.00">Entity::setPosY</text>
</a>
</g>
</g>
<!-- Node12&#45;&gt;Node21 -->
<g id="edge26" class="edge">
<title>Node12&#45;&gt;Node21</title>
<path fill="none" stroke="midnightblue" d="M468.94,-988.3C483.18,-963.8 524.1,-898.91 576,-865 579.49,-862.72 583.27,-860.7 587.18,-858.92"/>
<polygon fill="midnightblue" stroke="midnightblue" points="588.51,-862.16 596.48,-855.19 585.9,-855.67 588.51,-862.16"/>
</g>
<!-- Node22 -->
<g id="node22" class="node">
<title>Node22</title>
<g id="a_node22"><a xlink:href="class_entity.html#af43254cad39f33e56cf48d74e95e4cef" target="_top" xlink:title="Procedure définissant les PV de l&#39;entité">
<polygon fill="none" stroke="black" points="602,-1216.5 602,-1235.5 680,-1235.5 680,-1216.5 602,-1216.5"/>
<text text-anchor="middle" x="641" y="-1223.5" font-family="Helvetica,sans-Serif" font-size="10.00">Entity::setPV</text>
</a>
</g>
</g>
<!-- Node12&#45;&gt;Node22 -->
<g id="edge27" class="edge">
<title>Node12&#45;&gt;Node22</title>
<path fill="none" stroke="midnightblue" d="M466.17,-1007.65C475.58,-1039.9 510.21,-1145.13 576,-1202 580.83,-1206.18 586.46,-1209.66 592.34,-1212.55"/>
<polygon fill="midnightblue" stroke="midnightblue" points="591.13,-1215.84 601.7,-1216.63 593.93,-1209.43 591.13,-1215.84"/>
</g>
<!-- Node13&#45;&gt;Node7 -->
<g id="edge13" class="edge">
<title>Node13&#45;&gt;Node7</title>
<path fill="none" stroke="midnightblue" d="M692.22,-1140.47C697.29,-1138 702.03,-1134.89 706,-1131 788.21,-1050.44 800.87,-900.42 802.72,-846.74"/>
<polygon fill="midnightblue" stroke="midnightblue" points="806.23,-846.63 802.98,-836.54 799.23,-846.45 806.23,-846.63"/>
</g>
<!-- Node13&#45;&gt;Node14 -->
<g id="edge14" class="edge">
<title>Node13&#45;&gt;Node14</title>
<path fill="none" stroke="midnightblue" d="M700.12,-1150C710.43,-1150 721.27,-1150 731.89,-1150"/>
<polygon fill="midnightblue" stroke="midnightblue" points="731.98,-1153.5 741.97,-1150 731.97,-1146.5 731.98,-1153.5"/>
</g>
<!-- Node15&#45;&gt;Node8 -->
<g id="edge16" class="edge">
<title>Node15&#45;&gt;Node8</title>
<path fill="none" stroke="midnightblue" d="M693.56,-988.37C698.19,-985.91 702.46,-982.83 706,-979 758.65,-921.9 706.62,-877.14 742,-808 752.18,-788.1 769.86,-769.65 783.57,-757.17"/>
<polygon fill="midnightblue" stroke="midnightblue" points="785.9,-759.78 791.1,-750.54 781.28,-754.52 785.9,-759.78"/>
</g>
<!-- Node15&#45;&gt;Node14 -->
<g id="edge17" class="edge">
<title>Node15&#45;&gt;Node14</title>
<path fill="none" stroke="midnightblue" d="M687.78,-1007.56C694.22,-1010.03 700.51,-1013.12 706,-1017 748.82,-1047.22 780.06,-1102.39 794.35,-1131.26"/>
<polygon fill="midnightblue" stroke="midnightblue" points="791.2,-1132.79 798.68,-1140.29 797.51,-1129.76 791.2,-1132.79"/>
</g>
<!-- Node23&#45;&gt;Node24 -->
<g id="edge29" class="edge">
<title>Node23&#45;&gt;Node24</title>
<path fill="none" stroke="midnightblue" d="M502.3,-767.09C515.42,-764.46 529.41,-759.67 540,-751 568.92,-727.33 547.62,-699.32 576,-675 579.71,-671.82 583.93,-669.17 588.4,-666.97"/>
<polygon fill="midnightblue" stroke="midnightblue" points="589.95,-670.12 597.83,-663.04 587.25,-663.66 589.95,-670.12"/>
</g>
<!-- Node25 -->
<g id="node25" class="node">
<title>Node25</title>
<g id="a_node25"><a xlink:href="class_map.html#ac39389f542d1804f9f9891ee6867a103" target="_top" xlink:title=" ">
<polygon fill="none" stroke="black" points="583.5,-760.5 583.5,-779.5 698.5,-779.5 698.5,-760.5 583.5,-760.5"/>
<text text-anchor="middle" x="641" y="-767.5" font-family="Helvetica,sans-Serif" font-size="10.00">Map::IsValidPosition</text>
</a>
</g>
</g>
<!-- Node23&#45;&gt;Node25 -->
<g id="edge30" class="edge">
<title>Node23&#45;&gt;Node25</title>
<path fill="none" stroke="midnightblue" d="M502.23,-770C523.01,-770 549.2,-770 573.15,-770"/>
<polygon fill="midnightblue" stroke="midnightblue" points="573.26,-773.5 583.26,-770 573.26,-766.5 573.26,-773.5"/>
</g>
<!-- Node27 -->
<g id="node27" class="node">
<title>Node27</title>
<g id="a_node27"><a xlink:href="window_t_x_t_8cpp.html#a22f527b59d86c3eb3e750e7e2057ca4f" target="_top" xlink:title=" ">
<polygon fill="none" stroke="black" points="442,-0.5 442,-19.5 483,-19.5 483,-0.5 442,-0.5"/>
<text text-anchor="middle" x="462.5" y="-7.5" font-family="Helvetica,sans-Serif" font-size="10.00">khbit</text>
</a>
</g>
</g>
<!-- Node26&#45;&gt;Node27 -->
<g id="edge32" class="edge">
<title>Node26&#45;&gt;Node27</title>
<path fill="none" stroke="midnightblue" d="M305.79,-86.47C321.3,-71.91 353.04,-44.21 385,-29 399.71,-21.99 417.29,-17.39 431.89,-14.48"/>
<polygon fill="midnightblue" stroke="midnightblue" points="432.7,-17.89 441.91,-12.64 431.44,-11 432.7,-17.89"/>
</g>
<!-- Node30&#45;&gt;Node7 -->
<g id="edge45" class="edge">
<title>Node30&#45;&gt;Node7</title>
<path fill="none" stroke="midnightblue" d="M300.63,-380.82C311.75,-403.22 342.21,-458.24 385,-485 444.72,-522.34 475.57,-489.55 540,-518 623.04,-554.67 653.49,-562.95 706,-637 738.95,-683.46 714.11,-710.33 742,-760 752.84,-779.31 770.21,-797.64 783.64,-810.24"/>
<polygon fill="midnightblue" stroke="midnightblue" points="781.65,-813.16 791.41,-817.29 786.36,-807.98 781.65,-813.16"/>
</g>
<!-- Node30&#45;&gt;Node8 -->
<g id="edge46" class="edge">
<title>Node30&#45;&gt;Node8</title>
<path fill="none" stroke="midnightblue" d="M299.09,-361.09C310.51,-325.1 351.5,-202.3 385,-181 443.13,-144.04 476.55,-154.17 540,-181 761.54,-274.7 796.74,-633 802.08,-721.27"/>
<polygon fill="midnightblue" stroke="midnightblue" points="798.6,-721.68 802.64,-731.47 805.59,-721.3 798.6,-721.68"/>
</g>
<!-- Node30&#45;&gt;Node10 -->
<g id="edge53" class="edge">
<title>Node30&#45;&gt;Node10</title>
<path fill="none" stroke="midnightblue" d="M296.7,-380.54C299.8,-415.51 315.42,-537.85 385,-599 391.65,-604.84 399.82,-608.94 408.32,-611.81"/>
<polygon fill="midnightblue" stroke="midnightblue" points="407.41,-615.2 417.99,-614.56 409.32,-608.46 407.41,-615.2"/>
</g>
<!-- Node30&#45;&gt;Node11 -->
<g id="edge54" class="edge">
<title>Node30&#45;&gt;Node11</title>
<path fill="none" stroke="midnightblue" d="M296.11,-380.72C297.09,-419.45 306.12,-564.15 385,-637 388.02,-639.79 391.39,-642.19 394.98,-644.25"/>
<polygon fill="midnightblue" stroke="midnightblue" points="393.77,-647.55 404.3,-648.7 396.79,-641.23 393.77,-647.55"/>
</g>
<!-- Node30&#45;&gt;Node24 -->
<g id="edge49" class="edge">
<title>Node30&#45;&gt;Node24</title>
<path fill="none" stroke="midnightblue" d="M299,-380.61C307.7,-406.9 335.54,-480.52 385,-518 441.98,-561.18 477.79,-525.78 540,-561 575.71,-581.22 608.43,-616.95 626.15,-638.35"/>
<polygon fill="midnightblue" stroke="midnightblue" points="623.58,-640.74 632.59,-646.31 629.02,-636.33 623.58,-640.74"/>
</g>
<!-- Node30&#45;&gt;Node28 -->
<g id="edge44" class="edge">
<title>Node30&#45;&gt;Node28</title>
<path fill="none" stroke="midnightblue" d="M297.83,-380.7C304.1,-411.24 327.59,-506.33 385,-556 389.84,-560.18 395.4,-563.64 401.27,-566.49"/>
<polygon fill="midnightblue" stroke="midnightblue" points="400.13,-569.81 410.7,-570.5 402.87,-563.37 400.13,-569.81"/>
</g>
<!-- Node30&#45;&gt;Node29 -->
<g id="edge50" class="edge">
<title>Node30&#45;&gt;Node29</title>
<path fill="none" stroke="midnightblue" d="M299.64,-361.17C308.69,-336.59 332.62,-270.35 349,-214 367.77,-149.41 337.51,-114.64 385,-67 391.67,-60.31 400.3,-55.85 409.36,-52.89"/>
<polygon fill="midnightblue" stroke="midnightblue" points="410.52,-56.21 419.28,-50.25 408.71,-49.44 410.52,-56.21"/>
</g>
<!-- Node31 -->
<g id="node31" class="node">
<title>Node31</title>
<g id="a_node31"><a xlink:href="class_game.html#a76bb34327b14c40d3d6d40331c6c075e" target="_top" xlink:title=" ">
<polygon fill="none" stroke="black" points="419.5,-114.5 419.5,-133.5 505.5,-133.5 505.5,-114.5 419.5,-114.5"/>
<text text-anchor="middle" x="462.5" y="-121.5" font-family="Helvetica,sans-Serif" font-size="10.00">Game::appear</text>
</a>
</g>
</g>
<!-- Node30&#45;&gt;Node31 -->
<g id="edge37" class="edge">
<title>Node30&#45;&gt;Node31</title>
<path fill="none" stroke="midnightblue" d="M299.3,-361.35C313.32,-320.58 368,-163.76 385,-148 392.05,-141.47 400.85,-136.71 409.96,-133.25"/>
<polygon fill="midnightblue" stroke="midnightblue" points="411.11,-136.56 419.5,-130.1 408.91,-129.92 411.11,-136.56"/>
</g>
<!-- Node32 -->
<g id="node32" class="node">
<title>Node32</title>
<g id="a_node32"><a xlink:href="class_window_t_x_t.html#a79659c7c121f98d9021e422a69d61333" target="_top" xlink:title=" ">
<polygon fill="none" stroke="black" points="410.5,-304.5 410.5,-323.5 514.5,-323.5 514.5,-304.5 410.5,-304.5"/>
<text text-anchor="middle" x="462.5" y="-311.5" font-family="Helvetica,sans-Serif" font-size="10.00">WindowTXT::clear</text>
</a>
</g>
</g>
<!-- Node30&#45;&gt;Node32 -->
<g id="edge38" class="edge">
<title>Node30&#45;&gt;Node32</title>
<path fill="none" stroke="midnightblue" d="M315.79,-361.46C333.6,-353.15 360.63,-341.17 385,-333 392.39,-330.52 400.28,-328.21 408.08,-326.1"/>
<polygon fill="midnightblue" stroke="midnightblue" points="409.07,-329.46 417.86,-323.56 407.3,-322.69 409.07,-329.46"/>
</g>
<!-- Node33 -->
<g id="node33" class="node">
<title>Node33</title>
<g id="a_node33"><a xlink:href="class_window_t_x_t.html#a0243ba21b4e67a20c74b94c0192e3e02" target="_top" xlink:title=" ">
<polygon fill="none" stroke="black" points="590,-361.5 590,-380.5 692,-380.5 692,-361.5 590,-361.5"/>
<text text-anchor="middle" x="641" y="-368.5" font-family="Helvetica,sans-Serif" font-size="10.00">WindowTXT::print</text>
</a>
</g>
</g>
<!-- Node30&#45;&gt;Node33 -->
<g id="edge55" class="edge">
<title>Node30&#45;&gt;Node33</title>
<path fill="none" stroke="midnightblue" d="M312.72,-380.58C330.13,-389.95 358.5,-403.58 385,-409 452.49,-422.81 472.24,-421.44 540,-409 565.16,-404.38 592.19,-393.73 611.8,-384.88"/>
<polygon fill="midnightblue" stroke="midnightblue" points="613.46,-387.97 621.06,-380.58 610.51,-381.62 613.46,-387.97"/>
</g>
<!-- Node34 -->
<g id="node34" class="node">
<title>Node34</title>
<g id="a_node34"><a xlink:href="class_window_t_x_t.html#a25d39d051d4874b61fe20311ab1b0f19" target="_top" xlink:title=" ">
<polygon fill="none" stroke="black" points="410.5,-76.5 410.5,-95.5 514.5,-95.5 514.5,-76.5 410.5,-76.5"/>
<text text-anchor="middle" x="462.5" y="-83.5" font-family="Helvetica,sans-Serif" font-size="10.00">WindowTXT::draw</text>
</a>
</g>
</g>
<!-- Node30&#45;&gt;Node34 -->
<g id="edge40" class="edge">
<title>Node30&#45;&gt;Node34</title>
<path fill="none" stroke="midnightblue" d="M299.25,-361.45C307.57,-336.96 330.32,-269.94 349,-214 365.16,-165.61 347.59,-139.69 385,-105 389.5,-100.83 394.77,-97.53 400.4,-94.94"/>
<polygon fill="midnightblue" stroke="midnightblue" points="402.07,-98.05 410.16,-91.2 399.57,-91.51 402.07,-98.05"/>
</g>
<!-- Node36 -->
<g id="node36" class="node">
<title>Node36</title>
<g id="a_node36"><a xlink:href="class_window_t_x_t.html#acef149b4871fdb3afff9a60648592174" target="_top" xlink:title=" ">
<polygon fill="none" stroke="black" points="409,-456.5 409,-475.5 516,-475.5 516,-456.5 409,-456.5"/>
<text text-anchor="middle" x="462.5" y="-463.5" font-family="Helvetica,sans-Serif" font-size="10.00">WindowTXT::erase</text>
</a>
</g>
</g>
<!-- Node30&#45;&gt;Node36 -->
<g id="edge42" class="edge">
<title>Node30&#45;&gt;Node36</title>
<path fill="none" stroke="midnightblue" d="M305.54,-380.64C320.96,-395.72 352.89,-424.93 385,-442 393.3,-446.42 402.55,-450.17 411.67,-453.31"/>
<polygon fill="midnightblue" stroke="midnightblue" points="410.87,-456.73 421.46,-456.47 413.02,-450.07 410.87,-456.73"/>
</g>
<!-- Node37 -->
<g id="node37" class="node">
<title>Node37</title>
<g id="a_node37"><a xlink:href="class_window_t_x_t.html#acee576c02401371c0cb2f013cbcb7415" target="_top" xlink:title=" ">
<polygon fill="none" stroke="black" points="387.5,-380.5 387.5,-399.5 537.5,-399.5 537.5,-380.5 387.5,-380.5"/>
<text text-anchor="middle" x="462.5" y="-387.5" font-family="Helvetica,sans-Serif" font-size="10.00">WindowTXT::getConstDimX</text>
</a>
</g>
</g>
<!-- Node30&#45;&gt;Node37 -->
<g id="edge43" class="edge">
<title>Node30&#45;&gt;Node37</title>
<path fill="none" stroke="midnightblue" d="M323.33,-374.14C338.26,-375.85 357.65,-378.08 377.16,-380.32"/>
<polygon fill="midnightblue" stroke="midnightblue" points="377.01,-383.82 387.35,-381.49 377.81,-376.87 377.01,-383.82"/>
</g>
<!-- Node38 -->
<g id="node38" class="node">
<title>Node38</title>
<g id="a_node38"><a xlink:href="class_game.html#a590078d6a58c9b1fa63d560df0b30ee6" target="_top" xlink:title=" ">
<polygon fill="none" stroke="black" points="392,-342.5 392,-361.5 533,-361.5 533,-342.5 392,-342.5"/>
<text text-anchor="middle" x="462.5" y="-349.5" font-family="Helvetica,sans-Serif" font-size="10.00">Game::getConstProjectile</text>
</a>
</g>
</g>
<!-- Node30&#45;&gt;Node38 -->
<g id="edge47" class="edge">
<title>Node30&#45;&gt;Node38</title>
<path fill="none" stroke="midnightblue" d="M323.33,-367.86C339.5,-366.01 360.89,-363.55 382,-361.13"/>
<polygon fill="midnightblue" stroke="midnightblue" points="382.45,-364.6 391.99,-359.98 381.65,-357.64 382.45,-364.6"/>
</g>
<!-- Node39 -->
<g id="node39" class="node">
<title>Node39</title>
<g id="a_node39"><a xlink:href="class_game.html#a8e1bd589715b549b76b06fc3e4f61f1c" target="_top" xlink:title=" ">
<polygon fill="none" stroke="black" points="385,-266.5 385,-285.5 540,-285.5 540,-266.5 385,-266.5"/>
<text text-anchor="middle" x="462.5" y="-273.5" font-family="Helvetica,sans-Serif" font-size="10.00">Game::getConstTowerArcher</text>
</a>
</g>
</g>
<!-- Node30&#45;&gt;Node39 -->
<g id="edge48" class="edge">
<title>Node30&#45;&gt;Node39</title>
<path fill="none" stroke="midnightblue" d="M304.31,-361.46C318.96,-345.27 351.03,-312.47 385,-295 389.6,-292.63 394.5,-290.55 399.53,-288.73"/>
<polygon fill="midnightblue" stroke="midnightblue" points="400.88,-291.96 409.29,-285.51 398.69,-285.32 400.88,-291.96"/>
</g>
<!-- Node40 -->
<g id="node40" class="node">
<title>Node40</title>
<g id="a_node40"><a xlink:href="class_game.html#a61492cc55812183eeddc681a5f5a4f1b" target="_top" xlink:title=" ">
<polygon fill="none" stroke="black" points="412,-228.5 412,-247.5 513,-247.5 513,-228.5 412,-228.5"/>
<text text-anchor="middle" x="462.5" y="-235.5" font-family="Helvetica,sans-Serif" font-size="10.00">Game::getEnemy</text>
</a>
</g>
</g>
<!-- Node30&#45;&gt;Node40 -->
<g id="edge51" class="edge">
<title>Node30&#45;&gt;Node40</title>
<path fill="none" stroke="midnightblue" d="M300.7,-361.28C311.94,-339.08 342.67,-284.48 385,-257 390.27,-253.58 396.12,-250.77 402.16,-248.47"/>
<polygon fill="midnightblue" stroke="midnightblue" points="403.39,-251.75 411.76,-245.26 401.16,-245.11 403.39,-251.75"/>
</g>
<!-- Node41 -->
<g id="node41" class="node">
<title>Node41</title>
<g id="a_node41"><a xlink:href="class_map.html#a988891fac3660f96ca3b205244a30406" target="_top" xlink:title="Renvoie le type d&#39;objet se trouvant en (x,y)">
<polygon fill="none" stroke="black" points="426.5,-190.5 426.5,-209.5 498.5,-209.5 498.5,-190.5 426.5,-190.5"/>
<text text-anchor="middle" x="462.5" y="-197.5" font-family="Helvetica,sans-Serif" font-size="10.00">Map::getXY</text>
</a>
</g>
</g>
<!-- Node30&#45;&gt;Node41 -->
<g id="edge52" class="edge">
<title>Node30&#45;&gt;Node41</title>
<path fill="none" stroke="midnightblue" d="M298.72,-361.38C306.89,-334.37 333.82,-257.28 385,-219 394.06,-212.22 405.25,-207.84 416.25,-205.01"/>
<polygon fill="midnightblue" stroke="midnightblue" points="417.2,-208.39 426.22,-202.83 415.71,-201.55 417.2,-208.39"/>
</g>
<!-- Node32&#45;&gt;Node33 -->
<g id="edge39" class="edge">
<title>Node32&#45;&gt;Node33</title>
<path fill="none" stroke="midnightblue" d="M505.84,-323.56C517.02,-326.34 529.03,-329.57 540,-333 563.05,-340.21 588.48,-349.9 607.93,-357.69"/>
<polygon fill="midnightblue" stroke="midnightblue" points="606.65,-360.95 617.24,-361.46 609.28,-354.46 606.65,-360.95"/>
</g>
<!-- Node35 -->
<g id="node35" class="node">
<title>Node35</title>
<g id="a_node35"><a xlink:href="class_window_t_x_t.html#a73e94d4d47e2948899bc75c6b32e177a" target="_top" xlink:title=" ">
<polygon fill="none" stroke="black" points="576,-76.5 576,-95.5 706,-95.5 706,-76.5 576,-76.5"/>
<text text-anchor="middle" x="641" y="-83.5" font-family="Helvetica,sans-Serif" font-size="10.00">WindowTXT::termMove</text>
</a>
</g>
</g>
<!-- Node34&#45;&gt;Node35 -->
<g id="edge41" class="edge">
<title>Node34&#45;&gt;Node35</title>
<path fill="none" stroke="midnightblue" d="M514.55,-86C530.55,-86 548.55,-86 565.81,-86"/>
<polygon fill="midnightblue" stroke="midnightblue" points="565.87,-89.5 575.87,-86 565.87,-82.5 565.87,-89.5"/>
</g>
</g>
</svg>
