<?xml version="1.0" encoding="UTF-8" standalone="no"?>
<!DOCTYPE svg PUBLIC "-//W3C//DTD SVG 1.1//EN"
 "http://www.w3.org/Graphics/SVG/1.1/DTD/svg11.dtd">
<!-- Generated by graphviz version 2.43.0 (0)
 -->
<!-- Title: src/txt/mainTXT.cpp Pages: 1 -->
<svg width="386pt" height="252pt"
 viewBox="0.00 0.00 385.50 252.00" xmlns="http://www.w3.org/2000/svg" xmlns:xlink="http://www.w3.org/1999/xlink">
<g id="graph0" class="graph" transform="scale(1 1) rotate(0) translate(4 248)">
<title>src/txt/mainTXT.cpp</title>
<!-- Node1 -->
<g id="node1" class="node">
<title>Node1</title>
<g id="a_node1"><a xlink:title=" ">
<polygon fill="#bfbfbf" stroke="black" points="95,-224.5 95,-243.5 208,-243.5 208,-224.5 95,-224.5"/>
<text text-anchor="middle" x="151.5" y="-231.5" font-family="Helvetica,sans-Serif" font-size="10.00">src/txt/mainTXT.cpp</text>
</a>
</g>
</g>
<!-- Node2 -->
<g id="node2" class="node">
<title>Node2</title>
<g id="a_node2"><a xlink:href="_game_t_x_t_8h.html" target="_top" xlink:title="Fichier s&#39;occupant de l&#39;affichage du jeu en mode texte.">
<polygon fill="none" stroke="black" points="115,-168.5 115,-187.5 188,-187.5 188,-168.5 115,-168.5"/>
<text text-anchor="middle" x="151.5" y="-175.5" font-family="Helvetica,sans-Serif" font-size="10.00">GameTXT.h</text>
</a>
</g>
</g>
<!-- Node1&#45;&gt;Node2 -->
<g id="edge1" class="edge">
<title>Node1&#45;&gt;Node2</title>
<path fill="none" stroke="midnightblue" d="M151.5,-224.08C151.5,-217.01 151.5,-206.86 151.5,-197.99"/>
<polygon fill="midnightblue" stroke="midnightblue" points="155,-197.75 151.5,-187.75 148,-197.75 155,-197.75"/>
</g>
<!-- Node3 -->
<g id="node3" class="node">
<title>Node3</title>
<g id="a_node3"><a xlink:href="window_t_x_t_8h.html" target="_top" xlink:title="Définitions de la classe WindowTXT.">
<polygon fill="none" stroke="black" points="60,-112.5 60,-131.5 141,-131.5 141,-112.5 60,-112.5"/>
<text text-anchor="middle" x="100.5" y="-119.5" font-family="Helvetica,sans-Serif" font-size="10.00">windowTXT.h</text>
</a>
</g>
</g>
<!-- Node2&#45;&gt;Node3 -->
<g id="edge2" class="edge">
<title>Node2&#45;&gt;Node3</title>
<path fill="none" stroke="midnightblue" d="M143.08,-168.08C135.65,-160.22 124.65,-148.57 115.69,-139.08"/>
<polygon fill="midnightblue" stroke="midnightblue" points="118.18,-136.62 108.76,-131.75 113.09,-141.42 118.18,-136.62"/>
</g>
<!-- Node4 -->
<g id="node4" class="node">
<title>Node4</title>
<g id="a_node4"><a xlink:href="_game_8h.html" target="_top" xlink:title="Définition des donées membres et des fonctions membres de la classe Game.">
<polygon fill="none" stroke="black" points="159.5,-112.5 159.5,-131.5 247.5,-131.5 247.5,-112.5 159.5,-112.5"/>
<text text-anchor="middle" x="203.5" y="-119.5" font-family="Helvetica,sans-Serif" font-size="10.00">../core/Game.h</text>
</a>
</g>
</g>
<!-- Node2&#45;&gt;Node4 -->
<g id="edge3" class="edge">
<title>Node2&#45;&gt;Node4</title>
<path fill="none" stroke="midnightblue" d="M160.09,-168.08C167.66,-160.22 178.88,-148.57 188.01,-139.08"/>
<polygon fill="midnightblue" stroke="midnightblue" points="190.66,-141.38 195.07,-131.75 185.62,-136.53 190.66,-141.38"/>
</g>
<!-- Node5 -->
<g id="node5" class="node">
<title>Node5</title>
<g id="a_node5"><a xlink:href="_ressources_8h.html" target="_top" xlink:title=" ">
<polygon fill="none" stroke="black" points="0,-56.5 0,-75.5 81,-75.5 81,-56.5 0,-56.5"/>
<text text-anchor="middle" x="40.5" y="-63.5" font-family="Helvetica,sans-Serif" font-size="10.00">Ressources.h</text>
</a>
</g>
</g>
<!-- Node4&#45;&gt;Node5 -->
<g id="edge4" class="edge">
<title>Node4&#45;&gt;Node5</title>
<path fill="none" stroke="midnightblue" d="M177.67,-112.44C150.25,-103.36 106.72,-88.94 76.07,-78.78"/>
<polygon fill="midnightblue" stroke="midnightblue" points="76.8,-75.34 66.21,-75.52 74.6,-81.98 76.8,-75.34"/>
</g>
<!-- Node7 -->
<g id="node7" class="node">
<title>Node7</title>
<g id="a_node7"><a xlink:href="_road_8h.html" target="_top" xlink:title=" ">
<polygon fill="none" stroke="black" points="99.5,-56.5 99.5,-75.5 149.5,-75.5 149.5,-56.5 99.5,-56.5"/>
<text text-anchor="middle" x="124.5" y="-63.5" font-family="Helvetica,sans-Serif" font-size="10.00">Road.h</text>
</a>
</g>
</g>
<!-- Node4&#45;&gt;Node7 -->
<g id="edge6" class="edge">
<title>Node4&#45;&gt;Node7</title>
<path fill="none" stroke="midnightblue" d="M190.81,-112.32C178.6,-103.98 159.92,-91.21 145.5,-81.35"/>
<polygon fill="midnightblue" stroke="midnightblue" points="147.39,-78.41 137.16,-75.65 143.44,-84.19 147.39,-78.41"/>
</g>
<!-- Node8 -->
<g id="node8" class="node">
<title>Node8</title>
<g id="a_node8"><a xlink:title=" ">
<polygon fill="none" stroke="#bfbfbf" points="127,-0.5 127,-19.5 174,-19.5 174,-0.5 127,-0.5"/>
<text text-anchor="middle" x="150.5" y="-7.5" font-family="Helvetica,sans-Serif" font-size="10.00">vector</text>
</a>
</g>
</g>
<!-- Node4&#45;&gt;Node8 -->
<g id="edge11" class="edge">
<title>Node4&#45;&gt;Node8</title>
<path fill="none" stroke="midnightblue" d="M199.34,-112.37C190.67,-94.38 170.52,-52.55 158.99,-28.63"/>
<polygon fill="midnightblue" stroke="midnightblue" points="162.13,-27.08 154.64,-19.59 155.83,-30.12 162.13,-27.08"/>
</g>
<!-- Node9 -->
<g id="node9" class="node">
<title>Node9</title>
<g id="a_node9"><a xlink:href="_map_8h.html" target="_top" xlink:title="Définition des donées membres et des fonctions membres de la classe Map.">
<polygon fill="none" stroke="black" points="206,-56.5 206,-75.5 253,-75.5 253,-56.5 206,-56.5"/>
<text text-anchor="middle" x="229.5" y="-63.5" font-family="Helvetica,sans-Serif" font-size="10.00">Map.h</text>
</a>
</g>
</g>
<!-- Node4&#45;&gt;Node9 -->
<g id="edge9" class="edge">
<title>Node4&#45;&gt;Node9</title>
<path fill="none" stroke="midnightblue" d="M207.79,-112.08C211.35,-104.69 216.52,-93.95 220.92,-84.81"/>
<polygon fill="midnightblue" stroke="midnightblue" points="224.1,-86.28 225.29,-75.75 217.79,-83.24 224.1,-86.28"/>
</g>
<!-- Node10 -->
<g id="node10" class="node">
<title>Node10</title>
<g id="a_node10"><a xlink:href="_castle_8h.html" target="_top" xlink:title="Définition des donées membres et des fonctions membres de la classe Castle.">
<polygon fill="none" stroke="black" points="271.5,-56.5 271.5,-75.5 327.5,-75.5 327.5,-56.5 271.5,-56.5"/>
<text text-anchor="middle" x="299.5" y="-63.5" font-family="Helvetica,sans-Serif" font-size="10.00">Castle.h</text>
</a>
</g>
</g>
<!-- Node4&#45;&gt;Node10 -->
<g id="edge10" class="edge">
<title>Node4&#45;&gt;Node10</title>
<path fill="none" stroke="midnightblue" d="M218.92,-112.32C234.04,-103.82 257.32,-90.73 274.97,-80.8"/>
<polygon fill="midnightblue" stroke="midnightblue" points="277.11,-83.61 284.11,-75.65 273.68,-77.51 277.11,-83.61"/>
</g>
<!-- Node11 -->
<g id="node11" class="node">
<title>Node11</title>
<g id="a_node11"><a xlink:title=" ">
<polygon fill="none" stroke="#bfbfbf" points="345.5,-56.5 345.5,-75.5 377.5,-75.5 377.5,-56.5 345.5,-56.5"/>
<text text-anchor="middle" x="361.5" y="-63.5" font-family="Helvetica,sans-Serif" font-size="10.00">list</text>
</a>
</g>
</g>
<!-- Node4&#45;&gt;Node11 -->
<g id="edge12" class="edge">
<title>Node4&#45;&gt;Node11</title>
<path fill="none" stroke="midnightblue" d="M229.55,-112.35C254.51,-104.03 293.47,-90.94 335.74,-76.22"/>
<polygon fill="midnightblue" stroke="midnightblue" points="337.09,-79.46 345.38,-72.86 334.78,-72.85 337.09,-79.46"/>
</g>
<!-- Node6 -->
<g id="node6" class="node">
<title>Node6</title>
<g id="a_node6"><a xlink:title=" ">
<polygon fill="none" stroke="#bfbfbf" points="42.5,-0.5 42.5,-19.5 102.5,-19.5 102.5,-0.5 42.5,-0.5"/>
<text text-anchor="middle" x="72.5" y="-7.5" font-family="Helvetica,sans-Serif" font-size="10.00">iostream</text>
</a>
</g>
</g>
<!-- Node5&#45;&gt;Node6 -->
<g id="edge5" class="edge">
<title>Node5&#45;&gt;Node6</title>
<path fill="none" stroke="midnightblue" d="M45.78,-56.08C50.21,-48.61 56.66,-37.72 62.12,-28.52"/>
<polygon fill="midnightblue" stroke="midnightblue" points="65.23,-30.14 67.31,-19.75 59.21,-26.57 65.23,-30.14"/>
</g>
<!-- Node7&#45;&gt;Node6 -->
<g id="edge7" class="edge">
<title>Node7&#45;&gt;Node6</title>
<path fill="none" stroke="midnightblue" d="M115.91,-56.08C108.34,-48.22 97.12,-36.57 87.99,-27.08"/>
<polygon fill="midnightblue" stroke="midnightblue" points="90.38,-24.53 80.93,-19.75 85.34,-29.38 90.38,-24.53"/>
</g>
<!-- Node7&#45;&gt;Node8 -->
<g id="edge8" class="edge">
<title>Node7&#45;&gt;Node8</title>
<path fill="none" stroke="midnightblue" d="M128.79,-56.08C132.35,-48.69 137.52,-37.95 141.92,-28.81"/>
<polygon fill="midnightblue" stroke="midnightblue" points="145.1,-30.28 146.29,-19.75 138.79,-27.24 145.1,-30.28"/>
</g>
</g>
</svg>
