<?xml version="1.0" encoding="UTF-8" standalone="no"?>
<!DOCTYPE svg PUBLIC "-//W3C//DTD SVG 1.1//EN"
 "http://www.w3.org/Graphics/SVG/1.1/DTD/svg11.dtd">
<!-- Generated by graphviz version 2.43.0 (0)
 -->
<!-- Title: /home/allan/Licence2_Informatique/ProjetLIFAP4/src/txt/mainTXT.cpp Pages: 1 -->
<svg width="340pt" height="442pt"
 viewBox="0.00 0.00 340.00 442.00" xmlns="http://www.w3.org/2000/svg" xmlns:xlink="http://www.w3.org/1999/xlink">
<g id="graph0" class="graph" transform="scale(1 1) rotate(0) translate(4 438)">
<title>/home/allan/Licence2_Informatique/ProjetLIFAP4/src/txt/mainTXT.cpp</title>
<!-- Node1 -->
<g id="node1" class="node">
<title>Node1</title>
<g id="a_node1"><a xlink:title=" ">
<polygon fill="#bfbfbf" stroke="black" points="25.5,-392.5 25.5,-433.5 173.5,-433.5 173.5,-392.5 25.5,-392.5"/>
<text text-anchor="start" x="33.5" y="-421.5" font-family="Helvetica,sans-Serif" font-size="10.00">/home/allan/Licence2</text>
<text text-anchor="start" x="33.5" y="-410.5" font-family="Helvetica,sans-Serif" font-size="10.00">_Informatique/ProjetLIFAP4</text>
<text text-anchor="middle" x="99.5" y="-399.5" font-family="Helvetica,sans-Serif" font-size="10.00">/src/txt/mainTXT.cpp</text>
</a>
</g>
</g>
<!-- Node2 -->
<g id="node2" class="node">
<title>Node2</title>
<g id="a_node2"><a xlink:href="_game_t_x_t_8h.html" target="_top" xlink:title=" ">
<polygon fill="none" stroke="black" points="63,-336.5 63,-355.5 136,-355.5 136,-336.5 63,-336.5"/>
<text text-anchor="middle" x="99.5" y="-343.5" font-family="Helvetica,sans-Serif" font-size="10.00">GameTXT.h</text>
</a>
</g>
</g>
<!-- Node1&#45;&gt;Node2 -->
<g id="edge1" class="edge">
<title>Node1&#45;&gt;Node2</title>
<path fill="none" stroke="midnightblue" d="M99.5,-392.5C99.5,-384.07 99.5,-374.24 99.5,-365.87"/>
<polygon fill="midnightblue" stroke="midnightblue" points="103,-365.65 99.5,-355.65 96,-365.65 103,-365.65"/>
</g>
<!-- Node3 -->
<g id="node3" class="node">
<title>Node3</title>
<g id="a_node3"><a xlink:href="window_t_x_t_8h.html" target="_top" xlink:title=" ">
<polygon fill="none" stroke="black" points="8,-280.5 8,-299.5 89,-299.5 89,-280.5 8,-280.5"/>
<text text-anchor="middle" x="48.5" y="-287.5" font-family="Helvetica,sans-Serif" font-size="10.00">windowTXT.h</text>
</a>
</g>
</g>
<!-- Node2&#45;&gt;Node3 -->
<g id="edge2" class="edge">
<title>Node2&#45;&gt;Node3</title>
<path fill="none" stroke="midnightblue" d="M91.08,-336.08C83.65,-328.22 72.65,-316.57 63.69,-307.08"/>
<polygon fill="midnightblue" stroke="midnightblue" points="66.18,-304.62 56.76,-299.75 61.09,-309.42 66.18,-304.62"/>
</g>
<!-- Node4 -->
<g id="node4" class="node">
<title>Node4</title>
<g id="a_node4"><a xlink:href="_game_8h.html" target="_top" xlink:title=" ">
<polygon fill="none" stroke="black" points="107.5,-280.5 107.5,-299.5 195.5,-299.5 195.5,-280.5 107.5,-280.5"/>
<text text-anchor="middle" x="151.5" y="-287.5" font-family="Helvetica,sans-Serif" font-size="10.00">../core/Game.h</text>
</a>
</g>
</g>
<!-- Node2&#45;&gt;Node4 -->
<g id="edge3" class="edge">
<title>Node2&#45;&gt;Node4</title>
<path fill="none" stroke="midnightblue" d="M108.09,-336.08C115.66,-328.22 126.88,-316.57 136.01,-307.08"/>
<polygon fill="midnightblue" stroke="midnightblue" points="138.66,-309.38 143.07,-299.75 133.62,-304.53 138.66,-309.38"/>
</g>
<!-- Node5 -->
<g id="node5" class="node">
<title>Node5</title>
<g id="a_node5"><a xlink:href="_enemy_8h.html" target="_top" xlink:title=" ">
<polygon fill="none" stroke="black" points="90.5,-168.5 90.5,-187.5 148.5,-187.5 148.5,-168.5 90.5,-168.5"/>
<text text-anchor="middle" x="119.5" y="-175.5" font-family="Helvetica,sans-Serif" font-size="10.00">Enemy.h</text>
</a>
</g>
</g>
<!-- Node4&#45;&gt;Node5 -->
<g id="edge4" class="edge">
<title>Node4&#45;&gt;Node5</title>
<path fill="none" stroke="midnightblue" d="M148.99,-280.37C143.8,-262.54 131.8,-221.3 124.82,-197.27"/>
<polygon fill="midnightblue" stroke="midnightblue" points="128.15,-196.22 122,-187.59 121.43,-198.17 128.15,-196.22"/>
</g>
<!-- Node10 -->
<g id="node10" class="node">
<title>Node10</title>
<g id="a_node10"><a xlink:href="_map_8h.html" target="_top" xlink:title=" ">
<polygon fill="none" stroke="black" points="0,-112.5 0,-131.5 47,-131.5 47,-112.5 0,-112.5"/>
<text text-anchor="middle" x="23.5" y="-119.5" font-family="Helvetica,sans-Serif" font-size="10.00">Map.h</text>
</a>
</g>
</g>
<!-- Node4&#45;&gt;Node10 -->
<g id="edge11" class="edge">
<title>Node4&#45;&gt;Node10</title>
<path fill="none" stroke="midnightblue" d="M144.62,-280.08C124.12,-253.49 63.24,-174.54 36.43,-139.76"/>
<polygon fill="midnightblue" stroke="midnightblue" points="38.98,-137.35 30.11,-131.57 33.44,-141.62 38.98,-137.35"/>
</g>
<!-- Node11 -->
<g id="node11" class="node">
<title>Node11</title>
<g id="a_node11"><a xlink:href="_tower_archer_8h.html" target="_top" xlink:title=" ">
<polygon fill="none" stroke="black" points="247,-168.5 247,-187.5 332,-187.5 332,-168.5 247,-168.5"/>
<text text-anchor="middle" x="289.5" y="-175.5" font-family="Helvetica,sans-Serif" font-size="10.00">TowerArcher.h</text>
</a>
</g>
</g>
<!-- Node4&#45;&gt;Node11 -->
<g id="edge12" class="edge">
<title>Node4&#45;&gt;Node11</title>
<path fill="none" stroke="midnightblue" d="M169.24,-280.5C185.46,-272.3 209.73,-258.96 228.5,-244 246.74,-229.46 264.65,-209.51 276.29,-195.56"/>
<polygon fill="midnightblue" stroke="midnightblue" points="279.05,-197.71 282.68,-187.75 273.64,-193.28 279.05,-197.71"/>
</g>
<!-- Node12 -->
<g id="node12" class="node">
<title>Node12</title>
<g id="a_node12"><a xlink:href="_projectile_8h.html" target="_top" xlink:title=" ">
<polygon fill="none" stroke="black" points="148,-224.5 148,-243.5 219,-243.5 219,-224.5 148,-224.5"/>
<text text-anchor="middle" x="183.5" y="-231.5" font-family="Helvetica,sans-Serif" font-size="10.00">Projectile.h</text>
</a>
</g>
</g>
<!-- Node4&#45;&gt;Node12 -->
<g id="edge15" class="edge">
<title>Node4&#45;&gt;Node12</title>
<path fill="none" stroke="midnightblue" d="M156.78,-280.08C161.21,-272.61 167.66,-261.72 173.12,-252.52"/>
<polygon fill="midnightblue" stroke="midnightblue" points="176.23,-254.14 178.31,-243.75 170.21,-250.57 176.23,-254.14"/>
</g>
<!-- Node6 -->
<g id="node6" class="node">
<title>Node6</title>
<g id="a_node6"><a xlink:title=" ">
<polygon fill="none" stroke="#bfbfbf" points="178.5,-0.5 178.5,-19.5 238.5,-19.5 238.5,-0.5 178.5,-0.5"/>
<text text-anchor="middle" x="208.5" y="-7.5" font-family="Helvetica,sans-Serif" font-size="10.00">iostream</text>
</a>
</g>
</g>
<!-- Node5&#45;&gt;Node6 -->
<g id="edge5" class="edge">
<title>Node5&#45;&gt;Node6</title>
<path fill="none" stroke="midnightblue" d="M111.71,-168.13C101.68,-155.59 86.45,-131.96 94.5,-112 110.95,-71.24 154.09,-40.84 182.34,-24.52"/>
<polygon fill="midnightblue" stroke="midnightblue" points="184.25,-27.46 191.28,-19.53 180.84,-21.34 184.25,-27.46"/>
</g>
<!-- Node7 -->
<g id="node7" class="node">
<title>Node7</title>
<g id="a_node7"><a xlink:title=" ">
<polygon fill="none" stroke="#bfbfbf" points="103.5,-112.5 103.5,-131.5 135.5,-131.5 135.5,-112.5 103.5,-112.5"/>
<text text-anchor="middle" x="119.5" y="-119.5" font-family="Helvetica,sans-Serif" font-size="10.00">list</text>
</a>
</g>
</g>
<!-- Node5&#45;&gt;Node7 -->
<g id="edge6" class="edge">
<title>Node5&#45;&gt;Node7</title>
<path fill="none" stroke="midnightblue" d="M119.5,-168.08C119.5,-161.01 119.5,-150.86 119.5,-141.99"/>
<polygon fill="midnightblue" stroke="midnightblue" points="123,-141.75 119.5,-131.75 116,-141.75 123,-141.75"/>
</g>
<!-- Node8 -->
<g id="node8" class="node">
<title>Node8</title>
<g id="a_node8"><a xlink:href="_entity_8h.html" target="_top" xlink:title=" ">
<polygon fill="none" stroke="black" points="154,-112.5 154,-131.5 207,-131.5 207,-112.5 154,-112.5"/>
<text text-anchor="middle" x="180.5" y="-119.5" font-family="Helvetica,sans-Serif" font-size="10.00">Entity.h</text>
</a>
</g>
</g>
<!-- Node5&#45;&gt;Node8 -->
<g id="edge7" class="edge">
<title>Node5&#45;&gt;Node8</title>
<path fill="none" stroke="midnightblue" d="M129.3,-168.32C138.32,-160.34 151.91,-148.31 162.82,-138.65"/>
<polygon fill="midnightblue" stroke="midnightblue" points="165.35,-141.08 170.52,-131.83 160.71,-135.84 165.35,-141.08"/>
</g>
<!-- Node5&#45;&gt;Node10 -->
<g id="edge10" class="edge">
<title>Node5&#45;&gt;Node10</title>
<path fill="none" stroke="midnightblue" d="M104.08,-168.32C88.96,-159.82 65.68,-146.73 48.03,-136.8"/>
<polygon fill="midnightblue" stroke="midnightblue" points="49.32,-133.51 38.89,-131.65 45.89,-139.61 49.32,-133.51"/>
</g>
<!-- Node9 -->
<g id="node9" class="node">
<title>Node9</title>
<g id="a_node9"><a xlink:href="_vec2_8h.html" target="_top" xlink:title=" ">
<polygon fill="none" stroke="black" points="157,-56.5 157,-75.5 206,-75.5 206,-56.5 157,-56.5"/>
<text text-anchor="middle" x="181.5" y="-63.5" font-family="Helvetica,sans-Serif" font-size="10.00">Vec2.h</text>
</a>
</g>
</g>
<!-- Node8&#45;&gt;Node9 -->
<g id="edge8" class="edge">
<title>Node8&#45;&gt;Node9</title>
<path fill="none" stroke="midnightblue" d="M180.67,-112.08C180.8,-105.01 180.98,-94.86 181.15,-85.99"/>
<polygon fill="midnightblue" stroke="midnightblue" points="184.65,-85.81 181.34,-75.75 177.65,-85.68 184.65,-85.81"/>
</g>
<!-- Node9&#45;&gt;Node6 -->
<g id="edge9" class="edge">
<title>Node9&#45;&gt;Node6</title>
<path fill="none" stroke="midnightblue" d="M185.96,-56.08C189.65,-48.69 195.02,-37.95 199.59,-28.81"/>
<polygon fill="midnightblue" stroke="midnightblue" points="202.78,-30.26 204.12,-19.75 196.52,-27.13 202.78,-30.26"/>
</g>
<!-- Node11&#45;&gt;Node6 -->
<g id="edge13" class="edge">
<title>Node11&#45;&gt;Node6</title>
<path fill="none" stroke="midnightblue" d="M287.92,-168.27C283.92,-147.61 272.06,-94.58 249.5,-56 243.26,-45.33 234.16,-35.01 226.12,-26.95"/>
<polygon fill="midnightblue" stroke="midnightblue" points="228.21,-24.11 218.57,-19.72 223.37,-29.17 228.21,-24.11"/>
</g>
<!-- Node11&#45;&gt;Node8 -->
<g id="edge14" class="edge">
<title>Node11&#45;&gt;Node8</title>
<path fill="none" stroke="midnightblue" d="M271.99,-168.32C254.43,-159.62 227.17,-146.12 206.97,-136.11"/>
<polygon fill="midnightblue" stroke="midnightblue" points="208.48,-132.96 197.97,-131.65 205.38,-139.23 208.48,-132.96"/>
</g>
<!-- Node12&#45;&gt;Node5 -->
<g id="edge17" class="edge">
<title>Node12&#45;&gt;Node5</title>
<path fill="none" stroke="midnightblue" d="M173.22,-224.32C163.66,-216.26 149.22,-204.08 137.72,-194.37"/>
<polygon fill="midnightblue" stroke="midnightblue" points="139.87,-191.61 129.97,-187.83 135.36,-196.96 139.87,-191.61"/>
</g>
<!-- Node12&#45;&gt;Node6 -->
<g id="edge19" class="edge">
<title>Node12&#45;&gt;Node6</title>
<path fill="none" stroke="midnightblue" d="M187.38,-224.32C194.82,-207.12 210.87,-167.34 216.5,-132 218.06,-122.19 218.38,-89.38 215.5,-56 214.74,-47.23 213.32,-37.57 211.95,-29.46"/>
<polygon fill="midnightblue" stroke="midnightblue" points="215.39,-28.81 210.19,-19.58 208.5,-30.04 215.39,-28.81"/>
</g>
<!-- Node12&#45;&gt;Node8 -->
<g id="edge16" class="edge">
<title>Node12&#45;&gt;Node8</title>
<path fill="none" stroke="midnightblue" d="M183.26,-224.37C182.78,-206.62 181.66,-165.67 181.01,-141.6"/>
<polygon fill="midnightblue" stroke="midnightblue" points="184.51,-141.49 180.73,-131.59 177.51,-141.68 184.51,-141.49"/>
</g>
<!-- Node12&#45;&gt;Node11 -->
<g id="edge18" class="edge">
<title>Node12&#45;&gt;Node11</title>
<path fill="none" stroke="midnightblue" d="M200.53,-224.32C217.53,-215.66 243.88,-202.24 263.49,-192.25"/>
<polygon fill="midnightblue" stroke="midnightblue" points="265.19,-195.31 272.51,-187.65 262.01,-189.08 265.19,-195.31"/>
</g>
</g>
</svg>
