<?xml version="1.0" encoding="UTF-8" standalone="no"?>
<!DOCTYPE svg PUBLIC "-//W3C//DTD SVG 1.1//EN"
 "http://www.w3.org/Graphics/SVG/1.1/DTD/svg11.dtd">
<!-- Generated by graphviz version 2.43.0 (0)
 -->
<!-- Title: main Pages: 1 -->
<svg width="730pt" height="826pt"
 viewBox="0.00 0.00 730.00 826.00" xmlns="http://www.w3.org/2000/svg" xmlns:xlink="http://www.w3.org/1999/xlink">
<g id="graph0" class="graph" transform="scale(1 1) rotate(0) translate(4 822)">
<title>main</title>
<!-- Node1 -->
<g id="node1" class="node">
<title>Node1</title>
<g id="a_node1"><a xlink:title=" ">
<polygon fill="#bfbfbf" stroke="black" points="0,-665.5 0,-684.5 41,-684.5 41,-665.5 0,-665.5"/>
<text text-anchor="middle" x="20.5" y="-672.5" font-family="Helvetica,sans-Serif" font-size="10.00">main</text>
</a>
</g>
</g>
<!-- Node2 -->
<g id="node2" class="node">
<title>Node2</title>
<g id="a_node2"><a xlink:href="class_window_t_x_t.html#a83ebb5f49e60aa4ad260a1f34a412a8f" target="_top" xlink:title="Fonction permettant d&#39;effacer tout le terminal.">
<polygon fill="none" stroke="black" points="77,-684.5 77,-703.5 205,-703.5 205,-684.5 77,-684.5"/>
<text text-anchor="middle" x="141" y="-691.5" font-family="Helvetica,sans-Serif" font-size="10.00">WindowTXT::termClear</text>
</a>
</g>
</g>
<!-- Node1&#45;&gt;Node2 -->
<g id="edge1" class="edge">
<title>Node1&#45;&gt;Node2</title>
<path fill="none" stroke="midnightblue" d="M41.07,-678.14C49.47,-679.49 59.85,-681.15 70.69,-682.89"/>
<polygon fill="midnightblue" stroke="midnightblue" points="70.3,-686.37 80.73,-684.5 71.41,-679.46 70.3,-686.37"/>
</g>
<!-- Node3 -->
<g id="node3" class="node">
<title>Node3</title>
<g id="a_node3"><a xlink:href="_game_t_x_t_8cpp.html#aa8f70cd3510ceae6f2dd1bd542fcaabd" target="_top" xlink:title="Boucle pour l&#39;affichage et la gestion des évènements.">
<polygon fill="none" stroke="black" points="114.5,-646.5 114.5,-665.5 167.5,-665.5 167.5,-646.5 114.5,-646.5"/>
<text text-anchor="middle" x="141" y="-653.5" font-family="Helvetica,sans-Serif" font-size="10.00">txtLoop</text>
</a>
</g>
</g>
<!-- Node1&#45;&gt;Node3 -->
<g id="edge2" class="edge">
<title>Node1&#45;&gt;Node3</title>
<path fill="none" stroke="midnightblue" d="M41.07,-671.86C58.16,-669.12 83.42,-665.07 104.13,-661.75"/>
<polygon fill="midnightblue" stroke="midnightblue" points="104.86,-665.18 114.18,-660.14 103.75,-658.27 104.86,-665.18"/>
</g>
<!-- Node4 -->
<g id="node4" class="node">
<title>Node4</title>
<g id="a_node4"><a xlink:href="class_game.html#ab2b46f22140705ec36019c777fd7eaa6" target="_top" xlink:title="Procédure ajoutant une tour archer active (max 5)">
<polygon fill="none" stroke="black" points="245,-798.5 245,-817.5 365,-817.5 365,-798.5 245,-798.5"/>
<text text-anchor="middle" x="305" y="-805.5" font-family="Helvetica,sans-Serif" font-size="10.00">Game::addTowerArch</text>
</a>
</g>
</g>
<!-- Node3&#45;&gt;Node4 -->
<g id="edge3" class="edge">
<title>Node3&#45;&gt;Node4</title>
<path fill="none" stroke="midnightblue" d="M167.56,-658.12C180.31,-660.43 195.08,-665.21 205,-675 242.81,-712.33 203.19,-751.67 241,-789 242.46,-790.44 244.03,-791.78 245.69,-793.01"/>
<polygon fill="midnightblue" stroke="midnightblue" points="244.18,-796.19 254.54,-798.38 247.8,-790.21 244.18,-796.19"/>
</g>
<!-- Node5 -->
<g id="node5" class="node">
<title>Node5</title>
<g id="a_node5"><a xlink:href="class_game.html#a4e6bf45020c047f7ad8c0d7a5444d5ee" target="_top" xlink:title="Procédure ajoutant une tour magique active (max 5)">
<polygon fill="none" stroke="black" points="241.5,-760.5 241.5,-779.5 368.5,-779.5 368.5,-760.5 241.5,-760.5"/>
<text text-anchor="middle" x="305" y="-767.5" font-family="Helvetica,sans-Serif" font-size="10.00">Game::addTowerBomb</text>
</a>
</g>
</g>
<!-- Node3&#45;&gt;Node5 -->
<g id="edge4" class="edge">
<title>Node3&#45;&gt;Node5</title>
<path fill="none" stroke="midnightblue" d="M167.65,-658.82C180.12,-661.32 194.61,-666.06 205,-675 233.33,-699.38 212.67,-726.62 241,-751 242.97,-752.7 245.09,-754.24 247.31,-755.65"/>
<polygon fill="midnightblue" stroke="midnightblue" points="245.84,-758.83 256.32,-760.42 249.12,-752.64 245.84,-758.83"/>
</g>
<!-- Node6 -->
<g id="node6" class="node">
<title>Node6</title>
<g id="a_node6"><a xlink:href="class_game.html#ac2fa476218f3ad100f7029e7d78183e9" target="_top" xlink:title="Procédure ajoutant une tour magique active (max 5)">
<polygon fill="none" stroke="black" points="241,-722.5 241,-741.5 369,-741.5 369,-722.5 241,-722.5"/>
<text text-anchor="middle" x="305" y="-729.5" font-family="Helvetica,sans-Serif" font-size="10.00">Game::addTowerMagic</text>
</a>
</g>
</g>
<!-- Node3&#45;&gt;Node6 -->
<g id="edge5" class="edge">
<title>Node3&#45;&gt;Node6</title>
<path fill="none" stroke="midnightblue" d="M167.8,-660.59C179.73,-663.49 193.72,-668.04 205,-675 224.8,-687.21 221.2,-700.79 241,-713 244.4,-715.1 248.05,-716.98 251.82,-718.66"/>
<polygon fill="midnightblue" stroke="midnightblue" points="250.76,-722.01 261.34,-722.45 253.34,-715.5 250.76,-722.01"/>
</g>
<!-- Node7 -->
<g id="node7" class="node">
<title>Node7</title>
<g id="a_node7"><a xlink:href="class_game.html#acd26cbdfb8fa7cec1832711e618fec45" target="_top" xlink:title="Fonction gérant tous les évènements automatiques du jeu.">
<polygon fill="none" stroke="black" points="251.5,-684.5 251.5,-703.5 358.5,-703.5 358.5,-684.5 251.5,-684.5"/>
<text text-anchor="middle" x="305" y="-691.5" font-family="Helvetica,sans-Serif" font-size="10.00">Game::autoEvents</text>
</a>
</g>
</g>
<!-- Node3&#45;&gt;Node7 -->
<g id="edge6" class="edge">
<title>Node3&#45;&gt;Node7</title>
<path fill="none" stroke="midnightblue" d="M167.67,-662.02C190.65,-667.41 225.02,-675.47 253.5,-682.16"/>
<polygon fill="midnightblue" stroke="midnightblue" points="252.77,-685.58 263.3,-684.45 254.37,-678.76 252.77,-685.58"/>
</g>
<!-- Node8 -->
<g id="node8" class="node">
<title>Node8</title>
<g id="a_node8"><a xlink:href="class_window_t_x_t.html#a05997a70b080e106a15520a52d82fd2c" target="_top" xlink:title="Fonction permettant de recevoir un caractère tapé au clavier.">
<polygon fill="none" stroke="black" points="251,-646.5 251,-665.5 359,-665.5 359,-646.5 251,-646.5"/>
<text text-anchor="middle" x="305" y="-653.5" font-family="Helvetica,sans-Serif" font-size="10.00">WindowTXT::getCh</text>
</a>
</g>
</g>
<!-- Node3&#45;&gt;Node8 -->
<g id="edge7" class="edge">
<title>Node3&#45;&gt;Node8</title>
<path fill="none" stroke="midnightblue" d="M167.67,-656C187.36,-656 215.41,-656 240.95,-656"/>
<polygon fill="midnightblue" stroke="midnightblue" points="240.96,-659.5 250.96,-656 240.96,-652.5 240.96,-659.5"/>
</g>
<!-- Node10 -->
<g id="node10" class="node">
<title>Node10</title>
<g id="a_node10"><a xlink:href="class_game.html#a74dda151003b81807c663d07eda2c657" target="_top" xlink:title=" ">
<polygon fill="none" stroke="black" points="422.5,-608.5 422.5,-627.5 538.5,-627.5 538.5,-608.5 422.5,-608.5"/>
<text text-anchor="middle" x="480.5" y="-615.5" font-family="Helvetica,sans-Serif" font-size="10.00">Game::getConstMap</text>
</a>
</g>
</g>
<!-- Node3&#45;&gt;Node10 -->
<g id="edge9" class="edge">
<title>Node3&#45;&gt;Node10</title>
<path fill="none" stroke="midnightblue" d="M167.51,-650.3C187.43,-646.05 215.85,-640.4 241,-637 298.52,-629.21 364.31,-624.27 412.21,-621.38"/>
<polygon fill="midnightblue" stroke="midnightblue" points="412.67,-624.86 422.45,-620.78 412.26,-617.87 412.67,-624.86"/>
</g>
<!-- Node11 -->
<g id="node11" class="node">
<title>Node11</title>
<g id="a_node11"><a xlink:href="class_map.html#a421954a09241f064e551c84f6f044744" target="_top" xlink:title="Renvoie la largeur du terrain.">
<polygon fill="none" stroke="black" points="437.5,-570.5 437.5,-589.5 523.5,-589.5 523.5,-570.5 437.5,-570.5"/>
<text text-anchor="middle" x="480.5" y="-577.5" font-family="Helvetica,sans-Serif" font-size="10.00">Map::getDimX</text>
</a>
</g>
</g>
<!-- Node3&#45;&gt;Node11 -->
<g id="edge10" class="edge">
<title>Node3&#45;&gt;Node11</title>
<path fill="none" stroke="midnightblue" d="M164.82,-646.35C184.65,-638.29 214.29,-627.03 241,-620 304.11,-603.38 378.51,-592.2 427.23,-585.97"/>
<polygon fill="midnightblue" stroke="midnightblue" points="427.73,-589.44 437.22,-584.72 426.86,-582.49 427.73,-589.44"/>
</g>
<!-- Node12 -->
<g id="node12" class="node">
<title>Node12</title>
<g id="a_node12"><a xlink:href="class_map.html#a1de1775f4a648f64d2310763dc10affe" target="_top" xlink:title="Renvoie la hauteur du terrain.">
<polygon fill="none" stroke="black" points="437.5,-532.5 437.5,-551.5 523.5,-551.5 523.5,-532.5 437.5,-532.5"/>
<text text-anchor="middle" x="480.5" y="-539.5" font-family="Helvetica,sans-Serif" font-size="10.00">Map::getDimY</text>
</a>
</g>
</g>
<!-- Node3&#45;&gt;Node12 -->
<g id="edge11" class="edge">
<title>Node3&#45;&gt;Node12</title>
<path fill="none" stroke="midnightblue" d="M153.36,-646.43C170.97,-632.11 206.41,-605.29 241,-591 302.09,-565.76 377.54,-553.07 427.01,-547.02"/>
<polygon fill="midnightblue" stroke="midnightblue" points="427.64,-550.47 437.16,-545.83 426.82,-543.52 427.64,-550.47"/>
</g>
<!-- Node13 -->
<g id="node13" class="node">
<title>Node13</title>
<g id="a_node13"><a xlink:href="_game_t_x_t_8cpp.html#a79f96f754efd066587bec9a3d0d0add7" target="_top" xlink:title="Fonction dans lequel l&#39;affichage se fait.">
<polygon fill="none" stroke="black" points="277,-323.5 277,-342.5 333,-342.5 333,-323.5 277,-323.5"/>
<text text-anchor="middle" x="305" y="-330.5" font-family="Helvetica,sans-Serif" font-size="10.00">txtShow</text>
</a>
</g>
</g>
<!-- Node3&#45;&gt;Node13 -->
<g id="edge12" class="edge">
<title>Node3&#45;&gt;Node13</title>
<path fill="none" stroke="midnightblue" d="M146.85,-646.33C169.39,-601.38 264.16,-412.44 294.57,-351.81"/>
<polygon fill="midnightblue" stroke="midnightblue" points="297.82,-353.14 299.17,-342.63 291.56,-350 297.82,-353.14"/>
</g>
<!-- Node9 -->
<g id="node9" class="node">
<title>Node9</title>
<g id="a_node9"><a xlink:href="window_t_x_t_8cpp.html#a22f527b59d86c3eb3e750e7e2057ca4f" target="_top" xlink:title=" ">
<polygon fill="none" stroke="black" points="460,-646.5 460,-665.5 501,-665.5 501,-646.5 460,-646.5"/>
<text text-anchor="middle" x="480.5" y="-653.5" font-family="Helvetica,sans-Serif" font-size="10.00">khbit</text>
</a>
</g>
</g>
<!-- Node8&#45;&gt;Node9 -->
<g id="edge8" class="edge">
<title>Node8&#45;&gt;Node9</title>
<path fill="none" stroke="midnightblue" d="M359.47,-656C389.13,-656 424.91,-656 449.65,-656"/>
<polygon fill="midnightblue" stroke="midnightblue" points="449.85,-659.5 459.85,-656 449.85,-652.5 449.85,-659.5"/>
</g>
<!-- Node13&#45;&gt;Node10 -->
<g id="edge17" class="edge">
<title>Node13&#45;&gt;Node10</title>
<path fill="none" stroke="midnightblue" d="M306.52,-342.74C309.14,-381.52 324.19,-526.37 405,-599 407.53,-601.28 410.3,-603.29 413.23,-605.06"/>
<polygon fill="midnightblue" stroke="midnightblue" points="411.93,-608.33 422.43,-609.72 415.09,-602.08 411.93,-608.33"/>
</g>
<!-- Node13&#45;&gt;Node11 -->
<g id="edge22" class="edge">
<title>Node13&#45;&gt;Node11</title>
<path fill="none" stroke="midnightblue" d="M307.16,-342.55C311.95,-377.56 333.38,-500.01 405,-561 411.5,-566.54 419.4,-570.49 427.6,-573.31"/>
<polygon fill="midnightblue" stroke="midnightblue" points="426.72,-576.7 437.3,-576.13 428.67,-569.98 426.72,-576.7"/>
</g>
<!-- Node13&#45;&gt;Node12 -->
<g id="edge23" class="edge">
<title>Node13&#45;&gt;Node12</title>
<path fill="none" stroke="midnightblue" d="M308.08,-342.67C315.35,-374.01 342.61,-473.57 405,-523 411.62,-528.24 419.51,-532.06 427.65,-534.82"/>
<polygon fill="midnightblue" stroke="midnightblue" points="426.67,-538.18 437.25,-537.62 428.63,-531.46 426.67,-538.18"/>
</g>
<!-- Node14 -->
<g id="node14" class="node">
<title>Node14</title>
<g id="a_node14"><a xlink:href="class_window_t_x_t.html#a79659c7c121f98d9021e422a69d61333" target="_top" xlink:title="Fonction permettant de remplir le terminal d&#39;un même caractère.">
<polygon fill="none" stroke="black" points="428.5,-0.5 428.5,-19.5 532.5,-19.5 532.5,-0.5 428.5,-0.5"/>
<text text-anchor="middle" x="480.5" y="-7.5" font-family="Helvetica,sans-Serif" font-size="10.00">WindowTXT::clear</text>
</a>
</g>
</g>
<!-- Node13&#45;&gt;Node14 -->
<g id="edge13" class="edge">
<title>Node13&#45;&gt;Node14</title>
<path fill="none" stroke="midnightblue" d="M306.2,-323.38C307.61,-282.29 318.62,-119.68 405,-34 409.04,-29.99 413.75,-26.65 418.81,-23.87"/>
<polygon fill="midnightblue" stroke="midnightblue" points="420.65,-26.87 428.21,-19.44 417.67,-20.54 420.65,-26.87"/>
</g>
<!-- Node15 -->
<g id="node15" class="node">
<title>Node15</title>
<g id="a_node15"><a xlink:href="class_window_t_x_t.html#a0243ba21b4e67a20c74b94c0192e3e02" target="_top" xlink:title="Fonction permettant de remplir le tableau de caractère de la fenêtre.">
<polygon fill="none" stroke="black" points="606,-0.5 606,-19.5 708,-19.5 708,-0.5 606,-0.5"/>
<text text-anchor="middle" x="657" y="-7.5" font-family="Helvetica,sans-Serif" font-size="10.00">WindowTXT::print</text>
</a>
</g>
</g>
<!-- Node13&#45;&gt;Node15 -->
<g id="edge34" class="edge">
<title>Node13&#45;&gt;Node15</title>
<path fill="none" stroke="midnightblue" d="M306.45,-323.46C308.81,-284.85 323.05,-138.72 405,-67 412.37,-60.55 527.28,-36.22 599.04,-21.51"/>
<polygon fill="midnightblue" stroke="midnightblue" points="599.77,-24.93 608.86,-19.5 598.37,-18.08 599.77,-24.93"/>
</g>
<!-- Node16 -->
<g id="node16" class="node">
<title>Node16</title>
<g id="a_node16"><a xlink:href="class_window_t_x_t.html#a25d39d051d4874b61fe20311ab1b0f19" target="_top" xlink:title="Fonction permettant d&#39;afficher un caractère depuis un tableau de caractère sur le terminal.">
<polygon fill="none" stroke="black" points="428.5,-494.5 428.5,-513.5 532.5,-513.5 532.5,-494.5 428.5,-494.5"/>
<text text-anchor="middle" x="480.5" y="-501.5" font-family="Helvetica,sans-Serif" font-size="10.00">WindowTXT::draw</text>
</a>
</g>
</g>
<!-- Node13&#45;&gt;Node16 -->
<g id="edge15" class="edge">
<title>Node13&#45;&gt;Node16</title>
<path fill="none" stroke="midnightblue" d="M309.37,-342.61C319.37,-369.62 351.49,-446.67 405,-485 409.23,-488.03 413.9,-490.58 418.78,-492.72"/>
<polygon fill="midnightblue" stroke="midnightblue" points="417.77,-496.08 428.36,-496.36 420.26,-489.54 417.77,-496.08"/>
</g>
<!-- Node18 -->
<g id="node18" class="node">
<title>Node18</title>
<g id="a_node18"><a xlink:href="class_entity.html#a632a853b65d0468f138bc35efc0d317b" target="_top" xlink:title="Accesseur renvoyant la position en x d&#39;un ennemi de type const.">
<polygon fill="none" stroke="black" points="421.5,-456.5 421.5,-475.5 539.5,-475.5 539.5,-456.5 421.5,-456.5"/>
<text text-anchor="middle" x="480.5" y="-463.5" font-family="Helvetica,sans-Serif" font-size="10.00">Entity::getConstPosX</text>
</a>
</g>
</g>
<!-- Node13&#45;&gt;Node18 -->
<g id="edge18" class="edge">
<title>Node13&#45;&gt;Node18</title>
<path fill="none" stroke="midnightblue" d="M311.54,-342.69C324.7,-364.84 360.16,-419.34 405,-447 408.42,-449.11 412.06,-450.98 415.83,-452.65"/>
<polygon fill="midnightblue" stroke="midnightblue" points="414.81,-456.01 425.39,-456.38 417.35,-449.49 414.81,-456.01"/>
</g>
<!-- Node19 -->
<g id="node19" class="node">
<title>Node19</title>
<g id="a_node19"><a xlink:href="class_entity.html#a280a384eddb9c7bfb96547adfbb8f515" target="_top" xlink:title="Accesseur renvoyant la position en y d&#39;un ennemi de type const.">
<polygon fill="none" stroke="black" points="422,-418.5 422,-437.5 539,-437.5 539,-418.5 422,-418.5"/>
<text text-anchor="middle" x="480.5" y="-425.5" font-family="Helvetica,sans-Serif" font-size="10.00">Entity::getConstPosY</text>
</a>
</g>
</g>
<!-- Node13&#45;&gt;Node19 -->
<g id="edge19" class="edge">
<title>Node13&#45;&gt;Node19</title>
<path fill="none" stroke="midnightblue" d="M315.76,-342.73C332.53,-358.9 368.55,-391.29 405,-409 409.95,-411.41 415.24,-413.53 420.63,-415.4"/>
<polygon fill="midnightblue" stroke="midnightblue" points="419.81,-418.81 430.4,-418.5 421.92,-412.14 419.81,-418.81"/>
</g>
<!-- Node20 -->
<g id="node20" class="node">
<title>Node20</title>
<g id="a_node20"><a xlink:href="class_game.html#a74d75c5a787ceb100cad9f5c75894ff7" target="_top" xlink:title="Accesseur renvoyant ressources de type const.">
<polygon fill="none" stroke="black" points="405,-380.5 405,-399.5 556,-399.5 556,-380.5 405,-380.5"/>
<text text-anchor="middle" x="480.5" y="-387.5" font-family="Helvetica,sans-Serif" font-size="10.00">Game::getConstRessources</text>
</a>
</g>
</g>
<!-- Node13&#45;&gt;Node20 -->
<g id="edge20" class="edge">
<title>Node13&#45;&gt;Node20</title>
<path fill="none" stroke="midnightblue" d="M328.54,-342.52C348.43,-350.71 378.33,-362.51 405,-371 412.69,-373.45 420.9,-375.8 428.95,-377.96"/>
<polygon fill="midnightblue" stroke="midnightblue" points="428.1,-381.35 438.66,-380.5 429.87,-374.58 428.1,-381.35"/>
</g>
<!-- Node21 -->
<g id="node21" class="node">
<title>Node21</title>
<g id="a_node21"><a xlink:href="class_game.html#a15f72ecbe312a7d7d2e4939a7174d16e" target="_top" xlink:title=" ">
<polygon fill="none" stroke="black" points="418,-342.5 418,-361.5 543,-361.5 543,-342.5 418,-342.5"/>
<text text-anchor="middle" x="480.5" y="-349.5" font-family="Helvetica,sans-Serif" font-size="10.00">Game::getCountTower</text>
</a>
</g>
</g>
<!-- Node13&#45;&gt;Node21 -->
<g id="edge21" class="edge">
<title>Node13&#45;&gt;Node21</title>
<path fill="none" stroke="midnightblue" d="M333.11,-335.97C353.14,-338.16 381.39,-341.26 407.74,-344.14"/>
<polygon fill="midnightblue" stroke="midnightblue" points="407.4,-347.62 417.72,-345.23 408.16,-340.67 407.4,-347.62"/>
</g>
<!-- Node22 -->
<g id="node22" class="node">
<title>Node22</title>
<g id="a_node22"><a xlink:href="class_ressources.html#a49874b04539b14db66b1d70a0dc226c8" target="_top" xlink:title="Accesseur de la donnée membre gold.">
<polygon fill="none" stroke="black" points="422.5,-304.5 422.5,-323.5 538.5,-323.5 538.5,-304.5 422.5,-304.5"/>
<text text-anchor="middle" x="480.5" y="-311.5" font-family="Helvetica,sans-Serif" font-size="10.00">Ressources::getGold</text>
</a>
</g>
</g>
<!-- Node13&#45;&gt;Node22 -->
<g id="edge24" class="edge">
<title>Node13&#45;&gt;Node22</title>
<path fill="none" stroke="midnightblue" d="M333.11,-330.03C354.33,-327.71 384.78,-324.37 412.42,-321.35"/>
<polygon fill="midnightblue" stroke="midnightblue" points="412.89,-324.82 422.45,-320.25 412.13,-317.86 412.89,-324.82"/>
</g>
<!-- Node23 -->
<g id="node23" class="node">
<title>Node23</title>
<g id="a_node23"><a xlink:href="class_game.html#a12bc238997269a5a7056ae8e61a0ed32" target="_top" xlink:title="Fonction modifiant le nombre de tours actives.">
<polygon fill="none" stroke="black" points="426.5,-266.5 426.5,-285.5 534.5,-285.5 534.5,-266.5 426.5,-266.5"/>
<text text-anchor="middle" x="480.5" y="-273.5" font-family="Helvetica,sans-Serif" font-size="10.00">Game::getItEnemy</text>
</a>
</g>
</g>
<!-- Node13&#45;&gt;Node23 -->
<g id="edge25" class="edge">
<title>Node13&#45;&gt;Node23</title>
<path fill="none" stroke="midnightblue" d="M328.54,-323.48C348.43,-315.29 378.33,-303.49 405,-295 412.69,-292.55 420.9,-290.2 428.95,-288.04"/>
<polygon fill="midnightblue" stroke="midnightblue" points="429.87,-291.42 438.66,-285.5 428.1,-284.65 429.87,-291.42"/>
</g>
<!-- Node24 -->
<g id="node24" class="node">
<title>Node24</title>
<g id="a_node24"><a xlink:href="class_game.html#a01ba88b54739851f18d26a91c448b063" target="_top" xlink:title="Fonction modifiant le nombre de tours actives.">
<polygon fill="none" stroke="black" points="420.5,-228.5 420.5,-247.5 540.5,-247.5 540.5,-228.5 420.5,-228.5"/>
<text text-anchor="middle" x="480.5" y="-235.5" font-family="Helvetica,sans-Serif" font-size="10.00">Game::getItProjectile</text>
</a>
</g>
</g>
<!-- Node13&#45;&gt;Node24 -->
<g id="edge26" class="edge">
<title>Node13&#45;&gt;Node24</title>
<path fill="none" stroke="midnightblue" d="M315.76,-323.27C332.53,-307.1 368.55,-274.71 405,-257 409.95,-254.59 415.24,-252.47 420.63,-250.6"/>
<polygon fill="midnightblue" stroke="midnightblue" points="421.92,-253.86 430.4,-247.5 419.81,-247.19 421.92,-253.86"/>
</g>
<!-- Node25 -->
<g id="node25" class="node">
<title>Node25</title>
<g id="a_node25"><a xlink:href="class_game.html#a696cd9a1e18e88e31672cc1cd894cbc4" target="_top" xlink:title="Fonction modifiant le nombre de tours actives.">
<polygon fill="none" stroke="black" points="429,-190.5 429,-209.5 532,-209.5 532,-190.5 429,-190.5"/>
<text text-anchor="middle" x="480.5" y="-197.5" font-family="Helvetica,sans-Serif" font-size="10.00">Game::getItTower</text>
</a>
</g>
</g>
<!-- Node13&#45;&gt;Node25 -->
<g id="edge27" class="edge">
<title>Node13&#45;&gt;Node25</title>
<path fill="none" stroke="midnightblue" d="M311.54,-323.31C324.7,-301.16 360.16,-246.66 405,-219 409.43,-216.27 414.24,-213.93 419.21,-211.92"/>
<polygon fill="midnightblue" stroke="midnightblue" points="420.67,-215.12 428.91,-208.46 418.32,-208.52 420.67,-215.12"/>
</g>
<!-- Node26 -->
<g id="node26" class="node">
<title>Node26</title>
<g id="a_node26"><a xlink:href="class_castle.html#a1a0ffead4bbaaf276f73a37875e12aba" target="_top" xlink:title="Accesseur de la donnée membre PVCastle.">
<polygon fill="none" stroke="black" points="439.5,-152.5 439.5,-171.5 521.5,-171.5 521.5,-152.5 439.5,-152.5"/>
<text text-anchor="middle" x="480.5" y="-159.5" font-family="Helvetica,sans-Serif" font-size="10.00">Castle::getPV</text>
</a>
</g>
</g>
<!-- Node13&#45;&gt;Node26 -->
<g id="edge28" class="edge">
<title>Node13&#45;&gt;Node26</title>
<path fill="none" stroke="midnightblue" d="M309.37,-323.39C319.37,-296.38 351.49,-219.33 405,-181 412.25,-175.8 420.8,-172.03 429.47,-169.28"/>
<polygon fill="midnightblue" stroke="midnightblue" points="430.52,-172.62 439.24,-166.6 428.67,-165.87 430.52,-172.62"/>
</g>
<!-- Node27 -->
<g id="node27" class="node">
<title>Node27</title>
<g id="a_node27"><a xlink:href="class_map.html#a988891fac3660f96ca3b205244a30406" target="_top" xlink:title="Fonction renvoyant le caractère aux coordonnées (x,y) de la map.">
<polygon fill="none" stroke="black" points="444.5,-114.5 444.5,-133.5 516.5,-133.5 516.5,-114.5 444.5,-114.5"/>
<text text-anchor="middle" x="480.5" y="-121.5" font-family="Helvetica,sans-Serif" font-size="10.00">Map::getXY</text>
</a>
</g>
</g>
<!-- Node13&#45;&gt;Node27 -->
<g id="edge29" class="edge">
<title>Node13&#45;&gt;Node27</title>
<path fill="none" stroke="midnightblue" d="M308.08,-323.33C315.35,-291.99 342.61,-192.43 405,-143 413.4,-136.34 423.87,-131.99 434.27,-129.15"/>
<polygon fill="midnightblue" stroke="midnightblue" points="435.21,-132.53 444.16,-126.87 433.63,-125.71 435.21,-132.53"/>
</g>
<!-- Node28 -->
<g id="node28" class="node">
<title>Node28</title>
<g id="a_node28"><a xlink:href="class_enemy.html#a038e636d16b708f92627348a36750702" target="_top" xlink:title=" ">
<polygon fill="none" stroke="black" points="436,-76.5 436,-95.5 525,-95.5 525,-76.5 436,-76.5"/>
<text text-anchor="middle" x="480.5" y="-83.5" font-family="Helvetica,sans-Serif" font-size="10.00">Enemy::isDead</text>
</a>
</g>
</g>
<!-- Node13&#45;&gt;Node28 -->
<g id="edge30" class="edge">
<title>Node13&#45;&gt;Node28</title>
<path fill="none" stroke="midnightblue" d="M307.16,-323.45C311.95,-288.44 333.38,-165.99 405,-105 411.07,-99.83 418.37,-96.03 425.99,-93.26"/>
<polygon fill="midnightblue" stroke="midnightblue" points="427.22,-96.54 435.75,-90.26 425.16,-89.85 427.22,-96.54"/>
</g>
<!-- Node14&#45;&gt;Node15 -->
<g id="edge14" class="edge">
<title>Node14&#45;&gt;Node15</title>
<path fill="none" stroke="midnightblue" d="M532.91,-10C552.61,-10 575.25,-10 595.7,-10"/>
<polygon fill="midnightblue" stroke="midnightblue" points="595.86,-13.5 605.86,-10 595.86,-6.5 595.86,-13.5"/>
</g>
<!-- Node17 -->
<g id="node17" class="node">
<title>Node17</title>
<g id="a_node17"><a xlink:href="class_window_t_x_t.html#a73e94d4d47e2948899bc75c6b32e177a" target="_top" xlink:title="Fonction permettant de bouger le curseur du terminal.">
<polygon fill="none" stroke="black" points="592,-494.5 592,-513.5 722,-513.5 722,-494.5 592,-494.5"/>
<text text-anchor="middle" x="657" y="-501.5" font-family="Helvetica,sans-Serif" font-size="10.00">WindowTXT::termMove</text>
</a>
</g>
</g>
<!-- Node16&#45;&gt;Node17 -->
<g id="edge16" class="edge">
<title>Node16&#45;&gt;Node17</title>
<path fill="none" stroke="midnightblue" d="M532.91,-504C548.23,-504 565.33,-504 581.8,-504"/>
<polygon fill="midnightblue" stroke="midnightblue" points="581.95,-507.5 591.95,-504 581.95,-500.5 581.95,-507.5"/>
</g>
<!-- Node29 -->
<g id="node29" class="node">
<title>Node29</title>
<g id="a_node29"><a xlink:href="class_entity.html#a4c3de4661a585b0bd42bd16ce9cc5002" target="_top" xlink:title="Accesseur renvoyant la valeur de la donnée membre &#39;isDead&#39; d&#39;un ennemi.">
<polygon fill="none" stroke="black" points="607,-38.5 607,-57.5 707,-57.5 707,-38.5 607,-38.5"/>
<text text-anchor="middle" x="657" y="-45.5" font-family="Helvetica,sans-Serif" font-size="10.00">Entity::getIsDead</text>
</a>
</g>
</g>
<!-- Node28&#45;&gt;Node29 -->
<g id="edge31" class="edge">
<title>Node28&#45;&gt;Node29</title>
<path fill="none" stroke="midnightblue" d="M525.08,-76.51C548.51,-71.41 577.59,-65.08 602.39,-59.68"/>
<polygon fill="midnightblue" stroke="midnightblue" points="603.34,-63.05 612.37,-57.5 601.85,-56.21 603.34,-63.05"/>
</g>
<!-- Node30 -->
<g id="node30" class="node">
<title>Node30</title>
<g id="a_node30"><a xlink:href="class_entity.html#a334b52f5de8bbd7fb81f8bbeec08992b" target="_top" xlink:title="Accesseur renvoyant les points de vie d&#39;un ennemi.">
<polygon fill="none" stroke="black" points="617.5,-114.5 617.5,-133.5 696.5,-133.5 696.5,-114.5 617.5,-114.5"/>
<text text-anchor="middle" x="657" y="-121.5" font-family="Helvetica,sans-Serif" font-size="10.00">Entity::getPV</text>
</a>
</g>
</g>
<!-- Node28&#45;&gt;Node30 -->
<g id="edge32" class="edge">
<title>Node28&#45;&gt;Node30</title>
<path fill="none" stroke="midnightblue" d="M525.08,-95.49C550.13,-100.94 581.63,-107.81 607.46,-113.43"/>
<polygon fill="midnightblue" stroke="midnightblue" points="606.91,-116.89 617.42,-115.6 608.4,-110.05 606.91,-116.89"/>
</g>
<!-- Node31 -->
<g id="node31" class="node">
<title>Node31</title>
<g id="a_node31"><a xlink:href="class_entity.html#a048e30a0b851dc9073d5ec40396e38a4" target="_top" xlink:title="Accesseur modifiant la données membre &#39;isDead&#39; d&#39;un ennemi.">
<polygon fill="none" stroke="black" points="607.5,-76.5 607.5,-95.5 706.5,-95.5 706.5,-76.5 607.5,-76.5"/>
<text text-anchor="middle" x="657" y="-83.5" font-family="Helvetica,sans-Serif" font-size="10.00">Entity::setIsDead</text>
</a>
</g>
</g>
<!-- Node28&#45;&gt;Node31 -->
<g id="edge33" class="edge">
<title>Node28&#45;&gt;Node31</title>
<path fill="none" stroke="midnightblue" d="M525.08,-86C546.89,-86 573.6,-86 597.2,-86"/>
<polygon fill="midnightblue" stroke="midnightblue" points="597.44,-89.5 607.44,-86 597.44,-82.5 597.44,-89.5"/>
</g>
</g>
</svg>
