<?xml version="1.0" encoding="UTF-8" standalone="no"?>
<!DOCTYPE svg PUBLIC "-//W3C//DTD SVG 1.1//EN"
 "http://www.w3.org/Graphics/SVG/1.1/DTD/svg11.dtd">
<!-- Generated by graphviz version 2.43.0 (0)
 -->
<!-- Title: main Pages: 1 -->
<svg width="714pt" height="560pt"
 viewBox="0.00 0.00 714.00 560.00" xmlns="http://www.w3.org/2000/svg" xmlns:xlink="http://www.w3.org/1999/xlink">
<g id="graph0" class="graph" transform="scale(1 1) rotate(0) translate(4 556)">
<title>main</title>
<!-- Node1 -->
<g id="node1" class="node">
<title>Node1</title>
<g id="a_node1"><a xlink:title=" ">
<polygon fill="#bfbfbf" stroke="black" points="0,-456.5 0,-475.5 41,-475.5 41,-456.5 0,-456.5"/>
<text text-anchor="middle" x="20.5" y="-463.5" font-family="Helvetica,sans-Serif" font-size="10.00">main</text>
</a>
</g>
</g>
<!-- Node2 -->
<g id="node2" class="node">
<title>Node2</title>
<g id="a_node2"><a xlink:href="class_window_t_x_t.html#a83ebb5f49e60aa4ad260a1f34a412a8f" target="_top" xlink:title="Fonction permettant d&#39;effacer tout le terminal.">
<polygon fill="none" stroke="black" points="77,-475.5 77,-494.5 205,-494.5 205,-475.5 77,-475.5"/>
<text text-anchor="middle" x="141" y="-482.5" font-family="Helvetica,sans-Serif" font-size="10.00">WindowTXT::termClear</text>
</a>
</g>
</g>
<!-- Node1&#45;&gt;Node2 -->
<g id="edge1" class="edge">
<title>Node1&#45;&gt;Node2</title>
<path fill="none" stroke="midnightblue" d="M41.07,-469.14C49.47,-470.49 59.85,-472.15 70.69,-473.89"/>
<polygon fill="midnightblue" stroke="midnightblue" points="70.3,-477.37 80.73,-475.5 71.41,-470.46 70.3,-477.37"/>
</g>
<!-- Node3 -->
<g id="node3" class="node">
<title>Node3</title>
<g id="a_node3"><a xlink:href="_game_t_x_t_8cpp.html#aa8f70cd3510ceae6f2dd1bd542fcaabd" target="_top" xlink:title="Boucle pour l&#39;affichage et la gestion des évènements.">
<polygon fill="none" stroke="black" points="114.5,-437.5 114.5,-456.5 167.5,-456.5 167.5,-437.5 114.5,-437.5"/>
<text text-anchor="middle" x="141" y="-444.5" font-family="Helvetica,sans-Serif" font-size="10.00">txtLoop</text>
</a>
</g>
</g>
<!-- Node1&#45;&gt;Node3 -->
<g id="edge2" class="edge">
<title>Node1&#45;&gt;Node3</title>
<path fill="none" stroke="midnightblue" d="M41.07,-462.86C58.16,-460.12 83.42,-456.07 104.13,-452.75"/>
<polygon fill="midnightblue" stroke="midnightblue" points="104.86,-456.18 114.18,-451.14 103.75,-449.27 104.86,-456.18"/>
</g>
<!-- Node4 -->
<g id="node4" class="node">
<title>Node4</title>
<g id="a_node4"><a xlink:href="class_game.html#acd26cbdfb8fa7cec1832711e618fec45" target="_top" xlink:title="Fonction gérant tous les évènements automatiques du jeu.">
<polygon fill="none" stroke="black" points="241.5,-532.5 241.5,-551.5 348.5,-551.5 348.5,-532.5 241.5,-532.5"/>
<text text-anchor="middle" x="295" y="-539.5" font-family="Helvetica,sans-Serif" font-size="10.00">Game::autoEvents</text>
</a>
</g>
</g>
<!-- Node3&#45;&gt;Node4 -->
<g id="edge3" class="edge">
<title>Node3&#45;&gt;Node4</title>
<path fill="none" stroke="midnightblue" d="M167.52,-450.43C179.81,-453.09 194.18,-457.77 205,-466 228.85,-484.14 217.62,-504.26 241,-523 243.25,-524.81 245.69,-526.45 248.24,-527.94"/>
<polygon fill="midnightblue" stroke="midnightblue" points="246.73,-531.1 257.24,-532.45 249.87,-524.84 246.73,-531.1"/>
</g>
<!-- Node5 -->
<g id="node5" class="node">
<title>Node5</title>
<g id="a_node5"><a xlink:href="class_window_t_x_t.html#a05997a70b080e106a15520a52d82fd2c" target="_top" xlink:title="Fonction permettant de recevoir un caractère tapé au clavier.">
<polygon fill="none" stroke="black" points="241,-494.5 241,-513.5 349,-513.5 349,-494.5 241,-494.5"/>
<text text-anchor="middle" x="295" y="-501.5" font-family="Helvetica,sans-Serif" font-size="10.00">WindowTXT::getCh</text>
</a>
</g>
</g>
<!-- Node3&#45;&gt;Node5 -->
<g id="edge4" class="edge">
<title>Node3&#45;&gt;Node5</title>
<path fill="none" stroke="midnightblue" d="M167.65,-454.04C179.17,-457.38 192.87,-461.6 205,-466 224.93,-473.24 246.85,-482.58 263.94,-490.18"/>
<polygon fill="midnightblue" stroke="midnightblue" points="262.84,-493.53 273.4,-494.43 265.71,-487.14 262.84,-493.53"/>
</g>
<!-- Node7 -->
<g id="node7" class="node">
<title>Node7</title>
<g id="a_node7"><a xlink:href="class_game.html#a74dda151003b81807c663d07eda2c657" target="_top" xlink:title="Accesseur renvoyant la map de type const.">
<polygon fill="none" stroke="black" points="404.5,-456.5 404.5,-475.5 520.5,-475.5 520.5,-456.5 404.5,-456.5"/>
<text text-anchor="middle" x="462.5" y="-463.5" font-family="Helvetica,sans-Serif" font-size="10.00">Game::getConstMap</text>
</a>
</g>
</g>
<!-- Node3&#45;&gt;Node7 -->
<g id="edge6" class="edge">
<title>Node3&#45;&gt;Node7</title>
<path fill="none" stroke="midnightblue" d="M167.61,-448.52C216.3,-451.42 323.67,-457.8 394.26,-462"/>
<polygon fill="midnightblue" stroke="midnightblue" points="394.21,-465.5 404.4,-462.6 394.63,-458.52 394.21,-465.5"/>
</g>
<!-- Node8 -->
<g id="node8" class="node">
<title>Node8</title>
<g id="a_node8"><a xlink:href="class_map.html#a421954a09241f064e551c84f6f044744" target="_top" xlink:title="Renvoie la largeur du terrain.">
<polygon fill="none" stroke="black" points="419.5,-418.5 419.5,-437.5 505.5,-437.5 505.5,-418.5 419.5,-418.5"/>
<text text-anchor="middle" x="462.5" y="-425.5" font-family="Helvetica,sans-Serif" font-size="10.00">Map::getDimX</text>
</a>
</g>
</g>
<!-- Node3&#45;&gt;Node8 -->
<g id="edge7" class="edge">
<title>Node3&#45;&gt;Node8</title>
<path fill="none" stroke="midnightblue" d="M167.61,-445.48C219.86,-442.37 339.69,-435.24 409.13,-431.11"/>
<polygon fill="midnightblue" stroke="midnightblue" points="409.63,-434.59 419.41,-430.5 409.22,-427.6 409.63,-434.59"/>
</g>
<!-- Node9 -->
<g id="node9" class="node">
<title>Node9</title>
<g id="a_node9"><a xlink:href="class_map.html#a1de1775f4a648f64d2310763dc10affe" target="_top" xlink:title="Renvoie la hauteur du terrain.">
<polygon fill="none" stroke="black" points="419.5,-380.5 419.5,-399.5 505.5,-399.5 505.5,-380.5 419.5,-380.5"/>
<text text-anchor="middle" x="462.5" y="-387.5" font-family="Helvetica,sans-Serif" font-size="10.00">Map::getDimY</text>
</a>
</g>
</g>
<!-- Node3&#45;&gt;Node9 -->
<g id="edge8" class="edge">
<title>Node3&#45;&gt;Node9</title>
<path fill="none" stroke="midnightblue" d="M167.61,-442.43C219.97,-433.09 340.19,-411.64 409.56,-399.27"/>
<polygon fill="midnightblue" stroke="midnightblue" points="410.18,-402.71 419.41,-397.51 408.95,-395.82 410.18,-402.71"/>
</g>
<!-- Node10 -->
<g id="node10" class="node">
<title>Node10</title>
<g id="a_node10"><a xlink:href="_game_t_x_t_8cpp.html#a79f96f754efd066587bec9a3d0d0add7" target="_top" xlink:title="Fonction dans lequel l&#39;affichage se fait.">
<polygon fill="none" stroke="black" points="267,-247.5 267,-266.5 323,-266.5 323,-247.5 267,-247.5"/>
<text text-anchor="middle" x="295" y="-254.5" font-family="Helvetica,sans-Serif" font-size="10.00">txtShow</text>
</a>
</g>
</g>
<!-- Node3&#45;&gt;Node10 -->
<g id="edge9" class="edge">
<title>Node3&#45;&gt;Node10</title>
<path fill="none" stroke="midnightblue" d="M149.75,-437.32C173.93,-407.09 248.29,-314.14 279.73,-274.84"/>
<polygon fill="midnightblue" stroke="midnightblue" points="282.57,-276.89 286.09,-266.89 277.11,-272.51 282.57,-276.89"/>
</g>
<!-- Node6 -->
<g id="node6" class="node">
<title>Node6</title>
<g id="a_node6"><a xlink:href="window_t_x_t_8cpp.html#a22f527b59d86c3eb3e750e7e2057ca4f" target="_top" xlink:title=" ">
<polygon fill="none" stroke="black" points="442,-494.5 442,-513.5 483,-513.5 483,-494.5 442,-494.5"/>
<text text-anchor="middle" x="462.5" y="-501.5" font-family="Helvetica,sans-Serif" font-size="10.00">khbit</text>
</a>
</g>
</g>
<!-- Node5&#45;&gt;Node6 -->
<g id="edge5" class="edge">
<title>Node5&#45;&gt;Node6</title>
<path fill="none" stroke="midnightblue" d="M349.28,-504C376.52,-504 408.67,-504 431.56,-504"/>
<polygon fill="midnightblue" stroke="midnightblue" points="431.68,-507.5 441.68,-504 431.68,-500.5 431.68,-507.5"/>
</g>
<!-- Node10&#45;&gt;Node7 -->
<g id="edge14" class="edge">
<title>Node10&#45;&gt;Node7</title>
<path fill="none" stroke="midnightblue" d="M297.54,-266.67C303.05,-297.99 324.79,-397.5 385,-447 388.12,-449.57 391.54,-451.79 395.15,-453.73"/>
<polygon fill="midnightblue" stroke="midnightblue" points="393.89,-457 404.44,-457.95 396.78,-450.62 393.89,-457"/>
</g>
<!-- Node10&#45;&gt;Node8 -->
<g id="edge19" class="edge">
<title>Node10&#45;&gt;Node8</title>
<path fill="none" stroke="midnightblue" d="M298.72,-266.62C306.89,-293.63 333.82,-370.72 385,-409 392.17,-414.36 400.66,-418.22 409.34,-421"/>
<polygon fill="midnightblue" stroke="midnightblue" points="408.59,-424.42 419.16,-423.7 410.44,-417.67 408.59,-424.42"/>
</g>
<!-- Node10&#45;&gt;Node9 -->
<g id="edge20" class="edge">
<title>Node10&#45;&gt;Node9</title>
<path fill="none" stroke="midnightblue" d="M300.7,-266.72C311.94,-288.92 342.67,-343.52 385,-371 392.42,-375.82 400.98,-379.41 409.62,-382.1"/>
<polygon fill="midnightblue" stroke="midnightblue" points="408.78,-385.5 419.35,-384.76 410.63,-378.75 408.78,-385.5"/>
</g>
<!-- Node11 -->
<g id="node11" class="node">
<title>Node11</title>
<g id="a_node11"><a xlink:href="class_window_t_x_t.html#a79659c7c121f98d9021e422a69d61333" target="_top" xlink:title="Fonction permettant de remplir le terminal d&#39;un même caractère.">
<polygon fill="none" stroke="black" points="410.5,-228.5 410.5,-247.5 514.5,-247.5 514.5,-228.5 410.5,-228.5"/>
<text text-anchor="middle" x="462.5" y="-235.5" font-family="Helvetica,sans-Serif" font-size="10.00">WindowTXT::clear</text>
</a>
</g>
</g>
<!-- Node10&#45;&gt;Node11 -->
<g id="edge10" class="edge">
<title>Node10&#45;&gt;Node11</title>
<path fill="none" stroke="midnightblue" d="M323.33,-253.86C344.25,-251.46 373.92,-248.05 400.41,-245.01"/>
<polygon fill="midnightblue" stroke="midnightblue" points="400.84,-248.49 410.38,-243.87 400.04,-241.53 400.84,-248.49"/>
</g>
<!-- Node12 -->
<g id="node12" class="node">
<title>Node12</title>
<g id="a_node12"><a xlink:href="class_window_t_x_t.html#a0243ba21b4e67a20c74b94c0192e3e02" target="_top" xlink:title="Fonction permettant de remplir le tableau de caractère de la fenêtre.">
<polygon fill="none" stroke="black" points="590,-247.5 590,-266.5 692,-266.5 692,-247.5 590,-247.5"/>
<text text-anchor="middle" x="641" y="-254.5" font-family="Helvetica,sans-Serif" font-size="10.00">WindowTXT::print</text>
</a>
</g>
</g>
<!-- Node10&#45;&gt;Node12 -->
<g id="edge24" class="edge">
<title>Node10&#45;&gt;Node12</title>
<path fill="none" stroke="midnightblue" d="M323.28,-257C378.37,-257 504.08,-257 579.5,-257"/>
<polygon fill="midnightblue" stroke="midnightblue" points="579.8,-260.5 589.8,-257 579.8,-253.5 579.8,-260.5"/>
</g>
<!-- Node13 -->
<g id="node13" class="node">
<title>Node13</title>
<g id="a_node13"><a xlink:href="class_window_t_x_t.html#a25d39d051d4874b61fe20311ab1b0f19" target="_top" xlink:title="Fonction permettant d&#39;afficher un caractère depuis un tableau de caractère sur le terminal.">
<polygon fill="none" stroke="black" points="410.5,-190.5 410.5,-209.5 514.5,-209.5 514.5,-190.5 410.5,-190.5"/>
<text text-anchor="middle" x="462.5" y="-197.5" font-family="Helvetica,sans-Serif" font-size="10.00">WindowTXT::draw</text>
</a>
</g>
</g>
<!-- Node10&#45;&gt;Node13 -->
<g id="edge12" class="edge">
<title>Node10&#45;&gt;Node13</title>
<path fill="none" stroke="midnightblue" d="M315.79,-247.46C333.6,-239.15 360.63,-227.17 385,-219 392.39,-216.52 400.28,-214.21 408.08,-212.1"/>
<polygon fill="midnightblue" stroke="midnightblue" points="409.07,-215.46 417.86,-209.56 407.3,-208.69 409.07,-215.46"/>
</g>
<!-- Node15 -->
<g id="node15" class="node">
<title>Node15</title>
<g id="a_node15"><a xlink:href="class_entity.html#a632a853b65d0468f138bc35efc0d317b" target="_top" xlink:title="Accesseur renvoyant la position en x d&#39;un ennemi de type const.">
<polygon fill="none" stroke="black" points="403.5,-152.5 403.5,-171.5 521.5,-171.5 521.5,-152.5 403.5,-152.5"/>
<text text-anchor="middle" x="462.5" y="-159.5" font-family="Helvetica,sans-Serif" font-size="10.00">Entity::getConstPosX</text>
</a>
</g>
</g>
<!-- Node10&#45;&gt;Node15 -->
<g id="edge15" class="edge">
<title>Node10&#45;&gt;Node15</title>
<path fill="none" stroke="midnightblue" d="M304.31,-247.46C318.96,-231.27 351.03,-198.47 385,-181 389.6,-178.63 394.5,-176.55 399.53,-174.73"/>
<polygon fill="midnightblue" stroke="midnightblue" points="400.88,-177.96 409.29,-171.51 398.69,-171.32 400.88,-177.96"/>
</g>
<!-- Node16 -->
<g id="node16" class="node">
<title>Node16</title>
<g id="a_node16"><a xlink:href="class_entity.html#a280a384eddb9c7bfb96547adfbb8f515" target="_top" xlink:title="Accesseur renvoyant la position en y d&#39;un ennemi de type const.">
<polygon fill="none" stroke="black" points="404,-114.5 404,-133.5 521,-133.5 521,-114.5 404,-114.5"/>
<text text-anchor="middle" x="462.5" y="-121.5" font-family="Helvetica,sans-Serif" font-size="10.00">Entity::getConstPosY</text>
</a>
</g>
</g>
<!-- Node10&#45;&gt;Node16 -->
<g id="edge16" class="edge">
<title>Node10&#45;&gt;Node16</title>
<path fill="none" stroke="midnightblue" d="M300.7,-247.28C311.94,-225.08 342.67,-170.48 385,-143 388.17,-140.94 391.55,-139.11 395.05,-137.47"/>
<polygon fill="midnightblue" stroke="midnightblue" points="396.62,-140.61 404.56,-133.59 393.98,-134.13 396.62,-140.61"/>
</g>
<!-- Node17 -->
<g id="node17" class="node">
<title>Node17</title>
<g id="a_node17"><a xlink:href="class_game.html#a590078d6a58c9b1fa63d560df0b30ee6" target="_top" xlink:title="Accesseur renvoyant un projectile de type const.">
<polygon fill="none" stroke="black" points="392,-76.5 392,-95.5 533,-95.5 533,-76.5 392,-76.5"/>
<text text-anchor="middle" x="462.5" y="-83.5" font-family="Helvetica,sans-Serif" font-size="10.00">Game::getConstProjectile</text>
</a>
</g>
</g>
<!-- Node10&#45;&gt;Node17 -->
<g id="edge17" class="edge">
<title>Node10&#45;&gt;Node17</title>
<path fill="none" stroke="midnightblue" d="M298.72,-247.38C306.89,-220.37 333.82,-143.28 385,-105 387.49,-103.13 390.15,-101.45 392.92,-99.93"/>
<polygon fill="midnightblue" stroke="midnightblue" points="394.53,-103.04 402.09,-95.61 391.55,-96.71 394.53,-103.04"/>
</g>
<!-- Node18 -->
<g id="node18" class="node">
<title>Node18</title>
<g id="a_node18"><a xlink:href="class_game.html#a8e1bd589715b549b76b06fc3e4f61f1c" target="_top" xlink:title="Accesseur renvoyant une tour de type const.">
<polygon fill="none" stroke="black" points="385,-38.5 385,-57.5 540,-57.5 540,-38.5 385,-38.5"/>
<text text-anchor="middle" x="462.5" y="-45.5" font-family="Helvetica,sans-Serif" font-size="10.00">Game::getConstTowerArcher</text>
</a>
</g>
</g>
<!-- Node10&#45;&gt;Node18 -->
<g id="edge18" class="edge">
<title>Node10&#45;&gt;Node18</title>
<path fill="none" stroke="midnightblue" d="M297.54,-247.33C303.05,-216.01 324.79,-116.5 385,-67 387.03,-65.33 389.2,-63.8 391.45,-62.4"/>
<polygon fill="midnightblue" stroke="midnightblue" points="393.33,-65.37 400.57,-57.64 390.09,-59.17 393.33,-65.37"/>
</g>
<!-- Node19 -->
<g id="node19" class="node">
<title>Node19</title>
<g id="a_node19"><a xlink:href="class_game.html#a61492cc55812183eeddc681a5f5a4f1b" target="_top" xlink:title="Accesseur renvoyant un ennemi.">
<polygon fill="none" stroke="black" points="412,-0.5 412,-19.5 513,-19.5 513,-0.5 412,-0.5"/>
<text text-anchor="middle" x="462.5" y="-7.5" font-family="Helvetica,sans-Serif" font-size="10.00">Game::getEnemy</text>
</a>
</g>
</g>
<!-- Node10&#45;&gt;Node19 -->
<g id="edge21" class="edge">
<title>Node10&#45;&gt;Node19</title>
<path fill="none" stroke="midnightblue" d="M296.7,-247.46C299.8,-212.49 315.42,-90.15 385,-29 389.92,-24.67 395.68,-21.3 401.8,-18.67"/>
<polygon fill="midnightblue" stroke="midnightblue" points="403.39,-21.82 411.62,-15.14 401.02,-15.23 403.39,-21.82"/>
</g>
<!-- Node20 -->
<g id="node20" class="node">
<title>Node20</title>
<g id="a_node20"><a xlink:href="class_map.html#a988891fac3660f96ca3b205244a30406" target="_top" xlink:title="Fonction renvoyant le caractère aux coordonnées (x,y) de la map.">
<polygon fill="none" stroke="black" points="426.5,-342.5 426.5,-361.5 498.5,-361.5 498.5,-342.5 426.5,-342.5"/>
<text text-anchor="middle" x="462.5" y="-349.5" font-family="Helvetica,sans-Serif" font-size="10.00">Map::getXY</text>
</a>
</g>
</g>
<!-- Node10&#45;&gt;Node20 -->
<g id="edge22" class="edge">
<title>Node10&#45;&gt;Node20</title>
<path fill="none" stroke="midnightblue" d="M304.31,-266.54C318.96,-282.73 351.03,-315.53 385,-333 394.68,-337.98 405.74,-341.7 416.37,-344.46"/>
<polygon fill="midnightblue" stroke="midnightblue" points="415.85,-347.94 426.39,-346.83 417.46,-341.12 415.85,-347.94"/>
</g>
<!-- Node21 -->
<g id="node21" class="node">
<title>Node21</title>
<g id="a_node21"><a xlink:href="class_projectile.html#aa165871b916e32d9b69150e0dcd7a889" target="_top" xlink:title="Fonction renvoyant la valeur de la donnée membre _inRange.">
<polygon fill="none" stroke="black" points="404.5,-304.5 404.5,-323.5 520.5,-323.5 520.5,-304.5 404.5,-304.5"/>
<text text-anchor="middle" x="462.5" y="-311.5" font-family="Helvetica,sans-Serif" font-size="10.00">Projectile::isInRange</text>
</a>
</g>
</g>
<!-- Node10&#45;&gt;Node21 -->
<g id="edge23" class="edge">
<title>Node10&#45;&gt;Node21</title>
<path fill="none" stroke="midnightblue" d="M320.81,-266.59C338.6,-273.36 363.17,-282.53 385,-290 396.31,-293.87 408.63,-297.84 420.02,-301.41"/>
<polygon fill="midnightblue" stroke="midnightblue" points="419.16,-304.81 429.74,-304.44 421.24,-298.12 419.16,-304.81"/>
</g>
<!-- Node11&#45;&gt;Node12 -->
<g id="edge11" class="edge">
<title>Node11&#45;&gt;Node12</title>
<path fill="none" stroke="midnightblue" d="M514.55,-243.5C534.94,-245.69 558.56,-248.23 579.78,-250.52"/>
<polygon fill="midnightblue" stroke="midnightblue" points="579.66,-254.02 589.98,-251.62 580.41,-247.06 579.66,-254.02"/>
</g>
<!-- Node14 -->
<g id="node14" class="node">
<title>Node14</title>
<g id="a_node14"><a xlink:href="class_window_t_x_t.html#a73e94d4d47e2948899bc75c6b32e177a" target="_top" xlink:title="Fonction permettant de bouger le curseur du terminal.">
<polygon fill="none" stroke="black" points="576,-190.5 576,-209.5 706,-209.5 706,-190.5 576,-190.5"/>
<text text-anchor="middle" x="641" y="-197.5" font-family="Helvetica,sans-Serif" font-size="10.00">WindowTXT::termMove</text>
</a>
</g>
</g>
<!-- Node13&#45;&gt;Node14 -->
<g id="edge13" class="edge">
<title>Node13&#45;&gt;Node14</title>
<path fill="none" stroke="midnightblue" d="M514.55,-200C530.55,-200 548.55,-200 565.81,-200"/>
<polygon fill="midnightblue" stroke="midnightblue" points="565.87,-203.5 575.87,-200 565.87,-196.5 565.87,-203.5"/>
</g>
</g>
</svg>
