<?xml version="1.0" encoding="UTF-8" standalone="no"?>
<!DOCTYPE svg PUBLIC "-//W3C//DTD SVG 1.1//EN"
 "http://www.w3.org/Graphics/SVG/1.1/DTD/svg11.dtd">
<!-- Generated by graphviz version 2.43.0 (0)
 -->
<!-- Title: /home/allan/Licence2_Informatique/ProjetLIFAP4/src/txt/windowTXT.h Pages: 1 -->
<svg width="405pt" height="206pt"
 viewBox="0.00 0.00 405.00 206.00" xmlns="http://www.w3.org/2000/svg" xmlns:xlink="http://www.w3.org/1999/xlink">
<g id="graph0" class="graph" transform="scale(1 1) rotate(0) translate(4 202)">
<title>/home/allan/Licence2_Informatique/ProjetLIFAP4/src/txt/windowTXT.h</title>
<!-- Node1 -->
<g id="node1" class="node">
<title>Node1</title>
<g id="a_node1"><a xlink:title=" ">
<polygon fill="#bfbfbf" stroke="black" points="166,-156.5 166,-197.5 314,-197.5 314,-156.5 166,-156.5"/>
<text text-anchor="start" x="174" y="-185.5" font-family="Helvetica,sans-Serif" font-size="10.00">/home/allan/Licence2</text>
<text text-anchor="start" x="174" y="-174.5" font-family="Helvetica,sans-Serif" font-size="10.00">_Informatique/ProjetLIFAP4</text>
<text text-anchor="middle" x="240" y="-163.5" font-family="Helvetica,sans-Serif" font-size="10.00">/src/txt/windowTXT.h</text>
</a>
</g>
</g>
<!-- Node2 -->
<g id="node2" class="node">
<title>Node2</title>
<g id="a_node2"><a xlink:href="_game_t_x_t_8h.html" target="_top" xlink:title=" ">
<polygon fill="none" stroke="black" points="83,-78.5 83,-119.5 231,-119.5 231,-78.5 83,-78.5"/>
<text text-anchor="start" x="91" y="-107.5" font-family="Helvetica,sans-Serif" font-size="10.00">/home/allan/Licence2</text>
<text text-anchor="start" x="91" y="-96.5" font-family="Helvetica,sans-Serif" font-size="10.00">_Informatique/ProjetLIFAP4</text>
<text text-anchor="middle" x="157" y="-85.5" font-family="Helvetica,sans-Serif" font-size="10.00">/src/txt/GameTXT.h</text>
</a>
</g>
</g>
<!-- Node1&#45;&gt;Node2 -->
<g id="edge1" class="edge">
<title>Node1&#45;&gt;Node2</title>
<path fill="none" stroke="midnightblue" d="M211.05,-149.49C200.28,-139.63 188.26,-128.63 178.3,-119.51"/>
<polygon fill="midnightblue" stroke="midnightblue" points="208.89,-152.26 218.63,-156.43 213.61,-147.09 208.89,-152.26"/>
</g>
<!-- Node5 -->
<g id="node5" class="node">
<title>Node5</title>
<g id="a_node5"><a xlink:href="window_t_x_t_8cpp.html" target="_top" xlink:title=" ">
<polygon fill="none" stroke="black" points="249,-78.5 249,-119.5 397,-119.5 397,-78.5 249,-78.5"/>
<text text-anchor="start" x="257" y="-107.5" font-family="Helvetica,sans-Serif" font-size="10.00">/home/allan/Licence2</text>
<text text-anchor="start" x="257" y="-96.5" font-family="Helvetica,sans-Serif" font-size="10.00">_Informatique/ProjetLIFAP4</text>
<text text-anchor="middle" x="323" y="-85.5" font-family="Helvetica,sans-Serif" font-size="10.00">/src/txt/windowTXT.cpp</text>
</a>
</g>
</g>
<!-- Node1&#45;&gt;Node5 -->
<g id="edge4" class="edge">
<title>Node1&#45;&gt;Node5</title>
<path fill="none" stroke="midnightblue" d="M268.95,-149.49C279.72,-139.63 291.74,-128.63 301.7,-119.51"/>
<polygon fill="midnightblue" stroke="midnightblue" points="266.39,-147.09 261.37,-156.43 271.11,-152.26 266.39,-147.09"/>
</g>
<!-- Node3 -->
<g id="node3" class="node">
<title>Node3</title>
<g id="a_node3"><a xlink:href="_game_t_x_t_8cpp.html" target="_top" xlink:title=" ">
<polygon fill="none" stroke="black" points="0,-0.5 0,-41.5 148,-41.5 148,-0.5 0,-0.5"/>
<text text-anchor="start" x="8" y="-29.5" font-family="Helvetica,sans-Serif" font-size="10.00">/home/allan/Licence2</text>
<text text-anchor="start" x="8" y="-18.5" font-family="Helvetica,sans-Serif" font-size="10.00">_Informatique/ProjetLIFAP4</text>
<text text-anchor="middle" x="74" y="-7.5" font-family="Helvetica,sans-Serif" font-size="10.00">/src/txt/GameTXT.cpp</text>
</a>
</g>
</g>
<!-- Node2&#45;&gt;Node3 -->
<g id="edge2" class="edge">
<title>Node2&#45;&gt;Node3</title>
<path fill="none" stroke="midnightblue" d="M128.05,-71.49C117.28,-61.63 105.26,-50.63 95.3,-41.51"/>
<polygon fill="midnightblue" stroke="midnightblue" points="125.89,-74.26 135.63,-78.43 130.61,-69.09 125.89,-74.26"/>
</g>
<!-- Node4 -->
<g id="node4" class="node">
<title>Node4</title>
<g id="a_node4"><a xlink:href="main_t_x_t_8cpp.html" target="_top" xlink:title=" ">
<polygon fill="none" stroke="black" points="166,-0.5 166,-41.5 314,-41.5 314,-0.5 166,-0.5"/>
<text text-anchor="start" x="174" y="-29.5" font-family="Helvetica,sans-Serif" font-size="10.00">/home/allan/Licence2</text>
<text text-anchor="start" x="174" y="-18.5" font-family="Helvetica,sans-Serif" font-size="10.00">_Informatique/ProjetLIFAP4</text>
<text text-anchor="middle" x="240" y="-7.5" font-family="Helvetica,sans-Serif" font-size="10.00">/src/txt/mainTXT.cpp</text>
</a>
</g>
</g>
<!-- Node2&#45;&gt;Node4 -->
<g id="edge3" class="edge">
<title>Node2&#45;&gt;Node4</title>
<path fill="none" stroke="midnightblue" d="M185.95,-71.49C196.72,-61.63 208.74,-50.63 218.7,-41.51"/>
<polygon fill="midnightblue" stroke="midnightblue" points="183.39,-69.09 178.37,-78.43 188.11,-74.26 183.39,-69.09"/>
</g>
</g>
</svg>
