<?xml version="1.0" encoding="UTF-8" standalone="no"?>
<!DOCTYPE svg PUBLIC "-//W3C//DTD SVG 1.1//EN"
 "http://www.w3.org/Graphics/SVG/1.1/DTD/svg11.dtd">
<!-- Generated by graphviz version 2.43.0 (0)
 -->
<!-- Title: khbit Pages: 1 -->
<svg width="360pt" height="66pt"
 viewBox="0.00 0.00 360.00 66.00" xmlns="http://www.w3.org/2000/svg" xmlns:xlink="http://www.w3.org/1999/xlink">
<g id="graph0" class="graph" transform="scale(1 1) rotate(0) translate(4 62)">
<title>khbit</title>
<!-- Node1 -->
<g id="node1" class="node">
<title>Node1</title>
<g id="a_node1"><a xlink:title=" ">
<polygon fill="#bfbfbf" stroke="black" points="311,-19.5 311,-38.5 352,-38.5 352,-19.5 311,-19.5"/>
<text text-anchor="middle" x="331.5" y="-26.5" font-family="Helvetica,sans-Serif" font-size="10.00">khbit</text>
</a>
</g>
</g>
<!-- Node2 -->
<g id="node2" class="node">
<title>Node2</title>
<g id="a_node2"><a xlink:href="class_window_t_x_t.html#a05997a70b080e106a15520a52d82fd2c" target="_top" xlink:title="Fonction permettant de recevoir un caractère tapé au clavier.">
<polygon fill="none" stroke="black" points="166.5,-38.5 166.5,-57.5 274.5,-57.5 274.5,-38.5 166.5,-38.5"/>
<text text-anchor="middle" x="220.5" y="-45.5" font-family="Helvetica,sans-Serif" font-size="10.00">WindowTXT::getCh</text>
</a>
</g>
</g>
<!-- Node1&#45;&gt;Node2 -->
<g id="edge1" class="edge">
<title>Node1&#45;&gt;Node2</title>
<path fill="none" stroke="midnightblue" d="M300.76,-34.18C292.69,-35.59 283.69,-37.16 274.74,-38.72"/>
<polygon fill="midnightblue" stroke="midnightblue" points="301.51,-37.61 310.76,-32.44 300.31,-30.71 301.51,-37.61"/>
</g>
<!-- Node5 -->
<g id="node5" class="node">
<title>Node5</title>
<g id="a_node5"><a xlink:href="class_window_t_x_t.html#af4d672bb33b4b85c51546864d836543a" target="_top" xlink:title="Fonction permettant de afire pause sur le terminal.">
<polygon fill="none" stroke="black" points="166,-0.5 166,-19.5 275,-19.5 275,-0.5 166,-0.5"/>
<text text-anchor="middle" x="220.5" y="-7.5" font-family="Helvetica,sans-Serif" font-size="10.00">WindowTXT::pause</text>
</a>
</g>
</g>
<!-- Node1&#45;&gt;Node5 -->
<g id="edge4" class="edge">
<title>Node1&#45;&gt;Node5</title>
<path fill="none" stroke="midnightblue" d="M300.89,-23.84C292.92,-22.45 284.05,-20.9 275.21,-19.36"/>
<polygon fill="midnightblue" stroke="midnightblue" points="300.31,-27.29 310.76,-25.56 301.51,-20.39 300.31,-27.29"/>
</g>
<!-- Node3 -->
<g id="node3" class="node">
<title>Node3</title>
<g id="a_node3"><a xlink:href="_game_t_x_t_8h.html#aa8f70cd3510ceae6f2dd1bd542fcaabd" target="_top" xlink:title="Boucle pour l&#39;affichage et la gestion des évènements.">
<polygon fill="none" stroke="black" points="77,-38.5 77,-57.5 130,-57.5 130,-38.5 77,-38.5"/>
<text text-anchor="middle" x="103.5" y="-45.5" font-family="Helvetica,sans-Serif" font-size="10.00">txtLoop</text>
</a>
</g>
</g>
<!-- Node2&#45;&gt;Node3 -->
<g id="edge2" class="edge">
<title>Node2&#45;&gt;Node3</title>
<path fill="none" stroke="midnightblue" d="M156.33,-48C147.09,-48 138.06,-48 130.18,-48"/>
<polygon fill="midnightblue" stroke="midnightblue" points="156.38,-51.5 166.38,-48 156.38,-44.5 156.38,-51.5"/>
</g>
<!-- Node4 -->
<g id="node4" class="node">
<title>Node4</title>
<g id="a_node4"><a xlink:href="main_t_x_t_8cpp.html#a840291bc02cba5474a4cb46a9b9566fe" target="_top" xlink:title=" ">
<polygon fill="none" stroke="black" points="0,-38.5 0,-57.5 41,-57.5 41,-38.5 0,-38.5"/>
<text text-anchor="middle" x="20.5" y="-45.5" font-family="Helvetica,sans-Serif" font-size="10.00">main</text>
</a>
</g>
</g>
<!-- Node3&#45;&gt;Node4 -->
<g id="edge3" class="edge">
<title>Node3&#45;&gt;Node4</title>
<path fill="none" stroke="midnightblue" d="M66.75,-48C57.92,-48 48.79,-48 41.06,-48"/>
<polygon fill="midnightblue" stroke="midnightblue" points="66.87,-51.5 76.87,-48 66.87,-44.5 66.87,-51.5"/>
</g>
</g>
</svg>
